<svg width="52" height="52" viewBox="0 0 52 52" fill="none" xmlns="http://www.w3.org/2000/svg">
<path d="M25.9995 52C40.3589 52 51.9995 40.3594 51.9995 26C51.9995 11.6406 40.3589 0 25.9995 0C11.6401 0 -0.000488281 11.6406 -0.000488281 26C-0.000488281 40.3594 11.6401 52 25.9995 52Z" fill="black"/>
<path d="M25.9997 44.1524C15.9901 44.1524 7.84741 36.0098 7.84741 26.0002C7.84741 15.9906 15.9901 7.8479 25.9997 7.8479C36.0093 7.8479 44.152 15.9906 44.152 26.0002C44.152 36.0098 36.0093 44.1524 25.9997 44.1524ZM25.9997 8.35275C16.27 8.35275 8.35224 16.268 8.35224 26.0002C8.35224 35.7324 16.27 43.6476 25.9997 43.6476C35.7294 43.6476 43.6471 35.7299 43.6471 26.0002C43.6471 16.2705 35.7294 8.35275 25.9997 8.35275Z" fill="#00AA75"/>
<path d="M25.9997 50.6203C22.6782 50.6203 19.4541 49.968 16.415 48.6834C13.4833 47.4437 10.8491 45.6693 8.59225 43.4099C6.3329 41.1506 4.55842 38.5188 3.31878 35.5872C2.03415 32.548 1.38184 29.3215 1.38184 26.0024C1.38184 22.6834 2.03415 19.4568 3.31878 16.4177C4.55842 13.486 6.3329 10.8518 8.59225 8.59494C10.8516 6.33559 13.4833 4.56111 16.415 3.32146C19.4541 2.03683 22.6807 1.38452 25.9997 1.38452C29.3188 1.38452 32.5453 2.03683 35.5845 3.32146C38.5161 4.56111 41.1503 6.33559 43.4072 8.59494C45.6665 10.8543 47.4411 13.486 48.6807 16.4177C49.9653 19.4568 50.6176 22.6834 50.6176 26.0024C50.6176 29.3215 49.9653 32.548 48.6807 35.5872C47.4411 38.5188 45.6665 41.1531 43.4072 43.4099C41.1479 45.6693 38.5161 47.4437 35.5845 48.6834C32.5453 49.968 29.3188 50.6203 25.9997 50.6203ZM25.9997 1.74692C22.7282 1.74692 19.5516 2.38923 16.5575 3.65637C13.6683 4.87851 11.0765 6.62551 8.84968 8.84987C6.62533 11.0742 4.87582 13.6685 3.65617 16.5576C2.38904 19.5518 1.74672 22.7284 1.74672 25.9999C1.74672 29.2715 2.38904 32.4481 3.65617 35.4422C4.87832 38.3314 6.62533 40.9231 8.84968 43.15C11.074 45.3743 13.6683 47.1238 16.5575 48.3435C19.5516 49.6106 22.7282 50.2529 25.9997 50.2529C29.2713 50.2529 32.4479 49.6106 35.442 48.3435C38.3312 47.1213 40.9229 45.3743 43.1498 43.15C45.3742 40.9256 47.1236 38.3314 48.3433 35.4422C49.6104 32.4481 50.2527 29.2715 50.2527 25.9999C50.2527 22.7284 49.6104 19.5518 48.3433 16.5576C47.1211 13.6685 45.3742 11.0767 43.1498 8.84987C40.9254 6.62551 38.3312 4.87601 35.442 3.65637C32.4479 2.38923 29.2713 1.74692 25.9997 1.74692Z" fill="#00AA75"/>
<path d="M8.78756 13.7961C8.92502 13.8811 9.04247 13.9811 9.14244 14.091C9.24241 14.201 9.3174 14.321 9.37238 14.4484C9.42487 14.5784 9.45485 14.7158 9.46235 14.8633C9.46985 15.0108 9.44736 15.1632 9.39987 15.3257C9.37238 15.4181 9.3349 15.5131 9.28491 15.6106C9.23493 15.7081 9.17743 15.808 9.11245 15.9155L8.77755 16.4478L6.42822 14.9683L6.76562 14.4309C6.8331 14.3235 6.90059 14.2285 6.96557 14.1435C7.03305 14.0585 7.10052 13.9836 7.173 13.9186C7.29797 13.8061 7.42794 13.7211 7.5604 13.6611C7.69287 13.6012 7.82783 13.5687 7.96529 13.5612C8.10275 13.5537 8.24021 13.5687 8.37767 13.6112C8.51513 13.6537 8.65257 13.7161 8.79003 13.8011L8.78756 13.7961ZM8.60759 14.081C8.38265 13.9386 8.16773 13.8736 7.96278 13.8836C7.76034 13.8936 7.57039 13.9761 7.39544 14.1235C7.32796 14.181 7.26297 14.251 7.20049 14.3335C7.13801 14.4159 7.07055 14.5134 7.00057 14.6234L6.86309 14.8433L8.69509 15.998L8.83253 15.778C8.90251 15.6681 8.96001 15.5656 9.0075 15.4731C9.05498 15.3807 9.08995 15.2907 9.11245 15.2057C9.16993 14.9833 9.15993 14.7758 9.07495 14.5834C8.99248 14.3909 8.83502 14.2235 8.60759 14.081Z" fill="white"/>
<path d="M11.1492 13.1063L9.06982 11.2668L9.29473 11.0144L11.3742 12.8539L11.1492 13.1063Z" fill="white"/>
<path d="M13.4288 9.42733L12.939 9.82721L12.7465 9.58978L13.4988 8.97496L14.3486 10.0147C14.3361 10.0446 14.3136 10.0846 14.2786 10.1321C14.2461 10.1796 14.2061 10.2321 14.1586 10.2871C14.1111 10.3421 14.0586 10.3995 14.0012 10.4595C13.9437 10.5195 13.8812 10.572 13.8212 10.6245C13.6362 10.7744 13.4538 10.8819 13.2714 10.9469C13.0889 11.0119 12.914 11.0369 12.7415 11.0219C12.5691 11.0069 12.4066 10.9544 12.2492 10.8644C12.0917 10.7744 11.9467 10.647 11.8143 10.4845C11.6718 10.3096 11.5669 10.1271 11.5044 9.93968C11.4419 9.75223 11.4194 9.56479 11.4369 9.37984C11.4544 9.19489 11.5169 9.01494 11.6168 8.83999C11.7168 8.66504 11.8543 8.50759 12.0292 8.36513C12.0767 8.32764 12.1242 8.29015 12.1742 8.25516C12.2242 8.22017 12.2741 8.19018 12.3216 8.16019C12.3691 8.1327 12.4166 8.10771 12.4616 8.08771C12.5066 8.06772 12.5441 8.05272 12.579 8.04272L12.769 8.27266C12.6865 8.30265 12.5991 8.34514 12.5041 8.40012C12.4091 8.45261 12.3191 8.51509 12.2366 8.58257C12.1142 8.68254 12.0142 8.79501 11.9317 8.92497C11.8518 9.05243 11.7993 9.18739 11.7768 9.33235C11.7543 9.47731 11.7618 9.62477 11.8043 9.77972C11.8468 9.93468 11.9292 10.0871 12.0542 10.2396C12.1767 10.3895 12.3016 10.4995 12.4316 10.5745C12.5616 10.6495 12.694 10.6895 12.829 10.697C12.9639 10.7045 13.0989 10.682 13.2364 10.627C13.3738 10.572 13.5088 10.4895 13.6412 10.3796C13.7037 10.3296 13.7612 10.2746 13.8162 10.2196C13.8712 10.1646 13.9162 10.1121 13.9537 10.0621L13.4313 9.42233L13.4288 9.42733Z" fill="white"/>
<path d="M16.038 9.03983L14.6509 6.63553L14.9433 6.46558L16.3304 8.86988L16.038 9.03983Z" fill="white"/>
<path d="M19.0019 7.61532L18.687 7.73778L17.7872 5.43595L16.9225 5.77335L16.8125 5.48843L18.8544 4.69116L18.9644 4.97608L18.0996 5.31348L18.9994 7.61532H19.0019Z" fill="white"/>
<path d="M20.9869 6.93554L21.5692 3.99639L21.8566 3.94141L23.4937 6.45068L23.1337 6.52066L22.6489 5.76338L21.5092 5.98332L21.3418 6.86806L20.9844 6.93804L20.9869 6.93554ZM21.7916 4.39378C21.7367 4.75617 21.6792 5.08608 21.6217 5.38599L21.5692 5.66341L22.4715 5.48846L22.319 5.25103C22.1515 4.9911 21.9791 4.70369 21.7991 4.39128H21.7916V4.39378Z" fill="white"/>
<path d="M25.4426 3.56641L25.4826 6.03819L26.8372 6.0157L26.8422 6.32061L25.1502 6.3481L25.1052 3.5739L25.4426 3.56891V3.56641Z" fill="white"/>
<path d="M30.2515 6.75319L32.1084 4.40137L32.3883 4.48384L32.7032 7.46548L32.3508 7.36301L32.2659 6.46827L31.1512 6.14586L30.6013 6.85566L30.2515 6.75569V6.75319ZM32.1259 4.85624C31.911 5.15365 31.711 5.42107 31.5236 5.6635L31.3511 5.88594L32.2359 6.14087L32.2084 5.86095C32.1784 5.55353 32.1559 5.21863 32.1359 4.85874H32.1284L32.1259 4.85624Z" fill="white"/>
<path d="M35.4076 6.42571C35.3702 6.49818 35.3552 6.56567 35.3602 6.62815C35.3652 6.69063 35.3852 6.75061 35.4177 6.8056C35.4526 6.86308 35.4951 6.91556 35.5526 6.97055C35.6076 7.02303 35.6676 7.07802 35.7301 7.1305C35.8125 7.20298 35.895 7.27796 35.9725 7.35294C36.05 7.42792 36.1124 7.51039 36.1599 7.59787C36.2074 7.68534 36.2324 7.78032 36.2349 7.88279C36.2374 7.98526 36.2074 8.10022 36.1449 8.22519C36.08 8.35265 35.9975 8.45012 35.9025 8.5201C35.8076 8.58758 35.7001 8.63007 35.5851 8.64507C35.4676 8.66006 35.3452 8.65256 35.2127 8.62257C35.0803 8.59258 34.9453 8.5401 34.8053 8.47012C34.7404 8.43763 34.6779 8.40014 34.6154 8.35765C34.5529 8.31516 34.4929 8.27267 34.4404 8.22769C34.3854 8.1827 34.338 8.14021 34.298 8.09772C34.258 8.05524 34.228 8.01775 34.208 7.98526L34.348 7.71034C34.3804 7.75532 34.4205 7.80031 34.4654 7.8478C34.5104 7.89528 34.5604 7.94027 34.6129 7.98276C34.6654 8.02524 34.7204 8.06773 34.7753 8.10522C34.8328 8.14271 34.8853 8.1752 34.9403 8.20269C35.0253 8.24768 35.1127 8.28267 35.1977 8.30766C35.2827 8.33266 35.3652 8.34265 35.4426 8.34015C35.5201 8.33516 35.5901 8.31266 35.6551 8.27017C35.7201 8.22769 35.775 8.1627 35.8225 8.07273C35.86 7.99775 35.8775 7.93027 35.87 7.86779C35.865 7.80531 35.845 7.74283 35.8101 7.68784C35.7751 7.63036 35.7301 7.57537 35.6751 7.52289C35.6201 7.4704 35.5601 7.41542 35.4951 7.36044C35.4102 7.28796 35.3302 7.21548 35.2527 7.1405C35.1752 7.06552 35.1127 6.98554 35.0652 6.89807C35.0178 6.81309 34.9928 6.71812 34.9903 6.61815C34.9853 6.51818 35.0153 6.40821 35.0778 6.28825C35.1427 6.16328 35.2202 6.06581 35.3127 6.00083C35.4052 5.93335 35.5051 5.89086 35.6151 5.87337C35.7226 5.85337 35.8375 5.85837 35.9525 5.88086C36.07 5.90586 36.1849 5.94584 36.2999 6.00583C36.4324 6.07331 36.5473 6.14829 36.6498 6.23326C36.7498 6.31574 36.8372 6.40321 36.9122 6.49319L36.7698 6.77311C36.6898 6.67813 36.6023 6.58816 36.5073 6.50568C36.4124 6.42321 36.3024 6.34823 36.1799 6.28325C36.0875 6.23576 36 6.20327 35.92 6.18827C35.84 6.17328 35.7676 6.17328 35.7026 6.18827C35.6376 6.20327 35.5801 6.23076 35.5301 6.27325C35.4802 6.31574 35.4402 6.36822 35.4052 6.4332L35.4076 6.42571Z" fill="white"/>
<path d="M38.7913 8.4526C38.7413 8.51758 38.7138 8.58006 38.7063 8.64254C38.6988 8.70502 38.7063 8.7675 38.7313 8.82749C38.7538 8.88997 38.7888 8.94995 38.8338 9.01493C38.8788 9.07742 38.9263 9.1399 38.9787 9.20488C39.0487 9.29235 39.1137 9.37983 39.1762 9.4673C39.2387 9.55728 39.2861 9.64725 39.3161 9.74222C39.3461 9.8372 39.3536 9.93467 39.3387 10.0371C39.3237 10.1396 39.2737 10.2471 39.1862 10.357C39.0987 10.472 39.0012 10.552 38.8938 10.602C38.7863 10.652 38.6738 10.6745 38.5589 10.667C38.4414 10.662 38.3214 10.632 38.1965 10.577C38.0715 10.522 37.949 10.447 37.8241 10.352C37.7666 10.3071 37.7116 10.2596 37.6566 10.2071C37.6016 10.1546 37.5516 10.0996 37.5067 10.0471C37.4617 9.99465 37.4242 9.94217 37.3917 9.89218C37.3592 9.8422 37.3367 9.80221 37.3242 9.76722L37.5117 9.52229C37.5367 9.57227 37.5666 9.62476 37.6041 9.67974C37.6416 9.73473 37.6816 9.78721 37.7241 9.8397C37.7666 9.89218 37.8141 9.94217 37.8616 9.98965C37.9091 10.0371 37.959 10.0796 38.004 10.1146C38.0815 10.1746 38.159 10.2246 38.239 10.2646C38.3189 10.3046 38.3964 10.3296 38.4739 10.3396C38.5489 10.3495 38.6238 10.3396 38.6963 10.3096C38.7688 10.2796 38.8338 10.2246 38.8963 10.1446C38.9463 10.0796 38.9762 10.0146 38.9812 9.94966C38.9862 9.88718 38.9787 9.8222 38.9563 9.75972C38.9338 9.69724 38.8988 9.63475 38.8538 9.57227C38.8088 9.50979 38.7588 9.44481 38.7063 9.37983C38.6363 9.29485 38.5689 9.20738 38.5064 9.1199C38.4439 9.03243 38.3964 8.94245 38.3664 8.84998C38.3364 8.75751 38.3289 8.66004 38.3414 8.56256C38.3564 8.46259 38.4039 8.36012 38.4864 8.25265C38.5714 8.14019 38.6663 8.06021 38.7688 8.01022C38.8713 7.96024 38.9788 7.93774 39.0887 7.93774C39.1987 7.93774 39.3087 7.96274 39.4211 8.00772C39.5311 8.05271 39.6386 8.11519 39.741 8.19517C39.8585 8.28514 39.9585 8.38012 40.0434 8.48009C40.1284 8.58006 40.1984 8.68253 40.2534 8.7825L40.0634 9.02993C40.0009 8.92246 39.931 8.81749 39.8535 8.72002C39.776 8.62255 39.681 8.53007 39.5711 8.4426C39.4886 8.37762 39.4086 8.33263 39.3336 8.30264C39.2587 8.27265 39.1887 8.26015 39.1212 8.26265C39.0537 8.26265 38.9938 8.28264 38.9363 8.31514C38.8788 8.34763 38.8288 8.39261 38.7838 8.4501L38.7913 8.4526Z" fill="white"/>
<path d="M40.5086 12.2714L41.4608 13.3286L41.2334 13.5335L40.0537 12.2264L42.1156 10.3669L43.2428 11.6166L43.0154 11.8215L42.1131 10.8218L41.4483 11.4216L42.2506 12.3114L42.0231 12.5163L41.2209 11.6266L40.5036 12.2739L40.5086 12.2714Z" fill="white"/>
<path d="M42.843 15.8455L42.6655 15.5581L44.7699 14.2634L44.2826 13.4737L44.5425 13.3137L45.6922 15.1807L45.4322 15.3406L44.9449 14.5509L42.8405 15.8455H42.843Z" fill="white"/>
<path d="M20.6865 47.3464L19.5518 47.0265L19.0395 47.7113L18.4521 47.5464L20.4966 44.8696L21.0014 45.0121L21.3488 48.3636L20.7665 48.1987L20.689 47.3464H20.6865ZM20.5415 45.6644C20.3466 45.9493 20.1791 46.1868 20.0367 46.3742L19.8592 46.6141L20.639 46.8341L20.6115 46.5366C20.589 46.2992 20.5715 46.0093 20.5515 45.6669H20.5415V45.6644Z" fill="white"/>
<path d="M25.495 47.8987C25.5674 47.6537 25.6574 47.3913 25.7624 47.1089L26.3272 45.6193L27.132 45.6318L27.082 48.7634L26.5096 48.7534L26.5346 47.1664C26.5396 46.934 26.5521 46.664 26.5771 46.3566H26.5572C26.5297 46.4441 26.4972 46.5441 26.4597 46.654C26.4222 46.764 26.3822 46.874 26.3422 46.9789L25.6649 48.7384L25.295 48.7334L24.6752 46.9539C24.6377 46.8465 24.6027 46.7365 24.5677 46.624C24.5327 46.5116 24.5052 46.4116 24.4802 46.3241H24.4603C24.4752 46.6116 24.4802 46.8815 24.4752 47.1314L24.4502 48.7209L23.8779 48.7109L23.9279 45.5793L24.7277 45.5918L25.245 47.0914C25.3325 47.3413 25.4125 47.6088 25.4875 47.8962H25.5025L25.495 47.8987Z" fill="white"/>
<path d="M29.8966 48.3362L29.0718 45.3171L29.8716 45.0996C29.9415 45.0796 30.014 45.0621 30.089 45.0471C30.164 45.0321 30.2365 45.0196 30.3089 45.0096C30.3814 44.9996 30.4514 44.9921 30.5189 44.9871C30.5864 44.9821 30.6513 44.9821 30.7088 44.9871C30.8838 44.9946 31.0437 45.0246 31.1912 45.0771C31.3386 45.1296 31.4711 45.2046 31.5861 45.3021C31.701 45.3995 31.801 45.5145 31.8835 45.6495C31.9659 45.7844 32.0309 45.9369 32.0784 46.1093C32.1234 46.2718 32.1459 46.4292 32.1484 46.5817C32.1509 46.7341 32.1309 46.8791 32.0909 47.0166C32.0484 47.154 31.9835 47.284 31.896 47.404C31.8085 47.5239 31.696 47.6339 31.5586 47.7339C31.4436 47.8163 31.3087 47.8938 31.1537 47.9613C30.9987 48.0288 30.8188 48.0913 30.6138 48.1462L29.8966 48.3412V48.3362ZM30.5514 47.6589C30.8738 47.5714 31.1162 47.4564 31.2737 47.319C31.4136 47.194 31.5036 47.0466 31.5436 46.8716C31.5861 46.6967 31.5736 46.4917 31.5086 46.2543C31.4761 46.1318 31.4311 46.0243 31.3761 45.9319C31.3212 45.8394 31.2587 45.7619 31.1862 45.6994C31.1137 45.637 31.0337 45.587 30.9462 45.5495C30.8588 45.5145 30.7638 45.4895 30.6613 45.4795C30.5663 45.4695 30.4639 45.472 30.3539 45.4845C30.2439 45.497 30.124 45.522 29.994 45.5595L29.7491 45.627L30.3214 47.7214L30.5489 47.6589H30.5514Z" fill="white"/>
<path d="M11.7816 40.7158C11.7441 40.6783 11.7041 40.6508 11.6666 40.6308C11.6291 40.6108 11.5891 40.5983 11.5516 40.5933C11.5141 40.5883 11.4767 40.5908 11.4392 40.5983C11.4017 40.6058 11.3667 40.6208 11.3317 40.6408C11.3092 40.6533 11.2867 40.6683 11.2642 40.6883C11.2417 40.7083 11.2192 40.7283 11.2017 40.7483L10.5669 41.4031L10.4395 41.2781L11.0717 40.6258C11.0967 40.6008 11.1218 40.5758 11.1517 40.5533C11.1792 40.5283 11.2092 40.5083 11.2367 40.4909C11.2842 40.4609 11.3342 40.4409 11.3867 40.4259C11.4391 40.4134 11.4916 40.4084 11.5491 40.4159C11.6066 40.4234 11.6616 40.4409 11.7191 40.4709C11.7766 40.5008 11.8365 40.5458 11.8965 40.6033C11.954 40.6583 11.999 40.7158 12.0315 40.7708C12.064 40.8258 12.084 40.8807 12.094 40.9332C12.104 40.9857 12.104 41.0382 12.094 41.0882C12.084 41.1382 12.0665 41.1857 12.044 41.2331C12.0265 41.2681 12.004 41.3006 11.979 41.3331C11.954 41.3656 11.9265 41.3981 11.899 41.4256L11.2667 42.0779L11.1392 41.9529L11.7741 41.2981C11.7966 41.2756 11.819 41.2481 11.839 41.2206C11.859 41.1931 11.8765 41.1657 11.889 41.1382C11.919 41.0682 11.929 40.9982 11.914 40.9282C11.899 40.8582 11.8565 40.7883 11.7866 40.7183L11.7816 40.7158Z" fill="white"/>
<path d="M9.82471 40.0263C9.8572 39.9988 9.8797 39.9688 9.8897 39.9363C9.89969 39.9038 9.9022 39.8713 9.8972 39.8363C9.8922 39.8013 9.88221 39.7663 9.86471 39.7289C9.84972 39.6914 9.82973 39.6539 9.81224 39.6139C9.78724 39.5614 9.76224 39.5089 9.73975 39.4564C9.71725 39.4039 9.70475 39.3515 9.69975 39.299C9.69475 39.2465 9.69977 39.194 9.72227 39.144C9.74226 39.094 9.77974 39.044 9.83722 38.9966C9.89471 38.9466 9.95468 38.9166 10.0172 38.9041C10.0796 38.8916 10.1396 38.8916 10.1996 38.9091C10.2596 38.9266 10.3196 38.9541 10.3771 38.9966C10.4346 39.0391 10.4895 39.0915 10.5445 39.154C10.5695 39.184 10.592 39.214 10.6145 39.249C10.637 39.284 10.657 39.3165 10.672 39.349C10.687 39.3815 10.702 39.4139 10.7145 39.4414C10.7245 39.4714 10.732 39.4939 10.7345 39.5139L10.6095 39.6189C10.602 39.5889 10.592 39.5589 10.5795 39.5264C10.567 39.4939 10.552 39.4614 10.5345 39.4289C10.517 39.3964 10.4995 39.3665 10.4795 39.3365C10.4595 39.3065 10.4395 39.279 10.4195 39.254C10.3871 39.214 10.3521 39.179 10.3146 39.149C10.2771 39.119 10.2396 39.0965 10.2021 39.084C10.1646 39.069 10.1246 39.0665 10.0846 39.074C10.0447 39.0815 10.0047 39.1015 9.96219 39.1365C9.9297 39.164 9.9072 39.194 9.8972 39.2265C9.88721 39.259 9.8847 39.2915 9.8897 39.3265C9.8947 39.3615 9.90469 39.3989 9.92219 39.4364C9.93719 39.4739 9.95717 39.5114 9.97717 39.5514C10.0047 39.6039 10.0272 39.6564 10.0497 39.7089C10.0721 39.7613 10.0847 39.8138 10.0897 39.8638C10.0947 39.9163 10.0897 39.9663 10.0697 40.0163C10.0497 40.0663 10.0147 40.1137 9.95968 40.1587C9.9022 40.2062 9.84473 40.2387 9.78475 40.2512C9.72726 40.2637 9.66727 40.2662 9.61228 40.2512C9.5548 40.2387 9.50231 40.2137 9.44982 40.1787C9.39734 40.1437 9.34986 40.0987 9.30487 40.0463C9.25489 39.9863 9.2124 39.9263 9.18241 39.8638C9.14992 39.8013 9.12492 39.7413 9.10742 39.6839L9.23489 39.5764C9.25488 39.6389 9.27739 39.7014 9.30738 39.7613C9.33737 39.8213 9.37485 39.8788 9.42233 39.9363C9.45732 39.9788 9.49483 40.0113 9.52982 40.0363C9.56481 40.0588 9.59978 40.0763 9.63477 40.0812C9.66976 40.0887 9.70225 40.0863 9.73474 40.0763C9.76723 40.0663 9.79973 40.0488 9.82972 40.0238L9.82471 40.0263Z" fill="white"/>
<path d="M7.55524 37.5794L8.67491 36.9046L8.30502 36.2898L8.44249 36.2073L8.90485 36.9746L7.64521 37.7318L7.55273 37.5794H7.55524Z" fill="white"/>
<path d="M8.05235 35.4949L6.46782 35.5799L6.40283 35.4399L7.47503 34.2703L7.5575 34.4452L7.23258 34.7926L7.49502 35.3475L7.96989 35.3175L8.05235 35.4924V35.4949ZM6.64275 35.4149C6.8352 35.3949 7.01265 35.3824 7.1726 35.3724L7.32008 35.3625L7.11262 34.9226L7.01014 35.0325C6.89767 35.1525 6.77521 35.2775 6.63775 35.4124V35.4174L6.64275 35.4149Z" fill="white"/>
<path d="M6.50829 33.4606L7.0831 33.2607L7.14308 33.4307L5.756 33.9155L5.63104 33.5556C5.61104 33.4956 5.59353 33.4432 5.58354 33.3982C5.57354 33.3532 5.56605 33.3132 5.56355 33.2732C5.55605 33.1682 5.57604 33.0783 5.62103 33.0058C5.66602 32.9333 5.73599 32.8783 5.83096 32.8458C5.88595 32.8258 5.94093 32.8183 5.99092 32.8208C6.0409 32.8208 6.08841 32.8358 6.1334 32.8558C6.17838 32.8758 6.21837 32.9058 6.25336 32.9458C6.29084 32.9833 6.32334 33.0283 6.35083 33.0808H6.3558L6.80569 32.4609L6.86567 32.6309L6.4408 33.2582L6.51326 33.4631L6.50829 33.4606ZM5.84847 33.6906L6.3558 33.5131L6.29833 33.3457C6.28083 33.2932 6.26335 33.2507 6.24585 33.2157C6.23085 33.1807 6.21087 33.1507 6.19338 33.1232C6.15589 33.0708 6.11089 33.0358 6.06091 33.0183C6.01092 33.0008 5.95342 33.0033 5.88844 33.0233C5.82846 33.0458 5.78597 33.0758 5.76097 33.1182C5.73598 33.1607 5.72351 33.2107 5.72601 33.2682C5.72601 33.2957 5.73099 33.3282 5.74099 33.3632C5.74849 33.3982 5.76349 33.4432 5.78099 33.4956L5.84847 33.6881V33.6906Z" fill="white"/>
<path d="M5.73097 30.7039L5.80596 31.0313L5.6485 31.0687L5.53354 30.5689L6.22585 30.4089C6.23835 30.4214 6.25082 30.4414 6.26582 30.4689C6.28081 30.4964 6.29582 30.5264 6.31082 30.5639C6.32581 30.5989 6.34079 30.6389 6.35579 30.6789C6.37078 30.7213 6.38078 30.7613 6.39078 30.8038C6.41827 30.9263 6.42826 31.0388 6.41577 31.1412C6.40327 31.2437 6.37578 31.3312 6.3283 31.4111C6.28081 31.4886 6.21833 31.5536 6.13835 31.6086C6.05837 31.6611 5.9634 31.7011 5.85593 31.7261C5.73846 31.7535 5.62851 31.7585 5.52354 31.746C5.41857 31.7336 5.32609 31.6986 5.24362 31.6461C5.16114 31.5936 5.08867 31.5236 5.02868 31.4361C4.9687 31.3487 4.92621 31.2462 4.89872 31.1287C4.89122 31.0987 4.88623 31.0662 4.88123 31.0338C4.87624 31.0013 4.87373 30.9713 4.87123 30.9413C4.87123 30.9113 4.86873 30.8838 4.87123 30.8588C4.87123 30.8338 4.87373 30.8113 4.87623 30.7938L5.03119 30.7588C5.02619 30.8038 5.02619 30.8563 5.03119 30.9138C5.03368 30.9713 5.04368 31.0288 5.05617 31.0837C5.07617 31.1662 5.10615 31.2387 5.14614 31.3087C5.18863 31.3762 5.24112 31.4336 5.3036 31.4786C5.36608 31.5236 5.43856 31.5536 5.52354 31.5711C5.60851 31.5886 5.69848 31.5836 5.80095 31.5611C5.90092 31.5386 5.9834 31.5036 6.04838 31.4586C6.11336 31.4136 6.16334 31.3612 6.19833 31.2987C6.23332 31.2362 6.25331 31.1662 6.26081 31.0887C6.26581 31.0113 6.26082 30.9263 6.23833 30.8388C6.22833 30.7963 6.21833 30.7563 6.20333 30.7188C6.19084 30.6789 6.17586 30.6464 6.16087 30.6164L5.73597 30.7138L5.73097 30.7039Z" fill="white"/>
<path d="M5.91348 29.2067L5.82101 28.4594L5.98093 28.4395L6.09592 29.3642L4.63632 29.5441L4.52637 28.6594L4.68632 28.6394L4.77379 29.3467L5.24366 29.2892L5.16617 28.6594L5.32612 28.6394L5.40362 29.2692L5.91098 29.2067H5.91348Z" fill="white"/>
<path d="M4.57099 25.6302C4.57099 25.7126 4.57846 25.7901 4.60345 25.8626C4.62844 25.9351 4.66345 25.9976 4.71343 26.0525C4.76342 26.1075 4.8259 26.15 4.90088 26.1825C4.97586 26.215 5.06581 26.2325 5.16579 26.235C5.26576 26.2375 5.35575 26.2275 5.43072 26.2C5.5057 26.175 5.56818 26.135 5.61817 26.085C5.66816 26.035 5.70564 25.9726 5.73313 25.9001C5.75812 25.8276 5.77313 25.7476 5.77563 25.6577C5.77563 25.6327 5.77563 25.6077 5.77563 25.5802C5.77563 25.5527 5.77062 25.5252 5.76812 25.4977C5.76312 25.4702 5.76064 25.4427 5.75314 25.4152C5.74814 25.3877 5.74063 25.3652 5.73563 25.3452L5.89308 25.3502C5.90808 25.3927 5.92058 25.4452 5.92808 25.5027C5.93558 25.5602 5.93808 25.6177 5.93558 25.6777C5.93308 25.8001 5.91059 25.9076 5.8756 26.0001C5.83811 26.0925 5.78813 26.1725 5.72315 26.2325C5.65817 26.295 5.57817 26.34 5.4857 26.37C5.39323 26.3999 5.28826 26.4124 5.17079 26.4099C5.05582 26.4074 4.95085 26.3874 4.85838 26.3475C4.76341 26.31 4.68344 26.2575 4.61596 26.19C4.54848 26.1225 4.49849 26.0425 4.461 25.9476C4.42351 25.8526 4.40853 25.7476 4.41353 25.6327C4.41353 25.6027 4.41601 25.5727 4.42101 25.5427C4.426 25.5127 4.42852 25.4852 4.43351 25.4577C4.43851 25.4302 4.446 25.4052 4.4535 25.3827C4.461 25.3602 4.46851 25.3402 4.47601 25.3228L4.63347 25.3278C4.61847 25.3727 4.60347 25.4202 4.59347 25.4727C4.58347 25.5252 4.57596 25.5777 4.57346 25.6302H4.57099Z" fill="white"/>
<path d="M5.97815 24.5181L4.60107 23.7283L4.62106 23.5759L6.15812 23.1785L6.13313 23.3709L5.67074 23.4859L5.58828 24.0957L6.00317 24.3281L5.97815 24.5181ZM4.83849 23.6858C5.01094 23.7758 5.1684 23.8608 5.30836 23.9382L5.43833 24.0107L5.50331 23.5284L5.35833 23.5659C5.19838 23.6058 5.02594 23.6433 4.83849 23.6808V23.6858Z" fill="white"/>
<path d="M6.38315 22.1112L6.34065 22.2862L4.91357 21.9388L5.00855 21.5439C5.02354 21.4839 5.03853 21.4314 5.05852 21.3839C5.07852 21.3364 5.10101 21.2915 5.12601 21.254C5.17849 21.1765 5.23847 21.1215 5.31095 21.094C5.38343 21.064 5.4634 21.0615 5.55087 21.0815C5.62335 21.099 5.68333 21.129 5.73081 21.1715C5.7783 21.214 5.8158 21.2665 5.8383 21.3315C5.86079 21.3939 5.87329 21.4689 5.87329 21.5514C5.87329 21.6339 5.86079 21.7263 5.83579 21.8263C5.8233 21.8738 5.81079 21.9238 5.7933 21.9738L6.38065 22.1162L6.38315 22.1112ZM5.63584 21.9288C5.64334 21.9063 5.65336 21.8813 5.66086 21.8563C5.66835 21.8313 5.67584 21.8063 5.68084 21.7838C5.70083 21.7013 5.71083 21.6314 5.71333 21.5689C5.71333 21.5089 5.70834 21.4564 5.69085 21.4139C5.67585 21.3714 5.65085 21.3389 5.62086 21.314C5.59087 21.289 5.55089 21.2715 5.5059 21.2615C5.45092 21.249 5.40091 21.2515 5.35842 21.269C5.31594 21.2865 5.28096 21.319 5.24847 21.3639C5.22847 21.3914 5.21346 21.4239 5.19847 21.4639C5.18347 21.5039 5.171 21.5489 5.1585 21.6014L5.10849 21.8038L5.63337 21.9313L5.63584 21.9288Z" fill="white"/>
<path d="M13.4758 43.2501L14.0157 43.675L13.3309 43.645L13.0934 44.2898L12.9085 43.6275L12.2212 43.6L12.796 43.2201L12.6086 42.5603L13.1459 42.9877L13.7183 42.6053L13.4758 43.2501Z" fill="#00AA75"/>
<path d="M6.44804 17.8873L7.41029 17.8399L6.658 18.4397L6.9979 19.3394L6.19564 18.8096L5.44335 19.4119L5.70076 18.4847L4.896 17.9573L5.85821 17.9148L6.11064 16.9851L6.44804 17.8873Z" fill="#00AA75"/>
<path d="M38.9988 43.2501L38.459 43.675L39.1463 43.645L39.3837 44.2898L39.5687 43.6275L40.2535 43.6L39.6811 43.2201L39.8686 42.5603L39.3312 42.9877L38.7589 42.6053L38.9988 43.2501Z" fill="#00AA75"/>
<path d="M46.0291 17.8873L45.0669 17.8399L45.8192 18.4397L45.4768 19.3394L46.2815 18.8096L47.0313 19.4119L46.7764 18.4847L47.5812 17.9573L46.619 17.9148L46.3665 16.9851L46.0291 17.8873Z" fill="#00AA75"/>
<path d="M45.9569 22.2163C45.9694 22.2688 45.9844 22.3138 46.0069 22.3512C46.0269 22.3887 46.0519 22.4212 46.0818 22.4462C46.1118 22.4712 46.1418 22.4912 46.1793 22.5037C46.2143 22.5162 46.2518 22.5237 46.2943 22.5262C46.3193 22.5262 46.3468 22.5262 46.3767 22.5262C46.4067 22.5237 46.4343 22.5187 46.4617 22.5112L47.3515 22.3138L47.389 22.4887L46.5042 22.6836C46.4717 22.6911 46.4343 22.6961 46.3993 22.7011C46.3618 22.7061 46.3268 22.7086 46.2943 22.7061C46.2393 22.7061 46.1843 22.6936 46.1343 22.6761C46.0843 22.6587 46.0369 22.6312 45.9944 22.5962C45.9519 22.5612 45.9144 22.5137 45.8819 22.4562C45.8494 22.3987 45.8244 22.3287 45.8069 22.2488C45.7894 22.1688 45.7819 22.0988 45.7869 22.0363C45.7919 21.9739 45.8044 21.9164 45.8244 21.8689C45.8444 21.8189 45.8744 21.7764 45.9094 21.7414C45.9444 21.7064 45.9869 21.6739 46.0318 21.6489C46.0643 21.6315 46.1018 21.614 46.1418 21.6015C46.1818 21.589 46.2218 21.5765 46.2593 21.569L47.144 21.374L47.1815 21.549L46.2918 21.7464C46.2593 21.7539 46.2268 21.7639 46.1943 21.7764C46.1618 21.7889 46.1318 21.8039 46.1068 21.8189C46.0444 21.8589 45.9969 21.9139 45.9694 21.9789C45.9419 22.0463 45.9394 22.1263 45.9594 22.2238L45.9569 22.2163Z" fill="white"/>
<path d="M47.2092 23.8707C47.1667 23.8757 47.1317 23.8882 47.1067 23.9082C47.0817 23.9281 47.0592 23.9556 47.0442 23.9856C47.0292 24.0156 47.0192 24.0531 47.0117 24.0931C47.0042 24.1331 46.9992 24.1756 46.9917 24.2181C46.9842 24.2755 46.9742 24.333 46.9642 24.3905C46.9542 24.448 46.9367 24.498 46.9117 24.5455C46.8867 24.593 46.8518 24.6304 46.8093 24.6629C46.7643 24.6954 46.7043 24.7154 46.6318 24.7229C46.5568 24.7329 46.4894 24.7229 46.4319 24.7029C46.3744 24.6804 46.3244 24.6454 46.2819 24.6005C46.2419 24.553 46.2095 24.4955 46.1845 24.4305C46.1595 24.363 46.142 24.288 46.132 24.2056C46.127 24.1681 46.127 24.1281 46.127 24.0881C46.127 24.0481 46.127 24.0081 46.1345 23.9731C46.1395 23.9356 46.1445 23.9032 46.152 23.8732C46.1595 23.8432 46.167 23.8182 46.1745 23.8007L46.3369 23.7832C46.3269 23.8107 46.3169 23.8407 46.3119 23.8757C46.3044 23.9106 46.2994 23.9456 46.2944 23.9806C46.2894 24.0156 46.2894 24.0531 46.2894 24.0881C46.2894 24.1231 46.2894 24.1581 46.2944 24.1881C46.2994 24.2381 46.3094 24.288 46.3244 24.333C46.3394 24.378 46.3569 24.418 46.3819 24.4505C46.4069 24.483 46.4369 24.508 46.4744 24.523C46.5118 24.538 46.5568 24.5455 46.6093 24.538C46.6518 24.533 46.6868 24.5205 46.7143 24.498C46.7418 24.4755 46.7618 24.4505 46.7768 24.418C46.7918 24.3855 46.8043 24.3505 46.8093 24.3105C46.8168 24.2705 46.8218 24.2281 46.8293 24.1831C46.8368 24.1256 46.8443 24.0681 46.8543 24.0106C46.8642 23.9531 46.8817 23.9032 46.9067 23.8582C46.9317 23.8132 46.9642 23.7732 47.0067 23.7432C47.0492 23.7132 47.1067 23.6932 47.1792 23.6857C47.2541 23.6782 47.3191 23.6857 47.3766 23.7057C47.4341 23.7257 47.4816 23.7582 47.5216 23.8007C47.5616 23.8432 47.5941 23.8932 47.6165 23.9531C47.639 24.0106 47.6565 24.0756 47.664 24.1431C47.674 24.2206 47.674 24.2955 47.664 24.363C47.654 24.4305 47.644 24.4955 47.6265 24.5555L47.4616 24.573C47.4816 24.5105 47.4941 24.4455 47.5041 24.378C47.5141 24.313 47.5141 24.2431 47.5041 24.1681C47.4991 24.1131 47.4866 24.0656 47.4691 24.0256C47.4516 23.9856 47.4316 23.9531 47.4066 23.9306C47.3816 23.9057 47.3516 23.8882 47.3191 23.8807C47.2866 23.8707 47.2492 23.8682 47.2117 23.8732L47.2092 23.8707Z" fill="white"/>
<path d="M47.751 27.1647L46.4439 27.1122L46.4139 27.8295L46.2515 27.822L46.289 26.9272L47.7585 26.9872L47.751 27.1647Z" fill="white"/>
<path d="M46.189 28.6268L47.5586 29.4265L47.5361 29.579L45.9966 29.9639L46.0241 29.7714L46.4864 29.659L46.5739 29.0516L46.1615 28.8142L46.189 28.6243V28.6268ZM47.3212 29.469C47.1487 29.3791 46.9938 29.2941 46.8538 29.2116L46.7239 29.1366L46.6564 29.619L46.8013 29.584C46.9613 29.5465 47.1337 29.509 47.3212 29.4715V29.4665V29.469Z" fill="white"/>
<path d="M46.3563 31.1835L45.7665 31.0335L45.8115 30.8611L47.2361 31.221L47.1436 31.5909C47.1286 31.6534 47.1111 31.7058 47.0961 31.7483C47.0811 31.7908 47.0636 31.8283 47.0436 31.8633C46.9911 31.9558 46.9261 32.0207 46.8487 32.0557C46.7712 32.0907 46.6837 32.0982 46.5863 32.0732C46.5288 32.0582 46.4788 32.0357 46.4388 32.0058C46.3988 31.9758 46.3663 31.9408 46.3413 31.8983C46.3163 31.8558 46.2988 31.8108 46.2888 31.7583C46.2788 31.7058 46.2763 31.6509 46.2813 31.5909H46.2763L45.5615 31.8583L45.6065 31.6858L46.3063 31.3959L46.3588 31.186L46.3563 31.1835ZM47.0361 31.3534L46.5138 31.221L46.4713 31.3934C46.4588 31.4459 46.4488 31.4934 46.4413 31.5309C46.4363 31.5684 46.4338 31.6059 46.4338 31.6359C46.4363 31.7008 46.4538 31.7558 46.4863 31.7983C46.5188 31.8408 46.5662 31.8708 46.6337 31.8883C46.6962 31.9033 46.7487 31.9008 46.7937 31.8783C46.8387 31.8583 46.8761 31.8208 46.9061 31.7708C46.9211 31.7483 46.9336 31.7183 46.9461 31.6833C46.9586 31.6484 46.9711 31.6034 46.9861 31.5484L47.0361 31.3509V31.3534Z" fill="white"/>
<path d="M45.4894 33.9103L45.6069 33.5954L45.7593 33.6503L45.5819 34.1327L44.9146 33.8853C44.9146 33.8678 44.9146 33.8428 44.9146 33.8128C44.9146 33.7828 44.9221 33.7478 44.9271 33.7103C44.9321 33.6728 44.942 33.6328 44.952 33.5904C44.962 33.5479 44.977 33.5079 44.9895 33.4679C45.0345 33.3504 45.087 33.2505 45.1545 33.173C45.222 33.0955 45.2944 33.0355 45.3744 32.9955C45.4569 32.9555 45.5444 32.9355 45.6418 32.9355C45.7368 32.9355 45.8368 32.953 45.9418 32.993C46.0542 33.0355 46.1492 33.0905 46.2292 33.158C46.3092 33.228 46.3691 33.3054 46.4091 33.3954C46.4491 33.4854 46.4716 33.5829 46.4716 33.6903C46.4716 33.7953 46.4516 33.9053 46.4116 34.0177C46.4016 34.0477 46.3891 34.0777 46.3741 34.1077C46.3616 34.1377 46.3466 34.1652 46.3317 34.1902C46.3167 34.2152 46.3016 34.2402 46.2867 34.2602C46.2717 34.2802 46.2592 34.2977 46.2442 34.3126L46.0967 34.2577C46.1267 34.2227 46.1542 34.1777 46.1842 34.1277C46.2142 34.0777 46.2367 34.0252 46.2567 33.9727C46.2867 33.8953 46.3017 33.8153 46.3042 33.7353C46.3067 33.6553 46.2942 33.5804 46.2667 33.5079C46.2392 33.4354 46.1942 33.3704 46.1342 33.3104C46.0742 33.2505 45.9943 33.203 45.8968 33.168C45.8018 33.133 45.7143 33.1155 45.6343 33.1155C45.5544 33.1155 45.4844 33.133 45.4194 33.1655C45.3544 33.198 45.2994 33.2455 45.2519 33.3054C45.2045 33.3679 45.1645 33.4404 45.132 33.5279C45.117 33.5679 45.1045 33.6079 45.0945 33.6478C45.0845 33.6878 45.077 33.7253 45.0745 33.7578L45.4844 33.9103H45.4894Z" fill="white"/>
<path d="M44.5145 35.0625L44.1796 35.7373L44.0347 35.6648L44.4496 34.8301L45.7667 35.4824L45.3718 36.2822L45.2268 36.2097L45.5442 35.5724L45.1194 35.3624L44.837 35.9298L44.692 35.8573L44.9744 35.2899L44.517 35.0625H44.5145Z" fill="white"/>
<path d="M43.6625 38.7863C43.71 38.7189 43.7425 38.6489 43.7625 38.5739C43.7825 38.5014 43.7875 38.4265 43.775 38.354C43.7625 38.2815 43.735 38.2115 43.69 38.1415C43.645 38.0716 43.5801 38.0091 43.4976 37.9491C43.4151 37.8916 43.3351 37.8516 43.2576 37.8316C43.1801 37.8116 43.1077 37.8091 43.0377 37.8241C42.9677 37.8391 42.9027 37.8691 42.8403 37.9141C42.7778 37.9591 42.7228 38.0191 42.6703 38.094C42.6553 38.114 42.6428 38.1365 42.6278 38.159C42.6128 38.1815 42.6003 38.209 42.5878 38.234C42.5753 38.259 42.5653 38.284 42.5553 38.309C42.5453 38.334 42.5378 38.3565 42.5303 38.379L42.4004 38.289C42.4104 38.244 42.4304 38.1965 42.4554 38.144C42.4804 38.0915 42.5103 38.0416 42.5453 37.9916C42.6153 37.8916 42.6928 37.8141 42.7753 37.7541C42.8578 37.6967 42.9427 37.6592 43.0327 37.6442C43.1227 37.6292 43.2127 37.6342 43.3076 37.6592C43.4026 37.6842 43.495 37.7317 43.5925 37.7991C43.685 37.8641 43.7625 37.9391 43.82 38.0241C43.8774 38.109 43.9175 38.1965 43.935 38.289C43.9524 38.3815 43.9524 38.4789 43.9299 38.5764C43.9075 38.6739 43.8625 38.7714 43.795 38.8663C43.7775 38.8913 43.76 38.9163 43.74 38.9388C43.72 38.9613 43.7 38.9838 43.6825 39.0038C43.6625 39.0238 43.6425 39.0413 43.625 39.0563C43.605 39.0713 43.5875 39.0838 43.5725 39.0938L43.4426 39.0038C43.4801 38.9763 43.5176 38.9438 43.5576 38.9063C43.595 38.8688 43.63 38.8288 43.6625 38.7863Z" fill="white"/>
<path d="M41.878 38.9314L42.5903 40.3485L42.4878 40.466L40.9883 39.9486L41.1157 39.8011L41.5631 39.9611L41.968 39.4987L41.7505 39.0764L41.878 38.9314ZM42.3679 40.256C42.2729 40.0861 42.1904 39.9286 42.1155 39.7861L42.048 39.6537L41.7281 40.0211L41.868 40.0711C42.023 40.1261 42.1879 40.1885 42.3654 40.261H42.3679V40.256Z" fill="white"/>
<path d="M40.2134 40.7184L40.3433 40.5959L41.343 41.6731L41.0456 41.9506C41.0006 41.9905 40.9581 42.028 40.9157 42.058C40.8732 42.088 40.8307 42.1105 40.7882 42.1305C40.7032 42.168 40.6208 42.178 40.5458 42.163C40.4708 42.148 40.4008 42.108 40.3383 42.0405C40.2884 41.9856 40.2534 41.9281 40.2359 41.8656C40.2184 41.8031 40.2184 41.7406 40.2359 41.6731C40.2509 41.6057 40.2808 41.5382 40.3283 41.4707C40.3733 41.4007 40.4358 41.3307 40.5108 41.2633C40.5458 41.2308 40.5857 41.1958 40.6257 41.1633L40.2134 40.7209V40.7184ZM40.7357 41.2808C40.7157 41.2957 40.6957 41.3107 40.6757 41.3282C40.6557 41.3457 40.6358 41.3607 40.6208 41.3782C40.5583 41.4357 40.5108 41.4907 40.4758 41.5382C40.4408 41.5882 40.4183 41.6356 40.4083 41.6781C40.3983 41.7231 40.3983 41.7631 40.4108 41.8006C40.4233 41.8381 40.4458 41.8731 40.4758 41.9081C40.5158 41.9506 40.5558 41.9756 40.6007 41.983C40.6457 41.9905 40.6932 41.9831 40.7432 41.9656C40.7732 41.9531 40.8057 41.9331 40.8407 41.9106C40.8732 41.8856 40.9107 41.8556 40.9507 41.8181L41.1031 41.6756L40.7357 41.2808Z" fill="white"/>
<path d="M34.6177 16.3152H17.5526C17.1602 16.3152 16.9628 16.79 17.2402 17.0675L21.7414 21.5687H30.3189V30.3361L34.9151 34.9323C35.1925 35.2097 35.6674 35.0123 35.6674 34.6199V17.3649C35.6674 16.7851 35.1976 16.3152 34.6177 16.3152Z" fill="#00AA75"/>
<path d="M21.774 22.7383L16.3306 28.1818V34.8698C16.3306 35.3197 16.6955 35.6821 17.1428 35.6821H23.9584L29.3393 30.3012H21.774V22.7358V22.7383Z" fill="#00AA75"/>
</svg>
