<svg width="52" height="52" viewBox="0 0 52 52" fill="none" xmlns="http://www.w3.org/2000/svg">
<mask id="mask0_753_329" style="mask-type:luminance" maskUnits="userSpaceOnUse" x="-1" y="0" width="53" height="52">
<path d="M25.9995 52C40.3589 52 51.9995 40.3594 51.9995 26C51.9995 11.6406 40.3589 0 25.9995 0C11.6401 0 -0.000488281 11.6406 -0.000488281 26C-0.000488281 40.3594 11.6401 52 25.9995 52Z" fill="white"/>
</mask>
<g mask="url(#mask0_753_329)">
<path d="M51.9995 0.00268555H-0.000488281V52.0027H51.9995V0.00268555Z" fill="#474747"/>
<path d="M25.9995 52C40.3589 52 51.9995 40.3594 51.9995 26C51.9995 11.6406 40.3589 0 25.9995 0C11.6401 0 -0.000488281 11.6406 -0.000488281 26C-0.000488281 40.3594 11.6401 52 25.9995 52Z" fill="#474747"/>
<path d="M26 51.6626C40.1731 51.6626 51.6626 40.1731 51.6626 26C51.6626 11.8269 40.1731 0.337402 26 0.337402C11.8269 0.337402 0.337402 11.8269 0.337402 26C0.337402 40.1731 11.8269 51.6626 26 51.6626Z" fill="#474747"/>
<path d="M25.9995 51.3252C39.9862 51.3252 51.3247 39.9867 51.3247 26C51.3247 12.0133 39.9862 0.674805 25.9995 0.674805C12.0128 0.674805 0.674316 12.0133 0.674316 26C0.674316 39.9867 12.0128 51.3252 25.9995 51.3252Z" fill="#474747"/>
<path d="M25.9995 50.9855C39.7984 50.9855 50.9847 39.7992 50.9847 26.0002C50.9847 12.2012 39.7984 1.01489 25.9995 1.01489C12.2005 1.01489 1.01416 12.2012 1.01416 26.0002C1.01416 39.7992 12.2005 50.9855 25.9995 50.9855Z" fill="#474747"/>
<path d="M25.9995 50.6478C39.6121 50.6478 50.6473 39.6126 50.6473 25.9999C50.6473 12.3873 39.6121 1.35205 25.9995 1.35205C12.3868 1.35205 1.35156 12.3873 1.35156 25.9999C1.35156 39.6126 12.3868 50.6478 25.9995 50.6478Z" fill="#474747"/>
<path d="M25.9994 50.3104C39.4258 50.3104 50.3099 39.4263 50.3099 25.9999C50.3099 12.5736 39.4258 1.68945 25.9994 1.68945C12.5731 1.68945 1.68896 12.5736 1.68896 25.9999C1.68896 39.4263 12.5731 50.3104 25.9994 50.3104Z" fill="#484848"/>
<path d="M25.9995 49.973C39.2394 49.973 49.9725 39.2399 49.9725 25.9999C49.9725 12.76 39.2394 2.02686 25.9995 2.02686C12.7595 2.02686 2.02637 12.76 2.02637 25.9999C2.02637 39.2399 12.7595 49.973 25.9995 49.973Z" fill="#484848"/>
<path d="M25.9999 49.6356C39.0536 49.6356 49.6356 39.0536 49.6356 25.9999C49.6356 12.9463 39.0536 2.36426 25.9999 2.36426C12.9463 2.36426 2.36426 12.9463 2.36426 25.9999C2.36426 39.0536 12.9463 49.6356 25.9999 49.6356Z" fill="#484848"/>
<path d="M25.9995 49.2982C38.8667 49.2982 49.2977 38.8672 49.2977 25.9999C49.2977 13.1327 38.8667 2.70166 25.9995 2.70166C13.1322 2.70166 2.70117 13.1327 2.70117 25.9999C2.70117 38.8672 13.1322 49.2982 25.9995 49.2982Z" fill="#494949"/>
<path d="M25.9994 48.9608C38.6804 48.9608 48.9603 38.6809 48.9603 25.9999C48.9603 13.319 38.6804 3.03906 25.9994 3.03906C13.3185 3.03906 3.03857 13.319 3.03857 25.9999C3.03857 38.6809 13.3185 48.9608 25.9994 48.9608Z" fill="#494949"/>
<path d="M25.9994 48.6234C38.494 48.6234 48.6229 38.4945 48.6229 25.9999C48.6229 13.5053 38.494 3.37646 25.9994 3.37646C13.5048 3.37646 3.37598 13.5053 3.37598 25.9999C3.37598 38.4945 13.5048 48.6234 25.9994 48.6234Z" fill="#494949"/>
<path d="M25.9994 48.286C38.3077 48.286 48.2855 38.3082 48.2855 25.9999C48.2855 13.6917 38.3077 3.71387 25.9994 3.71387C13.6912 3.71387 3.71338 13.6917 3.71338 25.9999C3.71338 38.3082 13.6912 48.286 25.9994 48.286Z" fill="#4A4A4A"/>
<path d="M25.9999 47.9486C38.1219 47.9486 47.9486 38.1219 47.9486 25.9999C47.9486 13.878 38.1219 4.05127 25.9999 4.05127C13.878 4.05127 4.05127 13.878 4.05127 25.9999C4.05127 38.1219 13.878 47.9486 25.9999 47.9486Z" fill="#4A4A4A"/>
<path d="M25.9994 47.6089C37.9336 47.6089 47.6082 37.9343 47.6082 26.0001C47.6082 14.0659 37.9336 4.39136 25.9994 4.39136C14.0652 4.39136 4.39062 14.0659 4.39062 26.0001C4.39062 37.9343 14.0652 47.6089 25.9994 47.6089Z" fill="#4B4B4B"/>
<path d="M25.9994 47.2712C37.7472 47.2712 47.2708 37.7477 47.2708 25.9999C47.2708 14.252 37.7472 4.72852 25.9994 4.72852C14.2515 4.72852 4.72803 14.252 4.72803 25.9999C4.72803 37.7477 14.2515 47.2712 25.9994 47.2712Z" fill="#4B4B4B"/>
<path d="M25.9994 46.9338C37.5609 46.9338 46.9333 37.5614 46.9333 25.9999C46.9333 14.4384 37.5609 5.06592 25.9994 5.06592C14.4379 5.06592 5.06543 14.4384 5.06543 25.9999C5.06543 37.5614 14.4379 46.9338 25.9994 46.9338Z" fill="#4C4C4C"/>
<path d="M25.9994 46.5967C37.3746 46.5967 46.5959 37.3753 46.5959 26.0001C46.5959 14.625 37.3746 5.40356 25.9994 5.40356C14.6242 5.40356 5.40283 14.625 5.40283 26.0001C5.40283 37.3753 14.6242 46.5967 25.9994 46.5967Z" fill="#4C4C4C"/>
<path d="M25.9994 46.2593C37.1882 46.2593 46.2585 37.1889 46.2585 26.0001C46.2585 14.8113 37.1882 5.74097 25.9994 5.74097C14.8106 5.74097 5.74023 14.8113 5.74023 26.0001C5.74023 37.1889 14.8106 46.2593 25.9994 46.2593Z" fill="#4D4D4D"/>
<path d="M25.9994 45.9219C37.0019 45.9219 45.9211 37.0026 45.9211 26.0001C45.9211 14.9976 37.0019 6.07837 25.9994 6.07837C14.9969 6.07837 6.07764 14.9976 6.07764 26.0001C6.07764 37.0026 14.9969 45.9219 25.9994 45.9219Z" fill="#4D4D4D"/>
<path d="M25.9994 45.5845C36.8155 45.5845 45.5837 36.8163 45.5837 26.0001C45.5837 15.184 36.8155 6.41577 25.9994 6.41577C15.1833 6.41577 6.41504 15.184 6.41504 26.0001C6.41504 36.8163 15.1833 45.5845 25.9994 45.5845Z" fill="#4E4E4E"/>
<path d="M25.9994 45.2471C36.6292 45.2471 45.2463 36.6299 45.2463 26.0001C45.2463 15.3703 36.6292 6.75317 25.9994 6.75317C15.3696 6.75317 6.75244 15.3703 6.75244 26.0001C6.75244 36.6299 15.3696 45.2471 25.9994 45.2471Z" fill="#4F4F4F"/>
<path d="M25.9994 44.9097C36.4428 44.9097 44.9089 36.4436 44.9089 26.0001C44.9089 15.5567 36.4428 7.09058 25.9994 7.09058C15.5559 7.09058 7.08984 15.5567 7.08984 26.0001C7.08984 36.4436 15.5559 44.9097 25.9994 44.9097Z" fill="#4F4F4F"/>
<path d="M25.9994 44.5723C36.2565 44.5723 44.5715 36.2572 44.5715 26.0001C44.5715 15.743 36.2565 7.42798 25.9994 7.42798C15.7423 7.42798 7.42725 15.743 7.42725 26.0001C7.42725 36.2572 15.7423 44.5723 25.9994 44.5723Z" fill="#505050"/>
<path d="M25.9993 44.2323C36.0687 44.2323 44.2316 36.0695 44.2316 26.0001C44.2316 15.9307 36.0687 7.76782 25.9993 7.76782C15.9299 7.76782 7.76709 15.9307 7.76709 26.0001C7.76709 36.0695 15.9299 44.2323 25.9993 44.2323Z" fill="#515151"/>
<path d="M25.9993 43.8947C35.8824 43.8947 43.8942 35.8829 43.8942 25.9998C43.8942 16.1168 35.8824 8.10498 25.9993 8.10498C16.1163 8.10498 8.10449 16.1168 8.10449 25.9998C8.10449 35.8829 16.1163 43.8947 25.9993 43.8947Z" fill="#515151"/>
<path d="M25.9993 43.5573C35.696 43.5573 43.5568 35.6965 43.5568 25.9998C43.5568 16.3031 35.696 8.44238 25.9993 8.44238C16.3026 8.44238 8.44189 16.3031 8.44189 25.9998C8.44189 35.6965 16.3026 43.5573 25.9993 43.5573Z" fill="#525252"/>
<path d="M25.9993 43.2199C35.5097 43.2199 43.2194 35.5102 43.2194 25.9998C43.2194 16.4895 35.5097 8.77979 25.9993 8.77979C16.489 8.77979 8.7793 16.4895 8.7793 25.9998C8.7793 35.5102 16.489 43.2199 25.9993 43.2199Z" fill="#535353"/>
<path d="M25.9993 42.8825C35.3233 42.8825 42.882 35.3238 42.882 25.9998C42.882 16.6758 35.3233 9.11719 25.9993 9.11719C16.6753 9.11719 9.1167 16.6758 9.1167 25.9998C9.1167 35.3238 16.6753 42.8825 25.9993 42.8825Z" fill="#545454"/>
<path d="M25.9993 42.545C35.137 42.545 42.5445 35.1375 42.5445 25.9998C42.5445 16.8621 35.137 9.45459 25.9993 9.45459C16.8616 9.45459 9.4541 16.8621 9.4541 25.9998C9.4541 35.1375 16.8616 42.545 25.9993 42.545Z" fill="#555555"/>
<path d="M25.9993 42.2076C34.9507 42.2076 42.2072 34.9512 42.2072 25.9998C42.2072 17.0485 34.9507 9.79199 25.9993 9.79199C17.048 9.79199 9.7915 17.0485 9.7915 25.9998C9.7915 34.9512 17.048 42.2076 25.9993 42.2076Z" fill="#555555"/>
<path d="M25.9993 41.8702C34.7643 41.8702 41.8698 34.7648 41.8698 25.9998C41.8698 17.2348 34.7643 10.1294 25.9993 10.1294C17.2343 10.1294 10.1289 17.2348 10.1289 25.9998C10.1289 34.7648 17.2343 41.8702 25.9993 41.8702Z" fill="#565656"/>
<path d="M25.9993 41.5328C34.578 41.5328 41.5323 34.5785 41.5323 25.9998C41.5323 17.4212 34.578 10.4668 25.9993 10.4668C17.4207 10.4668 10.4663 17.4212 10.4663 25.9998C10.4663 34.5785 17.4207 41.5328 25.9993 41.5328Z" fill="#575757"/>
<path d="M25.9993 41.1957C34.3916 41.1957 41.1949 34.3924 41.1949 26.0001C41.1949 17.6078 34.3916 10.8044 25.9993 10.8044C17.607 10.8044 10.8037 17.6078 10.8037 26.0001C10.8037 34.3924 17.607 41.1957 25.9993 41.1957Z" fill="#585858"/>
<path d="M25.9998 40.8557C34.2043 40.8557 40.8555 34.2046 40.8555 26C40.8555 17.7954 34.2043 11.1443 25.9998 11.1443C17.7952 11.1443 11.144 17.7954 11.144 26C11.144 34.2046 17.7952 40.8557 25.9998 40.8557Z" fill="#595959"/>
<path d="M25.9998 40.5183C34.018 40.5183 40.5181 34.0182 40.5181 26C40.5181 17.9818 34.018 11.4817 25.9998 11.4817C17.9815 11.4817 11.4814 17.9818 11.4814 26C11.4814 34.0182 17.9815 40.5183 25.9998 40.5183Z" fill="#5A5A5A"/>
<path d="M25.9998 40.1809C33.8317 40.1809 40.1807 33.8319 40.1807 26C40.1807 18.1681 33.8317 11.8191 25.9998 11.8191C18.1679 11.8191 11.8188 18.1681 11.8188 26C11.8188 33.8319 18.1679 40.1809 25.9998 40.1809Z" fill="#5B5B5B"/>
<path d="M25.9998 39.8435C33.6453 39.8435 39.8433 33.6456 39.8433 26C39.8433 18.3544 33.6453 12.1565 25.9998 12.1565C18.3542 12.1565 12.1562 18.3544 12.1562 26C12.1562 33.6456 18.3542 39.8435 25.9998 39.8435Z" fill="#5C5C5C"/>
<path d="M25.9998 39.5061C33.459 39.5061 39.5059 33.4592 39.5059 26C39.5059 18.5408 33.459 12.4939 25.9998 12.4939C18.5405 12.4939 12.4937 18.5408 12.4937 26C12.4937 33.4592 18.5405 39.5061 25.9998 39.5061Z" fill="#5D5D5D"/>
<path d="M25.9993 39.1687C33.2721 39.1687 39.168 33.2729 39.168 26C39.168 18.7271 33.2721 12.8313 25.9993 12.8313C18.7264 12.8313 12.8306 18.7271 12.8306 26C12.8306 33.2729 18.7264 39.1687 25.9993 39.1687Z" fill="#5E5E5E"/>
<path d="M25.9993 38.8315C33.0858 38.8315 38.8306 33.0868 38.8306 26.0002C38.8306 18.9137 33.0858 13.1689 25.9993 13.1689C18.9127 13.1689 13.168 18.9137 13.168 26.0002C13.168 33.0868 18.9127 38.8315 25.9993 38.8315Z" fill="#5F5F5F"/>
<path d="M25.9993 38.4941C32.8995 38.4941 38.4932 32.9004 38.4932 26.0002C38.4932 19.1001 32.8995 13.5063 25.9993 13.5063C19.0991 13.5063 13.5054 19.1001 13.5054 26.0002C13.5054 32.9004 19.0991 38.4941 25.9993 38.4941Z" fill="#606060"/>
<path d="M25.9993 38.1565C32.7131 38.1565 38.1558 32.7138 38.1558 26C38.1558 19.2862 32.7131 13.8435 25.9993 13.8435C19.2854 13.8435 13.8428 19.2862 13.8428 26C13.8428 32.7138 19.2854 38.1565 25.9993 38.1565Z" fill="#616161"/>
<path d="M25.9993 37.8193C32.5268 37.8193 37.8184 32.5277 37.8184 26.0002C37.8184 19.4727 32.5268 14.1812 25.9993 14.1812C19.4718 14.1812 14.1802 19.4727 14.1802 26.0002C14.1802 32.5277 19.4718 37.8193 25.9993 37.8193Z" fill="#626262"/>
<path d="M25.9997 37.4791C32.3395 37.4791 37.4789 32.3397 37.4789 25.9999C37.4789 19.6602 32.3395 14.5208 25.9997 14.5208C19.6599 14.5208 14.5205 19.6602 14.5205 25.9999C14.5205 32.3397 19.6599 37.4791 25.9997 37.4791Z" fill="#646464"/>
<path d="M25.9997 37.1417C32.1531 37.1417 37.1415 32.1534 37.1415 25.9999C37.1415 19.8465 32.1531 14.8582 25.9997 14.8582C19.8463 14.8582 14.8579 19.8465 14.8579 25.9999C14.8579 32.1534 19.8463 37.1417 25.9997 37.1417Z" fill="#656565"/>
<path d="M25.9997 36.8046C31.9668 36.8046 36.8041 31.9673 36.8041 26.0002C36.8041 20.0331 31.9668 15.1958 25.9997 15.1958C20.0326 15.1958 15.1953 20.0331 15.1953 26.0002C15.1953 31.9673 20.0326 36.8046 25.9997 36.8046Z" fill="#666666"/>
<path d="M25.9997 36.4669C31.7804 36.4669 36.4667 31.7807 36.4667 25.9999C36.4667 20.2192 31.7804 15.533 25.9997 15.533C20.2189 15.533 15.5327 20.2192 15.5327 25.9999C15.5327 31.7807 20.2189 36.4669 25.9997 36.4669Z" fill="#676767"/>
<path d="M25.9997 36.1295C31.5941 36.1295 36.1293 31.5944 36.1293 25.9999C36.1293 20.4055 31.5941 15.8704 25.9997 15.8704C20.4053 15.8704 15.8701 20.4055 15.8701 25.9999C15.8701 31.5944 20.4053 36.1295 25.9997 36.1295Z" fill="#686868"/>
<path d="M25.9997 35.7921C31.4078 35.7921 35.7919 31.408 35.7919 25.9999C35.7919 20.5919 31.4078 16.2078 25.9997 16.2078C20.5916 16.2078 16.2075 20.5919 16.2075 25.9999C16.2075 31.408 20.5916 35.7921 25.9997 35.7921Z" fill="#6A6A6A"/>
<path d="M25.9997 35.4547C31.2214 35.4547 35.4545 31.2217 35.4545 25.9999C35.4545 20.7782 31.2214 16.5452 25.9997 16.5452C20.778 16.5452 16.5449 20.7782 16.5449 25.9999C16.5449 31.2217 20.778 35.4547 25.9997 35.4547Z" fill="#6B6B6B"/>
<path d="M25.9997 35.1173C31.0351 35.1173 35.1171 31.0353 35.1171 25.9999C35.1171 20.9646 31.0351 16.8826 25.9997 16.8826C20.9643 16.8826 16.8823 20.9646 16.8823 25.9999C16.8823 31.0353 20.9643 35.1173 25.9997 35.1173Z" fill="#6C6C6C"/>
<path d="M25.9997 34.7799C30.8487 34.7799 34.7797 30.849 34.7797 25.9999C34.7797 21.1509 30.8487 17.22 25.9997 17.22C21.1507 17.22 17.2197 21.1509 17.2197 25.9999C17.2197 30.849 21.1507 34.7799 25.9997 34.7799Z" fill="#6D6D6D"/>
<path d="M25.9997 34.4425C30.6624 34.4425 34.4423 30.6626 34.4423 25.9999C34.4423 21.3372 30.6624 17.5574 25.9997 17.5574C21.337 17.5574 17.5571 21.3372 17.5571 25.9999C17.5571 30.6626 21.337 34.4425 25.9997 34.4425Z" fill="#6F6F6F"/>
<path d="M25.9996 34.1025C30.4746 34.1025 34.1023 30.4749 34.1023 25.9999C34.1023 21.5249 30.4746 17.8972 25.9996 17.8972C21.5247 17.8972 17.897 21.5249 17.897 25.9999C17.897 30.4749 21.5247 34.1025 25.9996 34.1025Z" fill="#707070"/>
<path d="M25.9996 33.7651C30.2883 33.7651 33.7649 30.2885 33.7649 25.9999C33.7649 21.7112 30.2883 18.2346 25.9996 18.2346C21.711 18.2346 18.2344 21.7112 18.2344 25.9999C18.2344 30.2885 21.711 33.7651 25.9996 33.7651Z" fill="#727272"/>
<path d="M25.9996 33.4277C30.1019 33.4277 33.4275 30.1022 33.4275 25.9999C33.4275 21.8976 30.1019 18.572 25.9996 18.572C21.8973 18.572 18.5718 21.8976 18.5718 25.9999C18.5718 30.1022 21.8973 33.4277 25.9996 33.4277Z" fill="#737373"/>
<path d="M25.9996 33.0903C29.9156 33.0903 33.0901 29.9158 33.0901 25.9999C33.0901 22.0839 29.9156 18.9094 25.9996 18.9094C22.0837 18.9094 18.9092 22.0839 18.9092 25.9999C18.9092 29.9158 22.0837 33.0903 25.9996 33.0903Z" fill="#747474"/>
<path d="M25.9996 32.7529C29.7292 32.7529 32.7527 29.7295 32.7527 25.9999C32.7527 22.2703 29.7292 19.2468 25.9996 19.2468C22.27 19.2468 19.2466 22.2703 19.2466 25.9999C19.2466 29.7295 22.27 32.7529 25.9996 32.7529Z" fill="#767676"/>
<path d="M25.9996 32.4155C29.5429 32.4155 32.4153 29.5431 32.4153 25.9999C32.4153 22.4566 29.5429 19.5842 25.9996 19.5842C22.4564 19.5842 19.584 22.4566 19.584 25.9999C19.584 29.5431 22.4564 32.4155 25.9996 32.4155Z" fill="#777777"/>
<path d="M25.9996 32.0781C29.3566 32.0781 32.0779 29.3568 32.0779 25.9999C32.0779 22.643 29.3566 19.9216 25.9996 19.9216C22.6427 19.9216 19.9214 22.643 19.9214 25.9999C19.9214 29.3568 22.6427 32.0781 25.9996 32.0781Z" fill="#797979"/>
<path d="M25.9996 31.7407C29.1702 31.7407 31.7405 29.1705 31.7405 25.9999C31.7405 22.8293 29.1702 20.259 25.9996 20.259C22.8291 20.259 20.2588 22.8293 20.2588 25.9999C20.2588 29.1705 22.8291 31.7407 25.9996 31.7407Z" fill="#7A7A7A"/>
<path d="M25.9996 31.4033C28.9839 31.4033 31.4031 28.9841 31.4031 25.9999C31.4031 23.0156 28.9839 20.5964 25.9996 20.5964C23.0154 20.5964 20.5962 23.0156 20.5962 25.9999C20.5962 28.9841 23.0154 31.4033 25.9996 31.4033Z" fill="#7C7C7C"/>
<path d="M25.9996 31.0659C28.7975 31.0659 31.0657 28.7978 31.0657 25.9999C31.0657 23.202 28.7975 20.9338 25.9996 20.9338C23.2017 20.9338 20.9336 23.202 20.9336 25.9999C20.9336 28.7978 23.2017 31.0659 25.9996 31.0659Z" fill="#7D7D7D"/>
<path d="M25.9996 30.7262C28.6097 30.7262 30.7257 28.6102 30.7257 26.0001C30.7257 23.3899 28.6097 21.2739 25.9996 21.2739C23.3894 21.2739 21.2734 23.3899 21.2734 26.0001C21.2734 28.6102 23.3894 30.7262 25.9996 30.7262Z" fill="#7F7F7F"/>
<path d="M25.9996 30.3888C28.4234 30.3888 30.3883 28.4239 30.3883 26.0001C30.3883 23.5762 28.4234 21.6113 25.9996 21.6113C23.5757 21.6113 21.6108 23.5762 21.6108 26.0001C21.6108 28.4239 23.5757 30.3888 25.9996 30.3888Z" fill="#808080"/>
<path d="M25.9996 30.0514C28.2371 30.0514 30.0509 28.2376 30.0509 26.0001C30.0509 23.7626 28.2371 21.9487 25.9996 21.9487C23.7621 21.9487 21.9482 23.7626 21.9482 26.0001C21.9482 28.2376 23.7621 30.0514 25.9996 30.0514Z" fill="#828282"/>
<path d="M25.9996 29.714C28.0507 29.714 29.7135 28.0512 29.7135 26.0001C29.7135 23.9489 28.0507 22.2861 25.9996 22.2861C23.9484 22.2861 22.2856 23.9489 22.2856 26.0001C22.2856 28.0512 23.9484 29.714 25.9996 29.714Z" fill="#838383"/>
<path d="M25.9996 29.3766C27.8644 29.3766 29.3761 27.8649 29.3761 26.0001C29.3761 24.1353 27.8644 22.6235 25.9996 22.6235C24.1348 22.6235 22.623 24.1353 22.623 26.0001C22.623 27.8649 24.1348 29.3766 25.9996 29.3766Z" fill="#858585"/>
<path d="M25.9996 29.0392C27.678 29.0392 29.0387 27.6785 29.0387 26.0001C29.0387 24.3216 27.678 22.9609 25.9996 22.9609C24.3211 22.9609 22.9604 24.3216 22.9604 26.0001C22.9604 27.6785 24.3211 29.0392 25.9996 29.0392Z" fill="#868686"/>
<path d="M25.9996 28.7018C27.4917 28.7018 28.7013 27.4922 28.7013 26.0001C28.7013 24.5079 27.4917 23.2983 25.9996 23.2983C24.5075 23.2983 23.2979 24.5079 23.2979 26.0001C23.2979 27.4922 24.5075 28.7018 25.9996 28.7018Z" fill="#888888"/>
<path d="M25.9996 28.3644C27.3053 28.3644 28.3639 27.3058 28.3639 26.0001C28.3639 24.6943 27.3053 23.6357 25.9996 23.6357C24.6938 23.6357 23.6353 24.6943 23.6353 26.0001C23.6353 27.3058 24.6938 28.3644 25.9996 28.3644Z" fill="#8A8A8A"/>
<path d="M25.9996 28.027C27.119 28.027 28.0265 27.1195 28.0265 26.0001C28.0265 24.8806 27.119 23.9731 25.9996 23.9731C24.8801 23.9731 23.9727 24.8806 23.9727 26.0001C23.9727 27.1195 24.8801 28.027 25.9996 28.027Z" fill="#8B8B8B"/>
<path d="M25.9996 27.6896C26.9327 27.6896 27.6891 26.9332 27.6891 26.0001C27.6891 25.067 26.9327 24.3105 25.9996 24.3105C25.0665 24.3105 24.3101 25.067 24.3101 26.0001C24.3101 26.9332 25.0665 27.6896 25.9996 27.6896Z" fill="#8D8D8D"/>
<path d="M25.9995 27.3496C26.7449 27.3496 27.3491 26.7454 27.3491 26C27.3491 25.2546 26.7449 24.6504 25.9995 24.6504C25.2541 24.6504 24.6499 25.2546 24.6499 26C24.6499 26.7454 25.2541 27.3496 25.9995 27.3496Z" fill="#8F8F8F"/>
<path d="M25.9995 27.0122C26.5585 27.0122 27.0117 26.559 27.0117 26C27.0117 25.441 26.5585 24.9878 25.9995 24.9878C25.4405 24.9878 24.9873 25.441 24.9873 26C24.9873 26.559 25.4405 27.0122 25.9995 27.0122Z" fill="#919191"/>
<path d="M25.9995 26.6748C26.3722 26.6748 26.6743 26.3727 26.6743 26C26.6743 25.6273 26.3722 25.3252 25.9995 25.3252C25.6268 25.3252 25.3247 25.6273 25.3247 26C25.3247 26.3727 25.6268 26.6748 25.9995 26.6748Z" fill="#929292"/>
<path d="M25.9995 26.3374C26.1859 26.3374 26.3369 26.1863 26.3369 26C26.3369 25.8137 26.1859 25.6626 25.9995 25.6626C25.8132 25.6626 25.6621 25.8137 25.6621 26C25.6621 26.1863 25.8132 26.3374 25.9995 26.3374Z" fill="#949494"/>
</g>
<path d="M25.9997 44.1521C15.9901 44.1521 7.84741 36.0095 7.84741 25.9999C7.84741 15.9902 15.9901 7.8501 25.9997 7.8501C36.0093 7.8501 44.1519 15.9927 44.1519 26.0024C44.1519 36.012 36.0093 44.1546 25.9997 44.1546V44.1521ZM25.9997 8.35245C16.27 8.35245 8.35227 16.2677 8.35227 25.9999C8.35227 35.7321 16.27 43.6473 25.9997 43.6473C35.7294 43.6473 43.6471 35.7296 43.6471 25.9999C43.6471 16.2702 35.7294 8.35245 25.9997 8.35245Z" fill="white"/>
<path d="M25.9997 50.6228C22.6782 50.6228 19.4541 49.9704 16.415 48.6858C13.4833 47.4462 10.8491 45.6717 8.59226 43.4123C6.33291 41.153 4.55842 38.5213 3.31878 35.5896C2.03415 32.5505 1.38184 29.3239 1.38184 26.0049C1.38184 22.6858 2.03415 19.4592 3.31878 16.4201C4.55842 13.4885 6.33291 10.8542 8.59226 8.59738C10.8516 6.33803 13.4833 4.56355 16.415 3.3239C19.4541 2.03927 22.6807 1.38696 25.9997 1.38696C29.3188 1.38696 32.5453 2.03927 35.5845 3.3239C38.5161 4.56355 41.1504 6.33803 43.4072 8.59738C45.6666 10.8567 47.441 13.4885 48.6807 16.4201C49.9653 19.4592 50.6176 22.6858 50.6176 26.0049C50.6176 29.3239 49.9653 32.5505 48.6807 35.5896C47.441 38.5213 45.6666 41.1555 43.4072 43.4123C41.1479 45.6717 38.5161 47.4462 35.5845 48.6858C32.5453 49.9704 29.3188 50.6228 25.9997 50.6228ZM25.9997 1.74936C22.7282 1.74936 19.5516 2.39167 16.5575 3.65881C13.6683 4.88095 11.0765 6.62795 8.84968 8.85231C6.62532 11.0767 4.87583 13.6709 3.65618 16.5601C2.38905 19.5542 1.74673 22.7308 1.74673 26.0024C1.74673 29.2739 2.38905 32.4505 3.65618 35.4446C4.87833 38.3338 6.62532 40.9256 8.84968 43.1524C11.074 45.3768 13.6683 47.1263 16.5575 48.3459C19.5516 49.6131 22.7282 50.2554 25.9997 50.2554C29.2713 50.2554 32.4479 49.6131 35.442 48.3459C38.3312 47.1238 40.9229 45.3768 43.1498 43.1524C45.3741 40.9281 47.1236 38.3338 48.3433 35.4446C49.6104 32.4505 50.2527 29.2739 50.2527 26.0024C50.2527 22.7308 49.6104 19.5542 48.3433 16.5601C47.1211 13.6709 45.3741 11.0792 43.1498 8.85231C40.9254 6.62795 38.3312 4.87846 35.442 3.65881C32.4479 2.39167 29.2713 1.74936 25.9997 1.74936Z" fill="white"/>
<path d="M8.78754 13.7981C8.925 13.883 9.04247 13.983 9.14244 14.093C9.24241 14.2029 9.31739 14.3229 9.37237 14.4504C9.42486 14.5803 9.45485 14.7178 9.46235 14.8653C9.46735 15.0127 9.44735 15.1652 9.39987 15.3276C9.37237 15.4201 9.33488 15.5151 9.2849 15.6125C9.23491 15.71 9.17743 15.81 9.11245 15.9175L8.77754 16.4498L6.42822 14.9702L6.76563 14.4329C6.83311 14.3254 6.90059 14.2304 6.96557 14.1455C7.03055 14.0605 7.10053 13.9855 7.17301 13.9205C7.29797 13.8081 7.42793 13.7231 7.5604 13.6631C7.69286 13.6031 7.82782 13.5706 7.96528 13.5631C8.10274 13.5556 8.2402 13.5706 8.37766 13.6131C8.51512 13.6556 8.65258 13.7181 8.79004 13.8031L8.78754 13.7981ZM8.60759 14.083C8.38266 13.9405 8.16772 13.8755 7.96278 13.8855C7.76034 13.8955 7.57039 13.978 7.39544 14.1255C7.32796 14.183 7.26298 14.2529 7.2005 14.3354C7.13802 14.4179 7.07054 14.5154 7.00056 14.6253L6.8631 14.8453L8.69507 15.9999L8.83253 15.78C8.90251 15.67 8.95999 15.5676 9.00748 15.4751C9.05497 15.3826 9.08995 15.2926 9.11245 15.2077C9.17243 14.9852 9.15994 14.7778 9.07496 14.5853C8.99248 14.3929 8.83503 14.2254 8.60759 14.083Z" fill="white"/>
<path d="M11.1492 13.108L9.06982 11.2685L9.29476 11.0161L11.3742 12.8556L11.1492 13.108Z" fill="white"/>
<path d="M13.4286 9.42684L12.9388 9.82672L12.7463 9.58929L13.4986 8.97447L14.3484 10.0142C14.3359 10.0442 14.3134 10.0841 14.2784 10.1316C14.2459 10.1791 14.2059 10.2316 14.1584 10.2866C14.1109 10.3416 14.0585 10.3991 14.001 10.459C13.9435 10.5165 13.881 10.5715 13.821 10.624C13.6361 10.7739 13.4536 10.8814 13.2712 10.9464C13.0887 11.0114 12.9138 11.0364 12.7413 11.0214C12.5689 11.0064 12.4064 10.9539 12.249 10.8639C12.0915 10.7739 11.9466 10.6465 11.8141 10.484C11.6717 10.3091 11.5667 10.1266 11.5042 9.93919C11.4417 9.75174 11.4192 9.5643 11.4392 9.37935C11.4592 9.1944 11.5192 9.01446 11.6167 8.83951C11.7166 8.66456 11.8541 8.5071 12.029 8.36464C12.0765 8.32715 12.124 8.28967 12.174 8.25468C12.224 8.21969 12.274 8.18969 12.3215 8.1597C12.369 8.13221 12.4164 8.10722 12.4614 8.08722C12.5064 8.06723 12.5439 8.05223 12.5789 8.04224L12.7688 8.27217C12.6864 8.30216 12.5989 8.34465 12.5039 8.39963C12.4089 8.45212 12.319 8.5146 12.2365 8.58208C12.114 8.68205 12.0141 8.79452 11.9316 8.92448C11.8516 9.05195 11.7991 9.18691 11.7766 9.33187C11.7541 9.47682 11.7616 9.62428 11.8041 9.77924C11.8466 9.93419 11.9291 10.0866 12.054 10.2391C12.1765 10.3891 12.3015 10.499 12.4314 10.574C12.5614 10.649 12.6939 10.689 12.8288 10.6965C12.9638 10.704 13.0987 10.6815 13.2362 10.6265C13.3737 10.5715 13.5086 10.489 13.6411 10.3791C13.7036 10.3291 13.761 10.2741 13.816 10.2191C13.871 10.1641 13.916 10.1116 13.9535 10.0617L13.4311 9.42184L13.4286 9.42684Z" fill="white"/>
<path d="M16.0404 9.04179L14.6533 6.63748L14.9457 6.46753L16.3328 8.87184L16.0404 9.04179Z" fill="white"/>
<path d="M19.0024 7.61727L18.6874 7.73974L17.7877 5.4379L16.923 5.7753L16.813 5.49038L18.8549 4.69312L18.9649 4.97803L18.1001 5.31544L18.9999 7.61727H19.0024Z" fill="white"/>
<path d="M20.9864 6.9375L21.5687 3.99834L21.8561 3.94336L23.4932 6.45264L23.1333 6.52262L22.6484 5.76533L21.5087 5.98527L21.3413 6.87001L20.9839 6.93999L20.9864 6.9375ZM21.7912 4.39323C21.7362 4.75562 21.6787 5.08553 21.6212 5.38544L21.5687 5.66286L22.471 5.48791L22.3185 5.25048C22.1511 4.99056 21.9786 4.70314 21.7987 4.39073H21.7912V4.39323Z" fill="white"/>
<path d="M25.4451 3.5686L25.4851 6.04039L26.8397 6.0179L26.8447 6.32281L25.1527 6.3503L25.1077 3.5761L25.4451 3.5711V3.5686Z" fill="white"/>
<path d="M30.251 6.7549L32.1079 4.40308L32.3879 4.48555L32.7028 7.46719L32.3504 7.36472L32.2654 6.46998L31.1507 6.14757L30.6009 6.85737L30.2535 6.7574L30.251 6.7549ZM32.1254 4.85545C31.9105 5.15286 31.7106 5.42028 31.5231 5.66271L31.3507 5.88515L32.2354 6.14007L32.2079 5.86016C32.1779 5.55274 32.1554 5.21784 32.1354 4.85794H32.1279L32.1254 4.85545Z" fill="white"/>
<path d="M35.4072 6.42766C35.3697 6.50014 35.3547 6.56762 35.3597 6.6301C35.3647 6.69258 35.3847 6.75257 35.4172 6.80755C35.4522 6.86503 35.4946 6.91752 35.5521 6.9725C35.6071 7.02499 35.6671 7.07997 35.7296 7.13246C35.8121 7.20494 35.8945 7.27991 35.972 7.35489C36.0495 7.42987 36.112 7.51235 36.1595 7.59982C36.2069 7.6873 36.2319 7.78227 36.2344 7.88474C36.2369 7.98721 36.2069 8.10218 36.1445 8.22714C36.0795 8.3546 35.997 8.45208 35.902 8.52206C35.8046 8.58954 35.6996 8.63202 35.5821 8.64702C35.4672 8.66201 35.3422 8.65452 35.2097 8.62453C35.0773 8.59453 34.9423 8.54205 34.8048 8.47207C34.7399 8.43958 34.6774 8.40209 34.6149 8.3596C34.5524 8.31711 34.4924 8.27463 34.44 8.22964C34.385 8.18465 34.34 8.14217 34.2975 8.09968C34.2575 8.05719 34.2275 8.0197 34.2075 7.98721L34.3475 7.71229C34.38 7.75728 34.42 7.80226 34.4649 7.84975C34.5099 7.89724 34.5599 7.94222 34.6124 7.98471C34.6649 8.0272 34.7199 8.06969 34.7749 8.10717C34.8323 8.14466 34.8873 8.17715 34.9398 8.20465C35.0248 8.24963 35.1123 8.28462 35.1972 8.30962C35.2822 8.33461 35.3647 8.34461 35.4397 8.34211C35.5171 8.33711 35.5871 8.31462 35.6521 8.27213C35.7171 8.22964 35.7721 8.16466 35.8196 8.07468C35.857 7.99971 35.8745 7.93223 35.867 7.86974C35.8595 7.80726 35.8421 7.74478 35.8071 7.6898C35.7721 7.63231 35.7271 7.57733 35.6721 7.52484C35.6171 7.47236 35.5571 7.41737 35.4921 7.36239C35.4072 7.28991 35.3272 7.21743 35.2497 7.14245C35.1722 7.06747 35.1098 6.9875 35.0623 6.90002C35.0148 6.81505 34.9898 6.72007 34.9873 6.6201C34.9823 6.52013 35.0123 6.41016 35.0748 6.2902C35.1398 6.16523 35.2172 6.06776 35.3097 6.00278C35.4022 5.9378 35.5021 5.89281 35.6121 5.87532C35.7221 5.85532 35.8346 5.86032 35.9495 5.88282C36.067 5.90781 36.182 5.9478 36.2969 6.00778C36.4294 6.07526 36.5443 6.15024 36.6468 6.23521C36.7468 6.31769 36.8343 6.40517 36.9092 6.49514L36.7668 6.77506C36.6868 6.68009 36.5993 6.59011 36.5044 6.50764C36.4094 6.42516 36.2994 6.35018 36.177 6.2852C36.0845 6.23771 35.997 6.20522 35.917 6.19023C35.8371 6.17523 35.7646 6.17523 35.6996 6.19023C35.6346 6.20522 35.5771 6.23272 35.5271 6.2752C35.4772 6.31769 35.4347 6.37018 35.4022 6.43516L35.4072 6.42766Z" fill="white"/>
<path d="M38.7913 8.4543C38.7413 8.51929 38.7138 8.58177 38.7063 8.64425C38.6988 8.70673 38.7063 8.76921 38.7313 8.8292C38.7538 8.89168 38.7888 8.95166 38.8338 9.01664C38.8788 9.07912 38.9263 9.14161 38.9787 9.20659C39.0487 9.29406 39.1137 9.38154 39.1762 9.46901C39.2387 9.55899 39.2862 9.64896 39.3161 9.74393C39.3461 9.83891 39.3536 9.93638 39.3386 10.0388C39.3236 10.1413 39.2737 10.2488 39.1862 10.3588C39.0987 10.4737 39.0012 10.5537 38.8938 10.6037C38.7863 10.6537 38.6738 10.6762 38.5589 10.6687C38.4414 10.6637 38.3214 10.6337 38.1965 10.5787C38.0715 10.5237 37.949 10.4487 37.8241 10.3538C37.7666 10.3088 37.7116 10.2613 37.6566 10.2088C37.6016 10.1563 37.5517 10.1013 37.5067 10.0488C37.4617 9.99636 37.4242 9.94388 37.3917 9.89389C37.3592 9.8439 37.3367 9.80392 37.3242 9.76893L37.5117 9.524C37.5367 9.57398 37.5667 9.62647 37.6041 9.68145C37.6416 9.73644 37.6816 9.78892 37.7241 9.8414C37.7691 9.89389 37.8141 9.94388 37.8616 9.99136C37.9091 10.0388 37.959 10.0813 38.0065 10.1163C38.084 10.1763 38.1615 10.2263 38.2415 10.2663C38.3214 10.3063 38.3989 10.3313 38.4764 10.3413C38.5514 10.3513 38.6263 10.3413 38.6988 10.3113C38.7713 10.2813 38.8363 10.2263 38.8988 10.1463C38.9488 10.0813 38.9787 10.0164 38.9837 9.95137C38.9887 9.88639 38.9812 9.82391 38.9587 9.76143C38.9363 9.69895 38.9013 9.63646 38.8563 9.57398C38.8113 9.5115 38.7613 9.44652 38.7088 9.38154C38.6388 9.29656 38.5714 9.20909 38.5089 9.12161C38.4464 9.03414 38.3989 8.94416 38.3689 8.85169C38.3389 8.75922 38.3314 8.66174 38.3439 8.56427C38.3564 8.4668 38.4064 8.36183 38.4889 8.25436C38.5739 8.1419 38.6688 8.06192 38.7713 8.01193C38.8738 7.96195 38.9812 7.93945 39.0912 7.93945C39.2012 7.93945 39.3111 7.96445 39.4211 8.00943C39.5311 8.05442 39.6386 8.1169 39.741 8.19688C39.8585 8.28685 39.9585 8.38183 40.0434 8.4818C40.1284 8.58177 40.1984 8.68424 40.2534 8.78421L40.0634 9.03164C40.0009 8.92417 39.931 8.8192 39.8535 8.72173C39.776 8.62426 39.681 8.53178 39.5711 8.44431C39.4886 8.37933 39.4086 8.33434 39.3336 8.30435C39.2587 8.27436 39.1887 8.26186 39.1212 8.26436C39.0537 8.26436 38.9937 8.28435 38.9363 8.31684C38.8788 8.34934 38.8288 8.39432 38.7838 8.45181L38.7913 8.4543Z" fill="white"/>
<path d="M40.511 12.2736L41.4632 13.3308L41.2358 13.5357L40.0562 12.2286L42.1181 10.3691L43.2452 11.6188L43.0178 11.8237L42.1156 10.824L41.4508 11.4238L42.253 12.3136L42.0256 12.5185L41.2233 11.6288L40.506 12.2761L40.511 12.2736Z" fill="white"/>
<path d="M42.8454 15.8474L42.668 15.56L44.7724 14.2654L44.285 13.4756L44.5449 13.3157L45.6946 15.1826L45.4347 15.3426L44.9473 14.5528L42.8429 15.8474H42.8454Z" fill="white"/>
<path d="M19.2245 46.9212L18.1173 46.5164L17.555 47.1612L16.9827 46.9512L19.227 44.4395L19.7194 44.6194L19.8094 47.9859L19.2395 47.7785L19.227 46.9237L19.2245 46.9212ZM19.2095 45.2342C18.9946 45.5041 18.8071 45.7266 18.6522 45.904L18.4547 46.129L19.2145 46.4064L19.2095 46.109C19.207 45.8715 19.2095 45.5816 19.217 45.2367H19.207L19.2095 45.2342Z" fill="white"/>
<path d="M24.1083 47.8961L22.9361 47.7762L22.5487 48.5384L21.9414 48.476L23.496 45.4868L24.0183 45.5393L24.9355 48.7809L24.3332 48.7184L24.1083 47.8936V47.8961ZM23.6784 46.2641C23.5359 46.579 23.411 46.8414 23.3035 47.0514L23.1686 47.3188L23.9733 47.4013L23.8958 47.1138C23.8334 46.8839 23.7659 46.6015 23.6884 46.2666H23.6784V46.2641Z" fill="white"/>
<path d="M28.0991 47.3714C28.0491 47.3789 27.9966 47.3839 27.9492 47.3889C27.8992 47.3939 27.8517 47.3964 27.8092 47.3989L27.9741 48.611L27.4068 48.6885L26.9819 45.5869L27.8767 45.4644C28.0266 45.4444 28.1591 45.4319 28.2716 45.4294C28.384 45.4269 28.489 45.4344 28.579 45.4469C28.7989 45.4819 28.9764 45.5644 29.1113 45.6919C29.2463 45.8193 29.3263 45.9918 29.3562 46.2117C29.3762 46.3617 29.3637 46.5016 29.3188 46.6291C29.2738 46.7566 29.1963 46.8715 29.0888 46.9715C28.9814 47.0715 28.8439 47.1564 28.6789 47.2239C28.514 47.2914 28.319 47.3414 28.0966 47.3714H28.0991ZM27.7417 46.9215C27.7742 46.9215 27.8167 46.9215 27.8667 46.914C27.9167 46.909 27.9691 46.904 28.0241 46.8965C28.1766 46.8765 28.3041 46.8465 28.404 46.8065C28.504 46.7666 28.584 46.7216 28.6415 46.6691C28.6989 46.6166 28.7364 46.5566 28.7564 46.4916C28.7764 46.4266 28.7814 46.3542 28.7689 46.2817C28.7564 46.1892 28.7239 46.1142 28.6739 46.0543C28.624 45.9943 28.544 45.9518 28.434 45.9293C28.3765 45.9193 28.3091 45.9143 28.2291 45.9168C28.1491 45.9193 28.0491 45.9293 27.9342 45.9443L27.6143 45.9868L27.7417 46.924V46.9215Z" fill="white"/>
<path d="M31.6008 44.5745L32.543 47.0537L33.9126 46.5339L34.0825 46.9813L32.1781 47.7061L31.0659 44.7794L31.6008 44.577V44.5745Z" fill="white"/>
<path d="M11.7816 40.7177C11.7441 40.6803 11.7041 40.6528 11.6666 40.6328C11.6291 40.6128 11.5891 40.6003 11.5516 40.5953C11.5141 40.5903 11.4767 40.5928 11.4392 40.6003C11.4017 40.6078 11.3667 40.6228 11.3317 40.6428C11.3092 40.6553 11.2867 40.6703 11.2642 40.6903C11.2417 40.7102 11.2192 40.7302 11.2017 40.7502L10.5669 41.405L10.4395 41.2801L11.0718 40.6278C11.0968 40.6028 11.1218 40.5778 11.1517 40.5553C11.1792 40.5303 11.2092 40.5103 11.2367 40.4928C11.2842 40.4628 11.3342 40.4428 11.3867 40.4278C11.4392 40.4153 11.4916 40.4103 11.5491 40.4178C11.6066 40.4253 11.6616 40.4428 11.7191 40.4728C11.7766 40.5028 11.8365 40.5478 11.8965 40.6053C11.954 40.6603 11.999 40.7177 12.0315 40.7727C12.064 40.8277 12.084 40.8827 12.094 40.9352C12.104 40.9877 12.104 41.0401 12.094 41.0901C12.084 41.1401 12.0665 41.1876 12.044 41.2351C12.0265 41.2701 12.004 41.3026 11.979 41.3351C11.954 41.3676 11.9265 41.4 11.899 41.4275L11.2667 42.0798L11.1393 41.9549L11.7741 41.3001C11.7966 41.2776 11.8191 41.2501 11.839 41.2226C11.859 41.1951 11.8765 41.1676 11.889 41.1401C11.919 41.0701 11.929 41.0002 11.914 40.9302C11.899 40.8602 11.8565 40.7902 11.7866 40.7202L11.7816 40.7177Z" fill="white"/>
<path d="M9.82716 40.0277C9.85965 40.0002 9.88214 39.9702 9.89214 39.9378C9.90214 39.9053 9.90463 39.8728 9.89964 39.8378C9.89464 39.8028 9.88464 39.7678 9.86714 39.7303C9.85215 39.6928 9.83215 39.6553 9.81466 39.6154C9.78967 39.5629 9.76467 39.5104 9.74218 39.4579C9.71969 39.4054 9.70719 39.3529 9.70219 39.3004C9.69719 39.248 9.70219 39.1955 9.72469 39.1455C9.74468 39.0955 9.78217 39.0455 9.83965 38.998C9.89714 38.948 9.95712 38.9181 10.0196 38.9056C10.0821 38.8931 10.1421 38.8931 10.202 38.9106C10.262 38.928 10.322 38.9555 10.3795 38.998C10.437 39.0405 10.492 39.093 10.5469 39.1555C10.5719 39.1855 10.5944 39.2155 10.6169 39.2505C10.6394 39.2854 10.6594 39.3179 10.6744 39.3504C10.6894 39.3829 10.7044 39.4154 10.7169 39.4429C10.7269 39.4729 10.7344 39.4954 10.7369 39.5154L10.6119 39.6203C10.6044 39.5904 10.5944 39.5604 10.5819 39.5279C10.5694 39.4954 10.5544 39.4629 10.537 39.4304C10.5195 39.3979 10.502 39.3679 10.482 39.3379C10.462 39.3079 10.442 39.2804 10.422 39.2555C10.3895 39.2155 10.3545 39.1805 10.317 39.1505C10.2795 39.1205 10.242 39.098 10.2045 39.0855C10.1671 39.0705 10.1271 39.068 10.0871 39.0755C10.0471 39.083 10.0071 39.103 9.96462 39.138C9.93213 39.1655 9.90963 39.1955 9.89964 39.228C9.88964 39.2605 9.88714 39.2929 9.89214 39.3279C9.89714 39.3629 9.90713 39.4004 9.92463 39.4379C9.93962 39.4754 9.95962 39.5129 9.97961 39.5529C10.0071 39.6054 10.0296 39.6578 10.0521 39.7103C10.0746 39.7628 10.0871 39.8153 10.0921 39.8653C10.0971 39.9178 10.0921 39.9677 10.0721 40.0177C10.0521 40.0677 10.0171 40.1152 9.96212 40.1602C9.90463 40.2077 9.84715 40.2402 9.78717 40.2527C9.72968 40.2652 9.6697 40.2677 9.61472 40.2527C9.55723 40.2402 9.50475 40.2152 9.45226 40.1802C9.39978 40.1452 9.35229 40.1002 9.30731 40.0477C9.25732 39.9877 9.21483 39.9278 9.18484 39.8653C9.15235 39.8028 9.12736 39.7428 9.10986 39.6853L9.23733 39.5779C9.25732 39.6403 9.27981 39.7028 9.30981 39.7628C9.3398 39.8228 9.37729 39.8803 9.42477 39.9378C9.45976 39.9802 9.49725 40.0127 9.53224 40.0377C9.56723 40.0602 9.60222 40.0777 9.63721 40.0827C9.6722 40.0902 9.70469 40.0877 9.73718 40.0777C9.76967 40.0677 9.80216 40.0502 9.83215 40.0252L9.82716 40.0277Z" fill="white"/>
<path d="M7.55523 37.5811L8.67491 36.9063L8.30502 36.2915L8.44248 36.209L8.90484 36.9763L7.64521 37.7335L7.55273 37.5811H7.55523Z" fill="white"/>
<path d="M8.05236 35.4969L6.46781 35.5818L6.40283 35.4419L7.47502 34.2722L7.5575 34.4472L7.23259 34.7946L7.49502 35.3494L7.96988 35.3194L8.05236 35.4944V35.4969ZM6.64276 35.4169C6.83521 35.3969 7.01266 35.3844 7.17261 35.3744L7.32007 35.3644L7.11263 34.9245L7.01016 35.0345C6.89769 35.1545 6.77522 35.2794 6.63776 35.4144V35.4194L6.64276 35.4169Z" fill="white"/>
<path d="M6.50828 33.4621L7.08311 33.2622L7.1431 33.4321L5.756 33.917L5.63103 33.5571C5.61104 33.4971 5.59354 33.4446 5.58355 33.3996C5.57355 33.3546 5.56605 33.3147 5.56355 33.2747C5.55605 33.1697 5.57605 33.0797 5.62104 33.0072C5.66602 32.9348 5.736 32.8798 5.83097 32.8473C5.88596 32.8273 5.94094 32.8198 5.99093 32.8223C6.04091 32.8223 6.0884 32.8373 6.13339 32.8573C6.17837 32.8773 6.21836 32.9073 6.25335 32.9473C6.29084 32.9848 6.32333 33.0297 6.35082 33.0822H6.35582L6.80569 32.4624L6.86568 32.6324L6.4408 33.2597L6.51328 33.4646L6.50828 33.4621ZM5.84847 33.692L6.35582 33.5146L6.29834 33.3471C6.28084 33.2947 6.26335 33.2522 6.24585 33.2172C6.23086 33.1822 6.21087 33.1522 6.19337 33.1247C6.15588 33.0722 6.11089 33.0372 6.06091 33.0197C6.01092 33.0022 5.95344 33.0047 5.88846 33.0247C5.82848 33.0472 5.78599 33.0772 5.76099 33.1197C5.736 33.1622 5.72351 33.2122 5.726 33.2697C5.726 33.2972 5.731 33.3297 5.741 33.3646C5.7485 33.3996 5.76349 33.4446 5.78099 33.4971L5.84847 33.6895V33.692Z" fill="white"/>
<path d="M5.73098 30.7029L5.80596 31.0303L5.6485 31.0678L5.53354 30.5679L6.22584 30.408C6.23833 30.4205 6.25083 30.4404 6.26583 30.4679C6.28082 30.4954 6.29582 30.5254 6.31081 30.5629C6.32581 30.5979 6.3408 30.6379 6.3558 30.6779C6.3708 30.7204 6.38079 30.7604 6.39079 30.8028C6.41828 30.9253 6.42828 31.0378 6.41578 31.1402C6.40329 31.2427 6.37579 31.3302 6.32831 31.4102C6.28082 31.4876 6.21834 31.5526 6.13836 31.6076C6.05839 31.6601 5.96341 31.7001 5.85594 31.7251C5.73848 31.7526 5.62851 31.7576 5.52354 31.7451C5.41857 31.7326 5.3261 31.6976 5.24362 31.6451C5.16114 31.5926 5.08867 31.5226 5.02868 31.4352C4.9687 31.3477 4.92621 31.2452 4.89872 31.1278C4.89122 31.0978 4.88622 31.0653 4.88123 31.0328C4.87623 31.0003 4.87373 30.9703 4.87123 30.9403C4.87123 30.9103 4.86873 30.8828 4.87123 30.8578C4.87123 30.8328 4.87373 30.8103 4.87623 30.7928L5.03118 30.7579C5.02618 30.8028 5.02618 30.8553 5.03118 30.9128C5.03368 30.9703 5.04368 31.0278 5.05617 31.0828C5.07617 31.1652 5.10616 31.2377 5.14615 31.3077C5.18864 31.3752 5.24112 31.4327 5.3036 31.4777C5.36609 31.5226 5.43856 31.5526 5.52354 31.5701C5.60852 31.5876 5.69849 31.5826 5.80096 31.5601C5.90093 31.5376 5.98341 31.5026 6.04839 31.4577C6.11337 31.4127 6.16336 31.3602 6.19834 31.2977C6.23333 31.2352 6.25333 31.1652 6.26083 31.0878C6.26583 31.0103 6.26083 30.9253 6.23833 30.8378C6.22834 30.7953 6.21834 30.7554 6.20334 30.7179C6.19085 30.6779 6.17585 30.6454 6.16086 30.6154L5.73598 30.7129L5.73098 30.7029Z" fill="white"/>
<path d="M5.91298 29.2084L5.82051 28.4612L5.98046 28.4412L6.09543 29.3659L4.63585 29.5458L4.52588 28.6611L4.68583 28.6411L4.77331 29.3484L5.24317 29.2909L5.16569 28.6611L5.32565 28.6411L5.40313 29.2709L5.91048 29.2084H5.91298Z" fill="white"/>
<path d="M4.57098 25.6321C4.57098 25.7146 4.57848 25.7921 4.60348 25.8646C4.62847 25.937 4.66346 25.9995 4.71344 26.0545C4.76343 26.1095 4.82591 26.152 4.90089 26.1845C4.97587 26.217 5.06584 26.2344 5.16581 26.2369C5.26578 26.2394 5.35576 26.2294 5.43074 26.202C5.50571 26.177 5.5682 26.137 5.61818 26.087C5.66817 26.037 5.70566 25.9745 5.73315 25.902C5.75814 25.8296 5.77314 25.7496 5.77564 25.6596C5.77564 25.6346 5.77564 25.6096 5.77564 25.5821C5.77564 25.5546 5.77064 25.5271 5.76814 25.4997C5.76314 25.4722 5.76064 25.4447 5.75314 25.4172C5.74815 25.3897 5.74065 25.3672 5.73565 25.3472L5.8931 25.3522C5.9081 25.3947 5.9206 25.4472 5.92809 25.5047C5.93559 25.5621 5.93809 25.6196 5.93559 25.6796C5.93309 25.8021 5.9106 25.9095 5.87561 26.002C5.83812 26.0945 5.78813 26.1745 5.72315 26.2344C5.65817 26.2969 5.57819 26.3419 5.48572 26.3719C5.39325 26.4019 5.28828 26.4144 5.17081 26.4119C5.05584 26.4094 4.95088 26.3894 4.8584 26.3494C4.76343 26.3119 4.68345 26.2594 4.61597 26.192C4.54849 26.1245 4.49851 26.0445 4.46102 25.9495C4.42353 25.8546 4.40853 25.7496 4.41353 25.6346C4.41353 25.6046 4.41603 25.5746 4.42103 25.5446C4.42603 25.5147 4.42853 25.4872 4.43352 25.4597C4.43852 25.4322 4.44602 25.4072 4.45352 25.3847C4.46102 25.3622 4.46851 25.3422 4.47601 25.3247L4.63347 25.3297C4.61847 25.3747 4.60348 25.4222 4.59348 25.4747C4.58348 25.5271 4.57598 25.5796 4.57348 25.6321H4.57098Z" fill="white"/>
<path d="M5.98062 24.5198L4.60352 23.73L4.62351 23.5776L6.16057 23.1802L6.13557 23.3726L5.67321 23.4876L5.59073 24.0974L6.00561 24.3298L5.98062 24.5198ZM4.84095 23.685C5.0134 23.775 5.17085 23.86 5.31081 23.9375L5.44077 24.0099L5.50576 23.5276L5.3608 23.5651C5.20084 23.6051 5.02839 23.6425 4.84095 23.68V23.685Z" fill="white"/>
<path d="M6.38291 22.1132L6.34042 22.2881L4.91333 21.9407L5.0083 21.5458C5.0233 21.4859 5.03829 21.4334 5.05829 21.3859C5.07828 21.3384 5.10078 21.2934 5.12577 21.2559C5.17825 21.1784 5.23824 21.1235 5.31072 21.096C5.38319 21.066 5.46317 21.0635 5.55065 21.0835C5.62313 21.101 5.68311 21.131 5.73059 21.1735C5.77808 21.2159 5.81557 21.2684 5.83806 21.3334C5.86056 21.3959 5.87305 21.4709 5.87305 21.5533C5.87305 21.6358 5.86056 21.7283 5.83556 21.8283C5.82307 21.8757 5.81057 21.9257 5.79308 21.9757L6.38041 22.1182L6.38291 22.1132ZM5.63562 21.9307C5.64312 21.9082 5.65312 21.8832 5.66061 21.8583C5.66811 21.8333 5.67561 21.8083 5.68061 21.7858C5.7006 21.7033 5.7106 21.6333 5.7131 21.5708C5.7131 21.5109 5.7081 21.4584 5.69061 21.4159C5.67561 21.3734 5.65062 21.3409 5.62063 21.3159C5.59063 21.2909 5.55065 21.2734 5.50566 21.2634C5.45068 21.2509 5.40069 21.2534 5.3582 21.2709C5.31571 21.2884 5.28072 21.3209 5.24823 21.3659C5.22824 21.3934 5.21324 21.4259 5.19825 21.4659C5.18325 21.5059 5.17076 21.5508 5.15826 21.6033L5.10827 21.8058L5.63312 21.9332L5.63562 21.9307Z" fill="white"/>
<path d="M13.4788 43.2499L14.0186 43.6747L13.3313 43.6447L13.0939 44.2896L12.9089 43.6273L12.2241 43.6023L12.7965 43.2224L12.609 42.5601L13.1464 42.9874L13.7187 42.6075L13.4788 43.2499Z" fill="white"/>
<path d="M6.44805 17.8871L7.41027 17.8396L6.65799 18.4394L7.00039 19.3417L6.19562 18.8093L5.44584 19.4142L5.70076 18.4844L4.896 17.9571L5.85822 17.9146L6.11065 16.9849L6.44805 17.8871Z" fill="white"/>
<path d="M39.0013 43.2499L38.4614 43.6747L39.1462 43.6447L39.3837 44.2896L39.5686 43.6273L40.2559 43.6023L39.6836 43.2224L39.8685 42.5601L39.3312 42.9874L38.7613 42.6075L39.0013 43.2499Z" fill="white"/>
<path d="M46.0291 17.8871L45.0669 17.8396L45.8217 18.4394L45.4793 19.3417L46.2815 18.8093L47.0338 19.4142L46.7764 18.4844L47.5837 17.9571L46.6214 17.9146L46.369 16.9849L46.0291 17.8871Z" fill="white"/>
<path d="M45.9567 22.2182C45.9692 22.2707 45.9842 22.3157 46.0067 22.3532C46.0292 22.3907 46.0517 22.4232 46.0816 22.4482C46.1116 22.4732 46.1416 22.4932 46.1791 22.5057C46.2141 22.5181 46.2516 22.5256 46.2941 22.5281C46.3191 22.5281 46.3466 22.5281 46.3766 22.5281C46.4066 22.5256 46.434 22.5206 46.4615 22.5131L47.3513 22.3157L47.3888 22.4907L46.504 22.6856C46.4715 22.6931 46.434 22.6981 46.3966 22.7031C46.3591 22.7081 46.3241 22.7106 46.2916 22.7081C46.2366 22.7081 46.1816 22.6956 46.1316 22.6781C46.0816 22.6606 46.0342 22.6331 45.9917 22.5981C45.9492 22.5631 45.9117 22.5156 45.8792 22.4582C45.8467 22.4007 45.8217 22.3307 45.8042 22.2507C45.7867 22.1707 45.7792 22.1008 45.7842 22.0383C45.7892 21.9758 45.8017 21.9183 45.8217 21.8708C45.8417 21.8208 45.8717 21.7784 45.9067 21.7434C45.9417 21.7059 45.9842 21.6759 46.0292 21.6509C46.0617 21.6334 46.0991 21.6159 46.1391 21.6034C46.1791 21.5909 46.2191 21.5784 46.2566 21.5709L47.1413 21.376L47.1788 21.5509L46.2891 21.7484C46.2566 21.7559 46.2241 21.7659 46.1916 21.7784C46.1591 21.7909 46.1291 21.8059 46.1041 21.8208C46.0392 21.8608 45.9942 21.9158 45.9667 21.9808C45.9392 22.0483 45.9367 22.1283 45.9567 22.2257V22.2182Z" fill="white"/>
<path d="M47.2086 23.8704C47.1661 23.8754 47.1311 23.8879 47.1061 23.9079C47.0811 23.9279 47.0586 23.9554 47.0436 23.9854C47.0286 24.0154 47.0187 24.0529 47.0112 24.0929C47.0037 24.1328 46.9987 24.1753 46.9912 24.2178C46.9837 24.2753 46.9737 24.3328 46.9637 24.3903C46.9537 24.4477 46.9362 24.4977 46.9112 24.5452C46.8862 24.5927 46.8512 24.6302 46.8087 24.6627C46.7662 24.6952 46.7062 24.7152 46.6313 24.7227C46.5563 24.7327 46.4888 24.7227 46.4313 24.7027C46.3738 24.6802 46.3239 24.6452 46.2839 24.6002C46.2439 24.5527 46.2089 24.4952 46.1839 24.4303C46.1589 24.3628 46.1414 24.2878 46.1339 24.2053C46.1289 24.1678 46.1264 24.1278 46.1289 24.0879C46.1289 24.0479 46.1289 24.0079 46.1364 23.9729C46.1414 23.9354 46.1464 23.9029 46.1539 23.8729C46.1614 23.8429 46.1689 23.8179 46.1764 23.8004L46.3388 23.7829C46.3289 23.8104 46.3189 23.8404 46.3139 23.8754C46.3089 23.9104 46.3014 23.9454 46.2964 23.9804C46.2914 24.0154 46.2914 24.0529 46.2914 24.0879C46.2914 24.1228 46.2914 24.1578 46.2964 24.1878C46.3014 24.2378 46.3114 24.2878 46.3264 24.3328C46.3413 24.3778 46.3588 24.4178 46.3838 24.4502C46.4088 24.4827 46.4388 24.5077 46.4763 24.5227C46.5138 24.5377 46.5588 24.5452 46.6113 24.5377C46.6538 24.5327 46.6912 24.5202 46.7162 24.4977C46.7412 24.4752 46.7637 24.4502 46.7787 24.4178C46.7937 24.3853 46.8062 24.3503 46.8112 24.3103C46.8187 24.2703 46.8237 24.2278 46.8312 24.1828C46.8387 24.1253 46.8462 24.0679 46.8562 24.0104C46.8662 23.9554 46.8837 23.9029 46.9087 23.8579C46.9337 23.8129 46.9662 23.7729 47.0087 23.743C47.0511 23.713 47.1086 23.693 47.1811 23.6855C47.2561 23.678 47.3211 23.6855 47.376 23.7055C47.4335 23.7255 47.481 23.7579 47.521 23.8004C47.561 23.8429 47.5935 23.8929 47.616 23.9529C47.6385 24.0104 47.656 24.0754 47.6635 24.1428C47.6735 24.2203 47.6735 24.2953 47.6635 24.3628C47.6535 24.4303 47.6435 24.4952 47.626 24.5552L47.461 24.5727C47.481 24.5102 47.4935 24.4452 47.5035 24.3778C47.5135 24.3128 47.5135 24.2428 47.5035 24.1678C47.496 24.1128 47.486 24.0654 47.4685 24.0254C47.451 23.9854 47.431 23.9529 47.406 23.9304C47.381 23.9079 47.3511 23.8879 47.3186 23.8804C47.2861 23.8704 47.2486 23.8679 47.2111 23.8729L47.2086 23.8704Z" fill="white"/>
<path d="M47.751 27.1642L46.4439 27.1117L46.4139 27.829L46.2515 27.8215L46.289 26.9268L47.7585 26.9867L47.751 27.1642Z" fill="white"/>
<path d="M46.1895 28.6265L47.5591 29.4263L47.5366 29.5787L45.9971 29.9636L46.0246 29.7712L46.4869 29.6587L46.5744 29.0514L46.162 28.814L46.1895 28.624V28.6265ZM47.3217 29.4688C47.1492 29.3788 46.9943 29.2938 46.8543 29.2114L46.7244 29.1364L46.6544 29.6187L46.7993 29.5837C46.9593 29.5463 47.1317 29.5088 47.3192 29.4713V29.4663L47.3217 29.4688Z" fill="white"/>
<path d="M46.3568 31.1857L45.767 31.0357L45.8095 30.8633L47.2341 31.2232L47.1416 31.5931C47.1266 31.6556 47.1091 31.708 47.0941 31.7505C47.0791 31.793 47.0616 31.8305 47.0416 31.8655C46.9892 31.958 46.9242 32.0229 46.8467 32.0579C46.7692 32.0929 46.6817 32.1004 46.5843 32.0754C46.5268 32.0604 46.4768 32.0379 46.4368 32.0079C46.3968 31.978 46.3643 31.943 46.3393 31.9005C46.3144 31.858 46.2969 31.813 46.2869 31.7605C46.2769 31.708 46.2744 31.6531 46.2794 31.5931H46.2744L45.5596 31.8605L45.6021 31.688L46.3019 31.3981L46.3543 31.1882L46.3568 31.1857ZM47.0366 31.3556L46.5143 31.2232L46.4718 31.3956C46.4593 31.4481 46.4493 31.4956 46.4418 31.5331C46.4368 31.5706 46.4343 31.6081 46.4343 31.6381C46.4368 31.703 46.4543 31.758 46.4868 31.8005C46.5193 31.843 46.5668 31.873 46.6318 31.8905C46.6942 31.9055 46.7467 31.903 46.7917 31.8805C46.8367 31.858 46.8742 31.823 46.9042 31.773C46.9192 31.7505 46.9317 31.7205 46.9442 31.6855C46.9567 31.6506 46.9692 31.6056 46.9842 31.5506L47.0341 31.3531L47.0366 31.3556Z" fill="white"/>
<path d="M45.4918 33.9098L45.6093 33.5949L45.7617 33.6499L45.5843 34.1322L44.917 33.8848C44.917 33.8673 44.917 33.8423 44.917 33.8123C44.917 33.7823 44.9245 33.7473 44.9295 33.7098C44.9345 33.6723 44.9445 33.6324 44.9545 33.5899C44.9645 33.5474 44.977 33.5074 44.992 33.4674C45.0345 33.3499 45.0894 33.25 45.1569 33.1725C45.2219 33.095 45.2969 33.035 45.3769 32.995C45.4593 32.9551 45.5468 32.9351 45.6443 32.9351C45.7393 32.9351 45.8392 32.9526 45.9442 32.9925C46.0567 33.035 46.1516 33.09 46.2316 33.1575C46.3116 33.2275 46.3716 33.305 46.4116 33.3949C46.4515 33.4849 46.474 33.5824 46.474 33.6898C46.474 33.7948 46.4541 33.9048 46.4141 34.0172C46.4041 34.0472 46.3916 34.0772 46.3766 34.1072C46.3641 34.1372 46.3491 34.1647 46.3341 34.1897C46.3191 34.2147 46.3041 34.2397 46.2891 34.2597C46.2741 34.2797 46.2616 34.2972 46.2466 34.3122L46.0991 34.2572C46.1291 34.2222 46.1566 34.1772 46.1866 34.1272C46.2166 34.0772 46.2391 34.0247 46.2591 33.9723C46.2891 33.8948 46.3041 33.8148 46.3066 33.7348C46.3066 33.6549 46.2966 33.5799 46.2691 33.5074C46.2416 33.4349 46.1966 33.3699 46.1366 33.31C46.0767 33.25 45.9967 33.2025 45.8992 33.1675C45.8042 33.1325 45.7168 33.115 45.6368 33.115C45.5568 33.115 45.4868 33.1325 45.4218 33.165C45.3594 33.1975 45.3019 33.245 45.2544 33.305C45.2069 33.3674 45.1669 33.4399 45.1344 33.5274C45.1194 33.5674 45.1069 33.6074 45.0969 33.6474C45.0869 33.6873 45.0794 33.7248 45.0769 33.7573L45.4868 33.9098H45.4918Z" fill="white"/>
<path d="M44.5145 35.0645L44.1796 35.7393L44.0347 35.6668L44.4495 34.832L45.7667 35.4843L45.3718 36.2841L45.2268 36.2116L45.5442 35.5743L45.1194 35.3644L44.8369 35.9317L44.692 35.8592L44.9744 35.2919L44.517 35.0645H44.5145Z" fill="white"/>
<path d="M43.662 38.7861C43.7095 38.7186 43.7445 38.6486 43.7644 38.5737C43.7844 38.5012 43.7894 38.4262 43.7769 38.3537C43.7645 38.2812 43.737 38.2113 43.692 38.1413C43.647 38.0713 43.582 38.0088 43.4995 37.9488C43.4171 37.8914 43.3371 37.8514 43.2596 37.8314C43.1821 37.8114 43.1096 37.8089 43.0397 37.8239C42.9697 37.8389 42.9047 37.8689 42.8422 37.9139C42.7797 37.9588 42.7248 38.0188 42.6723 38.0938C42.6573 38.1138 42.6448 38.1363 42.6298 38.1588C42.6148 38.1838 42.6023 38.2088 42.5898 38.2338C42.5773 38.2588 42.5673 38.2837 42.5573 38.3087C42.5473 38.3337 42.5398 38.3562 42.5323 38.3787L42.4023 38.2887C42.4123 38.2438 42.4323 38.1963 42.4573 38.1438C42.4823 38.0913 42.5123 38.0413 42.5473 37.9913C42.6173 37.8914 42.6948 37.8139 42.7772 37.7539C42.8597 37.6964 42.9447 37.6589 43.0347 37.6439C43.1246 37.6289 43.2146 37.6339 43.3096 37.6589C43.4046 37.6839 43.497 37.7314 43.592 37.7989C43.6845 37.8639 43.762 37.9388 43.8194 38.0238C43.8769 38.1088 43.9169 38.1963 43.9344 38.2887C43.9519 38.3812 43.9519 38.4787 43.9294 38.5762C43.9069 38.6736 43.8619 38.7711 43.7944 38.8661C43.7769 38.8911 43.757 38.9161 43.7395 38.9386C43.7195 38.9611 43.6995 38.9835 43.6795 39.0035C43.6595 39.0235 43.6395 39.041 43.622 39.056C43.6045 39.071 43.587 39.0835 43.5695 39.0935L43.4395 39.0035C43.477 38.976 43.5145 38.9436 43.5545 38.9061C43.592 38.8686 43.627 38.8286 43.6595 38.7861H43.662Z" fill="white"/>
<path d="M41.878 38.9333L42.5903 40.3504L42.4878 40.4679L40.9883 39.9506L41.1157 39.8031L41.5656 39.9631L41.9705 39.5007L41.7531 39.0783L41.8805 38.9333H41.878ZM42.3679 40.258C42.2729 40.088 42.1904 39.9306 42.1155 39.7881L42.048 39.6556L41.7281 40.023L41.868 40.073C42.023 40.128 42.1879 40.1905 42.3654 40.263H42.3679V40.258Z" fill="white"/>
<path d="M40.2134 40.7179L40.3433 40.5955L41.3431 41.6726L41.0456 41.9501C41.0007 41.9901 40.9582 42.0275 40.9157 42.0575C40.8732 42.0875 40.8307 42.11 40.7882 42.13C40.7032 42.1675 40.6208 42.1775 40.5458 42.1625C40.4708 42.1475 40.4008 42.1075 40.3383 42.04C40.2884 41.9851 40.2534 41.9276 40.2359 41.8651C40.2184 41.8026 40.2184 41.7401 40.2359 41.6726C40.2509 41.6052 40.2809 41.5377 40.3283 41.4702C40.3733 41.4002 40.4358 41.3302 40.5108 41.2628C40.5458 41.2303 40.5858 41.1953 40.6258 41.1628L40.2134 40.7204V40.7179ZM40.7357 41.2803C40.7157 41.2953 40.6957 41.3103 40.6757 41.3277C40.6558 41.3452 40.6358 41.3602 40.6208 41.3777C40.5583 41.4352 40.5108 41.4902 40.4758 41.5377C40.4408 41.5877 40.4183 41.6352 40.4083 41.6776C40.3983 41.7201 40.3983 41.7626 40.4108 41.8001C40.4233 41.8376 40.4458 41.8726 40.4758 41.9076C40.5158 41.9501 40.5558 41.9751 40.6008 41.9826C40.6458 41.9901 40.6932 41.9826 40.7432 41.9651C40.7732 41.9526 40.8057 41.9326 40.8407 41.9101C40.8757 41.8876 40.9107 41.8551 40.9507 41.8176L41.1031 41.6751L40.7357 41.2803Z" fill="white"/>
<path d="M16.5576 26.352C16.3452 23.2579 17.9597 20.1138 21.1238 19.3115C22.7883 18.8892 23.7431 19.4765 25.2876 19.6939C26.5423 19.8714 27.517 18.9866 28.6567 18.5568C30.6486 17.8045 32.9629 18.0669 34.5924 19.4115C34.9024 19.6664 34.9148 20.1238 34.6249 20.3987C33.1604 21.7833 32.6355 23.7103 33.2628 25.7397C33.7302 27.2518 34.8999 28.3739 36.3219 28.9788C36.6119 29.1012 36.7668 29.4161 36.6968 29.726C36.4544 30.7782 36.0295 31.8104 35.5247 32.7552C34.9198 33.8873 34.0026 35.4219 32.7255 35.8543C31.2534 36.3541 29.8388 35.4069 28.3542 35.4869C25.7775 35.6293 24.5978 38.1386 21.9061 36.1767C19.3493 34.3097 17.2175 30.5483 16.6851 27.4542C16.6826 27.4367 16.6801 27.4217 16.6776 27.4042L16.5576 26.3545V26.352Z" fill="white"/>
<path d="M25.3253 18.3792C25.2203 17.6344 25.3128 17.0571 25.4003 16.6972C25.9801 14.3354 28.3894 13.3357 28.7518 13.1907C29.3417 12.9558 29.8615 12.8633 30.2014 12.8208C30.2439 13.1407 30.2789 13.6356 30.1839 14.2229C29.924 15.8324 28.7893 17.4845 27.0698 18.1143C26.7099 18.2467 26.1151 18.4092 25.3228 18.3767L25.3253 18.3792Z" fill="white"/>
</svg>
