<svg width="52" height="52" viewBox="0 0 52 52" fill="none" xmlns="http://www.w3.org/2000/svg">
<path d="M25.9996 52C40.359 52 51.9995 40.3594 51.9995 26C51.9995 11.6406 40.359 0 25.9996 0C11.6402 0 -0.000488281 11.6406 -0.000488281 26C-0.000488281 40.3594 11.6402 52 25.9996 52Z" fill="#00007B"/>
<path d="M25.9996 44.1524C15.99 44.1524 7.84741 36.0098 7.84741 26.0002C7.84741 15.9906 15.99 7.8479 25.9996 7.8479C36.0092 7.8479 44.1519 15.9906 44.1519 26.0002C44.1519 36.0098 36.0092 44.1524 25.9996 44.1524ZM25.9996 8.35275C16.2699 8.35275 8.35227 16.268 8.35227 26.0002C8.35227 35.7324 16.2699 43.6476 25.9996 43.6476C35.7293 43.6476 43.647 35.7299 43.647 26.0002C43.647 16.2705 35.7293 8.35275 25.9996 8.35275Z" fill="white"/>
<path d="M26 50.6206C22.6784 50.6206 19.4543 49.9683 16.4152 48.6836C13.4836 47.444 10.8494 45.6695 8.59252 43.4101C6.33317 41.1508 4.55866 38.5191 3.31902 35.5874C2.03439 32.5483 1.38208 29.3217 1.38208 26.0027C1.38208 22.6836 2.03439 19.4571 3.31902 16.4179C4.55866 13.4863 6.33317 10.852 8.59252 8.59519C10.8519 6.33584 13.4836 4.56135 16.4152 3.32171C19.4543 2.03708 22.6809 1.38477 26 1.38477C29.319 1.38477 32.5456 2.03708 35.5847 3.32171C38.5164 4.56135 41.1506 6.33584 43.4074 8.59519C45.6668 10.8545 47.4413 13.4863 48.6809 16.4179C49.9655 19.4571 50.6179 22.6836 50.6179 26.0027C50.6179 29.3217 49.9655 32.5483 48.6809 35.5874C47.4413 38.5191 45.6668 41.1533 43.4074 43.4101C41.1481 45.6695 38.5164 47.444 35.5847 48.6836C32.5456 49.9683 29.319 50.6206 26 50.6206ZM26 1.74716C22.7284 1.74716 19.5518 2.38948 16.5576 3.65661C13.6685 4.87876 11.0767 6.62575 8.84989 8.85011C6.62554 11.0745 4.8761 13.6687 3.65645 16.5579C2.38931 19.552 1.74696 22.7286 1.74696 26.0002C1.74696 29.2717 2.38931 32.4483 3.65645 35.4424C4.87859 38.3316 6.62554 40.9234 8.84989 43.1502C11.0743 45.3746 13.6685 47.1241 16.5576 48.3437C19.5518 49.6109 22.7284 50.2532 26 50.2532C29.2715 50.2532 32.4481 49.6109 35.4422 48.3437C38.3314 47.1216 40.9232 45.3746 43.15 43.1502C45.3744 40.9259 47.1238 38.3316 48.3435 35.4424C49.6106 32.4483 50.253 29.2717 50.253 26.0002C50.253 22.7286 49.6106 19.552 48.3435 16.5579C47.1213 13.6687 45.3744 11.077 43.15 8.85011C40.9257 6.62325 38.3314 4.87626 35.4422 3.65661C32.4481 2.38948 29.2715 1.74716 26 1.74716Z" fill="white"/>
<path d="M8.78753 13.7959C8.92499 13.8808 9.04243 13.9808 9.1424 14.0908C9.24238 14.2008 9.31733 14.3207 9.37232 14.4482C9.4248 14.5781 9.45488 14.7156 9.46238 14.8631C9.46738 15.0105 9.44738 15.163 9.3999 15.3254C9.37241 15.4179 9.33493 15.5129 9.28494 15.6103C9.23746 15.7078 9.17737 15.8078 9.11238 15.9153L8.77752 16.4476L6.42822 14.968L6.76565 14.4307C6.83313 14.3232 6.90056 14.2282 6.96554 14.1433C7.03302 14.0583 7.10052 13.9833 7.173 13.9183C7.29797 13.8059 7.42788 13.7209 7.56034 13.6609C7.6928 13.6009 7.83029 13.5684 7.96525 13.5609C8.10271 13.5534 8.24015 13.5684 8.37761 13.6109C8.51507 13.6534 8.65263 13.7159 8.79009 13.8009L8.78753 13.7959ZM8.60752 14.0808C8.38259 13.9383 8.16775 13.8733 7.96281 13.8833C7.76037 13.8933 7.57042 13.9758 7.39547 14.1233C7.32799 14.1808 7.26294 14.2507 7.20046 14.3332C7.13798 14.4157 7.07055 14.5132 7.00057 14.6231L6.86303 14.8431L8.69502 15.9977L8.83256 15.7778C8.90254 15.6678 8.95995 15.5654 9.00743 15.4729C9.05492 15.3804 9.08989 15.2904 9.11238 15.2055C9.16987 14.983 9.1574 14.7756 9.07492 14.5831C8.99244 14.3907 8.83496 14.2232 8.60752 14.0808Z" fill="white"/>
<path d="M11.1493 13.1061L9.06982 11.2666L9.29473 11.0142L11.3742 12.8536L11.1493 13.1061Z" fill="white"/>
<path d="M13.4287 9.42733L12.9389 9.82721L12.7465 9.58978L13.4988 8.97496L14.3485 10.0147C14.336 10.0446 14.3136 10.0846 14.2786 10.1321C14.2461 10.1796 14.2061 10.2321 14.1586 10.2871C14.1112 10.3421 14.0586 10.3995 14.0011 10.4595C13.9436 10.517 13.8837 10.572 13.8212 10.6245C13.6363 10.7744 13.4538 10.8819 13.2713 10.9469C13.0889 11.0119 12.9139 11.0369 12.7414 11.0219C12.569 11.0069 12.4066 10.9544 12.2492 10.8644C12.0917 10.7744 11.9467 10.647 11.8142 10.4845C11.6718 10.3096 11.5669 10.1271 11.5044 9.93968C11.4419 9.75223 11.4194 9.56479 11.4369 9.37984C11.4569 9.19489 11.5168 9.01494 11.6168 8.83999C11.7167 8.66504 11.8543 8.50759 12.0293 8.36513C12.0767 8.32764 12.1241 8.29015 12.1741 8.25516C12.2241 8.22017 12.2742 8.19018 12.3216 8.16019C12.3691 8.1302 12.4166 8.10771 12.4616 8.08771C12.5066 8.06772 12.544 8.05272 12.579 8.04272L12.769 8.27266C12.6866 8.30265 12.5991 8.34514 12.5041 8.40012C12.4091 8.45261 12.3191 8.51509 12.2366 8.58257C12.1141 8.68254 12.0142 8.79501 11.9317 8.92497C11.8518 9.05243 11.7993 9.18739 11.7768 9.33235C11.7543 9.47731 11.7617 9.62477 11.8042 9.77972C11.8467 9.93468 11.9292 10.0871 12.0541 10.2396C12.1766 10.3895 12.3016 10.4995 12.4316 10.5745C12.5616 10.6495 12.694 10.6895 12.8289 10.697C12.9639 10.7045 13.0988 10.682 13.2363 10.627C13.3738 10.572 13.5087 10.4895 13.6412 10.3796C13.7037 10.3296 13.7612 10.2746 13.8162 10.2196C13.8712 10.1646 13.9161 10.1121 13.9536 10.0621L13.4313 9.42233L13.4287 9.42733Z" fill="white"/>
<path d="M16.0381 9.03959L14.6509 6.63528L14.9433 6.46533L16.3304 8.86964L16.0381 9.03959Z" fill="white"/>
<path d="M19.0024 7.61507L18.6874 7.73754L17.7878 5.4357L16.9229 5.77311L16.813 5.48819L18.8549 4.69092L18.965 4.97584L18.1002 5.31324L18.9999 7.61507H19.0024Z" fill="white"/>
<path d="M20.9864 6.9353L21.5688 3.99615L21.8562 3.94116L23.4932 6.45044L23.1333 6.52042L22.6484 5.76314L21.5088 5.98307L21.3413 6.86782L20.9839 6.9378L20.9864 6.9353ZM21.7911 4.39353C21.7362 4.75593 21.6788 5.08583 21.6213 5.38575L21.5688 5.66317L22.471 5.48822L22.3186 5.25078C22.1511 4.99086 21.9787 4.70344 21.7987 4.39103H21.7911V4.39353Z" fill="white"/>
<path d="M25.4453 3.56616L25.4854 6.03795L26.84 6.01546L26.845 6.32037L25.1529 6.34786L25.1079 3.57366L25.4453 3.56866V3.56616Z" fill="white"/>
<path d="M30.2515 6.75294L32.1085 4.40112L32.3884 4.4836L32.7033 7.46524L32.3508 7.36277L32.2659 6.46803L31.1512 6.14562L30.6013 6.85542L30.2515 6.75544V6.75294ZM32.1259 4.85599C31.911 5.15341 31.7111 5.42083 31.5237 5.66326L31.3511 5.88569L32.2359 6.14062L32.2084 5.8607C32.1784 5.55329 32.1559 5.21839 32.1359 4.85849H32.1285L32.1259 4.85599Z" fill="white"/>
<path d="M35.4077 6.42546C35.3702 6.49794 35.3551 6.56542 35.3601 6.6279C35.3651 6.69039 35.3851 6.75037 35.4176 6.80535C35.4526 6.86284 35.4951 6.91532 35.5526 6.9703C35.6076 7.02279 35.6675 7.07777 35.73 7.13026C35.8125 7.20274 35.895 7.27772 35.9725 7.35269C36.05 7.42767 36.1125 7.51015 36.16 7.59762C36.2074 7.6851 36.2324 7.78007 36.2349 7.88254C36.2374 7.98501 36.2074 8.09998 36.1449 8.22494C36.08 8.35241 35.9976 8.44988 35.9026 8.51986C35.8076 8.58734 35.7001 8.62983 35.5852 8.64482C35.4677 8.65982 35.3452 8.65232 35.2127 8.62233C35.0803 8.59234 34.9453 8.53985 34.8054 8.46987C34.7404 8.43738 34.6778 8.39989 34.6154 8.3574C34.5529 8.31492 34.493 8.27243 34.4405 8.22744C34.3855 8.18245 34.3379 8.13997 34.2979 8.09748C34.258 8.05499 34.228 8.0175 34.208 7.98501L34.348 7.71009C34.3805 7.75508 34.4205 7.80007 34.4655 7.84755C34.5105 7.89504 34.5604 7.94003 34.6129 7.98251C34.6654 8.025 34.7204 8.06749 34.7753 8.10498C34.8328 8.14247 34.8854 8.17496 34.9403 8.20245C35.0253 8.24744 35.1127 8.28243 35.1977 8.30742C35.2827 8.33241 35.3652 8.34241 35.4426 8.33991C35.5201 8.33491 35.5901 8.31242 35.6551 8.26993C35.7201 8.22744 35.775 8.16246 35.8225 8.07249C35.86 7.99751 35.8775 7.93003 35.87 7.86755C35.865 7.80506 35.8451 7.74258 35.8101 7.6876C35.7751 7.63011 35.7301 7.57513 35.6751 7.52265C35.6201 7.47016 35.5601 7.41518 35.4951 7.36019C35.4101 7.28771 35.3302 7.21523 35.2528 7.14026C35.1753 7.06528 35.1128 6.9853 35.0653 6.89783C35.0178 6.81285 34.9928 6.71788 34.9903 6.61791C34.9853 6.51794 35.0153 6.40797 35.0778 6.288C35.1427 6.16304 35.2202 6.06557 35.3127 6.00058C35.4051 5.9331 35.5051 5.89062 35.6151 5.87312C35.7225 5.85313 35.8375 5.85813 35.9525 5.88062C36.07 5.90561 36.185 5.9456 36.2999 6.00558C36.4324 6.07306 36.5473 6.14804 36.6498 6.23302C36.7498 6.31549 36.8372 6.40297 36.9122 6.49294L36.7698 6.77286C36.6898 6.67789 36.6024 6.58792 36.5074 6.50544C36.4124 6.42296 36.3024 6.34798 36.18 6.283C36.0875 6.23552 36 6.20303 35.92 6.18803C35.8401 6.17303 35.7676 6.17303 35.7026 6.18803C35.6376 6.20303 35.5801 6.23052 35.5301 6.27301C35.4802 6.31549 35.4402 6.36798 35.4052 6.43296L35.4077 6.42546Z" fill="white"/>
<path d="M38.7912 8.4526C38.7412 8.51758 38.7138 8.58006 38.7063 8.64254C38.6988 8.70502 38.7063 8.7675 38.7313 8.82749C38.7538 8.88997 38.7888 8.94995 38.8338 9.01493C38.8788 9.07742 38.9262 9.1399 38.9786 9.20488C39.0486 9.29235 39.1136 9.37983 39.1761 9.4673C39.2386 9.55728 39.2861 9.64725 39.3161 9.74222C39.3461 9.8372 39.3536 9.93467 39.3387 10.0371C39.3237 10.1396 39.2736 10.2471 39.1861 10.357C39.0986 10.472 39.0012 10.552 38.8937 10.602C38.7862 10.652 38.6738 10.6745 38.5588 10.667C38.4414 10.662 38.3214 10.632 38.1964 10.577C38.0714 10.522 37.949 10.447 37.8241 10.352C37.7666 10.3071 37.7116 10.2596 37.6566 10.2071C37.6017 10.1546 37.5516 10.0996 37.5067 10.0471C37.4617 9.99465 37.4242 9.94217 37.3917 9.89218C37.3592 9.8422 37.3367 9.80221 37.3242 9.76722L37.5117 9.52229C37.5367 9.57227 37.5666 9.62476 37.604 9.67974C37.6415 9.73473 37.6815 9.78721 37.724 9.8397C37.7665 9.89218 37.8141 9.94217 37.8615 9.98965C37.909 10.0371 37.959 10.0796 38.004 10.1146C38.0814 10.1746 38.1589 10.2246 38.2389 10.2646C38.3188 10.3046 38.3963 10.3296 38.4738 10.3396C38.5488 10.3495 38.6238 10.3396 38.6963 10.3096C38.7687 10.2796 38.8338 10.2246 38.8963 10.1446C38.9463 10.0796 38.9762 10.0146 38.9812 9.94966C38.9862 9.88718 38.9787 9.8222 38.9562 9.75972C38.9337 9.69724 38.8987 9.63475 38.8537 9.57227C38.8087 9.50979 38.7588 9.44481 38.7063 9.37983C38.6363 9.29485 38.5689 9.20738 38.5064 9.1199C38.4439 9.03243 38.3964 8.94245 38.3664 8.84998C38.3364 8.75751 38.3289 8.66004 38.3414 8.56256C38.3564 8.46259 38.4039 8.36012 38.4864 8.25265C38.5713 8.14019 38.6663 8.06021 38.7687 8.01022C38.8712 7.96024 38.9788 7.93774 39.0887 7.93774C39.1987 7.93774 39.3086 7.96274 39.421 8.00772C39.531 8.05271 39.6385 8.11519 39.741 8.19517C39.8585 8.28514 39.9584 8.38012 40.0434 8.48009C40.1284 8.58006 40.1983 8.68253 40.2533 8.7825L40.0634 9.02993C40.0009 8.92246 39.9309 8.81749 39.8534 8.72002C39.7759 8.62255 39.681 8.53007 39.571 8.4426C39.4885 8.37762 39.4086 8.33263 39.3336 8.30264C39.2587 8.27265 39.1887 8.26015 39.1212 8.26265C39.0537 8.26265 38.9937 8.28264 38.9362 8.31514C38.8787 8.34763 38.8287 8.39261 38.7838 8.4501L38.7912 8.4526Z" fill="white"/>
<path d="M40.5111 12.2714L41.4633 13.3286L41.2359 13.5335L40.0562 12.2264L42.1181 10.3669L43.2453 11.6166L43.0178 11.8215L42.1156 10.8218L41.4508 11.4216L42.253 12.3114L42.0257 12.5163L41.2233 11.6266L40.5061 12.2739L40.5111 12.2714Z" fill="white"/>
<path d="M42.8431 15.8452L42.6655 15.5578L44.77 14.2632L44.2826 13.4734L44.5425 13.3135L45.6922 15.1804L45.4323 15.3404L44.9449 14.5506L42.8405 15.8452H42.8431Z" fill="white"/>
<path d="M20.7865 46.1014C20.744 46.2314 20.674 46.3389 20.5815 46.4263C20.489 46.5138 20.3641 46.5713 20.2066 46.5988V46.6088C20.2691 46.6588 20.3266 46.7138 20.374 46.7737C20.4215 46.8337 20.459 46.8987 20.484 46.9662C20.509 47.0337 20.524 47.1061 20.524 47.1836C20.524 47.2611 20.5115 47.3411 20.484 47.4236C20.459 47.496 20.4216 47.571 20.3716 47.646C20.3216 47.721 20.2541 47.7884 20.1716 47.8459C20.0891 47.9034 19.9866 47.9509 19.8692 47.9834C19.7517 48.0159 19.6118 48.0284 19.4544 48.0184C19.4144 48.0159 19.3719 48.0084 19.3244 48.0034C19.2794 47.9959 19.2269 47.9859 19.1719 47.9734C19.1169 47.9609 19.0569 47.9434 18.9894 47.9259C18.922 47.9084 18.8495 47.8834 18.7695 47.8559L17.9048 47.5685L18.8945 44.5994L19.9267 44.9443C20.1466 45.0167 20.3166 45.0992 20.4365 45.1892C20.5265 45.2542 20.5991 45.3267 20.6566 45.4041C20.714 45.4816 20.754 45.5591 20.7815 45.6416C20.809 45.724 20.8215 45.8015 20.819 45.8815C20.819 45.9615 20.8065 46.0365 20.7815 46.1089L20.7865 46.1014ZM18.882 46.4538L18.6021 47.2911L18.957 47.4086C19.0519 47.441 19.1345 47.4635 19.2045 47.481C19.2744 47.4985 19.3344 47.5085 19.3893 47.5135C19.4693 47.5235 19.5394 47.521 19.5994 47.5135C19.6593 47.5035 19.7093 47.486 19.7518 47.461C19.7943 47.436 19.8292 47.4061 19.8567 47.3686C19.8842 47.3311 19.9067 47.2886 19.9217 47.2411C19.9492 47.1586 19.9517 47.0787 19.9267 47.0012C19.9017 46.9237 19.8443 46.8537 19.7568 46.7887C19.7193 46.7612 19.6718 46.7338 19.6168 46.7088C19.5618 46.6838 19.4869 46.6563 19.3969 46.6263L18.882 46.4538ZM19.5243 46.1614C19.6718 46.2114 19.7867 46.2339 19.8692 46.2264C19.9617 46.2189 20.0367 46.1914 20.0917 46.1439C20.1466 46.0964 20.1866 46.034 20.2116 45.959C20.2391 45.8815 20.2416 45.804 20.2216 45.729C20.2016 45.6541 20.1491 45.5866 20.0616 45.5241C20.0266 45.4991 19.9817 45.4741 19.9292 45.4516C19.8767 45.4291 19.8117 45.4041 19.7342 45.3791L19.287 45.2292L19.032 45.9965L19.5219 46.1589L19.5243 46.1614Z" fill="white"/>
<path d="M24.5431 46.8062C24.5181 47.0237 24.4356 47.2011 24.2982 47.3361C24.1607 47.4735 23.9607 47.5635 23.7008 47.606V47.616L24.4732 49.0031L23.7907 48.9231L23.0885 47.6185L22.6986 47.5735L22.5561 48.7781L21.9863 48.7107L22.3537 45.6016L23.2984 45.714C23.4559 45.7315 23.5983 45.759 23.7333 45.7915C23.8682 45.824 23.9782 45.8665 24.0707 45.9115C24.2456 46.0039 24.3731 46.1239 24.4556 46.2714C24.5381 46.4188 24.5681 46.5988 24.5431 46.8062ZM23.0361 47.1286C23.166 47.1436 23.2759 47.1511 23.3684 47.1511C23.4608 47.1511 23.5383 47.1411 23.6033 47.1261C23.7233 47.0961 23.8107 47.0461 23.8632 46.9762C23.9157 46.9062 23.9482 46.8212 23.9607 46.7262C23.9707 46.6438 23.9607 46.5663 23.9357 46.4988C23.9082 46.4313 23.8558 46.3738 23.7759 46.3264C23.7234 46.2964 23.6584 46.2689 23.5784 46.2489C23.4984 46.2264 23.396 46.2089 23.276 46.1964L22.8685 46.1489L22.7561 47.1011L23.0361 47.1336V47.1286Z" fill="white"/>
<path d="M26.2301 49.0082L25.9702 45.8891L26.5426 45.8416L26.6601 47.2612H26.67L27.7297 45.7416L28.4395 45.6816L27.2673 47.3362L28.8069 48.7932L28.0746 48.8557L26.695 47.5536H26.685L26.8025 48.9632L26.2301 49.0107V49.0082Z" fill="white"/>
<path d="M30.2339 47.8336L30.8437 47.6812L30.9961 48.286L30.3863 48.4384L30.2339 47.8311V47.8336Z" fill="white"/>
<path d="M34.0152 44.7267C34.0677 44.8517 34.0901 44.9766 34.0777 45.1066C34.0652 45.2366 34.0101 45.3615 33.9127 45.484L33.9177 45.494C34.0001 45.4865 34.0777 45.4915 34.1551 45.504C34.2301 45.5165 34.3001 45.539 34.365 45.574C34.43 45.609 34.4876 45.6539 34.54 45.7089C34.5925 45.7639 34.635 45.8339 34.67 45.9139C34.7 45.9839 34.7225 46.0638 34.7325 46.1538C34.745 46.2438 34.74 46.3387 34.715 46.4362C34.6925 46.5362 34.6476 46.6362 34.5801 46.7386C34.5151 46.8411 34.4175 46.9436 34.2926 47.041C34.2601 47.066 34.2252 47.0885 34.1852 47.116C34.1452 47.1435 34.1026 47.1685 34.0526 47.196C34.0027 47.2235 33.9477 47.251 33.8852 47.281C33.8227 47.311 33.7527 47.341 33.6727 47.3759L32.8356 47.7358L31.5984 44.8592L32.5981 44.4293C32.8105 44.3368 32.993 44.2843 33.1404 44.2718C33.2504 44.2618 33.3529 44.2668 33.4478 44.2868C33.5403 44.3068 33.6253 44.3393 33.6978 44.3818C33.7702 44.4243 33.8327 44.4743 33.8852 44.5343C33.9377 44.5943 33.9777 44.6592 34.0077 44.7292L34.0152 44.7267ZM33.113 45.6115C33.2554 45.549 33.3579 45.489 33.4154 45.4315C33.4803 45.364 33.5178 45.2941 33.5253 45.2216C33.5328 45.1491 33.5228 45.0766 33.4903 45.0016C33.4578 44.9267 33.4079 44.8667 33.3454 44.8242C33.2805 44.7817 33.1955 44.7667 33.0905 44.7767C33.048 44.7817 32.998 44.7917 32.9455 44.8092C32.893 44.8267 32.828 44.8517 32.7505 44.8842L32.3182 45.0691L32.6381 45.8139L33.113 45.609V45.6115ZM32.828 46.2563L33.1754 47.066L33.5203 46.9186C33.6128 46.8786 33.6903 46.8436 33.7528 46.8086C33.8153 46.7761 33.8702 46.7436 33.9127 46.7111C33.9776 46.6637 34.0302 46.6162 34.0676 46.5687C34.1051 46.5212 34.1327 46.4737 34.1477 46.4262C34.1627 46.3787 34.1676 46.3337 34.1626 46.2863C34.1576 46.2388 34.1451 46.1938 34.1251 46.1488C34.0901 46.0688 34.0377 46.0088 33.9677 45.9664C33.8977 45.9239 33.8078 45.9089 33.7003 45.9214C33.6528 45.9264 33.6003 45.9389 33.5428 45.9564C33.4853 45.9739 33.4103 46.0013 33.3229 46.0388L32.823 46.2538L32.828 46.2563Z" fill="white"/>
<path d="M11.7816 40.7153C11.7441 40.6778 11.7041 40.6503 11.6666 40.6303C11.6291 40.6103 11.5892 40.5978 11.5517 40.5928C11.5142 40.5878 11.4767 40.5903 11.4392 40.5978C11.4017 40.6053 11.3668 40.6203 11.3318 40.6403C11.3093 40.6528 11.2868 40.6678 11.2643 40.6878C11.2418 40.7078 11.2193 40.7278 11.2018 40.7478L10.567 41.4026L10.4395 41.2776L11.0718 40.6253C11.0968 40.6003 11.1218 40.5753 11.1493 40.5528C11.1793 40.5279 11.2068 40.5079 11.2343 40.4904C11.2818 40.4604 11.3318 40.4404 11.3842 40.4254C11.4367 40.4129 11.4892 40.4079 11.5467 40.4154C11.6042 40.4229 11.6592 40.4404 11.7167 40.4704C11.7742 40.5004 11.8341 40.5454 11.8941 40.6028C11.9516 40.6578 11.9966 40.7153 12.0291 40.7703C12.0616 40.8253 12.0816 40.8803 12.0916 40.9327C12.1016 40.9852 12.1016 41.0377 12.0916 41.0877C12.0816 41.1377 12.064 41.1852 12.0415 41.2327C12.024 41.2676 12.0016 41.3001 11.9766 41.3326C11.9516 41.3651 11.924 41.3976 11.8966 41.4251L11.2643 42.0774L11.1368 41.9524L11.7716 41.2976C11.7941 41.2751 11.8166 41.2476 11.8366 41.2202C11.8566 41.1927 11.874 41.1652 11.8865 41.1377C11.9165 41.0677 11.9266 40.9977 11.9116 40.9277C11.8966 40.8578 11.8541 40.7878 11.7842 40.7178L11.7816 40.7153Z" fill="white"/>
<path d="M9.82474 40.0258C9.85723 39.9983 9.87979 39.9683 9.88979 39.9358C9.89979 39.9033 9.90223 39.8708 9.89723 39.8358C9.89223 39.8008 9.88227 39.7659 9.86477 39.7284C9.84978 39.6909 9.83229 39.6534 9.8123 39.6134C9.7873 39.5609 9.7623 39.5084 9.73981 39.4559C9.71731 39.4035 9.70478 39.351 9.69978 39.2985C9.69478 39.246 9.69986 39.1935 9.72236 39.1435C9.74235 39.0935 9.77983 39.0436 9.83731 38.9961C9.8948 38.9461 9.95471 38.9161 10.0172 38.9036C10.0772 38.8911 10.1372 38.8911 10.1972 38.9086C10.2572 38.9261 10.3171 38.9536 10.3746 38.9961C10.4321 39.0386 10.4871 39.091 10.5421 39.1535C10.5671 39.1835 10.5895 39.2135 10.612 39.2485C10.6345 39.2835 10.6545 39.316 10.6695 39.3485C10.6845 39.381 10.6996 39.4135 10.7121 39.4409C10.7221 39.4709 10.7295 39.4934 10.732 39.5134L10.607 39.6184C10.5995 39.5884 10.5896 39.5584 10.5771 39.5259C10.5646 39.4934 10.5496 39.4609 10.5321 39.4284C10.5146 39.396 10.4971 39.366 10.4771 39.336C10.4571 39.306 10.4371 39.2785 10.4171 39.2535C10.3846 39.2135 10.3496 39.1785 10.3122 39.1485C10.2747 39.1185 10.2371 39.096 10.1996 39.0836C10.1621 39.0686 10.1222 39.0661 10.0822 39.0736C10.0422 39.081 10.0022 39.101 9.95971 39.136C9.92722 39.1635 9.90479 39.1935 9.89479 39.226C9.88479 39.2585 9.88223 39.291 9.88723 39.326C9.89222 39.361 9.90219 39.3985 9.91969 39.4359C9.93718 39.4734 9.95473 39.5109 9.97472 39.5509C10.0022 39.6034 10.0247 39.6559 10.0472 39.7084C10.0697 39.7609 10.0822 39.8133 10.0872 39.8633C10.0922 39.9158 10.0872 39.9658 10.0672 40.0158C10.0472 40.0658 10.0123 40.1133 9.95727 40.1582C9.89979 40.2057 9.84226 40.2382 9.78228 40.2507C9.72229 40.2632 9.66482 40.2657 9.60984 40.2507C9.55236 40.2382 9.4974 40.2132 9.44741 40.1782C9.39493 40.1432 9.34742 40.0983 9.30243 40.0458C9.25245 39.9858 9.2099 39.9258 9.17991 39.8633C9.14742 39.8008 9.12248 39.7409 9.10498 39.6834L9.23239 39.5759C9.25238 39.6384 9.27488 39.7009 9.30487 39.7609C9.33487 39.8208 9.37234 39.8783 9.41983 39.9358C9.45482 39.9783 9.49235 40.0108 9.52734 40.0358C9.56233 40.0583 9.5973 40.0758 9.63229 40.0808C9.66728 40.0883 9.69975 40.0858 9.73224 40.0758C9.76473 40.0658 9.79731 40.0483 9.82731 40.0233L9.82474 40.0258Z" fill="white"/>
<path d="M7.55518 37.5789L8.67485 36.9041L8.30496 36.2893L8.44249 36.2068L8.90488 36.9741L7.64524 37.7313L7.55273 37.5789H7.55518Z" fill="white"/>
<path d="M8.05287 35.4944L6.46837 35.5794L6.40332 35.4394L7.47552 34.2698L7.55802 34.4447L7.23304 34.7921L7.49553 35.347L7.97037 35.317L8.05287 35.4919V35.4944ZM6.64324 35.4144C6.83569 35.3945 7.01316 35.382 7.17312 35.372L7.32054 35.362L7.11308 34.9221L7.01069 35.0321C6.89822 35.152 6.7757 35.277 6.63824 35.4119V35.4169L6.64324 35.4144Z" fill="white"/>
<path d="M6.50823 33.4602L7.08313 33.2602L7.14305 33.4302L5.756 33.915L5.63104 33.5551C5.61104 33.4951 5.59356 33.4427 5.58357 33.3977C5.57357 33.3527 5.56605 33.3127 5.56355 33.2727C5.55605 33.1677 5.57604 33.0778 5.62103 33.0053C5.66602 32.9328 5.73596 32.8778 5.83093 32.8453C5.88591 32.8253 5.94093 32.8178 5.99092 32.8203C6.0409 32.8203 6.08835 32.8353 6.13333 32.8553C6.17582 32.8753 6.2183 32.9053 6.25329 32.9453C6.29078 32.9828 6.32331 33.0278 6.3508 33.0803H6.3558L6.80562 32.4604L6.86567 32.6304L6.44074 33.2577L6.51323 33.4627L6.50823 33.4602ZM5.8485 33.6901L6.3558 33.5126L6.29833 33.3452C6.28083 33.2927 6.26335 33.2502 6.24585 33.2152C6.23085 33.1802 6.21087 33.1502 6.19337 33.1228C6.15589 33.0703 6.11083 33.0353 6.06084 33.0178C6.01086 33.0003 5.95339 33.0028 5.88841 33.0228C5.82843 33.0453 5.786 33.0753 5.761 33.1178C5.73601 33.1602 5.72348 33.2102 5.72598 33.2677C5.72598 33.2952 5.73099 33.3277 5.74099 33.3627C5.75099 33.3977 5.76352 33.4427 5.78102 33.4952L5.8485 33.6876V33.6901Z" fill="white"/>
<path d="M5.73097 30.7036L5.80589 31.031L5.64847 31.0685L5.53351 30.5686L6.22582 30.4087C6.23831 30.4212 6.25085 30.4412 6.26584 30.4687C6.28084 30.4962 6.29576 30.5262 6.31075 30.5636C6.32575 30.6011 6.34079 30.6386 6.35578 30.6786C6.37078 30.7211 6.38081 30.7611 6.39081 30.8036C6.4183 30.926 6.42832 31.0385 6.41583 31.141C6.40333 31.2435 6.37581 31.3309 6.32833 31.4109C6.28084 31.4884 6.2183 31.5534 6.13832 31.6083C6.05834 31.6608 5.9634 31.7008 5.85593 31.7258C5.73846 31.7533 5.62848 31.7583 5.52351 31.7458C5.41854 31.7333 5.32603 31.6983 5.24356 31.6458C5.16108 31.5934 5.08864 31.5234 5.02865 31.4359C4.96867 31.3484 4.92618 31.246 4.89869 31.1285C4.89119 31.0985 4.88623 31.066 4.88123 31.0335C4.87624 31.001 4.87373 30.971 4.87123 30.941C4.87123 30.911 4.86873 30.8836 4.87123 30.8586C4.87123 30.8336 4.87367 30.8111 4.87867 30.7936L5.03366 30.7586C5.02866 30.8036 5.02866 30.8561 5.03366 30.9135C5.03616 30.971 5.04618 31.0285 5.05867 31.0835C5.07867 31.166 5.10863 31.2385 5.14861 31.3084C5.1911 31.3759 5.24356 31.4334 5.30604 31.4784C5.36852 31.5234 5.44109 31.5534 5.52607 31.5709C5.61104 31.5884 5.70098 31.5834 5.80345 31.5609C5.90342 31.5384 5.98584 31.5034 6.05082 31.4584C6.1158 31.4134 6.16587 31.3609 6.20336 31.2984C6.23835 31.236 6.25835 31.166 6.26584 31.0885C6.27334 31.011 6.26576 30.926 6.24327 30.8386C6.23327 30.7961 6.22336 30.7561 6.20837 30.7186C6.19587 30.6786 6.18089 30.6461 6.1659 30.6161L5.73841 30.7136L5.73097 30.7036Z" fill="white"/>
<path d="M5.91342 29.2065L5.82092 28.4592L5.9809 28.4392L6.09586 29.3639L4.63876 29.5439L4.52881 28.6591L4.6888 28.6392L4.7763 29.3464L5.24613 29.289L5.16864 28.6591L5.32863 28.6392L5.40612 29.269L5.91342 29.2065Z" fill="white"/>
<path d="M4.57096 25.6299C4.57096 25.7124 4.57855 25.7899 4.60354 25.8624C4.62853 25.9348 4.66351 25.9973 4.71349 26.0523C4.76348 26.1073 4.82596 26.1498 4.90094 26.1823C4.97592 26.2148 5.06591 26.2322 5.16588 26.2347C5.26585 26.2372 5.35571 26.2272 5.43069 26.1998C5.50567 26.1748 5.56815 26.1348 5.61814 26.0848C5.66812 26.0348 5.7056 25.9723 5.7331 25.8998C5.75809 25.8274 5.77319 25.7474 5.77569 25.6574C5.77569 25.6324 5.77569 25.6074 5.77569 25.5799C5.77569 25.5524 5.77062 25.525 5.76812 25.4975C5.76312 25.47 5.75811 25.4425 5.75311 25.415C5.74811 25.3875 5.74066 25.365 5.73566 25.345L5.89308 25.35C5.90808 25.3925 5.92061 25.445 5.92811 25.5025C5.93561 25.5599 5.93805 25.6174 5.93555 25.6774C5.93305 25.7999 5.91062 25.9073 5.87563 25.9998C5.83814 26.0923 5.78819 26.1723 5.72321 26.2322C5.65823 26.2947 5.5782 26.3397 5.48573 26.3697C5.39326 26.3997 5.28822 26.4122 5.17076 26.4097C5.05579 26.4072 4.95082 26.3872 4.85835 26.3472C4.76338 26.3097 4.68347 26.2572 4.61599 26.1898C4.54851 26.1223 4.49849 26.0423 4.461 25.9473C4.42351 25.8524 4.40853 25.7474 4.41353 25.6324C4.41353 25.6024 4.41598 25.5724 4.42097 25.5424C4.42597 25.5125 4.42855 25.485 4.43354 25.4575C4.43854 25.43 4.44606 25.405 4.45356 25.3825C4.46106 25.36 4.46851 25.34 4.47601 25.3225L4.63344 25.3275C4.61844 25.3725 4.60353 25.42 4.59353 25.4725C4.58104 25.525 4.57602 25.5774 4.57352 25.6299H4.57096Z" fill="white"/>
<path d="M5.97824 24.5176L4.60107 23.7278L4.62109 23.5754L6.15812 23.178L6.1331 23.3704L5.67071 23.4854L5.58834 24.0952L6.00314 24.3276L5.97824 24.5176ZM4.83855 23.6853C5.011 23.7753 5.16843 23.8603 5.30839 23.9378L5.43836 24.0102L5.50328 23.5279L5.3583 23.5654C5.19835 23.6054 5.026 23.6428 4.83855 23.6803V23.6853Z" fill="white"/>
<path d="M6.38312 22.111L6.34065 22.2859L4.91357 21.9385L5.00852 21.5436C5.02351 21.4836 5.03856 21.4312 5.05855 21.3837C5.07855 21.3362 5.10104 21.2912 5.12604 21.2537C5.17852 21.1762 5.23844 21.1212 5.31092 21.0938C5.3834 21.0663 5.46337 21.0613 5.55084 21.0813C5.62332 21.0987 5.68336 21.1287 5.73084 21.1712C5.77833 21.2137 5.81586 21.2662 5.83836 21.3312C5.86085 21.3962 5.87326 21.4686 5.87326 21.5511C5.87326 21.6336 5.86079 21.7261 5.83579 21.826C5.8233 21.8735 5.81082 21.9235 5.79333 21.9735L6.38068 22.116L6.38312 22.111ZM5.6359 21.9285C5.6459 21.906 5.65342 21.881 5.66092 21.856C5.66841 21.831 5.67581 21.806 5.68081 21.7836C5.7008 21.7011 5.71089 21.6311 5.71339 21.5686C5.71339 21.5086 5.70831 21.4561 5.69082 21.4137C5.67582 21.3712 5.65088 21.3387 5.62089 21.3137C5.5909 21.2887 5.55092 21.2712 5.50593 21.2612C5.45095 21.2487 5.40094 21.2512 5.36095 21.2687C5.32097 21.2862 5.28343 21.3187 5.25344 21.3637C5.23345 21.3912 5.21853 21.4237 5.20353 21.4636C5.18853 21.5036 5.176 21.5486 5.1635 21.6011L5.11347 21.8035L5.63834 21.931L5.6359 21.9285Z" fill="white"/>
<path d="M13.4788 43.2499L14.0186 43.6747L13.3313 43.6447L13.0939 44.2896L12.909 43.6273L12.2241 43.5998L12.7965 43.2199L12.609 42.5601L13.1463 42.9874L13.7187 42.605L13.4788 43.2499Z" fill="white"/>
<path d="M6.44804 17.8871L7.41028 17.8396L6.65794 18.4394L7.00037 19.3392L6.19555 18.8093L5.44576 19.4117L5.7007 18.4844L4.896 17.9571L5.85812 17.9146L6.11061 16.9849L6.44804 17.8871Z" fill="white"/>
<path d="M39.0013 43.2499L38.4614 43.6747L39.1463 43.6447L39.3836 44.2896L39.5687 43.6273L40.256 43.5998L39.681 43.2199L39.8685 42.5601L39.3312 42.9874L38.7588 42.605L39.0013 43.2499Z" fill="white"/>
<path d="M46.0291 17.8871L45.0669 17.8396L45.8217 18.4394L45.4793 19.3392L46.2815 18.8093L47.0337 19.4117L46.7764 18.4844L47.5836 17.9571L46.6189 17.9146L46.3664 16.9849L46.0291 17.8871Z" fill="white"/>
<path d="M45.9572 22.2155C45.9697 22.268 45.9846 22.313 46.0071 22.3505C46.0271 22.388 46.0521 22.4205 46.0821 22.4455C46.1121 22.4705 46.142 22.4905 46.1795 22.503C46.2145 22.5155 46.252 22.523 46.2945 22.5255C46.3195 22.5255 46.347 22.5255 46.377 22.5255C46.4069 22.523 46.4345 22.518 46.462 22.5105L47.3517 22.313L47.3892 22.488L46.5045 22.6829C46.472 22.6904 46.4345 22.6954 46.3995 22.7004C46.362 22.7054 46.327 22.7079 46.2945 22.7054C46.2395 22.7054 46.1846 22.6929 46.1346 22.6754C46.0846 22.6579 46.0371 22.6304 45.9946 22.5954C45.9521 22.5605 45.9146 22.513 45.8821 22.4555C45.8496 22.398 45.8247 22.328 45.8072 22.248C45.7897 22.1681 45.7822 22.0981 45.7872 22.0356C45.7922 21.9731 45.8046 21.9156 45.8246 21.8681C45.8446 21.8182 45.8746 21.7757 45.9096 21.7407C45.9446 21.7057 45.9871 21.6732 46.0321 21.6482C46.0646 21.6307 46.1021 21.6132 46.142 21.6007C46.182 21.5882 46.2221 21.5757 46.2596 21.5682L47.1443 21.3733L47.1818 21.5482L46.292 21.7457C46.2595 21.7532 46.227 21.7632 46.1945 21.7757C46.162 21.7882 46.132 21.8032 46.107 21.8182C46.0445 21.8582 45.9971 21.9131 45.9696 21.9781C45.9421 22.0456 45.9396 22.1256 45.9596 22.223L45.9572 22.2155Z" fill="white"/>
<path d="M47.2092 23.8699C47.1667 23.8749 47.1316 23.8874 47.1067 23.9074C47.0817 23.9274 47.0592 23.9549 47.0442 23.9849C47.0292 24.0149 47.0192 24.0524 47.0117 24.0924C47.0042 24.1324 46.9992 24.1748 46.9917 24.2173C46.9842 24.2748 46.9742 24.3323 46.9642 24.3898C46.9542 24.4473 46.9368 24.4972 46.9118 24.5447C46.8868 24.5922 46.8517 24.6297 46.8093 24.6622C46.7643 24.6947 46.7043 24.7147 46.6318 24.7222C46.5568 24.7322 46.4894 24.7222 46.4319 24.7022C46.3744 24.6797 46.3244 24.6447 46.2819 24.5997C46.2419 24.5522 46.2094 24.4947 46.1844 24.4298C46.1594 24.3623 46.142 24.2873 46.132 24.2048C46.127 24.1673 46.127 24.1274 46.127 24.0874C46.127 24.0474 46.127 24.0074 46.1345 23.9724C46.1395 23.9349 46.1445 23.9024 46.152 23.8724C46.1595 23.8424 46.1669 23.8174 46.1744 23.7999L46.337 23.7825C46.327 23.8099 46.317 23.8399 46.312 23.8749C46.3045 23.9099 46.2994 23.9449 46.2944 23.9799C46.2894 24.0149 46.2894 24.0524 46.2894 24.0874C46.2894 24.1224 46.2894 24.1573 46.2944 24.1873C46.2994 24.2373 46.3094 24.2873 46.3244 24.3323C46.3394 24.3773 46.3569 24.4173 46.3819 24.4498C46.4069 24.4823 46.4369 24.5072 46.4744 24.5222C46.5119 24.5372 46.5569 24.5447 46.6094 24.5372C46.6518 24.5322 46.6868 24.5197 46.7143 24.4972C46.7418 24.4748 46.7618 24.4498 46.7768 24.4173C46.7918 24.3848 46.8043 24.3498 46.8093 24.3098C46.8167 24.2698 46.8218 24.2273 46.8293 24.1823C46.8368 24.1249 46.8443 24.0674 46.8543 24.0099C46.8643 23.9524 46.8818 23.9024 46.9068 23.8574C46.9317 23.8124 46.9642 23.7725 47.0067 23.7425C47.0492 23.7125 47.1067 23.6925 47.1791 23.685C47.2541 23.6775 47.3191 23.685 47.3766 23.705C47.4341 23.725 47.4816 23.7575 47.5216 23.7999C47.5616 23.8424 47.594 23.8924 47.6165 23.9524C47.639 24.0099 47.6565 24.0749 47.664 24.1423C47.674 24.2198 47.674 24.2948 47.664 24.3623C47.654 24.4298 47.644 24.4947 47.6265 24.5547L47.4617 24.5722C47.4816 24.5097 47.4941 24.4448 47.5041 24.3773C47.5141 24.3123 47.5141 24.2423 47.5041 24.1673C47.4991 24.1124 47.4866 24.0649 47.4691 24.0249C47.4516 23.9849 47.4316 23.9524 47.4066 23.9299C47.3816 23.9049 47.3516 23.8874 47.3191 23.8799C47.2866 23.8699 47.2492 23.8674 47.2117 23.8724L47.2092 23.8699Z" fill="white"/>
<path d="M47.7515 27.1642L46.4444 27.1117L46.4144 27.829L46.252 27.8215L46.2894 26.9268L47.7591 26.9867L47.7515 27.1642Z" fill="white"/>
<path d="M46.1895 28.626L47.5591 29.4258L47.5367 29.5783L45.9971 29.9631L46.0247 29.7707L46.4869 29.6582L46.5744 29.0509L46.1621 28.8135L46.1895 28.6235V28.626ZM47.3218 29.4683C47.1493 29.3783 46.9943 29.2933 46.8544 29.2109L46.7244 29.1359L46.6569 29.6182L46.8019 29.5833C46.9618 29.5458 47.1343 29.5083 47.3218 29.4708V29.4658V29.4683Z" fill="white"/>
<path d="M46.3567 31.1828L45.7669 31.0328L45.8119 30.8604L47.2365 31.2202L47.1441 31.5901C47.1291 31.6526 47.1115 31.7051 47.0965 31.7476C47.0815 31.7901 47.064 31.8276 47.044 31.8626C46.9915 31.955 46.9266 32.02 46.8491 32.055C46.7716 32.09 46.6842 32.0975 46.5867 32.0725C46.5293 32.0575 46.4792 32.035 46.4392 32.005C46.3992 31.975 46.3668 31.94 46.3418 31.8976C46.3168 31.8551 46.2992 31.8101 46.2892 31.7576C46.2792 31.7051 46.2768 31.6501 46.2818 31.5901H46.2768L45.562 31.8576L45.6069 31.6826L46.3068 31.3927L46.3593 31.1828H46.3567ZM47.0366 31.3527L46.5143 31.2202L46.4717 31.3927C46.4592 31.4452 46.4493 31.4927 46.4418 31.5302C46.4368 31.5676 46.4342 31.6051 46.4342 31.6351C46.4367 31.7001 46.4542 31.7551 46.4867 31.7976C46.5192 31.8401 46.5667 31.8701 46.6342 31.8876C46.6967 31.9025 46.7491 31.9001 46.7941 31.8776C46.8391 31.8576 46.8766 31.8201 46.9066 31.7701C46.9216 31.7476 46.9341 31.7176 46.9466 31.6826C46.9591 31.6476 46.9715 31.6026 46.9865 31.5477L47.0366 31.3502V31.3527Z" fill="white"/>
<path d="M45.4895 33.9095L45.6069 33.5946L45.7594 33.6496L45.582 34.132L44.9146 33.8845C44.9146 33.867 44.9146 33.8421 44.9146 33.8121C44.9146 33.7821 44.9221 33.7471 44.9271 33.7096C44.9346 33.6721 44.9421 33.6321 44.9521 33.5896C44.9621 33.5471 44.9771 33.5072 44.9896 33.4672C45.0346 33.3497 45.0871 33.2497 45.1546 33.1722C45.2196 33.0948 45.2945 33.0348 45.3745 32.9948C45.4545 32.9548 45.5444 32.9348 45.6419 32.9348C45.7394 32.9348 45.8369 32.9548 45.9418 32.9923C46.0543 33.0348 46.1493 33.0898 46.2292 33.1573C46.3092 33.2247 46.3691 33.3047 46.4091 33.3947C46.4491 33.4847 46.4716 33.5821 46.4716 33.6896C46.4716 33.7946 46.4517 33.9045 46.4117 34.017C46.4017 34.047 46.3892 34.077 46.3742 34.107C46.3617 34.137 46.3467 34.1645 46.3317 34.1895C46.3167 34.2144 46.3017 34.2394 46.2867 34.2594C46.2717 34.2794 46.2592 34.2969 46.2442 34.3119L46.0967 34.2569C46.1267 34.2219 46.1542 34.177 46.1842 34.127C46.2142 34.077 46.2367 34.0245 46.2567 33.972C46.2867 33.8945 46.3017 33.8146 46.3042 33.7346C46.3067 33.6546 46.2942 33.5796 46.2667 33.5072C46.2392 33.4347 46.1943 33.3697 46.1343 33.3097C46.0743 33.2497 45.9943 33.2022 45.8968 33.1672C45.8018 33.1323 45.7144 33.1148 45.6344 33.1148C45.5545 33.1148 45.4844 33.1323 45.4194 33.1647C45.3544 33.1972 45.2995 33.2447 45.252 33.3072C45.2045 33.3697 45.1645 33.4422 45.132 33.5296C45.117 33.5696 45.1045 33.6096 45.0946 33.6496C45.0846 33.6896 45.077 33.7271 45.0745 33.7596L45.4845 33.912L45.4895 33.9095Z" fill="white"/>
<path d="M44.5146 35.0618L44.1796 35.7366L44.0347 35.6641L44.4496 34.8293L45.7667 35.4817L45.3718 36.2814L45.2268 36.2089L45.5442 35.5691L45.1194 35.3592L44.837 35.9265L44.6921 35.8541L44.9745 35.2867L44.5171 35.0593L44.5146 35.0618Z" fill="white"/>
<path d="M43.6625 38.7859C43.71 38.7184 43.7424 38.6484 43.7624 38.5734C43.7824 38.5009 43.7875 38.426 43.775 38.3535C43.7625 38.281 43.7349 38.211 43.6899 38.141C43.6449 38.0711 43.58 38.0086 43.4975 37.9486C43.415 37.8911 43.335 37.8511 43.2576 37.8311C43.1801 37.8111 43.1076 37.8086 43.0377 37.8236C42.9677 37.8386 42.9027 37.8686 42.8402 37.9136C42.7777 37.9586 42.7227 38.0186 42.6702 38.0936C42.6552 38.1136 42.6427 38.136 42.6277 38.1585C42.6127 38.181 42.6003 38.2085 42.5878 38.2335C42.5753 38.2585 42.5653 38.2835 42.5553 38.3085C42.5453 38.3335 42.5379 38.356 42.5304 38.3785L42.4004 38.2885C42.4104 38.2435 42.4303 38.196 42.4553 38.1435C42.4803 38.0911 42.5103 38.0411 42.5452 37.9911C42.6152 37.8911 42.6928 37.8136 42.7753 37.7537C42.8578 37.6962 42.9427 37.6587 43.0327 37.6437C43.1226 37.6287 43.2126 37.6337 43.3076 37.6587C43.4026 37.6837 43.4951 37.7312 43.5926 37.7986C43.685 37.8636 43.7624 37.9386 43.8199 38.0236C43.8774 38.1086 43.9174 38.196 43.9349 38.2885C43.9524 38.381 43.9523 38.4785 43.9299 38.5759C43.9074 38.6734 43.8624 38.7709 43.7949 38.8658C43.7774 38.8908 43.76 38.9158 43.74 38.9383C43.72 38.9608 43.7 38.9833 43.6825 39.0033C43.6625 39.0233 43.6425 39.0408 43.625 39.0558C43.605 39.0708 43.59 39.0833 43.5725 39.0933L43.4426 39.0033C43.4801 38.9758 43.5175 38.9433 43.5575 38.9058C43.595 38.8683 43.63 38.8283 43.6625 38.7859Z" fill="white"/>
<path d="M41.878 38.9304L42.5904 40.3475L42.4878 40.465L40.9883 39.9476L41.1158 39.8002L41.5632 39.9601L41.9681 39.4978L41.7506 39.0754L41.878 38.9304ZM42.3679 40.255C42.2729 40.0851 42.1905 39.9276 42.1155 39.7852L42.048 39.6527L41.7281 40.0201L41.868 40.0701C42.023 40.1251 42.188 40.1876 42.3654 40.26H42.3679V40.255Z" fill="white"/>
<path d="M40.2134 40.7177L40.3433 40.5952L41.3431 41.6724L41.0455 41.9498C41.0005 41.9923 40.9581 42.0273 40.9156 42.0573C40.8731 42.0873 40.8307 42.1098 40.7882 42.1298C40.7032 42.1673 40.6207 42.1773 40.5457 42.1623C40.4707 42.1473 40.4008 42.1073 40.3383 42.0398C40.2884 41.9848 40.2533 41.9273 40.2358 41.8648C40.2183 41.8024 40.2183 41.7399 40.2358 41.6724C40.2508 41.6074 40.2808 41.5374 40.3283 41.47C40.3758 41.4025 40.4358 41.3325 40.5108 41.2625C40.5458 41.23 40.5857 41.195 40.6257 41.1626L40.2134 40.7202V40.7177ZM40.7357 41.28C40.7157 41.295 40.6956 41.31 40.6756 41.3275C40.6557 41.345 40.6357 41.36 40.6207 41.3775C40.5583 41.435 40.5107 41.4875 40.4758 41.5374C40.4408 41.5874 40.4183 41.6349 40.4083 41.6774C40.3983 41.7224 40.3982 41.7624 40.4107 41.7999C40.4232 41.8374 40.4458 41.8723 40.4758 41.9073C40.5157 41.9498 40.5557 41.9748 40.6007 41.9823C40.6457 41.9898 40.6931 41.9823 40.7431 41.9648C40.7731 41.9523 40.8056 41.9323 40.8406 41.9098C40.8731 41.8848 40.9106 41.8549 40.9506 41.8174L41.103 41.6774L40.7357 41.2825V41.28Z" fill="white"/>
<path d="M38.2195 20.379H38.6193V19.8691H32.4761V20.3515H33.056C33.6208 20.3515 34.0782 20.8089 34.0782 21.3737V25.3975H29.7745V21.5187C29.7745 20.8963 30.2793 20.3915 30.9016 20.3915H31.379V19.8691H25.2932V20.349H25.6481C26.2979 20.349 26.8252 20.8763 26.8252 21.5262V30.4036C26.8252 31.0834 26.273 31.6357 25.5932 31.6357H25.2982V32.1231H31.399V31.6607H30.9791C30.3318 31.6607 29.8044 31.1359 29.8044 30.4861V26.1973H34.0657V30.5611C34.0657 31.1634 33.5783 31.6507 32.9759 31.6507H32.4636V32.1206H38.6169V31.6332H38.1045C37.5171 31.6332 37.0398 31.1559 37.0398 30.5686V21.5537C37.0398 20.9038 37.5672 20.379 38.2145 20.379H38.2195Z" fill="white"/>
<path d="M21.0693 25.58V25.4025C22.3689 25.1651 23.3912 24.2979 23.5886 23.2807C23.8685 21.8461 22.5214 20.0191 20.3345 19.8841C18.0152 19.8791 15.6958 19.8741 13.3765 19.8691V20.334H13.6914C14.3887 20.334 14.9535 20.8988 14.9535 21.5961V30.5461C14.9535 31.1459 14.4662 31.6307 13.8689 31.6307H13.3765V32.1206H19.5147C19.6772 32.1331 22.4739 32.2906 23.7236 30.3336C23.871 30.1012 24.4058 29.2664 24.2259 28.2317C24.0009 26.9371 22.7538 25.8624 21.0667 25.5775L21.0693 25.58ZM18.1951 20.5265C18.3551 20.419 18.5376 20.394 18.6575 20.379C19.2699 20.2965 19.7571 20.6314 19.8271 20.6789C20.5519 21.1938 20.6494 22.176 20.6869 22.5659C20.7068 22.7783 20.8469 24.2854 19.9346 24.9302C19.5572 25.1951 19.0524 25.2801 18.7475 25.3276C18.3851 25.3875 18.0777 25.385 17.8627 25.3726C17.8502 23.988 17.8227 22.9732 17.7927 22.141C17.7727 21.6361 17.7378 20.8389 18.2001 20.529L18.1951 20.5265ZM21.1468 29.0865C21.1043 29.5239 20.9918 30.6285 20.1471 31.2084C20.0671 31.2634 19.4997 31.6407 18.7849 31.5458C18.645 31.5283 18.4326 31.5008 18.2476 31.3783C17.7103 31.0284 17.7527 30.1312 17.7752 29.5638C17.8127 28.6291 17.8427 27.4869 17.8577 25.9299C18.1101 25.9149 18.4675 25.9124 18.8899 25.9799C19.2448 26.0349 19.8322 26.1298 20.2721 26.4272C21.3343 27.152 21.1717 28.8466 21.1492 29.0865H21.1468Z" fill="white"/>
</svg>
