<svg width="52" height="52" viewBox="0 0 52 52" fill="none" xmlns="http://www.w3.org/2000/svg">
<path d="M26 52C40.3594 52 52 40.3594 52 26C52 11.6406 40.3594 0 26 0C11.6406 0 0 11.6406 0 26C0 40.3594 11.6406 52 26 52Z" fill="#F6F6F6"/>
<path d="M26.0002 44.1522C15.9906 44.1522 7.8479 36.0095 7.8479 25.9999C7.8479 15.9903 15.9906 7.84766 26.0002 7.84766C36.0098 7.84766 44.1524 15.9903 44.1524 25.9999C44.1524 36.0095 36.0098 44.1522 26.0002 44.1522ZM26.0002 8.35251C16.2705 8.35251 8.35275 16.2677 8.35275 25.9999C8.35275 35.7321 16.2705 43.6473 26.0002 43.6473C35.7299 43.6473 43.6476 35.7296 43.6476 25.9999C43.6476 16.2702 35.7299 8.35251 26.0002 8.35251Z" fill="#FC000C"/>
<path d="M26 50.6203C22.6784 50.6203 19.4544 49.968 16.4152 48.6834C13.4836 47.4437 10.8493 45.6693 8.5925 43.4099C6.33315 41.1506 4.55866 38.5188 3.31902 35.5872C2.03439 32.548 1.38208 29.3215 1.38208 26.0024C1.38208 22.6834 2.03439 19.4568 3.31902 16.4177C4.55866 13.486 6.33315 10.8518 8.5925 8.59494C10.8518 6.33559 13.4836 4.56111 16.4152 3.32146C19.4544 2.03683 22.6809 1.38452 26 1.38452C29.319 1.38452 32.5456 2.03683 35.5847 3.32146C38.5164 4.56111 41.1506 6.33559 43.4075 8.59494C45.6668 10.8543 47.4413 13.486 48.6809 16.4177C49.9656 19.4568 50.6179 22.6834 50.6179 26.0024C50.6179 29.3215 49.9656 32.548 48.6809 35.5872C47.4413 38.5188 45.6668 41.1531 43.4075 43.4099C41.1481 45.6693 38.5164 47.4437 35.5847 48.6834C32.5456 49.968 29.319 50.6203 26 50.6203ZM26 1.74692C22.7284 1.74692 19.5518 2.38923 16.5577 3.65637C13.6685 4.87851 11.0768 6.62551 8.84993 8.84987C6.62557 11.0742 4.87607 13.6685 3.65642 16.5576C2.38929 19.5518 1.74697 22.7284 1.74697 25.9999C1.74697 29.2715 2.38929 32.4481 3.65642 35.4422C4.87857 38.3314 6.62557 40.9231 8.84993 43.15C11.0743 45.3743 13.6685 47.1238 16.5577 48.3435C19.5518 49.6106 22.7284 50.2529 26 50.2529C29.2715 50.2529 32.4481 49.6106 35.4423 48.3435C38.3314 47.1213 40.9232 45.3743 43.15 43.15C45.3744 40.9256 47.1239 38.3314 48.3435 35.4422C49.6107 32.4481 50.253 29.2715 50.253 25.9999C50.253 22.7284 49.6107 19.5518 48.3435 16.5576C47.1214 13.6685 45.3744 11.0767 43.15 8.84987C40.9257 6.62551 38.3314 4.87601 35.4423 3.65637C32.4481 2.38923 29.2715 1.74692 26 1.74692Z" fill="#FC000C"/>
<path d="M8.78754 13.7961C8.925 13.881 9.04247 13.981 9.14244 14.091C9.24241 14.2009 9.31739 14.3209 9.37237 14.4509C9.42486 14.5808 9.45485 14.7183 9.46235 14.8657C9.46735 15.0132 9.44735 15.1657 9.39987 15.3281C9.37237 15.4206 9.33488 15.5156 9.2849 15.613C9.23741 15.7105 9.17743 15.8105 9.11245 15.9179L8.77754 16.4503L6.42822 14.9707L6.76563 14.4334C6.83311 14.3259 6.90059 14.2309 6.96557 14.146C7.03055 14.061 7.10053 13.986 7.17301 13.921C7.29797 13.8085 7.42793 13.7236 7.5604 13.6636C7.69286 13.6036 7.82782 13.5711 7.96528 13.5636C8.10274 13.5561 8.2402 13.5711 8.37766 13.6136C8.51512 13.6536 8.65258 13.7186 8.79004 13.8036L8.78754 13.7961ZM8.60759 14.081C8.38266 13.9385 8.16772 13.8735 7.96278 13.8835C7.76034 13.8935 7.57039 13.976 7.39544 14.1235C7.32796 14.1809 7.26298 14.2509 7.2005 14.3334C7.13802 14.4159 7.07054 14.5133 7.00056 14.6233L6.8631 14.8433L8.69507 15.9979L8.83253 15.778C8.90251 15.668 8.95999 15.5655 9.00748 15.4731C9.05497 15.3806 9.08995 15.2906 9.11245 15.2056C9.16993 14.9832 9.15994 14.7758 9.07496 14.5833C8.99248 14.3909 8.83503 14.2234 8.60759 14.081Z" fill="#FC000C"/>
<path d="M11.1492 13.1063L9.06982 11.2668L9.29476 11.0144L11.3742 12.8539L11.1492 13.1063Z" fill="#FC000C"/>
<path d="M13.4286 9.42727L12.9387 9.82715L12.7463 9.59222L13.4986 8.9774L14.3483 10.0171C14.3358 10.0471 14.3133 10.0871 14.2783 10.1346C14.2458 10.182 14.2059 10.2345 14.1584 10.2895C14.1109 10.3445 14.0584 10.402 14.0009 10.462C13.9434 10.5195 13.8809 10.5744 13.821 10.6269C13.636 10.7769 13.4536 10.8843 13.2711 10.9493C13.0887 11.0143 12.9137 11.0393 12.7413 11.0243C12.5688 11.0093 12.4064 10.9568 12.2489 10.8669C12.0915 10.7744 11.9465 10.6494 11.814 10.487C11.6716 10.312 11.5666 10.1296 11.5041 9.94212C11.4416 9.75467 11.4192 9.56723 11.4366 9.38228C11.4566 9.19733 11.5166 9.01739 11.6166 8.84244C11.7166 8.66749 11.854 8.51003 12.029 8.36757C12.0765 8.33008 12.124 8.2926 12.1739 8.25761C12.2239 8.22262 12.2739 8.19012 12.3214 8.16263C12.3689 8.13514 12.4164 8.11015 12.4614 8.09015C12.5063 8.07016 12.5438 8.05516 12.5788 8.04517L12.7688 8.2776C12.6863 8.30759 12.5988 8.35008 12.5038 8.40506C12.4089 8.46005 12.3189 8.52003 12.2364 8.58751C12.114 8.68748 12.014 8.79995 11.9315 8.92741C11.8515 9.05488 11.799 9.18984 11.7766 9.33479C11.7541 9.47975 11.7616 9.62721 11.804 9.78217C11.8465 9.93712 11.929 10.0896 12.054 10.242C12.1764 10.392 12.3014 10.502 12.4314 10.5769C12.5613 10.6519 12.6938 10.6919 12.8287 10.6994C12.9637 10.7069 13.0987 10.6844 13.2361 10.6294C13.3736 10.5744 13.5086 10.492 13.641 10.382C13.7035 10.332 13.761 10.277 13.816 10.222C13.8709 10.1671 13.9159 10.1146 13.9534 10.0646L13.4311 9.42477L13.4286 9.42727Z" fill="#FC000C"/>
<path d="M16.0404 9.03983L14.6533 6.63553L14.9457 6.46558L16.3328 8.86988L16.0404 9.03983Z" fill="#FC000C"/>
<path d="M19.0021 7.61532L18.6872 7.73778L17.7875 5.43595L16.9227 5.77335L16.8127 5.48843L18.8547 4.69116L18.9646 4.97608L18.0999 5.31348L18.9996 7.61532H19.0021Z" fill="#FC000C"/>
<path d="M20.9866 6.93554L21.569 3.99639L21.8564 3.94141L23.4934 6.45068L23.1335 6.52066L22.6487 5.76338L21.509 5.98332L21.3415 6.86806L20.9841 6.93804L20.9866 6.93554ZM21.7914 4.39378C21.7364 4.75617 21.6789 5.08608 21.6214 5.38599L21.569 5.66341L22.4712 5.48846L22.3187 5.25103C22.1513 4.9911 21.9788 4.70369 21.7989 4.39128H21.7914V4.39378Z" fill="#FC000C"/>
<path d="M25.4453 3.56641L25.4853 6.03819L26.8399 6.0157L26.8449 6.32061L25.1529 6.3481L25.1079 3.5739L25.4453 3.56891V3.56641Z" fill="#FC000C"/>
<path d="M30.2512 6.75319L32.1082 4.40137L32.3881 4.48384L32.703 7.46548L32.3506 7.36301L32.2656 6.46827L31.151 6.14586L30.6011 6.85566L30.2512 6.75569V6.75319ZM32.1257 4.85624C31.9107 5.15365 31.7108 5.42357 31.5234 5.6635L31.3509 5.88594L32.2356 6.14087L32.2082 5.86095C32.1782 5.55353 32.1557 5.21863 32.1357 4.85874H32.1282L32.1257 4.85624Z" fill="#FC000C"/>
<path d="M35.4074 6.42571C35.3699 6.49818 35.3549 6.56567 35.3599 6.62815C35.3649 6.69063 35.3849 6.75061 35.4174 6.8056C35.4499 6.86058 35.4949 6.91556 35.5524 6.97055C35.6074 7.02303 35.6673 7.07802 35.7298 7.1305C35.8123 7.20298 35.8948 7.27796 35.9723 7.35294C36.0497 7.42792 36.1122 7.51039 36.1597 7.59787C36.2072 7.68534 36.2322 7.78032 36.2347 7.88279C36.2372 7.98526 36.2072 8.10022 36.1447 8.22519C36.0797 8.35265 35.9972 8.45012 35.9023 8.5201C35.8048 8.58758 35.6998 8.63007 35.5849 8.64507C35.4674 8.66006 35.3449 8.65256 35.2125 8.62257C35.08 8.59258 34.9451 8.5401 34.8051 8.47012C34.7401 8.43763 34.6776 8.40014 34.6151 8.35765C34.5527 8.31516 34.4927 8.27267 34.4402 8.22769C34.3877 8.1827 34.3402 8.14021 34.2977 8.09772C34.2577 8.05524 34.2278 8.01775 34.2078 7.98526L34.3477 7.71034C34.3802 7.75532 34.4202 7.80031 34.4652 7.8478C34.5102 7.89528 34.5602 7.94027 34.6126 7.98276C34.6651 8.02524 34.7201 8.06773 34.7751 8.10522C34.8301 8.14271 34.8851 8.1752 34.9401 8.20269C35.025 8.24768 35.1125 8.28267 35.1975 8.30766C35.2825 8.33266 35.3649 8.34265 35.4424 8.34015C35.5199 8.33765 35.5899 8.31266 35.6548 8.27017C35.7198 8.22769 35.7748 8.1627 35.8223 8.07273C35.8598 7.99775 35.8773 7.93027 35.8698 7.86779C35.8648 7.80531 35.8448 7.74283 35.8098 7.68784C35.7748 7.63036 35.7298 7.57537 35.6748 7.52289C35.6199 7.4704 35.5599 7.41542 35.4949 7.36044C35.4099 7.28796 35.3299 7.21548 35.2525 7.1405C35.175 7.06552 35.1125 6.98554 35.065 6.89807C35.0175 6.8106 34.9925 6.71812 34.99 6.61815C34.9875 6.51818 35.015 6.40821 35.0775 6.28825C35.1425 6.16328 35.22 6.06581 35.3124 6.00083C35.4049 5.93335 35.5049 5.89086 35.6149 5.87337C35.7248 5.85337 35.8373 5.85837 35.9523 5.88086C36.0697 5.90586 36.1847 5.94584 36.2997 6.00583C36.4321 6.07331 36.5471 6.14829 36.6496 6.23326C36.7495 6.31574 36.837 6.40321 36.912 6.49319L36.7695 6.77311C36.6895 6.67813 36.6021 6.58816 36.5071 6.50568C36.4121 6.42321 36.3022 6.34823 36.1797 6.28325C36.0872 6.23576 35.9997 6.20327 35.9198 6.18827C35.8398 6.17328 35.7673 6.17328 35.7023 6.18827C35.6374 6.20327 35.5799 6.23076 35.5299 6.27325C35.4799 6.31574 35.4399 6.36822 35.4049 6.4332L35.4074 6.42571Z" fill="#FC000C"/>
<path d="M38.7913 8.45265C38.7413 8.51763 38.7138 8.58012 38.7063 8.6426C38.6988 8.70508 38.7063 8.76756 38.7313 8.82755C38.7538 8.89003 38.7888 8.95001 38.8338 9.01249C38.8788 9.07497 38.9263 9.13746 38.9787 9.20244C39.0487 9.28991 39.1137 9.37739 39.1762 9.46486C39.2387 9.55484 39.2862 9.64481 39.3161 9.73978C39.3461 9.83476 39.3536 9.93223 39.3386 10.0347C39.3236 10.1372 39.2737 10.2446 39.1862 10.3546C39.0987 10.4696 39.0012 10.5495 38.8938 10.5995C38.7863 10.6495 38.6738 10.672 38.5589 10.6645C38.4414 10.6595 38.3214 10.6295 38.1965 10.5745C38.0715 10.5196 37.949 10.4446 37.8241 10.3496C37.7666 10.3046 37.7116 10.2571 37.6566 10.2046C37.6016 10.1522 37.5517 10.0972 37.5067 10.0447C37.4617 9.98971 37.4242 9.93972 37.3917 9.88974C37.3592 9.83975 37.3367 9.79976 37.3242 9.76477L37.5117 9.51985C37.5367 9.56983 37.5667 9.62232 37.6041 9.6773C37.6416 9.73228 37.6816 9.78477 37.7241 9.83725C37.7691 9.88974 37.8141 9.93972 37.8616 9.98721C37.9091 10.0347 37.959 10.0772 38.004 10.1122C38.0815 10.1722 38.159 10.2221 38.239 10.2621C38.3189 10.3021 38.3964 10.3271 38.4739 10.3371C38.5489 10.3471 38.6238 10.3371 38.6963 10.3071C38.7688 10.2771 38.8338 10.2221 38.8963 10.1422C38.9463 10.0772 38.9762 10.0122 38.9812 9.94722C38.9862 9.88474 38.9787 9.81976 38.9562 9.75728C38.9338 9.6948 38.8988 9.63231 38.8538 9.56983C38.8088 9.50735 38.7588 9.44237 38.7063 9.37739C38.6363 9.29241 38.5689 9.20494 38.5064 9.11746C38.4439 9.02999 38.3964 8.94001 38.3664 8.84754C38.3364 8.75507 38.3289 8.65759 38.3414 8.56012C38.3564 8.46015 38.4039 8.35768 38.4864 8.25021C38.5714 8.13774 38.6663 8.05777 38.7688 8.00778C38.8713 7.9578 38.9787 7.9353 39.0887 7.9353C39.1987 7.9353 39.3086 7.9603 39.4186 8.00528C39.5286 8.05027 39.6361 8.11275 39.7385 8.19023C39.856 8.2802 39.956 8.37518 40.0409 8.47765C40.1259 8.57762 40.1959 8.68009 40.2509 8.78006L40.0609 9.02749C39.9984 8.92002 39.9285 8.81505 39.851 8.71758C39.7735 8.61761 39.6785 8.52513 39.5686 8.44016C39.4861 8.37518 39.4061 8.33019 39.3311 8.3002C39.2562 8.27021 39.1862 8.25771 39.1187 8.26021C39.0512 8.26021 38.9912 8.2802 38.9338 8.31269C38.8763 8.34518 38.8263 8.39017 38.7813 8.44765L38.7913 8.45265Z" fill="#FC000C"/>
<path d="M40.5108 12.2714L41.463 13.3286L41.2356 13.5335L40.0559 12.2264L42.1178 10.3669L43.245 11.6166L43.0176 11.8215L42.1153 10.8218L41.4505 11.4216L42.2528 12.3114L42.0253 12.5163L41.2231 11.6266L40.5058 12.2739L40.5108 12.2714Z" fill="#FC000C"/>
<path d="M42.8452 15.8455L42.6677 15.5581L44.7721 14.2634L44.2848 13.4737L44.5447 13.3137L45.6944 15.1807L45.4344 15.3406L44.9471 14.5509L42.8427 15.8455H42.8452Z" fill="#FC000C"/>
<path d="M20.2241 45.4593C20.3091 45.7118 20.3691 45.8917 20.4016 46.0017H20.4116C20.529 45.9017 20.6715 45.7793 20.8439 45.6393L21.4513 45.1394L22.0861 45.3194L20.6165 46.5015L21.2738 48.3435L20.649 48.1661L20.3691 47.3588C20.2991 47.1614 20.2391 46.9739 20.1816 46.799H20.1716C20.0267 46.9214 19.8742 47.0464 19.7193 47.1738L19.0569 47.7137L18.4321 47.5362L19.9617 46.3166L19.3344 44.5371L19.9692 44.7171L20.2241 45.4593Z" fill="#FC000C"/>
<path d="M26.5574 47.2064C26.5499 47.4438 26.5099 47.6638 26.4374 47.8587C26.365 48.0562 26.26 48.2236 26.125 48.3636C25.9901 48.5035 25.8276 48.611 25.6352 48.6835C25.4427 48.7585 25.2278 48.7909 24.9854 48.7834C24.7429 48.7759 24.528 48.731 24.343 48.646C24.1581 48.561 23.9981 48.446 23.8732 48.2986C23.7482 48.1511 23.6532 47.9762 23.5908 47.7762C23.5283 47.5763 23.5008 47.3564 23.5083 47.1164C23.5158 46.8765 23.5558 46.6591 23.6283 46.4641C23.7007 46.2667 23.8057 46.0992 23.9407 45.9593C24.0756 45.8193 24.2381 45.7118 24.4305 45.6394C24.623 45.5644 24.8379 45.5319 25.0803 45.5394C25.3228 45.5469 25.5377 45.5919 25.7226 45.6768C25.9076 45.7618 26.0675 45.8768 26.1925 46.0242C26.3175 46.1717 26.4124 46.3441 26.4749 46.5466C26.5374 46.7465 26.5649 46.9665 26.5574 47.2064ZM25.9651 47.1914C25.9701 47.0015 25.9526 46.834 25.9101 46.689C25.8676 46.5441 25.8051 46.4241 25.7251 46.3267C25.6452 46.2292 25.5502 46.1542 25.4377 46.1042C25.3253 46.0542 25.2003 46.0267 25.0653 46.0242C24.9304 46.0192 24.8054 46.0392 24.6879 46.0842C24.573 46.1267 24.473 46.1967 24.388 46.2892C24.3031 46.3816 24.2356 46.4991 24.1831 46.6416C24.1331 46.784 24.1031 46.949 24.0981 47.1389C24.0931 47.3289 24.1106 47.4963 24.1531 47.6413C24.1956 47.7862 24.2581 47.9062 24.338 48.0012C24.418 48.0986 24.5155 48.1711 24.628 48.2236C24.7404 48.2736 24.8654 48.3011 25.0004 48.3061C25.1353 48.3111 25.2603 48.2911 25.3752 48.2461C25.4902 48.2011 25.5902 48.1336 25.6752 48.0412C25.7601 47.9487 25.8276 47.8337 25.8801 47.6913C25.9301 47.5488 25.9601 47.3838 25.9651 47.1939V47.1914Z" fill="#FC000C"/>
<path d="M30.5735 47.2764C30.5785 47.0214 30.596 46.744 30.626 46.4441L30.781 44.8596L31.5608 44.6621L32.333 47.6962L31.7782 47.8387L31.3883 46.3016C31.3308 46.0767 31.2733 45.8118 31.2159 45.5094L31.1959 45.5144C31.1909 45.6068 31.1859 45.7118 31.1784 45.8268C31.1709 45.9417 31.1609 46.0592 31.1509 46.1717L30.9584 48.0461L30.601 48.1361L29.5363 46.5816C29.4714 46.4866 29.4089 46.3891 29.3464 46.2916C29.2839 46.1942 29.2289 46.1042 29.1815 46.0242L29.1615 46.0292C29.2514 46.3041 29.3264 46.5616 29.3864 46.804L29.7788 48.3435L29.2239 48.486L28.4517 45.4519L29.2264 45.2544L30.1187 46.5666C30.2686 46.784 30.4161 47.0214 30.5636 47.2789H30.576L30.5735 47.2764Z" fill="#FC000C"/>
<path d="M11.7818 40.7159C11.7443 40.6784 11.7043 40.6509 11.6668 40.6309C11.6294 40.6109 11.5894 40.5984 11.5519 40.5934C11.5144 40.5884 11.4769 40.5909 11.4394 40.5984C11.4019 40.6059 11.3669 40.6209 11.3319 40.6409C11.3094 40.6534 11.287 40.6684 11.2645 40.6884C11.242 40.7084 11.2195 40.7284 11.202 40.7484L10.5672 41.4032L10.4397 41.2782L11.072 40.6259C11.097 40.6009 11.122 40.5759 11.152 40.5534C11.1795 40.5284 11.2095 40.5084 11.237 40.4909C11.2845 40.4609 11.3344 40.441 11.3869 40.426C11.4394 40.411 11.4919 40.4085 11.5494 40.416C11.6044 40.4235 11.6618 40.4409 11.7193 40.4709C11.7768 40.5009 11.8368 40.5459 11.8968 40.6034C11.9543 40.6584 11.9992 40.7159 12.0317 40.7709C12.0642 40.8258 12.0842 40.8808 12.0942 40.9333C12.1042 40.9858 12.1042 41.0383 12.0942 41.0883C12.0842 41.1382 12.0667 41.1857 12.0442 41.2332C12.0267 41.2682 12.0042 41.3007 11.9793 41.3332C11.9543 41.3657 11.9268 41.3982 11.8993 41.4257L11.267 42.078L11.1395 41.953L11.7743 41.2982C11.7968 41.2757 11.8193 41.2482 11.8393 41.2207C11.8593 41.1932 11.8768 41.1632 11.8893 41.1357C11.9193 41.0658 11.9293 40.9958 11.9143 40.9258C11.8993 40.8558 11.8568 40.7859 11.7868 40.7159H11.7818Z" fill="#FC000C"/>
<path d="M9.8274 40.026C9.85989 39.9985 9.88238 39.9685 9.89238 39.936C9.90238 39.9036 9.90488 39.8711 9.89988 39.8361C9.89488 39.8011 9.88488 39.7661 9.86739 39.7286C9.85239 39.6911 9.8324 39.6536 9.8149 39.6136C9.78991 39.5612 9.76492 39.5087 9.74242 39.4562C9.71993 39.4037 9.70743 39.3512 9.70244 39.2987C9.69744 39.2462 9.70244 39.1963 9.72493 39.1438C9.74492 39.0938 9.78241 39.0438 9.8399 38.9963C9.89738 38.9463 9.95736 38.9163 10.0198 38.9038C10.0798 38.8914 10.1423 38.8913 10.2023 38.9088C10.2623 38.9263 10.3223 38.9538 10.3797 38.9963C10.4372 39.0388 10.4922 39.0913 10.5472 39.1538C10.5722 39.1838 10.5947 39.2138 10.6172 39.2487C10.6397 39.2837 10.6597 39.3162 10.6747 39.3487C10.6897 39.3812 10.7046 39.4137 10.7171 39.4412C10.7271 39.4712 10.7346 39.4937 10.7371 39.5137L10.6122 39.6186C10.6047 39.5911 10.5947 39.5587 10.5822 39.5262C10.5697 39.4937 10.5547 39.4612 10.5372 39.4287C10.5197 39.3962 10.5022 39.3662 10.4822 39.3362C10.4622 39.3062 10.4422 39.2787 10.4222 39.2537C10.3897 39.2138 10.3547 39.1788 10.3173 39.1488C10.2798 39.1188 10.2423 39.0963 10.2048 39.0838C10.1673 39.0688 10.1273 39.0663 10.0873 39.0738C10.0473 39.0813 10.0073 39.1013 9.96486 39.1363C9.93237 39.1638 9.90988 39.1938 9.89988 39.2263C9.88988 39.2587 9.88738 39.2912 9.89238 39.3262C9.89738 39.3612 9.90738 39.3987 9.92487 39.4362C9.93987 39.4737 9.95986 39.5112 9.97986 39.5512C10.0073 39.6036 10.0298 39.6561 10.0523 39.7086C10.0748 39.7611 10.0873 39.8136 10.0923 39.8636C10.0973 39.9136 10.0923 39.966 10.0723 40.016C10.0523 40.066 10.0173 40.1135 9.96236 40.1585C9.90488 40.206 9.84739 40.236 9.78741 40.251C9.72993 40.2635 9.66995 40.266 9.61496 40.251C9.55748 40.2385 9.50499 40.2135 9.45251 40.1785C9.40002 40.1435 9.35254 40.0985 9.30755 40.046C9.25757 39.986 9.21508 39.9261 9.18509 39.8636C9.15259 39.8011 9.1276 39.7411 9.11011 39.6836L9.23757 39.5762C9.25756 39.6386 9.28006 39.7011 9.31005 39.7611C9.34004 39.8211 9.37753 39.8811 9.42502 39.936C9.46001 39.9785 9.4975 40.011 9.53249 40.036C9.56748 40.0585 9.60247 40.076 9.63746 40.081C9.67245 40.0885 9.70494 40.086 9.73743 40.076C9.76992 40.066 9.80241 40.0485 9.8324 40.0235L9.8274 40.026Z" fill="#FC000C"/>
<path d="M7.55572 37.5791L8.6754 36.9043L8.30551 36.2895L8.44297 36.207L8.90533 36.9743L7.6457 37.7316L7.55322 37.5791H7.55572Z" fill="#FC000C"/>
<path d="M8.05284 35.4949L6.4683 35.5799L6.40332 35.4399L7.47551 34.2703L7.55799 34.4452L7.23308 34.7926L7.4955 35.3475L7.97037 35.3175L8.05284 35.4924V35.4949ZM6.64325 35.4149C6.8357 35.3949 7.01314 35.3824 7.1731 35.3724L7.32056 35.3625L7.11312 34.9226L7.01064 35.0325C6.89818 35.1525 6.77571 35.2775 6.63825 35.4124V35.4174L6.64325 35.4149Z" fill="#FC000C"/>
<path d="M6.50828 33.4604L7.08311 33.2605L7.1431 33.4304L5.756 33.9153L5.63103 33.5554C5.61104 33.4954 5.59354 33.4429 5.58355 33.3979C5.57355 33.3529 5.56605 33.3129 5.56355 33.273C5.55605 33.168 5.57605 33.078 5.62104 33.0055C5.66602 32.9331 5.736 32.8781 5.83097 32.8456C5.88596 32.8256 5.94094 32.8181 5.99093 32.8206C6.04091 32.8231 6.0884 32.8356 6.13339 32.8556C6.17837 32.8756 6.21836 32.9056 6.25335 32.9456C6.29084 32.983 6.32333 33.028 6.35082 33.0805H6.35582L6.80569 32.4607L6.86568 32.6306L6.4408 33.258L6.51328 33.4629L6.50828 33.4604ZM5.84847 33.6903L6.35582 33.5129L6.29834 33.3454C6.28084 33.293 6.26335 33.2505 6.24585 33.2155C6.23086 33.1805 6.21087 33.1505 6.19337 33.123C6.15588 33.0705 6.11089 33.0355 6.06091 33.018C6.01092 33.0005 5.95344 33.003 5.88846 33.023C5.82848 33.0455 5.78599 33.0755 5.76099 33.118C5.736 33.1605 5.72351 33.2105 5.726 33.268C5.726 33.2955 5.731 33.3279 5.741 33.3629C5.7485 33.3979 5.76349 33.4429 5.78099 33.4954L5.84847 33.6878V33.6903Z" fill="#FC000C"/>
<path d="M5.73098 30.7036L5.80596 31.031L5.6485 31.0685L5.53354 30.5686L6.22584 30.4087C6.23833 30.4212 6.25083 30.4412 6.26583 30.4687C6.28082 30.4962 6.29582 30.5262 6.31081 30.5636C6.32581 30.5986 6.3408 30.6386 6.3558 30.6786C6.3708 30.7211 6.38079 30.7611 6.39079 30.8036C6.41828 30.926 6.42828 31.0385 6.41578 31.141C6.40329 31.2435 6.37579 31.3334 6.32831 31.4109C6.28082 31.4884 6.21834 31.5534 6.13836 31.6083C6.05839 31.6608 5.96341 31.7008 5.85594 31.7258C5.73848 31.7533 5.62851 31.7583 5.52354 31.7458C5.41857 31.7308 5.3261 31.6983 5.24362 31.6458C5.16114 31.5934 5.08867 31.5234 5.02868 31.4359C4.9687 31.3484 4.92621 31.246 4.89872 31.1285C4.89122 31.096 4.88622 31.066 4.88123 31.0335C4.87623 31.001 4.87373 30.971 4.87123 30.941C4.87123 30.911 4.86873 30.8836 4.87123 30.8586C4.87123 30.8336 4.87373 30.8111 4.87623 30.7936L5.03118 30.7586C5.02618 30.8036 5.02618 30.8561 5.03118 30.9135C5.03368 30.971 5.04368 31.0285 5.05617 31.0835C5.07617 31.166 5.10616 31.2385 5.14615 31.3084C5.18864 31.3759 5.24112 31.4334 5.3036 31.4784C5.36609 31.5234 5.43856 31.5534 5.52354 31.5709C5.60602 31.5859 5.69849 31.5834 5.80096 31.5609C5.90093 31.5384 5.98341 31.5034 6.04839 31.4584C6.11337 31.4134 6.16336 31.3609 6.19835 31.2984C6.23334 31.236 6.25333 31.166 6.26083 31.0885C6.26583 31.011 6.26083 30.926 6.23833 30.8386C6.22834 30.7961 6.21834 30.7561 6.20334 30.7186C6.19085 30.6786 6.17585 30.6461 6.16086 30.6161L5.73598 30.7136L5.73098 30.7036Z" fill="#FC000C"/>
<path d="M5.91347 29.2065L5.82099 28.4592L5.98095 28.4392L6.09591 29.3639L4.63634 29.5439L4.52637 28.6591L4.68632 28.6392L4.7738 29.3464L5.24366 29.289L5.16618 28.6591L5.32614 28.6392L5.40361 29.269L5.91097 29.2065H5.91347Z" fill="#FC000C"/>
<path d="M4.57147 25.6302C4.57147 25.7127 4.57897 25.7902 4.60396 25.8627C4.62896 25.9351 4.66395 25.9976 4.71393 26.0526C4.76392 26.1076 4.8264 26.1501 4.90138 26.1826C4.97636 26.2151 5.06633 26.2326 5.1663 26.235C5.26627 26.2375 5.35625 26.2276 5.43122 26.2001C5.5062 26.1751 5.56869 26.1351 5.61867 26.0851C5.66866 26.0351 5.70615 25.9726 5.73364 25.9001C5.75863 25.8277 5.77363 25.7477 5.77613 25.6577C5.77613 25.6327 5.77613 25.6077 5.77613 25.5802C5.77613 25.5527 5.77113 25.5253 5.76863 25.4978C5.76613 25.4703 5.76113 25.4428 5.75363 25.4153C5.74863 25.3878 5.74114 25.3653 5.73614 25.3453L5.89359 25.3503C5.90859 25.3928 5.92108 25.4453 5.92858 25.5028C5.93608 25.5602 5.93858 25.6177 5.93608 25.6777C5.93358 25.8002 5.91109 25.9076 5.8761 26.0001C5.83861 26.0926 5.78862 26.1726 5.72364 26.2325C5.65866 26.295 5.57868 26.34 5.48621 26.37C5.39374 26.4 5.28877 26.4125 5.1713 26.41C5.05633 26.4075 4.95136 26.385 4.85889 26.3475C4.76392 26.31 4.68394 26.2575 4.61646 26.1901C4.54898 26.1226 4.49899 26.0426 4.4615 25.9476C4.42402 25.8527 4.40902 25.7477 4.41402 25.6302C4.41402 25.6002 4.41652 25.5702 4.42152 25.5403C4.42402 25.5103 4.42901 25.4828 4.43401 25.4553C4.43901 25.4278 4.44651 25.4028 4.45401 25.3803C4.4615 25.3578 4.469 25.3378 4.4765 25.3203L4.63396 25.3253C4.61896 25.3703 4.60396 25.4178 4.59397 25.4703C4.58147 25.5228 4.57647 25.5752 4.57397 25.6277L4.57147 25.6302Z" fill="#FC000C"/>
<path d="M5.98111 24.5181L4.604 23.7283L4.624 23.5759L6.16105 23.1785L6.13606 23.3709L5.6737 23.4859L5.59122 24.0957L6.0061 24.3281L5.98111 24.5181ZM4.84144 23.6858C5.01389 23.7758 5.17134 23.8583 5.3113 23.9382L5.44126 24.0107L5.50624 23.5284L5.36129 23.5659C5.20133 23.6058 5.02888 23.6433 4.84144 23.6808V23.6858Z" fill="#FC000C"/>
<path d="M6.38339 22.1112L6.34091 22.2862L4.91382 21.9388L5.00879 21.5439C5.02379 21.4839 5.03878 21.4314 5.05878 21.3839C5.07877 21.3364 5.10126 21.2915 5.12626 21.254C5.17874 21.1765 5.23872 21.1215 5.3112 21.094C5.38368 21.064 5.46366 21.0615 5.55113 21.0815C5.62361 21.099 5.6836 21.129 5.73108 21.1715C5.77857 21.214 5.81606 21.2665 5.83855 21.3315C5.86105 21.3939 5.87354 21.4689 5.87354 21.5514C5.87354 21.6339 5.86105 21.7263 5.83605 21.8263C5.82356 21.8738 5.81106 21.9238 5.79356 21.9738L6.3809 22.1162L6.38339 22.1112ZM5.63611 21.9288C5.64361 21.9063 5.6536 21.8813 5.6611 21.8563C5.6686 21.8313 5.6761 21.8063 5.6811 21.7838C5.70109 21.7013 5.71109 21.6314 5.71359 21.5689C5.71359 21.5089 5.70859 21.4564 5.69109 21.4139C5.6761 21.3714 5.65111 21.3389 5.62111 21.314C5.59112 21.289 5.55113 21.2715 5.50615 21.2615C5.45116 21.249 5.40118 21.2515 5.35869 21.269C5.3162 21.2865 5.28121 21.319 5.24872 21.3639C5.22873 21.3914 5.21373 21.4239 5.19874 21.4639C5.18374 21.5039 5.17124 21.5489 5.15875 21.6014L5.10876 21.8038L5.63361 21.9313L5.63611 21.9288Z" fill="#FC000C"/>
<path d="M13.4788 43.2501L14.0186 43.675L13.3313 43.645L13.0939 44.2898L12.9089 43.6275L12.2241 43.6L12.7965 43.2201L12.609 42.5603L13.1464 42.9877L13.7187 42.6053L13.4788 43.2501Z" fill="#FC000C"/>
<path d="M6.44805 17.8873L7.41027 17.8399L6.65799 18.4397L7.00039 19.3394L6.19562 18.8096L5.44584 19.4119L5.70076 18.4847L4.896 17.9573L5.85822 17.9148L6.11065 16.9851L6.44805 17.8873Z" fill="#FC000C"/>
<path d="M39.0013 43.2501L38.4614 43.675L39.1462 43.645L39.3837 44.2898L39.5686 43.6275L40.2559 43.6L39.6836 43.2201L39.8685 42.5603L39.3312 42.9877L38.7613 42.6053L39.0013 43.2501Z" fill="#FC000C"/>
<path d="M46.0291 17.8873L45.0669 17.8399L45.8217 18.4397L45.4793 19.3394L46.2815 18.8096L47.0338 19.4119L46.7764 18.4847L47.5837 17.9573L46.6214 17.9148L46.369 16.9851L46.0291 17.8873Z" fill="#FC000C"/>
<path d="M45.9567 22.2161C45.9692 22.2686 45.9842 22.3136 46.0067 22.3511C46.0267 22.3885 46.0517 22.421 46.0816 22.446C46.1116 22.471 46.1416 22.491 46.1791 22.5035C46.2166 22.516 46.2516 22.5235 46.2941 22.526C46.3191 22.526 46.3466 22.526 46.3766 22.526C46.4066 22.5235 46.434 22.5185 46.4615 22.511L47.3513 22.3136L47.3888 22.4885L46.504 22.6835C46.4715 22.691 46.434 22.696 46.3966 22.701C46.3591 22.706 46.3241 22.706 46.2916 22.706C46.2366 22.706 46.1816 22.6935 46.1316 22.676C46.0816 22.6585 46.0342 22.631 45.9917 22.596C45.9492 22.561 45.9117 22.5135 45.8792 22.456C45.8467 22.3985 45.8217 22.3286 45.8042 22.2461C45.7867 22.1686 45.7792 22.0961 45.7842 22.0336C45.7892 21.9712 45.8017 21.9137 45.8217 21.8662C45.8417 21.8162 45.8717 21.7737 45.9067 21.7387C45.9417 21.7012 45.9842 21.6713 46.0292 21.6463C46.0617 21.6288 46.0991 21.6113 46.1391 21.5988C46.1791 21.5863 46.2191 21.5738 46.2566 21.5663L47.1413 21.3713L47.1788 21.5463L46.2891 21.7437C46.2566 21.7512 46.2241 21.7612 46.1916 21.7737C46.1591 21.7862 46.1291 21.8012 46.1041 21.8162C46.0392 21.8562 45.9942 21.9112 45.9667 21.9787C45.9392 22.0461 45.9367 22.1261 45.9567 22.2236V22.2161Z" fill="#FC000C"/>
<path d="M47.2089 23.8707C47.1664 23.8757 47.1314 23.8882 47.1064 23.9082C47.0814 23.9282 47.0589 23.9557 47.0439 23.9857C47.0289 24.0182 47.019 24.0532 47.0115 24.0932C47.004 24.1331 46.999 24.1756 46.9915 24.2181C46.984 24.2756 46.974 24.3331 46.964 24.3906C46.954 24.4481 46.9365 24.498 46.9115 24.5455C46.8865 24.593 46.8515 24.6305 46.809 24.663C46.764 24.6955 46.7065 24.7155 46.6316 24.723C46.5566 24.7305 46.4891 24.723 46.4316 24.703C46.3741 24.6805 46.3242 24.6455 46.2817 24.598C46.2417 24.5505 46.2067 24.4955 46.1817 24.4281C46.1567 24.3606 46.1392 24.2856 46.1317 24.2031C46.1267 24.1656 46.1267 24.1256 46.1267 24.0857C46.1267 24.0457 46.1267 24.0082 46.1342 23.9707C46.1392 23.9332 46.1442 23.9007 46.1517 23.8707C46.1592 23.8407 46.1667 23.8157 46.1742 23.7982L46.3366 23.7807C46.3267 23.8082 46.3167 23.8382 46.3117 23.8732C46.3042 23.9082 46.2992 23.9432 46.2942 23.9782C46.2892 24.0132 46.2892 24.0507 46.2892 24.0857C46.2892 24.1206 46.2892 24.1556 46.2942 24.1856C46.2992 24.2356 46.3092 24.2856 46.3242 24.3306C46.3391 24.3756 46.3566 24.4156 46.3816 24.4481C46.4066 24.4805 46.4366 24.5055 46.4741 24.5205C46.5116 24.538 46.5566 24.543 46.6091 24.5355C46.6516 24.5305 46.6865 24.518 46.714 24.4955C46.7415 24.4755 46.7615 24.4481 46.7765 24.4156C46.7915 24.3831 46.804 24.3481 46.809 24.3081C46.8165 24.2681 46.8215 24.2256 46.829 24.1806C46.8365 24.1231 46.844 24.0657 46.854 24.0082C46.864 23.9532 46.8815 23.9007 46.9065 23.8557C46.9315 23.8107 46.964 23.7707 47.0065 23.7408C47.0489 23.7108 47.1064 23.6908 47.1789 23.6833C47.2539 23.6758 47.3189 23.6833 47.3739 23.7033C47.4313 23.7233 47.4788 23.7558 47.5188 23.7982C47.5588 23.8407 47.5913 23.8907 47.6138 23.9507C47.6363 24.0082 47.6538 24.0732 47.6613 24.1406C47.6713 24.2181 47.6713 24.2931 47.6613 24.3606C47.6513 24.4281 47.6413 24.493 47.6238 24.553L47.4588 24.5705C47.4788 24.508 47.4913 24.4431 47.5013 24.3756C47.5113 24.3081 47.5113 24.2406 47.5013 24.1656C47.4963 24.1106 47.4838 24.0632 47.4663 24.0232C47.4488 23.9832 47.4288 23.9507 47.4038 23.9282C47.3788 23.9032 47.3489 23.8857 47.3164 23.8782C47.2839 23.8682 47.2464 23.8657 47.2089 23.8707Z" fill="#FC000C"/>
<path d="M47.7513 27.1647L46.4442 27.1098L46.4142 27.827L46.2517 27.8195L46.2892 26.9248L47.7588 26.9848L47.7513 27.1647Z" fill="#FC000C"/>
<path d="M46.1893 28.6267L47.5589 29.4265L47.5364 29.5789L45.9968 29.9638L46.0243 29.7714L46.4867 29.6589L46.5742 29.0516L46.1618 28.8167L46.1893 28.6267ZM47.3214 29.469C47.149 29.379 46.994 29.294 46.8541 29.2115L46.7241 29.1366L46.6566 29.6189L46.8016 29.5839C46.9615 29.5464 47.134 29.509 47.3214 29.4715V29.4665V29.469Z" fill="#FC000C"/>
<path d="M46.3565 31.1835L45.7667 31.0335L45.8117 30.8611L47.2363 31.221L47.1438 31.5909C47.1288 31.6534 47.1113 31.7058 47.0963 31.7483C47.0813 31.7908 47.0638 31.8283 47.0438 31.8633C46.9914 31.9558 46.9264 32.0207 46.8489 32.0557C46.7714 32.0907 46.6839 32.0982 46.5865 32.0732C46.529 32.0582 46.479 32.0357 46.439 32.0058C46.399 31.9758 46.3665 31.9408 46.3415 31.8983C46.3165 31.8558 46.2991 31.8108 46.2891 31.7583C46.2791 31.7058 46.2766 31.6509 46.2816 31.5909H46.2766L45.5618 31.8583L45.6068 31.6858L46.3066 31.3959L46.359 31.186L46.3565 31.1835ZM47.0363 31.3534L46.514 31.221L46.4715 31.3934C46.459 31.4459 46.449 31.4934 46.4415 31.5309C46.4365 31.5684 46.434 31.6059 46.434 31.6359C46.4365 31.7008 46.454 31.7558 46.4865 31.7983C46.519 31.8408 46.5665 31.8708 46.634 31.8883C46.6964 31.9033 46.7489 31.9008 46.7939 31.8783C46.8389 31.8583 46.8764 31.8208 46.9064 31.7708C46.9214 31.7483 46.9339 31.7183 46.9464 31.6833C46.9589 31.6484 46.9714 31.6034 46.9864 31.5484L47.0363 31.3509V31.3534Z" fill="#FC000C"/>
<path d="M45.4918 33.9103L45.6093 33.5954L45.7617 33.6503L45.5843 34.1327L44.917 33.8853C44.917 33.8678 44.917 33.8428 44.917 33.8128C44.917 33.7828 44.9245 33.7478 44.9295 33.7103C44.937 33.6728 44.9445 33.6328 44.9545 33.5904C44.9645 33.5479 44.9795 33.5079 44.992 33.4679C45.037 33.3504 45.0894 33.2505 45.1569 33.173C45.2219 33.0955 45.2969 33.0355 45.3769 32.9955C45.4593 32.9555 45.5468 32.9355 45.6443 32.9355C45.7418 32.9355 45.8392 32.9555 45.9442 32.993C46.0567 33.0355 46.1516 33.0905 46.2316 33.158C46.3116 33.2255 46.3716 33.3054 46.4116 33.3954C46.4515 33.4854 46.474 33.5829 46.474 33.6903C46.474 33.7953 46.4541 33.9053 46.4141 34.0177C46.4041 34.0477 46.3916 34.0777 46.3766 34.1077C46.3641 34.1377 46.3491 34.1652 46.3341 34.1902C46.3191 34.2152 46.3041 34.2402 46.2891 34.2602C46.2741 34.2802 46.2616 34.2977 46.2466 34.3126L46.0992 34.2577C46.1291 34.2227 46.1566 34.1777 46.1866 34.1277C46.2166 34.0777 46.2391 34.0252 46.2591 33.9727C46.2891 33.8953 46.3041 33.8153 46.3066 33.7353C46.3091 33.6553 46.2966 33.5804 46.2691 33.5079C46.2416 33.4354 46.1966 33.3704 46.1366 33.3104C46.0767 33.2505 45.9967 33.203 45.8992 33.168C45.8042 33.133 45.7168 33.1155 45.6368 33.1155C45.5568 33.1155 45.4868 33.133 45.4218 33.1655C45.3594 33.198 45.3019 33.2455 45.2544 33.3054C45.2069 33.3679 45.1669 33.4404 45.1344 33.5279C45.1194 33.5679 45.1069 33.6079 45.0969 33.6478C45.0869 33.6878 45.0794 33.7253 45.0769 33.7578L45.4868 33.9103H45.4918Z" fill="#FC000C"/>
<path d="M44.5145 35.0623L44.1796 35.7371L44.0347 35.6646L44.4495 34.8298L45.7667 35.4821L45.3718 36.2819L45.2268 36.2094L45.5442 35.5696L45.1194 35.3597L44.8369 35.927L44.692 35.8545L44.9744 35.2872L44.517 35.0598L44.5145 35.0623Z" fill="#FC000C"/>
<path d="M43.6623 38.7838C43.7098 38.7164 43.7423 38.6464 43.7623 38.5739C43.7823 38.5014 43.7872 38.4265 43.7747 38.354C43.7623 38.2815 43.7348 38.2115 43.6898 38.1415C43.6448 38.0716 43.5798 38.0091 43.4973 37.9491C43.4149 37.8916 43.3349 37.8516 43.2574 37.8316C43.1799 37.8116 43.1074 37.8091 43.0375 37.8241C42.9675 37.8391 42.9025 37.8691 42.84 37.9141C42.7775 37.9591 42.7226 38.0191 42.6701 38.094C42.6551 38.114 42.6426 38.1365 42.6276 38.159C42.6126 38.184 42.6001 38.2065 42.5876 38.234C42.5751 38.259 42.5651 38.284 42.5551 38.309C42.5451 38.334 42.5376 38.3565 42.5301 38.379L42.4001 38.289C42.4101 38.244 42.4301 38.1965 42.4551 38.144C42.4801 38.0915 42.5101 38.0416 42.5451 37.9916C42.6151 37.8916 42.6926 37.8141 42.775 37.7541C42.8575 37.6967 42.9425 37.6592 43.0325 37.6442C43.1224 37.6292 43.2124 37.6342 43.3074 37.6592C43.4024 37.6842 43.4948 37.7317 43.5923 37.7991C43.6848 37.8641 43.7623 37.9391 43.8197 38.0241C43.8772 38.109 43.9172 38.1965 43.9347 38.289C43.9522 38.3815 43.9522 38.4789 43.9297 38.5764C43.9072 38.6739 43.8622 38.7714 43.7947 38.8663C43.7772 38.8913 43.7573 38.9163 43.7398 38.9388C43.7223 38.9613 43.6998 38.9838 43.6823 39.0038C43.6623 39.0238 43.6423 39.0413 43.6248 39.0563C43.6048 39.0713 43.5873 39.0838 43.5723 39.0938L43.4423 39.0038C43.4798 38.9763 43.5173 38.9438 43.5573 38.9063C43.5973 38.8688 43.6298 38.8288 43.6623 38.7838Z" fill="#FC000C"/>
<path d="M41.878 38.9312L42.5903 40.3482L42.4878 40.4657L40.9883 39.9484L41.1157 39.8009L41.5656 39.9609L41.9705 39.4985L41.7531 39.0761L41.8805 38.9312H41.878ZM42.3679 40.2558C42.2729 40.0858 42.1904 39.9284 42.1155 39.7859L42.048 39.6534L41.7281 40.0208L41.868 40.0708C42.023 40.1258 42.1879 40.1883 42.3654 40.2608H42.3679V40.2558Z" fill="#FC000C"/>
<path d="M40.2134 40.7182L40.3433 40.5957L41.3431 41.6729L41.0456 41.9503C41.0007 41.9928 40.9582 42.0278 40.9157 42.0578C40.8732 42.0878 40.8307 42.1103 40.7882 42.1303C40.7032 42.1678 40.6208 42.1777 40.5458 42.1628C40.4708 42.1478 40.4008 42.1078 40.3383 42.0403C40.2884 41.9853 40.2534 41.9278 40.2359 41.8653C40.2184 41.8029 40.2184 41.7404 40.2359 41.6729C40.2509 41.6079 40.2809 41.5379 40.3283 41.4705C40.3733 41.4005 40.4358 41.3305 40.5108 41.263C40.5458 41.2305 40.5858 41.1955 40.6258 41.163L40.2134 40.7207V40.7182ZM40.7357 41.2805C40.7157 41.2955 40.6957 41.3105 40.6757 41.328C40.6558 41.3455 40.6358 41.3605 40.6208 41.378C40.5583 41.4355 40.5108 41.4879 40.4758 41.5379C40.4408 41.5879 40.4183 41.6354 40.4083 41.6779C40.3983 41.7229 40.3983 41.7629 40.4108 41.8004C40.4233 41.8378 40.4458 41.8753 40.4758 41.9078C40.5158 41.9503 40.5558 41.9753 40.6008 41.9828C40.6458 41.9903 40.6932 41.9828 40.7432 41.9653C40.7732 41.9528 40.8057 41.9328 40.8407 41.9103C40.8732 41.8853 40.9107 41.8553 40.9507 41.8179L41.1031 41.6754L40.7357 41.2805Z" fill="#FC000C"/>
<path d="M30.2464 14.8507L24.0757 22.6185C24.0757 22.6185 24.0682 22.631 24.0682 22.6385V22.6584C24.0682 22.6584 24.0707 22.6759 24.0782 22.6834L26.4475 25.0677C26.4625 25.0827 26.485 25.0802 26.4975 25.0653C28.1745 22.9484 29.8191 20.804 31.4861 18.6796C31.881 18.1747 32.4883 17.8823 33.1281 17.8823H36.3847C36.4122 17.8823 36.4297 17.9148 36.4122 17.9373L28.8893 27.4696C28.8793 27.4821 28.8793 27.4995 28.8893 27.512L29.0218 27.662L38.4466 37.1393C38.4691 37.1618 38.4516 37.1992 38.4216 37.1968C38.4141 37.1968 38.4091 37.1968 38.4041 37.1968C36.6896 37.2167 34.9751 37.1818 33.2606 37.1968C33.2506 37.1968 33.2431 37.1942 33.2356 37.1868C32.2234 36.182 31.2386 35.1523 30.2389 34.1351C29.0143 32.888 27.7821 31.6434 26.5575 30.3937C26.5425 30.3787 26.52 30.3812 26.5075 30.3962L23.6034 34.1526C23.1935 34.68 22.5637 34.9899 21.8963 34.9899H18.6848C18.6573 34.9899 18.6398 34.9574 18.6573 34.9349L24.1607 28.0369C24.1707 28.0244 24.1707 28.0044 24.1607 27.9919L21.7664 25.5826C21.7514 25.5676 21.7289 25.5701 21.7164 25.5851L19.0422 29.0041C18.2724 29.9888 17.0927 30.5637 15.8406 30.5637H13.5662C13.5388 30.5637 13.5213 30.5312 13.5388 30.5087L19.3796 23.1958C19.3896 23.1833 19.3896 23.1633 19.3796 23.1508L14.7634 18.4597C14.551 18.2422 14.7034 17.8773 15.0083 17.8773H19.3321C19.3321 17.8773 19.3496 17.8798 19.3546 17.8873C20.0144 18.5371 20.6442 19.2269 21.294 19.8892C21.384 19.9817 21.5639 20.1892 21.6564 20.2516C21.6739 20.2641 21.6964 20.2566 21.7064 20.2391C21.7189 20.2142 21.7414 20.1892 21.7589 20.1667C22.8036 18.8695 23.8058 17.5349 24.828 16.2178C25.5253 15.3206 26.5975 14.7932 27.7347 14.7932H30.2139C30.2414 14.7932 30.2589 14.8257 30.2414 14.8482L30.2464 14.8507Z" fill="#FC000C"/>
</svg>
