<svg width="52" height="52" viewBox="0 0 52 52" fill="none" xmlns="http://www.w3.org/2000/svg">
<path d="M26.0005 52C40.3599 52 52.0005 40.3594 52.0005 26C52.0005 11.6406 40.3599 0 26.0005 0C11.6411 0 0.000488281 11.6406 0.000488281 26C0.000488281 40.3594 11.6411 52 26.0005 52Z" fill="#243A5E"/>
<path d="M26.0002 44.1524C15.9906 44.1524 7.8479 36.0098 7.8479 26.0002C7.8479 15.9906 15.9906 7.8479 26.0002 7.8479C36.0098 7.8479 44.1524 15.9906 44.1524 26.0002C44.1524 36.0098 36.0098 44.1524 26.0002 44.1524ZM26.0002 8.35275C16.2705 8.35275 8.35276 16.268 8.35276 26.0002C8.35276 35.7324 16.2705 43.6476 26.0002 43.6476C35.7299 43.6476 43.6476 35.7299 43.6476 26.0002C43.6476 16.2705 35.7299 8.35275 26.0002 8.35275Z" fill="white"/>
<path d="M26.0002 50.6232C22.6787 50.6232 19.4546 49.9709 16.4155 48.6863C13.4838 47.4467 10.8496 45.6722 8.59275 43.4128C6.3334 41.1535 4.55891 38.5217 3.31927 35.5901C2.03464 32.551 1.38232 29.3244 1.38232 26.0054C1.38232 22.6863 2.03464 19.4597 3.31927 16.4206C4.55891 13.489 6.3334 10.8547 8.59275 8.59787C10.8521 6.33852 13.4838 4.56403 16.4155 3.32439C19.4546 2.03976 22.6812 1.38745 26.0002 1.38745C29.3193 1.38745 32.5458 2.03976 35.585 3.32439C38.5166 4.56403 41.1508 6.33852 43.4077 8.59787C45.667 10.8572 47.4415 13.489 48.6812 16.4206C49.9658 19.4597 50.6181 22.6863 50.6181 26.0054C50.6181 29.3244 49.9658 32.551 48.6812 35.5901C47.4415 38.5217 45.667 41.156 43.4077 43.4128C41.1483 45.6722 38.5166 47.4467 35.585 48.6863C32.5458 49.9709 29.3193 50.6232 26.0002 50.6232ZM26.0002 1.74985C22.7287 1.74985 19.5521 2.39216 16.5579 3.6593C13.6688 4.88144 11.077 6.62844 8.85017 8.8528C6.62581 11.0772 4.87632 13.6714 3.65667 16.5606C2.38954 19.5547 1.74722 22.7313 1.74722 26.0028C1.74722 29.2744 2.38954 32.451 3.65667 35.4451C4.87882 38.3343 6.62581 40.926 8.85017 43.1529C11.0745 45.3773 13.6688 47.1268 16.5579 48.3464C19.5521 49.6135 22.7287 50.2559 26.0002 50.2559C29.2718 50.2559 32.4484 49.6135 35.4425 48.3464C38.3317 47.1243 40.9234 45.3773 43.1503 43.1529C45.3746 40.9285 47.1241 38.3343 48.3438 35.4451C49.6109 32.451 50.2532 29.2744 50.2532 26.0028C50.2532 22.7313 49.6109 19.5547 48.3438 16.5606C47.1216 13.6714 45.3746 11.0797 43.1503 8.8528C40.9259 6.62844 38.3317 4.87894 35.4425 3.6593C32.4484 2.39216 29.2718 1.74985 26.0002 1.74985Z" fill="white"/>
<path d="M8.78754 13.7981C8.925 13.883 9.04247 13.983 9.14244 14.093C9.24241 14.2029 9.31739 14.3229 9.37237 14.4504C9.42486 14.5803 9.45485 14.7178 9.46235 14.8653C9.46735 15.0127 9.44736 15.1652 9.39987 15.3276C9.37238 15.4201 9.33488 15.5151 9.2849 15.6125C9.23741 15.71 9.17743 15.81 9.11245 15.9175L8.77754 16.4498L6.42822 14.9702L6.76563 14.4329C6.83311 14.3254 6.90058 14.2304 6.96557 14.1455C7.03305 14.0605 7.10053 13.9855 7.17301 13.9205C7.29797 13.8081 7.42793 13.7231 7.5604 13.6631C7.69286 13.6031 7.83032 13.5706 7.96528 13.5631C8.10274 13.5556 8.2402 13.5706 8.37766 13.6131C8.51512 13.6556 8.65258 13.7181 8.79004 13.8031L8.78754 13.7981ZM8.60759 14.083C8.38266 13.9405 8.16772 13.8755 7.96278 13.8855C7.76034 13.8955 7.57039 13.978 7.39544 14.1255C7.32796 14.183 7.26298 14.2529 7.2005 14.3354C7.13802 14.4179 7.07054 14.5154 7.00056 14.6253L6.86309 14.8453L8.69507 15.9999L8.83253 15.78C8.90251 15.67 8.95999 15.5676 9.00748 15.4751C9.05497 15.3826 9.08995 15.2926 9.11245 15.2077C9.16993 14.9852 9.15743 14.7778 9.07496 14.5853C8.99248 14.3929 8.83503 14.2254 8.60759 14.083Z" fill="white"/>
<path d="M11.1497 13.108L9.07031 11.2685L9.29525 11.0161L11.3746 12.8556L11.1497 13.108Z" fill="white"/>
<path d="M13.4288 9.42684L12.939 9.82672L12.7465 9.58929L13.4988 8.97447L14.3486 10.0142C14.3361 10.0442 14.3136 10.0841 14.2786 10.1316C14.2461 10.1791 14.2061 10.2316 14.1586 10.2866C14.1111 10.3416 14.0586 10.3991 14.0011 10.459C13.9437 10.5165 13.8837 10.5715 13.8212 10.624C13.6363 10.7739 13.4538 10.8814 13.2714 10.9464C13.0889 11.0114 12.914 11.0364 12.7415 11.0214C12.5691 11.0064 12.4066 10.9539 12.2492 10.8639C12.0917 10.7739 11.9467 10.6465 11.8143 10.484C11.6718 10.3091 11.5669 10.1266 11.5044 9.93919C11.4419 9.75174 11.4194 9.5643 11.4369 9.37935C11.4569 9.1944 11.5169 9.01446 11.6168 8.83951C11.7168 8.66456 11.8543 8.5071 12.0292 8.36464C12.0767 8.32715 12.1242 8.28967 12.1742 8.25468C12.2242 8.21969 12.2742 8.18969 12.3216 8.1597C12.3691 8.12971 12.4166 8.10722 12.4616 8.08722C12.5066 8.06723 12.5441 8.05223 12.5791 8.04224L12.769 8.27217C12.6865 8.30216 12.5991 8.34465 12.5041 8.39963C12.4091 8.45212 12.3191 8.5146 12.2367 8.58208C12.1142 8.68205 12.0142 8.79452 11.9317 8.92448C11.8518 9.05195 11.7993 9.18691 11.7768 9.33187C11.7543 9.47682 11.7618 9.62428 11.8043 9.77924C11.8468 9.93419 11.9293 10.0866 12.0542 10.2391C12.1767 10.3891 12.3016 10.499 12.4316 10.574C12.5616 10.649 12.694 10.689 12.829 10.6965C12.964 10.704 13.0989 10.6815 13.2364 10.6265C13.3738 10.5715 13.5088 10.489 13.6413 10.3791C13.7037 10.3291 13.7612 10.2741 13.8162 10.2191C13.8712 10.1641 13.9162 10.1116 13.9537 10.0617L13.4313 9.42184L13.4288 9.42684Z" fill="white"/>
<path d="M16.038 9.04179L14.6509 6.63748L14.9433 6.46753L16.3304 8.87184L16.038 9.04179Z" fill="white"/>
<path d="M19.0019 7.61727L18.687 7.73974L17.7872 5.4379L16.9225 5.7753L16.8125 5.49038L18.8544 4.69312L18.9644 4.97803L18.0996 5.31544L18.9994 7.61727H19.0019Z" fill="white"/>
<path d="M20.9869 6.9375L21.5692 3.99834L21.8566 3.94336L23.4937 6.45264L23.1338 6.52262L22.6489 5.76533L21.5092 5.98527L21.3418 6.87001L20.9844 6.93999L20.9869 6.9375ZM21.7916 4.39323C21.7367 4.75562 21.6792 5.08553 21.6217 5.38544L21.5692 5.66286L22.4714 5.48791L22.319 5.25048C22.1515 4.99056 21.9791 4.70314 21.7991 4.39073H21.7916V4.39323Z" fill="white"/>
<path d="M25.4453 3.5686L25.4853 6.04039L26.8399 6.0179L26.8449 6.32281L25.1529 6.3503L25.1079 3.5761L25.4453 3.5711V3.5686Z" fill="white"/>
<path d="M30.2515 6.7549L32.1084 4.40308L32.3883 4.48555L32.7033 7.46719L32.3509 7.36472L32.2659 6.46998L31.1512 6.14757L30.6014 6.85737L30.2515 6.7574V6.7549ZM32.1259 4.85545C31.911 5.15286 31.711 5.42028 31.5236 5.66271L31.3511 5.88515L32.2359 6.14007L32.2084 5.86016C32.1784 5.55274 32.1559 5.21784 32.1359 4.85794H32.1284L32.1259 4.85545Z" fill="white"/>
<path d="M35.4077 6.42766C35.3702 6.50014 35.3552 6.56762 35.3602 6.6301C35.3652 6.69258 35.3852 6.75257 35.4177 6.80755C35.4526 6.86503 35.4951 6.91752 35.5526 6.9725C35.6076 7.02499 35.6676 7.07997 35.7301 7.13246C35.8125 7.20494 35.895 7.27991 35.9725 7.35489C36.05 7.42987 36.1125 7.51235 36.1599 7.59982C36.2074 7.6873 36.2324 7.78227 36.2349 7.88474C36.2374 7.98721 36.2074 8.10218 36.1449 8.22714C36.08 8.3546 35.9975 8.45208 35.9025 8.52206C35.8075 8.58954 35.7001 8.63202 35.5851 8.64702C35.4676 8.66201 35.3452 8.65452 35.2127 8.62453C35.0803 8.59453 34.9453 8.54205 34.8053 8.47207C34.7404 8.43958 34.6779 8.40209 34.6154 8.3596C34.5529 8.31711 34.4929 8.27463 34.4404 8.22964C34.3855 8.18465 34.338 8.14217 34.298 8.09968C34.258 8.05719 34.228 8.0197 34.208 7.98721L34.348 7.71229C34.3805 7.75728 34.4204 7.80226 34.4654 7.84975C34.5104 7.89724 34.5604 7.94222 34.6129 7.98471C34.6654 8.0272 34.7204 8.06969 34.7753 8.10717C34.8328 8.14466 34.8853 8.17715 34.9403 8.20465C35.0253 8.24963 35.1128 8.28462 35.1977 8.30962C35.2827 8.33461 35.3652 8.34461 35.4427 8.34211C35.5201 8.33711 35.5901 8.31462 35.6551 8.27213C35.7201 8.22964 35.7751 8.16466 35.8225 8.07468C35.86 7.99971 35.8775 7.93223 35.87 7.86974C35.865 7.80726 35.845 7.74478 35.81 7.6898C35.7751 7.63231 35.7301 7.57733 35.6751 7.52484C35.6201 7.47236 35.5601 7.41737 35.4951 7.36239C35.4102 7.28991 35.3302 7.21743 35.2527 7.14245C35.1752 7.06747 35.1128 6.9875 35.0653 6.90002C35.0178 6.81505 34.9928 6.72007 34.9903 6.6201C34.9853 6.52013 35.0153 6.41016 35.0778 6.2902C35.1427 6.16523 35.2202 6.06776 35.3127 6.00278C35.4052 5.9353 35.5051 5.89281 35.6151 5.87532C35.7226 5.85532 35.8375 5.86032 35.9525 5.88282C36.07 5.90781 36.1849 5.9478 36.2999 6.00778C36.4324 6.07526 36.5473 6.15024 36.6498 6.23521C36.7498 6.31769 36.8373 6.40517 36.9122 6.49514L36.7698 6.77506C36.6898 6.68009 36.6023 6.59011 36.5073 6.50764C36.4124 6.42516 36.3024 6.35018 36.1799 6.2852C36.0875 6.23771 36 6.20522 35.92 6.19023C35.84 6.17523 35.7676 6.17523 35.7026 6.19023C35.6376 6.20522 35.5801 6.23272 35.5301 6.2752C35.4801 6.31769 35.4402 6.37018 35.4052 6.43516L35.4077 6.42766Z" fill="white"/>
<path d="M38.7913 8.4543C38.7413 8.51929 38.7138 8.58177 38.7063 8.64425C38.6988 8.70673 38.7063 8.76921 38.7313 8.8292C38.7538 8.89168 38.7888 8.95166 38.8338 9.01664C38.8788 9.07912 38.9263 9.14161 38.9787 9.20659C39.0487 9.29406 39.1137 9.38154 39.1762 9.46901C39.2387 9.55899 39.2862 9.64896 39.3161 9.74393C39.3461 9.83891 39.3536 9.93638 39.3386 10.0388C39.3236 10.1413 39.2737 10.2488 39.1862 10.3588C39.0987 10.4737 39.0012 10.5537 38.8938 10.6037C38.7863 10.6537 38.6738 10.6762 38.5589 10.6687C38.4414 10.6637 38.3214 10.6337 38.1965 10.5787C38.0715 10.5237 37.949 10.4487 37.8241 10.3538C37.7666 10.3088 37.7116 10.2613 37.6566 10.2088C37.6016 10.1563 37.5517 10.1013 37.5067 10.0488C37.4617 9.99636 37.4242 9.94388 37.3917 9.89389C37.3592 9.8439 37.3367 9.80392 37.3242 9.76893L37.5117 9.524C37.5367 9.57398 37.5666 9.62647 37.6041 9.68145C37.6416 9.73644 37.6816 9.78892 37.7241 9.8414C37.7666 9.89389 37.8141 9.94388 37.8616 9.99136C37.909 10.0388 37.959 10.0813 38.004 10.1163C38.0815 10.1763 38.159 10.2263 38.239 10.2663C38.3189 10.3063 38.3964 10.3313 38.4739 10.3413C38.5489 10.3513 38.6238 10.3413 38.6963 10.3113C38.7688 10.2813 38.8338 10.2263 38.8963 10.1463C38.9463 10.0813 38.9762 10.0164 38.9812 9.95137C38.9862 9.88889 38.9787 9.82391 38.9562 9.76143C38.9338 9.69895 38.8988 9.63646 38.8538 9.57398C38.8088 9.5115 38.7588 9.44652 38.7063 9.38154C38.6363 9.29656 38.5689 9.20909 38.5064 9.12161C38.4439 9.03414 38.3964 8.94416 38.3664 8.85169C38.3364 8.75922 38.3289 8.66174 38.3414 8.56427C38.3564 8.4643 38.4039 8.36183 38.4864 8.25436C38.5714 8.1419 38.6663 8.06192 38.7688 8.01193C38.8713 7.96195 38.9787 7.93945 39.0887 7.93945C39.1987 7.93945 39.3086 7.96445 39.4211 8.00943C39.5311 8.05442 39.6386 8.1169 39.741 8.19688C39.8585 8.28685 39.9585 8.38183 40.0434 8.4818C40.1284 8.58177 40.1984 8.68424 40.2534 8.78421L40.0634 9.03164C40.001 8.92417 39.931 8.8192 39.8535 8.72173C39.776 8.62426 39.681 8.53178 39.5711 8.44431C39.4886 8.37933 39.4086 8.33434 39.3336 8.30435C39.2587 8.27436 39.1887 8.26186 39.1212 8.26436C39.0537 8.26436 38.9937 8.28435 38.9363 8.31684C38.8788 8.34934 38.8288 8.39432 38.7838 8.45181L38.7913 8.4543Z" fill="white"/>
<path d="M40.511 12.2736L41.4632 13.3308L41.2358 13.5357L40.0562 12.2286L42.1181 10.3691L43.2452 11.6188L43.0178 11.8237L42.1156 10.824L41.4508 11.4238L42.253 12.3136L42.0256 12.5185L41.2233 11.6288L40.506 12.2761L40.511 12.2736Z" fill="white"/>
<path d="M42.843 15.8474L42.6655 15.56L44.7699 14.2654L44.2826 13.4756L44.5425 13.3157L45.6922 15.1826L45.4322 15.3426L44.9449 14.5528L42.8405 15.8474H42.843Z" fill="white"/>
<path d="M19.3496 46.9087C19.4921 46.6963 19.6545 46.4713 19.8395 46.2339L20.8192 44.9793L21.584 45.2292L20.6117 48.2058L20.0669 48.0284L20.5593 46.5213C20.6317 46.3014 20.7242 46.0465 20.8367 45.7615L20.8167 45.7541C20.7642 45.8315 20.7042 45.9165 20.6342 46.009C20.5667 46.104 20.4968 46.1964 20.4268 46.2864L19.2621 47.766L18.9097 47.651L18.8423 45.769C18.8398 45.6541 18.8372 45.5391 18.8372 45.4216C18.8372 45.3042 18.8373 45.2017 18.8423 45.1067L18.8223 45.0992C18.7498 45.3792 18.6748 45.6391 18.5973 45.874L18.1025 47.3836L17.5576 47.2061L18.5298 44.2295L19.2896 44.4794L19.3396 46.064C19.3496 46.3289 19.3471 46.6088 19.3346 46.9037L19.3471 46.9087H19.3496Z" fill="white"/>
<path d="M24.9831 47.8387C24.9881 47.7587 24.9706 47.6937 24.9356 47.6437C24.8981 47.5912 24.8481 47.5488 24.7831 47.5138C24.7181 47.4788 24.6432 47.4488 24.5632 47.4263C24.4832 47.4038 24.3932 47.3788 24.3032 47.3538C24.1833 47.3213 24.0683 47.2813 23.9608 47.2388C23.8534 47.1964 23.7584 47.1389 23.6784 47.0714C23.5985 47.0014 23.536 46.9164 23.491 46.814C23.446 46.7115 23.4285 46.5865 23.4385 46.4366C23.4485 46.2716 23.4835 46.1292 23.5485 46.0092C23.6135 45.8892 23.6959 45.7943 23.8009 45.7193C23.9034 45.6443 24.0233 45.5918 24.1583 45.5593C24.2933 45.5268 24.4457 45.5168 24.6107 45.5243C24.7781 45.5343 24.9431 45.5593 25.1105 45.6018C25.278 45.6443 25.4204 45.6943 25.5379 45.7518L25.5104 46.2416C25.353 46.1691 25.198 46.1142 25.053 46.0767C24.9056 46.0392 24.7681 46.0167 24.6357 46.0092C24.4482 45.9992 24.3008 46.0242 24.1933 46.0867C24.0883 46.1492 24.0308 46.2491 24.0233 46.3866C24.0183 46.4666 24.0308 46.5315 24.0633 46.5865C24.0933 46.639 24.1383 46.684 24.1933 46.7215C24.2483 46.759 24.3133 46.789 24.3882 46.814C24.4607 46.839 24.5407 46.8615 24.6232 46.8839C24.7531 46.9189 24.8781 46.9589 24.998 47.0014C25.1155 47.0439 25.2205 47.1014 25.3105 47.1714C25.4004 47.2413 25.4704 47.3313 25.5179 47.4388C25.5654 47.5463 25.5854 47.6837 25.5779 47.8462C25.5679 48.0136 25.5279 48.1586 25.4604 48.2785C25.3904 48.3985 25.298 48.496 25.178 48.5685C25.058 48.6409 24.9156 48.6934 24.7506 48.7234C24.5857 48.7534 24.4057 48.7634 24.2108 48.7509C24.0408 48.7409 23.8759 48.7159 23.7134 48.6734C23.551 48.6309 23.416 48.576 23.311 48.5085L23.3385 48.0236C23.4885 48.0986 23.6359 48.1561 23.7809 48.1961C23.9259 48.2361 24.0758 48.2585 24.2308 48.2685C24.3207 48.2735 24.4107 48.271 24.4982 48.261C24.5857 48.251 24.6656 48.2311 24.7381 48.1986C24.8106 48.1661 24.8681 48.1211 24.9131 48.0611C24.9581 48.0011 24.9831 47.9261 24.9881 47.8362L24.9831 47.8387Z" fill="white"/>
<path d="M28.7093 48.5107L28.1445 48.6032L27.6396 45.5141L29.6066 45.1917L29.6841 45.664L28.282 45.8939L28.4119 46.6937L29.6116 46.4988L29.6891 46.9711L28.4894 47.1686L28.7093 48.5132V48.5107Z" fill="white"/>
<path d="M33.693 47.1187L33.1607 47.3337L32.1684 44.8744L31.2312 45.2518L31.0513 44.8069L33.4556 43.8372L33.6355 44.282L32.7008 44.6594L33.693 47.1187Z" fill="white"/>
<path d="M11.7821 40.7177C11.7446 40.6803 11.7046 40.6528 11.6671 40.6328C11.6296 40.6128 11.5896 40.6003 11.5521 40.5953C11.5146 40.5903 11.4771 40.5928 11.4397 40.6003C11.4022 40.6078 11.3672 40.6228 11.3322 40.6428C11.3097 40.6553 11.2872 40.6703 11.2647 40.6903C11.2422 40.7102 11.2197 40.7302 11.2022 40.7502L10.5674 41.405L10.4399 41.2801L11.0723 40.6278C11.0973 40.6028 11.1222 40.5778 11.1522 40.5553C11.1797 40.5303 11.2097 40.5103 11.2372 40.4928C11.2847 40.4628 11.3347 40.4428 11.3872 40.4278C11.4397 40.4153 11.4921 40.4103 11.5496 40.4178C11.6071 40.4253 11.6621 40.4428 11.7196 40.4728C11.7771 40.5028 11.837 40.5478 11.897 40.6053C11.9545 40.6603 11.9995 40.7177 12.032 40.7727C12.0645 40.8277 12.0845 40.8827 12.0945 40.9352C12.1045 40.9877 12.1045 41.0401 12.0945 41.0901C12.0845 41.1401 12.067 41.1876 12.0445 41.2351C12.027 41.2701 12.0045 41.3026 11.9795 41.3351C11.9545 41.3676 11.927 41.4 11.8995 41.4275L11.2672 42.0798L11.1397 41.9549L11.7746 41.3001C11.7971 41.2776 11.8195 41.2501 11.8395 41.2226C11.8595 41.1951 11.877 41.1676 11.8895 41.1401C11.9195 41.0701 11.9295 41.0002 11.9145 40.9302C11.8995 40.8602 11.857 40.7902 11.7871 40.7202L11.7821 40.7177Z" fill="white"/>
<path d="M9.82764 40.0277C9.86013 40.0002 9.88263 39.9702 9.89263 39.9378C9.90262 39.9053 9.90512 39.8728 9.90012 39.8378C9.89513 39.8028 9.88513 39.7678 9.86763 39.7303C9.85264 39.6928 9.83264 39.6553 9.81514 39.6154C9.79015 39.5629 9.76516 39.5104 9.74267 39.4579C9.72018 39.4054 9.70768 39.3529 9.70268 39.3004C9.69768 39.248 9.70268 39.1955 9.72517 39.1455C9.74517 39.0955 9.78265 39.0455 9.84014 38.998C9.89762 38.948 9.9576 38.9181 10.0201 38.9056C10.0826 38.8931 10.1426 38.8931 10.2025 38.9106C10.2625 38.928 10.3225 38.9555 10.38 38.998C10.4375 39.0405 10.4925 39.093 10.5474 39.1555C10.5724 39.1855 10.5949 39.2155 10.6174 39.2505C10.6399 39.2854 10.6599 39.3179 10.6749 39.3504C10.6899 39.3829 10.7049 39.4154 10.7174 39.4429C10.7274 39.4729 10.7349 39.4954 10.7374 39.5154L10.6124 39.6203C10.6049 39.5904 10.5949 39.5604 10.5824 39.5279C10.5699 39.4954 10.5549 39.4629 10.5374 39.4304C10.5199 39.3979 10.5024 39.3679 10.4825 39.3379C10.4625 39.3079 10.4425 39.2804 10.4225 39.2555C10.39 39.2155 10.355 39.1805 10.3175 39.1505C10.28 39.1205 10.2425 39.098 10.205 39.0855C10.1675 39.0705 10.1276 39.068 10.0876 39.0755C10.0476 39.083 10.0076 39.103 9.9651 39.138C9.93261 39.1655 9.91012 39.1955 9.90012 39.228C9.89013 39.2605 9.88763 39.2929 9.89263 39.3279C9.89763 39.3629 9.90762 39.4004 9.92511 39.4379C9.94011 39.4754 9.9601 39.5129 9.9801 39.5529C10.0076 39.6054 10.0301 39.6578 10.0526 39.7103C10.0751 39.7628 10.0876 39.8153 10.0926 39.8653C10.0976 39.9178 10.0926 39.9677 10.0726 40.0177C10.0526 40.0677 10.0176 40.1152 9.96261 40.1602C9.90512 40.2077 9.84764 40.2402 9.78765 40.2527C9.73017 40.2652 9.67019 40.2677 9.6152 40.2527C9.55772 40.2402 9.50524 40.2152 9.45275 40.1802C9.40027 40.1452 9.35278 40.1002 9.30779 40.0477C9.2578 39.9877 9.21532 39.9278 9.18533 39.8653C9.15284 39.8028 9.12785 39.7428 9.11035 39.6853L9.23781 39.5779C9.2578 39.6403 9.2803 39.7028 9.31029 39.7628C9.34028 39.8228 9.37777 39.8803 9.42526 39.9378C9.46025 39.9802 9.49774 40.0127 9.53273 40.0377C9.56772 40.0602 9.60271 40.0777 9.6377 40.0827C9.67269 40.0902 9.70517 40.0877 9.73767 40.0777C9.77016 40.0677 9.80265 40.0502 9.83264 40.0252L9.82764 40.0277Z" fill="white"/>
<path d="M7.55524 37.5811L8.67491 36.9063L8.30502 36.2915L8.44248 36.209L8.90485 36.9763L7.64521 37.7335L7.55273 37.5811H7.55524Z" fill="white"/>
<path d="M8.05285 35.4969L6.4683 35.5818L6.40332 35.4419L7.47551 34.2722L7.55799 34.4472L7.23308 34.7946L7.4955 35.3494L7.97037 35.3194L8.05285 35.4944V35.4969ZM6.64326 35.4169C6.8357 35.3969 7.01315 35.3844 7.1731 35.3744L7.32056 35.3644L7.11311 34.9245L7.01065 35.0345C6.89818 35.1545 6.77571 35.2794 6.63825 35.4144V35.4194L6.64326 35.4169Z" fill="white"/>
<path d="M6.50828 33.4621L7.08311 33.2622L7.1431 33.4321L5.75599 33.917L5.63103 33.5571C5.61104 33.4971 5.59354 33.4446 5.58354 33.3996C5.57355 33.3546 5.56605 33.3147 5.56355 33.2747C5.55605 33.1697 5.57604 33.0797 5.62103 33.0072C5.66602 32.9348 5.736 32.8798 5.83098 32.8473C5.88596 32.8273 5.94094 32.8198 5.99093 32.8223C6.04091 32.8223 6.0884 32.8373 6.13339 32.8573C6.17837 32.8773 6.21836 32.9073 6.25335 32.9473C6.29084 32.9848 6.32333 33.0297 6.35082 33.0822H6.35582L6.80569 32.4624L6.86567 32.6324L6.44079 33.2597L6.51327 33.4646L6.50828 33.4621ZM5.84847 33.692L6.35582 33.5146L6.29834 33.3471C6.28085 33.2947 6.26335 33.2522 6.24585 33.2172C6.23085 33.1822 6.21086 33.1522 6.19337 33.1247C6.15588 33.0722 6.11089 33.0372 6.06091 33.0197C6.01092 33.0022 5.95344 33.0047 5.88846 33.0247C5.82847 33.0472 5.78599 33.0772 5.761 33.1197C5.736 33.1622 5.7235 33.2122 5.726 33.2697C5.726 33.2972 5.731 33.3297 5.741 33.3646C5.7485 33.3996 5.76349 33.4446 5.78099 33.4971L5.84847 33.6895V33.692Z" fill="white"/>
<path d="M5.73098 30.7029L5.80596 31.0303L5.64851 31.0678L5.53354 30.5679L6.22584 30.408C6.23834 30.4205 6.25083 30.4404 6.26583 30.4679C6.28083 30.4954 6.29582 30.5254 6.31081 30.5629C6.32581 30.5979 6.3408 30.6379 6.3558 30.6779C6.3708 30.7204 6.3808 30.7604 6.39079 30.8028C6.41829 30.9253 6.42828 31.0378 6.41579 31.1402C6.40329 31.2427 6.3758 31.3302 6.32831 31.4102C6.28083 31.4876 6.21834 31.5526 6.13836 31.6076C6.05839 31.6601 5.96341 31.7001 5.85594 31.7251C5.73848 31.7526 5.62851 31.7576 5.52354 31.7451C5.41857 31.7326 5.3261 31.6976 5.24363 31.6451C5.16115 31.5926 5.08867 31.5226 5.02868 31.4352C4.9687 31.3477 4.92622 31.2452 4.89872 31.1278C4.89123 31.0978 4.88623 31.0653 4.88123 31.0328C4.87623 31.0003 4.87373 30.9703 4.87123 30.9403C4.87123 30.9103 4.86873 30.8828 4.87123 30.8578C4.87123 30.8328 4.87373 30.8103 4.87623 30.7928L5.03119 30.7579C5.02619 30.8028 5.02619 30.8553 5.03119 30.9128C5.03368 30.9703 5.04368 31.0278 5.05618 31.0828C5.07617 31.1652 5.10616 31.2377 5.14615 31.3077C5.18864 31.3752 5.24112 31.4327 5.30361 31.4777C5.36609 31.5226 5.43857 31.5526 5.52354 31.5701C5.60852 31.5876 5.69849 31.5826 5.80096 31.5601C5.90093 31.5376 5.98341 31.5026 6.04839 31.4577C6.11337 31.4127 6.16336 31.3602 6.19835 31.2977C6.23334 31.2352 6.25334 31.1652 6.26083 31.0878C6.26583 31.0103 6.26083 30.9253 6.23833 30.8378C6.22834 30.7953 6.21834 30.7554 6.20335 30.7179C6.19085 30.6779 6.17585 30.6454 6.16086 30.6154L5.73598 30.7129L5.73098 30.7029Z" fill="white"/>
<path d="M5.91346 29.2084L5.82099 28.4612L5.98094 28.4412L6.09591 29.3659L4.63634 29.5458L4.52637 28.6611L4.68632 28.6411L4.77379 29.3484L5.24366 29.2909L5.16618 28.6611L5.32613 28.6411L5.40361 29.2709L5.91096 29.2084H5.91346Z" fill="white"/>
<path d="M4.57147 25.6321C4.57147 25.7146 4.57897 25.7921 4.60397 25.8646C4.62896 25.937 4.66395 25.9995 4.71393 26.0545C4.76392 26.1095 4.8264 26.152 4.90138 26.1845C4.97636 26.217 5.06633 26.2344 5.1663 26.2369C5.26627 26.2394 5.35625 26.2294 5.43123 26.202C5.50621 26.177 5.56869 26.137 5.61867 26.087C5.66866 26.037 5.70615 25.9745 5.73364 25.902C5.75863 25.8296 5.77363 25.7496 5.77613 25.6596C5.77613 25.6346 5.77613 25.6096 5.77613 25.5821C5.77613 25.5546 5.77113 25.5271 5.76863 25.4997C5.76363 25.4722 5.76113 25.4447 5.75363 25.4172C5.74863 25.3897 5.74114 25.3672 5.73614 25.3472L5.89359 25.3522C5.90859 25.3947 5.92108 25.4472 5.92858 25.5047C5.93608 25.5621 5.93858 25.6196 5.93608 25.6796C5.93358 25.8021 5.91109 25.9095 5.8761 26.002C5.83861 26.0945 5.78862 26.1745 5.72364 26.2344C5.65866 26.2969 5.57868 26.3419 5.48621 26.3719C5.39374 26.4019 5.28877 26.4144 5.1713 26.4119C5.05633 26.4094 4.95136 26.3894 4.85889 26.3494C4.76392 26.3119 4.68394 26.2594 4.61646 26.192C4.54898 26.1245 4.49899 26.0445 4.46151 25.9495C4.42402 25.8546 4.40902 25.7496 4.41402 25.6346C4.41402 25.6046 4.41652 25.5746 4.42152 25.5446C4.42651 25.5147 4.42901 25.4872 4.43401 25.4597C4.43901 25.4322 4.44651 25.4072 4.45401 25.3847C4.46151 25.3622 4.469 25.3422 4.4765 25.3247L4.63396 25.3297C4.61896 25.3747 4.60396 25.4222 4.59397 25.4747C4.58397 25.5271 4.57648 25.5796 4.57398 25.6321H4.57147Z" fill="white"/>
<path d="M5.98061 24.5198L4.60352 23.73L4.62351 23.5776L6.16056 23.1802L6.13557 23.3726L5.67321 23.4876L5.59073 24.0974L6.00561 24.3298L5.98061 24.5198ZM4.83845 23.685C5.0109 23.775 5.16835 23.86 5.30831 23.9375L5.43827 24.0099L5.50325 23.5276L5.3583 23.5651C5.19834 23.6051 5.02589 23.6425 4.83845 23.68V23.685Z" fill="white"/>
<path d="M6.38315 22.1132L6.34066 22.2881L4.91357 21.9407L5.00855 21.5458C5.02354 21.4859 5.03853 21.4334 5.05853 21.3859C5.07852 21.3384 5.10102 21.2934 5.12601 21.2559C5.1785 21.1784 5.23848 21.1235 5.31096 21.096C5.38344 21.066 5.46341 21.0635 5.55089 21.0835C5.62337 21.101 5.68335 21.131 5.73084 21.1735C5.77832 21.2159 5.81582 21.2684 5.83831 21.3334C5.8608 21.3959 5.8733 21.4709 5.8733 21.5533C5.8733 21.6358 5.8608 21.7283 5.83581 21.8283C5.82331 21.8757 5.81081 21.9257 5.79332 21.9757L6.38065 22.1182L6.38315 22.1132ZM5.63587 21.9307C5.64337 21.9082 5.65336 21.8832 5.66086 21.8583C5.66835 21.8333 5.67586 21.8083 5.68085 21.7858C5.70085 21.7033 5.71085 21.6333 5.71335 21.5708C5.71335 21.5109 5.70834 21.4584 5.69085 21.4159C5.67585 21.3734 5.65086 21.3409 5.62087 21.3159C5.59088 21.2909 5.55089 21.2734 5.5059 21.2634C5.45092 21.2509 5.40093 21.2534 5.35845 21.2709C5.31596 21.2884 5.28097 21.3209 5.24848 21.3659C5.22848 21.3934 5.21349 21.4259 5.1985 21.4659C5.1835 21.5059 5.171 21.5508 5.15851 21.6033L5.10852 21.8058L5.63337 21.9332L5.63587 21.9307Z" fill="white"/>
<path d="M13.4788 43.2499L14.0186 43.6747L13.3313 43.6447L13.0939 44.2896L12.9089 43.6273L12.2241 43.6023L12.7965 43.2224L12.609 42.5601L13.1464 42.9874L13.7187 42.6075L13.4788 43.2499Z" fill="white"/>
<path d="M6.44805 17.8871L7.41027 17.8396L6.65799 18.4394L7.00039 19.3417L6.19562 18.8093L5.44584 19.4142L5.70076 18.4844L4.896 17.9571L5.85822 17.9146L6.11065 16.9849L6.44805 17.8871Z" fill="white"/>
<path d="M39.0013 43.2499L38.4614 43.6747L39.1462 43.6447L39.3837 44.2896L39.5686 43.6273L40.2559 43.6023L39.6811 43.2224L39.8685 42.5601L39.3312 42.9874L38.7613 42.6075L39.0013 43.2499Z" fill="white"/>
<path d="M46.0291 17.8871L45.0669 17.8396L45.8217 18.4394L45.4793 19.3417L46.2815 18.8093L47.0338 19.4142L46.7764 18.4844L47.5837 17.9571L46.6214 17.9146L46.369 16.9849L46.0291 17.8871Z" fill="white"/>
<path d="M45.9571 22.2182C45.9696 22.2707 45.9846 22.3157 46.0071 22.3532C46.0271 22.3907 46.0521 22.4232 46.0821 22.4482C46.1121 22.4732 46.1421 22.4932 46.1795 22.5057C46.2145 22.5181 46.252 22.5256 46.2945 22.5281C46.3195 22.5281 46.347 22.5281 46.377 22.5281C46.407 22.5256 46.4345 22.5206 46.462 22.5131L47.3517 22.3157L47.3892 22.4907L46.5045 22.6856C46.472 22.6931 46.4345 22.6981 46.3995 22.7031C46.362 22.7081 46.327 22.7106 46.2945 22.7081C46.2395 22.7081 46.1845 22.6956 46.1346 22.6781C46.0846 22.6606 46.0371 22.6331 45.9946 22.5981C45.9521 22.5631 45.9146 22.5156 45.8821 22.4582C45.8496 22.4007 45.8247 22.3307 45.8072 22.2507C45.7897 22.1707 45.7822 22.1008 45.7872 22.0383C45.7922 21.9758 45.8047 21.9183 45.8247 21.8708C45.8446 21.8208 45.8746 21.7784 45.9096 21.7434C45.9446 21.7084 45.9871 21.6759 46.0321 21.6509C46.0646 21.6334 46.1021 21.6159 46.1421 21.6034C46.182 21.5909 46.222 21.5784 46.2595 21.5709L47.1443 21.376L47.1818 21.5509L46.292 21.7484C46.2595 21.7559 46.227 21.7659 46.1945 21.7784C46.1621 21.7909 46.1321 21.8059 46.1071 21.8208C46.0446 21.8608 45.9971 21.9158 45.9696 21.9808C45.9421 22.0483 45.9396 22.1283 45.9596 22.2257L45.9571 22.2182Z" fill="white"/>
<path d="M47.2091 23.8704C47.1667 23.8754 47.1317 23.8879 47.1067 23.9079C47.0817 23.9279 47.0592 23.9554 47.0442 23.9854C47.0292 24.0154 47.0192 24.0529 47.0117 24.0929C47.0042 24.1328 46.9992 24.1753 46.9917 24.2178C46.9842 24.2753 46.9742 24.3328 46.9642 24.3903C46.9542 24.4477 46.9367 24.4977 46.9117 24.5452C46.8867 24.5927 46.8517 24.6302 46.8093 24.6627C46.7643 24.6952 46.7043 24.7152 46.6318 24.7227C46.5568 24.7327 46.4893 24.7227 46.4319 24.7027C46.3744 24.6802 46.3244 24.6452 46.2819 24.6002C46.2419 24.5527 46.2094 24.4952 46.1844 24.4303C46.1594 24.3628 46.142 24.2878 46.132 24.2053C46.127 24.1678 46.127 24.1278 46.127 24.0879C46.127 24.0479 46.127 24.0079 46.1345 23.9729C46.1394 23.9354 46.1444 23.9029 46.1519 23.8729C46.1594 23.8429 46.1669 23.8179 46.1744 23.8004L46.3369 23.7829C46.3269 23.8104 46.3169 23.8404 46.3119 23.8754C46.3044 23.9104 46.2994 23.9454 46.2944 23.9804C46.2894 24.0154 46.2894 24.0529 46.2894 24.0879C46.2894 24.1228 46.2894 24.1578 46.2944 24.1878C46.2994 24.2378 46.3094 24.2878 46.3244 24.3328C46.3394 24.3778 46.3569 24.4178 46.3819 24.4502C46.4069 24.4827 46.4369 24.5077 46.4744 24.5227C46.5118 24.5377 46.5568 24.5452 46.6093 24.5377C46.6518 24.5327 46.6868 24.5202 46.7143 24.4977C46.7418 24.4752 46.7618 24.4502 46.7768 24.4178C46.7918 24.3853 46.8043 24.3503 46.8093 24.3103C46.8168 24.2703 46.8218 24.2278 46.8292 24.1828C46.8367 24.1253 46.8442 24.0679 46.8542 24.0104C46.8642 23.9529 46.8817 23.9029 46.9067 23.8579C46.9317 23.8129 46.9642 23.7729 47.0067 23.743C47.0492 23.713 47.1067 23.693 47.1791 23.6855C47.2541 23.678 47.3191 23.6855 47.3766 23.7055C47.4341 23.7255 47.4816 23.7579 47.5216 23.8004C47.5615 23.8429 47.594 23.8929 47.6165 23.9529C47.639 24.0104 47.6565 24.0754 47.664 24.1428C47.674 24.2203 47.674 24.2953 47.664 24.3628C47.654 24.4303 47.644 24.4952 47.6265 24.5552L47.4616 24.5727C47.4816 24.5102 47.4941 24.4452 47.5041 24.3778C47.5141 24.3128 47.5141 24.2428 47.5041 24.1678C47.4991 24.1128 47.4866 24.0654 47.4691 24.0254C47.4516 23.9854 47.4316 23.9529 47.4066 23.9304C47.3816 23.9054 47.3516 23.8879 47.3191 23.8804C47.2866 23.8704 47.2491 23.8679 47.2116 23.8729L47.2091 23.8704Z" fill="white"/>
<path d="M47.7515 27.1642L46.4444 27.1117L46.4144 27.829L46.252 27.8215L46.2894 26.9268L47.759 26.9867L47.7515 27.1642Z" fill="white"/>
<path d="M46.189 28.6265L47.5586 29.4263L47.5361 29.5787L45.9966 29.9636L46.0241 29.7712L46.4864 29.6587L46.5739 29.0514L46.1615 28.814L46.189 28.624V28.6265ZM47.3212 29.4688C47.1487 29.3788 46.9938 29.2938 46.8538 29.2114L46.7239 29.1364L46.6564 29.6187L46.8014 29.5837C46.9613 29.5463 47.1338 29.5088 47.3212 29.4713V29.4663V29.4688Z" fill="white"/>
<path d="M46.3568 31.1857L45.7669 31.0357L45.8119 30.8633L47.2365 31.2232L47.1441 31.5931C47.1291 31.6556 47.1116 31.708 47.0966 31.7505C47.0816 31.793 47.0641 31.8305 47.0441 31.8655C46.9916 31.958 46.9266 32.0229 46.8491 32.0579C46.7717 32.0929 46.6842 32.1004 46.5867 32.0754C46.5292 32.0604 46.4792 32.0379 46.4393 32.0079C46.3993 31.978 46.3668 31.943 46.3418 31.9005C46.3168 31.858 46.2993 31.813 46.2893 31.7605C46.2793 31.708 46.2768 31.6531 46.2818 31.5931H46.2768L45.562 31.8605L45.607 31.688L46.3068 31.3981L46.3593 31.1882L46.3568 31.1857ZM47.0366 31.3556L46.5142 31.2232L46.4717 31.3956C46.4592 31.4481 46.4493 31.4956 46.4418 31.5331C46.4368 31.5706 46.4343 31.6081 46.4343 31.6381C46.4368 31.703 46.4542 31.758 46.4867 31.8005C46.5192 31.843 46.5667 31.873 46.6342 31.8905C46.6967 31.9055 46.7492 31.903 46.7942 31.8805C46.8391 31.8605 46.8766 31.823 46.9066 31.773C46.9216 31.7505 46.9341 31.7205 46.9466 31.6855C46.9591 31.6506 46.9716 31.6056 46.9866 31.5506L47.0366 31.3531V31.3556Z" fill="white"/>
<path d="M45.4923 33.9098L45.6098 33.5949L45.7622 33.6499L45.5848 34.1322L44.9175 33.8848C44.9175 33.8673 44.9175 33.8423 44.9175 33.8123C44.9175 33.7823 44.925 33.7473 44.93 33.7098C44.935 33.6723 44.945 33.6324 44.955 33.5899C44.965 33.5474 44.98 33.5074 44.9925 33.4674C45.0374 33.3499 45.0899 33.25 45.1574 33.1725C45.2249 33.095 45.2974 33.035 45.3773 32.995C45.4598 32.9551 45.5473 32.9351 45.6448 32.9351C45.7397 32.9351 45.8397 32.9526 45.9447 32.9925C46.0572 33.035 46.1521 33.09 46.2321 33.1575C46.3121 33.2275 46.3721 33.305 46.4121 33.3949C46.452 33.4849 46.4745 33.5824 46.4745 33.6898C46.4745 33.7948 46.4545 33.9048 46.4145 34.0172C46.4045 34.0472 46.3921 34.0772 46.3771 34.1072C46.3646 34.1372 46.3496 34.1647 46.3346 34.1897C46.3196 34.2147 46.3046 34.2397 46.2896 34.2597C46.2746 34.2797 46.2621 34.2972 46.2471 34.3122L46.0996 34.2572C46.1296 34.2222 46.1571 34.1772 46.1871 34.1272C46.2171 34.0772 46.2396 34.0247 46.2596 33.9723C46.2896 33.8948 46.3046 33.8148 46.3071 33.7348C46.3096 33.6549 46.2971 33.5799 46.2696 33.5074C46.2421 33.4349 46.1971 33.3699 46.1371 33.31C46.0771 33.25 45.9972 33.2025 45.8997 33.1675C45.8047 33.1325 45.7173 33.115 45.6373 33.115C45.5573 33.115 45.4873 33.1325 45.4223 33.165C45.3574 33.1975 45.3024 33.245 45.2549 33.305C45.2074 33.3674 45.1674 33.4399 45.1349 33.5274C45.1199 33.5674 45.1074 33.6074 45.0974 33.6474C45.0874 33.6873 45.0799 33.7248 45.0774 33.7573L45.4873 33.9098H45.4923Z" fill="white"/>
<path d="M44.5145 35.0645L44.1796 35.7393L44.0347 35.6668L44.4495 34.832L45.7667 35.4843L45.3718 36.2841L45.2268 36.2116L45.5442 35.5743L45.1194 35.3644L44.8369 35.9317L44.692 35.8592L44.9744 35.2919L44.517 35.0645H44.5145Z" fill="white"/>
<path d="M43.6625 38.7861C43.71 38.7186 43.7425 38.6486 43.7625 38.5737C43.7825 38.5012 43.7875 38.4262 43.775 38.3537C43.7625 38.2812 43.735 38.2113 43.69 38.1413C43.645 38.0713 43.5801 38.0088 43.4976 37.9488C43.4151 37.8914 43.3351 37.8514 43.2576 37.8314C43.1802 37.8114 43.1077 37.8089 43.0377 37.8239C42.9677 37.8389 42.9027 37.8689 42.8403 37.9139C42.7778 37.9588 42.7228 38.0188 42.6703 38.0938C42.6553 38.1138 42.6428 38.1363 42.6278 38.1588C42.6128 38.1813 42.6003 38.2088 42.5878 38.2338C42.5753 38.2588 42.5653 38.2837 42.5553 38.3087C42.5453 38.3337 42.5379 38.3562 42.5304 38.3787L42.4004 38.2887C42.4104 38.2438 42.4304 38.1963 42.4554 38.1438C42.4804 38.0913 42.5104 38.0413 42.5454 37.9913C42.6153 37.8914 42.6928 37.8139 42.7753 37.7539C42.8578 37.6964 42.9427 37.6589 43.0327 37.6439C43.1227 37.6289 43.2127 37.6339 43.3076 37.6589C43.4026 37.6839 43.4951 37.7314 43.5926 37.7989C43.685 37.8639 43.7625 37.9388 43.82 38.0238C43.8775 38.1088 43.9175 38.1963 43.935 38.2887C43.9524 38.3812 43.9524 38.4787 43.9299 38.5762C43.9075 38.6736 43.8625 38.7711 43.795 38.8661C43.7775 38.8911 43.76 38.9161 43.74 38.9386C43.72 38.9611 43.7 38.9835 43.6825 39.0035C43.6625 39.0235 43.6425 39.041 43.625 39.056C43.605 39.071 43.5875 39.0835 43.5726 39.0935L43.4426 39.0035C43.4801 38.976 43.5176 38.9436 43.5576 38.9061C43.595 38.8686 43.63 38.8286 43.6625 38.7861Z" fill="white"/>
<path d="M41.878 38.9333L42.5903 40.3504L42.4878 40.4679L40.9883 39.9506L41.1157 39.8031L41.5631 39.9631L41.968 39.5007L41.7506 39.0783L41.878 38.9333ZM42.3679 40.258C42.2729 40.088 42.1904 39.9306 42.1155 39.7881L42.048 39.6556L41.7281 40.023L41.868 40.073C42.023 40.128 42.1879 40.1905 42.3654 40.263H42.3679V40.258Z" fill="white"/>
<path d="M40.2134 40.7179L40.3433 40.5955L41.3431 41.6726L41.0456 41.9501C41.0007 41.9901 40.9582 42.0275 40.9157 42.0575C40.8732 42.0875 40.8307 42.11 40.7882 42.13C40.7032 42.1675 40.6208 42.1775 40.5458 42.1625C40.4708 42.1475 40.4008 42.1075 40.3383 42.04C40.2884 41.9851 40.2534 41.9276 40.2359 41.8651C40.2184 41.8026 40.2184 41.7401 40.2359 41.6726C40.2509 41.6052 40.2809 41.5377 40.3284 41.4702C40.3733 41.4002 40.4358 41.3302 40.5108 41.2628C40.5458 41.2303 40.5858 41.1953 40.6258 41.1628L40.2134 40.7204V40.7179ZM40.7357 41.2803C40.7157 41.2953 40.6957 41.3103 40.6757 41.3277C40.6558 41.3452 40.6358 41.3602 40.6208 41.3777C40.5583 41.4352 40.5108 41.4902 40.4758 41.5377C40.4408 41.5877 40.4183 41.6352 40.4083 41.6776C40.3983 41.7226 40.3983 41.7626 40.4108 41.8001C40.4233 41.8376 40.4458 41.8726 40.4758 41.9076C40.5158 41.9501 40.5558 41.9751 40.6008 41.9826C40.6458 41.9901 40.6932 41.9826 40.7432 41.9651C40.7732 41.9526 40.8057 41.9326 40.8407 41.9101C40.8732 41.8851 40.9107 41.8551 40.9507 41.8176L41.1031 41.6751L40.7357 41.2803Z" fill="white"/>
<path d="M24.2248 16.8723L16.8086 17.8684C16.4159 17.9211 16.1404 18.2822 16.1931 18.6748L17.1893 26.091C17.242 26.4836 17.603 26.7592 17.9957 26.7064L25.4119 25.7103C25.8045 25.6576 26.0801 25.2965 26.0273 24.9039L25.0312 17.4877C24.9785 17.095 24.6174 16.8195 24.2248 16.8723Z" fill="#F34F22"/>
<path d="M33.9509 15.5639L26.5346 16.56C26.142 16.6128 25.8665 16.9738 25.9192 17.3664L26.9153 24.7827C26.9681 25.1753 27.3291 25.4508 27.7217 25.3981L35.138 24.402C35.5306 24.3492 35.8061 23.9882 35.7534 23.5956L34.7573 16.1793C34.7045 15.7867 34.3435 15.5112 33.9509 15.5639Z" fill="#7FBA00"/>
<path d="M25.531 26.6035L18.1147 27.5996C17.7221 27.6523 17.4466 28.0134 17.4993 28.406L18.4954 35.8222C18.5482 36.2148 18.9092 36.4904 19.3018 36.4376L26.7181 35.4415C27.1107 35.3888 27.3862 35.0277 27.3335 34.6351L26.3374 27.2189C26.2846 26.8263 25.9236 26.5507 25.531 26.6035Z" fill="#00A4EF"/>
<path d="M35.2575 25.298L27.8413 26.2942C27.4487 26.3469 27.1731 26.7079 27.2259 27.1006L28.222 34.5168C28.2747 34.9094 28.6358 35.185 29.0284 35.1322L36.4446 34.1361C36.8373 34.0834 37.1128 33.7223 37.0601 33.3297L36.0639 25.9135C36.0112 25.5208 35.6502 25.2453 35.2575 25.298Z" fill="#FFB900"/>
</svg>
