<svg width="52" height="52" viewBox="0 0 52 52" fill="none" xmlns="http://www.w3.org/2000/svg">
<path d="M25.9998 52C40.3592 52 51.9998 40.3594 51.9998 26C51.9998 11.6406 40.3592 0 25.9998 0C11.6404 0 -0.000244141 11.6406 -0.000244141 26C-0.000244141 40.3594 11.6404 52 25.9998 52Z" fill="black"/>
<path d="M25.9997 44.1524C15.9901 44.1524 7.84741 36.0098 7.84741 26.0002C7.84741 15.9906 15.9901 7.8479 25.9997 7.8479C36.0093 7.8479 44.1519 15.9906 44.1519 26.0002C44.1519 36.0098 36.0093 44.1524 25.9997 44.1524ZM25.9997 8.35275C16.27 8.35275 8.35227 16.268 8.35227 26.0002C8.35227 35.7324 16.27 43.6476 25.9997 43.6476C35.7294 43.6476 43.6471 35.7299 43.6471 26.0002C43.6471 16.2705 35.7294 8.35275 25.9997 8.35275Z" fill="#77B900"/>
<path d="M25.9997 50.6203C22.6782 50.6203 19.4541 49.968 16.415 48.6834C13.4833 47.4437 10.8491 45.6693 8.59225 43.4099C6.3329 41.1506 4.55842 38.5188 3.31878 35.5872C2.03415 32.548 1.38184 29.3215 1.38184 26.0024C1.38184 22.6834 2.03415 19.4568 3.31878 16.4177C4.55842 13.486 6.3329 10.8518 8.59225 8.59494C10.8516 6.33559 13.4833 4.56111 16.415 3.32146C19.4541 2.03683 22.6807 1.38452 25.9997 1.38452C29.3188 1.38452 32.5453 2.03683 35.5844 3.32146C38.5161 4.56111 41.1504 6.33559 43.4072 8.59494C45.6665 10.8543 47.441 13.486 48.6807 16.4177C49.9653 19.4568 50.6176 22.6834 50.6176 26.0024C50.6176 29.3215 49.9653 32.548 48.6807 35.5872C47.441 38.5188 45.6665 41.1531 43.4072 43.4099C41.1479 45.6693 38.5161 47.4437 35.5844 48.6834C32.5453 49.968 29.3188 50.6203 25.9997 50.6203ZM25.9997 1.74692C22.7282 1.74692 19.5516 2.38923 16.5574 3.65637C13.6683 4.87851 11.0765 6.62551 8.84968 8.84987C6.62532 11.0742 4.87582 13.6685 3.65617 16.5576C2.38904 19.5518 1.74672 22.7284 1.74672 25.9999C1.74672 29.2715 2.38904 32.4481 3.65617 35.4422C4.87832 38.3314 6.62532 40.9231 8.84968 43.15C11.074 45.3743 13.6683 47.1238 16.5574 48.3435C19.5516 49.6106 22.7282 50.2529 25.9997 50.2529C29.2713 50.2529 32.4479 49.6106 35.442 48.3435C38.3312 47.1213 40.9229 45.3743 43.1498 43.15C45.3741 40.9256 47.1236 38.3314 48.3433 35.4422C49.6104 32.4481 50.2527 29.2715 50.2527 25.9999C50.2527 22.7284 49.6104 19.5518 48.3433 16.5576C47.1211 13.6685 45.3741 11.0767 43.1498 8.84987C40.9254 6.62551 38.3312 4.87601 35.442 3.65637C32.4479 2.38923 29.2713 1.74692 25.9997 1.74692Z" fill="#77B900"/>
<path d="M8.78756 13.7961C8.92502 13.8811 9.04249 13.9811 9.14247 14.091C9.24244 14.201 9.3174 14.321 9.37238 14.4484C9.42486 14.5784 9.45485 14.7158 9.46235 14.8633C9.46985 15.0108 9.44735 15.1632 9.39987 15.3257C9.37238 15.4181 9.3349 15.5131 9.28491 15.6106C9.23493 15.7081 9.17746 15.808 9.11248 15.9155L8.77755 16.4478L6.42822 14.9683L6.76565 14.4309C6.83313 14.3235 6.90059 14.2285 6.96557 14.1435C7.03305 14.0585 7.10055 13.9836 7.17303 13.9186C7.298 13.8061 7.42794 13.7211 7.5604 13.6611C7.69286 13.6012 7.82782 13.5687 7.96528 13.5612C8.10275 13.5537 8.24021 13.5687 8.37767 13.6112C8.51513 13.6537 8.6526 13.7161 8.79006 13.8011L8.78756 13.7961ZM8.60762 14.081C8.38268 13.9386 8.16772 13.8736 7.96278 13.8836C7.76034 13.8936 7.57039 13.9761 7.39544 14.1235C7.32796 14.181 7.263 14.251 7.20052 14.3335C7.13804 14.4159 7.07055 14.5134 7.00057 14.6234L6.86313 14.8433L8.69509 15.998L8.83253 15.778C8.90251 15.6681 8.96001 15.5656 9.00749 15.4731C9.05498 15.3807 9.08998 15.2907 9.11248 15.2057C9.16996 14.9833 9.15996 14.7758 9.07498 14.5834C8.9925 14.3909 8.83505 14.2235 8.60762 14.081Z" fill="white"/>
<path d="M11.1492 13.1063L9.06982 11.2668L9.29477 11.0144L11.3742 12.8539L11.1492 13.1063Z" fill="white"/>
<path d="M13.4288 9.42733L12.939 9.82721L12.7465 9.58978L13.4988 8.97496L14.3486 10.0147C14.3361 10.0446 14.3136 10.0846 14.2786 10.1321C14.2461 10.1796 14.2061 10.2321 14.1586 10.2871C14.1111 10.3421 14.0586 10.3995 14.0012 10.4595C13.9437 10.5195 13.8812 10.572 13.8212 10.6245C13.6363 10.7744 13.4538 10.8819 13.2714 10.9469C13.0889 11.0119 12.914 11.0369 12.7415 11.0219C12.5691 11.0069 12.4066 10.9544 12.2492 10.8644C12.0917 10.7744 11.9467 10.647 11.8143 10.4845C11.6718 10.3096 11.5669 10.1271 11.5044 9.93968C11.4419 9.75223 11.4194 9.56479 11.4369 9.37984C11.4544 9.19489 11.5169 9.01494 11.6168 8.83999C11.7168 8.66504 11.8543 8.50759 12.0292 8.36513C12.0767 8.32764 12.1242 8.29015 12.1742 8.25516C12.2242 8.22017 12.2742 8.19018 12.3216 8.16019C12.3691 8.1327 12.4166 8.10771 12.4616 8.08771C12.5066 8.06772 12.5441 8.05272 12.5791 8.04272L12.769 8.27266C12.6865 8.30265 12.5991 8.34514 12.5041 8.40012C12.4091 8.45261 12.3192 8.51509 12.2367 8.58257C12.1142 8.68254 12.0142 8.79501 11.9317 8.92497C11.8518 9.05243 11.7993 9.18739 11.7768 9.33235C11.7543 9.47731 11.7618 9.62477 11.8043 9.77972C11.8468 9.93468 11.9292 10.0871 12.0542 10.2396C12.1767 10.3895 12.3016 10.4995 12.4316 10.5745C12.5616 10.6495 12.694 10.6895 12.829 10.697C12.964 10.7045 13.0989 10.682 13.2364 10.627C13.3739 10.572 13.5088 10.4895 13.6413 10.3796C13.7038 10.3296 13.7612 10.2746 13.8162 10.2196C13.8712 10.1646 13.9162 10.1121 13.9537 10.0621L13.4313 9.42233L13.4288 9.42733Z" fill="white"/>
<path d="M16.0404 9.03983L14.6533 6.63553L14.9457 6.46558L16.3328 8.86988L16.0404 9.03983Z" fill="white"/>
<path d="M19.0024 7.61532L18.6874 7.73778L17.7877 5.43595L16.923 5.77335L16.813 5.48843L18.8549 4.69116L18.9649 4.97608L18.1001 5.31348L18.9999 7.61532H19.0024Z" fill="white"/>
<path d="M20.9864 6.93554L21.5687 3.99639L21.8561 3.94141L23.4931 6.45068L23.1333 6.52066L22.6484 5.76338L21.5087 5.98332L21.3413 6.86806L20.9839 6.93804L20.9864 6.93554ZM21.7911 4.39378C21.7362 4.75617 21.6787 5.08608 21.6212 5.38599L21.5687 5.66341L22.4709 5.48846L22.3185 5.25103C22.151 4.9911 21.9786 4.70369 21.7986 4.39128H21.7911V4.39378Z" fill="white"/>
<path d="M25.4453 3.56641L25.4853 6.03819L26.8399 6.0157L26.8449 6.32061L25.1529 6.3481L25.1079 3.5739L25.4453 3.56891V3.56641Z" fill="white"/>
<path d="M30.2515 6.75319L32.1084 4.40137L32.3883 4.48384L32.7032 7.46548L32.3509 7.36301L32.2659 6.46827L31.1512 6.14586L30.6014 6.85566L30.2515 6.75569V6.75319ZM32.1259 4.85624C31.911 5.15365 31.711 5.42107 31.5236 5.6635L31.3512 5.88594L32.2359 6.14087L32.2084 5.86095C32.1784 5.55353 32.1559 5.21863 32.1359 4.85874H32.1284L32.1259 4.85624Z" fill="white"/>
<path d="M35.4072 6.42564C35.3697 6.49812 35.3547 6.5656 35.3597 6.62808C35.3647 6.69056 35.3847 6.75054 35.4172 6.80553C35.4522 6.86301 35.4946 6.9155 35.5521 6.97048C35.6096 7.02547 35.6671 7.07795 35.7296 7.13044C35.8121 7.20291 35.8945 7.27789 35.972 7.35287C36.0495 7.42785 36.112 7.51033 36.1595 7.5978C36.207 7.68527 36.2319 7.78025 36.2344 7.88272C36.2369 7.98519 36.2069 8.10016 36.1445 8.22512C36.0795 8.35258 35.997 8.45005 35.902 8.52003C35.8046 8.58751 35.6996 8.63 35.5846 8.645C35.4672 8.65999 35.3447 8.6525 35.2122 8.6225C35.0798 8.59251 34.9448 8.54003 34.8049 8.47005C34.7399 8.43756 34.6774 8.40007 34.6149 8.35758C34.5524 8.31509 34.4925 8.27261 34.44 8.22762C34.385 8.18263 34.34 8.14014 34.2975 8.09766C34.255 8.05517 34.2275 8.01768 34.2075 7.98519L34.3475 7.71027C34.38 7.75525 34.42 7.80024 34.465 7.84773C34.5099 7.89521 34.5599 7.9402 34.6124 7.98269C34.6649 8.02518 34.7199 8.06766 34.7749 8.10515C34.8298 8.14264 34.8848 8.17513 34.9398 8.20263C35.0248 8.24761 35.1123 8.2826 35.1973 8.3076C35.2822 8.33259 35.3647 8.34259 35.4422 8.34009C35.5197 8.33759 35.5896 8.31259 35.6546 8.27011C35.7196 8.22762 35.7746 8.16264 35.8221 8.07266C35.8596 7.99768 35.877 7.9302 35.8695 7.86772C35.8645 7.80524 35.8446 7.74276 35.8096 7.68777C35.7746 7.63029 35.7296 7.57531 35.6746 7.52282C35.6196 7.47034 35.5596 7.41535 35.4947 7.36037C35.4097 7.28789 35.3297 7.21541 35.2522 7.14043C35.1748 7.06545 35.1123 6.98548 35.0648 6.898C35.0173 6.81053 34.9923 6.71805 34.9898 6.61808C34.9848 6.51811 35.0148 6.40814 35.0773 6.28818C35.1422 6.16321 35.2197 6.06574 35.3122 6.00076C35.4047 5.93328 35.5046 5.89079 35.6146 5.8733C35.7246 5.8558 35.837 5.8583 35.952 5.8808C36.0695 5.90579 36.1844 5.94578 36.2994 6.00576C36.4319 6.07324 36.5468 6.14822 36.6493 6.23319C36.7493 6.31567 36.8368 6.40314 36.9118 6.49312L36.7693 6.77304C36.6893 6.67807 36.6018 6.58809 36.5069 6.50562C36.4119 6.42314 36.3019 6.34816 36.1795 6.28318C36.087 6.23569 35.9995 6.2032 35.9195 6.18821C35.8395 6.17321 35.7671 6.17321 35.7021 6.18821C35.6371 6.2032 35.5796 6.23069 35.5296 6.27318C35.4797 6.31567 35.4397 6.36815 35.4047 6.43314L35.4072 6.42564Z" fill="white"/>
<path d="M38.7937 8.4526C38.7437 8.51758 38.7163 8.58006 38.7088 8.64254C38.7013 8.70502 38.7088 8.7675 38.7338 8.82749C38.7562 8.88997 38.7912 8.94995 38.8362 9.01493C38.8812 9.07742 38.9287 9.1399 38.9812 9.20488C39.0512 9.29235 39.1162 9.37983 39.1786 9.4673C39.2411 9.55728 39.2886 9.64725 39.3186 9.74222C39.3486 9.8372 39.3561 9.93467 39.3411 10.0371C39.3261 10.1396 39.2761 10.2471 39.1886 10.357C39.1012 10.472 39.0037 10.552 38.8962 10.602C38.7887 10.652 38.6763 10.6745 38.5613 10.667C38.4439 10.662 38.3239 10.632 38.1989 10.577C38.0739 10.522 37.9515 10.447 37.8265 10.352C37.769 10.3071 37.7141 10.2596 37.6591 10.2071C37.6041 10.1546 37.5541 10.0996 37.5091 10.0471C37.4641 9.99465 37.4266 9.94217 37.3941 9.89218C37.3617 9.8422 37.3392 9.80221 37.3267 9.76722L37.5141 9.52229C37.5391 9.57227 37.5691 9.62476 37.6066 9.67974C37.6441 9.73473 37.6841 9.78721 37.7266 9.8397C37.7716 9.89218 37.8165 9.94217 37.864 9.98965C37.9115 10.0371 37.9615 10.0796 38.0065 10.1146C38.084 10.1746 38.1614 10.2246 38.2414 10.2646C38.3214 10.3046 38.3989 10.3296 38.4764 10.3396C38.5513 10.3495 38.6263 10.3396 38.6988 10.3096C38.7712 10.2796 38.8362 10.2246 38.8987 10.1446C38.9487 10.0796 38.9787 10.0146 38.9837 9.94966C38.9887 9.88718 38.9812 9.8222 38.9587 9.75972C38.9362 9.69724 38.9012 9.63475 38.8562 9.57227C38.8112 9.50979 38.7613 9.44481 38.7088 9.37983C38.6388 9.29485 38.5713 9.20738 38.5088 9.1199C38.4464 9.03243 38.3989 8.94245 38.3689 8.84998C38.3389 8.75751 38.3314 8.66004 38.3439 8.56256C38.3589 8.46259 38.4064 8.36012 38.4888 8.25265C38.5738 8.14019 38.6688 8.06021 38.7713 8.01022C38.8737 7.96024 38.9812 7.93774 39.0912 7.93774C39.2011 7.93774 39.3111 7.96274 39.4211 8.00772C39.531 8.05271 39.6385 8.11519 39.741 8.19517C39.8584 8.28514 39.9584 8.38012 40.0434 8.48009C40.1284 8.58006 40.1984 8.68253 40.2533 8.7825L40.0634 9.02993C40.0009 8.92246 39.9309 8.81749 39.8535 8.72002C39.776 8.62255 39.681 8.53007 39.571 8.4426C39.4886 8.37762 39.4086 8.33263 39.3336 8.30264C39.2586 8.27265 39.1886 8.26015 39.1212 8.26265C39.0537 8.26265 38.9937 8.28264 38.9362 8.31514C38.8787 8.34763 38.8287 8.39261 38.7838 8.4501L38.7937 8.4526Z" fill="white"/>
<path d="M40.511 12.2714L41.4632 13.3286L41.2358 13.5335L40.0562 12.2264L42.1181 10.3669L43.2452 11.6166L43.0178 11.8215L42.1156 10.8218L41.4507 11.4216L42.253 12.3114L42.0256 12.5163L41.2233 11.6266L40.506 12.2739L40.511 12.2714Z" fill="white"/>
<path d="M42.8454 15.8455L42.668 15.5581L44.7724 14.2634L44.285 13.4737L44.5449 13.3137L45.6946 15.1807L45.4347 15.3406L44.9473 14.5509L42.8429 15.8455H42.8454Z" fill="white"/>
<path d="M19.0646 45.9294C19.162 46.3068 19.2345 46.6367 19.277 46.9191L19.2895 46.9241C19.4145 46.5367 19.512 46.2568 19.5769 46.0818L20.0768 44.7547L20.6141 44.9572L19.512 47.8888L18.9496 47.6764L18.5022 45.9694C18.4223 45.6719 18.3498 45.337 18.2873 44.9597L18.2748 44.9547C18.1573 45.3195 18.0623 45.602 17.9874 45.7994L17.4875 47.1265L16.9502 46.9241L18.0524 43.9924L18.6147 44.2049L19.0671 45.9294H19.0646Z" fill="white"/>
<path d="M23.4906 47.8638C23.5656 47.7013 23.6206 47.5838 23.6531 47.5139C23.6856 47.4439 23.7555 47.3014 23.8605 47.0865L24.5978 45.5994L25.2001 45.6619L23.6581 48.6485L23.1457 48.5961L22.251 45.3545L22.8583 45.417L23.2757 47.024C23.3357 47.2564 23.3731 47.4089 23.3906 47.4839C23.4081 47.5589 23.4381 47.6838 23.4781 47.8588H23.4881L23.4906 47.8638Z" fill="white"/>
<path d="M27.3448 48.7035L26.8975 45.6044L27.7172 45.4869C27.7897 45.4769 27.8647 45.4669 27.9397 45.4619C28.0146 45.4569 28.0896 45.4519 28.1621 45.4519C28.2346 45.4519 28.3046 45.4519 28.372 45.4569C28.4395 45.4594 28.5045 45.4669 28.562 45.4769C28.7344 45.5044 28.8919 45.5544 29.0294 45.6269C29.1693 45.6993 29.2893 45.7893 29.3942 45.8993C29.4992 46.0092 29.5817 46.1367 29.6467 46.2792C29.7116 46.4216 29.7566 46.5841 29.7841 46.759C29.8091 46.9265 29.8116 47.0839 29.7966 47.2364C29.7816 47.3888 29.7441 47.5288 29.6842 47.6613C29.6267 47.7937 29.5467 47.9112 29.4442 48.0212C29.3418 48.1286 29.2168 48.2236 29.0668 48.3061C28.9419 48.3736 28.7994 48.4335 28.637 48.481C28.4745 48.531 28.2871 48.5685 28.0796 48.5985L27.3423 48.7035H27.3448ZM28.0771 48.1136C28.4095 48.0661 28.662 47.9837 28.8369 47.8637C28.9894 47.7587 29.0993 47.6213 29.1618 47.4538C29.2243 47.2864 29.2393 47.0814 29.2043 46.839C29.1868 46.7115 29.1568 46.5991 29.1143 46.5016C29.0718 46.4041 29.0193 46.3192 28.9544 46.2467C28.8894 46.1742 28.8169 46.1167 28.7344 46.0692C28.6519 46.0242 28.5595 45.9868 28.4595 45.9643C28.367 45.9443 28.2646 45.9318 28.1546 45.9318C28.0446 45.9318 27.9222 45.9418 27.7872 45.9618L27.5373 45.9967L27.8472 48.1461L28.0821 48.1136H28.0771Z" fill="white"/>
<path d="M33.9224 46.1541L32.8352 46.609L32.8602 47.4637L32.2978 47.6987L32.2354 44.3296L32.7177 44.1272L35.0745 46.534L34.5147 46.7689L33.9224 46.1516V46.1541ZM32.7627 44.927C32.7877 45.2719 32.8052 45.5618 32.8102 45.7967L32.8202 46.0941L33.5675 45.7817L33.36 45.5668C33.1951 45.3943 33.0001 45.1794 32.7727 44.922H32.7652L32.7627 44.927Z" fill="white"/>
<path d="M11.7816 40.7158C11.7441 40.6783 11.7041 40.6508 11.6666 40.6308C11.6291 40.6108 11.5891 40.5983 11.5516 40.5933C11.5141 40.5883 11.4767 40.5908 11.4392 40.5983C11.4017 40.6058 11.3667 40.6208 11.3317 40.6408C11.3092 40.6533 11.2867 40.6683 11.2642 40.6883C11.2417 40.7083 11.2192 40.7283 11.2017 40.7483L10.5669 41.4031L10.4395 41.2781L11.0718 40.6258C11.0968 40.6008 11.1217 40.5758 11.1517 40.5533C11.1792 40.5283 11.2092 40.5083 11.2367 40.4909C11.2842 40.4609 11.3342 40.4409 11.3867 40.4259C11.4392 40.4134 11.4917 40.4084 11.5491 40.4159C11.6066 40.4234 11.6616 40.4409 11.7191 40.4709C11.7766 40.5008 11.8365 40.5458 11.8965 40.6033C11.954 40.6583 11.999 40.7158 12.0315 40.7708C12.064 40.8258 12.084 40.8807 12.094 40.9332C12.104 40.9857 12.104 41.0382 12.094 41.0882C12.084 41.1382 12.0665 41.1857 12.044 41.2331C12.0265 41.2681 12.004 41.3006 11.979 41.3331C11.954 41.3656 11.9265 41.3981 11.899 41.4256L11.2667 42.0779L11.1393 41.9529L11.7741 41.2981C11.7966 41.2756 11.819 41.2481 11.839 41.2206C11.859 41.1931 11.8766 41.1657 11.889 41.1382C11.919 41.0682 11.929 40.9982 11.914 40.9282C11.899 40.8582 11.8565 40.7883 11.7866 40.7183L11.7816 40.7158Z" fill="white"/>
<path d="M9.82715 40.0263C9.85965 39.9988 9.88214 39.9688 9.89214 39.9363C9.90214 39.9038 9.90461 39.8713 9.89961 39.8363C9.89461 39.8013 9.88462 39.7663 9.86712 39.7289C9.85213 39.6914 9.83214 39.6539 9.81465 39.6139C9.78965 39.5614 9.76465 39.5089 9.74216 39.4564C9.71966 39.4039 9.70719 39.3515 9.70219 39.299C9.69719 39.2465 9.70218 39.194 9.72468 39.144C9.74467 39.094 9.78215 39.044 9.83963 38.9966C9.89712 38.9466 9.95709 38.9166 10.0196 38.9041C10.0821 38.8916 10.1421 38.8916 10.202 38.9091C10.262 38.9266 10.322 38.9541 10.3795 38.9966C10.437 39.0391 10.492 39.0915 10.5469 39.154C10.5719 39.184 10.5944 39.214 10.6169 39.249C10.6394 39.284 10.6594 39.3165 10.6744 39.349C10.6894 39.3815 10.7044 39.4139 10.7169 39.4414C10.7269 39.4714 10.7344 39.4939 10.7369 39.5139L10.6119 39.6189C10.6044 39.5889 10.5944 39.5589 10.5819 39.5264C10.5694 39.4939 10.5544 39.4614 10.5369 39.4289C10.5194 39.3964 10.502 39.3665 10.482 39.3365C10.462 39.3065 10.442 39.279 10.422 39.254C10.3895 39.214 10.3545 39.179 10.317 39.149C10.2795 39.119 10.242 39.0965 10.2045 39.084C10.1671 39.069 10.127 39.0665 10.0871 39.074C10.0471 39.0815 10.0071 39.1015 9.9646 39.1365C9.93211 39.164 9.90961 39.194 9.89961 39.2265C9.88962 39.259 9.88714 39.2915 9.89214 39.3265C9.89714 39.3615 9.90714 39.3989 9.92463 39.4364C9.93963 39.4739 9.95961 39.5114 9.97961 39.5514C10.0071 39.6039 10.0296 39.6564 10.0521 39.7089C10.0746 39.7613 10.0871 39.8138 10.0921 39.8638C10.0971 39.9163 10.0921 39.9663 10.0721 40.0163C10.0521 40.0663 10.0171 40.1137 9.9621 40.1587C9.90461 40.2062 9.84714 40.2387 9.78716 40.2512C9.72967 40.2637 9.66968 40.2662 9.61469 40.2512C9.55721 40.2387 9.50475 40.2137 9.45226 40.1787C9.39978 40.1437 9.35227 40.0987 9.30729 40.0463C9.2573 39.9863 9.21481 39.9263 9.18482 39.8638C9.15233 39.8013 9.12736 39.7413 9.10986 39.6839L9.23733 39.5764C9.25732 39.6389 9.2798 39.7014 9.30979 39.7613C9.33978 39.8213 9.37729 39.8788 9.42477 39.9363C9.45976 39.9788 9.49724 40.0113 9.53223 40.0363C9.56722 40.0588 9.60222 40.0763 9.63721 40.0812C9.6722 40.0887 9.70469 40.0863 9.73718 40.0763C9.76968 40.0663 9.80214 40.0488 9.83213 40.0238L9.82715 40.0263Z" fill="white"/>
<path d="M7.55768 37.5794L8.67735 36.9046L8.30746 36.2898L8.44493 36.2073L8.90729 36.9746L7.64765 37.7318L7.55518 37.5794H7.55768Z" fill="white"/>
<path d="M8.05235 35.4949L6.46782 35.5799L6.40283 35.4399L7.47503 34.2703L7.5575 34.4452L7.23261 34.7926L7.49502 35.3475L7.96988 35.3175L8.05235 35.4924V35.4949ZM6.64278 35.4149C6.83523 35.3949 7.01268 35.3824 7.17263 35.3724L7.32008 35.3625L7.11265 34.9226L7.01017 35.0325C6.8977 35.1525 6.77524 35.2775 6.63778 35.4124V35.4174L6.64278 35.4149Z" fill="white"/>
<path d="M6.51073 33.4606L7.08554 33.2607L7.14552 33.4307L5.75844 33.9155L5.63348 33.5556C5.61348 33.4956 5.59597 33.4432 5.58598 33.3982C5.57598 33.3532 5.56849 33.3132 5.56599 33.2732C5.5585 33.1682 5.57848 33.0783 5.62347 33.0058C5.66846 32.9333 5.73843 32.8783 5.8334 32.8458C5.88839 32.8258 5.94337 32.8183 5.99336 32.8208C6.04335 32.8208 6.09085 32.8358 6.13584 32.8558C6.18082 32.8758 6.22081 32.9058 6.2558 32.9458C6.29329 32.9833 6.32578 33.0283 6.35327 33.0808H6.35828L6.80813 32.4609L6.86811 32.6309L6.44324 33.2582L6.51573 33.4631L6.51073 33.4606ZM5.84841 33.6906L6.35577 33.5131L6.2983 33.3457C6.2808 33.2932 6.26328 33.2507 6.24579 33.2157C6.23079 33.1807 6.21081 33.1507 6.19331 33.1232C6.15583 33.0708 6.11083 33.0358 6.06085 33.0183C6.01086 33.0008 5.95339 33.0033 5.88841 33.0233C5.82843 33.0458 5.78594 33.0758 5.76094 33.1182C5.73595 33.1607 5.72345 33.2107 5.72595 33.2682C5.72595 33.2957 5.73093 33.3282 5.74093 33.3632C5.74843 33.3982 5.76343 33.4432 5.78093 33.4956L5.84841 33.6881V33.6906Z" fill="white"/>
<path d="M5.73344 30.7039L5.8084 31.0313L5.65094 31.0687L5.53598 30.5689L6.22829 30.4089C6.24079 30.4214 6.25329 30.4414 6.26829 30.4689C6.28328 30.4964 6.29826 30.5264 6.31326 30.5639C6.32825 30.5989 6.34326 30.6389 6.35826 30.6789C6.37325 30.7213 6.38325 30.7613 6.39325 30.8038C6.42074 30.9263 6.43073 31.0388 6.41824 31.1412C6.40574 31.2437 6.37825 31.3312 6.33077 31.4111C6.28328 31.4886 6.2208 31.5536 6.14082 31.6086C6.06084 31.6611 5.96587 31.7011 5.8584 31.7261C5.74093 31.7535 5.63095 31.7585 5.52598 31.746C5.42101 31.7336 5.32854 31.6986 5.24606 31.6461C5.16358 31.5936 5.09111 31.5236 5.03113 31.4361C4.97114 31.3487 4.92865 31.2462 4.90116 31.1287C4.89366 31.0987 4.88867 31.0662 4.88368 31.0338C4.87868 31.0013 4.87617 30.9713 4.87367 30.9413C4.87367 30.9113 4.87117 30.8838 4.87367 30.8588C4.87367 30.8338 4.87617 30.8113 4.87867 30.7938L5.03363 30.7588C5.02863 30.8038 5.02863 30.8563 5.03363 30.9138C5.03613 30.9713 5.04612 31.0288 5.05861 31.0837C5.07861 31.1662 5.1086 31.2387 5.14858 31.3087C5.19107 31.3762 5.24356 31.4336 5.30604 31.4786C5.36852 31.5236 5.441 31.5536 5.52598 31.5711C5.61095 31.5886 5.70092 31.5836 5.80339 31.5611C5.90336 31.5386 5.98587 31.5036 6.05085 31.4586C6.11583 31.4136 6.16581 31.3612 6.2008 31.2987C6.23579 31.2362 6.25578 31.1662 6.26328 31.0887C6.26828 31.0113 6.26326 30.9263 6.24077 30.8388C6.23077 30.7963 6.2208 30.7563 6.2058 30.7188C6.19331 30.6789 6.1783 30.6464 6.16331 30.6164L5.73844 30.7138L5.73344 30.7039Z" fill="white"/>
<path d="M5.91348 29.2067L5.82101 28.4594L5.98096 28.4395L6.09592 29.3642L4.63635 29.5441L4.52637 28.6594L4.68632 28.6394L4.77379 29.3467L5.24366 29.2892L5.1662 28.6594L5.32615 28.6394L5.40362 29.2692L5.91098 29.2067H5.91348Z" fill="white"/>
<path d="M4.57099 25.6302C4.57099 25.7126 4.57849 25.7901 4.60348 25.8626C4.62847 25.9351 4.66345 25.9976 4.71343 26.0525C4.76342 26.1075 4.8259 26.15 4.90088 26.1825C4.97586 26.215 5.06584 26.2325 5.16582 26.235C5.26579 26.2375 5.35575 26.2275 5.43072 26.2C5.5057 26.175 5.56818 26.135 5.61817 26.085C5.66815 26.035 5.70566 25.9726 5.73316 25.9001C5.75815 25.8276 5.77313 25.7476 5.77563 25.6577C5.77563 25.6327 5.77563 25.6077 5.77563 25.5802C5.77563 25.5527 5.77065 25.5252 5.76815 25.4977C5.76315 25.4702 5.76064 25.4427 5.75314 25.4152C5.74814 25.3877 5.74066 25.3652 5.73566 25.3452L5.89311 25.3502C5.90811 25.3927 5.92058 25.4452 5.92808 25.5027C5.93558 25.5602 5.93808 25.6177 5.93558 25.6777C5.93308 25.8001 5.91059 25.9076 5.8756 26.0001C5.83811 26.0925 5.78813 26.1725 5.72315 26.2325C5.65817 26.295 5.5782 26.34 5.48573 26.37C5.39326 26.3999 5.28829 26.4124 5.17082 26.4099C5.05585 26.4074 4.95088 26.3874 4.85841 26.3475C4.76344 26.31 4.68344 26.2575 4.61596 26.19C4.54848 26.1225 4.49849 26.0425 4.461 25.9476C4.42351 25.8526 4.40853 25.7476 4.41353 25.6327C4.41353 25.6027 4.41604 25.5727 4.42104 25.5427C4.42603 25.5127 4.42852 25.4852 4.43351 25.4577C4.43851 25.4302 4.44603 25.4052 4.45353 25.3827C4.46103 25.3602 4.46851 25.3402 4.47601 25.3228L4.63347 25.3278C4.61847 25.3727 4.60347 25.4202 4.59347 25.4727C4.58347 25.5252 4.57599 25.5777 4.57349 25.6302H4.57099Z" fill="white"/>
<path d="M5.98062 24.5181L4.60352 23.7283L4.6235 23.5759L6.16056 23.1785L6.13557 23.3709L5.67321 23.4859L5.59072 24.0957L6.00561 24.3281L5.98062 24.5181ZM4.84093 23.6858C5.01339 23.7758 5.17084 23.8608 5.3108 23.9382L5.44077 24.0107L5.50575 23.5284L5.3608 23.5659C5.20085 23.6058 5.02838 23.6433 4.84093 23.6808V23.6858Z" fill="white"/>
<path d="M6.38315 22.1112L6.34065 22.2862L4.91357 21.9388L5.00855 21.5439C5.02354 21.4839 5.03853 21.4314 5.05852 21.3839C5.07852 21.3364 5.10101 21.2915 5.12601 21.254C5.17849 21.1765 5.23847 21.1215 5.31095 21.094C5.38343 21.064 5.46343 21.0615 5.5509 21.0815C5.62338 21.099 5.68336 21.129 5.73084 21.1715C5.77833 21.214 5.8158 21.2665 5.83829 21.3315C5.86079 21.3939 5.87329 21.4689 5.87329 21.5514C5.87329 21.6339 5.86079 21.7263 5.83579 21.8263C5.8233 21.8738 5.81082 21.9238 5.79333 21.9738L6.38065 22.1162L6.38315 22.1112ZM5.63587 21.9288C5.64337 21.9063 5.65336 21.8813 5.66086 21.8563C5.66835 21.8313 5.67584 21.8063 5.68084 21.7838C5.70083 21.7013 5.71083 21.6314 5.71333 21.5689C5.71333 21.5089 5.70834 21.4564 5.69085 21.4139C5.67585 21.3714 5.65085 21.3389 5.62086 21.314C5.59087 21.289 5.55089 21.2715 5.5059 21.2615C5.45092 21.249 5.40094 21.2515 5.35845 21.269C5.31597 21.2865 5.28096 21.319 5.24847 21.3639C5.22847 21.3914 5.21349 21.4239 5.1985 21.4639C5.1835 21.5039 5.17099 21.5489 5.1585 21.6014L5.10853 21.8038L5.63337 21.9313L5.63587 21.9288Z" fill="white"/>
<path d="M13.4783 43.2501L14.0181 43.675L13.3308 43.645L13.0934 44.2898L12.9109 43.6275L12.2236 43.6L12.796 43.2201L12.6085 42.5603L13.1459 42.9877L13.7182 42.6053L13.4783 43.2501Z" fill="#77B900"/>
<path d="M6.44807 17.8873L7.41028 17.8399L6.658 18.4397L7.0004 19.3394L6.19564 18.8096L5.44586 19.4119L5.70079 18.4847L4.896 17.9573L5.85824 17.9148L6.11067 16.9851L6.44807 17.8873Z" fill="#77B900"/>
<path d="M39.0013 43.2501L38.4614 43.675L39.1462 43.645L39.3837 44.2898L39.5686 43.6275L40.2559 43.6L39.6836 43.2201L39.8685 42.5603L39.3312 42.9877L38.7613 42.6053L39.0013 43.2501Z" fill="#77B900"/>
<path d="M46.0291 17.8873L45.0669 17.8399L45.8217 18.4397L45.4793 19.3394L46.2815 18.8096L47.0338 19.4119L46.7764 18.4847L47.5837 17.9573L46.6214 17.9148L46.369 16.9851L46.0291 17.8873Z" fill="#77B900"/>
<path d="M45.9591 22.2163C45.9716 22.2688 45.9866 22.3138 46.0091 22.3512C46.0291 22.3887 46.0541 22.4212 46.0841 22.4462C46.1141 22.4712 46.1441 22.4912 46.1816 22.5037C46.219 22.5162 46.254 22.5237 46.2965 22.5262C46.3215 22.5262 46.349 22.5262 46.379 22.5262C46.409 22.5237 46.4365 22.5187 46.464 22.5112L47.3537 22.3138L47.3912 22.4887L46.5065 22.6836C46.474 22.6911 46.4365 22.6961 46.399 22.7011C46.3615 22.7061 46.3265 22.7086 46.294 22.7061C46.239 22.7061 46.184 22.6936 46.1341 22.6761C46.0841 22.6587 46.0366 22.6312 45.9941 22.5962C45.9516 22.5612 45.9141 22.5137 45.8817 22.4562C45.8492 22.3987 45.8242 22.3287 45.8067 22.2488C45.7892 22.1688 45.7817 22.0988 45.7867 22.0363C45.7917 21.9739 45.8041 21.9164 45.8241 21.8689C45.8441 21.8189 45.8741 21.7764 45.9091 21.7414C45.9441 21.7039 45.9866 21.6739 46.0316 21.6489C46.0641 21.6315 46.1016 21.614 46.1416 21.6015C46.1815 21.589 46.2215 21.5765 46.259 21.569L47.1438 21.374L47.1813 21.549L46.2915 21.7464C46.259 21.7539 46.2266 21.7639 46.1941 21.7764C46.1616 21.7889 46.1316 21.8039 46.1066 21.8189C46.0416 21.8589 45.9966 21.9139 45.9691 21.9789C45.9416 22.0463 45.9391 22.1263 45.9591 22.2238V22.2163Z" fill="white"/>
<path d="M47.2091 23.8707C47.1666 23.8757 47.1316 23.8882 47.1067 23.9082C47.0817 23.9281 47.0592 23.9556 47.0442 23.9856C47.0292 24.0156 47.0192 24.0531 47.0117 24.0931C47.0042 24.1331 46.9992 24.1756 46.9917 24.2181C46.9842 24.2755 46.9742 24.333 46.9642 24.3905C46.9542 24.448 46.9367 24.498 46.9117 24.5455C46.8867 24.593 46.8517 24.6304 46.8093 24.6629C46.7643 24.6954 46.7068 24.7154 46.6318 24.7229C46.5568 24.7329 46.4893 24.7229 46.4319 24.7029C46.3744 24.6804 46.3244 24.6454 46.2819 24.6005C46.2419 24.553 46.2069 24.4955 46.1819 24.4305C46.1569 24.363 46.1395 24.288 46.132 24.2056C46.127 24.1681 46.127 24.1281 46.127 24.0881C46.127 24.0481 46.1269 24.0081 46.1344 23.9731C46.1394 23.9356 46.1444 23.9032 46.1519 23.8732C46.1594 23.8432 46.1669 23.8182 46.1744 23.8007L46.3369 23.7832C46.3269 23.8107 46.3169 23.8407 46.3119 23.8757C46.3044 23.9106 46.2994 23.9456 46.2944 23.9806C46.2894 24.0156 46.2894 24.0531 46.2894 24.0881C46.2894 24.1231 46.2894 24.1581 46.2944 24.1881C46.2994 24.2381 46.3094 24.288 46.3244 24.333C46.3394 24.378 46.3569 24.418 46.3819 24.4505C46.4069 24.483 46.4369 24.508 46.4744 24.523C46.5118 24.538 46.5568 24.5455 46.6093 24.538C46.6518 24.533 46.6868 24.5205 46.7143 24.498C46.7418 24.4755 46.7618 24.4505 46.7768 24.418C46.7918 24.3855 46.8043 24.3505 46.8093 24.3105C46.8167 24.2705 46.8217 24.2281 46.8292 24.1831C46.8367 24.1256 46.8442 24.0681 46.8542 24.0106C46.8642 23.9556 46.8817 23.9032 46.9067 23.8582C46.9317 23.8132 46.9642 23.7732 47.0067 23.7432C47.0492 23.7132 47.1067 23.6932 47.1791 23.6857C47.2541 23.6782 47.3191 23.6857 47.3741 23.7057C47.4316 23.7257 47.479 23.7582 47.519 23.8007C47.559 23.8432 47.5915 23.8932 47.614 23.9531C47.6365 24.0106 47.654 24.0756 47.6615 24.1431C47.6715 24.2206 47.6715 24.2955 47.6615 24.363C47.6515 24.4305 47.6415 24.4955 47.624 24.5555L47.4591 24.573C47.4791 24.5105 47.4916 24.4455 47.5016 24.378C47.5116 24.313 47.5116 24.2431 47.5016 24.1681C47.4966 24.1131 47.4841 24.0656 47.4666 24.0256C47.4491 23.9856 47.4291 23.9531 47.4041 23.9306C47.3791 23.9057 47.3491 23.8882 47.3166 23.8807C47.2841 23.8707 47.2466 23.8682 47.2091 23.8732V23.8707Z" fill="white"/>
<path d="M47.751 27.1647L46.4439 27.1122L46.4139 27.8295L46.2515 27.822L46.289 26.9272L47.7585 26.9872L47.751 27.1647Z" fill="white"/>
<path d="M46.189 28.6268L47.5586 29.4265L47.5361 29.579L45.9966 29.9639L46.0241 29.7714L46.4864 29.659L46.5739 29.0516L46.1615 28.8142L46.189 28.6243V28.6268ZM47.3237 29.469C47.1512 29.3791 46.9963 29.2941 46.8563 29.2116L46.7264 29.1366L46.6589 29.619L46.8038 29.584C46.9638 29.5465 47.1362 29.509 47.3237 29.4715V29.4665V29.469Z" fill="white"/>
<path d="M46.3563 31.1835L45.7665 31.0335L45.8115 30.8611L47.236 31.221L47.1436 31.5909C47.1286 31.6534 47.1111 31.7058 47.0961 31.7483C47.0811 31.7908 47.0636 31.8283 47.0436 31.8633C46.9911 31.9558 46.9261 32.0207 46.8487 32.0557C46.7712 32.0907 46.6837 32.0982 46.5862 32.0732C46.5287 32.0582 46.4788 32.0357 46.4388 32.0058C46.3988 31.9758 46.3663 31.9408 46.3413 31.8983C46.3163 31.8558 46.2988 31.8108 46.2888 31.7583C46.2788 31.7058 46.2763 31.6509 46.2813 31.5909H46.2763L45.5615 31.8583L45.6065 31.6858L46.3063 31.3959L46.3588 31.186L46.3563 31.1835ZM47.0361 31.3534L46.5137 31.221L46.4713 31.3934C46.4588 31.4459 46.4488 31.4934 46.4413 31.5309C46.4363 31.5684 46.4338 31.6059 46.4338 31.6359C46.4363 31.7008 46.4538 31.7558 46.4862 31.7983C46.5187 31.8408 46.5662 31.8708 46.6337 31.8883C46.6962 31.9033 46.7487 31.9008 46.7937 31.8783C46.8386 31.8583 46.8761 31.8208 46.9061 31.7708C46.9211 31.7483 46.9336 31.7183 46.9461 31.6833C46.9586 31.6484 46.9711 31.6034 46.9861 31.5484L47.0361 31.3509V31.3534Z" fill="white"/>
<path d="M45.4914 33.9103L45.6088 33.5954L45.7613 33.6503L45.5838 34.1327L44.9165 33.8853C44.9165 33.8678 44.9165 33.8428 44.9165 33.8128C44.9165 33.7828 44.924 33.7478 44.929 33.7103C44.934 33.6728 44.944 33.6328 44.954 33.5904C44.964 33.5479 44.979 33.5079 44.9915 33.4679C45.0365 33.3504 45.089 33.2505 45.1565 33.173C45.2214 33.0955 45.2964 33.0355 45.3764 32.9955C45.4589 32.9555 45.5463 32.9355 45.6438 32.9355C45.7388 32.9355 45.8388 32.953 45.9437 32.993C46.0562 33.0355 46.1511 33.0905 46.2311 33.158C46.3111 33.228 46.3711 33.3054 46.4111 33.3954C46.4511 33.4854 46.4736 33.5829 46.4736 33.6903C46.4736 33.7978 46.4536 33.9053 46.4136 34.0177C46.4036 34.0477 46.3911 34.0777 46.3761 34.1077C46.3636 34.1377 46.3486 34.1652 46.3336 34.1902C46.3186 34.2152 46.3036 34.2402 46.2886 34.2602C46.2736 34.2802 46.2611 34.2977 46.2461 34.3126L46.0987 34.2577C46.1287 34.2227 46.1562 34.1777 46.1862 34.1277C46.2161 34.0777 46.2386 34.0252 46.2586 33.9727C46.2886 33.8953 46.3036 33.8153 46.3061 33.7353C46.3086 33.6553 46.2961 33.5804 46.2686 33.5079C46.2411 33.4354 46.1961 33.3704 46.1362 33.3104C46.0762 33.2505 45.9962 33.203 45.8987 33.168C45.8038 33.133 45.7163 33.1155 45.6363 33.1155C45.5563 33.1155 45.4863 33.133 45.4214 33.1655C45.3589 33.198 45.3014 33.2455 45.2539 33.3054C45.2064 33.3679 45.1664 33.4404 45.1339 33.5279C45.1189 33.5679 45.1065 33.6079 45.0965 33.6478C45.0865 33.6878 45.079 33.7253 45.0765 33.7578L45.4863 33.9103H45.4914Z" fill="white"/>
<path d="M44.5145 35.0625L44.1796 35.7373L44.0347 35.6648L44.4495 34.8301L45.7667 35.4824L45.3718 36.2822L45.2268 36.2097L45.5442 35.5724L45.1193 35.3624L44.8369 35.9298L44.692 35.8573L44.9744 35.2899L44.517 35.0625H44.5145Z" fill="white"/>
<path d="M43.6645 38.7863C43.712 38.7189 43.7444 38.6489 43.7644 38.5739C43.7844 38.5014 43.7894 38.4265 43.7769 38.354C43.7645 38.2815 43.737 38.2115 43.692 38.1415C43.647 38.0716 43.582 38.0091 43.4995 37.9491C43.4171 37.8916 43.3371 37.8516 43.2596 37.8316C43.1821 37.8116 43.1097 37.8091 43.0397 37.8241C42.9697 37.8391 42.9047 37.8691 42.8422 37.9141C42.7797 37.9591 42.7247 38.0191 42.6723 38.094C42.6573 38.114 42.6448 38.1365 42.6298 38.159C42.6148 38.184 42.6023 38.209 42.5898 38.234C42.5773 38.259 42.5673 38.284 42.5573 38.309C42.5473 38.334 42.5398 38.3565 42.5323 38.379L42.4023 38.289C42.4123 38.244 42.4323 38.1965 42.4573 38.144C42.4823 38.0915 42.5123 38.0416 42.5473 37.9916C42.6173 37.8916 42.6948 37.8141 42.7772 37.7541C42.8597 37.6967 42.9447 37.6592 43.0347 37.6442C43.1246 37.6292 43.2146 37.6342 43.3096 37.6592C43.4046 37.6842 43.497 37.7317 43.5945 37.7991C43.687 37.8641 43.7644 37.9391 43.8219 38.0241C43.8794 38.109 43.9194 38.1965 43.9369 38.289C43.9544 38.3815 43.9544 38.4789 43.9319 38.5764C43.9094 38.6739 43.8644 38.7714 43.7969 38.8663C43.7794 38.8913 43.7594 38.9163 43.742 38.9388C43.7245 38.9613 43.702 38.9838 43.6845 39.0038C43.6645 39.0238 43.6445 39.0413 43.627 39.0563C43.607 39.0713 43.5895 39.0838 43.5745 39.0938L43.4446 39.0038C43.482 38.9763 43.5195 38.9438 43.5595 38.9063C43.597 38.8688 43.632 38.8288 43.6645 38.7863Z" fill="white"/>
<path d="M41.8776 38.9314L42.5898 40.3485L42.4874 40.466L40.9878 39.9486L41.1153 39.8011L41.5651 39.9611L41.97 39.4987L41.7526 39.0764L41.8801 38.9314H41.8776ZM42.3674 40.256C42.2724 40.0861 42.1899 39.9286 42.115 39.7861L42.0475 39.6537L41.7276 40.0211L41.8675 40.0711C42.0225 40.1261 42.1874 40.1885 42.3649 40.261H42.3674V40.256Z" fill="white"/>
<path d="M40.2134 40.7184L40.3433 40.5959L41.3431 41.6731L41.0456 41.9506C41.0006 41.9905 40.9582 42.028 40.9157 42.058C40.8732 42.088 40.8307 42.1105 40.7882 42.1305C40.7032 42.168 40.6208 42.178 40.5458 42.163C40.4708 42.148 40.4008 42.108 40.3383 42.0405C40.2884 41.9856 40.2534 41.9281 40.2359 41.8656C40.2184 41.8031 40.2184 41.7406 40.2359 41.6731C40.2509 41.6057 40.2808 41.5382 40.3283 41.4707C40.3733 41.4007 40.4358 41.3307 40.5108 41.2633C40.5458 41.2308 40.5858 41.1958 40.6258 41.1633L40.2134 40.7209V40.7184ZM40.7357 41.2808C40.7157 41.2957 40.6957 41.3107 40.6757 41.3282C40.6557 41.3457 40.6358 41.3607 40.6208 41.3782C40.5583 41.4357 40.5108 41.4907 40.4758 41.5382C40.4408 41.5882 40.4183 41.6356 40.4083 41.6781C40.3983 41.7231 40.3983 41.7631 40.4108 41.8006C40.4233 41.8381 40.4458 41.8731 40.4758 41.9081C40.5158 41.9506 40.5558 41.9756 40.6008 41.983C40.6458 41.9905 40.6932 41.9831 40.7432 41.9656C40.7732 41.9531 40.8057 41.9331 40.8407 41.9106C40.8732 41.8856 40.9107 41.8556 40.9507 41.8181L41.1031 41.6756L40.7357 41.2808Z" fill="white"/>
<path d="M25.5909 22.8035C26.1482 23.041 26.998 23.5208 27.7978 24.5355C27.0755 25.1729 26.3532 25.8127 25.6284 26.45C25.1785 25.0129 23.9739 24.0057 22.6143 23.8732V28.5444C23.5165 28.8418 24.2963 28.7143 24.7686 28.6319C27.2154 28.2095 28.88 26.345 29.6997 25.2104C29.9747 24.828 29.9421 24.3056 29.6197 23.9632C28.67 22.9535 26.5107 21.109 23.2916 20.9866C23.0616 20.9766 22.8367 20.9791 22.6168 20.9866V22.4187C23.659 22.2912 24.6737 22.4112 25.5909 22.8011V22.8035Z" fill="#77B900"/>
<path d="M37.3395 17.3826H22.6162V19.7519C24.0358 19.6644 25.4504 19.8144 26.8125 20.2267C29.4517 21.024 31.2762 22.6136 32.3559 23.7957C32.6858 24.1556 32.6958 24.703 32.3859 25.0803C29.4643 28.6468 25.6178 30.2389 22.6162 29.799V31.1661C26.715 31.7284 30.6314 29.1917 31.2762 28.7743C32.5334 27.9595 33.4256 27.0823 33.9929 26.4525C35.0151 27.0448 36.0398 27.6346 37.0621 28.2269C35.8074 29.1492 33.7355 30.4663 30.9238 31.3535C29.2518 31.8809 26.0502 32.8881 22.6162 32.4807V34.6201H37.3395C38.2592 34.6201 39.0065 33.8753 39.0065 32.9531V19.0496C39.0065 18.1299 38.2617 17.3826 37.3395 17.3826Z" fill="#77B900"/>
<path d="M22.5888 28.5344C20.5069 27.8296 19.7721 25.5277 19.6596 25.1554C19.7896 24.9979 20.8193 23.8032 22.4188 23.8607C22.4863 23.8632 22.5513 23.8682 22.6163 23.8732V22.4211C21.0967 22.6061 19.5247 23.3184 18.1226 24.4731C17.7977 24.743 17.6752 25.1878 17.8252 25.5827C18.7424 27.982 20.1895 28.8868 20.6719 29.1542C21.2592 29.4791 21.914 29.694 22.6163 29.7965V28.5444C22.6163 28.5444 22.5963 28.5369 22.5888 28.5344Z" fill="#77B900"/>
<path d="M19.9818 30.3214C17.1526 28.8268 15.9855 26.0151 15.5731 24.8155C15.7755 24.5356 18.2898 21.159 22.6135 20.9866V19.752C19.312 19.9569 15.993 21.459 13.2937 24.0057C12.9938 24.2881 12.9064 24.733 13.0738 25.1104C13.8736 26.9299 15.3257 29.2792 17.9099 30.8712C19.4445 31.816 21.054 32.2933 22.6135 32.4783V31.1637C21.7338 31.0437 20.8466 30.7788 19.9793 30.3214H19.9818Z" fill="#77B900"/>
</svg>
