<svg width="52" height="52" viewBox="0 0 52 52" fill="none" xmlns="http://www.w3.org/2000/svg">
<path d="M26.0004 52C40.3598 52 52.0005 40.3594 52.0005 26C52.0005 11.6406 40.3598 0 26.0004 0C11.641 0 0.000488281 11.6406 0.000488281 26C0.000488281 40.3594 11.641 52 26.0004 52Z" fill="#013AA1"/>
<path d="M26.0001 44.1522C15.9905 44.1522 7.8479 36.0095 7.8479 25.9999C7.8479 15.9903 15.9905 7.84766 26.0001 7.84766C36.0097 7.84766 44.1524 15.9903 44.1524 25.9999C44.1524 36.0095 36.0097 44.1522 26.0001 44.1522ZM26.0001 8.35251C16.2704 8.35251 8.35276 16.2677 8.35276 25.9999C8.35276 35.7321 16.2704 43.6473 26.0001 43.6473C35.7298 43.6473 43.6475 35.7296 43.6475 25.9999C43.6475 16.2702 35.7298 8.35251 26.0001 8.35251Z" fill="#1A9EDC"/>
<path d="M26.0002 50.6206C22.6787 50.6206 19.4546 49.9683 16.4155 48.6836C13.4838 47.444 10.8496 45.6695 8.59277 43.4101C6.33342 41.1508 4.55891 38.5191 3.31926 35.5874C2.03464 32.5483 1.38232 29.3217 1.38232 26.0027C1.38232 22.6836 2.03464 19.4571 3.31926 16.4179C4.55891 13.4863 6.33342 10.852 8.59277 8.59519C10.8521 6.33584 13.4838 4.56135 16.4155 3.32171C19.4546 2.03708 22.6812 1.38477 26.0002 1.38477C29.3193 1.38477 32.5458 2.03708 35.585 3.32171C38.5166 4.56135 41.1508 6.33584 43.4077 8.59519C45.667 10.8545 47.4415 13.4863 48.6812 16.4179C49.9658 19.4571 50.6181 22.6836 50.6181 26.0027C50.6181 29.3217 49.9658 32.5483 48.6812 35.5874C47.4415 38.5191 45.667 41.1533 43.4077 43.4101C41.1483 45.6695 38.5166 47.444 35.585 48.6836C32.5458 49.9683 29.3193 50.6206 26.0002 50.6206ZM26.0002 1.74716C22.7287 1.74716 19.5521 2.38948 16.558 3.65661C13.6688 4.87876 11.077 6.62575 8.85014 8.85011C6.62578 11.0745 4.87634 13.6687 3.65669 16.5579C2.38956 19.552 1.74721 22.7286 1.74721 26.0002C1.74721 29.2717 2.38956 32.4483 3.65669 35.4424C4.87884 38.3316 6.62578 40.9234 8.85014 43.1502C11.0745 45.3746 13.6688 47.1241 16.558 48.3437C19.5521 49.6109 22.7287 50.2532 26.0002 50.2532C29.2718 50.2532 32.4484 49.6109 35.4426 48.3437C38.3317 47.1216 40.9234 45.3746 43.1503 43.1502C45.3746 40.9259 47.1241 38.3316 48.3437 35.4424C49.6109 32.4483 50.2532 29.2717 50.2532 26.0002C50.2532 22.7286 49.6109 19.552 48.3437 16.5579C47.1216 13.6687 45.3746 11.077 43.1503 8.85011C40.9259 6.62575 38.3317 4.87626 35.4426 3.65661C32.4484 2.38948 29.2718 1.74716 26.0002 1.74716Z" fill="#1A9EDC"/>
<path d="M8.78753 13.7959C8.92499 13.8808 9.04256 13.9808 9.14253 14.0908C9.2425 14.2008 9.31746 14.3207 9.37244 14.4482C9.42493 14.5781 9.45488 14.7156 9.46238 14.8631C9.46738 15.0105 9.44738 15.163 9.3999 15.3254C9.37241 15.4179 9.33493 15.5129 9.28494 15.6103C9.23746 15.7078 9.17749 15.8078 9.11251 15.9153L8.77752 16.4476L6.42822 14.968L6.76565 14.4307C6.83313 14.3232 6.90056 14.2282 6.96554 14.1433C7.03302 14.0583 7.10052 13.9833 7.173 13.9183C7.29797 13.8059 7.428 13.7209 7.56046 13.6609C7.69293 13.6009 7.83029 13.5684 7.96525 13.5609C8.10271 13.5534 8.24027 13.5684 8.37773 13.6109C8.51519 13.6534 8.65263 13.7159 8.79009 13.8009L8.78753 13.7959ZM8.60765 14.0808C8.38271 13.9383 8.16775 13.8733 7.96281 13.8833C7.76037 13.8933 7.57042 13.9758 7.39547 14.1233C7.32799 14.1808 7.26306 14.2507 7.20058 14.3332C7.1381 14.4157 7.07055 14.5132 7.00057 14.6231L6.86316 14.8431L8.69515 15.9977L8.83256 15.7778C8.90254 15.6678 8.96007 15.5654 9.00756 15.4729C9.05504 15.3804 9.09001 15.2904 9.11251 15.2055C9.16999 14.983 9.15752 14.7756 9.07504 14.5831C8.99257 14.3907 8.83508 14.2232 8.60765 14.0808Z" fill="white"/>
<path d="M11.1492 13.1061L9.06982 11.2666L9.29473 11.0142L11.3741 12.8536L11.1492 13.1061Z" fill="white"/>
<path d="M13.4289 9.42708L12.939 9.82697L12.7466 9.58953L13.4988 8.97471L14.3485 10.0144C14.336 10.0444 14.3136 10.0844 14.2786 10.1319C14.2461 10.1794 14.2061 10.2318 14.1586 10.2868C14.1112 10.3418 14.0587 10.3993 14.0012 10.4593C13.9437 10.5168 13.8837 10.5718 13.8212 10.6242C13.6363 10.7742 13.4539 10.8817 13.2714 10.9466C13.089 11.0116 12.914 11.0366 12.7416 11.0216C12.5691 11.0066 12.4066 10.9541 12.2492 10.8642C12.0917 10.7742 11.9468 10.6467 11.8143 10.4843C11.6719 10.3093 11.5669 10.1269 11.5044 9.93943C11.4419 9.75199 11.4194 9.56454 11.4369 9.37959C11.4569 9.19465 11.5169 9.0147 11.6169 8.83975C11.7169 8.6648 11.8543 8.50735 12.0293 8.36489C12.0767 8.3274 12.1242 8.28991 12.1742 8.25492C12.2242 8.21993 12.2742 8.18994 12.3216 8.15995C12.3691 8.12996 12.4166 8.10746 12.4616 8.08747C12.5066 8.06747 12.5442 8.05248 12.5791 8.04248L12.769 8.27241C12.6866 8.30241 12.5991 8.34489 12.5041 8.39988C12.4091 8.45236 12.3192 8.51484 12.2367 8.58232C12.1142 8.6823 12.0142 8.79476 11.9317 8.92473C11.8518 9.05219 11.7993 9.18715 11.7768 9.33211C11.7543 9.47707 11.7619 9.62452 11.8043 9.77948C11.8468 9.93444 11.9293 10.0869 12.0543 10.2393C12.1767 10.3893 12.3016 10.4993 12.4316 10.5743C12.5616 10.6492 12.6941 10.6892 12.8291 10.6967C12.964 10.7042 13.099 10.6817 13.2364 10.6267C13.3739 10.5718 13.5089 10.4893 13.6413 10.3793C13.7038 10.3293 13.7612 10.2743 13.8162 10.2194C13.8712 10.1644 13.9163 10.1119 13.9537 10.0619L13.4313 9.42208L13.4289 9.42708Z" fill="white"/>
<path d="M16.0404 9.03983L14.6533 6.63553L14.9457 6.46558L16.3329 8.86988L16.0404 9.03983Z" fill="white"/>
<path d="M19.0018 7.61507L18.687 7.73754L17.7872 5.4357L16.9225 5.77311L16.8125 5.48819L18.8544 4.69092L18.9643 4.97584L18.0996 5.31324L18.9994 7.61507H19.0018Z" fill="white"/>
<path d="M20.9863 6.9353L21.5687 3.99615L21.8561 3.94116L23.4932 6.45044L23.1333 6.52042L22.6483 5.76314L21.5088 5.98307L21.3412 6.86782L20.9839 6.9378L20.9863 6.9353ZM21.7911 4.39353C21.7362 4.75593 21.6786 5.08583 21.6212 5.38575L21.5687 5.66317L22.4709 5.48822L22.3185 5.25078C22.151 4.99086 21.9785 4.70344 21.7986 4.39103H21.7911V4.39353Z" fill="white"/>
<path d="M25.4453 3.56641L25.4852 6.03819L26.8398 6.0157L26.8448 6.32061L25.1528 6.3481L25.1079 3.5739L25.4453 3.56891V3.56641Z" fill="white"/>
<path d="M30.2515 6.75294L32.1084 4.40112L32.3883 4.4836L32.7033 7.46524L32.3508 7.36277L32.2659 6.46803L31.1511 6.14562L30.6013 6.85542L30.2515 6.75544V6.75294ZM32.1259 4.85599C31.911 5.15341 31.711 5.42083 31.5236 5.66326L31.3511 5.88569L32.2359 6.14062L32.2083 5.8607C32.1783 5.55329 32.1559 5.21839 32.1359 4.85849H32.1284L32.1259 4.85599Z" fill="white"/>
<path d="M35.4072 6.42571C35.3698 6.49818 35.3548 6.56567 35.3598 6.62815C35.3648 6.69063 35.3848 6.75061 35.4173 6.8056C35.4522 6.86308 35.4947 6.91556 35.5522 6.97055C35.6072 7.02303 35.6672 7.07802 35.7297 7.1305C35.8121 7.20298 35.8945 7.27796 35.972 7.35294C36.0495 7.42792 36.112 7.51039 36.1595 7.59787C36.207 7.68534 36.232 7.78032 36.2345 7.88279C36.237 7.98526 36.2069 8.10022 36.1445 8.22519C36.0795 8.35265 35.9971 8.45012 35.9021 8.5201C35.8071 8.58758 35.6997 8.63007 35.5847 8.64507C35.4672 8.66006 35.3447 8.65256 35.2122 8.62257C35.0798 8.59258 34.9448 8.5401 34.8049 8.47012C34.7399 8.43763 34.6775 8.40014 34.615 8.35765C34.5525 8.31516 34.4925 8.27267 34.44 8.22769C34.385 8.1827 34.3376 8.14021 34.2976 8.09772C34.2576 8.05524 34.2275 8.01775 34.2075 7.98526L34.3475 7.71034C34.38 7.75532 34.42 7.80031 34.465 7.8478C34.51 7.89528 34.5599 7.94027 34.6124 7.98276C34.6649 8.02524 34.7199 8.06773 34.7749 8.10522C34.8323 8.14271 34.8849 8.1752 34.9399 8.20269C35.0248 8.24768 35.1124 8.28267 35.1973 8.30766C35.2823 8.33266 35.3648 8.34265 35.4423 8.34015C35.5197 8.33516 35.5896 8.31266 35.6546 8.27017C35.7196 8.22769 35.7747 8.1627 35.8222 8.07273C35.8597 7.99775 35.8771 7.93027 35.8696 7.86779C35.8646 7.80531 35.8446 7.74283 35.8096 7.68784C35.7746 7.63036 35.7296 7.57537 35.6746 7.52289C35.6196 7.4704 35.5597 7.41542 35.4947 7.36044C35.4098 7.28796 35.3297 7.21548 35.2523 7.1405C35.1748 7.06552 35.1123 6.98554 35.0648 6.89807C35.0173 6.81309 34.9924 6.71812 34.9899 6.61815C34.9849 6.51818 35.0149 6.40821 35.0774 6.28825C35.1424 6.16328 35.2198 6.06581 35.3123 6.00083C35.4048 5.93335 35.5047 5.89086 35.6147 5.87337C35.7222 5.85337 35.8372 5.85837 35.9521 5.88086C36.0696 5.90586 36.1845 5.94584 36.2994 6.00583C36.4319 6.07331 36.5468 6.14829 36.6493 6.23326C36.7493 6.31574 36.8368 6.40321 36.9118 6.49319L36.7693 6.77311C36.6893 6.67813 36.6019 6.58816 36.5069 6.50568C36.4119 6.42321 36.3019 6.34823 36.1795 6.28325C36.087 6.23576 35.9995 6.20327 35.9195 6.18827C35.8396 6.17328 35.7672 6.17328 35.7022 6.18827C35.6372 6.20327 35.5796 6.23076 35.5296 6.27325C35.4797 6.31574 35.4397 6.36822 35.4047 6.4332L35.4072 6.42571Z" fill="white"/>
<path d="M38.7936 8.45235C38.7437 8.51733 38.7162 8.57982 38.7087 8.6423C38.7012 8.70478 38.7087 8.76726 38.7337 8.82724C38.7562 8.88973 38.7911 8.94971 38.8361 9.01469C38.8811 9.07717 38.9286 9.13965 38.9811 9.20464C39.0511 9.29211 39.1161 9.37958 39.1785 9.46706C39.241 9.55703 39.2885 9.64701 39.3185 9.74198C39.3485 9.83695 39.356 9.93442 39.341 10.0369C39.326 10.1394 39.276 10.2468 39.1885 10.3568C39.1011 10.4718 39.0036 10.5517 38.8962 10.6017C38.7887 10.6517 38.6763 10.6742 38.5613 10.6667C38.4438 10.6617 38.3238 10.6317 38.1988 10.5767C38.0739 10.5218 37.9515 10.4468 37.8265 10.3518C37.769 10.3068 37.7139 10.2593 37.659 10.2068C37.604 10.1544 37.5541 10.0994 37.5091 10.0469C37.4641 9.99441 37.4265 9.94192 37.394 9.89194C37.3615 9.84195 37.3392 9.80196 37.3267 9.76697L37.5141 9.52204C37.5391 9.57203 37.569 9.62451 37.6065 9.6795C37.644 9.73448 37.684 9.78697 37.7264 9.83945C37.7689 9.89194 37.8165 9.94192 37.864 9.98941C37.9115 10.0369 37.9614 10.0794 38.0064 10.1144C38.0839 10.1744 38.1613 10.2243 38.2413 10.2643C38.3213 10.3043 38.3988 10.3293 38.4762 10.3393C38.5512 10.3493 38.6262 10.3393 38.6987 10.3093C38.7712 10.2793 38.8361 10.2243 38.8986 10.1444C38.9486 10.0794 38.9787 10.0144 38.9837 9.94942C38.9887 9.88694 38.9811 9.82196 38.9586 9.75947C38.9361 9.69699 38.9011 9.63451 38.8561 9.57203C38.8111 9.50955 38.7612 9.44457 38.7087 9.37958C38.6387 9.29461 38.5713 9.20713 38.5088 9.11966C38.4463 9.03218 38.3988 8.94221 38.3688 8.84974C38.3388 8.75726 38.3313 8.65979 38.3438 8.56232C38.3588 8.46235 38.4063 8.35988 38.4888 8.25241C38.5738 8.13994 38.6687 8.05996 38.7712 8.00998C38.8737 7.95999 38.9811 7.9375 39.091 7.9375C39.201 7.9375 39.311 7.96249 39.4235 8.00748C39.5334 8.05247 39.641 8.11495 39.7434 8.19493C39.8609 8.2849 39.9609 8.37987 40.0458 8.47984C40.1308 8.57981 40.2008 8.68229 40.2557 8.78226L40.0659 9.02969C40.0034 8.92222 39.9333 8.81725 39.8558 8.71977C39.7784 8.6223 39.6834 8.52983 39.5734 8.44235C39.491 8.37737 39.4109 8.33239 39.336 8.3024C39.261 8.2724 39.1911 8.25991 39.1236 8.26241C39.0561 8.26241 38.9961 8.2824 38.9386 8.31489C38.8811 8.34738 38.8312 8.39237 38.7862 8.44985L38.7936 8.45235Z" fill="white"/>
<path d="M40.511 12.2714L41.4632 13.3286L41.2357 13.5335L40.0562 12.2264L42.1181 10.3669L43.2452 11.6166L43.0177 11.8215L42.1155 10.8218L41.4508 11.4216L42.253 12.3114L42.0256 12.5163L41.2233 11.6266L40.506 12.2739L40.511 12.2714Z" fill="white"/>
<path d="M42.8449 15.8452L42.6675 15.5578L44.7719 14.2632L44.2846 13.4734L44.5445 13.3135L45.6942 15.1804L45.4343 15.3404L44.9469 14.5506L42.8425 15.8452H42.8449Z" fill="white"/>
<path d="M23.1856 47.6308C23.1356 47.6258 23.0831 47.6183 23.0356 47.6108C22.9857 47.6033 22.9406 47.5958 22.8981 47.5858L22.7633 48.803L22.1934 48.7405L22.5408 45.6289L23.438 45.7289C23.588 45.7464 23.718 45.7664 23.8305 45.7914C23.9404 45.8164 24.0403 45.8488 24.1253 45.8838C24.3302 45.9738 24.4828 46.0938 24.5802 46.2512C24.6802 46.4062 24.7151 46.5936 24.6926 46.8136C24.6751 46.9635 24.6302 47.096 24.5552 47.2084C24.4802 47.3209 24.3778 47.4134 24.2478 47.4834C24.1204 47.5534 23.9654 47.6008 23.7904 47.6283C23.6155 47.6558 23.4131 47.6533 23.1906 47.6283L23.1856 47.6308ZM22.9481 47.1085C22.9806 47.116 23.0207 47.126 23.0707 47.1335C23.1207 47.141 23.1731 47.1485 23.2281 47.1535C23.3806 47.171 23.5105 47.1735 23.618 47.1585C23.7255 47.1435 23.8129 47.121 23.8804 47.0835C23.9479 47.046 24.0004 46.9985 24.0354 46.9385C24.0703 46.8785 24.0928 46.8111 24.1003 46.7386C24.1103 46.6461 24.1004 46.5661 24.0654 46.4937C24.0304 46.4212 23.9629 46.3612 23.8629 46.3137C23.8104 46.2887 23.7454 46.2687 23.6655 46.2512C23.5855 46.2337 23.488 46.2187 23.3731 46.2062L23.0531 46.1712L22.9481 47.111V47.1085Z" fill="white"/>
<path d="M28.2619 47.626L27.562 47.6959L27.5145 47.2186L28.7842 47.0936L28.9392 48.6657C28.8942 48.6881 28.8367 48.7106 28.7668 48.7381C28.6968 48.7631 28.6167 48.7881 28.5293 48.8106C28.4418 48.8331 28.3519 48.8556 28.2569 48.8731C28.1619 48.8906 28.0694 48.9056 27.9769 48.9156C27.697 48.9431 27.4495 48.9306 27.2346 48.8756C27.0172 48.8206 26.8347 48.7331 26.6823 48.6082C26.5298 48.4857 26.4099 48.3333 26.3224 48.1508C26.2349 47.9684 26.1799 47.7634 26.1574 47.536C26.1424 47.3735 26.1449 47.2186 26.1674 47.0686C26.1899 46.9187 26.2299 46.7762 26.2874 46.6462C26.3448 46.5138 26.4199 46.3938 26.5124 46.2813C26.6049 46.1689 26.7098 46.0739 26.8323 45.9889C26.9547 45.904 27.0922 45.8365 27.2422 45.784C27.3921 45.7315 27.557 45.6965 27.7345 45.679C27.8919 45.664 28.0419 45.659 28.1844 45.669C28.3269 45.679 28.4468 45.694 28.5393 45.7165L28.5867 46.2014C28.4618 46.1739 28.3368 46.1564 28.2119 46.1489C28.0869 46.1414 27.9619 46.1439 27.8344 46.1564C27.6645 46.1739 27.5096 46.2139 27.3671 46.2788C27.2247 46.3438 27.1047 46.4313 27.0047 46.5413C26.9072 46.6512 26.8323 46.7812 26.7848 46.9312C26.7373 47.0811 26.7223 47.2511 26.7397 47.441C26.7772 47.8084 26.8997 48.0758 27.1096 48.2408C27.3196 48.4057 27.5996 48.4707 27.9495 48.4357C28.0145 48.4282 28.0818 48.4182 28.1518 48.4057C28.2218 48.3932 28.2818 48.3757 28.3343 48.3607L28.2619 47.631V47.626Z" fill="white"/>
<path d="M11.7815 40.716C11.744 40.6785 11.704 40.6511 11.6665 40.6311C11.629 40.6111 11.589 40.5986 11.5516 40.5936C11.5141 40.5886 11.4767 40.5911 11.4392 40.5986C11.4017 40.6061 11.3666 40.6211 11.3317 40.6411C11.3092 40.6536 11.2867 40.6685 11.2642 40.6885C11.2417 40.7085 11.2192 40.7285 11.2017 40.7485L10.5669 41.4033L10.4395 41.2784L11.0717 40.6261C11.0967 40.6011 11.1217 40.5761 11.1516 40.5536C11.1791 40.5286 11.2092 40.5086 11.2367 40.4911C11.2842 40.4611 11.3342 40.4411 11.3867 40.4261C11.4392 40.4136 11.4916 40.4086 11.5466 40.4161C11.6015 40.4236 11.6591 40.4411 11.7165 40.4711C11.774 40.5011 11.834 40.5461 11.894 40.6036C11.9515 40.6586 11.9965 40.716 12.029 40.771C12.059 40.826 12.0814 40.881 12.0914 40.9335C12.1014 40.986 12.1014 41.0384 12.0914 41.0884C12.0814 41.1384 12.0639 41.1859 12.0414 41.2334C12.0239 41.2684 12.0015 41.3009 11.9765 41.3334C11.9515 41.3658 11.924 41.3983 11.8966 41.4258L11.2642 42.0781L11.1368 41.9532L11.7716 41.2984C11.7941 41.2759 11.8165 41.2484 11.8365 41.2209C11.8565 41.1934 11.874 41.1659 11.8865 41.1384C11.9165 41.0684 11.9264 40.9984 11.9114 40.9285C11.8964 40.8585 11.854 40.7885 11.784 40.7185L11.7815 40.716Z" fill="white"/>
<path d="M9.82731 40.0263C9.8598 39.9988 9.88235 39.9688 9.89235 39.9363C9.90235 39.9038 9.90479 39.8713 9.89979 39.8363C9.8948 39.8013 9.88483 39.7663 9.86733 39.7289C9.85234 39.6914 9.83235 39.6539 9.81486 39.6139C9.78987 39.5614 9.76486 39.5089 9.74237 39.4564C9.71988 39.4039 9.70734 39.3515 9.70234 39.299C9.69734 39.2465 9.7023 39.194 9.7248 39.144C9.74479 39.094 9.78227 39.044 9.83975 38.9966C9.89724 38.9466 9.95727 38.9166 10.0198 38.9041C10.0822 38.8916 10.1423 38.8916 10.1998 38.9091C10.2597 38.9266 10.3197 38.9541 10.3772 38.9966C10.4347 39.0391 10.4896 39.0915 10.5446 39.154C10.5696 39.184 10.5921 39.214 10.6146 39.249C10.637 39.284 10.657 39.3165 10.672 39.349C10.687 39.3815 10.702 39.4139 10.7145 39.4414C10.727 39.4689 10.732 39.4939 10.7345 39.5139L10.6096 39.6189C10.6021 39.5889 10.5921 39.5589 10.5797 39.5264C10.5672 39.4939 10.5521 39.4614 10.5346 39.4289C10.5171 39.3964 10.4996 39.3665 10.4796 39.3365C10.4596 39.3065 10.4397 39.279 10.4197 39.254C10.3872 39.214 10.3522 39.179 10.3147 39.149C10.2772 39.119 10.2422 39.0965 10.2022 39.084C10.1647 39.069 10.1248 39.0665 10.0848 39.074C10.0448 39.0815 10.0048 39.1015 9.96228 39.1365C9.92979 39.164 9.90735 39.194 9.89735 39.2265C9.88736 39.259 9.88479 39.2915 9.88979 39.3265C9.89479 39.3615 9.90475 39.3989 9.92225 39.4364C9.93974 39.4739 9.95729 39.5114 9.97729 39.5514C10.0048 39.6039 10.0273 39.6564 10.0498 39.7089C10.0723 39.7613 10.0847 39.8138 10.0897 39.8638C10.0947 39.9163 10.0898 39.9663 10.0698 40.0163C10.0523 40.0663 10.0148 40.1137 9.95984 40.1587C9.90235 40.2062 9.84482 40.2387 9.78484 40.2512C9.72486 40.2637 9.66732 40.2662 9.60984 40.2512C9.55236 40.2387 9.4999 40.2137 9.44741 40.1787C9.39493 40.1437 9.34742 40.0987 9.30243 40.0463C9.25245 39.9863 9.21002 39.9263 9.18003 39.8638C9.14754 39.8013 9.12248 39.7413 9.10498 39.6839L9.23251 39.5764C9.2525 39.6389 9.2775 39.7014 9.305 39.7613C9.33499 39.8213 9.37247 39.8788 9.41995 39.9363C9.45494 39.9788 9.49235 40.0113 9.52734 40.0363C9.56233 40.0588 9.59743 40.0763 9.63242 40.0812C9.66741 40.0887 9.69987 40.0863 9.73236 40.0763C9.76485 40.0663 9.79731 40.0488 9.82731 40.0238V40.0263Z" fill="white"/>
<path d="M7.5553 37.5796L8.67497 36.9048L8.30508 36.29L8.44249 36.2075L8.90488 36.9748L7.64524 37.7321L7.55273 37.5796H7.5553Z" fill="white"/>
<path d="M8.05238 35.4952L6.46788 35.5801L6.40039 35.4402L7.47259 34.2705L7.55509 34.4455L7.23011 34.7929L7.4926 35.3477L7.96744 35.3177L8.04994 35.4927L8.05238 35.4952ZM6.64287 35.4152C6.83532 35.3952 7.01267 35.3827 7.17263 35.3727L7.32017 35.3627L7.11271 34.9228L7.01276 35.0328C6.9003 35.1528 6.77527 35.2777 6.64031 35.4127V35.4177L6.64287 35.4152Z" fill="white"/>
<path d="M6.51067 33.4606L7.08557 33.2607L7.14549 33.4307L5.75844 33.9155L5.63348 33.5556C5.61099 33.4956 5.596 33.4432 5.58601 33.3982C5.57601 33.3532 5.56849 33.3132 5.56599 33.2732C5.5585 33.1682 5.57848 33.0783 5.62347 33.0058C5.66846 32.9333 5.7384 32.8783 5.83337 32.8458C5.88836 32.8258 5.94337 32.8183 5.99336 32.8208C6.04335 32.8208 6.09079 32.8358 6.13578 32.8558C6.17826 32.8758 6.22075 32.9058 6.25574 32.9458C6.29322 32.9833 6.32575 33.0283 6.35324 33.0808H6.35825L6.80807 32.4609L6.86811 32.6309L6.44318 33.2582L6.51567 33.4631L6.51067 33.4606ZM5.84838 33.6906L6.35568 33.5131L6.2982 33.3457C6.28071 33.2932 6.26322 33.2507 6.24573 33.2157C6.23073 33.1807 6.21325 33.1507 6.19325 33.1232C6.15576 33.0708 6.11083 33.0358 6.06085 33.0183C6.01086 33.0008 5.95333 33.0033 5.89085 33.0233C5.83087 33.0458 5.78844 33.0758 5.76345 33.1182C5.73845 33.1607 5.72592 33.2107 5.72842 33.2682C5.72842 33.2957 5.73344 33.3282 5.74343 33.3632C5.75093 33.3982 5.76584 33.4432 5.78334 33.4956L5.85082 33.6881L5.84838 33.6906Z" fill="white"/>
<path d="M5.73083 30.7041L5.80588 31.0315L5.64846 31.069L5.53338 30.5691L6.22568 30.4092C6.23568 30.4217 6.25071 30.4417 6.26571 30.4692C6.28071 30.4967 6.29575 30.5266 6.31074 30.5641C6.32574 30.5991 6.34065 30.6391 6.35565 30.6791C6.37065 30.7216 6.38068 30.7616 6.39067 30.8041C6.41817 30.9265 6.42819 31.039 6.41569 31.1415C6.4032 31.2439 6.37568 31.3314 6.32819 31.4114C6.28071 31.4889 6.21828 31.5539 6.13831 31.6088C6.05833 31.6613 5.96326 31.7013 5.85579 31.7263C5.73833 31.7538 5.62846 31.7588 5.52349 31.7463C5.41852 31.7338 5.32602 31.6988 5.24354 31.6463C5.16107 31.5938 5.0885 31.5239 5.02852 31.4364C4.96854 31.3489 4.92617 31.2464 4.89867 31.129C4.89118 31.099 4.8861 31.0665 4.8811 31.034C4.8761 31.0015 4.87359 30.9715 4.87109 30.9415C4.87109 30.9115 4.87109 30.884 4.87109 30.8591C4.87109 30.8341 4.8736 30.8116 4.8761 30.7941L5.03108 30.7591C5.02608 30.8041 5.02608 30.8566 5.03108 30.914C5.03608 30.9715 5.0436 31.029 5.0561 31.084C5.07609 31.1665 5.10605 31.2389 5.14604 31.3089C5.18853 31.3764 5.24098 31.4339 5.30346 31.4789C5.36595 31.5239 5.43852 31.5538 5.52349 31.5713C5.60847 31.5888 5.69841 31.5838 5.80088 31.5613C5.90085 31.5389 5.98326 31.5039 6.04824 31.4589C6.11323 31.4139 6.1633 31.3614 6.20079 31.2989C6.23578 31.2364 6.25577 31.1665 6.26327 31.089C6.26827 31.0115 6.26319 30.9265 6.24069 30.8391C6.2307 30.7966 6.22079 30.7566 6.20579 30.7191C6.1908 30.6816 6.1782 30.6466 6.1632 30.6166L5.7384 30.7141L5.73083 30.7041Z" fill="white"/>
<path d="M5.91342 29.207L5.82104 28.4597L5.9809 28.4397L6.09586 29.3644L4.63888 29.5444L4.52881 28.6596L4.6888 28.6396L4.7763 29.3469L5.24613 29.2895L5.16864 28.6596L5.32863 28.6396L5.40612 29.2695L5.91342 29.207Z" fill="white"/>
<path d="M4.57108 25.6307C4.57108 25.7131 4.57855 25.7906 4.60354 25.8631C4.62853 25.9356 4.66351 25.998 4.71349 26.053C4.76348 26.108 4.82596 26.1505 4.90094 26.183C4.97592 26.2155 5.06591 26.233 5.16588 26.2355C5.26585 26.238 5.35584 26.228 5.43081 26.2005C5.50579 26.173 5.56827 26.1355 5.61826 26.0855C5.66825 26.0355 5.70573 25.9731 5.73322 25.9006C5.75821 25.8281 5.77319 25.7481 5.77569 25.6581C5.77569 25.6332 5.77569 25.6082 5.77569 25.5807C5.77569 25.5532 5.77068 25.5257 5.76568 25.4982C5.76068 25.4707 5.75817 25.4432 5.75067 25.4157C5.74567 25.3882 5.73822 25.3657 5.73322 25.3457L5.89064 25.3507C5.90564 25.3932 5.91817 25.4457 5.92567 25.5032C5.93316 25.5607 5.93561 25.6182 5.93311 25.6781C5.93061 25.8006 5.90818 25.9081 5.87319 26.0005C5.8357 26.093 5.78569 26.173 5.71821 26.233C5.65323 26.2955 5.5732 26.3404 5.48073 26.3704C5.38825 26.4004 5.28328 26.4129 5.16832 26.4104C5.05335 26.4079 4.94838 26.3879 4.85591 26.3479C4.76093 26.3105 4.68103 26.258 4.61355 26.1905C4.54606 26.123 4.49605 26.043 4.45856 25.9481C4.42107 25.8531 4.40609 25.7481 4.41109 25.6332C4.41109 25.6032 4.41353 25.5732 4.41853 25.5432C4.42353 25.5132 4.4261 25.4857 4.4311 25.4582C4.4361 25.4307 4.44362 25.4057 4.45112 25.3832C4.45861 25.3607 4.46607 25.3407 4.47357 25.3232L4.631 25.3282C4.616 25.3732 4.60097 25.4207 4.59097 25.4732C4.58097 25.5257 4.57358 25.5782 4.57108 25.6307Z" fill="white"/>
<path d="M5.98056 24.5183L4.60352 23.7286L4.62353 23.5761L6.16056 23.1787L6.13554 23.3712L5.67315 23.4861L5.59066 24.0959L6.00558 24.3284L5.98056 24.5183ZM4.84087 23.6861C5.01332 23.776 5.17087 23.861 5.31083 23.9385L5.4408 24.011L5.50572 23.5286L5.36074 23.5661C5.20079 23.6061 5.02832 23.6436 4.84087 23.6811V23.6861Z" fill="white"/>
<path d="M6.38324 22.1112L6.34065 22.2862L4.91357 21.9388L5.00864 21.5439C5.02364 21.4839 5.03856 21.4314 5.05855 21.3839C5.07855 21.3364 5.10104 21.2915 5.12604 21.254C5.17852 21.1765 5.23856 21.1215 5.31104 21.094C5.38352 21.064 5.46349 21.0615 5.55096 21.0815C5.62344 21.099 5.68336 21.129 5.73084 21.1715C5.77833 21.214 5.81586 21.2665 5.83836 21.3315C5.86085 21.3939 5.87338 21.4689 5.87338 21.5514C5.87338 21.6339 5.86091 21.7263 5.83592 21.8263C5.82342 21.8738 5.81082 21.9238 5.79332 21.9738L6.38068 22.1162L6.38324 22.1112ZM5.6359 21.9288C5.6434 21.9063 5.65342 21.8813 5.66092 21.8563C5.66841 21.8313 5.67593 21.8063 5.68093 21.7838C5.70092 21.7013 5.71095 21.6314 5.71095 21.5689C5.71095 21.5089 5.70587 21.4564 5.68837 21.4139C5.67338 21.3714 5.64844 21.3389 5.61845 21.314C5.58846 21.289 5.54848 21.2715 5.50349 21.2615C5.44851 21.249 5.3985 21.2515 5.35851 21.269C5.31603 21.2865 5.28105 21.319 5.24856 21.3639C5.22857 21.3914 5.21352 21.4239 5.19853 21.4639C5.18353 21.5039 5.17099 21.5489 5.1585 21.6014L5.10859 21.8038L5.63346 21.9313L5.6359 21.9288Z" fill="white"/>
<path d="M13.4783 43.2499L14.0182 43.6747L13.3309 43.6447L13.0934 44.2896L12.9085 43.6273L12.2236 43.5998L12.796 43.2199L12.6085 42.5601L13.146 42.9874L13.7182 42.605L13.4783 43.2499Z" fill="#1A9EDC"/>
<path d="M6.44804 17.8871L7.41028 17.8396L6.65794 18.4394L7.00037 19.3392L6.19567 18.8093L5.44589 19.4117L5.70082 18.4844L4.896 17.9571L5.85824 17.9146L6.11061 16.9849L6.44804 17.8871Z" fill="#1A9EDC"/>
<path d="M39.0013 43.2499L38.4614 43.6747L39.1463 43.6447L39.3838 44.2896L39.5687 43.6273L40.256 43.5998L39.6836 43.2199L39.8686 42.5601L39.3312 42.9874L38.7614 42.605L39.0013 43.2499Z" fill="#1A9EDC"/>
<path d="M46.0291 17.8871L45.0669 17.8396L45.8217 18.4394L45.4793 19.3392L46.2815 18.8093L47.0339 19.4117L46.7764 18.4844L47.5836 17.9571L46.6215 17.9146L46.369 16.9849L46.0291 17.8871Z" fill="#1A9EDC"/>
<path d="M45.9592 22.2163C45.9717 22.2688 45.9868 22.3138 46.0093 22.3512C46.0293 22.3887 46.0542 22.4212 46.0842 22.4462C46.1142 22.4712 46.1442 22.4912 46.1817 22.5037C46.2167 22.5162 46.2542 22.5237 46.2967 22.5262C46.3217 22.5262 46.3492 22.5262 46.3792 22.5262C46.4091 22.5237 46.4366 22.5187 46.4641 22.5112L47.3538 22.3138L47.3913 22.4887L46.5067 22.6836C46.4742 22.6911 46.4366 22.6961 46.4016 22.7011C46.3641 22.7061 46.3292 22.7086 46.2967 22.7061C46.2417 22.7061 46.1868 22.6936 46.1368 22.6761C46.0868 22.6587 46.0393 22.6312 45.9968 22.5962C45.9543 22.5612 45.9168 22.5137 45.8843 22.4562C45.8518 22.3987 45.8269 22.3287 45.8094 22.2488C45.7919 22.1688 45.7844 22.0988 45.7894 22.0363C45.7944 21.9739 45.8068 21.9164 45.8268 21.8689C45.8468 21.8189 45.8768 21.7764 45.9118 21.7414C45.9468 21.7064 45.9893 21.6739 46.0343 21.6489C46.0668 21.6315 46.1042 21.614 46.1442 21.6015C46.1842 21.589 46.2243 21.5765 46.2618 21.569L47.1464 21.374L47.184 21.549L46.2942 21.7464C46.2617 21.7539 46.2292 21.7639 46.1967 21.7764C46.1642 21.7889 46.1342 21.8039 46.1092 21.8189C46.0467 21.8589 45.9993 21.9139 45.9718 21.9789C45.9443 22.0463 45.9418 22.1263 45.9618 22.2238L45.9592 22.2163Z" fill="white"/>
<path d="M47.209 23.8707C47.1666 23.8757 47.1316 23.8882 47.1067 23.9082C47.0817 23.9281 47.0592 23.9556 47.0442 23.9856C47.0292 24.0156 47.0192 24.0531 47.0117 24.0931C47.0042 24.1331 46.9992 24.1756 46.9917 24.2181C46.9842 24.2755 46.9741 24.333 46.9641 24.3905C46.9541 24.448 46.9366 24.498 46.9116 24.5455C46.8866 24.593 46.8517 24.6304 46.8093 24.6629C46.7643 24.6954 46.7043 24.7154 46.6318 24.7229C46.5568 24.7329 46.4893 24.7229 46.4318 24.7029C46.3743 24.6804 46.3243 24.6454 46.2818 24.6005C46.2418 24.553 46.2094 24.4955 46.1844 24.4305C46.1594 24.363 46.142 24.288 46.132 24.2056C46.127 24.1681 46.127 24.1281 46.127 24.0881C46.127 24.0481 46.1269 24.0081 46.1344 23.9731C46.1394 23.9356 46.1444 23.9032 46.1518 23.8732C46.1593 23.8432 46.1669 23.8182 46.1744 23.8007L46.3369 23.7832C46.3269 23.8107 46.3168 23.8407 46.3118 23.8757C46.3043 23.9106 46.2994 23.9456 46.2944 23.9806C46.2894 24.0156 46.2894 24.0531 46.2894 24.0881C46.2894 24.1231 46.2894 24.1581 46.2944 24.1881C46.2994 24.2381 46.3094 24.288 46.3244 24.333C46.3394 24.378 46.3569 24.418 46.3819 24.4505C46.4069 24.483 46.4368 24.508 46.4743 24.523C46.5118 24.538 46.5568 24.5455 46.6092 24.538C46.6517 24.533 46.6867 24.5205 46.7142 24.498C46.7417 24.4755 46.7617 24.4505 46.7767 24.418C46.7917 24.3855 46.8043 24.3505 46.8093 24.3105C46.8167 24.2705 46.8216 24.2281 46.8291 24.1831C46.8366 24.1256 46.8442 24.0681 46.8542 24.0106C46.8642 23.9531 46.8816 23.9032 46.9066 23.8582C46.9316 23.8132 46.9642 23.7732 47.0067 23.7432C47.0492 23.7132 47.1067 23.6932 47.1791 23.6857C47.2541 23.6782 47.3191 23.6857 47.3766 23.7057C47.4341 23.7257 47.4815 23.7582 47.5214 23.8007C47.5614 23.8432 47.594 23.8932 47.6165 23.9531C47.639 24.0106 47.6565 24.0756 47.664 24.1431C47.674 24.2206 47.674 24.2955 47.664 24.363C47.654 24.4305 47.644 24.4955 47.6265 24.5555L47.4615 24.573C47.4815 24.5105 47.494 24.4455 47.504 24.378C47.514 24.313 47.514 24.2431 47.504 24.1681C47.499 24.1131 47.4865 24.0656 47.469 24.0256C47.4515 23.9856 47.4315 23.9531 47.4065 23.9306C47.3815 23.9057 47.3516 23.8882 47.3191 23.8807C47.2866 23.8707 47.2491 23.8682 47.2116 23.8732L47.209 23.8707Z" fill="white"/>
<path d="M47.751 27.1647L46.4439 27.1122L46.4139 27.8295L46.2515 27.822L46.2889 26.9272L47.7585 26.9872L47.751 27.1647Z" fill="white"/>
<path d="M46.189 28.6268L47.5586 29.4265L47.5361 29.579L45.9966 29.9639L46.024 29.7714L46.4864 29.659L46.5739 29.0516L46.1615 28.8142L46.189 28.6243V28.6268ZM47.3237 29.469C47.1513 29.3791 46.9963 29.2941 46.8563 29.2116L46.7264 29.1366L46.6589 29.619L46.8038 29.584C46.9638 29.5465 47.1363 29.509 47.3237 29.4715V29.4665V29.469Z" fill="white"/>
<path d="M46.3563 31.1835L45.7664 31.0335L45.8115 30.8611L47.2361 31.221L47.1436 31.5909C47.1286 31.6534 47.1111 31.7058 47.0961 31.7483C47.0811 31.7908 47.0636 31.8283 47.0436 31.8633C46.9912 31.9558 46.9261 32.0207 46.8486 32.0557C46.7711 32.0907 46.6837 32.0982 46.5863 32.0732C46.5288 32.0582 46.4788 32.0357 46.4388 32.0058C46.3988 31.9758 46.3663 31.9408 46.3413 31.8983C46.3163 31.8558 46.2988 31.8108 46.2889 31.7583C46.2789 31.7058 46.2763 31.6509 46.2813 31.5909H46.2763L45.5615 31.8583L45.6066 31.6858L46.3063 31.3959L46.3588 31.186L46.3563 31.1835ZM47.0361 31.3534L46.5138 31.221L46.4713 31.3934C46.4588 31.4459 46.4488 31.4934 46.4413 31.5309C46.4363 31.5684 46.4338 31.6059 46.4338 31.6359C46.4363 31.7008 46.4538 31.7558 46.4863 31.7983C46.5188 31.8408 46.5662 31.8708 46.6337 31.8883C46.6962 31.9033 46.7487 31.9008 46.7937 31.8783C46.8387 31.8583 46.8761 31.8208 46.9061 31.7708C46.9211 31.7483 46.9336 31.7183 46.9461 31.6833C46.9586 31.6484 46.9712 31.6034 46.9862 31.5484L47.0361 31.3509V31.3534Z" fill="white"/>
<path d="M45.4919 33.9103L45.6093 33.5954L45.7618 33.6503L45.5843 34.1327L44.917 33.8853C44.917 33.8678 44.917 33.8428 44.917 33.8128C44.917 33.7828 44.9246 33.7478 44.9296 33.7103C44.9346 33.6728 44.9445 33.6328 44.9545 33.5904C44.9645 33.5479 44.9795 33.5079 44.992 33.4679C45.037 33.3504 45.0894 33.2505 45.1569 33.173C45.2244 33.0955 45.297 33.0355 45.3769 32.9955C45.4594 32.9555 45.5468 32.9355 45.6443 32.9355C45.7393 32.9355 45.8393 32.953 45.9443 32.993C46.0568 33.0355 46.1517 33.0905 46.2317 33.158C46.3117 33.228 46.3716 33.3054 46.4116 33.3954C46.4515 33.4854 46.474 33.5829 46.474 33.6903C46.474 33.7953 46.4541 33.9053 46.4141 34.0177C46.4041 34.0477 46.3916 34.0777 46.3767 34.1077C46.3642 34.1377 46.3491 34.1652 46.3341 34.1902C46.3191 34.2152 46.3042 34.2402 46.2892 34.2602C46.2742 34.2802 46.2617 34.2977 46.2467 34.3126L46.0991 34.2577C46.1291 34.2227 46.1567 34.1777 46.1866 34.1277C46.2166 34.0777 46.2391 34.0252 46.2591 33.9727C46.2891 33.8953 46.3041 33.8153 46.3066 33.7353C46.3091 33.6553 46.2966 33.5804 46.2691 33.5079C46.2416 33.4354 46.1967 33.3704 46.1367 33.3104C46.0767 33.2505 45.9967 33.203 45.8993 33.168C45.8043 33.133 45.7169 33.1155 45.6369 33.1155C45.5569 33.1155 45.4868 33.133 45.4219 33.1655C45.3569 33.198 45.3019 33.2455 45.2544 33.3054C45.2069 33.3679 45.1669 33.4404 45.1345 33.5279C45.1195 33.5679 45.107 33.6079 45.097 33.6478C45.087 33.6878 45.0795 33.7253 45.077 33.7578L45.4869 33.9103H45.4919Z" fill="white"/>
<path d="M44.5145 35.0623L44.1796 35.7371L44.0347 35.6646L44.4496 34.8298L45.7666 35.4821L45.3718 36.2819L45.2268 36.2094L45.5442 35.5721L45.1193 35.3622L44.8369 35.9295L44.6919 35.857L44.9743 35.2897L44.517 35.0623H44.5145Z" fill="white"/>
<path d="M43.6646 38.7863C43.712 38.7189 43.7445 38.6489 43.7645 38.5739C43.7845 38.5014 43.7894 38.4265 43.7769 38.354C43.7645 38.2815 43.737 38.2115 43.692 38.1415C43.647 38.0716 43.582 38.0091 43.4996 37.9491C43.4171 37.8916 43.3371 37.8516 43.2596 37.8316C43.1822 37.8116 43.1097 37.8091 43.0397 37.8241C42.9698 37.8391 42.9048 37.8691 42.8423 37.9141C42.7798 37.9591 42.7248 38.0191 42.6723 38.094C42.6573 38.114 42.6448 38.1365 42.6298 38.159C42.6148 38.1815 42.6023 38.209 42.5898 38.234C42.5773 38.259 42.5673 38.284 42.5573 38.309C42.5473 38.334 42.5398 38.3565 42.5323 38.379L42.4023 38.289C42.4123 38.244 42.4324 38.1965 42.4574 38.144C42.4824 38.0915 42.5123 38.0416 42.5473 37.9916C42.6173 37.8916 42.6948 37.8141 42.7772 37.7541C42.8597 37.6967 42.9448 37.6592 43.0347 37.6442C43.1247 37.6292 43.2147 37.6342 43.3097 37.6592C43.4046 37.6842 43.497 37.7317 43.5945 37.7991C43.687 37.8641 43.7645 37.9391 43.822 38.0241C43.8795 38.109 43.9194 38.1965 43.9369 38.289C43.9544 38.3815 43.9544 38.4789 43.9319 38.5764C43.9094 38.6739 43.8644 38.7714 43.797 38.8663C43.7795 38.8913 43.762 38.9163 43.742 38.9388C43.7221 38.9613 43.7021 38.9838 43.6846 39.0038C43.6646 39.0238 43.6446 39.0413 43.6271 39.0563C43.6071 39.0713 43.5896 39.0838 43.5746 39.0938L43.4446 39.0038C43.4821 38.9763 43.5196 38.9438 43.5596 38.9063C43.5971 38.8688 43.6321 38.8288 43.6646 38.7863Z" fill="white"/>
<path d="M41.878 38.9314L42.5902 40.3485L42.4878 40.466L40.9883 39.9486L41.1157 39.8011L41.5631 39.9611L41.968 39.4987L41.7505 39.0764L41.878 38.9314ZM42.3679 40.256C42.2729 40.0861 42.1904 39.9286 42.1154 39.7861L42.0479 39.6537L41.7281 40.0211L41.868 40.0711C42.023 40.1261 42.1879 40.1885 42.3653 40.261H42.3679V40.256Z" fill="white"/>
<path d="M40.2134 40.7184L40.3433 40.5959L41.3431 41.6731L41.0457 41.9506C41.0007 41.9905 40.9582 42.028 40.9157 42.058C40.8732 42.088 40.8307 42.1105 40.7882 42.1305C40.7032 42.168 40.6208 42.178 40.5458 42.163C40.4708 42.148 40.4008 42.108 40.3383 42.0405C40.2884 41.9856 40.2533 41.9281 40.2358 41.8656C40.2183 41.8031 40.2183 41.7406 40.2358 41.6731C40.2508 41.6057 40.2808 41.5382 40.3283 41.4707C40.3733 41.4007 40.4358 41.3307 40.5108 41.2633C40.5458 41.2308 40.5857 41.1958 40.6257 41.1633L40.2134 40.7209V40.7184ZM40.7357 41.2808C40.7157 41.2957 40.6958 41.3107 40.6758 41.3282C40.6558 41.3457 40.6357 41.3607 40.6207 41.3782C40.5583 41.4357 40.5107 41.4907 40.4758 41.5382C40.4408 41.5882 40.4183 41.6356 40.4083 41.6781C40.3983 41.7231 40.3983 41.7631 40.4108 41.8006C40.4233 41.8381 40.4458 41.8731 40.4758 41.9081C40.5157 41.9506 40.5557 41.9756 40.6007 41.983C40.6457 41.9905 40.6933 41.9831 40.7433 41.9656C40.7732 41.9531 40.8056 41.9331 40.8406 41.9106C40.8731 41.8856 40.9107 41.8556 40.9507 41.8181L41.1031 41.6756L40.7357 41.2808Z" fill="white"/>
<path d="M27.2497 29.9739C27.4621 29.7565 27.8021 29.3516 28.017 28.7468C28.1795 28.2869 28.2119 27.8795 28.2094 27.6046H26.9198C26.9873 27.7071 27.1672 28.002 27.1547 28.4169C27.1397 28.8917 26.8848 29.2041 26.8099 29.2891C26.5674 28.9017 26.3025 28.3944 26.0925 27.7721C25.9651 27.3922 25.8852 27.0398 25.8302 26.7274C27.6646 25.8876 28.6268 24.5555 28.3669 23.7157C28.2619 23.3758 27.9146 22.9659 27.4447 22.756C27.4447 22.756 26.8548 22.4936 26.18 22.681C25.1728 22.9609 24.428 24.4805 24.3905 26.4449C24.2131 26.4824 22.4012 26.8823 21.7688 28.4769C21.6814 28.6968 21.2364 29.819 21.8188 30.8237C21.8637 30.8987 22.1312 31.351 22.626 31.6284C23.5882 32.1683 25.0228 31.8434 26.245 30.8537C26.5574 31.2161 26.8673 31.5785 27.1798 31.9409C28.0195 31.9409 28.8593 31.9359 29.699 31.9334C29.2692 31.7034 28.7593 31.3885 28.2369 30.9511C27.8346 30.6162 27.5072 30.2813 27.2422 29.9789L27.2497 29.9739ZM23.2933 30.2388C22.8434 29.6815 23.1234 28.2644 24.4905 27.3647C24.5929 27.8245 24.7529 28.3694 25.0053 28.9567C25.2228 29.4666 25.4627 29.9039 25.6876 30.2638C24.6929 30.7562 23.6682 30.7037 23.2933 30.2388ZM26.4024 23.4758C26.4724 23.4233 26.8098 23.1659 26.9847 23.2734C27.2472 23.4358 27.0548 24.378 26.6174 25.0428C26.345 25.4552 26.0101 25.7127 25.7701 25.8651C25.7351 25.6252 25.5426 24.1306 26.4024 23.4758Z" fill="white"/>
<path d="M34.1302 26.0476C34.3551 26.3475 34.4275 26.7349 34.3251 27.0948C33.9627 28.3819 33.5978 29.6715 33.2354 30.9587C32.8955 31.0162 32.2532 31.0786 31.7933 30.7137C29.9064 29.2117 32.1081 21.204 35.3322 20.8191C36.2969 20.7041 37.1817 21.2915 37.7716 21.8063C37.9015 21.2965 38.034 20.7866 38.1639 20.2767C37.3491 19.9793 34.7999 19.1646 32.4831 20.3642C28.4917 22.4311 27.677 29.1492 30.0563 31.2511C31.1784 32.2433 33.5878 32.7157 35.1223 31.6985C35.1248 31.6985 35.1298 31.6935 35.1323 31.691C35.5622 31.4035 35.8597 30.9612 35.9896 30.4638C36.442 28.7168 36.9018 27.4672 37.0492 26.9698C37.1417 26.6599 37.3217 26.3825 37.5691 26.175C37.7116 26.0551 37.8566 25.9326 37.999 25.8127H33.9527C34.0102 25.8901 34.0676 25.9676 34.1276 26.0451L34.1302 26.0476Z" fill="white"/>
<path d="M24.3255 21.4091C23.7531 20.2544 22.486 19.842 22.0761 19.7271H16.9825C17.0475 19.827 17.11 19.927 17.1749 20.0295C17.3349 20.2794 17.3824 20.5868 17.3075 20.8742L14.7532 30.6764C14.6907 30.9163 14.5682 31.1363 14.4007 31.3187L13.8359 31.926H17.5149C17.4899 31.8735 17.4674 31.8211 17.4449 31.7711C17.3024 31.4537 17.2725 31.0988 17.3599 30.7639C17.6599 29.6142 17.9597 28.4645 18.2621 27.3149C18.662 27.3823 20.8814 27.7197 22.6609 26.2402C23.8731 25.2305 25.1802 23.1261 24.3305 21.4116L24.3255 21.4091ZM19.5118 26.3052C19.2819 26.3701 18.9519 26.4226 18.5295 26.3676C19.0194 24.6106 19.5068 22.8561 19.9966 21.0992C20.1391 21.0667 21.0838 20.8667 21.5387 21.3941C21.7261 21.6115 21.7636 21.8789 21.7736 22.1014C21.8311 23.251 21.3188 25.7978 19.5118 26.3027V26.3052Z" fill="white"/>
</svg>
