<svg width="52" height="52" viewBox="0 0 52 52" fill="none" xmlns="http://www.w3.org/2000/svg">
<path d="M26.0002 52C40.3596 52 52.0002 40.3594 52.0002 26C52.0002 11.6406 40.3596 0 26.0002 0C11.6408 0 0.000244141 11.6406 0.000244141 26C0.000244141 40.3594 11.6408 52 26.0002 52Z" fill="white"/>
<path d="M25.9999 44.1522C15.9903 44.1522 7.84766 36.0095 7.84766 25.9999C7.84766 15.9903 15.9903 7.84766 25.9999 7.84766C36.0096 7.84766 44.1522 15.9903 44.1522 25.9999C44.1522 36.0095 36.0096 44.1522 25.9999 44.1522ZM25.9999 8.35251C16.2703 8.35251 8.35252 16.2677 8.35252 25.9999C8.35252 35.7321 16.2703 43.6473 25.9999 43.6473C35.7296 43.6473 43.6473 35.7296 43.6473 25.9999C43.6473 16.2702 35.7296 8.35251 25.9999 8.35251Z" fill="#0D9DDA"/>
<path d="M26 50.6203C22.6784 50.6203 19.4543 49.968 16.4152 48.6834C13.4836 47.4437 10.8493 45.6693 8.59246 43.4099C6.33311 41.1506 4.55866 38.5188 3.31902 35.5872C2.03439 32.548 1.38208 29.3215 1.38208 26.0024C1.38208 22.6834 2.03439 19.4568 3.31902 16.4177C4.55866 13.486 6.33311 10.8518 8.59246 8.59494C10.8518 6.33559 13.4836 4.56111 16.4152 3.32146C19.4543 2.03683 22.6809 1.38452 26 1.38452C29.319 1.38452 32.5455 2.03683 35.5847 3.32146C38.5163 4.56111 41.1506 6.33559 43.4074 8.59494C45.6668 10.8543 47.4413 13.486 48.6809 16.4177C49.9655 19.4568 50.6179 22.6834 50.6179 26.0024C50.6179 29.3215 49.9655 32.548 48.6809 35.5872C47.4413 38.5188 45.6668 41.1531 43.4074 43.4099C41.1481 45.6693 38.5163 47.4437 35.5847 48.6834C32.5455 49.968 29.319 50.6203 26 50.6203ZM26 1.74692C22.7284 1.74692 19.5518 2.38923 16.5577 3.65637C13.6685 4.87851 11.0767 6.62551 8.84989 8.84987C6.62554 11.0742 4.87603 13.6685 3.65639 16.5576C2.38925 19.5518 1.74696 22.7284 1.74696 25.9999C1.74696 29.2715 2.38925 32.4481 3.65639 35.4422C4.87853 38.3314 6.62554 40.9231 8.84989 43.15C11.0743 45.3743 13.6685 47.1238 16.5577 48.3435C19.5518 49.6106 22.7284 50.2529 26 50.2529C29.2715 50.2529 32.4481 49.6106 35.4422 48.3435C38.3314 47.1213 40.9231 45.3743 43.15 43.15C45.3743 40.9256 47.1238 38.3314 48.3435 35.4422C49.6106 32.4481 50.253 29.2715 50.253 25.9999C50.253 22.7284 49.6106 19.5518 48.3435 16.5576C47.1213 13.6685 45.3743 11.0767 43.15 8.84987C40.9256 6.62301 38.3314 4.87601 35.4422 3.65637C32.4481 2.38923 29.2715 1.74692 26 1.74692Z" fill="#0D9DDA"/>
<path d="M8.78753 13.7959C8.92499 13.8808 9.04249 13.9808 9.14247 14.0908C9.24244 14.2008 9.3174 14.3207 9.37238 14.4482C9.42486 14.5781 9.45482 14.7156 9.46232 14.8631C9.46732 15.0105 9.44732 15.163 9.39984 15.3254C9.37235 15.4179 9.33487 15.5129 9.28488 15.6103C9.23739 15.7078 9.17743 15.8078 9.11245 15.9153L8.77752 16.4476L6.42822 14.968L6.76565 14.4307C6.83313 14.3232 6.90056 14.2282 6.96554 14.1433C7.03302 14.0583 7.10052 13.9833 7.173 13.9183C7.29797 13.8059 7.42794 13.7209 7.5604 13.6609C7.69286 13.6009 7.83029 13.5684 7.96525 13.5609C8.10271 13.5534 8.24021 13.5684 8.37767 13.6109C8.51513 13.6534 8.65257 13.7159 8.79003 13.8009L8.78753 13.7959ZM8.60759 14.0808C8.38265 13.9383 8.16769 13.8733 7.96275 13.8833C7.76031 13.8933 7.57042 13.9758 7.39547 14.1233C7.32799 14.1808 7.263 14.2507 7.20052 14.3332C7.13804 14.4157 7.07055 14.5132 7.00057 14.6231L6.86309 14.8431L8.69509 15.9977L8.83256 15.7778C8.90254 15.6678 8.96001 15.5654 9.0075 15.4729C9.05498 15.3804 9.08995 15.2904 9.11245 15.2055C9.16993 14.983 9.15746 14.7756 9.07498 14.5831C8.9925 14.3907 8.83502 14.2232 8.60759 14.0808Z" fill="#032D60"/>
<path d="M11.1492 13.1063L9.06982 11.2668L9.29473 11.0144L11.3742 12.8539L11.1492 13.1063Z" fill="#032D60"/>
<path d="M13.4288 9.42733L12.939 9.82721L12.7465 9.58978L13.4988 8.97496L14.3485 10.0147C14.336 10.0446 14.3135 10.0846 14.2785 10.1321C14.246 10.1796 14.2061 10.2321 14.1586 10.2871C14.1111 10.3421 14.0586 10.3995 14.0012 10.4595C13.9437 10.517 13.8837 10.572 13.8212 10.6245C13.6363 10.7744 13.4538 10.8819 13.2714 10.9469C13.0889 11.0119 12.914 11.0369 12.7415 11.0219C12.5691 11.0069 12.4066 10.9544 12.2492 10.8644C12.0917 10.7744 11.9467 10.647 11.8143 10.4845C11.6718 10.3096 11.5669 10.1271 11.5044 9.93968C11.4419 9.75223 11.4194 9.56479 11.4369 9.37984C11.4569 9.19489 11.5169 9.01494 11.6168 8.83999C11.7168 8.66504 11.8542 8.50759 12.0292 8.36513C12.0767 8.32764 12.1242 8.29015 12.1742 8.25516C12.2242 8.22017 12.2742 8.19018 12.3216 8.16019C12.3691 8.1302 12.4166 8.10771 12.4616 8.08771C12.5065 8.06772 12.5441 8.05272 12.5791 8.04272L12.769 8.27266C12.6866 8.30265 12.5991 8.34514 12.5041 8.40012C12.4091 8.45261 12.3191 8.51509 12.2366 8.58257C12.1142 8.68254 12.0142 8.79501 11.9317 8.92497C11.8518 9.05243 11.7993 9.18739 11.7768 9.33235C11.7543 9.47731 11.7618 9.62477 11.8043 9.77972C11.8468 9.93468 11.9292 10.0871 12.0542 10.2396C12.1767 10.3895 12.3016 10.4995 12.4316 10.5745C12.5616 10.6495 12.694 10.6895 12.829 10.697C12.964 10.7045 13.0989 10.682 13.2364 10.627C13.3738 10.572 13.5088 10.4895 13.6413 10.3796C13.7038 10.3296 13.7612 10.2746 13.8162 10.2196C13.8712 10.1646 13.9162 10.1121 13.9537 10.0621L13.4313 9.42233L13.4288 9.42733Z" fill="#032D60"/>
<path d="M16.038 9.03983L14.6509 6.63553L14.9433 6.46558L16.3304 8.86988L16.038 9.03983Z" fill="#032D60"/>
<path d="M19.0024 7.61507L18.6874 7.73754L17.7877 5.4357L16.9229 5.77311L16.813 5.48819L18.8549 4.69092L18.9648 4.97584L18.1001 5.31324L18.9999 7.61507H19.0024Z" fill="#032D60"/>
<path d="M20.9864 6.93554L21.5687 3.99639L21.8561 3.94141L23.4932 6.45068L23.1333 6.52066L22.6484 5.76338L21.5088 5.98332L21.3413 6.86806L20.9839 6.93804L20.9864 6.93554ZM21.7911 4.39378C21.7362 4.75617 21.6787 5.08608 21.6212 5.38599L21.5687 5.66341L22.4709 5.48846L22.3185 5.25103C22.1511 4.9911 21.9786 4.70369 21.7987 4.39128H21.7911V4.39378Z" fill="#032D60"/>
<path d="M25.4427 3.56641L25.4826 6.03819L26.8372 6.0157L26.8422 6.32061L25.1502 6.3481L25.1052 3.5739L25.4427 3.56891V3.56641Z" fill="#032D60"/>
<path d="M30.2515 6.75294L32.1084 4.40112L32.3884 4.4836L32.7033 7.46524L32.3508 7.36277L32.2659 6.46803L31.1512 6.14562L30.6013 6.85542L30.2515 6.75544V6.75294ZM32.1259 4.85599C31.911 5.15341 31.711 5.42083 31.5236 5.66326L31.3511 5.88569L32.2359 6.14062L32.2084 5.8607C32.1784 5.55329 32.1559 5.21839 32.1359 4.85849H32.1284L32.1259 4.85599Z" fill="#032D60"/>
<path d="M35.4072 6.42571C35.3697 6.49818 35.3547 6.56567 35.3597 6.62815C35.3647 6.69063 35.3847 6.75061 35.4172 6.8056C35.4522 6.86308 35.4947 6.91556 35.5522 6.97055C35.6071 7.02303 35.6671 7.07802 35.7296 7.1305C35.8121 7.20298 35.8945 7.27796 35.972 7.35294C36.0495 7.42792 36.112 7.51039 36.1595 7.59787C36.207 7.68534 36.232 7.78032 36.2345 7.88279C36.237 7.98526 36.2069 8.10022 36.1445 8.22519C36.0795 8.35265 35.997 8.45012 35.902 8.5201C35.8071 8.58758 35.6996 8.63007 35.5846 8.64507C35.4672 8.66006 35.3447 8.65256 35.2122 8.62257C35.0798 8.59258 34.9448 8.5401 34.8049 8.47012C34.7399 8.43763 34.6774 8.40014 34.6149 8.35765C34.5525 8.31516 34.4925 8.27267 34.44 8.22769C34.385 8.1827 34.3375 8.14021 34.2975 8.09772C34.2575 8.05524 34.2275 8.01775 34.2075 7.98526L34.3475 7.71034C34.38 7.75532 34.42 7.80031 34.465 7.8478C34.5099 7.89528 34.5599 7.94027 34.6124 7.98276C34.6649 8.02524 34.7199 8.06773 34.7749 8.10522C34.8323 8.14271 34.8849 8.1752 34.9399 8.20269C35.0248 8.24768 35.1123 8.28267 35.1973 8.30766C35.2823 8.33266 35.3647 8.34265 35.4422 8.34015C35.5197 8.33516 35.5896 8.31266 35.6546 8.27017C35.7196 8.22769 35.7746 8.1627 35.8221 8.07273C35.8596 7.99775 35.8771 7.93027 35.8696 7.86779C35.8646 7.80531 35.8446 7.74283 35.8096 7.68784C35.7746 7.63036 35.7296 7.57537 35.6746 7.52289C35.6196 7.4704 35.5597 7.41542 35.4947 7.36044C35.4097 7.28796 35.3297 7.21548 35.2523 7.1405C35.1748 7.06552 35.1123 6.98554 35.0648 6.89807C35.0173 6.81309 34.9923 6.71812 34.9898 6.61815C34.9848 6.51818 35.0148 6.40821 35.0773 6.28825C35.1423 6.16328 35.2198 6.06581 35.3122 6.00083C35.4047 5.93335 35.5047 5.89086 35.6146 5.87337C35.7221 5.85337 35.8371 5.85837 35.9521 5.88086C36.0695 5.90586 36.1845 5.94584 36.2994 6.00583C36.4319 6.07331 36.5468 6.14829 36.6493 6.23326C36.7493 6.31574 36.8368 6.40321 36.9118 6.49319L36.7693 6.77311C36.6893 6.67813 36.6019 6.58816 36.5069 6.50568C36.4119 6.42321 36.3019 6.34823 36.1795 6.28325C36.087 6.23576 35.9995 6.20327 35.9195 6.18827C35.8396 6.17328 35.7671 6.17328 35.7021 6.18827C35.6372 6.20327 35.5796 6.23076 35.5296 6.27325C35.4797 6.31574 35.4397 6.36822 35.4047 6.4332L35.4072 6.42571Z" fill="#032D60"/>
<path d="M38.7913 8.4526C38.7413 8.51758 38.7138 8.58006 38.7063 8.64254C38.6988 8.70502 38.7063 8.7675 38.7313 8.82749C38.7538 8.88997 38.7887 8.94995 38.8337 9.01493C38.8787 9.07742 38.9262 9.1399 38.9787 9.20488C39.0487 9.29235 39.1137 9.37983 39.1762 9.4673C39.2386 9.55728 39.2861 9.64725 39.3161 9.74222C39.3461 9.8372 39.3536 9.93467 39.3386 10.0371C39.3236 10.1396 39.2736 10.2471 39.1862 10.357C39.0987 10.472 39.0012 10.552 38.8937 10.602C38.7862 10.652 38.6738 10.6745 38.5588 10.667C38.4414 10.662 38.3214 10.632 38.1965 10.577C38.0715 10.522 37.949 10.447 37.8241 10.352C37.7666 10.3071 37.7116 10.2596 37.6566 10.2071C37.6016 10.1546 37.5516 10.0996 37.5067 10.0471C37.4617 9.99465 37.4241 9.94217 37.3916 9.89218C37.3592 9.8422 37.3367 9.80221 37.3242 9.76722L37.5117 9.52229C37.5367 9.57227 37.5666 9.62476 37.6041 9.67974C37.6416 9.73473 37.6816 9.78721 37.7241 9.8397C37.7666 9.89218 37.8141 9.94217 37.8615 9.98965C37.909 10.0371 37.959 10.0796 38.004 10.1146C38.0815 10.1746 38.159 10.2246 38.2389 10.2646C38.3189 10.3046 38.3964 10.3296 38.4739 10.3396C38.5488 10.3495 38.6238 10.3396 38.6963 10.3096C38.7688 10.2796 38.8337 10.2246 38.8962 10.1446C38.9462 10.0796 38.9762 10.0146 38.9812 9.94966C38.9862 9.88718 38.9787 9.8222 38.9562 9.75972C38.9337 9.69724 38.8987 9.63475 38.8537 9.57227C38.8088 9.50979 38.7588 9.44481 38.7063 9.37983C38.6363 9.29485 38.5689 9.20738 38.5064 9.1199C38.4439 9.03243 38.3964 8.94245 38.3664 8.84998C38.3364 8.75751 38.3289 8.66004 38.3414 8.56256C38.3564 8.46259 38.4039 8.36012 38.4864 8.25265C38.5713 8.14019 38.6663 8.06021 38.7687 8.01022C38.8712 7.96024 38.9787 7.93774 39.0887 7.93774C39.1986 7.93774 39.3086 7.96274 39.4211 8.00772C39.5311 8.05271 39.6385 8.11519 39.741 8.19517C39.8585 8.28514 39.9584 8.38012 40.0434 8.48009C40.1284 8.58006 40.1984 8.68253 40.2534 8.7825L40.0634 9.02993C40.0009 8.92246 39.9309 8.81749 39.8535 8.72002C39.776 8.62255 39.681 8.53007 39.5711 8.4426C39.4886 8.37762 39.4086 8.33263 39.3336 8.30264C39.2586 8.27265 39.1887 8.26015 39.1212 8.26265C39.0537 8.26265 38.9937 8.28264 38.9362 8.31514C38.8788 8.34763 38.8287 8.39261 38.7838 8.4501L38.7913 8.4526Z" fill="#032D60"/>
<path d="M40.5086 12.2714L41.4608 13.3286L41.2334 13.5335L40.0537 12.2264L42.1156 10.3669L43.2428 11.6166L43.0153 11.8215L42.1131 10.8218L41.4483 11.4216L42.2506 12.3114L42.0231 12.5163L41.2209 11.6266L40.5036 12.2739L40.5086 12.2714Z" fill="#032D60"/>
<path d="M42.843 15.8455L42.6655 15.5581L44.7699 14.2634L44.2826 13.4737L44.5425 13.3137L45.6922 15.1807L45.4322 15.3406L44.9449 14.5509L42.8405 15.8455H42.843Z" fill="#032D60"/>
<path d="M21.2489 45.7691C21.0989 45.7266 20.954 45.7141 20.8115 45.7291C20.6716 45.7441 20.5416 45.7866 20.4241 45.8566C20.3067 45.9266 20.2042 46.024 20.1142 46.149C20.0242 46.274 19.9567 46.4264 19.9068 46.6064C19.8593 46.7838 19.8393 46.9463 19.8493 47.0937C19.8593 47.2412 19.8943 47.3711 19.9568 47.4861C20.0193 47.6011 20.1067 47.6986 20.2192 47.7785C20.3316 47.8585 20.4691 47.921 20.6291 47.9635C20.744 47.996 20.8615 48.0185 20.9865 48.031C21.1114 48.046 21.2289 48.0485 21.3413 48.0435L21.2114 48.5208C21.0964 48.5208 20.979 48.5158 20.8515 48.4983C20.724 48.4833 20.5966 48.4558 20.4641 48.4208C20.2092 48.3509 19.9943 48.2534 19.8193 48.1259C19.6444 48.001 19.5119 47.8535 19.4169 47.6836C19.3219 47.5136 19.2695 47.3287 19.2545 47.1237C19.2395 46.9188 19.262 46.7063 19.3245 46.4814C19.3869 46.2515 19.4794 46.0465 19.6044 45.8691C19.7293 45.6916 19.8768 45.5467 20.0467 45.4392C20.2192 45.3317 20.4141 45.2618 20.6341 45.2343C20.854 45.2043 21.0889 45.2243 21.3388 45.2918C21.4663 45.3267 21.5863 45.3692 21.6963 45.4167C21.8062 45.4642 21.9012 45.5167 21.9862 45.5742L21.8587 46.044C21.7487 45.9741 21.6438 45.9166 21.5438 45.8741C21.4438 45.8316 21.3439 45.7941 21.2464 45.7691H21.2489Z" fill="#032D60"/>
<path d="M26.1675 46.8264C26.16 47.0439 26.095 47.2288 25.9676 47.3763C25.8401 47.5237 25.6527 47.6312 25.3977 47.6962V47.7062L26.2875 49.0233L25.6002 49.0008L24.7879 47.7611L24.3955 47.7487L24.3555 48.9608L23.7832 48.9433L23.8832 45.8142L24.8354 45.8442C24.9928 45.8492 25.1403 45.8642 25.2753 45.8842C25.4102 45.9067 25.5252 45.9367 25.6202 45.9767C25.8026 46.0516 25.9401 46.1616 26.0351 46.3016C26.13 46.4415 26.175 46.619 26.1675 46.8264ZM24.693 47.2763C24.8229 47.2813 24.9354 47.2763 25.0278 47.2688C25.1203 47.2613 25.1978 47.2463 25.2603 47.2238C25.3778 47.1838 25.4578 47.1263 25.5052 47.0514C25.5527 46.9764 25.5777 46.8914 25.5802 46.7914C25.5827 46.7065 25.5677 46.6315 25.5352 46.5665C25.5027 46.5015 25.4452 46.449 25.3603 46.409C25.3053 46.3815 25.2378 46.3616 25.1553 46.3466C25.0728 46.3316 24.9704 46.3241 24.8504 46.3191L24.4405 46.3066L24.4105 47.2663L24.693 47.2763Z" fill="#032D60"/>
<path d="M30.2415 47.6087C30.2515 47.3538 30.274 47.0764 30.3064 46.779L30.4889 45.1969L31.2711 45.012L31.991 48.0586L31.4336 48.191L31.0687 46.6465C31.0163 46.4216 30.9612 46.1566 30.9087 45.8517L30.8888 45.8567C30.8838 45.9492 30.8763 46.0542 30.8663 46.1691C30.8563 46.2841 30.8463 46.3991 30.8313 46.514L30.6063 48.3835L30.2465 48.4685L29.2092 46.8964C29.1467 46.8014 29.0843 46.704 29.0243 46.604C28.9643 46.504 28.9093 46.4141 28.8644 46.3341L28.8443 46.3391C28.9293 46.6165 28.9993 46.8764 29.0568 47.1189L29.4217 48.6659L28.8644 48.7984L28.1445 45.7517L28.9243 45.5668L29.7941 46.8939C29.939 47.1139 30.084 47.3538 30.2264 47.6137H30.239L30.2415 47.6087Z" fill="#032D60"/>
<path d="M11.7815 40.7155C11.744 40.6781 11.7041 40.6506 11.6666 40.6306C11.6291 40.6106 11.5891 40.5981 11.5516 40.5931C11.5141 40.5881 11.4767 40.5906 11.4392 40.5981C11.4017 40.6056 11.3667 40.6206 11.3317 40.6406C11.3092 40.6531 11.2867 40.6681 11.2642 40.6881C11.2417 40.708 11.2192 40.728 11.2017 40.748L10.5669 41.4028L10.4395 41.2779L11.0718 40.6256C11.0968 40.6006 11.1217 40.5756 11.1517 40.5531C11.1792 40.5281 11.2092 40.5081 11.2367 40.4906C11.2842 40.4606 11.3342 40.4406 11.3867 40.4256C11.4392 40.4131 11.4916 40.4081 11.5466 40.4156C11.6016 40.4231 11.6591 40.4406 11.7165 40.4706C11.774 40.5006 11.8341 40.5456 11.8941 40.6031C11.9515 40.6581 11.9965 40.7155 12.029 40.7705C12.059 40.8255 12.0814 40.8805 12.0914 40.933C12.1014 40.9855 12.1014 41.0379 12.0914 41.0879C12.0814 41.1379 12.064 41.1854 12.0415 41.2329C12.024 41.2679 12.0015 41.3004 11.9765 41.3329C11.9515 41.3654 11.924 41.3978 11.8966 41.4253L11.2642 42.0777L11.1368 41.9527L11.7716 41.2979C11.7941 41.2754 11.8165 41.2479 11.8365 41.2204C11.8565 41.1929 11.874 41.1654 11.8865 41.1379C11.9165 41.0679 11.9265 40.998 11.9115 40.928C11.8965 40.858 11.854 40.788 11.784 40.718L11.7815 40.7155Z" fill="#032D60"/>
<path d="M9.82486 40.0258C9.85736 39.9983 9.87985 39.9683 9.88985 39.9358C9.89985 39.9033 9.90235 39.8708 9.89735 39.8358C9.89235 39.8008 9.88233 39.7659 9.86483 39.7284C9.84984 39.6909 9.82985 39.6534 9.81236 39.6134C9.78736 39.5609 9.76236 39.5084 9.73987 39.4559C9.71737 39.4035 9.7049 39.351 9.6999 39.2985C9.6949 39.246 9.69986 39.1935 9.72236 39.1435C9.74235 39.0935 9.77983 39.0436 9.83731 38.9961C9.8948 38.9461 9.95483 38.9161 10.0173 38.9036C10.0798 38.8911 10.1398 38.8911 10.1973 38.9086C10.2572 38.9261 10.3172 38.9536 10.3747 38.9961C10.4322 39.0386 10.4871 39.091 10.5421 39.1535C10.5671 39.1835 10.5896 39.2135 10.6121 39.2485C10.6346 39.2835 10.6546 39.316 10.6696 39.3485C10.6846 39.381 10.6996 39.4135 10.7121 39.4409C10.7246 39.4684 10.7296 39.4934 10.7321 39.5134L10.6071 39.6184C10.5996 39.5884 10.5896 39.5584 10.5771 39.5259C10.5647 39.4934 10.5496 39.4609 10.5321 39.4284C10.5146 39.396 10.4971 39.366 10.4771 39.336C10.4571 39.306 10.4372 39.2785 10.4172 39.2535C10.3847 39.2135 10.3497 39.1785 10.3122 39.1485C10.2747 39.1185 10.2397 39.096 10.1998 39.0836C10.1623 39.0686 10.1223 39.0661 10.0823 39.0736C10.0423 39.081 10.0023 39.101 9.95984 39.136C9.92734 39.1635 9.90485 39.1935 9.89485 39.226C9.88485 39.2585 9.88235 39.291 9.88735 39.326C9.89235 39.361 9.90231 39.3985 9.91981 39.4359C9.9373 39.4734 9.95479 39.5109 9.97478 39.5509C10.0023 39.6034 10.0248 39.6559 10.0473 39.7084C10.0698 39.7609 10.0822 39.8133 10.0872 39.8633C10.0922 39.9158 10.0873 39.9658 10.0673 40.0158C10.0498 40.0658 10.0123 40.1133 9.95733 40.1582C9.89985 40.2057 9.84232 40.2382 9.78234 40.2507C9.72235 40.2632 9.66488 40.2657 9.6074 40.2507C9.54991 40.2382 9.49745 40.2132 9.44497 40.1782C9.39248 40.1432 9.34498 40.0983 9.29999 40.0458C9.25001 39.9858 9.20752 39.9258 9.17753 39.8633C9.14504 39.8008 9.12003 39.7409 9.10254 39.6834L9.23 39.5759C9.25 39.6384 9.275 39.7009 9.30249 39.7609C9.33248 39.8208 9.36996 39.8783 9.41745 39.9358C9.45244 39.9783 9.48991 40.0108 9.5249 40.0358C9.55989 40.0583 9.59492 40.0758 9.62991 40.0808C9.6649 40.0883 9.69737 40.0858 9.72986 40.0758C9.76235 40.0658 9.79487 40.0483 9.82486 40.0233V40.0258Z" fill="#032D60"/>
<path d="M7.55572 37.5791L8.6754 36.9043L8.30551 36.2895L8.44298 36.207L8.90531 36.9743L7.64573 37.7316L7.55322 37.5791H7.55572Z" fill="#032D60"/>
<path d="M8.05293 35.4947L6.46836 35.5796L6.40088 35.4397L7.47308 34.27L7.55557 34.445L7.23066 34.7924L7.49309 35.3472L7.96793 35.3172L8.05043 35.4922L8.05293 35.4947ZM6.64336 35.4147C6.83581 35.3947 7.01322 35.3822 7.17318 35.3722L7.32066 35.3622L7.1132 34.9223L7.01325 35.0323C6.90078 35.1523 6.77582 35.2772 6.64086 35.4122V35.4172L6.64336 35.4147Z" fill="#032D60"/>
<path d="M6.50829 33.4602L7.08313 33.2602L7.14311 33.4302L5.756 33.915L5.63104 33.5551C5.60854 33.4951 5.59356 33.4427 5.58357 33.3977C5.57357 33.3527 5.56605 33.3127 5.56355 33.2727C5.55605 33.1677 5.57604 33.0778 5.62103 33.0053C5.66602 32.9328 5.73602 32.8778 5.83099 32.8453C5.88598 32.8253 5.94093 32.8178 5.99092 32.8203C6.0409 32.8203 6.08841 32.8353 6.13339 32.8553C6.17588 32.8753 6.21837 32.9053 6.25336 32.9453C6.29084 32.9828 6.32331 33.0278 6.3508 33.0803H6.3558L6.80569 32.4604L6.86567 32.6304L6.4408 33.2577L6.51329 33.4627L6.50829 33.4602ZM5.84844 33.6901L6.3558 33.5126L6.29833 33.3452C6.28083 33.2927 6.26335 33.2502 6.24585 33.2152C6.23085 33.1802 6.21337 33.1502 6.19337 33.1228C6.15589 33.0703 6.11089 33.0353 6.06091 33.0178C6.01092 33.0003 5.95345 33.0028 5.89097 33.0228C5.83099 33.0453 5.7885 33.0753 5.76351 33.1178C5.73851 33.1602 5.72598 33.2102 5.72848 33.2677C5.72848 33.2952 5.7335 33.3277 5.74349 33.3627C5.75099 33.3977 5.76596 33.4427 5.78346 33.4952L5.85094 33.6876L5.84844 33.6901Z" fill="#032D60"/>
<path d="M5.73132 30.7034L5.80631 31.0308L5.64888 31.0683L5.53387 30.5684L6.22617 30.4084C6.23617 30.4209 6.2512 30.4409 6.2662 30.4684C6.28119 30.4959 6.29617 30.5259 6.31117 30.5634C6.32616 30.5984 6.34114 30.6384 6.35614 30.6784C6.37113 30.7209 6.38117 30.7608 6.39116 30.8033C6.41865 30.9258 6.42862 31.0383 6.41612 31.1407C6.40362 31.2432 6.37617 31.3307 6.32868 31.4107C6.28119 31.4881 6.21871 31.5531 6.13873 31.6081C6.05876 31.6606 5.96375 31.7006 5.85628 31.7256C5.73882 31.7531 5.62889 31.7581 5.52392 31.7456C5.41895 31.7331 5.32645 31.6981 5.24397 31.6456C5.1615 31.5931 5.08899 31.5231 5.02901 31.4357C4.96902 31.3482 4.92659 31.2457 4.8991 31.1282C4.8916 31.0982 4.88659 31.0658 4.88159 31.0333C4.87659 31.0008 4.87408 30.9708 4.87158 30.9408C4.87158 30.9108 4.87158 30.8833 4.87158 30.8583C4.87158 30.8333 4.87409 30.8108 4.87659 30.7933L5.03151 30.7583C5.02651 30.8033 5.02651 30.8558 5.03151 30.9133C5.03651 30.9708 5.04403 31.0283 5.05653 31.0833C5.07652 31.1657 5.10654 31.2382 5.14653 31.3082C5.18901 31.3757 5.24147 31.4332 5.30395 31.4781C5.36643 31.5231 5.43894 31.5531 5.52392 31.5706C5.6089 31.5881 5.69884 31.5831 5.80131 31.5606C5.90128 31.5381 5.98375 31.5031 6.04873 31.4581C6.11371 31.4132 6.16373 31.3607 6.20122 31.2982C6.2362 31.2357 6.2562 31.1657 6.2637 31.0883C6.2687 31.0108 6.26367 30.9258 6.24118 30.8383C6.23118 30.7958 6.22121 30.7558 6.20622 30.7184C6.19122 30.6809 6.17868 30.6459 6.16369 30.6159L5.73882 30.7134L5.73132 30.7034Z" fill="#032D60"/>
<path d="M5.91293 29.2062L5.82049 28.459L5.98042 28.439L6.09537 29.3637L4.63833 29.5436L4.52832 28.6589L4.68831 28.6389L4.77575 29.3462L5.24564 29.2887L5.16815 28.6589L5.32814 28.6389L5.40557 29.2687L5.91293 29.2062Z" fill="#032D60"/>
<path d="M4.57156 25.6299C4.57156 25.7124 4.57903 25.7899 4.60402 25.8624C4.62902 25.9348 4.66399 25.9973 4.71398 26.0523C4.76396 26.1073 4.82645 26.1498 4.90142 26.1823C4.9764 26.2148 5.06639 26.2322 5.16636 26.2347C5.26633 26.2372 5.35632 26.2272 5.4313 26.1998C5.50628 26.1723 5.56876 26.1348 5.61875 26.0848C5.66873 26.0348 5.70621 25.9723 5.7337 25.8998C5.7587 25.8274 5.77367 25.7474 5.77617 25.6574C5.77617 25.6324 5.77617 25.6074 5.77617 25.5799C5.77617 25.5524 5.77122 25.525 5.76623 25.4975C5.76123 25.47 5.75871 25.4425 5.75121 25.415C5.74622 25.3875 5.7387 25.365 5.7337 25.345L5.89119 25.35C5.90618 25.3925 5.91865 25.445 5.92615 25.5025C5.93365 25.5599 5.93616 25.6174 5.93366 25.6774C5.93116 25.7999 5.90867 25.9073 5.87368 25.9998C5.83619 26.0923 5.78617 26.1723 5.71869 26.2322C5.65371 26.2947 5.57375 26.3397 5.48127 26.3697C5.3888 26.3997 5.28383 26.4122 5.16886 26.4097C5.0539 26.4072 4.94893 26.3872 4.85645 26.3472C4.76148 26.3097 4.68151 26.2572 4.61403 26.1898C4.54655 26.1223 4.4966 26.0423 4.45911 25.9473C4.42162 25.8524 4.40658 25.7474 4.41157 25.6324C4.41157 25.6024 4.41408 25.5724 4.41908 25.5424C4.42408 25.5125 4.42659 25.485 4.43159 25.4575C4.43659 25.43 4.4441 25.405 4.4516 25.3825C4.4591 25.36 4.46656 25.34 4.47406 25.3225L4.63154 25.3275C4.61655 25.3725 4.60151 25.42 4.59152 25.4725C4.58152 25.525 4.57406 25.5774 4.57156 25.6299Z" fill="#032D60"/>
<path d="M5.98062 24.5178L4.60352 23.7281L4.62353 23.5756L6.16056 23.1782L6.1356 23.3707L5.67321 23.4856L5.59072 24.0955L6.00564 24.3279L5.98062 24.5178ZM4.83843 23.6856C5.01088 23.7756 5.16837 23.8605 5.30833 23.938L5.4383 24.0105L5.50328 23.5281L5.3583 23.5656C5.19835 23.6056 5.02588 23.6431 4.83843 23.6806V23.6856Z" fill="#032D60"/>
<path d="M6.38318 22.111L6.34065 22.2859L4.91357 21.9385L5.00858 21.5436C5.02357 21.4837 5.03856 21.4312 5.05855 21.3837C5.07855 21.3362 5.10104 21.2912 5.12604 21.2537C5.17852 21.1763 5.2385 21.1213 5.31098 21.0938C5.38346 21.0638 5.46343 21.0613 5.5509 21.0813C5.62338 21.0988 5.68336 21.1288 5.73084 21.1713C5.77833 21.2137 5.8158 21.2662 5.8383 21.3312C5.86079 21.3937 5.87332 21.4687 5.87332 21.5511C5.87332 21.6336 5.86085 21.7261 5.83585 21.8261C5.82336 21.8736 5.81082 21.9235 5.79333 21.9735L6.38068 22.116L6.38318 22.111ZM5.6359 21.9285C5.6434 21.906 5.65336 21.881 5.66086 21.8561C5.66835 21.8311 5.67587 21.8061 5.68087 21.7836C5.70086 21.7011 5.71089 21.6311 5.71089 21.5686C5.71089 21.5087 5.70587 21.4562 5.68837 21.4137C5.67338 21.3712 5.64838 21.3387 5.61839 21.3137C5.5884 21.2887 5.54842 21.2712 5.50343 21.2612C5.44845 21.2487 5.39844 21.2512 5.35845 21.2687C5.31597 21.2862 5.28099 21.3187 5.2485 21.3637C5.22851 21.3912 5.21352 21.4237 5.19853 21.4637C5.18353 21.5037 5.171 21.5486 5.1585 21.6011L5.10853 21.8036L5.6334 21.931L5.6359 21.9285Z" fill="#032D60"/>
<path d="M13.4763 43.2499L14.0162 43.6747L13.3314 43.6447L13.0939 44.2896L12.909 43.6273L12.2217 43.5998L12.7965 43.2199L12.6091 42.5601L13.1465 42.9874L13.7187 42.605L13.4763 43.2499Z" fill="#0D9DDA"/>
<path d="M6.44804 17.8873L7.41022 17.8399L6.65794 18.4397L6.99787 19.3394L6.19561 18.8096L5.44332 19.4119L5.70076 18.4847L4.896 17.9573L5.85818 17.9148L6.11061 16.9851L6.44804 17.8873Z" fill="#0D9DDA"/>
<path d="M38.9989 43.2499L38.459 43.6747L39.1463 43.6447L39.3838 44.2896L39.5687 43.6273L40.2535 43.5998L39.6812 43.2199L39.8686 42.5601L39.3312 42.9874L38.7589 42.605L38.9989 43.2499Z" fill="#0D9DDA"/>
<path d="M46.0291 17.8873L45.0669 17.8399L45.8192 18.4397L45.4767 19.3394L46.2815 18.8096L47.0313 19.4119L46.7764 18.4847L47.5811 17.9573L46.6189 17.9148L46.3665 16.9851L46.0291 17.8873Z" fill="#0D9DDA"/>
<path d="M45.9569 22.216C45.9693 22.2685 45.9844 22.3135 46.0069 22.351C46.0269 22.3885 46.0518 22.421 46.0818 22.446C46.1118 22.471 46.1418 22.491 46.1793 22.5035C46.2143 22.516 46.2518 22.5234 46.2943 22.5259C46.3193 22.5259 46.3468 22.5259 46.3768 22.5259C46.4068 22.5234 46.4342 22.5184 46.4617 22.511L47.3515 22.3135L47.3889 22.4885L46.5042 22.6834C46.4718 22.6909 46.4342 22.6959 46.3992 22.7009C46.3617 22.7059 46.3268 22.7084 46.2943 22.7059C46.2393 22.7059 46.1843 22.6934 46.1344 22.6759C46.0844 22.6584 46.0369 22.6309 45.9944 22.5959C45.9519 22.5609 45.9144 22.5135 45.8819 22.456C45.8494 22.3985 45.8244 22.3285 45.8069 22.2485C45.7894 22.1686 45.7819 22.0986 45.7869 22.0361C45.7919 21.9736 45.8045 21.9161 45.8244 21.8686C45.8444 21.8187 45.8744 21.7762 45.9094 21.7412C45.9444 21.7062 45.9869 21.6737 46.0318 21.6487C46.0643 21.6312 46.1018 21.6137 46.1418 21.6012C46.1818 21.5887 46.2218 21.5762 46.2593 21.5687L47.144 21.3738L47.1815 21.5487L46.2918 21.7462C46.2593 21.7537 46.2268 21.7637 46.1943 21.7762C46.1618 21.7887 46.1318 21.8037 46.1068 21.8187C46.0444 21.8586 45.9969 21.9136 45.9694 21.9786C45.9419 22.0461 45.9394 22.1261 45.9594 22.2235L45.9569 22.216Z" fill="#032D60"/>
<path d="M47.2091 23.8704C47.1666 23.8754 47.1316 23.8879 47.1067 23.9079C47.0817 23.9279 47.0592 23.9554 47.0442 23.9854C47.0292 24.0154 47.0192 24.0529 47.0117 24.0929C47.0042 24.1328 46.9992 24.1753 46.9917 24.2178C46.9842 24.2753 46.9742 24.3328 46.9642 24.3903C46.9542 24.4477 46.9367 24.4977 46.9117 24.5452C46.8867 24.5927 46.8517 24.6302 46.8093 24.6627C46.7643 24.6952 46.7043 24.7152 46.6318 24.7227C46.5568 24.7327 46.4893 24.7227 46.4319 24.7027C46.3744 24.6802 46.3244 24.6452 46.2819 24.6002C46.2419 24.5527 46.2094 24.4952 46.1844 24.4303C46.1594 24.3628 46.142 24.2878 46.132 24.2053C46.127 24.1678 46.127 24.1278 46.127 24.0879C46.127 24.0479 46.127 24.0079 46.1345 23.9729C46.1395 23.9354 46.1444 23.9029 46.1519 23.8729C46.1594 23.8429 46.1669 23.8179 46.1744 23.8004L46.3369 23.7829C46.3269 23.8104 46.3169 23.8404 46.3119 23.8754C46.3044 23.9104 46.2994 23.9454 46.2944 23.9804C46.2894 24.0154 46.2894 24.0529 46.2894 24.0879C46.2894 24.1228 46.2894 24.1578 46.2944 24.1878C46.2994 24.2378 46.3094 24.2878 46.3244 24.3328C46.3394 24.3778 46.3569 24.4178 46.3819 24.4502C46.4069 24.4827 46.4368 24.5077 46.4743 24.5227C46.5118 24.5377 46.5568 24.5452 46.6093 24.5377C46.6518 24.5327 46.6868 24.5202 46.7142 24.4977C46.7417 24.4752 46.7617 24.4502 46.7767 24.4178C46.7917 24.3853 46.8043 24.3503 46.8093 24.3103C46.8167 24.2703 46.8217 24.2278 46.8292 24.1828C46.8367 24.1253 46.8442 24.0679 46.8542 24.0104C46.8642 23.9529 46.8817 23.9029 46.9067 23.8579C46.9317 23.8129 46.9642 23.7729 47.0067 23.743C47.0492 23.713 47.1067 23.693 47.1791 23.6855C47.2541 23.678 47.3191 23.6855 47.3766 23.7055C47.4341 23.7255 47.4815 23.7579 47.5215 23.8004C47.5615 23.8429 47.594 23.8929 47.6165 23.9529C47.639 24.0104 47.6565 24.0754 47.664 24.1428C47.674 24.2203 47.674 24.2953 47.664 24.3628C47.654 24.4303 47.644 24.4952 47.6265 24.5552L47.4615 24.5727C47.4815 24.5102 47.4941 24.4453 47.5041 24.3778C47.5141 24.3128 47.5141 24.2428 47.5041 24.1678C47.4991 24.1128 47.4865 24.0654 47.469 24.0254C47.4515 23.9854 47.4315 23.9529 47.4066 23.9304C47.3816 23.9054 47.3516 23.8879 47.3191 23.8804C47.2866 23.8704 47.2491 23.8679 47.2116 23.8729L47.2091 23.8704Z" fill="#032D60"/>
<path d="M47.7515 27.1644L46.4444 27.1119L46.4144 27.8292L46.252 27.8217L46.2894 26.927L47.759 26.987L47.7515 27.1644Z" fill="#032D60"/>
<path d="M46.1895 28.6265L47.5591 29.4263L47.5366 29.5787L45.9971 29.9636L46.0245 29.7712L46.4869 29.6587L46.5744 29.0514L46.162 28.814L46.1895 28.624V28.6265ZM47.3217 29.4688C47.1492 29.3788 46.9943 29.2938 46.8543 29.2114L46.7243 29.1364L46.6569 29.6187L46.8018 29.5837C46.9618 29.5463 47.1343 29.5088 47.3217 29.4713V29.4663V29.4688Z" fill="#032D60"/>
<path d="M46.3568 31.1835L45.7669 31.0335L45.8119 30.8611L47.2365 31.221L47.144 31.5909C47.129 31.6534 47.1115 31.7058 47.0965 31.7483C47.0815 31.7908 47.0641 31.8283 47.0441 31.8633C46.9916 31.9558 46.9266 32.0207 46.8491 32.0557C46.7716 32.0907 46.6842 32.0982 46.5867 32.0732C46.5292 32.0582 46.4792 32.0357 46.4393 32.0058C46.3993 31.9758 46.3667 31.9408 46.3418 31.8983C46.3168 31.8558 46.2993 31.8108 46.2893 31.7583C46.2793 31.7058 46.2768 31.6509 46.2818 31.5909H46.2768L45.562 31.8583L45.607 31.6858L46.3068 31.3959L46.3593 31.186L46.3568 31.1835ZM47.0366 31.3534L46.5142 31.221L46.4717 31.3934C46.4592 31.4459 46.4493 31.4934 46.4418 31.5309C46.4368 31.5684 46.4343 31.6059 46.4343 31.6359C46.4368 31.7008 46.4542 31.7558 46.4867 31.7983C46.5192 31.8408 46.5667 31.8708 46.6342 31.8883C46.6967 31.9033 46.7492 31.9008 46.7941 31.8783C46.8391 31.8583 46.8766 31.8208 46.9066 31.7708C46.9216 31.7483 46.9341 31.7183 46.9466 31.6833C46.9591 31.6484 46.9716 31.6034 46.9866 31.5484L47.0366 31.3509V31.3534Z" fill="#032D60"/>
<path d="M45.4894 33.91L45.6069 33.5951L45.7593 33.6501L45.5818 34.1325L44.9146 33.885C44.9146 33.8675 44.9146 33.8425 44.9146 33.8125C44.9146 33.7826 44.9221 33.7476 44.9271 33.7101C44.9321 33.6726 44.942 33.6326 44.952 33.5901C44.962 33.5476 44.977 33.5076 44.9895 33.4677C45.0345 33.3502 45.087 33.2502 45.1545 33.1727C45.222 33.0953 45.2945 33.0353 45.3744 32.9953C45.4569 32.9553 45.5443 32.9353 45.6418 32.9353C45.7368 32.9353 45.8368 32.9528 45.9418 32.9928C46.0542 33.0353 46.1492 33.0903 46.2292 33.1577C46.3092 33.2277 46.3691 33.3052 46.4091 33.3952C46.4491 33.4851 46.4716 33.5826 46.4716 33.6901C46.4716 33.7951 46.4516 33.905 46.4116 34.0175C46.4016 34.0475 46.3891 34.0775 46.3742 34.1075C46.3617 34.1375 46.3466 34.1649 46.3316 34.1899C46.3166 34.2149 46.3016 34.2399 46.2867 34.2599C46.2717 34.2799 46.2592 34.2974 46.2442 34.3124L46.0967 34.2574C46.1267 34.2224 46.1542 34.1774 46.1842 34.1275C46.2142 34.0775 46.2367 34.025 46.2567 33.9725C46.2867 33.895 46.3017 33.815 46.3042 33.7351C46.3067 33.6551 46.2941 33.5801 46.2666 33.5076C46.2391 33.4352 46.1942 33.3702 46.1342 33.3102C46.0742 33.2502 45.9942 33.2027 45.8967 33.1677C45.8018 33.1327 45.7144 33.1153 45.6344 33.1153C45.5544 33.1153 45.4844 33.1327 45.4194 33.1652C45.3544 33.1977 45.2995 33.2452 45.252 33.3052C45.2045 33.3677 45.1645 33.4402 45.132 33.5276C45.117 33.5676 45.1045 33.6076 45.0945 33.6476C45.0845 33.6876 45.077 33.7251 45.0745 33.7576L45.4844 33.91H45.4894Z" fill="#032D60"/>
<path d="M44.5145 35.0623L44.1796 35.7371L44.0347 35.6646L44.4496 34.8298L45.7667 35.4821L45.3718 36.2819L45.2268 36.2094L45.5442 35.5721L45.1194 35.3622L44.8369 35.9295L44.692 35.857L44.9744 35.2897L44.517 35.0623H44.5145Z" fill="#032D60"/>
<path d="M43.6625 38.7861C43.71 38.7186 43.7426 38.6486 43.7625 38.5737C43.7825 38.5012 43.7875 38.4262 43.775 38.3537C43.7625 38.2813 43.735 38.2113 43.6901 38.1413C43.6451 38.0713 43.5801 38.0088 43.4976 37.9488C43.4151 37.8914 43.3352 37.8514 43.2577 37.8314C43.1802 37.8114 43.1077 37.8089 43.0377 37.8239C42.9677 37.8389 42.9027 37.8689 42.8403 37.9139C42.7778 37.9588 42.7228 38.0188 42.6703 38.0938C42.6553 38.1138 42.6429 38.1363 42.6279 38.1588C42.6129 38.1813 42.6003 38.2088 42.5878 38.2338C42.5753 38.2588 42.5654 38.2837 42.5554 38.3087C42.5454 38.3337 42.5379 38.3562 42.5304 38.3787L42.4004 38.2887C42.4104 38.2438 42.4304 38.1963 42.4554 38.1438C42.4804 38.0913 42.5104 38.0413 42.5454 37.9913C42.6153 37.8914 42.6928 37.8139 42.7753 37.7539C42.8578 37.6964 42.9427 37.6589 43.0327 37.6439C43.1227 37.6289 43.2127 37.6339 43.3077 37.6589C43.4026 37.6839 43.4951 37.7314 43.5926 37.7989C43.685 37.8639 43.7625 37.9388 43.82 38.0238C43.8775 38.1088 43.9175 38.1963 43.935 38.2887C43.9525 38.3812 43.9525 38.4787 43.93 38.5762C43.9075 38.6736 43.8625 38.7711 43.795 38.8661C43.7775 38.8911 43.76 38.9161 43.74 38.9386C43.72 38.9611 43.7 38.9835 43.6826 39.0035C43.6626 39.0235 43.6426 39.041 43.6251 39.056C43.6051 39.071 43.5876 39.0835 43.5726 39.0935L43.4426 39.0035C43.4801 38.976 43.5176 38.9436 43.5576 38.9061C43.5951 38.8686 43.63 38.8286 43.6625 38.7861Z" fill="#032D60"/>
<path d="M41.878 38.9312L42.5903 40.3482L42.4878 40.4657L40.9883 39.9484L41.1157 39.8009L41.5631 39.9609L41.968 39.4985L41.7506 39.0761L41.878 38.9312ZM42.3679 40.2558C42.2729 40.0858 42.1904 39.9284 42.1155 39.7859L42.048 39.6534L41.7281 40.0208L41.868 40.0708C42.023 40.1258 42.1879 40.1883 42.3654 40.2608H42.3679V40.2558Z" fill="#032D60"/>
<path d="M40.2134 40.7182L40.3433 40.5957L41.3431 41.6729L41.0457 41.9503C41.0007 41.9903 40.9582 42.0278 40.9157 42.0578C40.8732 42.0878 40.8307 42.1103 40.7882 42.1303C40.7032 42.1678 40.6208 42.1777 40.5458 42.1628C40.4708 42.1478 40.4008 42.1078 40.3383 42.0403C40.2884 41.9853 40.2534 41.9278 40.2359 41.8653C40.2184 41.8029 40.2184 41.7404 40.2359 41.6729C40.2509 41.6054 40.2808 41.5379 40.3283 41.4705C40.3733 41.4005 40.4359 41.3305 40.5108 41.263C40.5458 41.2305 40.5858 41.1955 40.6258 41.163L40.2134 40.7207V40.7182ZM40.7358 41.2805C40.7158 41.2955 40.6958 41.3105 40.6758 41.328C40.6558 41.3455 40.6358 41.3605 40.6208 41.378C40.5583 41.4355 40.5108 41.4904 40.4758 41.5379C40.4408 41.5879 40.4183 41.6354 40.4083 41.6779C40.3983 41.7229 40.3983 41.7629 40.4108 41.8004C40.4233 41.8378 40.4458 41.8728 40.4758 41.9078C40.5158 41.9503 40.5558 41.9753 40.6008 41.9828C40.6458 41.9903 40.6933 41.9828 40.7433 41.9653C40.7732 41.9528 40.8057 41.9328 40.8407 41.9103C40.8732 41.8853 40.9107 41.8553 40.9507 41.8179L41.1031 41.6754L40.7358 41.2805Z" fill="#032D60"/>
<path d="M23.2686 18.6919C23.6934 19.0443 24.2933 19.1143 24.7556 18.8143C25.4129 18.3895 26.1927 18.142 27.0274 18.142C28.3196 18.142 29.4743 18.7294 30.254 19.6566C30.5565 20.0165 31.0438 20.1764 31.4987 20.0565C31.9186 19.9465 32.3559 19.8865 32.8083 19.8865C35.66 19.8865 37.9718 22.2184 37.9718 25.095C37.9718 27.9717 35.66 30.3035 32.8083 30.3035C32.6983 30.3035 32.5883 30.301 32.4809 30.2935C32.0685 30.2685 31.6736 30.441 31.4087 30.7609C30.7164 31.6007 29.6692 32.1355 28.497 32.1355C28.2271 32.1355 27.9647 32.108 27.7122 32.053C27.2074 31.9456 26.695 32.1405 26.3976 32.5604C25.6178 33.6601 24.3333 34.3799 22.8837 34.3799C21.4341 34.3799 19.9495 33.5326 19.1822 32.268C18.9473 31.8806 18.5374 31.6406 18.085 31.6481C18.0625 31.6481 18.0401 31.6481 18.0201 31.6481C15.8132 31.6481 14.0237 29.8412 14.0237 27.6093C14.0237 26.3997 14.5511 25.315 15.3833 24.5727C15.7232 24.2703 15.8757 23.7954 15.7682 23.3505C15.6833 23.0006 15.6408 22.6357 15.6408 22.2633C15.6408 19.6966 17.7226 17.6172 20.2919 17.6172C21.4241 17.6172 22.4613 18.0221 23.2661 18.6919H23.2686Z" fill="#0D9DDA"/>
<path d="M17.4952 26.3097C17.4802 26.3497 17.5002 26.3572 17.5052 26.3647C17.5502 26.3972 17.5977 26.4197 17.6402 26.4497C17.8826 26.5772 18.115 26.6171 18.355 26.6171C18.8473 26.6171 19.1522 26.3547 19.1522 25.9373V25.9298C19.1522 25.5425 18.8073 25.4 18.4849 25.2975L18.4425 25.285C18.2 25.2075 17.9901 25.1376 17.9901 24.9751V24.9676C17.9901 24.8327 18.1125 24.7302 18.305 24.7302C18.5174 24.7302 18.7674 24.8002 18.9273 24.8901C18.9273 24.8901 18.9748 24.9226 18.9923 24.8751C19.0023 24.8502 19.0847 24.6277 19.0922 24.6052C19.1022 24.5802 19.0848 24.5602 19.0698 24.5502C18.8848 24.4378 18.6299 24.3628 18.365 24.3628H18.315C17.8651 24.3628 17.5502 24.6352 17.5502 25.0226V25.0301C17.5502 25.4425 17.8951 25.5724 18.22 25.6674L18.2725 25.6824C18.5074 25.7549 18.7123 25.8174 18.7123 25.9848V25.9923C18.7123 26.1448 18.5799 26.2572 18.3675 26.2572C18.2825 26.2572 18.0201 26.2572 17.7326 26.0748C17.6977 26.0548 17.6776 26.0398 17.6526 26.0248C17.6402 26.0173 17.6027 26.0023 17.5877 26.0448L17.4902 26.3147H17.4952V26.3097Z" fill="white"/>
<path d="M24.6857 26.3097C24.6707 26.3497 24.6907 26.3572 24.6957 26.3647C24.7406 26.3972 24.7881 26.4197 24.8306 26.4497C25.0731 26.5772 25.3055 26.6171 25.5454 26.6171C26.0377 26.6171 26.3426 26.3547 26.3426 25.9373V25.9298C26.3426 25.5425 26.0003 25.4 25.6754 25.2975L25.6329 25.285C25.3905 25.2075 25.1805 25.1376 25.1805 24.9751V24.9676C25.1805 24.8327 25.303 24.7302 25.4954 24.7302C25.7079 24.7302 25.9578 24.8002 26.1177 24.8901C26.1177 24.8901 26.1652 24.9226 26.1827 24.8751C26.1927 24.8502 26.2752 24.6277 26.2827 24.6052C26.2927 24.5802 26.2752 24.5602 26.2602 24.5502C26.0753 24.4378 25.8203 24.3628 25.5554 24.3628H25.5054C25.0556 24.3628 24.7406 24.6352 24.7406 25.0226V25.0301C24.7406 25.4425 25.0855 25.5724 25.4104 25.6674L25.4629 25.6824C25.6978 25.7549 25.9028 25.8174 25.9028 25.9848V25.9923C25.9028 26.1448 25.7703 26.2572 25.5579 26.2572C25.4729 26.2572 25.2105 26.2572 24.9231 26.0748C24.8881 26.0548 24.8681 26.0398 24.8431 26.0248C24.8356 26.0198 24.7931 26.0048 24.7781 26.0448L24.6807 26.3147H24.6857V26.3097Z" fill="white"/>
<path d="M30.0039 25.0452C29.9639 24.9102 29.9014 24.7877 29.819 24.6878C29.734 24.5878 29.6315 24.5078 29.504 24.4503C29.3766 24.3928 29.2316 24.3604 29.0642 24.3604C28.8967 24.3604 28.7493 24.3903 28.6243 24.4503C28.4993 24.5078 28.3944 24.5903 28.3094 24.6878C28.2244 24.7852 28.1619 24.9077 28.1244 25.0452C28.0844 25.1801 28.0645 25.3276 28.0645 25.485C28.0645 25.6425 28.0844 25.7924 28.1244 25.9249C28.1644 26.0599 28.2269 26.1823 28.3094 26.2823C28.3919 26.3823 28.5018 26.4622 28.6243 26.5197C28.7493 26.5772 28.8967 26.6072 29.0642 26.6072C29.2316 26.6072 29.3791 26.5772 29.504 26.5197C29.629 26.4622 29.734 26.3848 29.819 26.2823C29.9039 26.1823 29.9664 26.0624 30.0039 25.9249C30.0439 25.7899 30.0639 25.6425 30.0639 25.485C30.0639 25.3276 30.0439 25.1776 30.0039 25.0452ZM29.594 25.485C29.594 25.7225 29.549 25.9099 29.464 26.0424C29.3765 26.1723 29.2466 26.2373 29.0667 26.2373C28.8867 26.2373 28.7542 26.1748 28.6693 26.0424C28.5818 25.9099 28.5393 25.7225 28.5393 25.485C28.5393 25.2476 28.5843 25.0601 28.6668 24.9302C28.7542 24.8002 28.8817 24.7352 29.0642 24.7352C29.2466 24.7352 29.3765 24.7977 29.4615 24.9302C29.5465 25.0626 29.5915 25.2476 29.5915 25.485" fill="white"/>
<path fill-rule="evenodd" clip-rule="evenodd" d="M33.373 26.175C33.3605 26.135 33.3205 26.1525 33.3205 26.1525C33.2605 26.175 33.198 26.1975 33.128 26.2074C33.0581 26.2174 32.983 26.2224 32.9031 26.2224C32.7031 26.2224 32.5457 26.1625 32.4332 26.0475C32.3208 25.93 32.2558 25.7401 32.2583 25.4877C32.2583 25.2552 32.3157 25.0828 32.4157 24.9478C32.5157 24.8128 32.6682 24.7479 32.8706 24.7479C33.0406 24.7479 33.168 24.7654 33.3055 24.8103C33.3055 24.8103 33.3379 24.8228 33.3529 24.7804C33.3904 24.6804 33.4154 24.6104 33.4554 24.5004C33.4654 24.4679 33.4404 24.4555 33.4304 24.453C33.378 24.433 33.253 24.398 33.158 24.3855C33.068 24.373 32.9656 24.3655 32.8506 24.3655C32.6781 24.3655 32.5257 24.3955 32.3932 24.4555C32.2632 24.5129 32.1533 24.5954 32.0633 24.6929C31.9734 24.7929 31.9084 24.9128 31.8634 25.0503C31.8184 25.1852 31.7959 25.3327 31.7959 25.4927C31.7959 25.8326 31.8884 26.1075 32.0683 26.3099C32.2483 26.5124 32.5207 26.6148 32.8781 26.6148C33.088 26.6148 33.3029 26.5723 33.4604 26.5099C33.4604 26.5099 33.4904 26.4974 33.4754 26.4599L33.3755 26.1825V26.1775L33.373 26.175Z" fill="white"/>
<path fill-rule="evenodd" clip-rule="evenodd" d="M35.4724 24.9701C35.4374 24.8402 35.3524 24.7052 35.2949 24.6452C35.2049 24.5477 35.12 24.4828 35.03 24.4428C34.9175 24.3928 34.7801 24.3628 34.6326 24.3628C34.4602 24.3628 34.3027 24.3928 34.1753 24.4528C34.0478 24.5127 33.9403 24.5952 33.8553 24.6952C33.7704 24.7952 33.7079 24.9176 33.6679 25.0576C33.6279 25.1926 33.6079 25.3425 33.6079 25.5C33.6079 25.6574 33.6279 25.8099 33.6704 25.9423C33.7129 26.0773 33.7804 26.1973 33.8728 26.2947C33.9653 26.3922 34.0828 26.4722 34.2202 26.5247C34.3602 26.5797 34.5301 26.6046 34.7226 26.6046C35.1225 26.6046 35.3349 26.5122 35.4224 26.4647C35.4374 26.4572 35.4524 26.4422 35.4349 26.3997L35.3424 26.1448C35.3299 26.1073 35.2899 26.1223 35.2899 26.1223C35.1899 26.1598 35.05 26.2248 34.7201 26.2248C34.5051 26.2248 34.3452 26.1623 34.2452 26.0623C34.1453 25.9623 34.0927 25.8099 34.0827 25.6024H35.4699C35.4699 25.6024 35.5074 25.6024 35.5099 25.5674C35.5099 25.5524 35.5573 25.2825 35.4674 24.9701H35.4724ZM34.0903 25.26C34.1077 25.1301 34.1453 25.0201 34.2028 24.9326C34.2877 24.8027 34.4177 24.7302 34.6001 24.7302C34.7826 24.7302 34.9025 24.8002 34.9875 24.9326C35.045 25.0201 35.0675 25.1326 35.08 25.26H34.0903Z" fill="white"/>
<path fill-rule="evenodd" clip-rule="evenodd" d="M24.3557 24.9701C24.3207 24.8402 24.2357 24.7052 24.1782 24.6452C24.0882 24.5477 24.0033 24.4828 23.9133 24.4428C23.8008 24.3928 23.6634 24.3628 23.5159 24.3628C23.3435 24.3628 23.186 24.3928 23.0586 24.4528C22.9311 24.5127 22.8236 24.5952 22.7386 24.6952C22.6537 24.7952 22.5912 24.9176 22.5512 25.0576C22.5112 25.1926 22.4912 25.3425 22.4912 25.5C22.4912 25.6574 22.5112 25.8099 22.5537 25.9423C22.5962 26.0773 22.6637 26.1973 22.7561 26.2947C22.8486 26.3947 22.9661 26.4722 23.1035 26.5247C23.2435 26.5797 23.4134 26.6046 23.6059 26.6046C24.0058 26.6046 24.2182 26.5122 24.3057 26.4647C24.3207 26.4572 24.3357 26.4422 24.3157 26.3997L24.2232 26.1448C24.2107 26.1073 24.1707 26.1223 24.1707 26.1223C24.0707 26.1598 23.9308 26.2248 23.6009 26.2248C23.3859 26.2248 23.226 26.1623 23.126 26.0623C23.0236 25.9598 22.9735 25.8099 22.9635 25.6024H24.3507C24.3507 25.6024 24.3882 25.6024 24.3907 25.5674C24.3907 25.5524 24.4381 25.2825 24.3482 24.9701H24.3557ZM22.9761 25.26C22.9936 25.1301 23.031 25.0201 23.0885 24.9326C23.176 24.8027 23.3035 24.7302 23.4859 24.7302C23.6684 24.7302 23.7883 24.8002 23.8758 24.9326C23.9333 25.0201 23.9558 25.1326 23.9683 25.26H22.9761Z" fill="white"/>
<path d="M20.5265 25.1926C20.469 25.1876 20.3991 25.1876 20.3091 25.1876C20.1917 25.1876 20.0767 25.2025 19.9667 25.2325C19.8592 25.2625 19.7593 25.305 19.6768 25.365C19.5943 25.425 19.5243 25.5 19.4743 25.5924C19.4244 25.6849 19.4019 25.7924 19.4019 25.9123C19.4019 26.0323 19.4218 26.1423 19.4643 26.2298C19.5068 26.3172 19.5669 26.3897 19.6443 26.4472C19.7193 26.5022 19.8168 26.5447 19.9267 26.5697C20.0367 26.5921 20.1592 26.6071 20.2941 26.6071C20.4366 26.6071 20.579 26.5946 20.7165 26.5722C20.8514 26.5497 21.0214 26.5147 21.0639 26.5047C21.1114 26.4947 21.1614 26.4822 21.1614 26.4822C21.1963 26.4747 21.1939 26.4372 21.1939 26.4372V25.1676C21.1939 24.8901 21.1189 24.6827 20.9714 24.5552C20.824 24.4278 20.6115 24.3628 20.3341 24.3628C20.2291 24.3628 20.0617 24.3753 19.9617 24.3978C19.9617 24.3978 19.6568 24.4553 19.5343 24.5552C19.5343 24.5552 19.5093 24.5702 19.5218 24.6102L19.6218 24.8751C19.6343 24.9101 19.6668 24.8976 19.6668 24.8976C19.6668 24.8976 19.6768 24.8926 19.6893 24.8876C19.9567 24.7427 20.2941 24.7452 20.2941 24.7452C20.4441 24.7452 20.5591 24.7777 20.6365 24.8352C20.7115 24.8926 20.7515 24.9826 20.7515 25.1651V25.2225C20.634 25.205 20.524 25.1976 20.524 25.1976H20.5265V25.1926ZM19.9742 26.1673C19.9192 26.1223 19.9118 26.1123 19.8943 26.0873C19.8693 26.0448 19.8517 25.9848 19.8517 25.9073C19.8517 25.7849 19.8917 25.6974 19.9742 25.6374C19.9742 25.6374 20.0942 25.5325 20.3766 25.5375C20.5766 25.5375 20.754 25.5699 20.754 25.5699V26.2023C20.754 26.2023 20.5791 26.2398 20.3791 26.2522C20.0967 26.2672 19.9717 26.1723 19.9742 26.1723V26.1673Z" fill="white"/>
<path fill-rule="evenodd" clip-rule="evenodd" d="M31.7211 24.4778C31.7311 24.4453 31.7112 24.4303 31.7012 24.4278C31.6787 24.4203 31.5587 24.3928 31.4687 24.3878C31.2937 24.3778 31.1963 24.4053 31.1088 24.4453C31.0213 24.4853 30.9289 24.5478 30.8739 24.6177V24.4478C30.8739 24.4253 30.8589 24.4053 30.8339 24.4053H30.4765C30.454 24.4053 30.4365 24.4228 30.4365 24.4478V26.5197C30.4365 26.5422 30.454 26.5622 30.479 26.5622H30.8439C30.8664 26.5622 30.8864 26.5447 30.8864 26.5197V25.485C30.8864 25.345 30.9014 25.2076 30.9339 25.1201C30.9639 25.0326 31.0039 24.9651 31.0538 24.9152C31.1038 24.8652 31.1613 24.8302 31.2238 24.8127C31.2888 24.7927 31.3587 24.7877 31.4087 24.7877C31.4812 24.7877 31.5612 24.8052 31.5612 24.8052C31.5862 24.8077 31.6037 24.7927 31.6112 24.7677C31.6337 24.7052 31.7036 24.5128 31.7161 24.4778H31.7211Z" fill="white"/>
<path fill-rule="evenodd" clip-rule="evenodd" d="M28.2968 23.5182C28.2518 23.5057 28.2118 23.4957 28.1618 23.4857C28.1093 23.4757 28.0444 23.4707 27.9744 23.4707C27.722 23.4707 27.527 23.5407 27.3871 23.6831C27.2471 23.8231 27.1546 24.033 27.1096 24.313L27.0946 24.4079H26.7797C26.7797 24.4079 26.7397 24.4079 26.7322 24.4479L26.6798 24.7353C26.6773 24.7653 26.6873 24.7803 26.7247 24.7803H27.0321L26.7197 26.5173C26.6972 26.6573 26.6673 26.7723 26.6348 26.8597C26.6023 26.9472 26.5748 27.0097 26.5373 27.0572C26.4998 27.1022 26.4698 27.1346 26.4123 27.1546C26.3648 27.1696 26.3099 27.1771 26.2499 27.1771C26.2149 27.1771 26.1724 27.1721 26.1374 27.1646C26.1025 27.1596 26.0874 27.1521 26.0625 27.1421C26.0625 27.1421 26.025 27.1296 26.0125 27.1646C26.0025 27.1946 25.9175 27.4196 25.91 27.4471C25.9 27.472 25.915 27.497 25.93 27.502C25.9725 27.517 26 27.5245 26.055 27.5395C26.1299 27.557 26.1974 27.557 26.2599 27.557C26.3874 27.557 26.5023 27.5395 26.5998 27.5045C26.6972 27.4695 26.7797 27.4071 26.8572 27.3271C26.9372 27.2371 26.9872 27.1446 27.0371 27.0147C27.0846 26.8897 27.1271 26.7323 27.1596 26.5473L27.472 24.7778H27.9294C27.9294 24.7778 27.9694 24.7778 27.9769 24.7378L28.0294 24.4504C28.0319 24.4204 28.0219 24.4054 27.9844 24.4054H27.542C27.542 24.4054 27.5645 24.2405 27.6145 24.0905C27.6345 24.028 27.677 23.9781 27.7119 23.9406C27.7469 23.9056 27.7845 23.8831 27.827 23.8681C27.8719 23.8556 27.9219 23.8481 27.9769 23.8481C28.0194 23.8481 28.0618 23.8531 28.0918 23.8581C28.1343 23.8656 28.1518 23.8706 28.1618 23.8756C28.2068 23.8881 28.2143 23.8756 28.2218 23.8556L28.3293 23.5657C28.3393 23.5332 28.3143 23.5207 28.3043 23.5182H28.2968Z" fill="white"/>
<path fill-rule="evenodd" clip-rule="evenodd" d="M22.0988 26.5198C22.0988 26.5423 22.0838 26.5622 22.0588 26.5622H21.689C21.6665 26.5622 21.6489 26.5448 21.6489 26.5198V23.5581C21.6489 23.5356 21.664 23.5156 21.689 23.5156H22.0588C22.0813 23.5156 22.0988 23.5331 22.0988 23.5581V26.5198Z" fill="white"/>
</svg>
