<svg width="52" height="52" viewBox="0 0 52 52" fill="none" xmlns="http://www.w3.org/2000/svg">
<path d="M26.0005 52C40.3599 52 52.0005 40.3594 52.0005 26C52.0005 11.6406 40.3599 0 26.0005 0C11.6411 0 0.000488281 11.6406 0.000488281 26C0.000488281 40.3594 11.6411 52 26.0005 52Z" fill="#0053E2"/>
<path d="M26.0001 44.1524C15.9905 44.1524 7.8479 36.0098 7.8479 26.0002C7.8479 15.9906 15.9905 7.8479 26.0001 7.8479C36.0097 7.8479 44.1524 15.9906 44.1524 26.0002C44.1524 36.0098 36.0097 44.1524 26.0001 44.1524ZM26.0001 8.35275C16.2704 8.35275 8.35276 16.268 8.35276 26.0002C8.35276 35.7324 16.2704 43.6476 26.0001 43.6476C35.7298 43.6476 43.6475 35.7299 43.6475 26.0002C43.6475 16.2705 35.7298 8.35275 26.0001 8.35275Z" fill="#FFC220"/>
<path d="M26.0005 50.6203C22.6789 50.6203 19.4548 49.968 16.4157 48.6834C13.484 47.4437 10.8499 45.6693 8.59301 43.4099C6.33366 41.1506 4.55915 38.5188 3.31951 35.5872C2.03488 32.548 1.38257 29.3215 1.38257 26.0024C1.38257 22.6834 2.03488 19.4568 3.31951 16.4177C4.55915 13.486 6.33366 10.8518 8.59301 8.59494C10.8524 6.33559 13.484 4.56111 16.4157 3.32146C19.4548 2.03683 22.6814 1.38452 26.0005 1.38452C29.3195 1.38452 32.5461 2.03683 35.5852 3.32146C38.5169 4.56111 41.1511 6.33559 43.4079 8.59494C45.6673 10.8543 47.4418 13.486 48.6814 16.4177C49.966 19.4568 50.6183 22.6834 50.6183 26.0024C50.6183 29.3215 49.966 32.548 48.6814 35.5872C47.4418 38.5188 45.6673 41.1531 43.4079 43.4099C41.1486 45.6693 38.5169 47.4437 35.5852 48.6834C32.5461 49.968 29.3195 50.6203 26.0005 50.6203ZM26.0005 1.74692C22.7289 1.74692 19.5523 2.38923 16.5581 3.65637C13.669 4.87851 11.0772 6.62551 8.85038 8.84987C6.62602 11.0742 4.87658 13.6685 3.65694 16.5576C2.3898 19.5518 1.74745 22.7284 1.74745 25.9999C1.74745 29.2715 2.3898 32.4481 3.65694 35.4422C4.87908 38.3314 6.62602 40.9231 8.85038 43.15C11.0747 45.3743 13.669 47.1238 16.5581 48.3435C19.5523 49.6106 22.7289 50.2529 26.0005 50.2529C29.272 50.2529 32.4485 49.6106 35.4427 48.3435C38.3318 47.1213 40.9237 45.3743 43.1505 43.15C45.3749 40.9256 47.1243 38.3314 48.344 35.4422C49.6111 32.4481 50.2535 29.2715 50.2535 25.9999C50.2535 22.7284 49.6111 19.5518 48.344 16.5576C47.1218 13.6685 45.3749 11.0767 43.1505 8.84987C40.9262 6.62551 38.3318 4.87601 35.4427 3.65637C32.4485 2.38923 29.272 1.74692 26.0005 1.74692Z" fill="#FFC220"/>
<path d="M8.78753 13.7959C8.92499 13.8808 9.04243 13.9808 9.14241 14.0908C9.24238 14.2008 9.31733 14.3207 9.37232 14.4482C9.4248 14.5781 9.45488 14.7156 9.46238 14.8631C9.46988 15.0105 9.44739 15.163 9.3999 15.3254C9.37241 15.4179 9.33493 15.5129 9.28494 15.6103C9.23496 15.7078 9.17749 15.8078 9.11251 15.9153L8.77752 16.4476L6.42822 14.968L6.76565 14.4307C6.83313 14.3232 6.90056 14.2282 6.96554 14.1433C7.03302 14.0583 7.10052 13.9833 7.173 13.9183C7.29797 13.8059 7.42788 13.7209 7.56034 13.6609C7.6928 13.6009 7.83029 13.5684 7.96525 13.5609C8.10022 13.5534 8.24015 13.5684 8.37761 13.6109C8.51507 13.6534 8.65263 13.7159 8.79009 13.8009L8.78753 13.7959ZM8.61009 14.0808C8.38515 13.9383 8.1702 13.8733 7.96525 13.8833C7.76281 13.8933 7.57286 13.9758 7.39791 14.1233C7.33043 14.1808 7.26551 14.2507 7.20302 14.3332C7.14054 14.4157 7.07299 14.5132 7.00301 14.6231L6.8656 14.8431L8.69759 15.9977L8.835 15.7778C8.90498 15.6678 8.96251 15.5654 9.01 15.4729C9.05748 15.3804 9.09245 15.2904 9.11495 15.2055C9.17493 14.983 9.16246 14.7756 9.07748 14.5831C8.99501 14.3907 8.83752 14.2232 8.61009 14.0808Z" fill="white"/>
<path d="M11.1498 13.1061L9.07031 11.2666L9.29535 11.0142L11.3747 12.8536L11.1498 13.1061Z" fill="white"/>
<path d="M13.4289 9.42733L12.9389 9.82721L12.7465 9.58978L13.4988 8.97496L14.3485 10.0147C14.336 10.0446 14.3136 10.0846 14.2786 10.1321C14.2461 10.1796 14.2061 10.2321 14.1586 10.2871C14.1112 10.3421 14.0586 10.3995 14.0011 10.4595C13.9436 10.5195 13.8812 10.572 13.8212 10.6245C13.6363 10.7744 13.4538 10.8819 13.2713 10.9469C13.0889 11.0119 12.914 11.0369 12.7416 11.0219C12.5716 11.0069 12.4066 10.9544 12.2492 10.8644C12.0917 10.7719 11.9468 10.647 11.8168 10.4845C11.6743 10.3096 11.5693 10.1271 11.5068 9.93968C11.4443 9.75223 11.4218 9.56479 11.4393 9.37984C11.4568 9.19489 11.5194 9.01494 11.6169 8.83999C11.7169 8.66504 11.8543 8.50759 12.0293 8.36513C12.0767 8.32764 12.1242 8.29015 12.1742 8.25516C12.2242 8.22017 12.2742 8.19018 12.3216 8.16019C12.3691 8.1327 12.4166 8.10771 12.4616 8.08771C12.5066 8.06772 12.544 8.05272 12.579 8.04272L12.769 8.27266C12.6866 8.30265 12.5991 8.34514 12.5041 8.40012C12.4091 8.45261 12.3192 8.51509 12.2367 8.58257C12.1142 8.68254 12.0142 8.79501 11.9317 8.92497C11.8518 9.05243 11.7993 9.18739 11.7768 9.33235C11.7543 9.47731 11.7619 9.62477 11.8043 9.77972C11.8468 9.93468 11.9293 10.0871 12.0543 10.2396C12.1767 10.3895 12.3016 10.4995 12.4316 10.5745C12.5616 10.6495 12.694 10.6895 12.8289 10.697C12.9639 10.7045 13.099 10.682 13.2364 10.627C13.3739 10.572 13.5088 10.4895 13.6412 10.3796C13.7037 10.3296 13.7612 10.2746 13.8162 10.2196C13.8712 10.1646 13.9161 10.1121 13.9536 10.0621L13.4313 9.42233L13.4289 9.42733Z" fill="white"/>
<path d="M16.0404 9.03983L14.6533 6.63553L14.9457 6.46558L16.3328 8.86988L16.0404 9.03983Z" fill="white"/>
<path d="M19.0024 7.61507L18.6874 7.73754L17.7878 5.4357L16.9231 5.77311L16.813 5.48819L18.855 4.69092L18.965 4.97584L18.1002 5.31324L18.9999 7.61507H19.0024Z" fill="white"/>
<path d="M20.9868 6.9353L21.5692 3.99615L21.8566 3.94116L23.4935 6.45044L23.1337 6.52042L22.6488 5.76314L21.5091 5.98307L21.3417 6.86782L20.9844 6.9378L20.9868 6.9353ZM21.7916 4.39353C21.7367 4.75593 21.6791 5.08583 21.6216 5.38575L21.5692 5.66317L22.4714 5.48822L22.319 5.25078C22.1515 4.99086 21.979 4.70344 21.7991 4.39103H21.7916V4.39353Z" fill="white"/>
<path d="M25.4452 3.56641L25.4852 6.03819L26.8398 6.0157L26.8448 6.32061L25.1528 6.3481L25.1079 3.5739L25.4452 3.56891V3.56641Z" fill="white"/>
<path d="M30.2515 6.75294L32.1085 4.40112L32.3884 4.4836L32.7033 7.46524L32.351 7.36277L32.2659 6.46803L31.1512 6.14562L30.5989 6.85542L30.2515 6.75544V6.75294ZM32.1285 4.85599C31.9135 5.15341 31.7136 5.42083 31.5261 5.66326L31.3537 5.88569L32.2384 6.14062L32.211 5.8607C32.181 5.55329 32.1585 5.21839 32.1385 4.85849H32.1309L32.1285 4.85599Z" fill="white"/>
<path d="M35.4102 6.42571C35.3727 6.49818 35.3577 6.56567 35.3627 6.62815C35.3677 6.69063 35.3877 6.75061 35.4202 6.8056C35.4552 6.86308 35.4977 6.91556 35.5552 6.97055C35.6101 7.02303 35.6701 7.07802 35.7326 7.1305C35.8151 7.20298 35.8976 7.27796 35.9751 7.35294C36.0526 7.42792 36.115 7.51039 36.1625 7.59787C36.21 7.68534 36.235 7.78032 36.2375 7.88279C36.24 7.98526 36.2099 8.10022 36.1449 8.22519C36.08 8.35265 35.9976 8.45012 35.9026 8.5201C35.8076 8.58758 35.7001 8.63007 35.5826 8.64507C35.4676 8.66006 35.3427 8.65256 35.2103 8.62257C35.0778 8.59258 34.9428 8.5401 34.8054 8.47012C34.7404 8.43763 34.6778 8.40014 34.6154 8.35765C34.5529 8.31516 34.493 8.27267 34.4405 8.22769C34.3855 8.1827 34.3381 8.14021 34.2981 8.09772C34.2581 8.05524 34.228 8.01775 34.208 7.98526L34.348 7.71034C34.3805 7.75532 34.4205 7.80031 34.4655 7.8478C34.5105 7.89528 34.5604 7.94027 34.6129 7.98276C34.6654 8.02524 34.7204 8.06773 34.7753 8.10522C34.8328 8.14271 34.8879 8.1752 34.9403 8.20269C35.0253 8.24768 35.1127 8.28267 35.1977 8.30766C35.2827 8.33266 35.3652 8.34265 35.4426 8.34015C35.5201 8.33516 35.5901 8.31266 35.6551 8.27017C35.7201 8.22769 35.775 8.1627 35.8225 8.07273C35.86 7.99775 35.8775 7.93027 35.87 7.86779C35.8625 7.80531 35.8451 7.74283 35.8101 7.68784C35.7751 7.63036 35.7301 7.57537 35.6751 7.52289C35.6201 7.4704 35.5601 7.41542 35.4951 7.36044C35.4101 7.28796 35.3302 7.21548 35.2528 7.1405C35.1753 7.06552 35.1128 6.98554 35.0653 6.89807C35.0178 6.8106 34.9928 6.71812 34.9903 6.61815C34.9853 6.51818 35.0153 6.40821 35.0778 6.28825C35.1427 6.16328 35.2202 6.06581 35.3127 6.00083C35.4051 5.93335 35.5051 5.89086 35.6151 5.87337C35.725 5.85337 35.8375 5.85837 35.9525 5.88086C36.07 5.90586 36.185 5.94584 36.2999 6.00583C36.4324 6.07331 36.5474 6.14829 36.6474 6.23326C36.7473 6.31574 36.8348 6.40321 36.9097 6.49319L36.7673 6.77311C36.6874 6.67813 36.5998 6.58816 36.5048 6.50568C36.4099 6.42321 36.2999 6.34823 36.1774 6.28325C36.0849 6.23576 35.9976 6.20327 35.9176 6.18827C35.8376 6.17328 35.7651 6.17328 35.7001 6.18827C35.6351 6.20327 35.5777 6.23076 35.5277 6.27325C35.4777 6.31574 35.4352 6.36822 35.4027 6.4332L35.4102 6.42571Z" fill="white"/>
<path d="M38.7943 8.4526C38.7443 8.51758 38.7168 8.58006 38.7093 8.64254C38.7018 8.70502 38.7093 8.7675 38.7343 8.82749C38.7568 8.88997 38.7917 8.94995 38.8367 9.01493C38.8817 9.07742 38.9292 9.1399 38.9817 9.20488C39.0517 9.29235 39.1167 9.37983 39.1792 9.4673C39.2416 9.55728 39.2891 9.64725 39.3191 9.74222C39.3491 9.8372 39.3566 9.93467 39.3416 10.0371C39.3266 10.1396 39.2766 10.2471 39.1892 10.357C39.1017 10.472 39.0042 10.552 38.8968 10.602C38.7893 10.652 38.6767 10.6745 38.5618 10.667C38.4443 10.662 38.3244 10.632 38.1995 10.577C38.0745 10.522 37.952 10.447 37.827 10.352C37.7695 10.3071 37.7146 10.2596 37.6596 10.2071C37.6046 10.1546 37.5546 10.0996 37.5096 10.0471C37.4646 9.99465 37.4271 9.94217 37.3946 9.89218C37.3621 9.8422 37.3396 9.80221 37.3271 9.76722L37.5146 9.52229C37.5396 9.57227 37.5696 9.62476 37.6071 9.67974C37.6446 9.73473 37.6846 9.78721 37.7271 9.8397C37.772 9.89218 37.817 9.94217 37.8645 9.98965C37.9145 10.0371 37.962 10.0796 38.0094 10.1146C38.0869 10.1746 38.1644 10.2246 38.2444 10.2646C38.3243 10.3046 38.4019 10.3296 38.4794 10.3396C38.5544 10.3495 38.6293 10.3396 38.7018 10.3096C38.7742 10.2796 38.8393 10.2246 38.9018 10.1446C38.9518 10.0796 38.9817 10.0146 38.9867 9.94966C38.9917 9.88718 38.9842 9.8222 38.9617 9.75972C38.9392 9.69724 38.9043 9.63475 38.8593 9.57227C38.8143 9.50979 38.7642 9.44481 38.7118 9.37983C38.6418 9.29485 38.5743 9.20738 38.5119 9.1199C38.4494 9.03243 38.4019 8.94245 38.3719 8.84998C38.3419 8.75751 38.3344 8.66004 38.3469 8.56256C38.3619 8.46259 38.4094 8.36012 38.4919 8.25265C38.5768 8.14019 38.6718 8.06021 38.7742 8.01022C38.8767 7.96024 38.9842 7.93774 39.0942 7.93774C39.2042 7.93774 39.3141 7.96274 39.4241 8.00772C39.534 8.05271 39.6415 8.11519 39.7439 8.19517C39.8614 8.28514 39.9615 8.38012 40.0465 8.48009C40.1314 8.58006 40.2014 8.68253 40.2564 8.7825L40.0663 9.02993C40.0039 8.92246 39.9339 8.81749 39.8564 8.72002C39.779 8.62255 39.684 8.53007 39.5741 8.4426C39.4916 8.37762 39.4116 8.33263 39.3366 8.30264C39.2616 8.27265 39.1916 8.26015 39.1241 8.26265C39.0566 8.26265 38.9967 8.28264 38.9392 8.31514C38.8817 8.34763 38.8318 8.39261 38.7868 8.4501L38.7943 8.4526Z" fill="white"/>
<path d="M40.5111 12.2714L41.4633 13.3286L41.2359 13.5335L40.0562 12.2264L42.1181 10.3669L43.2453 11.6166L43.0178 11.8215L42.1156 10.8218L41.4508 11.4216L42.253 12.3114L42.0257 12.5163L41.2234 11.6266L40.5061 12.2739L40.5111 12.2714Z" fill="white"/>
<path d="M42.8454 15.8452L42.668 15.5578L44.7723 14.2632L44.2851 13.4734L44.545 13.3135L45.6946 15.1804L45.4346 15.3404L44.9473 14.5506L42.843 15.8452H42.8454Z" fill="white"/>
<path d="M21.119 46.1389C20.989 46.4088 20.8491 46.6838 20.6992 46.9662L20.0219 48.2458L19.467 48.1108L19.2495 44.8318L19.8419 44.9767L19.9094 46.2789C19.9269 46.6863 19.9319 47.0511 19.9244 47.3761H19.9368C20.0843 47.0661 20.2443 46.7462 20.4192 46.4213L21.034 45.2717L21.6064 45.4116L21.6188 46.7162C21.6213 47.0811 21.6164 47.4385 21.6014 47.7884H21.6139C21.7864 47.4485 21.9613 47.1261 22.1363 46.8262L22.8011 45.704L23.3933 45.849L21.6789 48.6507L21.124 48.5132L21.119 47.0661C21.119 46.7387 21.119 46.4313 21.1315 46.1389H21.119Z" fill="white"/>
<path d="M26.4275 48.1306C26.485 47.8807 26.56 47.6133 26.65 47.3284L27.1298 45.8113L27.9345 45.7788L28.062 48.9079L27.4897 48.9304L27.4248 47.3459C27.4148 47.1134 27.4148 46.8435 27.4198 46.5361H27.3997C27.3772 46.6261 27.3497 46.7285 27.3172 46.841C27.2873 46.9535 27.2523 47.0634 27.2173 47.1734L26.6424 48.9679L26.2725 48.9829L25.5527 47.2409C25.5103 47.1359 25.4678 47.0284 25.4278 46.9185C25.3878 46.8085 25.3528 46.711 25.3228 46.6236H25.3028C25.3328 46.911 25.3529 47.1809 25.3629 47.4308L25.4278 49.0179L24.8554 49.0404L24.7305 45.9113L25.5303 45.8788L26.1301 47.3459C26.2301 47.5908 26.325 47.8532 26.4175 48.1356H26.4325L26.4275 48.1306Z" fill="white"/>
<path d="M31.6862 48.0909L31.1339 48.2509L30.3991 45.7041L29.4268 45.984L29.2944 45.5242L31.7861 44.8069L31.9187 45.2668L30.9489 45.5467L31.6836 48.0934L31.6862 48.0909Z" fill="white"/>
<path d="M11.7816 40.7155C11.7441 40.6781 11.7041 40.6506 11.6666 40.6306C11.6291 40.6106 11.5892 40.5981 11.5517 40.5931C11.5142 40.5881 11.4767 40.5906 11.4392 40.5981C11.4017 40.6056 11.3668 40.6206 11.3318 40.6406C11.3093 40.6531 11.2868 40.6681 11.2643 40.6881C11.2418 40.708 11.2193 40.728 11.2018 40.748L10.567 41.4028L10.4395 41.2779L11.0718 40.6256C11.0968 40.6006 11.1218 40.5756 11.1493 40.5531C11.1793 40.5281 11.2068 40.5081 11.2343 40.4906C11.2818 40.4606 11.3318 40.4406 11.3842 40.4256C11.4367 40.4131 11.4892 40.4081 11.5467 40.4156C11.6042 40.4231 11.6592 40.4406 11.7167 40.4706C11.7742 40.5006 11.8341 40.5456 11.8941 40.6031C11.9516 40.6581 11.9966 40.7155 12.0291 40.7705C12.0616 40.8255 12.0816 40.8805 12.0916 40.933C12.1016 40.9855 12.1016 41.0379 12.0916 41.0879C12.0816 41.1379 12.064 41.1854 12.0415 41.2329C12.024 41.2679 12.0016 41.3004 11.9766 41.3329C11.9516 41.3654 11.924 41.3978 11.8966 41.4253L11.2643 42.0777L11.1368 41.9527L11.7716 41.2979C11.7941 41.2754 11.8166 41.2479 11.8366 41.2204C11.8566 41.1929 11.874 41.1654 11.8865 41.1379C11.9165 41.0679 11.9266 40.998 11.9116 40.928C11.8966 40.858 11.8541 40.788 11.7842 40.718L11.7816 40.7155Z" fill="white"/>
<path d="M9.82718 40.0258C9.85968 39.9983 9.88211 39.9683 9.89211 39.9358C9.9021 39.9033 9.90467 39.8708 9.89967 39.8358C9.89467 39.8008 9.88471 39.7659 9.86721 39.7284C9.85222 39.6909 9.83461 39.6534 9.81462 39.6134C9.78962 39.5609 9.76474 39.5084 9.74225 39.4559C9.71975 39.4035 9.70722 39.351 9.70222 39.2985C9.69722 39.246 9.70218 39.1935 9.72468 39.1435C9.74467 39.0935 9.78215 39.0436 9.83963 38.9961C9.89712 38.9461 9.95715 38.9161 10.0196 38.9036C10.0796 38.8911 10.1395 38.8911 10.1995 38.9086C10.2595 38.9261 10.3195 38.9536 10.377 38.9961C10.4344 39.0386 10.4895 39.091 10.5445 39.1535C10.5695 39.1835 10.5919 39.2135 10.6144 39.2485C10.6369 39.2835 10.6569 39.316 10.6719 39.3485C10.6869 39.381 10.7019 39.4135 10.7144 39.4409C10.7244 39.4709 10.7319 39.4934 10.7344 39.5134L10.6094 39.6184C10.6019 39.5884 10.5919 39.5584 10.5794 39.5259C10.5669 39.4934 10.552 39.4609 10.5345 39.4284C10.517 39.396 10.4995 39.366 10.4795 39.336C10.4595 39.306 10.4395 39.2785 10.4195 39.2535C10.3871 39.2135 10.352 39.1785 10.3145 39.1485C10.277 39.1185 10.2396 39.096 10.2021 39.0836C10.1646 39.0686 10.1245 39.0661 10.0846 39.0736C10.0446 39.081 10.0046 39.101 9.96216 39.136C9.92966 39.1635 9.90711 39.1935 9.89711 39.226C9.88711 39.2585 9.88467 39.291 9.88967 39.326C9.89467 39.361 9.90463 39.3985 9.92213 39.4359C9.93962 39.4734 9.95717 39.5109 9.97717 39.5509C10.0047 39.6034 10.0272 39.6559 10.0497 39.7084C10.0721 39.7609 10.0846 39.8133 10.0896 39.8633C10.0946 39.9158 10.0895 39.9658 10.0695 40.0158C10.0496 40.0658 10.0146 40.1133 9.95959 40.1582C9.90211 40.2057 9.8447 40.2382 9.78472 40.2507C9.72473 40.2632 9.66727 40.2657 9.61228 40.2507C9.5548 40.2382 9.49972 40.2132 9.44973 40.1782C9.39725 40.1432 9.34986 40.0983 9.30487 40.0458C9.25489 39.9858 9.21234 39.9258 9.18235 39.8633C9.14986 39.8008 9.12492 39.7409 9.10742 39.6834L9.23483 39.5759C9.25482 39.6384 9.27732 39.7009 9.30732 39.7609C9.33731 39.8208 9.37479 39.8783 9.42227 39.9358C9.45726 39.9783 9.4948 40.0108 9.52979 40.0358C9.56478 40.0583 9.59975 40.0758 9.63474 40.0808C9.66973 40.0883 9.70219 40.0858 9.73468 40.0758C9.76717 40.0658 9.79963 40.0483 9.82963 40.0233L9.82718 40.0258Z" fill="white"/>
<path d="M7.5581 37.5789L8.67778 36.9041L8.30789 36.2893L8.4453 36.2068L8.90769 36.9741L7.64804 37.7313L7.55566 37.5789H7.5581Z" fill="white"/>
<path d="M8.05531 35.4944L6.47068 35.5794L6.40576 35.4394L7.47796 34.2698L7.56034 34.4447L7.23548 34.7921L7.49785 35.347L7.97281 35.317L8.05531 35.4919V35.4944ZM6.64312 35.4144C6.83556 35.3945 7.01304 35.382 7.173 35.372L7.32041 35.362L7.11308 34.9221L7.01057 35.0321C6.8981 35.152 6.77558 35.277 6.63812 35.4119V35.4169L6.64312 35.4144Z" fill="white"/>
<path d="M6.51079 33.4602L7.08557 33.2602L7.14562 33.4302L5.75844 33.915L5.63348 33.5551C5.61348 33.4951 5.596 33.4427 5.58601 33.3977C5.57601 33.3527 5.56849 33.3127 5.56599 33.2727C5.5585 33.1677 5.57848 33.0778 5.62347 33.0053C5.66846 32.9328 5.73852 32.8778 5.83349 32.8453C5.88848 32.8253 5.9435 32.8178 5.99348 32.8203C6.04347 32.8203 6.09091 32.8353 6.1359 32.8553C6.17838 32.8753 6.22087 32.9053 6.25586 32.9453C6.29335 32.9828 6.32587 33.0278 6.35336 33.0803H6.35837L6.80819 32.4604L6.86823 32.6304L6.4433 33.2577L6.51579 33.4627L6.51079 33.4602ZM5.85095 33.6901L6.35837 33.5126L6.30089 33.3452C6.28339 33.2927 6.26579 33.2502 6.24829 33.2152C6.2333 33.1802 6.21331 33.1502 6.19582 33.1228C6.15833 33.0703 6.11339 33.0353 6.06341 33.0178C6.01342 33.0003 5.95595 33.0028 5.89097 33.0228C5.83099 33.0453 5.78844 33.0753 5.76345 33.1178C5.73845 33.1602 5.72604 33.2102 5.72854 33.2677C5.72854 33.2952 5.73356 33.3277 5.74355 33.3627C5.75355 33.3977 5.76596 33.4427 5.78346 33.4952L5.85095 33.6876V33.6901Z" fill="white"/>
<path d="M5.73353 30.7034L5.80846 31.0308L5.65103 31.0683L5.53608 30.5684L6.22838 30.4084C6.24088 30.4209 6.25329 30.4409 6.26829 30.4684C6.28328 30.4959 6.29832 30.5259 6.31332 30.5634C6.32831 30.6009 6.34335 30.6384 6.35835 30.6784C6.37334 30.7209 6.38325 30.7608 6.39325 30.8033C6.42074 30.9258 6.43076 31.0383 6.41827 31.1407C6.40577 31.2432 6.37825 31.3307 6.33077 31.4107C6.28328 31.4881 6.22086 31.5531 6.14088 31.6081C6.0609 31.6606 5.96596 31.7006 5.85849 31.7256C5.74103 31.7531 5.63104 31.7581 5.52607 31.7456C5.4211 31.7331 5.3286 31.6981 5.24612 31.6456C5.16364 31.5931 5.0912 31.5231 5.03122 31.4357C4.97123 31.3482 4.92874 31.2457 4.90125 31.1282C4.89375 31.0982 4.88867 31.0658 4.88368 31.0333C4.87868 31.0008 4.87617 30.9708 4.87367 30.9408C4.87367 30.9108 4.87117 30.8833 4.87367 30.8583C4.87367 30.8333 4.87624 30.8108 4.88124 30.7933L5.03622 30.7583C5.03122 30.8033 5.03122 30.8558 5.03622 30.9133C5.03872 30.9708 5.04862 31.0283 5.06112 31.0833C5.08111 31.1657 5.11119 31.2382 5.15118 31.3082C5.19366 31.3757 5.24612 31.4332 5.3086 31.4781C5.37108 31.5231 5.44353 31.5531 5.52851 31.5706C5.61349 31.5881 5.70355 31.5831 5.80602 31.5606C5.90599 31.5381 5.9884 31.5031 6.05338 31.4581C6.11836 31.4132 6.16832 31.3607 6.2058 31.2982C6.24079 31.2357 6.26079 31.1657 6.26829 31.0883C6.27578 31.0108 6.26833 30.9258 6.24583 30.8383C6.23583 30.7958 6.2258 30.7558 6.21081 30.7184C6.19831 30.6784 6.18334 30.6459 6.16834 30.6159L5.74097 30.7134L5.73353 30.7034Z" fill="white"/>
<path d="M5.91342 29.2062L5.82092 28.459L5.9809 28.439L6.09586 29.3637L4.63876 29.5436L4.52881 28.6589L4.6888 28.6389L4.7763 29.3462L5.24613 29.2887L5.16864 28.6589L5.32863 28.6389L5.40612 29.2687L5.91342 29.2062Z" fill="white"/>
<path d="M4.57389 25.6299C4.57389 25.7124 4.58135 25.7899 4.60635 25.8624C4.63134 25.9348 4.66631 25.9973 4.7163 26.0523C4.76629 26.1073 4.82877 26.1498 4.90375 26.1823C4.97872 26.2148 5.06871 26.2322 5.16868 26.2347C5.26866 26.2372 5.35864 26.2272 5.43362 26.1998C5.5086 26.1748 5.57108 26.1348 5.62107 26.0848C5.67105 26.0348 5.70853 25.9723 5.73603 25.8998C5.76102 25.8274 5.77599 25.7474 5.77849 25.6574C5.77849 25.6324 5.77849 25.6074 5.77849 25.5799C5.77849 25.5524 5.77355 25.525 5.77105 25.4975C5.76605 25.47 5.76104 25.4425 5.75604 25.415C5.75104 25.3875 5.74359 25.365 5.73859 25.345L5.89601 25.35C5.91101 25.3925 5.92354 25.445 5.93104 25.5025C5.93854 25.5599 5.94098 25.6174 5.93848 25.6774C5.93598 25.7999 5.91343 25.9073 5.87844 25.9998C5.84095 26.0923 5.791 26.1723 5.72602 26.2322C5.66104 26.2947 5.58113 26.3397 5.48866 26.3697C5.39619 26.3997 5.29115 26.4122 5.17369 26.4097C5.05872 26.4072 4.95375 26.3872 4.86128 26.3472C4.76631 26.3097 4.6864 26.2572 4.61892 26.1898C4.55144 26.1223 4.50142 26.0423 4.46393 25.9473C4.42644 25.8524 4.41146 25.7474 4.41646 25.6324C4.41646 25.6024 4.41891 25.5724 4.4239 25.5424C4.4289 25.5125 4.43135 25.485 4.43635 25.4575C4.44135 25.43 4.44887 25.405 4.45637 25.3825C4.46386 25.36 4.47144 25.34 4.47894 25.3225L4.63637 25.3275C4.62137 25.3725 4.60634 25.42 4.59634 25.4725C4.58384 25.525 4.57883 25.5774 4.57633 25.6299H4.57389Z" fill="white"/>
<path d="M5.98105 24.5176L4.604 23.7278L4.6239 23.5754L6.16105 23.178L6.13603 23.3704L5.67364 23.4854L5.59115 24.0952L6.00606 24.3276L5.98105 24.5176ZM4.84136 23.6853C5.01381 23.7753 5.17124 23.8603 5.3112 23.9378L5.44116 24.0102L5.50621 23.5279L5.36123 23.5654C5.20128 23.6054 5.02881 23.6428 4.84136 23.6803V23.6853Z" fill="white"/>
<path d="M6.38312 22.1107L6.34065 22.2857L4.91357 21.9383L5.00852 21.5434C5.02351 21.4834 5.03856 21.4309 5.05855 21.3834C5.07855 21.3359 5.10104 21.2909 5.12604 21.2535C5.17852 21.176 5.23844 21.121 5.31092 21.0935C5.3834 21.066 5.46349 21.061 5.55096 21.081C5.62344 21.0985 5.68336 21.1285 5.73084 21.171C5.77833 21.2135 5.81586 21.266 5.83836 21.3309C5.86085 21.3959 5.87326 21.4684 5.87326 21.5509C5.87326 21.6334 5.86079 21.7258 5.83579 21.8258C5.8233 21.8733 5.81082 21.9233 5.79333 21.9733L6.38068 22.1157L6.38312 22.1107ZM5.63834 21.9283C5.64834 21.9058 5.65586 21.8808 5.66336 21.8558C5.67086 21.8308 5.67837 21.8058 5.68337 21.7833C5.70337 21.7008 5.71333 21.6309 5.71583 21.5684C5.71583 21.5084 5.71087 21.4559 5.69338 21.4134C5.67838 21.3709 5.65332 21.3384 5.62333 21.3134C5.59334 21.2884 5.55336 21.271 5.50837 21.261C5.45339 21.2485 5.40351 21.251 5.36352 21.2685C5.32353 21.2859 5.286 21.3184 5.256 21.3634C5.23601 21.3909 5.22097 21.4234 5.20597 21.4634C5.19097 21.5034 5.17856 21.5484 5.16606 21.6009L5.11603 21.8033L5.6409 21.9308L5.63834 21.9283Z" fill="white"/>
<path d="M13.4788 43.2499L14.0186 43.6747L13.3313 43.6447L13.0939 44.2896L12.9114 43.6273L12.2241 43.5998L12.7965 43.2199L12.609 42.5601L13.1489 42.9874L13.7187 42.605L13.4788 43.2499Z" fill="#FFC220"/>
<path d="M6.44853 17.8873L7.41077 17.8399L6.65843 18.4397L7.00086 19.3394L6.19604 18.8096L5.44625 19.4119L5.70375 18.4847L4.89648 17.9573L5.85873 17.9148L6.1111 16.9851L6.44853 17.8873Z" fill="#FFC220"/>
<path d="M39.0013 43.2499L38.4614 43.6747L39.1487 43.6447L39.3862 44.2896L39.5687 43.6273L40.256 43.5998L39.6836 43.2199L39.8711 42.5601L39.3312 42.9874L38.7614 42.605L39.0013 43.2499Z" fill="#FFC220"/>
<path d="M46.0321 17.8873L45.0698 17.8399L45.8222 18.4397L45.4797 19.3394L46.2846 18.8096L47.0343 19.4119L46.7769 18.4847L47.5841 17.9573L46.6219 17.9148L46.3695 16.9851L46.0321 17.8873Z" fill="#FFC220"/>
<path d="M45.9592 22.2163C45.9717 22.2688 45.9868 22.3138 46.0093 22.3512C46.0318 22.3887 46.0542 22.4212 46.0842 22.4462C46.1142 22.4712 46.1442 22.4912 46.1817 22.5037C46.2192 22.5162 46.2542 22.5237 46.2967 22.5262C46.3217 22.5262 46.3492 22.5262 46.3792 22.5262C46.4092 22.5237 46.4366 22.5187 46.4641 22.5112L47.3539 22.3138L47.3913 22.4887L46.5066 22.6836C46.4741 22.6911 46.4366 22.6961 46.4016 22.7011C46.3641 22.7061 46.3292 22.7086 46.2967 22.7061C46.2417 22.7061 46.1867 22.6936 46.1367 22.6761C46.0867 22.6587 46.0392 22.6312 45.9967 22.5962C45.9542 22.5612 45.9168 22.5137 45.8843 22.4562C45.8518 22.3987 45.8268 22.3287 45.8093 22.2488C45.7918 22.1688 45.7844 22.0988 45.7894 22.0363C45.7944 21.9739 45.8068 21.9164 45.8268 21.8689C45.8468 21.8189 45.8768 21.7764 45.9118 21.7414C45.9468 21.7064 45.9893 21.6739 46.0343 21.6489C46.0668 21.6315 46.1043 21.614 46.1443 21.6015C46.1842 21.589 46.2217 21.5765 46.2616 21.569L47.1464 21.374L47.1839 21.549L46.2942 21.7464C46.2617 21.7539 46.2292 21.7639 46.1967 21.7764C46.1642 21.7889 46.1342 21.8039 46.1092 21.8189C46.0467 21.8589 45.9993 21.9139 45.9718 21.9789C45.9443 22.0463 45.9418 22.1263 45.9618 22.2238L45.9592 22.2163Z" fill="white"/>
<path d="M47.209 23.8707C47.1666 23.8757 47.1316 23.8882 47.1067 23.9082C47.0817 23.9281 47.0592 23.9556 47.0442 23.9856C47.0292 24.0156 47.0191 24.0531 47.0116 24.0931C47.0041 24.1331 46.9991 24.1756 46.9916 24.2181C46.9841 24.2755 46.9741 24.333 46.9641 24.3905C46.9541 24.448 46.9366 24.498 46.9116 24.5455C46.8866 24.5905 46.8516 24.6304 46.8091 24.6629C46.7641 24.6954 46.7042 24.7154 46.6317 24.7229C46.5567 24.7329 46.4893 24.7229 46.4318 24.7029C46.3743 24.6804 46.3244 24.6454 46.2844 24.6005C46.2444 24.553 46.2093 24.4955 46.1843 24.4305C46.1593 24.363 46.1419 24.288 46.1344 24.2056C46.1294 24.1681 46.1294 24.1281 46.1294 24.0881C46.1294 24.0481 46.1293 24.0081 46.1368 23.9731C46.1418 23.9356 46.1469 23.9032 46.1544 23.8732C46.1619 23.8432 46.1694 23.8182 46.1769 23.8007L46.3393 23.7832C46.3293 23.8107 46.3193 23.8407 46.3143 23.8757C46.3093 23.9106 46.3018 23.9456 46.2968 23.9806C46.2918 24.0156 46.2918 24.0531 46.2918 24.0881C46.2918 24.1231 46.2918 24.1581 46.2968 24.1881C46.3018 24.2381 46.3119 24.288 46.3268 24.333C46.3418 24.378 46.3593 24.418 46.3843 24.4505C46.4093 24.483 46.4393 24.508 46.4768 24.523C46.5143 24.538 46.5592 24.5455 46.6117 24.538C46.6567 24.533 46.6918 24.5205 46.7167 24.498C46.7417 24.4755 46.7642 24.4505 46.7792 24.418C46.7942 24.3855 46.8067 24.3505 46.8117 24.3105C46.8192 24.2705 46.8242 24.2281 46.8317 24.1831C46.8392 24.1256 46.8467 24.0681 46.8567 24.0106C46.8667 23.9556 46.8842 23.9032 46.9092 23.8582C46.9342 23.8132 46.9667 23.7732 47.0091 23.7432C47.0516 23.7132 47.1091 23.6932 47.1816 23.6857C47.2566 23.6782 47.3215 23.6857 47.3765 23.7057C47.434 23.7257 47.4815 23.7582 47.5214 23.8007C47.5614 23.8432 47.5939 23.8932 47.6164 23.9531C47.6389 24.0106 47.6565 24.0756 47.664 24.1431C47.674 24.2206 47.674 24.2955 47.664 24.363C47.654 24.4305 47.6439 24.4955 47.6264 24.5555L47.4615 24.573C47.4815 24.5105 47.494 24.4455 47.504 24.378C47.514 24.313 47.514 24.2431 47.504 24.1681C47.499 24.1131 47.4865 24.0656 47.469 24.0256C47.4515 23.9856 47.4315 23.9531 47.4065 23.9306C47.3815 23.9057 47.3515 23.8882 47.319 23.8807C47.2865 23.8707 47.2491 23.8682 47.2116 23.8732L47.209 23.8707Z" fill="white"/>
<path d="M47.7515 27.1647L46.4444 27.1122L46.4145 27.8295L46.252 27.822L46.2895 26.9272L47.7591 26.9872L47.7515 27.1647Z" fill="white"/>
<path d="M46.189 28.6268L47.5586 29.4265L47.5362 29.579L45.9966 29.9639L46.0242 29.7714L46.4864 29.659L46.5739 29.0516L46.1616 28.8142L46.189 28.6243V28.6268ZM47.3237 29.469C47.1513 29.3791 46.9964 29.2941 46.8564 29.2116L46.7265 29.1366L46.659 29.619L46.8038 29.584C46.9638 29.5465 47.1363 29.509 47.3237 29.4715V29.4665V29.469Z" fill="white"/>
<path d="M46.3593 31.1835L45.7695 31.0335L45.8144 30.8611L47.239 31.221L47.1465 31.5909C47.1315 31.6534 47.114 31.7058 47.099 31.7483C47.084 31.7908 47.0666 31.8283 47.0466 31.8633C46.9941 31.9558 46.9292 32.0207 46.8517 32.0557C46.7742 32.0907 46.6867 32.0982 46.5892 32.0732C46.5317 32.0582 46.4818 32.0357 46.4418 32.0058C46.4018 31.9758 46.3692 31.9408 46.3443 31.8983C46.3193 31.8558 46.3018 31.8108 46.2918 31.7583C46.2818 31.7058 46.2793 31.6509 46.2843 31.5909H46.2793L45.5645 31.8583L45.6095 31.6858L46.3092 31.3959L46.3617 31.186L46.3593 31.1835ZM47.0366 31.3534L46.5143 31.221L46.4718 31.3934C46.4593 31.4459 46.4493 31.4934 46.4418 31.5309C46.4368 31.5684 46.4342 31.6059 46.4342 31.6359C46.4367 31.7008 46.4542 31.7558 46.4867 31.7983C46.5192 31.8408 46.5667 31.8708 46.6342 31.8883C46.6942 31.9033 46.7492 31.9008 46.7942 31.8783C46.8392 31.8558 46.8766 31.8208 46.9066 31.7708C46.9216 31.7483 46.9341 31.7183 46.9466 31.6833C46.9591 31.6484 46.9715 31.6034 46.9865 31.5484L47.0366 31.3509V31.3534Z" fill="white"/>
<path d="M45.4923 33.91L45.6098 33.5951L45.7622 33.6501L45.5848 34.1325L44.9175 33.885C44.9175 33.8675 44.9175 33.8425 44.9175 33.8125C44.9175 33.7826 44.9249 33.7476 44.9299 33.7101C44.9349 33.6726 44.9449 33.6326 44.9549 33.5901C44.9649 33.5476 44.9799 33.5076 44.9924 33.4677C45.0374 33.3502 45.0899 33.2502 45.1574 33.1727C45.2249 33.0953 45.2973 33.0353 45.3773 32.9953C45.4598 32.9553 45.5473 32.9353 45.6448 32.9353C45.7398 32.9353 45.8397 32.9528 45.9446 32.9928C46.0571 33.0353 46.1522 33.0903 46.2322 33.1577C46.3121 33.2277 46.3721 33.3052 46.412 33.3952C46.452 33.4851 46.4745 33.5826 46.4745 33.6901C46.4745 33.7951 46.4546 33.905 46.4146 34.0175C46.4046 34.0475 46.392 34.0775 46.377 34.1075C46.3645 34.1375 46.3495 34.1649 46.3346 34.1899C46.3196 34.2149 46.3046 34.2399 46.2896 34.2599C46.2746 34.2799 46.262 34.2974 46.2471 34.3124L46.0996 34.2574C46.1296 34.2224 46.1571 34.1774 46.1871 34.1275C46.2171 34.0775 46.2396 34.025 46.2596 33.9725C46.2896 33.895 46.3046 33.815 46.3071 33.7351C46.3096 33.6551 46.2971 33.5801 46.2696 33.5076C46.2421 33.4352 46.1971 33.3702 46.1371 33.3102C46.0771 33.2502 45.9972 33.2027 45.8997 33.1677C45.8048 33.1327 45.7172 33.1153 45.6372 33.1153C45.5573 33.1153 45.4873 33.1327 45.4223 33.1652C45.3574 33.1977 45.3024 33.2452 45.2549 33.3052C45.2074 33.3677 45.1674 33.4402 45.1349 33.5276C45.12 33.5676 45.1075 33.6076 45.0975 33.6476C45.0875 33.6876 45.08 33.7251 45.0775 33.7576L45.4873 33.91H45.4923Z" fill="white"/>
<path d="M44.515 35.0623L44.18 35.7371L44.0352 35.6646L44.45 34.8298L45.7671 35.4821L45.3722 36.2819L45.2273 36.2094L45.5447 35.5721L45.1198 35.3622L44.8399 35.9295L44.6949 35.857L44.9774 35.2897L44.52 35.0623H44.515Z" fill="white"/>
<path d="M43.665 38.7863C43.7125 38.7189 43.745 38.6489 43.765 38.5739C43.785 38.5014 43.7899 38.4265 43.7774 38.354C43.7649 38.2815 43.7375 38.2115 43.6925 38.1415C43.6475 38.0716 43.5825 38.0091 43.5 37.9491C43.4176 37.8916 43.3376 37.8516 43.2601 37.8316C43.1827 37.8116 43.1102 37.8091 43.0402 37.8241C42.9702 37.8391 42.9053 37.8691 42.8428 37.9141C42.7803 37.9591 42.7253 38.0191 42.6728 38.094C42.6578 38.114 42.6453 38.1365 42.6303 38.159C42.6153 38.1815 42.6028 38.209 42.5903 38.234C42.5778 38.259 42.5678 38.284 42.5578 38.309C42.5478 38.334 42.5403 38.3565 42.5328 38.379L42.4028 38.289C42.4128 38.244 42.4329 38.1965 42.4579 38.144C42.4829 38.0915 42.5128 38.0416 42.5478 37.9916C42.6178 37.8916 42.6952 37.8141 42.7777 37.7541C42.8602 37.6967 42.9452 37.6592 43.0352 37.6442C43.1252 37.6292 43.2151 37.6342 43.31 37.6592C43.405 37.6842 43.4975 37.7317 43.595 37.7991C43.6875 37.8641 43.765 37.9391 43.8225 38.0241C43.8799 38.1065 43.9199 38.1965 43.9374 38.289C43.9549 38.3815 43.9549 38.4789 43.9324 38.5764C43.9099 38.6739 43.8649 38.7714 43.7974 38.8663C43.78 38.8913 43.7599 38.9163 43.7424 38.9388C43.7249 38.9613 43.7025 38.9838 43.6825 39.0038C43.6625 39.0238 43.6425 39.0413 43.625 39.0563C43.605 39.0713 43.5875 39.0838 43.5725 39.0938L43.4426 39.0038C43.4801 38.9763 43.5175 38.9438 43.5575 38.9063C43.595 38.8688 43.63 38.8288 43.6625 38.7863H43.665Z" fill="white"/>
<path d="M41.878 38.9314L42.5904 40.3485L42.4878 40.466L40.9883 39.9486L41.1158 39.8011L41.5632 39.9611L41.9681 39.4987L41.7506 39.0764L41.878 38.9314ZM42.3679 40.256C42.2729 40.0861 42.1905 39.9286 42.1155 39.7861L42.048 39.6537L41.7282 40.0211L41.868 40.0711C42.023 40.1261 42.188 40.1885 42.3654 40.261H42.3679V40.256Z" fill="white"/>
<path d="M40.2134 40.7182L40.3433 40.5957L41.3431 41.6729L41.0457 41.9503C41.0007 41.9903 40.9582 42.0278 40.9157 42.0578C40.8732 42.0878 40.8307 42.1103 40.7882 42.1303C40.7032 42.1678 40.6208 42.1777 40.5458 42.1628C40.4708 42.1478 40.4008 42.1078 40.3383 42.0403C40.2884 41.9853 40.2533 41.9278 40.2358 41.8653C40.2183 41.8029 40.2183 41.7404 40.2358 41.6729C40.2508 41.6054 40.2808 41.5379 40.3283 41.4705C40.3733 41.4005 40.4358 41.3305 40.5108 41.263C40.5458 41.2305 40.5857 41.1955 40.6257 41.163L40.2134 40.7207V40.7182ZM40.7357 41.2805C40.7157 41.2955 40.6956 41.3105 40.6756 41.328C40.6557 41.3455 40.6357 41.3605 40.6207 41.378C40.5583 41.4355 40.5107 41.4904 40.4758 41.5379C40.4408 41.5879 40.4183 41.6354 40.4083 41.6779C40.3983 41.7204 40.3983 41.7629 40.4108 41.8004C40.4233 41.8378 40.4458 41.8728 40.4758 41.9078C40.5157 41.9503 40.5557 41.9753 40.6007 41.9828C40.6457 41.9903 40.6931 41.9828 40.7431 41.9653C40.7731 41.9528 40.8056 41.9328 40.8406 41.9103C40.8731 41.8853 40.9106 41.8553 40.9506 41.8179L41.1031 41.6754L40.7357 41.2805Z" fill="white"/>
<path d="M22.2737 24.7308C23.106 25.1831 23.126 26.3628 22.3088 26.8477C21.9289 27.0726 20.9092 27.0876 20.4343 27.1226C19.787 27.1676 19.1347 27.2025 18.4849 27.2325C17.8751 27.26 16.6879 27.3925 16.1581 27.1676C14.3761 26.4178 14.9709 23.7635 16.9253 23.861C17.5751 23.8935 18.3274 24.0335 18.9822 24.1259C19.767 24.2384 20.5717 24.3509 21.3515 24.4958C21.6339 24.5483 22.0264 24.5958 22.2763 24.7308H22.2737Z" fill="#FFC220"/>
<path d="M28.5542 28.7519C28.7041 28.8319 28.8092 28.9293 28.9192 29.0568C29.2141 29.4017 29.5065 29.8816 29.7639 30.2615C30.3612 31.1487 30.981 32.0809 31.5308 32.9957C31.7758 33.4056 31.9707 33.7355 31.9458 34.2328C31.8733 35.6924 30.1712 36.4072 29.079 35.4425C28.7691 35.17 28.6442 34.8251 28.4868 34.4603C28.2069 33.8179 27.9468 33.1506 27.6894 32.4983C27.407 31.7835 27.0096 30.9013 26.8197 30.174C26.5423 29.1143 27.592 28.2345 28.5567 28.7519H28.5542Z" fill="#FFC220"/>
<path d="M35.9323 24.8708C37.1295 25.4881 37.2595 27.1126 36.1198 27.8599C35.5899 28.2073 35.1276 28.1423 34.5353 28.0723C33.5506 27.9574 32.5383 27.8049 31.5586 27.645C31.0737 27.5675 30.4539 27.4975 29.9915 27.3651C28.9069 27.0501 28.7444 25.6106 29.7616 25.1032C30.134 24.9183 31.0813 24.9008 31.5311 24.8683C32.5708 24.7958 33.6531 24.7308 34.6953 24.7083C35.1226 24.6983 35.535 24.6633 35.9323 24.8683V24.8708Z" fill="#FFC220"/>
<path d="M24.2777 28.5646C24.7651 28.842 25.0025 29.4444 24.835 29.9767C24.7701 30.1867 24.6452 30.4316 24.5502 30.634C24.0603 31.6962 23.5004 32.7834 22.9506 33.8181C22.5832 34.5079 22.3307 35.1602 21.5135 35.3977C20.3938 35.7251 19.2592 34.8303 19.3192 33.6657C19.3517 33.0383 19.7015 32.6534 20.0614 32.1761C20.8262 31.1639 21.6535 30.1017 22.4807 29.1445C22.6957 28.897 22.8806 28.6471 23.1881 28.5121C23.5305 28.3597 23.9454 28.3797 24.2753 28.5646H24.2777Z" fill="#FFC220"/>
<path d="M31.7855 16.7405C32.3553 17.0505 32.7103 17.6903 32.6728 18.3326C32.6353 18.9749 32.3078 19.3173 31.9479 19.7947C31.1806 20.8119 30.3484 21.8791 29.5187 22.8413C29.3012 23.0912 29.1188 23.3386 28.8114 23.4786C28.0416 23.8285 27.1493 23.2837 27.1093 22.4389C27.0918 22.0815 27.2393 21.8116 27.3817 21.4942C27.7766 20.6219 28.2365 19.7347 28.6764 18.8849C28.9238 18.4076 29.1838 17.8502 29.4612 17.3978C29.9535 16.5956 30.9482 16.2882 31.7855 16.743V16.7405Z" fill="#FFC220"/>
<path d="M25.2128 21.9487C25.3552 22.7034 24.7404 23.4207 23.9756 23.3857C23.2783 23.3533 23.0034 22.8484 22.6485 22.3411C21.9312 21.3213 21.2089 20.2092 20.5591 19.1445C20.2367 18.6171 19.9642 18.2097 20.0717 17.5574C20.3416 15.9154 22.5235 15.573 23.3033 17.0501C23.5082 17.44 23.6857 17.9423 23.8556 18.3572C24.1805 19.1495 24.503 19.9517 24.8004 20.754C24.9279 21.0989 25.1478 21.5988 25.2128 21.9462V21.9487Z" fill="#FFC220"/>
</svg>
