<svg width="5706" height="794" viewBox="0 0 5706 794" fill="none" xmlns="http://www.w3.org/2000/svg">
<g clip-path="url(#clip0_728_3799)">
<path d="M13.2188 633.453H144.473C153.315 633.453 160.818 634.084 167.07 635.301C173.323 636.518 178.369 638.591 182.255 641.386C186.14 644.226 188.998 647.921 190.829 652.429C192.66 656.936 193.553 662.525 193.553 669.151V682.042C193.553 691.281 191.946 697.862 188.775 701.873C185.559 705.885 181.54 708.544 176.672 709.941C179.396 710.572 181.942 711.519 184.309 712.826C186.676 714.133 188.686 716.026 190.338 718.46C191.99 720.939 193.286 724.094 194.223 728.016C195.161 731.937 195.608 736.805 195.608 742.664V756.502C195.608 762.812 194.715 768.085 192.973 772.412C191.231 776.694 188.418 780.21 184.532 782.914C180.647 785.618 175.6 787.557 169.348 788.774C163.096 789.991 155.548 790.622 146.75 790.622H13.2188V633.498V633.453ZM47.9191 662.029V698.177H145.187C151.261 698.177 155.459 697.186 157.737 695.203C160.014 693.22 161.175 689.614 161.175 684.385V674.469C161.175 669.692 159.746 666.446 156.977 664.689C154.164 662.931 149.117 662.029 141.793 662.029H47.9191ZM47.9191 723.508V762H144.919C151.484 762 156.129 761.144 158.942 759.341C161.756 757.583 163.185 754.248 163.185 749.335V739.644C163.185 733.199 161.935 728.917 159.434 726.754C156.933 724.59 152.467 723.508 146.081 723.508H47.9191Z" fill="white"/>
<path d="M380.991 790.576L289.93 733.424V790.576H255.453V633.453H377.329C388.27 633.453 397.649 634.129 405.419 635.526C413.19 636.924 419.532 639.358 424.489 642.918C429.446 646.434 433.064 651.302 435.341 657.432C437.619 663.562 438.78 671.314 438.78 680.689V691.507C438.78 700.566 437.574 708.048 435.118 713.953C432.662 719.857 428.91 724.545 423.819 728.016C418.728 731.486 412.297 733.92 404.526 735.272C396.756 736.67 387.556 737.346 376.927 737.346H349.55L440.879 790.576H381.08H380.991ZM404.035 682.492C404.035 678.346 403.588 674.965 402.651 672.351C401.713 669.737 400.194 667.753 398.095 666.356C395.952 664.959 393.004 664.057 389.208 663.607C385.412 663.156 380.678 662.931 375.051 662.931H289.886V710.843H375.051C380.678 710.843 385.367 710.618 389.074 710.167C392.826 709.716 395.773 708.77 397.961 707.417C400.15 706.02 401.713 704.037 402.651 701.423C403.544 698.808 404.035 695.383 404.035 691.056V682.537V682.492Z" fill="white"/>
<path d="M500.586 790.576V633.453H535.286V790.576H500.586Z" fill="white"/>
<path d="M600.133 790.576V633.453H723.393C734.96 633.453 744.561 634.4 752.287 636.338C759.969 638.276 766.087 641.341 770.687 645.533C775.242 649.769 778.503 655.313 780.378 662.255C782.299 669.151 783.236 677.534 783.236 687.36V736.67C783.236 746.676 782.299 755.059 780.378 761.91C778.458 768.716 775.242 774.26 770.687 778.497C766.132 782.734 760.013 785.799 752.287 787.737C744.606 789.675 734.96 790.622 723.393 790.622H600.133V790.576ZM748.491 688.983C748.491 684.205 748.089 680.193 747.241 676.903C746.392 673.613 744.963 670.999 742.909 669.061C740.855 667.122 738.175 665.77 734.826 664.914C731.476 664.058 727.233 663.652 722.053 663.652H634.833V760.648H722.053C726.787 760.648 730.806 760.243 734.156 759.476C737.505 758.71 740.229 757.358 742.373 755.465C744.517 753.527 746.08 750.958 747.062 747.757C748.045 744.512 748.536 740.456 748.536 735.543V688.983H748.491Z" fill="white"/>
<path d="M1087.68 790.576V633.453H1122.38V790.576H1087.68Z" fill="white"/>
<path d="M1351.57 794.004C1347.91 794.004 1344.51 793.418 1341.43 792.291C1338.31 791.164 1335.4 789.271 1332.63 786.657L1219.2 678.843V790.578H1187V644.498C1187 639.585 1188.7 635.934 1192.14 633.545C1195.57 631.156 1200 629.984 1205.49 629.984C1209.46 629.984 1212.72 630.525 1215.31 631.607C1217.9 632.689 1220.05 634.086 1221.7 635.754L1336.07 747.038V633.455H1368.94V779.535C1368.94 784.764 1367.33 788.46 1364.16 790.713C1360.95 792.922 1356.8 794.049 1351.61 794.049L1351.57 794.004Z" fill="white"/>
<path d="M1835.73 731.576V790.576H1801.25V687.36C1801.25 677.534 1802.19 669.151 1804.11 662.255C1806.03 655.358 1809.24 649.769 1813.8 645.533C1818.35 641.296 1824.43 638.231 1832.07 636.338C1839.66 634.4 1849.17 633.453 1860.6 633.453H1966.98V663.652H1861.54C1851.94 663.652 1845.24 665.635 1841.44 669.647C1837.65 673.658 1835.73 680.239 1835.73 689.478V701.919H1966.98V731.621H1835.73V731.576Z" fill="white"/>
<path d="M2023.38 790.576V633.453H2058.08V790.576H2023.38Z" fill="white"/>
<path d="M2287.23 794.004C2283.57 794.004 2280.18 793.418 2277.1 792.291C2273.97 791.164 2271.07 789.271 2268.3 786.657L2154.86 678.843V790.578H2122.66V644.498C2122.66 639.585 2124.36 635.934 2127.8 633.545C2131.24 631.156 2135.66 629.984 2141.15 629.984C2145.13 629.984 2148.39 630.525 2150.98 631.607C2153.57 632.689 2155.71 634.086 2157.36 635.754L2271.74 747.038V633.455H2304.61V779.535C2304.61 784.764 2303 788.46 2299.83 790.713C2296.61 792.922 2292.46 794.049 2287.28 794.049L2287.23 794.004Z" fill="white"/>
<path d="M2524.42 754.387H2416.65L2394.5 790.58H2354.53L2444.92 645.446C2447.65 640.984 2450.95 637.288 2454.75 634.403C2458.54 631.474 2464.04 630.031 2471.18 630.031C2478.33 630.031 2483.6 631.474 2487.39 634.403C2491.19 637.333 2494.45 641.029 2497.22 645.446L2587.16 790.58H2546.97L2524.37 754.387H2524.42ZM2432.86 727.433H2508.2L2470.56 665.458L2432.91 727.433H2432.86Z" fill="white"/>
<path d="M2804.26 794.004C2800.6 794.004 2797.2 793.418 2794.12 792.291C2790.99 791.164 2788.09 789.271 2785.32 786.657L2671.89 678.843V790.578H2639.69V644.498C2639.69 639.585 2641.38 635.934 2644.82 633.545C2648.26 631.156 2652.68 629.984 2658.18 629.984C2662.15 629.984 2665.41 630.525 2668 631.607C2670.59 632.689 2672.74 634.086 2674.39 635.754L2788.76 747.038V633.455H2821.63V779.535C2821.63 784.764 2820.02 788.46 2816.85 790.713C2813.64 792.922 2809.48 794.049 2804.3 794.049L2804.26 794.004Z" fill="white"/>
<path d="M2943.73 790.575C2932.29 790.575 2922.78 789.628 2915.19 787.69C2907.6 785.752 2901.48 782.687 2896.92 778.45C2892.37 774.213 2889.11 768.714 2887.23 761.863C2885.31 755.012 2884.38 746.629 2884.38 736.623V687.313C2884.38 677.487 2885.31 669.104 2887.23 662.208C2889.15 655.312 2892.37 649.723 2896.92 645.486C2901.48 641.249 2907.6 638.184 2915.19 636.291C2922.78 634.353 2932.29 633.406 2943.73 633.406H3051.71V663.605H2945.34C2940.02 663.605 2935.64 664.011 2932.21 664.867C2928.77 665.723 2926.09 667.121 2924.12 669.104C2922.16 671.087 2920.77 673.746 2920.01 677.037C2919.25 680.327 2918.85 684.383 2918.85 689.116V735.18C2918.85 740.093 2919.25 744.15 2920.01 747.395C2920.77 750.64 2922.16 753.254 2924.12 755.238C2926.09 757.221 2928.86 758.618 2932.34 759.384C2935.82 760.151 2940.24 760.556 2945.56 760.556H3051.71V790.484H2943.73V790.575Z" fill="white"/>
<path d="M3111.73 790.576V633.453H3146.43V790.576H3111.73Z" fill="white"/>
<path d="M3369.46 754.387H3261.7L3239.55 790.58H3199.58L3289.97 645.446C3292.69 640.984 3296 637.288 3299.79 634.403C3303.59 631.474 3309.08 630.031 3316.23 630.031C3323.37 630.031 3328.64 631.474 3332.44 634.403C3336.24 637.333 3339.5 641.029 3342.27 645.446L3432.21 790.58H3392.02L3369.42 754.387H3369.46ZM3277.91 727.433H3353.25L3315.6 665.458L3277.96 727.433H3277.91Z" fill="white"/>
<path d="M3534.7 790.575C3523.32 790.575 3513.76 789.628 3506.17 787.69C3498.57 785.752 3492.46 782.687 3487.9 778.45C3483.35 774.213 3480.09 768.714 3478.21 761.863C3476.29 755.012 3475.35 746.629 3475.35 736.623V633.406H3509.83V735.225C3509.83 739.823 3510.23 743.699 3511.08 746.854C3511.93 750.009 3513.4 752.623 3515.55 754.697C3517.69 756.77 3520.55 758.258 3524.12 759.204C3527.69 760.105 3532.2 760.601 3537.7 760.601H3630.14V790.53H3534.7V790.575Z" fill="white"/>
<path d="M3871.88 790.575C3860.45 790.575 3850.94 789.628 3843.35 787.69C3835.75 785.752 3829.64 782.687 3825.08 778.45C3820.53 774.213 3817.27 768.714 3815.39 761.863C3813.47 755.012 3812.53 746.629 3812.53 736.623V687.313C3812.53 677.487 3813.47 669.104 3815.39 662.208C3817.31 655.312 3820.53 649.723 3825.08 645.486C3829.64 641.249 3835.75 638.184 3843.35 636.291C3850.94 634.353 3860.45 633.406 3871.88 633.406H3980.54V663.109H3871.88C3866.84 663.109 3862.73 663.515 3859.56 664.371C3856.34 665.228 3853.8 666.58 3851.92 668.428C3850 670.276 3848.71 672.71 3848.04 675.82C3847.37 678.885 3847.01 682.716 3847.01 687.358V697.95H3979.65V725.805H3847.01V736.848C3847.01 741.626 3847.37 745.502 3848.04 748.612C3848.71 751.677 3849.96 754.156 3851.79 756.004C3853.62 757.852 3856.16 759.114 3859.42 759.79C3862.68 760.466 3866.84 760.827 3871.88 760.827H3980.54V790.53H3871.88V790.575Z" fill="white"/>
<path d="M4148.99 779.038C4146.09 783.816 4142.83 787.511 4139.16 790.081C4135.5 792.695 4130.28 794.002 4123.4 794.002C4116.52 794.002 4111.3 792.695 4107.63 790.081C4103.97 787.466 4100.71 783.77 4097.81 779.038L4008.31 633.453H4050.29L4124.02 754.879L4197.53 633.453H4238.84L4148.9 779.038H4148.99Z" fill="white"/>
<path d="M4340.99 790.575C4329.55 790.575 4320.04 789.628 4312.45 787.69C4304.86 785.752 4298.74 782.687 4294.18 778.45C4289.63 774.213 4286.37 768.714 4284.49 761.863C4282.57 755.012 4281.63 746.629 4281.63 736.623V687.313C4281.63 677.487 4282.57 669.104 4284.49 662.208C4286.37 655.312 4289.63 649.723 4294.18 645.486C4298.74 641.249 4304.86 638.184 4312.45 636.291C4320.04 634.353 4329.55 633.406 4340.99 633.406H4400.11C4411.68 633.406 4421.28 634.353 4428.88 636.291C4436.47 638.229 4442.59 641.294 4447.14 645.486C4451.7 649.723 4454.96 655.266 4456.83 662.208C4458.75 669.104 4459.69 677.487 4459.69 687.313V736.623C4459.69 746.629 4458.75 755.012 4456.83 761.863C4454.96 768.669 4451.7 774.213 4447.14 778.45C4442.59 782.687 4436.47 785.752 4428.88 787.69C4421.28 789.628 4411.68 790.575 4400.11 790.575H4340.99ZM4424.99 688.981C4424.99 684.068 4424.59 680.011 4423.74 676.766C4422.89 673.521 4421.51 670.907 4419.54 668.924C4417.58 666.94 4414.85 665.543 4411.46 664.777C4408.02 664.011 4403.82 663.65 4398.77 663.65H4342.59C4337.1 663.65 4332.68 664.011 4329.24 664.777C4325.85 665.543 4323.12 666.94 4321.16 668.924C4319.19 670.907 4317.85 673.521 4317.14 676.766C4316.42 680.011 4316.11 684.068 4316.11 688.981V735.27C4316.11 740.364 4316.47 744.51 4317.14 747.846C4317.81 751.181 4319.15 753.75 4321.16 755.688C4323.12 757.627 4325.85 758.934 4329.24 759.61C4332.68 760.286 4337.1 760.646 4342.59 760.646H4398.77C4403.82 760.646 4408.02 760.286 4411.46 759.61C4414.85 758.889 4417.58 757.627 4419.54 755.688C4421.51 753.795 4422.94 751.181 4423.74 747.846C4424.59 744.555 4424.99 740.364 4424.99 735.27V688.981Z" fill="white"/>
<path d="M4581.56 790.575C4570.13 790.575 4560.62 789.628 4553.03 787.69C4545.43 785.752 4539.32 782.687 4534.76 778.45C4530.2 774.213 4526.94 768.714 4525.07 761.863C4523.15 755.012 4522.21 746.629 4522.21 736.623V633.406H4556.69V735.225C4556.69 739.823 4557.09 743.699 4557.94 746.854C4558.79 750.009 4560.26 752.623 4562.4 754.697C4564.55 756.77 4567.41 758.258 4570.98 759.204C4574.55 760.105 4579.11 760.601 4584.56 760.601H4677V790.53H4581.56V790.575Z" fill="white"/>
<path d="M4791.11 790.581C4779.68 790.581 4770.17 789.634 4762.57 787.696C4754.98 785.758 4748.86 782.693 4744.31 778.456C4739.75 774.219 4736.49 768.72 4734.62 761.869C4732.7 755.018 4731.76 746.635 4731.76 736.629V633.412H4766.68V735.457C4766.68 740.37 4767.17 744.381 4768.16 747.536C4769.14 750.691 4770.7 753.26 4772.84 755.244C4774.99 757.227 4777.85 758.624 4781.42 759.39C4784.99 760.157 4789.37 760.562 4794.55 760.562H4846.85C4852.03 760.562 4856.4 760.157 4859.97 759.39C4863.55 758.624 4866.41 757.227 4868.55 755.244C4870.69 753.26 4872.26 750.646 4873.24 747.401C4874.22 744.156 4874.71 740.099 4874.71 735.186V633.367H4909.19V736.584C4909.19 746.59 4908.25 754.973 4906.33 761.824C4904.41 768.63 4901.2 774.174 4896.64 778.411C4892.08 782.648 4885.97 785.713 4878.37 787.651C4870.78 789.589 4861.18 790.536 4849.61 790.536H4791.2L4791.11 790.581Z" fill="white"/>
<path d="M5028.74 790.576V663.652H4963.45V633.453H5128.95V663.652H5063.66V790.576H5028.74Z" fill="white"/>
<path d="M5184.65 790.576V633.453H5219.35V790.576H5184.65Z" fill="white"/>
<path d="M5342.38 790.575C5330.95 790.575 5321.44 789.628 5313.85 787.69C5306.25 785.752 5300.14 782.687 5295.58 778.45C5291.03 774.213 5287.77 768.714 5285.89 761.863C5283.97 755.012 5283.03 746.629 5283.03 736.623V687.313C5283.03 677.487 5283.97 669.104 5285.89 662.208C5287.77 655.312 5291.03 649.723 5295.58 645.486C5300.14 641.249 5306.25 638.184 5313.85 636.291C5321.44 634.353 5330.95 633.406 5342.38 633.406H5401.51C5413.08 633.406 5422.68 634.353 5430.27 636.291C5437.87 638.229 5443.98 641.294 5448.54 645.486C5453.09 649.723 5456.35 655.266 5458.23 662.208C5460.15 669.104 5461.09 677.487 5461.09 687.313V736.623C5461.09 746.629 5460.15 755.012 5458.23 761.863C5456.35 768.669 5453.09 774.213 5448.54 778.45C5443.98 782.687 5437.87 785.752 5430.27 787.69C5422.68 789.628 5413.08 790.575 5401.51 790.575H5342.38ZM5426.39 688.981C5426.39 684.068 5425.99 680.011 5425.14 676.766C5424.29 673.521 5422.9 670.907 5420.94 668.924C5418.97 666.94 5416.25 665.543 5412.86 664.777C5409.42 664.011 5405.22 663.65 5400.17 663.65H5343.99C5338.5 663.65 5334.08 664.011 5330.64 664.777C5327.24 665.543 5324.52 666.94 5322.56 668.924C5320.59 670.907 5319.25 673.521 5318.54 676.766C5317.82 680.011 5317.51 684.068 5317.51 688.981V735.27C5317.51 740.364 5317.87 744.51 5318.54 747.846C5319.21 751.181 5320.55 753.75 5322.56 755.688C5324.52 757.627 5327.24 758.934 5330.64 759.61C5334.08 760.286 5338.5 760.646 5343.99 760.646H5400.17C5405.22 760.646 5409.42 760.286 5412.86 759.61C5416.25 758.889 5418.97 757.627 5420.94 755.688C5422.9 753.795 5424.33 751.181 5425.14 747.846C5425.99 744.555 5426.39 740.364 5426.39 735.27V688.981Z" fill="white"/>
<path d="M5688.67 794.004C5685.01 794.004 5681.62 793.418 5678.53 792.291C5675.41 791.164 5672.51 789.271 5669.74 786.657L5556.3 678.843V790.578H5524.1V644.498C5524.1 639.585 5525.8 635.934 5529.24 633.545C5532.68 631.156 5537.1 629.984 5542.59 629.984C5546.57 629.984 5549.83 630.525 5552.42 631.607C5555.01 632.689 5557.15 634.086 5558.8 635.754L5673.17 747.038V633.455H5706.04V779.535C5706.04 784.764 5704.44 788.46 5701.27 790.713C5698.05 792.922 5693.9 794.049 5688.72 794.049L5688.67 794.004Z" fill="white"/>
<path d="M1467.42 676.993C1468.26 673.748 1469.65 671.179 1471.66 669.151C1473.67 667.122 1476.35 665.725 1479.74 664.914C1483.18 664.058 1487.47 663.652 1492.65 663.652H1612.25V633.453H1491.04C1479.61 633.453 1470.09 634.4 1462.5 636.338C1454.91 638.276 1448.79 641.341 1444.24 645.533C1439.68 649.769 1436.42 655.313 1434.55 662.255C1432.63 669.151 1431.69 677.534 1431.69 687.36V736.67C1431.69 746.676 1432.63 755.059 1434.55 761.91C1436.47 768.716 1439.68 774.26 1444.24 778.497C1448.79 782.734 1454.91 785.799 1462.5 787.737C1470.09 789.675 1479.61 790.622 1491.04 790.622H1552.45C1564.01 790.622 1573.62 789.675 1581.34 787.737C1589.02 785.799 1595.14 782.734 1599.74 778.497C1604.3 774.26 1607.56 768.761 1609.43 761.91C1611.35 755.059 1612.29 746.676 1612.29 736.67V697.501H1527.3V727.43H1577.59V733.875C1577.59 739.419 1577.14 743.926 1576.21 747.442C1575.31 750.958 1573.79 753.707 1571.74 755.6C1569.69 757.538 1566.96 758.845 1563.66 759.521C1560.31 760.197 1556.2 760.558 1551.33 760.558H1492.65C1487.6 760.558 1483.4 760.197 1479.96 759.521C1476.53 758.8 1473.8 757.538 1471.75 755.735C1469.69 753.887 1468.26 751.318 1467.42 748.028C1466.57 744.738 1466.16 740.456 1466.16 735.227V688.938C1466.16 684.16 1466.57 680.194 1467.42 676.948V676.993Z" fill="white"/>
<path d="M1025.74 697.5H940.751V727.428H991.037V733.873C991.037 739.417 990.591 743.924 989.653 747.44C988.76 750.956 987.241 753.705 985.187 755.598C983.133 757.536 980.408 758.843 977.104 759.52C973.754 760.196 969.645 760.556 964.778 760.556H906.229C901.183 760.556 896.985 760.196 893.546 759.52C890.107 758.798 887.383 757.536 885.329 755.733C883.274 753.885 881.845 751.316 880.997 748.026C880.148 744.736 879.746 740.454 879.746 735.225V688.936C879.746 684.158 880.148 680.192 880.997 676.946C881.845 673.701 883.23 671.132 885.239 669.104C887.249 667.076 889.928 665.678 893.323 664.867C896.761 664.011 901.049 663.605 906.229 663.605H1025.74V633.406H904.532C893.099 633.406 883.587 634.353 875.995 636.291C868.403 638.229 862.284 641.294 857.729 645.486C853.174 649.723 849.914 655.266 848.038 662.208C846.118 669.104 845.18 677.487 845.18 687.313V736.623C845.18 746.629 846.118 755.012 848.038 761.863C849.958 768.669 853.174 774.213 857.729 778.45C862.284 782.687 868.403 785.752 875.995 787.69C883.587 789.628 893.099 790.575 904.532 790.575H966.073C977.64 790.575 987.241 789.628 994.967 787.69C1002.65 785.752 1008.77 782.687 1013.37 778.45C1017.92 774.213 1021.18 768.714 1023.06 761.863C1024.98 755.012 1025.92 746.629 1025.92 736.623V697.455H1025.78L1025.74 697.5Z" fill="white"/>
<path d="M2128.11 11.7188H2573.1C2603.02 11.7188 2628.56 13.7921 2649.69 17.9839C2670.86 22.1756 2688 29.0267 2701.13 38.6722C2714.31 48.3177 2723.96 60.8029 2730.16 76.1727C2736.37 91.5424 2739.45 110.428 2739.45 132.784V176.504C2739.45 207.74 2734.05 230.141 2723.2 243.663C2712.34 257.23 2698.68 266.334 2682.2 271.022C2691.49 273.095 2700.11 276.34 2708.15 280.803C2716.14 285.22 2722.97 291.62 2728.64 299.913C2734.32 308.252 2738.69 319.069 2741.82 332.321C2744.9 345.617 2746.46 362.114 2746.46 381.901V428.776C2746.46 450.141 2743.47 468.079 2737.58 482.683C2731.64 497.286 2722.08 509.096 2708.95 518.245C2695.78 527.35 2678.63 534.021 2657.5 538.167C2636.33 542.359 2610.79 544.433 2580.87 544.433H2128.15V11.7188H2128.11ZM2245.74 108.58V231.223H2575.42C2596.05 231.223 2610.25 227.842 2617.98 221.081C2625.7 214.32 2629.59 202.061 2629.59 184.392V150.813C2629.59 134.677 2624.81 123.634 2615.25 117.64C2605.7 111.69 2588.55 108.67 2563.81 108.67H2245.74V108.58ZM2245.74 317.086V447.526H2574.61C2596.81 447.526 2612.66 444.552 2622.22 438.557C2631.78 432.562 2636.51 421.249 2636.51 404.572V371.759C2636.51 349.899 2632.27 335.34 2623.74 328.039C2615.21 320.737 2600.11 317.086 2578.45 317.086H2245.7H2245.74Z" fill="white"/>
<path d="M3247.9 544.387L2939.12 350.71V544.387H2822.25V11.7188H3235.48C3272.64 11.7188 3304.35 14.0625 3330.65 18.7501C3356.96 23.4376 3378.48 31.7761 3395.28 43.7203C3412.02 55.7097 3424.3 72.1161 3432.03 92.9397C3439.76 113.763 3443.64 140.086 3443.64 171.817V208.506C3443.64 239.246 3439.49 264.621 3431.27 284.679C3423.01 304.736 3410.24 320.602 3392.95 332.321C3375.67 344.039 3353.88 352.243 3327.57 356.93C3301.27 361.618 3270.05 363.962 3233.92 363.962H3141.07L3450.61 544.387H3247.85H3247.9ZM3326.05 178.082C3326.05 164.019 3324.49 152.571 3321.41 143.691C3318.33 134.857 3313.15 128.096 3305.91 123.364C3298.68 118.676 3288.63 115.566 3275.72 113.989C3262.82 112.411 3246.83 111.645 3227.76 111.645H2939.12V274.087H3227.76C3246.83 274.087 3262.68 273.275 3275.36 271.743C3288 270.165 3298.05 267.055 3305.55 262.368C3313.01 257.68 3318.33 250.919 3321.41 242.04C3324.49 233.206 3326.05 221.487 3326.05 206.883V177.992V178.082Z" fill="white"/>
<path d="M3736.97 544.387V11.7188H4154.85C4194.06 11.7188 4226.7 14.964 4252.74 21.4995C4278.78 28.0351 4299.54 38.4468 4315.04 52.7349C4330.49 67.068 4341.48 85.9083 4347.91 109.346C4354.34 132.784 4357.6 161.18 4357.6 194.488V361.618C4357.6 395.467 4354.34 423.998 4347.91 447.121C4341.43 470.288 4330.49 489.038 4315.04 503.371C4299.54 517.704 4278.78 528.116 4252.74 534.607C4226.66 541.142 4194.01 544.387 4154.85 544.387H3736.97ZM4239.97 199.942C4239.97 183.806 4238.54 170.149 4235.73 158.926C4232.87 147.748 4228 138.869 4221.03 132.378C4214.07 125.888 4204.91 121.2 4193.57 118.316C4182.22 115.476 4167.75 114.034 4150.25 114.034H3854.65V442.839H4150.25C4166.23 442.839 4179.9 441.532 4191.29 438.917C4202.63 436.303 4211.92 431.751 4219.16 425.26C4226.39 418.77 4231.66 410.026 4235.01 399.073C4238.36 388.121 4240.06 374.373 4240.06 357.697V199.942H4239.97Z" fill="white"/>
<path d="M5332.69 544.387C5294.02 544.387 5261.73 541.142 5235.96 534.607C5210.15 528.116 5189.51 517.704 5174.06 503.371C5158.56 489.038 5147.62 470.333 5141.19 447.121C5134.72 423.953 5131.5 395.467 5131.5 361.618V194.488C5131.5 161.18 5134.72 132.784 5141.19 109.346C5147.62 85.9083 5158.61 67.0229 5174.06 52.7349C5189.51 38.4018 5210.15 28.0351 5235.96 21.4995C5261.77 15.0091 5294.02 11.7188 5332.69 11.7188H5701.04V112.456H5332.69C5315.68 112.456 5301.74 113.898 5290.89 116.738C5280.04 119.623 5271.42 124.175 5264.94 130.395C5258.47 136.66 5254.09 144.999 5251.77 155.41C5249.45 165.822 5248.28 178.848 5248.28 194.443V230.366H5697.92V324.884H5248.28V362.384C5248.28 378.52 5249.45 391.816 5251.77 402.228C5254.09 412.64 5258.33 420.979 5264.54 427.244C5270.75 433.509 5279.37 437.791 5290.49 440.134C5301.56 442.478 5315.63 443.65 5332.65 443.65H5701V544.387H5332.65H5332.69Z" fill="white"/>
<path d="M4562.27 159.332C4565.09 148.379 4569.86 139.545 4576.56 132.784C4583.26 126.023 4592.42 121.2 4604.03 118.361C4615.64 115.521 4630.2 114.079 4647.75 114.079H5053.26V11.7188H4642.35C4603.67 11.7188 4571.38 14.964 4545.61 21.4995C4519.8 28.0351 4499.17 38.4468 4483.72 52.7349C4468.22 67.068 4457.28 85.9083 4450.85 109.346C4444.37 132.784 4441.16 161.18 4441.16 194.488V361.618C4441.16 395.467 4444.37 423.998 4450.85 447.121C4457.28 470.288 4468.26 489.038 4483.72 503.371C4499.17 517.704 4519.8 528.116 4545.61 534.607C4571.43 541.142 4603.67 544.387 4642.35 544.387H4850.5C4889.72 544.387 4922.36 541.142 4948.4 534.607C4974.43 528.116 4995.2 517.704 5010.7 503.371C5026.15 489.038 5037.14 470.333 5043.57 447.121C5050 423.953 5053.26 395.467 5053.26 361.618V225.724H4747.21V322.585H4935.63V352.243C4935.63 370.993 4934.06 386.363 4930.98 398.307C4927.9 410.296 4922.85 419.536 4915.89 426.027C4908.92 432.562 4899.76 436.979 4888.42 439.323C4877.08 441.667 4863.14 442.839 4846.62 442.839H4647.75C4630.74 442.839 4616.4 441.667 4604.79 439.323C4593.18 436.979 4583.89 432.697 4576.92 426.432C4569.95 420.212 4565.04 411.468 4562.23 400.29C4559.37 389.112 4557.99 374.644 4557.99 356.93V199.942C4557.99 183.806 4559.41 170.284 4562.23 159.332H4562.27Z" fill="white"/>
<path d="M3522.84 0V181.192V190.252V532.669H3640.47V190.252V181.192V0H3522.84Z" fill="white"/>
<path d="M557.975 556.106C545.604 556.106 534.127 554.168 523.542 550.247C512.958 546.326 503.044 539.97 493.755 531.091L109.103 165.597V544.388H0V49.2193C0 32.5425 5.80573 20.1926 17.4172 12.1245C29.0286 4.05654 44.1235 0 62.7018 0C76.0996 0 87.2198 1.84798 95.9731 5.45379C104.726 9.10468 111.961 13.7922 117.633 19.5165L505.321 396.775V11.7189H616.747V506.887C616.747 524.601 611.343 537.221 600.491 544.748C589.638 552.275 575.481 556.061 557.93 556.061L557.975 556.106Z" fill="white"/>
<path d="M903.863 544.387C865.188 544.387 832.943 541.142 807.13 534.607C781.317 528.116 760.684 517.704 745.232 503.371C729.735 489.038 718.794 470.333 712.363 447.121C705.887 423.953 702.672 395.467 702.672 361.618V194.488C702.672 161.18 705.887 132.784 712.363 109.346C718.794 85.9083 729.78 67.0229 745.232 52.7349C760.729 38.4018 781.317 28.0351 807.13 21.4995C832.943 15.0091 865.188 11.7188 903.863 11.7188H1272.21V112.456H903.863C886.847 112.456 872.914 113.898 862.061 116.738C851.209 119.623 842.59 124.175 836.159 130.395C829.683 136.66 825.307 144.999 822.984 155.41C820.662 165.822 819.501 178.848 819.501 194.443V230.366H1269.13V324.884H819.501V362.384C819.501 378.52 820.662 391.816 822.984 402.228C825.307 412.64 829.549 420.979 835.757 427.244C841.965 433.509 850.584 437.791 861.704 440.134C872.78 442.478 886.847 443.65 903.863 443.65H1272.21V544.387H903.863Z" fill="white"/>
<path d="M1775.47 285.265L1773.46 283.372L1756.76 267.822C1720.54 234.153 1664.81 234.153 1628.59 267.822L1611.89 283.372L1609.88 285.265L1607.55 287.429L1321.24 544.388H1490.72L1628.28 415.165C1664.58 381.045 1720.85 381.045 1757.16 415.165L1894.71 544.388H2064.2L1777.88 287.429L1775.56 285.265H1775.47Z" fill="#F36D24"/>
<path d="M1571.56 247.314L1592.28 228.068C1613.9 207.965 1640.65 194.939 1669.32 190.387L1479.61 11.7188H1308.56L1565.76 252.497L1571.56 247.314Z" fill="#F36D24"/>
<path d="M1813.75 247.314L1819.51 252.497L2076.71 11.7188H1905.71L1715.99 190.387C1744.62 194.939 1771.41 207.92 1793.03 228.068L1813.75 247.314Z" fill="#F36D24"/>
</g>
<defs>
<clipPath id="clip0_728_3799">
<rect width="5706" height="794" fill="white"/>
</clipPath>
</defs>
</svg>
