<svg width="788" height="704" viewBox="0 0 788 704" fill="none" xmlns="http://www.w3.org/2000/svg">
<path d="M787.357 7.33508C762.109 -6.50481 731.071 -0.335222 712.578 22.2588L425.279 373.508C371.406 436.705 289.791 475.057 216.861 431.453L190.246 415.528C123.587 375.676 38.4351 399.354 0 468.387L393.679 704.082L787.357 7.33508Z" fill="url(#paint0_linear_728_4371)"/>
<path d="M393.679 704L503.355 507.073C399.468 543.257 301.048 486.647 198.045 417.948C129.698 372.426 40.6061 395.437 0 468.388L393.679 704.083V704Z" fill="#2CC295"/>
<path d="M222.25 377.179C276.605 409.694 346.078 390.435 377.518 334.075C408.877 277.715 390.303 205.681 335.947 173.082C281.591 140.567 212.118 159.826 180.678 216.186C149.319 272.546 167.894 344.58 222.25 377.179Z" fill="#2CC295"/>
<defs>
<linearGradient id="paint0_linear_728_4371" x1="469.504" y1="93.9594" x2="155.507" y2="647.988" gradientUnits="userSpaceOnUse">
<stop stop-color="#2CC295"/>
<stop offset="0.99" stop-color="#02694F"/>
<stop offset="1" stop-color="#03624C"/>
</linearGradient>
</defs>
</svg>
