<svg width="4176" height="704" viewBox="0 0 4176 704" fill="none" xmlns="http://www.w3.org/2000/svg">
<g clip-path="url(#clip0_728_4370)">
<path d="M787.357 7.33508C762.109 -6.50481 731.071 -0.335222 712.578 22.2588L425.279 373.508C371.406 436.705 289.791 475.057 216.861 431.453L190.246 415.528C123.587 375.676 38.4351 399.354 0 468.387L393.679 704.082L787.357 7.33508Z" fill="url(#paint0_linear_728_4370)"/>
<path d="M393.679 704L503.355 507.073C399.468 543.257 301.048 486.647 198.045 417.948C129.698 372.426 40.6061 395.437 0 468.388L393.679 704.083V704Z" fill="#2CC295"/>
<path d="M222.25 377.179C276.605 409.694 346.078 390.435 377.518 334.075C408.877 277.715 390.303 205.681 335.947 173.082C281.591 140.567 212.118 159.826 180.678 216.186C149.319 272.546 167.894 344.58 222.25 377.179Z" fill="#2CC295"/>
<path d="M1260.88 593.615H1147.83L958.788 296.808V593.615H845.734V112.471H958.788L1147.83 410.612V112.471H1260.88V593.615Z" fill="white"/>
<path d="M1455.87 206.348V303.645H1607.28V394.104H1455.87V499.654H1627.06V593.532H1342.82V112.471H1627.06V206.348H1455.87Z" fill="white"/>
<path d="M1984.72 593.615L1890.16 446.295L1806.85 593.615H1678.6L1827.36 348.916L1675.3 112.471H1806.85L1900.05 257.79L1981.98 112.471H2110.23L1962.84 355.086L2116.18 593.615H1984.64H1984.72Z" fill="white"/>
<path d="M2508.26 343.747C2495.96 366.841 2476.98 385.433 2451.41 399.607C2425.84 413.78 2394.08 420.867 2356.21 420.867H2286.17V593.615H2173.12V112.471H2356.21C2393.19 112.471 2424.47 119.141 2450.04 132.313C2475.61 145.57 2494.75 163.828 2507.53 187.173C2520.32 210.517 2526.67 237.196 2526.67 267.377C2526.67 295.224 2520.48 320.736 2508.18 343.83L2508.26 343.747ZM2395.85 311.898C2406.46 301.393 2411.69 286.553 2411.69 267.377C2411.69 248.202 2406.38 233.361 2395.85 222.856C2385.23 212.351 2369.15 207.099 2347.6 207.099H2286.09V327.739H2347.6C2369.15 327.739 2385.31 322.487 2395.85 311.982V311.898Z" fill="white"/>
<path d="M2688.26 503.112H2836.29V593.571H2575.2V112.427H2688.26V503.112Z" fill="white"/>
<path d="M3205 508.666H3031.8L3004.06 593.623H2885.7L3053.59 112.479H3184.49L3352.38 593.623H3232.74L3205 508.666ZM3175.97 418.123L3118.48 241.956L3061.63 418.123H3175.97Z" fill="white"/>
<path d="M3398.7 225.19C3418.56 187.923 3446.14 158.909 3481.68 138.149C3517.14 117.389 3557.34 106.968 3602.29 106.968C3657.37 106.968 3704.49 122.058 3743.73 152.239C3782.97 182.42 3809.18 223.523 3822.37 275.631H3698.06C3688.81 255.538 3675.7 240.198 3658.74 229.693C3641.77 219.188 3622.47 213.935 3600.92 213.935C3566.11 213.935 3537.88 226.524 3516.33 251.62C3494.7 276.715 3483.93 310.314 3483.93 352.334C3483.93 394.354 3494.7 427.953 3516.33 453.132C3537.88 478.227 3566.11 490.816 3600.92 490.816C3622.47 490.816 3641.77 485.564 3658.74 475.059C3675.7 464.554 3688.81 449.213 3698.06 429.12H3822.37C3809.18 481.228 3782.89 522.248 3743.73 552.179C3704.49 582.109 3657.37 597.117 3602.29 597.117C3557.34 597.117 3517.14 586.695 3481.68 565.935C3446.22 545.175 3418.56 516.245 3398.7 479.227C3378.84 442.21 3368.95 399.94 3368.95 352.417C3368.95 304.895 3378.84 262.541 3398.7 225.274V225.19Z" fill="white"/>
<path d="M4004.81 206.348V303.645H4156.22V394.104H4004.81V499.654H4176V593.532H3891.76V112.471H4176V206.348H4004.81Z" fill="white"/>
</g>
<defs>
<linearGradient id="paint0_linear_728_4370" x1="469.504" y1="93.9594" x2="155.507" y2="647.988" gradientUnits="userSpaceOnUse">
<stop stop-color="#2CC295"/>
<stop offset="0.99" stop-color="#02694F"/>
<stop offset="1" stop-color="#03624C"/>
</linearGradient>
<clipPath id="clip0_728_4370">
<rect width="4176" height="704" fill="white"/>
</clipPath>
</defs>
</svg>
