<svg width="52" height="52" viewBox="0 0 52 52" fill="none" xmlns="http://www.w3.org/2000/svg">
<path d="M26 52C40.3594 52 52 40.3594 52 26C52 11.6406 40.3594 0 26 0C11.6406 0 0 11.6406 0 26C0 40.3594 11.6406 52 26 52Z" fill="black"/>
<path d="M25.9999 44.1524C15.9903 44.1524 7.84766 36.0098 7.84766 26.0002C7.84766 15.9906 15.9903 7.8479 25.9999 7.8479C36.0095 7.8479 44.1522 15.9906 44.1522 26.0002C44.1522 36.0098 36.0095 44.1524 25.9999 44.1524ZM25.9999 8.35275C16.2702 8.35275 8.35252 16.268 8.35252 26.0002C8.35252 35.7324 16.2702 43.6476 25.9999 43.6476C35.7296 43.6476 43.6473 35.7299 43.6473 26.0002C43.6473 16.2705 35.7296 8.35275 25.9999 8.35275Z" fill="#E51A44"/>
<path d="M26.0002 50.6203C22.6787 50.6203 19.4546 49.968 16.4155 48.6834C13.4838 47.4437 10.8496 45.6693 8.59277 43.4099C6.33342 41.1506 4.55891 38.5188 3.31927 35.5872C2.03464 32.548 1.38232 29.3215 1.38232 26.0024C1.38232 22.6834 2.03464 19.4568 3.31927 16.4177C4.55891 13.486 6.33342 10.8518 8.59277 8.59494C10.8521 6.33559 13.4838 4.56111 16.4155 3.32146C19.4546 2.03683 22.6812 1.38452 26.0002 1.38452C29.3193 1.38452 32.5459 2.03683 35.585 3.32146C38.5166 4.56111 41.1509 6.33559 43.4077 8.59494C45.6671 10.8543 47.4416 13.486 48.6812 16.4177C49.9658 19.4568 50.6181 22.6834 50.6181 26.0024C50.6181 29.3215 49.9658 32.548 48.6812 35.5872C47.4416 38.5188 45.6671 41.1531 43.4077 43.4099C41.1484 45.6693 38.5166 47.4437 35.585 48.6834C32.5459 49.968 29.3193 50.6203 26.0002 50.6203ZM26.0002 1.74692C22.7287 1.74692 19.5521 2.38923 16.558 3.65637C13.6688 4.87851 11.077 6.62551 8.85017 8.84987C6.62581 11.0742 4.87634 13.6685 3.65669 16.5576C2.38956 19.5518 1.74724 22.7284 1.74724 25.9999C1.74724 29.2715 2.38956 32.4481 3.65669 35.4422C4.87884 38.3314 6.62581 40.9231 8.85017 43.15C11.0745 45.3743 13.6688 47.1238 16.558 48.3435C19.5521 49.6106 22.7287 50.2529 26.0002 50.2529C29.2718 50.2529 32.4484 49.6106 35.4425 48.3435C38.3317 47.1213 40.9234 45.3743 43.1503 43.15C45.3746 40.9256 47.1241 38.3314 48.3438 35.4422C49.6109 32.4481 50.2533 29.2715 50.2533 25.9999C50.2533 22.7284 49.6109 19.5518 48.3438 16.5576C47.1216 13.6685 45.3746 11.0767 43.1503 8.84987C40.9259 6.62301 38.3317 4.87601 35.4425 3.65637C32.4484 2.38923 29.2718 1.74692 26.0002 1.74692Z" fill="#E51A44"/>
<path d="M8.78704 13.7964C8.9245 13.8813 9.04198 13.9813 9.14195 14.0913C9.24192 14.2012 9.31691 14.3212 9.37189 14.4487C9.42438 14.5786 9.45437 14.7161 9.46186 14.8635C9.46936 15.011 9.44687 15.1635 9.39938 15.3259C9.37189 15.4184 9.33438 15.5134 9.28439 15.6108C9.23441 15.7083 9.17694 15.8083 9.11196 15.9157L8.77706 16.4481L6.42773 14.9685L6.76513 14.4312C6.83261 14.3237 6.9001 14.2287 6.96509 14.1438C7.03257 14.0588 7.10004 13.9838 7.17251 13.9188C7.29748 13.8064 7.42745 13.7214 7.55992 13.6614C7.69238 13.6014 7.82734 13.5689 7.9648 13.5614C8.10226 13.5539 8.23969 13.5689 8.37715 13.6114C8.51461 13.6539 8.65208 13.7164 8.78954 13.8014L8.78704 13.7964ZM8.6096 14.0813C8.38467 13.9388 8.16974 13.8738 7.9648 13.8838C7.76236 13.8938 7.57241 13.9763 7.39746 14.1238C7.32998 14.1812 7.26499 14.2512 7.2025 14.3337C7.14002 14.4162 7.07253 14.5136 7.00255 14.6236L6.86511 14.8436L8.69707 15.9982L8.83454 15.7783C8.90452 15.6683 8.96199 15.5658 9.00948 15.4734C9.05697 15.3809 9.09197 15.2909 9.11446 15.2059C9.17194 14.9835 9.16194 14.7761 9.07696 14.5836C8.99449 14.3912 8.83704 14.2237 8.6096 14.0813Z" fill="white"/>
<path d="M11.1517 13.1065L9.07227 11.2671L9.29721 11.0146L11.3766 12.8541L11.1517 13.1065Z" fill="white"/>
<path d="M13.4284 9.42757L12.9385 9.82745L12.7461 9.59002L13.4983 8.9752L14.3481 10.0149C14.3356 10.0449 14.3131 10.0849 14.2781 10.1324C14.2456 10.1799 14.2056 10.2323 14.1581 10.2873C14.1106 10.3423 14.0582 10.3998 14.0007 10.4598C13.9432 10.5198 13.8807 10.5722 13.8207 10.6247C13.6358 10.7747 13.4533 10.8821 13.2709 10.9471C13.0884 11.0121 12.9135 11.0371 12.7411 11.0221C12.5686 11.0071 12.4061 10.9546 12.2487 10.8647C12.0912 10.7747 11.9463 10.6472 11.8138 10.4848C11.6713 10.3098 11.5664 10.1274 11.5039 9.93992C11.4414 9.75248 11.4189 9.56503 11.4364 9.38008C11.4539 9.19514 11.5164 9.01519 11.6164 8.84024C11.7163 8.66529 11.8538 8.50783 12.0288 8.36538C12.0762 8.32789 12.1237 8.2904 12.1737 8.25541C12.2237 8.22042 12.2737 8.19043 12.3212 8.16044C12.3686 8.13294 12.4161 8.10795 12.4611 8.08796C12.5061 8.06796 12.5436 8.05297 12.5786 8.04297L12.7685 8.2729C12.6861 8.30289 12.5986 8.34538 12.5036 8.40037C12.4086 8.45285 12.3187 8.51533 12.2362 8.58281C12.1137 8.68278 12.0138 8.79525 11.9313 8.92521C11.8513 9.05268 11.7988 9.18764 11.7763 9.3326C11.7538 9.47756 11.7613 9.62501 11.8038 9.77997C11.8463 9.93492 11.9288 10.0874 12.0537 10.2398C12.1762 10.3898 12.3012 10.4998 12.4311 10.5747C12.5611 10.6497 12.6936 10.6897 12.8285 10.6972C12.9635 10.7047 13.0984 10.6822 13.2359 10.6272C13.3734 10.5722 13.5083 10.4898 13.6408 10.3798C13.7033 10.3298 13.7607 10.2748 13.8157 10.2198C13.8707 10.1649 13.9157 10.1124 13.9532 10.0624L13.4309 9.42257L13.4284 9.42757Z" fill="white"/>
<path d="M16.0404 9.04008L14.6533 6.63577L14.9457 6.46582L16.3328 8.87013L16.0404 9.04008Z" fill="white"/>
<path d="M19.0043 7.61556L18.6894 7.73803L17.7897 5.43619L16.9249 5.77359L16.8149 5.48868L18.8569 4.69141L18.9668 4.97632L18.1021 5.31373L19.0018 7.61556H19.0043Z" fill="white"/>
<path d="M20.9864 6.93579L21.5687 3.99663L21.8561 3.94165L23.4932 6.45093L23.1333 6.52091L22.6484 5.76362L21.5087 5.98356L21.3413 6.86831L20.9839 6.93829L20.9864 6.93579ZM21.7911 4.39402C21.7362 4.75642 21.6787 5.08632 21.6212 5.38623L21.5687 5.66365L22.4709 5.4887L22.3185 5.25127C22.151 4.99135 21.9786 4.70393 21.7987 4.39152H21.7911V4.39402Z" fill="white"/>
<path d="M25.4451 3.56689L25.4851 6.03868L26.8396 6.01619L26.8447 6.3211L25.1526 6.34859L25.1077 3.57439L25.4451 3.56939V3.56689Z" fill="white"/>
<path d="M30.251 6.75343L32.108 4.40161L32.3879 4.48409L32.7028 7.46573L32.3504 7.36326L32.2654 6.46851L31.1507 6.14611L30.6009 6.8559L30.251 6.75593V6.75343ZM32.1279 4.85648C31.913 5.15389 31.713 5.42132 31.5256 5.66375L31.3532 5.88618L32.2379 6.14111L32.2104 5.86119C32.1804 5.55378 32.1579 5.21888 32.1379 4.85898H32.1304L32.1279 4.85648Z" fill="white"/>
<path d="M35.4096 6.42588C35.3721 6.49836 35.3571 6.56584 35.3621 6.62832C35.3671 6.69081 35.3871 6.75079 35.4196 6.80577C35.4546 6.86326 35.4971 6.91574 35.5545 6.97072C35.612 7.02571 35.6695 7.07819 35.732 7.13068C35.8145 7.20316 35.897 7.27814 35.9744 7.35311C36.0519 7.42809 36.1144 7.51057 36.1619 7.59804C36.2094 7.68552 36.2344 7.78049 36.2369 7.88296C36.2394 7.98543 36.2094 8.1004 36.1469 8.22536C36.0819 8.35283 35.9994 8.4503 35.9044 8.52028C35.807 8.58776 35.702 8.63025 35.587 8.64524C35.4696 8.66024 35.3471 8.65274 35.2146 8.62275C35.0822 8.59276 34.9472 8.54027 34.8073 8.47029C34.7423 8.4378 34.6798 8.40031 34.6173 8.35783C34.5548 8.31534 34.4949 8.27285 34.4424 8.22786C34.3874 8.18288 34.3424 8.14039 34.2999 8.0979C34.2574 8.05541 34.23 8.01792 34.21 7.98543L34.3499 7.71051C34.3824 7.7555 34.4224 7.80049 34.4674 7.84797C34.5124 7.89546 34.5624 7.94045 34.6148 7.98293C34.6673 8.02542 34.7223 8.06791 34.7773 8.1054C34.8323 8.14289 34.8872 8.17538 34.9422 8.20287C35.0272 8.24786 35.1147 8.28285 35.1997 8.30784C35.2846 8.33283 35.3671 8.34283 35.4446 8.34033C35.5221 8.33783 35.592 8.31284 35.657 8.27035C35.722 8.22786 35.777 8.16288 35.8245 8.07291C35.862 7.99793 35.8795 7.93045 35.872 7.86797C35.867 7.80548 35.847 7.743 35.812 7.68802C35.777 7.63054 35.732 7.57555 35.677 7.52307C35.6221 7.47058 35.562 7.4156 35.4971 7.36061C35.4121 7.28813 35.3321 7.21565 35.2546 7.14068C35.1772 7.0657 35.1147 6.98572 35.0672 6.89825C35.0197 6.81077 34.9947 6.7183 34.9922 6.61833C34.9872 6.51836 35.0172 6.40839 35.0797 6.28842C35.1447 6.16346 35.2221 6.06599 35.3146 6.001C35.4071 5.93352 35.5071 5.89104 35.617 5.87354C35.727 5.85605 35.8395 5.85855 35.9545 5.88104C36.0719 5.90603 36.1869 5.94602 36.3019 6.006C36.4343 6.07348 36.5493 6.14846 36.6517 6.23344C36.7517 6.31591 36.8392 6.40339 36.9142 6.49336L36.7717 6.77328C36.6917 6.67831 36.6043 6.58834 36.5093 6.50586C36.4143 6.42338 36.3043 6.3484 36.1819 6.28342C36.0894 6.23594 36.0019 6.20345 35.922 6.18845C35.842 6.17346 35.7695 6.17346 35.7045 6.18845C35.6395 6.20345 35.582 6.23094 35.5321 6.27343C35.4821 6.31591 35.4421 6.3684 35.4071 6.43338L35.4096 6.42588Z" fill="white"/>
<path d="M38.7937 8.45284C38.7438 8.51782 38.7163 8.5803 38.7088 8.64279C38.7013 8.70527 38.7088 8.76775 38.7338 8.82773C38.7562 8.89021 38.7912 8.9502 38.8362 9.01518C38.8812 9.07766 38.9287 9.14014 38.9812 9.20512C39.0512 9.2926 39.1161 9.38007 39.1786 9.46755C39.2411 9.55752 39.2886 9.6475 39.3186 9.74247C39.3486 9.83744 39.3561 9.93491 39.3411 10.0374C39.3261 10.1399 39.2761 10.2473 39.1886 10.3573C39.1011 10.4723 39.0037 10.5522 38.8962 10.6022C38.7887 10.6522 38.6763 10.6747 38.5613 10.6672C38.4438 10.6622 38.3239 10.6322 38.1989 10.5772C38.0739 10.5222 37.9515 10.4473 37.8265 10.3523C37.769 10.3073 37.714 10.2598 37.6591 10.2073C37.6041 10.1548 37.5541 10.0999 37.5091 10.0474C37.4641 9.9949 37.4266 9.94241 37.3941 9.89243C37.3617 9.84244 37.3392 9.80245 37.3267 9.76746L37.5141 9.52253C37.5391 9.57252 37.5691 9.625 37.6066 9.67999C37.6441 9.73497 37.6841 9.78745 37.7265 9.83994C37.7715 9.89242 37.8165 9.94241 37.864 9.9899C37.9115 10.0374 37.9615 10.0799 38.0065 10.1149C38.0839 10.1748 38.1614 10.2248 38.2414 10.2648C38.3214 10.3048 38.3988 10.3298 38.4763 10.3398C38.5513 10.3498 38.6263 10.3398 38.6988 10.3098C38.7712 10.2798 38.8362 10.2248 38.8987 10.1449C38.9487 10.0799 38.9787 10.0149 38.9837 9.94991C38.9887 9.88743 38.9812 9.82244 38.9587 9.75996C38.9362 9.69748 38.9012 9.635 38.8562 9.57252C38.8112 9.51003 38.7613 9.44505 38.7088 9.38007C38.6388 9.2951 38.5713 9.20762 38.5088 9.12015C38.4463 9.03267 38.3988 8.9427 38.3688 8.85023C38.3388 8.75775 38.3314 8.66028 38.3439 8.56281C38.3588 8.46284 38.4064 8.36037 38.4888 8.2529C38.5738 8.14043 38.6688 8.06045 38.7713 8.01047C38.8737 7.96048 38.9812 7.93799 39.0911 7.93799C39.2011 7.93799 39.3111 7.96298 39.4211 8.00797C39.531 8.05296 39.6385 8.11544 39.7409 8.19541C39.8584 8.28539 39.9584 8.38036 40.0434 8.48033C40.1284 8.5803 40.1983 8.68277 40.2533 8.78274L40.0634 9.03017C40.0009 8.9227 39.9309 8.81773 39.8534 8.72026C39.776 8.62279 39.681 8.53032 39.571 8.44284C39.4885 8.37786 39.4086 8.33287 39.3336 8.30288C39.2586 8.27289 39.1886 8.2604 39.1211 8.26289C39.0536 8.26289 38.9937 8.28289 38.9362 8.31538C38.8787 8.34787 38.8287 8.39286 38.7837 8.45034L38.7937 8.45284Z" fill="white"/>
<path d="M40.511 12.2719L41.4632 13.3291L41.2358 13.534L40.0562 12.2269L42.1181 10.3674L43.2452 11.6171L43.0178 11.822L42.1156 10.8223L41.4508 11.4221L42.253 12.3119L42.0256 12.5168L41.2233 11.6271L40.506 12.2744L40.511 12.2719Z" fill="white"/>
<path d="M42.8449 15.8457L42.6675 15.5583L44.7719 14.2637L44.2845 13.4739L44.5444 13.314L45.6941 15.1809L45.4342 15.3409L44.9468 14.5511L42.8424 15.8457H42.8449Z" fill="white"/>
<path d="M18.4623 47.4938L17.925 47.2914L18.8622 44.8121L17.9175 44.4547L18.0874 44.0073L20.5117 44.9246L20.3418 45.3719L19.3996 45.0145L18.4623 47.4938Z" fill="white"/>
<path d="M23.4358 47.7312C23.4458 47.6512 23.4358 47.5862 23.4033 47.5313C23.3708 47.4763 23.3234 47.4313 23.2609 47.3913C23.1984 47.3513 23.1284 47.3163 23.0484 47.2863C22.9685 47.2563 22.8835 47.2263 22.796 47.1939C22.6785 47.1514 22.5686 47.1039 22.4636 47.0539C22.3587 47.0039 22.2687 46.9389 22.1937 46.8639C22.1187 46.789 22.0637 46.699 22.0262 46.5915C21.9888 46.4866 21.9812 46.3591 22.0012 46.2116C22.0237 46.0467 22.0712 45.9092 22.1437 45.7943C22.2162 45.6793 22.3087 45.5893 22.4161 45.5243C22.5261 45.4569 22.6485 45.4144 22.786 45.3919C22.9235 45.3694 23.0759 45.3694 23.2409 45.3919C23.4058 45.4144 23.5708 45.4519 23.7332 45.5068C23.8957 45.5618 24.0332 45.6218 24.1481 45.6893L24.0831 46.1766C23.9307 46.0917 23.7832 46.0242 23.6383 45.9767C23.4933 45.9292 23.3583 45.8942 23.2284 45.8792C23.0409 45.8542 22.8935 45.8692 22.781 45.9242C22.671 45.9792 22.6061 46.0742 22.5886 46.2091C22.5786 46.2891 22.5861 46.3541 22.6136 46.4116C22.6411 46.4666 22.6785 46.5165 22.7335 46.5565C22.786 46.5965 22.8485 46.634 22.921 46.664C22.9935 46.694 23.0684 46.724 23.1509 46.7515C23.2784 46.7965 23.4008 46.8465 23.5158 46.8989C23.6308 46.9514 23.7307 47.0164 23.8132 47.0939C23.8957 47.1714 23.9582 47.2663 24.0007 47.3763C24.0406 47.4888 24.0506 47.6262 24.0281 47.7862C24.0056 47.9536 23.9557 48.0936 23.8782 48.2086C23.8007 48.3235 23.6983 48.411 23.5733 48.476C23.4483 48.541 23.3034 48.581 23.1359 48.5984C22.9685 48.6159 22.7885 48.6109 22.5936 48.5859C22.4261 48.5635 22.2612 48.5235 22.1037 48.4685C21.9463 48.4135 21.8163 48.3485 21.7163 48.2735L21.7813 47.7937C21.9263 47.8812 22.0687 47.9486 22.2087 47.9986C22.3511 48.0486 22.4986 48.0836 22.6535 48.1036C22.7435 48.1161 22.8335 48.1211 22.921 48.1161C23.0085 48.1136 23.0909 48.0986 23.1634 48.0711C23.2359 48.0436 23.2984 48.0036 23.3483 47.9486C23.3983 47.8937 23.4283 47.8212 23.4408 47.7312H23.4358Z" fill="white"/>
<path d="M26.8222 45.5693L27.0522 48.2111L28.5117 48.0836L28.5542 48.561L26.5248 48.7384L26.2549 45.6193L26.8272 45.5693H26.8222Z" fill="white"/>
<path d="M32.5129 46.7317L31.3933 47.1041L31.3533 47.9589L30.7734 48.1513L30.9659 44.7873L31.4632 44.6223L33.6301 47.2016L33.0553 47.3915L32.5129 46.7317ZM31.4507 45.4196C31.4507 45.7645 31.4432 46.0544 31.4307 46.2918L31.4157 46.5892L32.183 46.3343L31.9931 46.1044C31.8431 45.9194 31.6632 45.692 31.4557 45.4171H31.4457L31.4507 45.4196Z" fill="white"/>
<path d="M11.7816 40.7158C11.7441 40.6783 11.7041 40.6508 11.6666 40.6308C11.6291 40.6108 11.5891 40.5983 11.5517 40.5933C11.5142 40.5883 11.4767 40.5908 11.4392 40.5983C11.4017 40.6058 11.3667 40.6208 11.3317 40.6408C11.3092 40.6533 11.2867 40.6683 11.2642 40.6883C11.2417 40.7083 11.2192 40.7283 11.2017 40.7483L10.5669 41.4031L10.4395 41.2781L11.0718 40.6258C11.0968 40.6008 11.1218 40.5758 11.1518 40.5533C11.1793 40.5283 11.2092 40.5083 11.2367 40.4909C11.2842 40.4609 11.3342 40.4409 11.3867 40.4259C11.4392 40.4134 11.4917 40.4084 11.5491 40.4159C11.6066 40.4234 11.6616 40.4409 11.7191 40.4709C11.7766 40.5008 11.8366 40.5458 11.8966 40.6033C11.954 40.6583 11.999 40.7158 12.0315 40.7708C12.064 40.8258 12.084 40.8807 12.094 40.9332C12.104 40.9857 12.104 41.0382 12.094 41.0882C12.084 41.1382 12.0665 41.1857 12.044 41.2331C12.0265 41.2681 12.004 41.3006 11.979 41.3331C11.954 41.3656 11.9265 41.3981 11.8991 41.4256L11.2667 42.0779L11.1393 41.9529L11.7741 41.2981C11.7966 41.2756 11.8191 41.2481 11.8391 41.2206C11.8591 41.1931 11.8766 41.1657 11.889 41.1382C11.919 41.0682 11.929 40.9982 11.914 40.9282C11.899 40.8582 11.8565 40.7883 11.7866 40.7183L11.7816 40.7158Z" fill="white"/>
<path d="M9.82716 40.026C9.85965 39.9985 9.88214 39.9685 9.89214 39.936C9.90214 39.9036 9.90464 39.8711 9.89964 39.8361C9.89465 39.8011 9.88465 39.7661 9.86715 39.7286C9.85216 39.6911 9.83214 39.6536 9.81465 39.6136C9.78965 39.5612 9.76468 39.5087 9.74219 39.4562C9.71969 39.4037 9.70719 39.3512 9.70219 39.2987C9.69719 39.2462 9.70218 39.1938 9.72468 39.1438C9.74467 39.0938 9.78218 39.0438 9.83966 38.9963C9.89715 38.9463 9.95712 38.9163 10.0196 38.9038C10.0821 38.8914 10.1421 38.8913 10.202 38.9088C10.262 38.9263 10.322 38.9538 10.3795 38.9963C10.437 39.0388 10.492 39.0913 10.5469 39.1538C10.5719 39.1838 10.5944 39.2138 10.6169 39.2487C10.6394 39.2837 10.6594 39.3162 10.6744 39.3487C10.6894 39.3812 10.7044 39.4137 10.7169 39.4412C10.7269 39.4712 10.7344 39.4937 10.7369 39.5137L10.6119 39.6186C10.6044 39.5886 10.5944 39.5587 10.5819 39.5262C10.5694 39.4937 10.5544 39.4612 10.5369 39.4287C10.5194 39.3962 10.502 39.3662 10.482 39.3362C10.462 39.3062 10.442 39.2787 10.422 39.2537C10.3895 39.2138 10.3545 39.1788 10.317 39.1488C10.2795 39.1188 10.242 39.0963 10.2045 39.0838C10.1671 39.0688 10.1271 39.0663 10.0871 39.0738C10.0471 39.0813 10.0071 39.1013 9.96463 39.1363C9.93214 39.1638 9.90964 39.1938 9.89964 39.2263C9.88965 39.2587 9.88714 39.2912 9.89214 39.3262C9.89714 39.3612 9.90714 39.3987 9.92463 39.4362C9.93963 39.4737 9.95961 39.5112 9.97961 39.5512C10.0071 39.6036 10.0296 39.6561 10.0521 39.7086C10.0746 39.7611 10.0871 39.8136 10.0921 39.8636C10.0971 39.9161 10.0921 39.966 10.0721 40.016C10.0521 40.066 10.0171 40.1135 9.96213 40.1585C9.90464 40.206 9.84714 40.2385 9.78716 40.251C9.72967 40.2635 9.66971 40.266 9.61472 40.251C9.55724 40.2385 9.50475 40.2135 9.45226 40.1785C9.39978 40.1435 9.3523 40.0985 9.30732 40.046C9.25733 39.986 9.21485 39.9261 9.18485 39.8636C9.15236 39.8011 9.12736 39.7411 9.10986 39.6836L9.23733 39.5762C9.25732 39.6386 9.27983 39.7011 9.30982 39.7611C9.33981 39.8211 9.37729 39.8786 9.42478 39.936C9.45976 39.9785 9.49724 40.011 9.53223 40.036C9.56722 40.0585 9.60222 40.076 9.63721 40.081C9.6722 40.0885 9.70469 40.086 9.73719 40.076C9.76968 40.066 9.80217 40.0485 9.83216 40.0235L9.82716 40.026Z" fill="white"/>
<path d="M7.55768 37.5791L8.67735 36.9043L8.30746 36.2895L8.4449 36.207L8.90726 36.9743L7.64765 37.7316L7.55518 37.5791H7.55768Z" fill="white"/>
<path d="M8.05479 35.4949L6.47023 35.5799L6.40527 35.4399L7.47744 34.2703L7.55994 34.4452L7.23502 34.7926L7.49746 35.3475L7.9723 35.3175L8.05479 35.4924V35.4949ZM6.64519 35.4149C6.83764 35.3949 7.01509 35.3824 7.17504 35.3724L7.32249 35.3625L7.11506 34.9226L7.01258 35.0325C6.90011 35.1525 6.77765 35.2775 6.64019 35.4124V35.4174L6.64519 35.4149Z" fill="white"/>
<path d="M6.51024 33.4604L7.08509 33.2605L7.14507 33.4304L5.75795 33.9153L5.63299 33.5554C5.61299 33.4954 5.59551 33.4429 5.58552 33.3979C5.57552 33.3529 5.568 33.3129 5.5655 33.273C5.55801 33.168 5.57803 33.078 5.62301 33.0055C5.668 32.9331 5.73797 32.8781 5.83294 32.8456C5.88793 32.8256 5.94292 32.8181 5.9929 32.8206C6.04289 32.8206 6.09036 32.8356 6.13535 32.8556C6.18033 32.8756 6.22032 32.9056 6.25531 32.9456C6.2928 32.983 6.32529 33.028 6.35278 33.0805H6.35779L6.80767 32.4607L6.86765 32.6306L6.44275 33.258L6.51524 33.4629L6.51024 33.4604ZM5.85043 33.6903L6.35779 33.5129L6.30031 33.3454C6.28281 33.293 6.26533 33.2505 6.24783 33.2155C6.23284 33.1805 6.21282 33.1505 6.19533 33.123C6.15784 33.0705 6.11284 33.0355 6.06286 33.018C6.01287 33.0005 5.9554 33.003 5.89042 33.023C5.83044 33.0455 5.78795 33.0755 5.76296 33.118C5.73796 33.1605 5.72546 33.2105 5.72796 33.268C5.72796 33.2955 5.73298 33.3279 5.74297 33.3629C5.75047 33.3979 5.76544 33.4429 5.78294 33.4954L5.85043 33.6878V33.6903Z" fill="white"/>
<path d="M5.73341 30.7039L5.8084 31.0313L5.65094 31.0687L5.53595 30.5689L6.22826 30.4089C6.24076 30.4214 6.25326 30.4414 6.26826 30.4689C6.28325 30.4964 6.29823 30.5264 6.31323 30.5639C6.32822 30.5989 6.34323 30.6389 6.35823 30.6789C6.37322 30.7213 6.38322 30.7613 6.39322 30.8038C6.42071 30.9263 6.4307 31.0388 6.41821 31.1412C6.40571 31.2437 6.37822 31.3312 6.33074 31.4111C6.28325 31.4886 6.22077 31.5536 6.14079 31.6086C6.06081 31.6611 5.96584 31.7011 5.85837 31.7261C5.7409 31.7535 5.63095 31.7585 5.52598 31.746C5.42101 31.7336 5.32854 31.6986 5.24606 31.6461C5.16358 31.5936 5.09111 31.5236 5.03113 31.4361C4.97114 31.3487 4.92865 31.2462 4.90116 31.1287C4.89366 31.0987 4.88864 31.0662 4.88365 31.0338C4.87865 31.0013 4.87617 30.9713 4.87367 30.9413C4.87367 30.9113 4.87117 30.8838 4.87367 30.8588C4.87367 30.8338 4.87614 30.8113 4.87864 30.7938L5.0336 30.7588C5.0286 30.8038 5.0286 30.8563 5.0336 30.9138C5.0361 30.9713 5.04612 31.0288 5.05861 31.0837C5.07861 31.1662 5.1086 31.2387 5.14858 31.3087C5.19107 31.3762 5.24356 31.4336 5.30604 31.4786C5.36852 31.5236 5.441 31.5536 5.52598 31.5711C5.61095 31.5886 5.70092 31.5836 5.80339 31.5611C5.90337 31.5386 5.98584 31.5036 6.05082 31.4586C6.1158 31.4136 6.16578 31.3612 6.20077 31.2987C6.23576 31.2362 6.25576 31.1662 6.26325 31.0887C6.26825 31.0113 6.26326 30.9263 6.24077 30.8388C6.23077 30.7963 6.22077 30.7563 6.20577 30.7188C6.19328 30.6789 6.17827 30.6464 6.16328 30.6164L5.73841 30.7138L5.73341 30.7039Z" fill="white"/>
<path d="M5.91345 29.2067L5.82098 28.4594L5.98093 28.4395L6.09589 29.3642L4.63632 29.5441L4.52637 28.6594L4.68632 28.6394L4.77379 29.3467L5.24366 29.2892L5.16617 28.6594L5.32612 28.6394L5.40362 29.2692L5.91095 29.2067H5.91345Z" fill="white"/>
<path d="M4.57391 25.6302C4.57391 25.7126 4.58141 25.7901 4.60641 25.8626C4.6314 25.9351 4.66641 25.9976 4.71639 26.0525C4.76638 26.1075 4.82886 26.15 4.90384 26.1825C4.97882 26.215 5.06877 26.2325 5.16874 26.235C5.26872 26.2375 5.3587 26.2275 5.43368 26.2C5.50866 26.175 5.57114 26.135 5.62113 26.085C5.67111 26.035 5.70859 25.9726 5.73609 25.9001C5.76108 25.8276 5.77609 25.7476 5.77858 25.6577C5.77858 25.6327 5.77858 25.6077 5.77858 25.5802C5.77858 25.5527 5.77358 25.5252 5.77108 25.4977C5.76608 25.4702 5.76357 25.4427 5.75607 25.4152C5.75107 25.3877 5.74359 25.3652 5.73859 25.3452L5.89604 25.3502C5.91104 25.3927 5.92354 25.4452 5.93104 25.5027C5.93854 25.5602 5.94101 25.6177 5.93851 25.6777C5.93601 25.8001 5.91352 25.9076 5.87853 26.0001C5.84104 26.0925 5.79106 26.1725 5.72608 26.2325C5.6611 26.295 5.58113 26.34 5.48866 26.37C5.39619 26.3999 5.29121 26.4124 5.17375 26.4099C5.05878 26.4074 4.95381 26.3874 4.86134 26.3475C4.76637 26.31 4.6864 26.2575 4.61892 26.19C4.55143 26.1225 4.50145 26.0425 4.46396 25.9476C4.42647 25.8526 4.41146 25.7476 4.41646 25.6327C4.41646 25.6027 4.41897 25.5727 4.42396 25.5427C4.42896 25.5127 4.43147 25.4852 4.43647 25.4577C4.44147 25.4302 4.44896 25.4052 4.45646 25.3827C4.46395 25.3602 4.47144 25.3402 4.47894 25.3228L4.6364 25.3278C4.6214 25.3727 4.6064 25.4202 4.5964 25.4727C4.5864 25.5252 4.57892 25.5777 4.57642 25.6302H4.57391Z" fill="white"/>
<path d="M5.98062 24.5178L4.60352 23.7281L4.62353 23.5756L6.16056 23.1782L6.13558 23.3707L5.67321 23.4856L5.59075 24.0955L6.00561 24.3279L5.98062 24.5178ZM4.84097 23.6856C5.01342 23.7756 5.17087 23.8605 5.31083 23.938L5.44077 24.0105L5.50575 23.5281L5.3608 23.5656C5.20085 23.6056 5.02841 23.6431 4.84097 23.6806V23.6856Z" fill="white"/>
<path d="M6.38291 22.1112L6.34044 22.2862L4.91333 21.9388L5.0083 21.5439C5.0233 21.4839 5.03831 21.4314 5.05831 21.3839C5.0783 21.3364 5.10077 21.2915 5.12576 21.254C5.17825 21.1765 5.23826 21.1215 5.31074 21.094C5.38322 21.064 5.46318 21.0615 5.55066 21.0815C5.62314 21.099 5.68311 21.129 5.7306 21.1715C5.77809 21.214 5.81559 21.2665 5.83808 21.3315C5.86058 21.3939 5.87308 21.4689 5.87308 21.5514C5.87308 21.6339 5.86057 21.7263 5.83558 21.8263C5.82308 21.8738 5.81058 21.9238 5.79308 21.9738L6.38041 22.1162L6.38291 22.1112ZM5.63813 21.9288C5.64563 21.9063 5.65562 21.8813 5.66311 21.8563C5.67061 21.8313 5.67813 21.8063 5.68313 21.7838C5.70312 21.7013 5.71312 21.6314 5.71562 21.5689C5.71562 21.5089 5.7106 21.4564 5.6931 21.4139C5.67811 21.3714 5.65314 21.3389 5.62315 21.314C5.59316 21.289 5.55315 21.2715 5.50816 21.2615C5.45318 21.249 5.4032 21.2515 5.36071 21.269C5.31822 21.2865 5.28322 21.319 5.25073 21.3639C5.23073 21.3914 5.21575 21.4239 5.20075 21.4639C5.18576 21.5039 5.17325 21.5489 5.16076 21.6014L5.11078 21.8038L5.63563 21.9313L5.63813 21.9288Z" fill="white"/>
<path d="M13.4788 43.2501L14.0186 43.675L13.3313 43.645L13.0964 44.2898L12.9114 43.6275L12.2241 43.6L12.7965 43.2201L12.609 42.5603L13.1489 42.9877L13.7187 42.6053L13.4788 43.2501Z" fill="#E51A44"/>
<path d="M6.45054 17.8873L7.41276 17.8399L6.65797 18.4397L7.00037 19.3394L6.19561 18.8096L5.44583 19.4119L5.70326 18.4847L4.896 17.9573L5.85821 17.9148L6.11064 16.9851L6.45054 17.8873Z" fill="#E51A44"/>
<path d="M39.0013 43.2501L38.4614 43.675L39.1487 43.645L39.3862 44.2898L39.5686 43.6275L40.2559 43.6L39.6836 43.2201L39.871 42.5603L39.3337 42.9877L38.7614 42.6053L39.0013 43.2501Z" fill="#E51A44"/>
<path d="M46.0316 17.8873L45.0693 17.8399L45.8216 18.4397L45.4792 19.3394L46.284 18.8096L47.0338 19.4119L46.7788 18.4847L47.5836 17.9573L46.6214 17.9148L46.3689 16.9851L46.0316 17.8873Z" fill="#E51A44"/>
<path d="M45.9594 22.2163C45.9719 22.2688 45.9869 22.3138 46.0094 22.3512C46.0294 22.3887 46.0543 22.4212 46.0843 22.4462C46.1143 22.4712 46.1443 22.4912 46.1818 22.5037C46.2193 22.5162 46.2543 22.5237 46.2968 22.5262C46.3218 22.5262 46.3493 22.5262 46.3792 22.5262C46.4092 22.5237 46.4367 22.5187 46.4642 22.5112L47.354 22.3138L47.3915 22.4887L46.5067 22.6836C46.4742 22.6911 46.4367 22.6961 46.3992 22.7011C46.3617 22.7061 46.3268 22.7086 46.2943 22.7061C46.2393 22.7061 46.1843 22.6936 46.1343 22.6761C46.0843 22.6587 46.0368 22.6312 45.9944 22.5962C45.9519 22.5612 45.9144 22.5137 45.8819 22.4562C45.8494 22.3987 45.8244 22.3287 45.8069 22.2488C45.7894 22.1688 45.7819 22.0988 45.7869 22.0363C45.7919 21.9739 45.8044 21.9164 45.8244 21.8689C45.8444 21.8189 45.8744 21.7764 45.9094 21.7414C45.9444 21.7039 45.9869 21.6739 46.0318 21.6489C46.0643 21.6315 46.1018 21.614 46.1418 21.6015C46.1818 21.589 46.2218 21.5765 46.2593 21.569L47.144 21.374L47.1815 21.549L46.2918 21.7464C46.2593 21.7539 46.2268 21.7639 46.1943 21.7764C46.1618 21.7889 46.1318 21.8039 46.1068 21.8189C46.0419 21.8589 45.9969 21.9139 45.9694 21.9789C45.9419 22.0463 45.9394 22.1263 45.9594 22.2238V22.2163Z" fill="white"/>
<path d="M47.2091 23.8709C47.1666 23.8759 47.1317 23.8884 47.1067 23.9084C47.0817 23.9284 47.0592 23.9559 47.0442 23.9859C47.0292 24.0159 47.0192 24.0534 47.0117 24.0933C47.0042 24.1333 46.9992 24.1758 46.9917 24.2183C46.9842 24.2758 46.9742 24.3333 46.9642 24.3908C46.9542 24.4482 46.9367 24.4982 46.9117 24.5457C46.8867 24.5932 46.8517 24.6307 46.8093 24.6632C46.7643 24.6957 46.7068 24.7157 46.6318 24.7232C46.5568 24.7332 46.4893 24.7232 46.4319 24.7032C46.3744 24.6807 46.3244 24.6457 46.2819 24.6007C46.2419 24.5532 46.2069 24.4957 46.1819 24.4307C46.1569 24.3633 46.1395 24.2883 46.132 24.2058C46.127 24.1683 46.127 24.1283 46.127 24.0883C46.127 24.0484 46.127 24.0084 46.1345 23.9734C46.1395 23.9359 46.1444 23.9034 46.1519 23.8734C46.1594 23.8434 46.167 23.8184 46.1745 23.8009L46.3369 23.7834C46.3269 23.8109 46.3169 23.8409 46.3119 23.8759C46.3044 23.9109 46.2994 23.9459 46.2944 23.9809C46.2894 24.0159 46.2894 24.0534 46.2894 24.0883C46.2894 24.1233 46.2894 24.1583 46.2944 24.1883C46.2994 24.2383 46.3094 24.2883 46.3244 24.3333C46.3394 24.3783 46.3569 24.4182 46.3819 24.4507C46.4069 24.4832 46.4369 24.5082 46.4744 24.5232C46.5118 24.5382 46.5568 24.5457 46.6093 24.5382C46.6518 24.5332 46.6868 24.5207 46.7143 24.4982C46.7418 24.4757 46.7618 24.4507 46.7768 24.4182C46.7918 24.3858 46.8043 24.3508 46.8093 24.3108C46.8167 24.2708 46.8218 24.2283 46.8293 24.1833C46.8368 24.1258 46.8443 24.0683 46.8543 24.0109C46.8642 23.9559 46.8817 23.9034 46.9067 23.8584C46.9317 23.8134 46.9642 23.7734 47.0067 23.7434C47.0492 23.7135 47.1067 23.6935 47.1791 23.686C47.2541 23.6785 47.3191 23.686 47.3741 23.706C47.4316 23.7259 47.4791 23.7584 47.5191 23.8009C47.5591 23.8434 47.5915 23.8934 47.614 23.9534C47.6365 24.0109 47.654 24.0758 47.6615 24.1433C47.6715 24.2208 47.6715 24.2958 47.6615 24.3633C47.6515 24.4307 47.6415 24.4957 47.624 24.5557L47.4591 24.5732C47.4791 24.5107 47.4916 24.4457 47.5016 24.3783C47.5116 24.3133 47.5116 24.2433 47.5016 24.1683C47.4966 24.1133 47.4841 24.0658 47.4666 24.0259C47.4491 23.9859 47.4291 23.9534 47.4041 23.9309C47.3791 23.9059 47.3491 23.8884 47.3166 23.8809C47.2841 23.8709 47.2466 23.8684 47.2091 23.8734V23.8709Z" fill="white"/>
<path d="M47.751 27.1649L46.4439 27.1124L46.4139 27.8297L46.2515 27.8222L46.289 26.9275L47.7585 26.9875L47.751 27.1649Z" fill="white"/>
<path d="M46.189 28.627L47.5586 29.4268L47.5361 29.5792L45.9966 29.9641L46.0241 29.7717L46.4865 29.6592L46.5739 29.0519L46.1615 28.8145L46.189 28.6245V28.627ZM47.3237 29.4693C47.1513 29.3793 46.9963 29.2943 46.8564 29.2118L46.7264 29.1369L46.6589 29.6192L46.8038 29.5842C46.9638 29.5467 47.1363 29.5093 47.3237 29.4718V29.4668V29.4693Z" fill="white"/>
<path d="M46.3592 31.1837L45.7694 31.0338L45.8144 30.8613L47.239 31.2212L47.1465 31.5911C47.1315 31.6536 47.114 31.7061 47.099 31.7486C47.084 31.7911 47.0665 31.8285 47.0465 31.8635C46.9941 31.956 46.9291 32.021 46.8516 32.056C46.7741 32.091 46.6866 32.0985 46.5892 32.0735C46.5317 32.0585 46.4817 32.036 46.4417 32.006C46.4017 31.976 46.3692 31.941 46.3442 31.8985C46.3192 31.856 46.3017 31.8111 46.2918 31.7586C46.2818 31.7061 46.2792 31.6511 46.2842 31.5911H46.2792L45.5645 31.8585L45.6095 31.6861L46.3092 31.3962L46.3617 31.1862L46.3592 31.1837ZM47.0365 31.3537L46.5142 31.2212L46.4717 31.3937C46.4592 31.4462 46.4492 31.4936 46.4417 31.5311C46.4367 31.5686 46.4342 31.6061 46.4342 31.6361C46.4367 31.7011 46.4542 31.7561 46.4867 31.7986C46.5192 31.841 46.5667 31.871 46.6342 31.8885C46.6966 31.9035 46.7491 31.901 46.7941 31.8785C46.8391 31.8585 46.8766 31.8211 46.9066 31.7711C46.9216 31.7486 46.9341 31.7186 46.9466 31.6836C46.9591 31.6486 46.9716 31.6036 46.9866 31.5486L47.0365 31.3512V31.3537Z" fill="white"/>
<path d="M45.4918 33.9105L45.6093 33.5956L45.7617 33.6506L45.5843 34.1329L44.917 33.8855C44.917 33.868 44.917 33.843 44.917 33.813C44.917 33.783 44.9245 33.7481 44.9295 33.7106C44.9345 33.6731 44.9445 33.6331 44.9545 33.5906C44.9645 33.5481 44.9795 33.5081 44.992 33.4681C45.0369 33.3507 45.0894 33.2507 45.1569 33.1732C45.2219 33.0957 45.2969 33.0358 45.3769 32.9958C45.4593 32.9558 45.5468 32.9358 45.6443 32.9358C45.7393 32.9358 45.8392 32.9533 45.9442 32.9933C46.0567 33.0358 46.1516 33.0907 46.2316 33.1582C46.3116 33.2282 46.3716 33.3057 46.4116 33.3957C46.4515 33.4856 46.474 33.5831 46.474 33.6906C46.474 33.798 46.454 33.9055 46.4141 34.018C46.4041 34.048 46.3916 34.078 46.3766 34.108C46.3641 34.1379 46.3491 34.1654 46.3341 34.1904C46.3191 34.2154 46.3041 34.2404 46.2891 34.2604C46.2741 34.2804 46.2616 34.2979 46.2466 34.3129L46.0991 34.2579C46.1291 34.2229 46.1566 34.1779 46.1866 34.1279C46.2166 34.078 46.2391 34.0255 46.2591 33.973C46.2891 33.8955 46.3041 33.8155 46.3066 33.7356C46.3091 33.6556 46.2966 33.5806 46.2691 33.5081C46.2416 33.4356 46.1966 33.3707 46.1366 33.3107C46.0767 33.2507 45.9967 33.2032 45.8992 33.1682C45.8042 33.1332 45.7168 33.1157 45.6368 33.1157C45.5568 33.1157 45.4868 33.1332 45.4219 33.1657C45.3594 33.1982 45.3019 33.2457 45.2544 33.3057C45.2069 33.3682 45.1669 33.4406 45.1344 33.5281C45.1194 33.5681 45.1069 33.6081 45.0969 33.6481C45.0869 33.6881 45.0794 33.7256 45.0769 33.7581L45.4868 33.9105H45.4918Z" fill="white"/>
<path d="M44.5145 35.0628L44.1796 35.7376L44.0347 35.6651L44.4496 34.8303L45.7667 35.4826L45.3718 36.2824L45.2268 36.2099L45.5442 35.5726L45.1193 35.3627L44.8369 35.93L44.692 35.8575L44.9744 35.2902L44.517 35.0628H44.5145Z" fill="white"/>
<path d="M43.665 38.7866C43.7125 38.7191 43.745 38.6491 43.765 38.5742C43.785 38.5017 43.7899 38.4267 43.7774 38.3542C43.7649 38.2817 43.7375 38.2118 43.6925 38.1418C43.6475 38.0718 43.5825 38.0093 43.5 37.9493C43.4175 37.8919 43.3376 37.8519 43.2601 37.8319C43.1826 37.8119 43.1101 37.8094 43.0402 37.8244C42.9702 37.8394 42.9052 37.8694 42.8427 37.9143C42.7802 37.9593 42.7253 38.0193 42.6728 38.0943C42.6578 38.1143 42.6453 38.1368 42.6303 38.1593C42.6153 38.1843 42.6028 38.2093 42.5903 38.2343C42.5778 38.2592 42.5678 38.2842 42.5578 38.3092C42.5478 38.3342 42.5403 38.3567 42.5328 38.3792L42.4028 38.2892C42.4128 38.2442 42.4328 38.1968 42.4578 38.1443C42.4828 38.0918 42.5128 38.0418 42.5478 37.9918C42.6178 37.8919 42.6952 37.8144 42.7777 37.7544C42.8602 37.6969 42.9452 37.6594 43.0352 37.6444C43.1251 37.6294 43.2151 37.6344 43.3101 37.6594C43.405 37.6844 43.4975 37.7319 43.595 37.7994C43.6875 37.8644 43.765 37.9393 43.8224 38.0243C43.8799 38.1093 43.9199 38.1968 43.9374 38.2892C43.9549 38.3817 43.9549 38.4792 43.9324 38.5767C43.9099 38.6741 43.8649 38.7716 43.7974 38.8666C43.78 38.8916 43.7599 38.9166 43.7424 38.9391C43.7249 38.9615 43.7025 38.984 43.685 39.004C43.665 39.024 43.645 39.0415 43.6275 39.0565C43.6075 39.0715 43.59 39.084 43.575 39.094L43.445 39.004C43.4825 38.9765 43.52 38.944 43.56 38.9066C43.5975 38.8691 43.6325 38.8291 43.665 38.7866Z" fill="white"/>
<path d="M41.878 38.9316L42.5903 40.3487L42.4878 40.4662L40.9883 39.9488L41.1157 39.8014L41.5656 39.9613L41.9705 39.499L41.753 39.0766L41.8805 38.9316H41.878ZM42.3679 40.2563C42.2729 40.0863 42.1904 39.9289 42.1154 39.7864L42.048 39.6539L41.7281 40.0213L41.868 40.0713C42.023 40.1263 42.1879 40.1888 42.3654 40.2613H42.3679V40.2563Z" fill="white"/>
<path d="M40.2134 40.7184L40.3433 40.5959L41.3431 41.6731L41.0457 41.9506C41.0007 41.9905 40.9582 42.028 40.9157 42.058C40.8732 42.088 40.8307 42.1105 40.7882 42.1305C40.7032 42.168 40.6208 42.178 40.5458 42.163C40.4708 42.148 40.4008 42.108 40.3383 42.0405C40.2884 41.9856 40.2534 41.9281 40.2359 41.8656C40.2184 41.8031 40.2184 41.7406 40.2359 41.6731C40.2509 41.6057 40.2809 41.5382 40.3284 41.4707C40.3734 41.4007 40.4358 41.3307 40.5108 41.2633C40.5458 41.2308 40.5858 41.1958 40.6258 41.1633L40.2134 40.7209V40.7184ZM40.7358 41.2808C40.7158 41.2957 40.6958 41.3107 40.6758 41.3282C40.6558 41.3457 40.6358 41.3607 40.6208 41.3782C40.5583 41.4357 40.5108 41.4907 40.4758 41.5382C40.4408 41.5882 40.4183 41.6356 40.4083 41.6781C40.3983 41.7231 40.3983 41.7631 40.4108 41.8006C40.4233 41.8381 40.4458 41.8731 40.4758 41.9081C40.5158 41.9506 40.5558 41.9756 40.6008 41.983C40.6458 41.9905 40.6932 41.9831 40.7432 41.9656C40.7732 41.9531 40.8057 41.9331 40.8407 41.9106C40.8732 41.8856 40.9107 41.8556 40.9507 41.8181L41.1031 41.6756L40.7358 41.2808Z" fill="white"/>
<path d="M14.126 19.0048C14.041 18.8399 14.1185 18.64 14.2909 18.5725C16.9302 17.5378 21.3389 16.2107 26.8848 16.3631C31.536 16.4931 35.2699 17.6152 37.7092 18.575C37.8791 18.6425 37.9566 18.8374 37.8766 19.0023C37.7017 19.3647 37.5267 19.7246 37.3518 20.087C35.0924 19.1373 31.246 17.8502 26.3275 17.7977C21.079 17.7402 16.9877 19.1148 14.6783 20.087C14.4934 19.7271 14.3109 19.3647 14.126 19.0048Z" fill="#E51A44"/>
<path d="M15.1529 20.8491C15.1004 20.7816 15.1229 20.6817 15.2028 20.6467C16.4025 20.1068 17.9246 19.547 19.7315 19.1596C21.0037 18.8872 22.1708 18.7522 23.1905 18.6947C23.438 18.6797 23.6779 18.7872 23.8304 18.9822C24.4452 19.7569 25.06 20.5317 25.6723 21.3065C25.8348 21.5114 26.1422 21.5139 26.3096 21.314C26.9519 20.5367 27.5943 19.7619 28.2366 18.9847C28.394 18.7947 28.629 18.6922 28.8739 18.7097C30.1835 18.7972 31.7431 19.0122 33.4601 19.482C34.7247 19.8294 35.8369 20.2468 36.7816 20.6692C36.8616 20.7042 36.8841 20.8066 36.8291 20.8741C36.4192 21.3865 35.8069 22.0188 34.9396 22.5636C34.5623 22.8011 34.1974 22.9835 33.8625 23.1235C33.7825 23.1585 33.6925 23.106 33.68 23.021C33.655 22.8585 33.6101 22.7186 33.5526 22.5986C33.0727 21.5789 31.4307 21.1365 29.4462 21.354C29.3863 21.3615 29.3388 21.4065 29.3288 21.4639C28.2991 27.2948 27.2694 33.1256 26.2397 38.9564C26.1947 39.2113 25.8298 39.2113 25.7848 38.9564L22.6182 21.4614C22.6082 21.4015 22.5557 21.354 22.4933 21.3515C20.3214 21.2215 18.6344 21.6889 18.302 22.6436C18.2695 22.7386 18.247 22.8435 18.242 22.9635C18.2395 23.0535 18.142 23.1135 18.057 23.0785C17.6821 22.9235 17.2523 22.7086 16.8074 22.4062C16.0401 21.8888 15.5003 21.309 15.1454 20.8466L15.1529 20.8491Z" fill="#E51A44"/>
</svg>
