<svg width="52" height="52" viewBox="0 0 52 52" fill="none" xmlns="http://www.w3.org/2000/svg">
<path d="M26 52.0001C40.3594 52.0001 52 40.3595 52 26.0001C52 11.6407 40.3594 6.10352e-05 26 6.10352e-05C11.6406 6.10352e-05 0 11.6407 0 26.0001C0 40.3595 11.6406 52.0001 26 52.0001Z" fill="#002B2A"/>
<path d="M5.48163 16.1567C5.60882 15.893 5.76084 15.6324 6.00281 15.4586C6.35337 15.2043 6.88695 15.1329 7.52602 15.4462C8.24884 15.7999 8.45049 16.3335 8.48151 16.653C8.50013 16.8733 8.43808 17.1432 8.30468 17.4193L7.68113 18.6974L7.48259 18.6012L7.52912 18.5082C7.61598 18.3313 7.57255 18.3096 7.39883 18.2228L5.4413 17.2673C5.2986 17.199 5.24276 17.1711 5.1559 17.3479L5.10936 17.441L4.90771 17.3417L5.48473 16.1567H5.48163ZM7.74007 17.956L8.01307 17.3945C8.01307 17.3945 8.1868 17.0191 8.17129 16.805C8.13406 16.2466 7.61909 15.955 7.3616 15.8278C6.22928 15.2756 5.8446 16.0636 5.70499 16.349L5.46302 16.8454L7.74007 17.956Z" fill="white"/>
<path d="M8.05364 12.0089L8.23667 12.1454L8.19014 12.2074C8.05674 12.3874 8.09087 12.4153 8.26149 12.5394L9.95532 13.802C10.1353 13.9354 10.1694 13.9602 10.3028 13.7803L10.3493 13.7182L10.5261 13.8485L9.9305 14.6458L9.75368 14.5155L9.80641 14.4442C9.93361 14.2735 9.89948 14.2518 9.73816 14.1308L7.9978 12.831C7.8613 12.7286 7.82097 12.7007 7.69378 12.8682L7.64104 12.9396L7.45801 12.8031L8.05364 12.0058V12.0089Z" fill="white"/>
<path d="M12.0304 9.11661L11.7946 9.33377L11.6922 9.22209C11.6395 9.16624 11.5185 9.05146 11.4378 9.03905C11.3293 9.02044 11.0842 9.07938 10.8298 9.31515C10.2373 9.86115 10.4606 10.5747 10.9105 11.0586C11.4658 11.6605 12.1452 11.7318 12.6291 11.2851C12.8587 11.0741 12.9642 10.8166 12.9983 10.736L12.5733 10.2769C12.443 10.1341 12.4089 10.0969 12.2537 10.2427L12.1669 10.3234L12.0149 10.159L12.7718 9.46096L12.9238 9.62538L12.8339 9.70914C12.6912 9.83943 12.7315 9.88287 12.8556 10.0194L13.383 10.5902C13.2806 10.9221 13.1534 11.2106 12.8121 11.5271C11.9963 12.2809 11.1121 11.9086 10.6157 11.3688C10.0108 10.7143 9.90223 9.7929 10.6592 9.09489C10.9136 8.85912 11.2145 8.6885 11.5495 8.60474L12.0273 9.12281L12.0304 9.11661Z" fill="white"/>
<path d="M14.3386 6.45593L14.4596 6.65138L14.3944 6.6917C14.2052 6.81269 14.2269 6.84992 14.3417 7.02985L15.4647 8.81985C15.5857 9.00909 15.6043 9.04321 15.7966 8.92533L15.8618 8.885L15.9797 9.07113L15.139 9.59852L15.0211 9.41238L15.0986 9.36585C15.2786 9.25417 15.2569 9.22004 15.1483 9.04632L13.9942 7.20668C13.9043 7.06087 13.8763 7.02054 13.6995 7.13222L13.622 7.17876L13.501 6.98332L14.3417 6.45593H14.3386Z" fill="white"/>
<path d="M18.7779 4.37659L19.054 5.06529L18.7872 5.17387L18.6848 4.91638C18.6352 4.79229 18.6135 4.73645 18.4118 4.81711L17.81 5.05908L18.6848 7.24307C18.7593 7.4261 18.7748 7.46953 18.9889 7.38267L19.0757 7.34855L19.1564 7.5533L18.1947 7.93798L18.114 7.73323L18.2319 7.68669C18.4118 7.61534 18.3963 7.5657 18.3343 7.40749L17.4501 5.20179L16.8669 5.43756C16.6591 5.52132 16.6653 5.56165 16.7397 5.74468L16.8266 5.96184L16.5598 6.07042L16.2837 5.38172L18.781 4.37969L18.7779 4.37659Z" fill="white"/>
<path d="M22.0724 3.54266L23.4467 5.95001C23.5956 6.2106 23.6545 6.2106 23.7879 6.18578L23.8717 6.17027L23.912 6.38743L22.9162 6.57046L22.8759 6.35331L22.9906 6.33159C23.0961 6.31298 23.1675 6.29436 23.1489 6.19819C23.1396 6.14546 23.0806 6.04618 23.0651 6.02137L22.8169 5.58084L21.6536 5.7949L21.5698 6.31298C21.5636 6.33159 21.5512 6.43396 21.5605 6.4805C21.5822 6.59218 21.6877 6.57046 21.7622 6.55806L21.8862 6.53634L21.9266 6.7535L20.9959 6.92412L20.9556 6.70696L21.0362 6.69145C21.1789 6.66663 21.2317 6.6139 21.2658 6.40294L21.7125 3.61402L22.0755 3.54887L22.0724 3.54266ZM21.697 5.50949L22.6711 5.33266L21.9359 4.04523H21.9266L21.6939 5.5126L21.697 5.50949Z" fill="white"/>
<path d="M26.5738 3.25697L26.5676 3.48034H26.4498C26.2264 3.47103 26.2233 3.50826 26.2171 3.7099L26.155 6.06141L27.2222 6.08933C27.3649 6.09244 27.4115 6.07692 27.4177 5.88148L27.4239 5.6333L27.7155 5.63951L27.6969 6.36854L25.457 6.30959L25.4632 6.08933H25.5563C25.7673 6.09864 25.7704 6.0397 25.7735 5.86907L25.8324 3.66027C25.8355 3.52067 25.8324 3.45862 25.6277 3.45242H25.5346L25.5408 3.22595L26.5738 3.25387V3.25697Z" fill="white"/>
<path d="M34.283 4.76162L34.2086 7.52883C34.1993 7.82975 34.252 7.85767 34.3761 7.90731L34.4568 7.93833L34.3792 8.14308L33.433 7.78322L33.5106 7.57847L33.6191 7.6188C33.7215 7.65602 33.7898 7.67774 33.8239 7.58467C33.8425 7.53504 33.8425 7.42025 33.8456 7.38923L33.8611 6.88356L32.7567 6.46166L32.4155 6.86185C32.4155 6.86185 32.3348 6.95802 32.3193 6.99835C32.279 7.10382 32.3813 7.14105 32.4527 7.16897L32.5706 7.2124L32.493 7.41715L31.6089 7.08211L31.6864 6.87736L31.7609 6.90528C31.8943 6.95802 31.9687 6.94251 32.1083 6.77809L33.9356 4.62512L34.2799 4.75542L34.283 4.76162ZM32.9398 6.2476L33.8642 6.60126L33.9046 5.11838H33.8952L32.9398 6.2476Z" fill="white"/>
<path d="M38.5545 7.96035L38.3001 7.79903L38.3622 7.69976C38.4956 7.49191 38.4893 7.42366 38.4769 7.37712C38.4614 7.30887 38.3839 7.13204 38.1481 6.98003C37.7727 6.74116 37.5214 6.9335 37.4315 7.0731C37.2515 7.3523 37.4129 7.6284 37.6735 8.06582C37.903 8.4474 38.1295 8.82277 37.8441 9.2695C37.689 9.51147 37.2267 9.93338 36.5039 9.47114C36.3984 9.40289 36.0168 9.14851 35.7842 8.79795L36.1999 8.14648L36.4729 8.32021L36.3798 8.46291C36.2681 8.63664 36.2712 8.7297 36.2805 8.78555C36.3178 9.03683 36.597 9.21676 36.6342 9.24158C36.9227 9.42461 37.2764 9.4153 37.4625 9.12369C37.6517 8.82898 37.5245 8.5808 37.3043 8.21163C37.0406 7.7649 36.7893 7.343 37.0654 6.91489C37.2484 6.62638 37.7107 6.3875 38.3094 6.77218C38.4614 6.86835 38.7437 7.10412 38.9144 7.38953L38.5483 7.96345L38.5545 7.96035Z" fill="white"/>
<path d="M41.7003 10.6213L41.4801 10.4135L41.5607 10.3297C41.7313 10.1498 41.7376 10.0815 41.7344 10.035C41.7344 9.96366 41.6879 9.77442 41.4863 9.58518C41.1605 9.28116 40.8782 9.42076 40.7665 9.54175C40.537 9.78373 40.6456 10.0846 40.8193 10.5624C40.9744 10.9812 41.1264 11.3907 40.7634 11.7785C40.5649 11.9894 40.0344 12.3152 39.4078 11.7257C39.3147 11.6389 38.989 11.3193 38.8276 10.9316L39.3581 10.3669L39.5939 10.5903L39.476 10.7144C39.3333 10.8664 39.3209 10.9564 39.3209 11.0122C39.3085 11.2666 39.5505 11.4962 39.5846 11.5272C39.8328 11.763 40.1833 11.8188 40.4191 11.5644C40.6611 11.31 40.5804 11.0432 40.4315 10.6368C40.2547 10.1498 40.0872 9.68756 40.4377 9.31839C40.6735 9.07021 41.1698 8.9213 41.6879 9.40835C41.8182 9.53244 42.054 9.81475 42.1688 10.125L41.7034 10.6182L41.7003 10.6213Z" fill="white"/>
<path d="M45.1687 13.6873L44.604 14.0906L44.4365 13.8548L44.6196 13.7245C44.7654 13.6191 44.7437 13.588 44.6103 13.3864L44.027 12.5705L43.146 13.2002L43.6051 13.8455C43.7168 14.0037 43.7602 13.9944 43.8905 13.9014L43.9743 13.8424L44.1232 14.0503L43.4035 14.5652L43.2546 14.3574L43.3694 14.2767C43.4996 14.1837 43.4779 14.1278 43.3756 13.9851L42.9288 13.3585L41.9702 14.0441L42.631 14.9716C42.7427 15.1299 42.7985 15.0957 42.9226 15.0058L43.0808 14.8941L43.2453 15.1236L42.69 15.5207L41.3467 13.6439L41.5266 13.5167L41.5887 13.6035C41.7003 13.7618 41.7562 13.7214 41.8772 13.6346L43.692 12.3378C43.8006 12.2603 43.8409 12.2137 43.7354 12.0679L43.6734 11.9811L43.8564 11.8508L45.1687 13.6873Z" fill="white"/>
<path d="M47.3931 18.1293L46.7137 18.4271L46.599 18.1634L46.8533 18.0517C46.9774 17.999 47.0302 17.9742 46.9433 17.7756L46.6827 17.1831L44.5266 18.1262C44.3467 18.2068 44.3033 18.2223 44.3964 18.4333L44.4336 18.5202L44.2319 18.607L43.8193 17.6577L44.021 17.5709L44.0706 17.6856C44.1482 17.8625 44.1947 17.847 44.3529 17.7787L46.5307 16.8294L46.2794 16.2524C46.1895 16.0477 46.1491 16.0539 45.9661 16.1345L45.752 16.2276L45.6373 15.9639L46.3167 15.6661L47.3931 18.1324V18.1293Z" fill="white"/>
<path d="M36.2406 30.3061C36.1444 29.8966 35.98 29.4716 35.7442 29.0466C35.4526 28.5689 35.1393 28.2028 34.8197 27.9639C34.4909 27.7188 34.1745 27.5296 33.8798 27.4055L33.5881 27.2814L33.8363 27.0829C33.9418 26.9991 34.0783 26.8781 34.2396 26.7292C34.3916 26.5896 34.5405 26.3911 34.6863 26.1429C34.8322 25.8916 34.9593 25.5845 35.0648 25.2246C35.1703 24.8679 35.223 24.4305 35.223 23.9186C35.223 23.537 35.1579 23.0841 35.0276 22.5722C34.9035 22.0789 34.6088 21.595 34.1497 21.1359C33.8363 20.8225 33.4734 20.565 33.0763 20.3758C32.673 20.1835 32.248 20.0377 31.823 19.9415C31.3918 19.8453 30.9512 19.7802 30.5076 19.746C30.0609 19.7119 29.6359 19.6964 29.245 19.6964H28.457V22.5319H29.8437C29.9833 22.5319 30.1384 22.5443 30.3184 22.566C30.4921 22.5908 30.6689 22.6249 30.8396 22.6715C31.0195 22.718 31.1808 22.7801 31.3235 22.8514C31.6865 23.0593 31.9067 23.3167 31.9874 23.6208C32.0587 23.8938 32.0929 24.1202 32.0929 24.3157C32.0929 24.8027 32.006 25.1626 31.8261 25.417C31.6554 25.662 31.4972 25.8296 31.3452 25.9319C31.1219 26.0809 30.8333 26.1801 30.4859 26.2267C30.1602 26.2701 29.8561 26.2949 29.58 26.2949H19.9072V22.5319H23.1429V19.6964H16.7739V36.886H23.1708V34.0536H19.9072V29.1304H30.2439C30.6069 29.1304 31.004 29.1769 31.429 29.2669C31.8633 29.3599 32.217 29.5306 32.4837 29.7694C32.5489 29.816 32.6513 29.9183 32.887 30.2565C33.0887 30.5481 33.188 30.9576 33.188 31.5098C33.188 31.8635 33.1166 32.2326 32.977 32.6049C32.8343 32.9896 32.6265 33.2936 32.3566 33.5139C32.0432 33.7806 31.6523 33.9389 31.1963 33.9885C30.7775 34.0319 30.368 34.0567 29.9833 34.0567H28.4942V36.8891H30.3804C31.1405 36.8891 31.9346 36.8022 32.7443 36.6285C33.5323 36.461 34.2737 36.0205 34.95 35.3225C35.3099 34.9626 35.6449 34.4756 35.9428 33.8768C36.2375 33.2874 36.3864 32.5242 36.3864 31.6091C36.3864 31.1623 36.3367 30.7249 36.2406 30.3092V30.3061Z" fill="white"/>
<path d="M24.253 19.3184V19.5077V19.6969L24.2592 22.5324V22.7247V22.914L24.2623 25.191H27.3645L27.3583 22.914V22.7247V22.5324L27.3552 19.6969L27.3521 19.5077V19.3184V17.9783H34.1492L35.0147 15.0125H17.6483L16.7734 17.9783H24.2499L24.253 19.3184Z" fill="white"/>
<path d="M27.3861 37.0784V36.8861L27.3799 34.0506V33.8614V33.6722L27.3737 30.2349H24.2715L24.2777 33.6722V33.8614V34.0506L24.2808 36.8861V37.0784L24.2839 37.2677L24.287 39.0484L27.3861 37.3732V37.2677V37.0784Z" fill="white"/>
<path d="M25.9997 44.4024C15.8523 44.4024 7.59717 36.1473 7.59717 25.9998C7.59717 15.8523 15.8523 7.59723 25.9997 7.59723C36.1472 7.59723 44.4023 15.8523 44.4023 25.9998C44.4023 36.1473 36.1472 44.4024 25.9997 44.4024ZM25.9997 8.60236C16.4076 8.60236 8.6023 16.4076 8.6023 25.9998C8.6023 35.592 16.4076 43.3973 25.9997 43.3973C35.5919 43.3973 43.3972 35.592 43.3972 25.9998C43.3972 16.4076 35.5919 8.60236 25.9997 8.60236Z" fill="white"/>
<path d="M25.9996 50.623C22.6801 50.623 19.4538 49.9715 16.4136 48.6841C13.482 47.4432 10.8481 45.6687 8.5897 43.4103C6.33125 41.1518 4.55676 38.518 3.31586 35.5864C2.03153 32.5462 1.37695 29.3198 1.37695 26.0004C1.37695 22.681 2.02843 19.4546 3.31586 16.4144C4.55676 13.4828 6.33125 10.849 8.5897 8.59055C10.8481 6.33211 13.482 4.55762 16.4136 3.31672C19.4538 2.03238 22.6801 1.37781 25.9996 1.37781C29.319 1.37781 32.5453 2.02928 35.5855 3.31672C38.5172 4.55762 41.151 6.33211 43.4094 8.59055C45.6678 10.849 47.4423 13.4828 48.6832 16.4144C49.9676 19.4546 50.6222 22.681 50.6222 26.0004C50.6222 29.3198 49.9707 32.5462 48.6832 35.5864C47.4423 38.518 45.6678 41.1518 43.4094 43.4103C41.151 45.6687 38.5172 47.4432 35.5855 48.6841C32.5453 49.9684 29.319 50.623 25.9996 50.623ZM25.9996 1.74698C22.7298 1.74698 19.5531 2.38914 16.5563 3.65486C13.6681 4.87715 11.0746 6.62372 8.85029 8.85114C6.62597 11.0755 4.8763 13.6689 3.65401 16.5571C2.38829 19.5508 1.74612 22.7275 1.74612 26.0004C1.74612 29.2733 2.38829 32.4469 3.65401 35.4437C4.8763 38.3319 6.62287 40.9254 8.85029 43.1497C11.0746 45.374 13.6681 47.1237 16.5563 48.3459C19.55 49.6117 22.7267 50.2538 25.9996 50.2538C29.2724 50.2538 32.446 49.6117 35.4428 48.3459C38.331 47.1237 40.9245 45.3771 43.1488 43.1497C45.3731 40.9254 47.1228 38.3319 48.3451 35.4437C49.6108 32.45 50.253 29.2733 50.253 26.0004C50.253 22.7275 49.6108 19.5539 48.3451 16.5571C47.1228 13.6689 45.3762 11.0755 43.1488 8.85114C40.9245 6.62682 38.331 4.87715 35.4428 3.65486C32.4491 2.38914 29.2724 1.74698 25.9996 1.74698Z" fill="white"/>
<path d="M46.9276 25.2122L45.5439 25.144L46.6266 26.0095L46.1365 27.3031L47.2905 26.54L48.3701 27.4086L48.0009 26.0715L49.1612 25.3146L47.7776 25.2525L47.4146 23.9155L46.9276 25.2122Z" fill="white"/>
<path d="M45.5218 32.1182L44.9913 33.0426L45.9592 32.6021L46.6727 33.3932L46.5549 32.3353L47.529 31.901L46.4866 31.687L46.3718 30.6291L45.8444 31.5536L44.8052 31.3333L45.5218 32.1182Z" fill="white"/>
<path d="M43.403 36.8922L42.8384 37.5313L43.6729 37.342L44.1041 38.0804L44.1848 37.2273L45.0193 37.0442L44.2344 36.7061L44.3151 35.853L43.7504 36.4982L42.9687 36.157L43.403 36.8922Z" fill="white"/>
<path d="M40.7289 40.5804L40.2915 41.0737L40.9337 40.9279L41.2687 41.4987L41.3308 40.841L41.9729 40.7014L41.368 40.4377L41.4331 39.7831L40.9988 40.2764L40.3939 40.0127L40.7289 40.5804Z" fill="white"/>
<path d="M37.4127 43.4409L37.0342 43.7418L37.5181 43.7201L37.6826 44.173L37.8128 43.7077L38.2968 43.689L37.8935 43.4222L38.0238 42.9569L37.6453 43.2578L37.2451 42.9879L37.4127 43.4409Z" fill="white"/>
<path d="M5.07183 25.2122L6.45544 25.144L5.37275 26.0095L5.86601 27.3031L4.70887 26.54L3.62928 27.4086L3.99845 26.0715L2.84131 25.3146L4.22491 25.2525L4.58788 23.9155L5.07183 25.2122Z" fill="white"/>
<path d="M6.4803 32.1182L7.01079 33.0426L6.03978 32.6021L5.32626 33.3932L5.44415 32.3353L4.47314 31.901L5.5155 31.687L5.62718 30.6291L6.15457 31.5536L7.19692 31.3333L6.4803 32.1182Z" fill="white"/>
<path d="M8.59577 36.8922L9.16348 37.5313L8.32897 37.342L7.89466 38.0804L7.8171 37.2273L6.97949 37.0442L7.76747 36.7061L7.6837 35.853L8.24831 36.4982L9.03319 36.157L8.59577 36.8922Z" fill="white"/>
<path d="M11.2699 40.5804L11.7073 41.0737L11.0651 40.9279L10.7332 41.4987L10.6711 40.841L10.0259 40.7014L10.6308 40.4377L10.5657 39.7831L11.0031 40.2764L11.6049 40.0127L11.2699 40.5804Z" fill="white"/>
<path d="M14.5863 43.4409L14.9679 43.7418L14.4839 43.7201L14.3164 44.173L14.1861 43.7077L13.7021 43.689L14.1054 43.4222L13.9751 42.9569L14.3536 43.2578L14.7569 42.9879L14.5863 43.4409Z" fill="white"/>
<path d="M17.4622 43.7327L17.3567 43.9499L17.2543 43.9002C17.0651 43.8072 17.0403 43.8599 16.9472 44.0492L16.2492 45.4886C16.1034 45.7895 15.8645 46.3603 16.6153 46.7233C17.3877 47.0956 17.6762 46.5185 17.791 46.2859L18.5076 44.803C18.6007 44.6076 18.6255 44.561 18.4301 44.468L18.3339 44.4214L18.4394 44.2043L19.3359 44.6386L19.2305 44.8557L19.1219 44.803C18.9419 44.7161 18.9171 44.7782 18.8427 44.9302L18.1198 46.4224C17.8034 47.0738 17.2822 47.3965 16.4632 46.9994C15.5543 46.5589 15.5636 45.9322 15.8459 45.349L16.578 43.8351C16.6525 43.6831 16.6773 43.621 16.4632 43.5187L16.3857 43.4814L16.4912 43.2643L17.456 43.7327H17.4622Z" fill="white"/>
<path d="M22.6677 46.3416L22.3544 46.2764L22.3792 46.1554C22.4351 45.898 22.404 45.8328 22.373 45.7925C22.3327 45.7304 22.1869 45.5815 21.8984 45.5195C21.433 45.4202 21.2562 45.7056 21.219 45.8793C21.1445 46.2268 21.4082 46.4377 21.8301 46.779C22.2024 47.0737 22.5684 47.3622 22.4506 47.9144C22.3854 48.2153 22.0845 48.8079 21.191 48.6155C21.0608 48.5876 20.583 48.4759 20.2231 48.2153L20.3938 47.4088L20.7319 47.4801L20.6947 47.6569C20.6482 47.8741 20.6885 47.9641 20.7164 48.0137C20.8467 48.2526 21.1941 48.327 21.2407 48.3363C21.5974 48.4108 21.9449 48.2712 22.0225 47.9082C22.1 47.5421 21.8828 47.3436 21.523 47.0582C21.0918 46.7107 20.6854 46.385 20.7971 45.8576C20.8715 45.5009 21.2438 45.0914 21.9852 45.2465C22.1714 45.2868 22.5436 45.414 22.8197 45.6343L22.6708 46.3416H22.6677Z" fill="white"/>
<path d="M27.3956 45.6711L27.4111 46.4622L27.104 46.4684L27.0978 46.1706C27.0978 46.0279 27.0947 45.9659 26.8651 45.969L26.1764 45.9814L26.2261 48.488C26.2292 48.6989 26.2323 48.7455 26.4742 48.7424H26.5735L26.5797 48.975L25.4784 48.9968V48.761H25.6087C25.8135 48.7579 25.8197 48.7051 25.8135 48.5221L25.7638 45.9938L25.0937 46.0062C24.8549 46.0124 24.8456 46.0527 24.8487 46.2637L24.8549 46.5119L24.5477 46.5181L24.5322 45.727L27.3956 45.6711Z" fill="white"/>
<path d="M30.0699 45.1316C30.2591 45.082 30.5724 45.0106 30.7617 45.0323C31.0005 45.0571 31.3045 45.1936 31.4193 45.6155C31.5186 45.9909 31.379 46.2453 31.1618 46.419V46.4283C31.3449 46.419 31.8536 46.4128 32.0243 47.0457C32.136 47.4676 31.9715 47.8088 31.7203 48.0043C31.5434 48.1408 31.2611 48.2152 31.1184 48.2556L29.7751 48.6092L29.7131 48.3828L29.8248 48.3517C30.0326 48.2959 30.0171 48.2401 29.9675 48.0508L29.3656 45.7924C29.3253 45.6435 29.3098 45.5783 29.1019 45.6342L28.9903 45.6652L28.9282 45.4325L30.073 45.1316H30.0699ZM30.014 46.6362L30.4545 46.5183C30.7182 46.447 31.1743 46.2825 31.0316 45.7458C30.923 45.3395 30.5755 45.3022 30.2281 45.3953L29.7193 45.5318L30.014 46.6393V46.6362ZM30.4173 48.1439L31.075 47.9671C31.4504 47.8678 31.7389 47.6475 31.6148 47.1822C31.4442 46.5493 30.8888 46.6951 30.6221 46.7665L30.0885 46.9092L30.4173 48.1408V48.1439Z" fill="white"/>
<path d="M33.9166 43.6237L34.0314 43.8347L33.9228 43.8936C33.7119 44.0084 33.7305 44.0395 33.8329 44.2318L35.021 46.4375L36.02 45.8977C36.1565 45.8263 36.1875 45.786 36.0913 45.603L35.9672 45.3703L36.2402 45.2214L36.6094 45.9039L34.5092 47.0362L34.3975 46.8284L34.4874 46.7818C34.686 46.6764 34.655 46.6205 34.5712 46.4592L33.4544 44.3869C33.383 44.2566 33.3489 44.2008 33.1535 44.3031L33.0635 44.3497L32.9487 44.1387L33.9197 43.6144L33.9166 43.6237Z" fill="white"/>
</svg>
