<svg width="52" height="52" viewBox="0 0 52 52" fill="none" xmlns="http://www.w3.org/2000/svg">
<path d="M25.9998 52C40.3592 52 51.9998 40.3594 51.9998 26C51.9998 11.6406 40.3592 0 25.9998 0C11.6404 0 -0.000244141 11.6406 -0.000244141 26C-0.000244141 40.3594 11.6404 52 25.9998 52Z" fill="#DB1F29"/>
<path d="M25.9996 44.1522C15.99 44.1522 7.84741 36.0095 7.84741 25.9999C7.84741 15.9903 15.99 7.84766 25.9996 7.84766C36.0092 7.84766 44.1519 15.9903 44.1519 25.9999C44.1519 36.0095 36.0092 44.1522 25.9996 44.1522ZM25.9996 8.35251C16.2699 8.35251 8.35227 16.2677 8.35227 25.9999C8.35227 35.7321 16.2699 43.6473 25.9996 43.6473C35.7293 43.6473 43.6471 35.7296 43.6471 25.9999C43.6471 16.2702 35.7293 8.35251 25.9996 8.35251Z" fill="white"/>
<path d="M25.9995 50.6203C22.6779 50.6203 19.4539 49.968 16.4148 48.6834C13.4831 47.4437 10.8489 45.6693 8.59203 43.4099C6.33269 41.1506 4.55817 38.5188 3.31853 35.5872C2.0339 32.548 1.38159 29.3215 1.38159 26.0024C1.38159 22.6834 2.0339 19.4568 3.31853 16.4177C4.55817 13.486 6.33269 10.8518 8.59203 8.59494C10.8514 6.33559 13.4831 4.56111 16.4148 3.32146C19.4539 2.03683 22.6804 1.38452 25.9995 1.38452C29.3185 1.38452 32.5451 2.03683 35.5842 3.32146C38.5159 4.56111 41.1501 6.33559 43.407 8.59494C45.6663 10.8543 47.4408 13.486 48.6804 16.4177C49.9651 19.4568 50.6174 22.6834 50.6174 26.0024C50.6174 29.3215 49.9651 32.548 48.6804 35.5872C47.4408 38.5188 45.6663 41.1531 43.407 43.4099C41.1476 45.6693 38.5159 47.4437 35.5842 48.6834C32.5451 49.968 29.3185 50.6203 25.9995 50.6203ZM25.9995 1.74692C22.7279 1.74692 19.5513 2.38923 16.5572 3.65637C13.668 4.87851 11.0763 6.62551 8.84947 8.84987C6.62511 11.0742 4.87561 13.6685 3.65596 16.5576C2.38883 19.5518 1.74648 22.7284 1.74648 25.9999C1.74648 29.2715 2.38883 32.4481 3.65596 35.4422C4.87811 38.3314 6.62511 40.9231 8.84947 43.15C11.0738 45.3743 13.668 47.1238 16.5572 48.3435C19.5513 49.6106 22.7279 50.2529 25.9995 50.2529C29.271 50.2529 32.4476 49.6106 35.4418 48.3435C38.3309 47.1213 40.9227 45.3743 43.1496 43.15C45.3739 40.9256 47.1234 38.3314 48.3431 35.4422C49.6102 32.4481 50.2525 29.2715 50.2525 25.9999C50.2525 22.7284 49.6102 19.5518 48.3431 16.5576C47.1209 13.6685 45.3739 11.0767 43.1496 8.84987C40.9252 6.62301 38.3309 4.87601 35.4418 3.65637C32.4476 2.38923 29.271 1.74692 25.9995 1.74692Z" fill="white"/>
<path d="M8.7871 13.7956C8.92456 13.8806 9.04201 13.9806 9.14198 14.0905C9.24195 14.2005 9.31691 14.3205 9.37189 14.4479C9.42438 14.5779 9.45439 14.7154 9.46189 14.8628C9.46689 15.0103 9.4469 15.1627 9.39941 15.3252C9.37192 15.4177 9.33444 15.5126 9.28445 15.6101C9.23447 15.7076 9.17694 15.8075 9.11196 15.915L8.77709 16.4474L6.42773 14.9678L6.76516 14.4304C6.83264 14.323 6.90013 14.228 6.96512 14.143C7.0301 14.058 7.10004 13.9831 7.17251 13.9181C7.29748 13.8056 7.42745 13.7206 7.55991 13.6607C7.69238 13.6007 7.82737 13.5682 7.96483 13.5607C8.10229 13.5532 8.23972 13.5682 8.37718 13.6107C8.51464 13.6532 8.65214 13.7156 8.7896 13.8006L8.7871 13.7956ZM8.6096 14.0805C8.38466 13.9381 8.16977 13.8731 7.96483 13.8831C7.76239 13.8931 7.57244 13.9756 7.39749 14.123C7.33001 14.1805 7.26502 14.2505 7.20254 14.333C7.14005 14.4154 7.07256 14.5129 7.00258 14.6229L6.86511 14.8428L8.6971 15.9975L8.83457 15.7776C8.90455 15.6676 8.96202 15.5651 9.00951 15.4726C9.05699 15.3802 9.09196 15.2902 9.11446 15.2052C9.17444 14.9828 9.16197 14.7753 9.07699 14.5829C8.99452 14.3905 8.83703 14.223 8.6096 14.0805Z" fill="white"/>
<path d="M11.1492 13.1061L9.06982 11.2666L9.2948 11.0142L11.3742 12.8536L11.1492 13.1061Z" fill="white"/>
<path d="M13.4286 9.42708L12.9388 9.82697L12.7463 9.58953L13.4986 8.97471L14.3484 10.0144C14.3359 10.0444 14.3134 10.0844 14.2784 10.1319C14.2459 10.1794 14.206 10.2318 14.1585 10.2868C14.111 10.3418 14.0585 10.3993 14.001 10.4593C13.9435 10.5168 13.881 10.5718 13.821 10.6242C13.6361 10.7742 13.4537 10.8817 13.2712 10.9466C13.0888 11.0116 12.9138 11.0366 12.7413 11.0216C12.5689 11.0066 12.4064 10.9541 12.249 10.8642C12.0915 10.7742 11.9466 10.6467 11.8141 10.4843C11.6717 10.3093 11.5667 10.1269 11.5042 9.93943C11.4417 9.75199 11.4192 9.56454 11.4392 9.37959C11.4592 9.19465 11.5192 9.0147 11.6167 8.83975C11.7166 8.6648 11.8541 8.50735 12.0291 8.36489C12.0766 8.3274 12.124 8.28991 12.174 8.25492C12.224 8.21993 12.274 8.18994 12.3215 8.15995C12.369 8.13245 12.4165 8.10746 12.4614 8.08747C12.5064 8.06747 12.5439 8.05248 12.5789 8.04248L12.7689 8.27241C12.6864 8.30241 12.5989 8.34489 12.5039 8.39988C12.4089 8.45236 12.3189 8.51484 12.2365 8.58232C12.114 8.6823 12.014 8.79476 11.9316 8.92473C11.8516 9.05219 11.7991 9.18715 11.7766 9.33211C11.7542 9.47707 11.7616 9.62452 11.8041 9.77948C11.8466 9.93444 11.9291 10.0869 12.054 10.2393C12.1765 10.3893 12.3015 10.4993 12.4314 10.5743C12.5614 10.6492 12.6939 10.6892 12.8288 10.6967C12.9638 10.7042 13.0987 10.6817 13.2362 10.6267C13.3736 10.5718 13.5086 10.4893 13.6411 10.3793C13.7036 10.3293 13.7611 10.2743 13.816 10.2194C13.871 10.1644 13.916 10.1119 13.9535 10.0619L13.4311 9.42208L13.4286 9.42708Z" fill="white"/>
<path d="M16.0404 9.03959L14.6533 6.63528L14.9457 6.46533L16.3328 8.86964L16.0404 9.03959Z" fill="white"/>
<path d="M19.0043 7.61483L18.6894 7.73729L17.7897 5.43546L16.9249 5.77286L16.8149 5.48794L18.8568 4.69067L18.9668 4.97559L18.1021 5.31299L19.0018 7.61483H19.0043Z" fill="white"/>
<path d="M20.9864 6.9353L21.5687 3.99615L21.8561 3.94116L23.4932 6.45044L23.1333 6.52042L22.6484 5.76314L21.5088 5.98307L21.3413 6.86782L20.9839 6.9378L20.9864 6.9353ZM21.7912 4.39353C21.7362 4.75593 21.6787 5.08583 21.6212 5.38575L21.5687 5.66317L22.471 5.48822L22.3185 5.25078C22.1511 4.99086 21.9786 4.70344 21.7987 4.39103H21.7912V4.39353Z" fill="white"/>
<path d="M25.4451 3.56616L25.4851 6.03795L26.8397 6.01546L26.8447 6.32037L25.1527 6.34786L25.1077 3.57366L25.4451 3.56866V3.56616Z" fill="white"/>
<path d="M30.251 6.7527L32.1079 4.40088L32.3879 4.48336L32.7028 7.465L32.3504 7.36252L32.2654 6.46778L31.1507 6.14538L30.6009 6.85517L30.2535 6.7552L30.251 6.7527ZM32.1279 4.85575C31.913 5.15316 31.7131 5.42058 31.5256 5.66301L31.3531 5.88545L32.2379 6.14038L32.2104 5.86046C32.1804 5.55305 32.1579 5.21814 32.1379 4.85825H32.1304L32.1279 4.85575Z" fill="white"/>
<path d="M35.4096 6.42522C35.3721 6.4977 35.3571 6.56518 35.3621 6.62766C35.3671 6.69014 35.3871 6.75012 35.4196 6.80511C35.4546 6.86259 35.4971 6.91508 35.5545 6.97006C35.6095 7.02255 35.6695 7.07753 35.732 7.13001C35.8145 7.20249 35.897 7.27747 35.9745 7.35245C36.0519 7.42743 36.1144 7.5099 36.1619 7.59738C36.2094 7.68485 36.2343 7.77983 36.2368 7.8823C36.2393 7.98477 36.2094 8.09973 36.1469 8.2247C36.0819 8.35216 35.9995 8.44963 35.9045 8.51961C35.807 8.58709 35.702 8.62958 35.5846 8.64458C35.4696 8.65957 35.3446 8.65208 35.2122 8.62208C35.0797 8.59209 34.9447 8.53961 34.8073 8.46963C34.7423 8.43714 34.6798 8.39965 34.6173 8.35716C34.5548 8.31467 34.4949 8.27218 34.4424 8.2272C34.3874 8.18221 34.3424 8.13972 34.2999 8.09724C34.2599 8.05475 34.23 8.01726 34.21 7.98477L34.3499 7.70985C34.3824 7.75483 34.4224 7.79982 34.4674 7.84731C34.5124 7.89479 34.5623 7.93978 34.6148 7.98227C34.6673 8.02476 34.7223 8.06724 34.7773 8.10473C34.8348 8.14222 34.8897 8.17471 34.9422 8.20221C35.0272 8.24719 35.1147 8.28218 35.1997 8.30718C35.2846 8.33217 35.3671 8.34216 35.4421 8.33967C35.5196 8.33467 35.5896 8.31217 35.6546 8.26969C35.7195 8.2272 35.7745 8.16222 35.822 8.07224C35.8595 7.99726 35.877 7.92978 35.8695 7.8673C35.862 7.80482 35.8445 7.74234 35.8095 7.68735C35.7745 7.62987 35.7295 7.57489 35.6745 7.5224C35.6195 7.46992 35.5595 7.41493 35.4946 7.35995C35.4096 7.28747 35.3296 7.21499 35.2521 7.14001C35.1747 7.06503 35.1122 6.98506 35.0647 6.89758C35.0172 6.81261 34.9922 6.71763 34.9897 6.61766C34.9847 6.51769 35.0147 6.40772 35.0772 6.28776C35.1422 6.16279 35.2196 6.06532 35.3121 6.00034C35.4046 5.93536 35.5046 5.89037 35.6145 5.87288C35.7245 5.85288 35.837 5.85788 35.952 5.88038C36.0694 5.90537 36.1844 5.94536 36.2993 6.00534C36.4318 6.07282 36.5468 6.1478 36.6493 6.23277C36.7492 6.31525 36.8367 6.40272 36.9117 6.4927L36.7692 6.77262C36.6892 6.67765 36.6018 6.58767 36.5068 6.50519C36.4118 6.42272 36.3018 6.34774 36.1794 6.28276C36.0869 6.23527 35.9994 6.20278 35.9194 6.18779C35.8395 6.17279 35.767 6.17279 35.702 6.18779C35.637 6.20278 35.5796 6.23027 35.5296 6.27276C35.4796 6.31525 35.4371 6.36773 35.4046 6.43272L35.4096 6.42522Z" fill="white"/>
<path d="M38.7937 8.45235C38.7437 8.51733 38.7163 8.57982 38.7088 8.6423C38.7013 8.70478 38.7087 8.76726 38.7337 8.82724C38.7562 8.88973 38.7912 8.94971 38.8362 9.01469C38.8812 9.07717 38.9287 9.13965 38.9812 9.20464C39.0511 9.29211 39.1161 9.37958 39.1786 9.46706C39.2411 9.55703 39.2886 9.64701 39.3186 9.74198C39.3486 9.83695 39.3561 9.93442 39.3411 10.0369C39.3261 10.1394 39.2761 10.2468 39.1886 10.3568C39.1011 10.4718 39.0037 10.5517 38.8962 10.6017C38.7887 10.6517 38.6763 10.6742 38.5613 10.6667C38.4438 10.6617 38.3239 10.6317 38.1989 10.5767C38.0739 10.5218 37.9515 10.4468 37.8265 10.3518C37.769 10.3068 37.7141 10.2593 37.6591 10.2068C37.6041 10.1544 37.5541 10.0994 37.5091 10.0469C37.4641 9.99441 37.4266 9.94192 37.3941 9.89194C37.3617 9.84195 37.3392 9.80196 37.3267 9.76697L37.5141 9.52204C37.5391 9.57203 37.5691 9.62451 37.6065 9.6795C37.644 9.73448 37.684 9.78697 37.7265 9.83945C37.7715 9.89194 37.8165 9.94192 37.864 9.98941C37.9115 10.0369 37.9615 10.0794 38.009 10.1144C38.0864 10.1744 38.1639 10.2243 38.2439 10.2643C38.3239 10.3043 38.4013 10.3293 38.4788 10.3393C38.5538 10.3493 38.6288 10.3393 38.7013 10.3093C38.7737 10.2793 38.8387 10.2243 38.9012 10.1444C38.9512 10.0794 38.9812 10.0144 38.9862 9.94942C38.9912 9.88444 38.9837 9.82196 38.9612 9.75947C38.9387 9.69699 38.9037 9.63451 38.8587 9.57203C38.8137 9.50955 38.7638 9.44457 38.7113 9.37958C38.6413 9.29461 38.5738 9.20713 38.5113 9.11966C38.4488 9.03218 38.4013 8.94221 38.3713 8.84974C38.3413 8.75726 38.3339 8.65979 38.3464 8.56232C38.3589 8.46485 38.4088 8.35988 38.4913 8.25241C38.5763 8.13994 38.6713 8.05996 38.7738 8.00998C38.8762 7.95999 38.9837 7.9375 39.0937 7.9375C39.2036 7.9375 39.3136 7.96249 39.4235 8.00748C39.5335 8.05247 39.641 8.11495 39.7434 8.19493C39.8609 8.2849 39.9609 8.37987 40.0458 8.47984C40.1308 8.57981 40.2008 8.68229 40.2558 8.78226L40.0659 9.02969C40.0034 8.92222 39.9334 8.81725 39.8559 8.71977C39.7784 8.6223 39.6835 8.52983 39.5735 8.44235C39.491 8.37737 39.4111 8.33239 39.3361 8.3024C39.2611 8.2724 39.1911 8.25991 39.1236 8.26241C39.0561 8.26241 38.9962 8.2824 38.9387 8.31489C38.8812 8.34738 38.8312 8.39237 38.7863 8.44985L38.7937 8.45235Z" fill="white"/>
<path d="M40.511 12.2711L41.4633 13.3283L41.2358 13.5333L40.0562 12.2262L42.1181 10.3667L43.2452 11.6163L43.0178 11.8213L42.1156 10.8216L41.4508 11.4214L42.253 12.3111L42.0256 12.5161L41.2234 11.6263L40.506 12.2736L40.511 12.2711Z" fill="white"/>
<path d="M42.845 15.8452L42.6675 15.5578L44.7719 14.2632L44.2846 13.4734L44.5444 13.3135L45.6941 15.1804L45.4342 15.3404L44.9469 14.5506L42.8425 15.8452H42.845Z" fill="white"/>
<path d="M19.0095 47.0983L17.9073 46.6809L17.3375 47.3182L16.7651 47.1008L19.037 44.614L19.5269 44.799L19.5793 48.168L19.012 47.9531L19.007 47.0983H19.0095ZM19.0145 45.4088C18.797 45.6762 18.6071 45.8986 18.4496 46.0736L18.2522 46.296L19.0095 46.5834V46.286C19.0095 46.0486 19.012 45.7587 19.0245 45.4138H19.0145V45.4088Z" fill="white"/>
<path d="M22.0211 48.7229L22.3609 45.6113L23.1832 45.7013C23.2557 45.7088 23.3307 45.7188 23.4057 45.7313C23.4806 45.7438 23.5531 45.7588 23.6231 45.7763C23.6931 45.7938 23.7605 45.8113 23.8255 45.8338C23.8905 45.8538 23.9505 45.8763 24.003 45.9012C24.1629 45.9712 24.3029 46.0587 24.4178 46.1637C24.5353 46.2686 24.6303 46.3861 24.7028 46.5186C24.7753 46.651 24.8253 46.7935 24.8528 46.9509C24.8803 47.1059 24.8852 47.2733 24.8652 47.4508C24.8477 47.6182 24.8102 47.7732 24.7578 47.9157C24.7053 48.0581 24.6328 48.1856 24.5453 48.2981C24.4553 48.4105 24.3479 48.508 24.2229 48.5855C24.098 48.6629 23.953 48.7254 23.7881 48.7679C23.6506 48.8029 23.4981 48.8229 23.3282 48.8304C23.1582 48.8379 22.9683 48.8304 22.7583 48.8054L22.0186 48.7254L22.0211 48.7229ZM22.8783 48.333C23.2107 48.3705 23.4781 48.353 23.6755 48.2806C23.8505 48.2156 23.988 48.1106 24.0905 47.9632C24.1929 47.8157 24.2579 47.6207 24.2854 47.3758C24.2979 47.2484 24.2979 47.1334 24.2804 47.0259C24.2629 46.921 24.2329 46.826 24.1904 46.7385C24.1454 46.6535 24.0905 46.5786 24.0205 46.5111C23.9505 46.4436 23.8705 46.3886 23.7806 46.3411C23.6956 46.2961 23.6006 46.2611 23.4931 46.2337C23.3856 46.2062 23.2657 46.1862 23.1307 46.1712L22.8808 46.1437L22.6434 48.3031L22.8783 48.328V48.333Z" fill="white"/>
<path d="M29.2891 46.3609C29.3066 46.4958 29.2941 46.6233 29.2491 46.7432C29.2041 46.8632 29.1166 46.9707 28.9892 47.0632V47.0732C29.0716 47.0882 29.1466 47.1131 29.2166 47.1456C29.2866 47.1781 29.3491 47.2181 29.4016 47.2681C29.4541 47.3181 29.499 47.3781 29.534 47.4455C29.569 47.513 29.594 47.5905 29.604 47.678C29.614 47.753 29.614 47.8354 29.6015 47.9254C29.589 48.0154 29.559 48.1054 29.509 48.1953C29.459 48.2853 29.389 48.3703 29.2991 48.4528C29.2091 48.5352 29.0891 48.6052 28.9417 48.6677C28.9042 48.6827 28.8642 48.6977 28.8192 48.7102C28.7742 48.7252 28.7242 48.7377 28.6692 48.7502C28.6143 48.7627 28.5518 48.7752 28.4843 48.7877C28.4168 48.8002 28.3394 48.8102 28.2544 48.8227L27.3522 48.9451L26.9272 45.8435L28.0044 45.6961C28.2344 45.6636 28.4243 45.6636 28.5693 45.6886C28.6793 45.7085 28.7767 45.741 28.8617 45.7835C28.9467 45.8285 29.0192 45.881 29.0792 45.941C29.1391 46.001 29.1841 46.0684 29.2191 46.1384C29.2541 46.2109 29.2766 46.2834 29.2866 46.3584L29.2891 46.3609ZM28.1844 46.9732C28.3393 46.9532 28.4518 46.9207 28.5243 46.8807C28.6043 46.8332 28.6593 46.7757 28.6867 46.7083C28.7142 46.6408 28.7243 46.5683 28.7118 46.4883C28.7018 46.4058 28.6692 46.3359 28.6193 46.2784C28.5693 46.2209 28.4918 46.1809 28.3868 46.1659C28.3444 46.1584 28.2943 46.1559 28.2369 46.1584C28.1794 46.1584 28.1119 46.1684 28.0295 46.1784L27.5621 46.2409L27.672 47.0432L28.1844 46.9732ZM27.737 47.518L27.857 48.3928L28.2269 48.3428C28.3269 48.3303 28.4093 48.3153 28.4818 48.3003C28.5518 48.2853 28.6118 48.2678 28.6618 48.2478C28.7393 48.2203 28.8018 48.1878 28.8492 48.1528C28.8967 48.1179 28.9367 48.0779 28.9642 48.0379C28.9917 47.9979 29.0092 47.9529 29.0167 47.9079C29.0242 47.8629 29.0242 47.8129 29.0167 47.7655C29.0042 47.678 28.9717 47.6055 28.9142 47.548C28.8567 47.4905 28.7767 47.4505 28.6692 47.433C28.6217 47.4256 28.5693 47.4231 28.5068 47.4256C28.4468 47.4256 28.3694 47.4356 28.2744 47.448L27.737 47.5205V47.518Z" fill="white"/>
<path d="M32.6005 47.2833L34.0375 46.7284L34.21 47.1758L32.2405 47.9381L31.1108 45.0189L33.0028 44.2866L33.1752 44.734L31.8182 45.2588L32.1106 46.0136L33.2753 45.5613L33.4477 46.0086L32.283 46.461L32.6005 47.2833Z" fill="white"/>
<path d="M11.7816 40.7153C11.7441 40.6778 11.7041 40.6503 11.6666 40.6303C11.6291 40.6103 11.5891 40.5978 11.5516 40.5928C11.5141 40.5878 11.4767 40.5903 11.4392 40.5978C11.4017 40.6053 11.3667 40.6203 11.3317 40.6403C11.3092 40.6528 11.2867 40.6678 11.2642 40.6878C11.2417 40.7078 11.2192 40.7278 11.2017 40.7478L10.5669 41.4026L10.4395 41.2776L11.0718 40.6253C11.0968 40.6003 11.1218 40.5753 11.1518 40.5528C11.1793 40.5279 11.2092 40.5079 11.2367 40.4904C11.2842 40.4604 11.3342 40.4404 11.3867 40.4254C11.4392 40.4129 11.4916 40.4079 11.5491 40.4154C11.6041 40.4229 11.6616 40.4404 11.7191 40.4704C11.7766 40.5004 11.8366 40.5454 11.8966 40.6028C11.954 40.6578 11.999 40.7153 12.0315 40.7703C12.064 40.8253 12.084 40.8803 12.094 40.9327C12.104 40.9852 12.104 41.0377 12.094 41.0877C12.084 41.1377 12.0665 41.1852 12.044 41.2327C12.0265 41.2676 12.004 41.3001 11.979 41.3326C11.9541 41.3651 11.9265 41.3976 11.8991 41.4251L11.2667 42.0774L11.1393 41.9524L11.7741 41.2976C11.7966 41.2751 11.8191 41.2476 11.8391 41.2202C11.8591 41.1927 11.8766 41.1652 11.889 41.1377C11.919 41.0677 11.9291 40.9977 11.9141 40.9277C11.8991 40.8578 11.8566 40.7878 11.7866 40.7178L11.7816 40.7153Z" fill="white"/>
<path d="M9.82718 40.0255C9.85968 39.998 9.88217 39.968 9.89217 39.9356C9.90217 39.9031 9.90467 39.8706 9.89967 39.8356C9.89467 39.8006 9.88465 39.7656 9.86715 39.7281C9.85216 39.6906 9.83217 39.6531 9.81468 39.6132C9.78968 39.5607 9.76468 39.5082 9.74219 39.4557C9.71969 39.4032 9.70722 39.3507 9.70222 39.2982C9.69722 39.2458 9.70224 39.1933 9.72474 39.1433C9.74473 39.0933 9.78221 39.0433 9.83969 38.9958C9.89718 38.9458 9.95715 38.9159 10.0196 38.9034C10.0796 38.8909 10.1421 38.8909 10.1996 38.9084C10.2596 38.9258 10.3195 38.9533 10.377 38.9958C10.4345 39.0383 10.4895 39.0908 10.5445 39.1533C10.5695 39.1833 10.5919 39.2133 10.6144 39.2483C10.6369 39.2832 10.6569 39.3157 10.6719 39.3482C10.6869 39.3807 10.7019 39.4132 10.7144 39.4407C10.7269 39.4682 10.7319 39.4932 10.7344 39.5132L10.6094 39.6182C10.6019 39.5882 10.592 39.5582 10.5795 39.5257C10.567 39.4932 10.552 39.4607 10.5345 39.4282C10.517 39.3957 10.4995 39.3657 10.4795 39.3357C10.4595 39.3057 10.4395 39.2782 10.4195 39.2533C10.3871 39.2133 10.352 39.1783 10.3145 39.1483C10.277 39.1183 10.2396 39.0958 10.2021 39.0833C10.1646 39.0683 10.1246 39.0658 10.0846 39.0733C10.0446 39.0808 10.0046 39.1008 9.96216 39.1358C9.92966 39.1633 9.90717 39.1933 9.89717 39.2258C9.88717 39.2583 9.88467 39.2907 9.88967 39.3257C9.89467 39.3607 9.90463 39.3982 9.92213 39.4357C9.93962 39.4732 9.95717 39.5107 9.97717 39.5507C10.0047 39.6032 10.0271 39.6556 10.0496 39.7081C10.0721 39.7606 10.0846 39.8131 10.0896 39.8631C10.0946 39.9156 10.0896 39.9656 10.0696 40.0155C10.0496 40.0655 10.0146 40.113 9.95965 40.158C9.90217 40.2055 9.8447 40.238 9.78472 40.2505C9.72723 40.263 9.6672 40.2655 9.61222 40.2505C9.55474 40.238 9.50228 40.213 9.44979 40.178C9.39731 40.143 9.3498 40.098 9.30481 40.0455C9.25483 39.9855 9.21234 39.9256 9.18235 39.8631C9.15236 39.8006 9.12492 39.7406 9.10742 39.6831L9.23483 39.5757C9.25482 39.6381 9.27732 39.7006 9.30732 39.7606C9.33731 39.8206 9.37479 39.8781 9.42227 39.9356C9.45726 39.978 9.4948 40.0105 9.52979 40.0355C9.56478 40.0605 9.59975 40.0755 9.63474 40.0805C9.66973 40.088 9.70219 40.0855 9.73468 40.0755C9.76717 40.0655 9.7997 40.048 9.82969 40.023L9.82718 40.0255Z" fill="white"/>
<path d="M7.55768 37.5789L8.67735 36.9041L8.30746 36.2893L8.44493 36.2068L8.90732 36.9741L7.64768 37.7313L7.55518 37.5789H7.55768Z" fill="white"/>
<path d="M8.05525 35.4942L6.47075 35.5792L6.40576 35.4392L7.47796 34.2695L7.5604 34.4445L7.23548 34.7919L7.49791 35.3467L7.97281 35.3167L8.05525 35.4917V35.4942ZM6.64568 35.4142C6.83813 35.3942 7.01554 35.3817 7.1755 35.3717L7.32298 35.3617L7.11552 34.9218L7.01307 35.0318C6.9006 35.1518 6.77814 35.2767 6.64068 35.4117V35.4167L6.64568 35.4142Z" fill="white"/>
<path d="M6.51024 33.4599L7.08509 33.26L7.14507 33.4299L5.75795 33.9148L5.63299 33.5549C5.613 33.4949 5.59552 33.4424 5.58552 33.3974C5.57552 33.3524 5.568 33.3125 5.56551 33.2725C5.55801 33.1675 5.578 33.0775 5.62298 33.005C5.66797 32.9326 5.73797 32.8776 5.83295 32.8451C5.88793 32.8251 5.94289 32.8176 5.99287 32.8201C6.04286 32.8201 6.09036 32.8351 6.13535 32.8551C6.18033 32.8751 6.22032 32.9051 6.25531 32.9451C6.2903 32.9851 6.32532 33.0275 6.35281 33.08H6.35782L6.80764 32.4602L6.86762 32.6302L6.44275 33.2575L6.51524 33.4624L6.51024 33.4599ZM5.85046 33.6898L6.35782 33.5124L6.30028 33.3449C6.28278 33.2925 6.2653 33.25 6.2478 33.215C6.23281 33.18 6.21282 33.15 6.19533 33.1225C6.15784 33.07 6.11284 33.035 6.06286 33.0175C6.01287 33 5.95541 33.0025 5.89293 33.0225C5.83294 33.045 5.79045 33.075 5.76546 33.1175C5.74047 33.16 5.728 33.21 5.7305 33.2675C5.7305 33.295 5.73545 33.3275 5.74545 33.3624C5.75294 33.3974 5.76798 33.4424 5.78547 33.4949L5.85296 33.6873L5.85046 33.6898Z" fill="white"/>
<path d="M5.73298 30.7031L5.80791 31.0305L5.65048 31.068L5.53553 30.5682L6.22783 30.4082C6.24033 30.4207 6.2528 30.4407 6.2678 30.4682C6.28279 30.4957 6.29777 30.5257 6.31277 30.5632C6.32776 30.5981 6.3428 30.6381 6.3578 30.6781C6.37279 30.7206 6.38276 30.7606 6.39276 30.8031C6.42025 30.9256 6.43028 31.038 6.41778 31.1405C6.40528 31.243 6.37777 31.3304 6.33028 31.4104C6.28279 31.4879 6.22031 31.5529 6.14033 31.6079C6.06036 31.6603 5.96541 31.7003 5.85794 31.7253C5.74048 31.7528 5.63049 31.7578 5.52552 31.7453C5.42055 31.7328 5.32805 31.6978 5.24557 31.6453C5.16309 31.5929 5.09065 31.5229 5.03067 31.4354C4.97068 31.3479 4.92819 31.2455 4.9007 31.128C4.8932 31.098 4.88819 31.0655 4.88319 31.033C4.87819 31.0005 4.87568 30.9705 4.87318 30.9406C4.87318 30.9106 4.87068 30.8831 4.87318 30.8581C4.87318 30.8331 4.87569 30.8106 4.87818 30.7931L5.03317 30.7581C5.02817 30.8031 5.02817 30.8556 5.03317 30.9131C5.03567 30.9705 5.04313 31.028 5.05813 31.083C5.07812 31.1655 5.10814 31.238 5.14813 31.3079C5.18811 31.3779 5.24307 31.4329 5.30555 31.4779C5.36803 31.5229 5.44054 31.5529 5.52552 31.5704C5.6105 31.5879 5.70043 31.5829 5.80291 31.5604C5.90288 31.5379 5.98535 31.5029 6.05033 31.4579C6.11531 31.4129 6.16533 31.3604 6.20281 31.2979C6.2378 31.2355 6.2578 31.1655 6.2653 31.088C6.27029 31.0105 6.26527 30.9256 6.24278 30.8381C6.23278 30.7956 6.22281 30.7556 6.20782 30.7181C6.19532 30.6781 6.18035 30.6456 6.16535 30.6156L5.74042 30.7131L5.73298 30.7031Z" fill="white"/>
<path d="M5.91543 29.206L5.82293 28.4587L5.98292 28.4387L6.09787 29.3635L4.63827 29.5434L4.52832 28.6587L4.68825 28.6387L4.77575 29.346L5.24558 29.2885L5.16815 28.6587L5.32808 28.6387L5.40557 29.2685L5.91293 29.206H5.91543Z" fill="white"/>
<path d="M4.57383 25.6297C4.57383 25.7122 4.58135 25.7896 4.60635 25.8621C4.63134 25.9346 4.66632 25.9971 4.7163 26.0521C4.76629 26.107 4.82877 26.1495 4.90375 26.182C4.97873 26.2145 5.06871 26.232 5.16869 26.2345C5.26866 26.237 5.35858 26.227 5.43356 26.1995C5.50854 26.1745 5.57102 26.1345 5.62101 26.0845C5.67099 26.0346 5.70847 25.9721 5.73597 25.8996C5.76096 25.8271 5.776 25.7471 5.77849 25.6572C5.77849 25.6322 5.77849 25.6072 5.77849 25.5797C5.77849 25.5522 5.77349 25.5247 5.77099 25.4972C5.76599 25.4697 5.76348 25.4422 5.75598 25.4147C5.75098 25.3872 5.74347 25.3648 5.73847 25.3448L5.89595 25.3498C5.91095 25.3922 5.92342 25.4447 5.93092 25.5022C5.93841 25.5597 5.94092 25.6172 5.93842 25.6772C5.93592 25.7996 5.91343 25.9071 5.87844 25.9996C5.84095 26.092 5.791 26.172 5.72602 26.232C5.66104 26.2945 5.58101 26.3395 5.48854 26.3695C5.39607 26.3995 5.2911 26.412 5.17613 26.4095C5.06116 26.407 4.95619 26.387 4.86372 26.347C4.76875 26.3095 4.68878 26.257 4.6213 26.1895C4.55382 26.122 4.50386 26.0421 4.46637 25.9471C4.42888 25.8521 4.4139 25.7471 4.4189 25.6322C4.4189 25.6022 4.42135 25.5722 4.42635 25.5422C4.43134 25.5122 4.43386 25.4847 4.43885 25.4572C4.44385 25.4297 4.45137 25.4047 4.45887 25.3822C4.46637 25.3598 4.47389 25.3398 4.48138 25.3223L4.63881 25.3273C4.62381 25.3723 4.60884 25.4197 4.59884 25.4722C4.58885 25.5247 4.58133 25.5772 4.57883 25.6297H4.57383Z" fill="white"/>
<path d="M5.98062 24.5176L4.60352 23.7278L4.62347 23.5754L6.16056 23.178L6.13554 23.3704L5.67315 23.4854L5.59072 24.0952L6.00558 24.3276L5.98062 24.5176ZM4.84093 23.6853C5.01339 23.7753 5.17081 23.8603 5.31077 23.9378L5.44074 24.0102L5.50572 23.5279L5.36074 23.5654C5.20079 23.6054 5.02838 23.6428 4.84093 23.6803V23.6853Z" fill="white"/>
<path d="M6.38288 22.1107L6.34041 22.2857L4.91333 21.9383L5.00827 21.5434C5.02327 21.4834 5.03825 21.4309 5.05825 21.3834C5.07824 21.3359 5.10074 21.2909 5.12573 21.2535C5.17822 21.176 5.2382 21.121 5.31068 21.0935C5.38316 21.066 5.46312 21.061 5.5506 21.081C5.62308 21.0985 5.68311 21.1285 5.7306 21.171C5.77809 21.2135 5.81556 21.266 5.83805 21.3309C5.86054 21.3959 5.87301 21.4684 5.87301 21.5509C5.87301 21.6334 5.86054 21.7258 5.83555 21.8258C5.82305 21.8733 5.81058 21.9233 5.79308 21.9733L6.38037 22.1157L6.38288 22.1107ZM5.6381 21.9283C5.64559 21.9058 5.65562 21.8808 5.66311 21.8558C5.67061 21.8308 5.67807 21.8058 5.68307 21.7833C5.70306 21.7008 5.71309 21.6309 5.71559 21.5684C5.71559 21.5084 5.71057 21.4559 5.69307 21.4134C5.67558 21.3709 5.65308 21.3384 5.62309 21.3134C5.59309 21.2884 5.55312 21.271 5.50813 21.261C5.45314 21.2485 5.40314 21.251 5.36065 21.2685C5.31816 21.2859 5.28319 21.3184 5.2532 21.3634C5.2332 21.3909 5.21822 21.4234 5.20322 21.4634C5.18823 21.5034 5.17575 21.5484 5.16326 21.6009L5.11322 21.8033L5.6381 21.9308V21.9283Z" fill="white"/>
<path d="M13.4788 43.2496L14.0186 43.6745L13.3313 43.6445L13.0964 44.2893L12.9114 43.627L12.2241 43.5995L12.7964 43.2196L12.609 42.5598L13.1488 42.9872L13.7187 42.6048L13.4788 43.2496Z" fill="white"/>
<path d="M6.45054 17.8871L7.41279 17.8396L6.658 18.4394L7.00037 19.3392L6.19561 18.8093L5.44583 19.4117L5.70326 18.4844L4.896 17.9571L5.85824 17.9146L6.11061 16.9849L6.45054 17.8871Z" fill="white"/>
<path d="M39.0012 43.2496L38.4614 43.6745L39.1487 43.6445L39.3861 44.2893L39.5686 43.627L40.2559 43.5995L39.6835 43.2196L39.871 42.5598L39.3337 42.9872L38.7613 42.6048L39.0012 43.2496Z" fill="white"/>
<path d="M46.0316 17.8871L45.0693 17.8396L45.8216 18.4394L45.4792 19.3392L46.284 18.8093L47.0338 19.4117L46.7789 18.4844L47.5836 17.9571L46.6214 17.9146L46.3689 16.9849L46.0316 17.8871Z" fill="white"/>
<path d="M45.9592 22.2155C45.9717 22.268 45.9867 22.313 46.0091 22.3505C46.0316 22.388 46.0541 22.4205 46.0841 22.4455C46.1141 22.4705 46.1441 22.4905 46.1816 22.503C46.2166 22.5155 46.254 22.523 46.2965 22.5255C46.3215 22.5255 46.349 22.5255 46.379 22.5255C46.409 22.523 46.4365 22.518 46.464 22.5105L47.3537 22.313L47.3913 22.488L46.5065 22.6829C46.474 22.6904 46.4365 22.6954 46.399 22.7004C46.3616 22.7054 46.3265 22.7079 46.294 22.7054C46.2391 22.7054 46.1841 22.6929 46.1341 22.6754C46.0841 22.6579 46.0366 22.6304 45.9941 22.5954C45.9516 22.5605 45.9142 22.513 45.8817 22.4555C45.8492 22.398 45.8242 22.328 45.8067 22.248C45.7892 22.1681 45.7817 22.0981 45.7867 22.0356C45.7917 21.9731 45.8042 21.9156 45.8242 21.8681C45.8442 21.8182 45.8742 21.7757 45.9092 21.7407C45.9442 21.7032 45.9867 21.6732 46.0317 21.6482C46.0642 21.6307 46.1016 21.6132 46.1416 21.6007C46.1816 21.5882 46.2216 21.5757 46.2591 21.5682L47.1438 21.3733L47.1813 21.5482L46.2915 21.7457C46.259 21.7532 46.2266 21.7632 46.1941 21.7757C46.1616 21.7882 46.1316 21.8032 46.1066 21.8182C46.0416 21.8582 45.9967 21.9131 45.9692 21.9781C45.9417 22.0456 45.9392 22.1256 45.9592 22.223V22.2155Z" fill="white"/>
<path d="M47.2086 23.8702C47.1661 23.8752 47.1311 23.8877 47.1061 23.9077C47.0811 23.9277 47.0586 23.9551 47.0436 23.9851C47.0286 24.0151 47.0187 24.0526 47.0112 24.0926C47.0037 24.1326 46.9986 24.1751 46.9911 24.2176C46.9837 24.2751 46.9737 24.3325 46.9637 24.39C46.9537 24.4475 46.9361 24.4975 46.9112 24.545C46.8862 24.5925 46.8512 24.63 46.8087 24.6624C46.7662 24.6949 46.7062 24.7149 46.6313 24.7224C46.5563 24.7324 46.4888 24.7224 46.4313 24.7024C46.3738 24.6799 46.3239 24.6449 46.2839 24.6C46.2439 24.5525 46.2089 24.495 46.1839 24.43C46.1589 24.3625 46.1414 24.2876 46.1339 24.2051C46.1289 24.1676 46.1264 24.1276 46.1289 24.0876C46.1289 24.0476 46.1289 24.0076 46.1364 23.9726C46.1414 23.9352 46.1464 23.9027 46.1539 23.8727C46.1614 23.8427 46.1689 23.8177 46.1764 23.8002L46.3389 23.7827C46.3289 23.8102 46.3189 23.8402 46.3139 23.8752C46.3089 23.9102 46.3013 23.9452 46.2963 23.9801C46.2913 24.0151 46.2913 24.0526 46.2913 24.0876C46.2913 24.1226 46.2913 24.1576 46.2963 24.1876C46.3013 24.2376 46.3114 24.2876 46.3264 24.3325C46.3414 24.3775 46.3588 24.4175 46.3838 24.45C46.4088 24.4825 46.4388 24.5075 46.4763 24.5225C46.5138 24.5375 46.5588 24.545 46.6113 24.5375C46.6537 24.5325 46.6913 24.52 46.7163 24.4975C46.7413 24.475 46.7638 24.45 46.7787 24.4175C46.7937 24.385 46.8062 24.35 46.8112 24.31C46.8187 24.2701 46.8237 24.2276 46.8312 24.1826C46.8387 24.1251 46.8462 24.0676 46.8562 24.0101C46.8662 23.9551 46.8837 23.9027 46.9087 23.8577C46.9337 23.8127 46.9662 23.7727 47.0087 23.7427C47.0511 23.7127 47.1086 23.6927 47.1811 23.6852C47.2561 23.6777 47.3211 23.6852 47.376 23.7052C47.4335 23.7252 47.481 23.7577 47.521 23.8002C47.561 23.8427 47.5935 23.8927 47.616 23.9526C47.6385 24.0101 47.6559 24.0751 47.6634 24.1426C47.6734 24.2201 47.6734 24.2951 47.6634 24.3625C47.6534 24.43 47.6435 24.495 47.626 24.555L47.461 24.5725C47.481 24.51 47.4935 24.445 47.5035 24.3775C47.5135 24.3125 47.5135 24.2426 47.5035 24.1676C47.496 24.1126 47.486 24.0651 47.4685 24.0251C47.4511 23.9851 47.4311 23.9526 47.4061 23.9302C47.3811 23.9077 47.3511 23.8877 47.3186 23.8802C47.2861 23.8702 47.2486 23.8677 47.2111 23.8727L47.2086 23.8702Z" fill="white"/>
<path d="M47.751 27.1642L46.4439 27.1117L46.4139 27.829L46.2515 27.8215L46.2889 26.9268L47.7585 26.9867L47.751 27.1642Z" fill="white"/>
<path d="M46.189 28.6263L47.5586 29.426L47.5361 29.5785L45.9966 29.9634L46.0241 29.7709L46.4864 29.6585L46.5739 29.0512L46.1615 28.8137L46.189 28.6238V28.6263ZM47.3237 29.4685C47.1513 29.3786 46.9963 29.2936 46.8563 29.2111L46.7264 29.1361L46.6564 29.6185L46.8013 29.5835C46.9613 29.546 47.1338 29.5085 47.3212 29.471V29.466L47.3237 29.4685Z" fill="white"/>
<path d="M46.3588 31.1832L45.769 31.0333L45.8115 30.8608L47.236 31.2207L47.1436 31.5906C47.1286 31.6531 47.1111 31.7056 47.0961 31.7481C47.0811 31.7906 47.0636 31.8281 47.0436 31.863C46.9911 31.9555 46.9261 32.0205 46.8486 32.0555C46.7711 32.0905 46.6837 32.098 46.5863 32.073C46.5288 32.058 46.4788 32.0355 46.4388 32.0055C46.3988 31.9755 46.3663 31.9405 46.3413 31.898C46.3163 31.8556 46.2988 31.8106 46.2888 31.7581C46.2788 31.7056 46.2763 31.6506 46.2813 31.5906H46.2763L45.5615 31.8581L45.604 31.6856L46.3038 31.3957L46.3563 31.1857L46.3588 31.1832ZM47.0361 31.3532L46.5138 31.2207L46.4713 31.3932C46.4588 31.4457 46.4488 31.4932 46.4413 31.5306C46.4363 31.5681 46.4338 31.6056 46.4338 31.6356C46.4363 31.7006 46.4538 31.7556 46.4862 31.7981C46.5187 31.8406 46.5662 31.8705 46.6312 31.888C46.6937 31.903 46.7462 31.9005 46.7911 31.878C46.8361 31.8556 46.8737 31.8206 46.9037 31.7706C46.9187 31.7481 46.9311 31.7181 46.9436 31.6831C46.9561 31.6481 46.9686 31.6031 46.9836 31.5481L47.0336 31.3507L47.0361 31.3532Z" fill="white"/>
<path d="M45.4918 33.9098L45.6093 33.5949L45.7618 33.6499L45.5843 34.1322L44.917 33.8848C44.917 33.8673 44.917 33.8423 44.917 33.8123C44.917 33.7823 44.9245 33.7473 44.9295 33.7098C44.9345 33.6723 44.9445 33.6324 44.9545 33.5899C44.9645 33.5474 44.977 33.5074 44.992 33.4674C45.0345 33.3499 45.0895 33.25 45.157 33.1725C45.222 33.095 45.2969 33.035 45.3769 32.995C45.4594 32.9551 45.5468 32.9351 45.6443 32.9351C45.7393 32.9351 45.8393 32.9526 45.9442 32.9925C46.0567 33.035 46.1516 33.09 46.2316 33.1575C46.3116 33.2275 46.3716 33.305 46.4116 33.3949C46.4515 33.4849 46.474 33.5824 46.474 33.6898C46.474 33.7948 46.454 33.9048 46.4141 34.0172C46.4041 34.0472 46.3916 34.0772 46.3766 34.1072C46.3641 34.1372 46.3491 34.1647 46.3341 34.1897C46.3191 34.2147 46.3041 34.2397 46.2891 34.2597C46.2741 34.2797 46.2616 34.2972 46.2466 34.3122L46.0991 34.2572C46.1291 34.2222 46.1567 34.1772 46.1866 34.1272C46.2166 34.0772 46.2391 34.0247 46.2591 33.9723C46.2891 33.8948 46.3041 33.8148 46.3066 33.7348C46.3066 33.6549 46.2966 33.5799 46.2691 33.5074C46.2416 33.4349 46.1967 33.3699 46.1367 33.31C46.0767 33.25 45.9967 33.2025 45.8993 33.1675C45.8043 33.1325 45.7168 33.115 45.6368 33.115C45.5568 33.115 45.4868 33.1325 45.4219 33.165C45.3594 33.1975 45.3019 33.245 45.2544 33.305C45.2069 33.3674 45.1669 33.4399 45.1345 33.5274C45.1195 33.5674 45.107 33.6074 45.097 33.6474C45.087 33.6873 45.0795 33.7248 45.077 33.7573L45.4868 33.9098H45.4918Z" fill="white"/>
<path d="M44.5145 35.062L44.1796 35.7368L44.0347 35.6643L44.4495 34.8296L45.7667 35.4819L45.3717 36.2817L45.2268 36.2092L45.5442 35.5719L45.1193 35.3619L44.8369 35.9293L44.6919 35.8568L44.9743 35.2895L44.517 35.062H44.5145Z" fill="white"/>
<path d="M43.6649 38.7859C43.7123 38.7184 43.7474 38.6484 43.7674 38.5734C43.7874 38.5009 43.7924 38.426 43.7799 38.3535C43.7674 38.281 43.7399 38.211 43.6949 38.141C43.6499 38.0711 43.5849 38.0086 43.5024 37.9486C43.42 37.8911 43.34 37.8511 43.2625 37.8311C43.185 37.8111 43.1125 37.8086 43.0425 37.8236C42.9726 37.8386 42.9076 37.8686 42.8451 37.9136C42.7827 37.9586 42.7276 38.0186 42.6752 38.0936C42.6602 38.1136 42.6477 38.136 42.6327 38.1585C42.6177 38.1835 42.6052 38.2085 42.5927 38.2335C42.5802 38.2585 42.5702 38.2835 42.5602 38.3085C42.5502 38.3335 42.5427 38.356 42.5352 38.3785L42.4053 38.2885C42.4153 38.2435 42.4353 38.196 42.4603 38.1435C42.4852 38.0911 42.5152 38.0411 42.5502 37.9911C42.6202 37.8911 42.6977 37.8136 42.7802 37.7537C42.8626 37.6962 42.9476 37.6587 43.0375 37.6437C43.1275 37.6287 43.2175 37.6337 43.3125 37.6587C43.4075 37.6837 43.5 37.7312 43.5949 37.7986C43.6874 37.8636 43.7649 37.9386 43.8223 38.0236C43.8798 38.1086 43.9198 38.196 43.9373 38.2885C43.9548 38.381 43.9548 38.4785 43.9323 38.5759C43.9098 38.6734 43.8648 38.7709 43.7973 38.8658C43.7798 38.8908 43.7598 38.9158 43.7424 38.9383C43.7224 38.9608 43.7024 38.9833 43.6824 39.0033C43.6624 39.0233 43.6424 39.0408 43.6249 39.0558C43.6074 39.0708 43.5899 39.0833 43.5724 39.0933L43.4424 39.0033C43.4799 38.9758 43.5174 38.9433 43.5574 38.9058C43.5949 38.8683 43.6299 38.8283 43.6624 38.7859H43.6649Z" fill="white"/>
<path d="M41.8776 38.9307L42.5899 40.3478L42.4874 40.4652L40.9878 39.9479L41.1153 39.8004L41.5651 39.9604L41.9701 39.498L41.7526 39.0756L41.8801 38.9307H41.8776ZM42.3674 40.2553C42.2724 40.0853 42.1899 39.9279 42.115 39.7854L42.0475 39.653L41.7276 40.0203L41.8675 40.0703C42.0225 40.1253 42.1874 40.1878 42.3649 40.2603H42.3674V40.2553Z" fill="white"/>
<path d="M40.2134 40.7179L40.3433 40.5955L41.3431 41.6727L41.0456 41.9501C41.0006 41.9901 40.9581 42.0275 40.9156 42.0575C40.8731 42.0875 40.8307 42.11 40.7882 42.13C40.7032 42.1675 40.6207 42.1775 40.5457 42.1625C40.4708 42.1475 40.4008 42.1075 40.3383 42.04C40.2884 41.9851 40.2533 41.9276 40.2358 41.8651C40.2183 41.8026 40.2183 41.7401 40.2358 41.6727C40.2508 41.6052 40.2808 41.5377 40.3283 41.4702C40.3733 41.4002 40.4358 41.3303 40.5108 41.2628C40.5458 41.2303 40.5857 41.1953 40.6257 41.1628L40.2134 40.7204V40.7179ZM40.7357 41.2803C40.7157 41.2953 40.6957 41.3103 40.6757 41.3277C40.6557 41.3452 40.6357 41.3602 40.6207 41.3777C40.5583 41.4352 40.5107 41.4902 40.4758 41.5377C40.4408 41.5877 40.4183 41.6352 40.4083 41.6776C40.3983 41.7201 40.3983 41.7626 40.4108 41.8001C40.4233 41.8376 40.4458 41.8726 40.4758 41.9076C40.5157 41.9501 40.5557 41.9751 40.6007 41.9826C40.6457 41.9901 40.6932 41.9826 40.7432 41.9651C40.7732 41.9526 40.8057 41.9326 40.8407 41.9101C40.8757 41.8876 40.9107 41.8551 40.9507 41.8176L41.1031 41.6751L40.7357 41.2803Z" fill="white"/>
<path d="M17.51 17.2722C16.7453 17.2722 16.1279 17.892 16.1279 18.6543V33.6425C16.1279 33.8799 16.4528 33.9449 16.5453 33.7275L23.4383 17.2722H17.51Z" fill="white"/>
<path d="M34.4899 17.2722H28.5266L35.4546 33.7325C35.5471 33.9499 35.872 33.8849 35.872 33.6475V18.6543C35.872 17.8895 35.2521 17.2722 34.4899 17.2722Z" fill="white"/>
<path d="M25.6226 24.56L22.9009 31.0332H26.2324L27.4496 34.7246H30.6036L26.3548 24.5625C26.2199 24.2376 25.7575 24.2376 25.6226 24.5625V24.56Z" fill="white"/>
</svg>
