<svg width="52" height="52" viewBox="0 0 52 52" fill="none" xmlns="http://www.w3.org/2000/svg">
<path d="M26.0005 52C40.3599 52 52.0005 40.3594 52.0005 26C52.0005 11.6406 40.3599 0 26.0005 0C11.6411 0 0.000488281 11.6406 0.000488281 26C0.000488281 40.3594 11.6411 52 26.0005 52Z" fill="white"/>
<path d="M26.0002 44.1519C15.9906 44.1519 7.8479 36.0093 7.8479 25.9997C7.8479 15.9901 15.9906 7.84741 26.0002 7.84741C36.0098 7.84741 44.1525 15.9901 44.1525 25.9997C44.1525 36.0093 36.0098 44.1519 26.0002 44.1519ZM26.0002 8.35227C16.2705 8.35227 8.35276 16.2675 8.35276 25.9997C8.35276 35.7319 16.2705 43.6471 26.0002 43.6471C35.7299 43.6471 43.6476 35.7294 43.6476 25.9997C43.6476 16.27 35.7299 8.35227 26.0002 8.35227Z" fill="#3B7DED"/>
<path d="M26.0005 50.6201C22.6789 50.6201 19.4549 49.9678 16.4157 48.6831C13.4841 47.4435 10.8498 45.669 8.593 43.4097C6.33365 41.1503 4.55915 38.5186 3.31951 35.5869C2.03488 32.5478 1.38257 29.3212 1.38257 26.0022C1.38257 22.6831 2.03488 19.4566 3.31951 16.4174C4.55915 13.4858 6.33365 10.8515 8.593 8.5947C10.8523 6.33535 13.4841 4.56086 16.4157 3.32122C19.4549 2.03659 22.6814 1.38428 26.0005 1.38428C29.3195 1.38428 32.5461 2.03659 35.5852 3.32122C38.5169 4.56086 41.1511 6.33535 43.4079 8.5947C45.6673 10.854 47.4418 13.4858 48.6814 16.4174C49.9661 19.4566 50.6184 22.6831 50.6184 26.0022C50.6184 29.3212 49.9661 32.5478 48.6814 35.5869C47.4418 38.5186 45.6673 41.1528 43.4079 43.4097C41.1486 45.669 38.5169 47.4435 35.5852 48.6831C32.5461 49.9678 29.3195 50.6201 26.0005 50.6201ZM26.0005 1.74667C22.7289 1.74667 19.5523 2.38899 16.5582 3.65612C13.669 4.87827 11.0773 6.62527 8.85042 8.84962C6.62606 11.074 4.87657 13.6682 3.65692 16.5574C2.38979 19.5515 1.74747 22.7281 1.74747 25.9997C1.74747 29.2712 2.38979 32.4478 3.65692 35.442C4.87907 38.3311 6.62606 40.9229 8.85042 43.1497C11.0748 45.3741 13.669 47.1236 16.5582 48.3432C19.5523 49.6104 22.7289 50.2527 26.0005 50.2527C29.272 50.2527 32.4486 49.6104 35.4427 48.3432C38.3319 47.1211 40.9237 45.3741 43.1505 43.1497C45.3749 40.9254 47.1244 38.3311 48.344 35.442C49.6112 32.4478 50.2535 29.2712 50.2535 25.9997C50.2535 22.7281 49.6112 19.5515 48.344 16.5574C47.1219 13.6682 45.3749 11.0765 43.1505 8.84962C40.9262 6.62277 38.3319 4.87577 35.4427 3.65612C32.4486 2.38899 29.272 1.74667 26.0005 1.74667Z" fill="#3B7DED"/>
<path d="M8.78754 13.7959C8.925 13.8808 9.04247 13.9808 9.14244 14.0908C9.24241 14.2008 9.3174 14.3207 9.37238 14.4482C9.42487 14.5781 9.45485 14.7156 9.46235 14.8631C9.46985 15.0105 9.44736 15.163 9.39987 15.3254C9.37238 15.4179 9.33488 15.5129 9.2849 15.6103C9.23491 15.7078 9.17743 15.8078 9.11245 15.9153L8.77755 16.4476L6.42822 14.968L6.76563 14.4307C6.83312 14.3232 6.90059 14.2282 6.96557 14.1433C7.03305 14.0583 7.10052 13.9833 7.173 13.9183C7.29797 13.8059 7.42794 13.7209 7.5604 13.6609C7.69287 13.6009 7.82783 13.5684 7.96529 13.5609C8.10275 13.5534 8.2402 13.5684 8.37766 13.6109C8.51512 13.6534 8.65258 13.7159 8.79005 13.8009L8.78754 13.7959ZM8.6076 14.0808C8.38267 13.9383 8.16773 13.8733 7.96278 13.8833C7.76034 13.8933 7.57039 13.9758 7.39544 14.1233C7.32796 14.1808 7.26299 14.2507 7.20051 14.3332C7.13802 14.4157 7.07055 14.5132 7.00057 14.6231L6.86309 14.8431L8.69507 15.9977L8.83253 15.7778C8.90251 15.6678 8.96 15.5654 9.00748 15.4729C9.05497 15.3804 9.08995 15.2904 9.11245 15.2055C9.16993 14.983 9.15994 14.7756 9.07497 14.5831C8.99249 14.3907 8.83504 14.2232 8.6076 14.0808Z" fill="#606369"/>
<path d="M11.1492 13.1063L9.06982 11.2668L9.29477 11.0144L11.3742 12.8539L11.1492 13.1063Z" fill="#606369"/>
<path d="M13.4288 9.42708L12.9389 9.82697L12.7465 9.58953L13.4988 8.97471L14.3485 10.0144C14.336 10.0444 14.3136 10.0844 14.2786 10.1319C14.2461 10.1794 14.2061 10.2318 14.1586 10.2868C14.1111 10.3418 14.0586 10.3993 14.0011 10.4593C13.9437 10.5193 13.8812 10.5718 13.8212 10.6242C13.6363 10.7742 13.4538 10.8817 13.2714 10.9466C13.0889 11.0116 12.914 11.0366 12.7415 11.0216C12.5691 11.0066 12.4066 10.9541 12.2492 10.8642C12.0917 10.7742 11.9467 10.6467 11.8143 10.4843C11.6718 10.3093 11.5668 10.1269 11.5044 9.93943C11.4419 9.75199 11.4194 9.56454 11.4369 9.37959C11.4544 9.19465 11.5169 9.0147 11.6168 8.83975C11.7168 8.6648 11.8543 8.50735 12.0292 8.36489C12.0767 8.3274 12.1242 8.28991 12.1742 8.25492C12.2242 8.21993 12.2741 8.18994 12.3216 8.15995C12.3691 8.13245 12.4166 8.10746 12.4616 8.08747C12.5066 8.06747 12.5441 8.05248 12.5791 8.04248L12.769 8.27241C12.6865 8.30241 12.599 8.34489 12.5041 8.39988C12.4091 8.45236 12.3191 8.51484 12.2367 8.58232C12.1142 8.6823 12.0142 8.79476 11.9317 8.92473C11.8518 9.05219 11.7993 9.18715 11.7768 9.33211C11.7543 9.47707 11.7618 9.62452 11.8043 9.77948C11.8468 9.93444 11.9292 10.0869 12.0542 10.2393C12.1767 10.3893 12.3016 10.4993 12.4316 10.5743C12.5616 10.6492 12.694 10.6892 12.829 10.6967C12.9639 10.7042 13.0989 10.6817 13.2364 10.6267C13.3738 10.5718 13.5088 10.4893 13.6412 10.3793C13.7037 10.3293 13.7612 10.2743 13.8162 10.2194C13.8712 10.1644 13.9162 10.1119 13.9537 10.0619L13.4313 9.42208L13.4288 9.42708Z" fill="#606369"/>
<path d="M16.038 9.03983L14.6509 6.63553L14.9433 6.46558L16.3304 8.86988L16.038 9.03983Z" fill="#606369"/>
<path d="M19.0024 7.61507L18.6874 7.73754L17.7877 5.4357L16.923 5.77311L16.813 5.48819L18.8549 4.69092L18.9649 4.97584L18.1001 5.31324L18.9999 7.61507H19.0024Z" fill="#606369"/>
<path d="M20.9864 6.9353L21.5687 3.99615L21.8561 3.94116L23.4932 6.45044L23.1333 6.52042L22.6484 5.76314L21.5087 5.98307L21.3413 6.86782L20.9839 6.9378L20.9864 6.9353ZM21.7912 4.39353C21.7362 4.75593 21.6787 5.08583 21.6212 5.38575L21.5687 5.66317L22.471 5.48822L22.3185 5.25078C22.1511 4.99086 21.9786 4.70344 21.7987 4.39103H21.7912V4.39353Z" fill="#606369"/>
<path d="M25.4426 3.56641L25.4826 6.03819L26.8372 6.0157L26.8422 6.32061L25.1502 6.3481L25.1052 3.5739L25.4426 3.56891V3.56641Z" fill="#606369"/>
<path d="M30.251 6.75294L32.1079 4.40112L32.3879 4.4836L32.7028 7.46524L32.3504 7.36277L32.2654 6.46803L31.1507 6.14562L30.6009 6.85542L30.251 6.75544V6.75294ZM32.1254 4.85599C31.9105 5.15341 31.7106 5.42083 31.5231 5.66326L31.3507 5.88569L32.2354 6.14062L32.2079 5.8607C32.1779 5.55329 32.1554 5.21839 32.1354 4.85849H32.1279L32.1254 4.85599Z" fill="#606369"/>
<path d="M35.4072 6.42539C35.3697 6.49787 35.3547 6.56535 35.3597 6.62784C35.3647 6.69032 35.3847 6.7503 35.4172 6.80528C35.4522 6.86277 35.4946 6.91525 35.5521 6.97024C35.6096 7.02522 35.6671 7.07771 35.7296 7.13019C35.812 7.20267 35.8945 7.27765 35.972 7.35263C36.0495 7.42761 36.112 7.51008 36.1594 7.59756C36.2069 7.68503 36.2319 7.78 36.2344 7.88247C36.2369 7.98494 36.2069 8.09991 36.1445 8.22488C36.0795 8.35234 35.997 8.44981 35.902 8.51979C35.8046 8.58727 35.6996 8.62976 35.5846 8.64475C35.4672 8.65975 35.3447 8.65225 35.2122 8.62226C35.0798 8.59227 34.9448 8.53978 34.8049 8.4698C34.7399 8.43731 34.6774 8.39982 34.6149 8.35734C34.5524 8.31485 34.4924 8.27236 34.4399 8.22737C34.385 8.18239 34.34 8.1399 34.2975 8.09741C34.255 8.05492 34.2275 8.01744 34.2075 7.98494L34.3475 7.71002C34.38 7.75501 34.42 7.8 34.465 7.84748C34.5099 7.89497 34.5599 7.93996 34.6124 7.98245C34.6649 8.02493 34.7199 8.06742 34.7749 8.10491C34.8298 8.1424 34.8848 8.17489 34.9398 8.20238C35.0248 8.24737 35.1122 8.28236 35.1972 8.30735C35.2822 8.33234 35.3647 8.34234 35.4421 8.33984C35.5196 8.33734 35.5896 8.31235 35.6546 8.26986C35.7196 8.22737 35.7746 8.16239 35.822 8.07242C35.8595 7.99744 35.877 7.92996 35.8695 7.86748C35.8645 7.805 35.8446 7.74251 35.8096 7.68753C35.7746 7.63005 35.7296 7.57506 35.6746 7.52258C35.6196 7.47009 35.5596 7.41511 35.4947 7.36012C35.4097 7.28765 35.3297 7.21517 35.2522 7.14019C35.1747 7.06521 35.1122 6.98523 35.0648 6.89776C35.0173 6.81028 34.9923 6.71781 34.9898 6.61784C34.9848 6.51787 35.0148 6.4079 35.0773 6.28793C35.1422 6.16297 35.2197 6.0655 35.3122 6.00052C35.4047 5.93304 35.5046 5.89055 35.6146 5.87305C35.7246 5.85556 35.837 5.85806 35.952 5.88055C36.0695 5.90554 36.1844 5.94553 36.2994 6.00552C36.4319 6.073 36.5469 6.14797 36.6493 6.23295C36.7493 6.31543 36.8367 6.4029 36.9117 6.49287L36.7693 6.77279C36.6893 6.67782 36.6018 6.58785 36.5068 6.50537C36.4119 6.42289 36.3019 6.34792 36.1795 6.28293C36.087 6.23545 35.9995 6.20296 35.9195 6.18796C35.8395 6.17297 35.7671 6.17297 35.7021 6.18796C35.6371 6.20296 35.5796 6.23045 35.5296 6.27294C35.4797 6.31543 35.4397 6.36791 35.4047 6.43289L35.4072 6.42539Z" fill="#606369"/>
<path d="M38.7913 8.45235C38.7413 8.51733 38.7138 8.57982 38.7063 8.6423C38.6988 8.70478 38.7063 8.76726 38.7313 8.82724C38.7538 8.88973 38.7888 8.94971 38.8338 9.01469C38.8788 9.07717 38.9263 9.13965 38.9787 9.20464C39.0487 9.29211 39.1137 9.37958 39.1762 9.46706C39.2387 9.55703 39.2861 9.64701 39.3161 9.74198C39.3461 9.83695 39.3536 9.93442 39.3387 10.0369C39.3237 10.1394 39.2737 10.2468 39.1862 10.3568C39.0987 10.4718 39.0012 10.5517 38.8938 10.6017C38.7863 10.6517 38.6738 10.6742 38.5589 10.6667C38.4414 10.6617 38.3214 10.6317 38.1965 10.5767C38.0715 10.5218 37.949 10.4468 37.8241 10.3518C37.7666 10.3068 37.7116 10.2593 37.6566 10.2068C37.6016 10.1544 37.5516 10.0994 37.5067 10.0469C37.4617 9.99441 37.4242 9.94192 37.3917 9.89194C37.3592 9.84195 37.3367 9.80196 37.3242 9.76697L37.5117 9.52204C37.5367 9.57203 37.5666 9.62451 37.6041 9.6795C37.6416 9.73448 37.6816 9.78697 37.7241 9.83945C37.7691 9.89194 37.8141 9.94192 37.8616 9.98941C37.9091 10.0369 37.959 10.0794 38.004 10.1144C38.0815 10.1744 38.159 10.2243 38.239 10.2643C38.3189 10.3043 38.3964 10.3293 38.4739 10.3393C38.5489 10.3493 38.6238 10.3393 38.6963 10.3093C38.7688 10.2793 38.8338 10.2243 38.8963 10.1444C38.9463 10.0794 38.9762 10.0144 38.9812 9.94942C38.9862 9.88694 38.9787 9.82196 38.9563 9.75947C38.9338 9.69699 38.8988 9.63451 38.8538 9.57203C38.8088 9.50955 38.7588 9.44457 38.7063 9.37958C38.6363 9.29461 38.5689 9.20713 38.5064 9.11966C38.4439 9.03218 38.3964 8.94221 38.3664 8.84974C38.3364 8.75726 38.3289 8.65979 38.3414 8.56232C38.3564 8.46235 38.4039 8.35988 38.4864 8.25241C38.5714 8.13994 38.6663 8.05996 38.7688 8.00998C38.8713 7.95999 38.9788 7.9375 39.0887 7.9375C39.1987 7.9375 39.3086 7.96249 39.4186 8.00748C39.5286 8.05247 39.6361 8.11495 39.7385 8.19493C39.856 8.2849 39.956 8.37987 40.0409 8.47984C40.1259 8.57981 40.1959 8.68229 40.2509 8.78226L40.0609 9.02969C39.9985 8.92222 39.9285 8.81725 39.851 8.71977C39.7735 8.6223 39.6785 8.52983 39.5686 8.44235C39.4861 8.37737 39.4061 8.33239 39.3311 8.3024C39.2562 8.2724 39.1862 8.25991 39.1187 8.26241C39.0512 8.26241 38.9913 8.2824 38.9338 8.31489C38.8763 8.34738 38.8263 8.39237 38.7813 8.44985L38.7913 8.45235Z" fill="#606369"/>
<path d="M40.5086 12.2714L41.4608 13.3286L41.2334 13.5335L40.0537 12.2264L42.1156 10.3669L43.2428 11.6166L43.0154 11.8215L42.1131 10.8218L41.4483 11.4216L42.2506 12.3114L42.0231 12.5163L41.2209 11.6266L40.5036 12.2739L40.5086 12.2714Z" fill="#606369"/>
<path d="M42.843 15.8452L42.6655 15.5578L44.7699 14.2632L44.2826 13.4734L44.5425 13.3135L45.6922 15.1804L45.4322 15.3404L44.9449 14.5506L42.8405 15.8452H42.843Z" fill="#606369"/>
<path d="M17.0076 45.5966L16.3878 45.2692L16.6127 44.8443L17.7399 45.4392L17.0026 46.8363C16.9526 46.8288 16.8926 46.8163 16.8202 46.8013C16.7477 46.7863 16.6677 46.7613 16.5802 46.7313C16.4953 46.7013 16.4078 46.6688 16.3178 46.6338C16.2303 46.5988 16.1429 46.5588 16.0604 46.5139C15.813 46.3814 15.613 46.2339 15.4631 46.069C15.3131 45.904 15.2081 45.7291 15.1481 45.5416C15.0882 45.3542 15.0732 45.1617 15.1007 44.9618C15.1282 44.7619 15.1956 44.5594 15.3031 44.357C15.3781 44.2145 15.4681 44.0846 15.568 43.9721C15.6705 43.8596 15.7805 43.7646 15.9029 43.6847C16.0254 43.6047 16.1529 43.5472 16.2903 43.5047C16.4278 43.4622 16.5702 43.4397 16.7177 43.4372C16.8651 43.4347 17.0176 43.4522 17.1726 43.4922C17.3275 43.5322 17.485 43.5922 17.6399 43.6747C17.7799 43.7472 17.9074 43.8271 18.0223 43.9146C18.1373 44.0021 18.2273 44.0796 18.2922 44.152L18.0648 44.5819C17.9748 44.4894 17.8799 44.407 17.7799 44.332C17.6799 44.257 17.575 44.1895 17.4625 44.1295C17.3125 44.0496 17.1601 43.9971 17.0051 43.9746C16.8502 43.9521 16.7027 43.9571 16.5602 43.9946C16.4178 44.0321 16.2853 44.0996 16.1629 44.1995C16.0404 44.2995 15.9329 44.432 15.8454 44.6019C15.673 44.9293 15.6305 45.2192 15.713 45.4717C15.7955 45.7241 15.9929 45.934 16.3053 46.099C16.3628 46.129 16.4253 46.159 16.4903 46.184C16.5552 46.2114 16.6152 46.2314 16.6652 46.2464L17.0076 45.5991V45.5966Z" fill="#606369"/>
<path d="M22.748 47.0266C22.6955 47.2591 22.6131 47.464 22.5031 47.644C22.3931 47.8239 22.2582 47.9664 22.0982 48.0788C21.9383 48.1888 21.7583 48.2638 21.5559 48.2988C21.3534 48.3338 21.1335 48.3238 20.8986 48.2713C20.6636 48.2163 20.4612 48.1313 20.2937 48.0114C20.1263 47.8914 19.9963 47.7464 19.9014 47.579C19.8064 47.4115 19.7489 47.2216 19.7264 47.0116C19.7039 46.8017 19.7214 46.5818 19.7739 46.3493C19.8264 46.1169 19.9088 45.912 20.0188 45.732C20.1288 45.5521 20.2637 45.4096 20.4237 45.2971C20.5836 45.1872 20.7636 45.1122 20.966 45.0772C21.1685 45.0422 21.3884 45.0522 21.6233 45.1047C21.8583 45.1572 22.0607 45.2447 22.2282 45.3646C22.3956 45.4846 22.5256 45.6295 22.6206 45.797C22.7155 45.9669 22.773 46.1544 22.7955 46.3643C22.818 46.5743 22.8005 46.7942 22.748 47.0266ZM22.1707 46.8942C22.2132 46.7092 22.2282 46.5418 22.2132 46.3918C22.1982 46.2419 22.1632 46.1119 22.1032 45.9994C22.0432 45.8895 21.9633 45.797 21.8633 45.727C21.7633 45.657 21.6458 45.6046 21.5134 45.5746C21.3809 45.5446 21.2535 45.5396 21.1335 45.5596C21.011 45.5796 20.9011 45.627 20.7986 45.702C20.6961 45.777 20.6061 45.877 20.5287 46.0069C20.4512 46.1369 20.3912 46.2919 20.3487 46.4793C20.3062 46.6642 20.2912 46.8317 20.3062 46.9817C20.3212 47.1316 20.3562 47.2616 20.4162 47.3715C20.4762 47.4815 20.5562 47.574 20.6561 47.644C20.7561 47.7164 20.8736 47.7664 21.006 47.7964C21.1385 47.8264 21.266 47.8314 21.3859 47.8114C21.5084 47.7914 21.6184 47.7439 21.7208 47.669C21.8233 47.5965 21.9108 47.494 21.9882 47.3665C22.0657 47.2366 22.1257 47.0816 22.1682 46.8942H22.1707Z" fill="#606369"/>
<path d="M27.9245 47.0936C27.9345 47.3311 27.9095 47.551 27.8495 47.7535C27.7895 47.9559 27.697 48.1308 27.5746 48.2783C27.4496 48.4258 27.2947 48.5457 27.1097 48.6332C26.9248 48.7207 26.7098 48.7682 26.4674 48.7782C26.225 48.7882 26.0075 48.7582 25.8151 48.6857C25.6226 48.6132 25.4577 48.5082 25.3227 48.3708C25.1878 48.2333 25.0803 48.0659 25.0053 47.8709C24.9303 47.676 24.8854 47.4585 24.8779 47.2186C24.8704 46.9787 24.8928 46.7612 24.9528 46.5588C25.0128 46.3564 25.1053 46.1814 25.2278 46.034C25.3527 45.8865 25.5077 45.7665 25.6926 45.6791C25.8776 45.5916 26.0925 45.5441 26.3349 45.5341C26.5774 45.5241 26.7948 45.5541 26.9872 45.6266C27.1797 45.699 27.3446 45.804 27.4796 45.9415C27.6146 46.0789 27.722 46.2464 27.797 46.4413C27.872 46.6363 27.917 46.8537 27.9245 47.0936ZM27.3322 47.1186C27.3247 46.9287 27.2947 46.7637 27.2422 46.6213C27.1897 46.4813 27.1197 46.3639 27.0347 46.2739C26.9473 46.1814 26.8473 46.1164 26.7323 46.0739C26.6174 46.0315 26.4899 46.014 26.3549 46.019C26.22 46.024 26.095 46.0539 25.9825 46.1039C25.8701 46.1564 25.7751 46.2314 25.6976 46.3289C25.6201 46.4263 25.5602 46.5488 25.5177 46.6938C25.4777 46.8387 25.4602 47.0062 25.4677 47.1961C25.4752 47.3861 25.5052 47.551 25.5577 47.6935C25.6102 47.8334 25.6801 47.9509 25.7651 48.0409C25.8526 48.1308 25.9525 48.1983 26.0675 48.2408C26.1825 48.2833 26.3099 48.3033 26.4449 48.2958C26.5799 48.2908 26.7048 48.2608 26.8173 48.2083C26.9298 48.1558 27.0247 48.0809 27.1022 47.9834C27.1797 47.8859 27.2397 47.7635 27.2822 47.621C27.3222 47.476 27.3396 47.3086 27.3322 47.1186Z" fill="#606369"/>
<path d="M32.1335 46.4492L31.4637 46.6566L31.3212 46.1993L32.5384 45.8219L33.0057 47.3314C32.9657 47.3614 32.9132 47.3964 32.8508 47.4364C32.7883 47.4764 32.7133 47.5164 32.6333 47.5564C32.5533 47.5964 32.4684 47.6364 32.3784 47.6738C32.2909 47.7113 32.201 47.7438 32.111 47.7713C31.8436 47.8538 31.5961 47.8913 31.3737 47.8813C31.1513 47.8713 30.9513 47.8213 30.7789 47.7313C30.6039 47.6413 30.4565 47.5164 30.334 47.3564C30.2115 47.1965 30.1166 47.0065 30.0491 46.7866C30.0016 46.6316 29.9716 46.4792 29.9641 46.3267C29.9566 46.1743 29.9641 46.0293 29.9966 45.8869C30.0266 45.7469 30.0766 45.6119 30.1416 45.4845C30.209 45.357 30.294 45.2395 30.3965 45.1321C30.499 45.0246 30.6189 44.9296 30.7564 44.8472C30.8938 44.7647 31.0463 44.6972 31.2162 44.6447C31.3662 44.5972 31.5137 44.5647 31.6561 44.5447C31.7986 44.5247 31.9185 44.5173 32.0135 44.5198L32.1585 44.9846C32.031 44.9846 31.9035 44.9921 31.7811 45.0096C31.6586 45.0271 31.5337 45.0546 31.4137 45.0921C31.2512 45.1421 31.1063 45.2145 30.9813 45.307C30.8538 45.3995 30.7539 45.5095 30.6814 45.6344C30.6089 45.7594 30.5614 45.9018 30.5464 46.0593C30.5289 46.2168 30.5489 46.3867 30.6064 46.5667C30.7164 46.9191 30.8913 47.1565 31.1313 47.274C31.3687 47.3939 31.6561 47.4014 31.9935 47.2965C32.056 47.2765 32.121 47.254 32.186 47.2265C32.2509 47.199 32.3059 47.1715 32.3534 47.1465L32.136 46.4467L32.1335 46.4492Z" fill="#606369"/>
<path d="M34.4001 43.2876L35.7572 45.5669L37.0168 44.8172L37.2618 45.2295L35.5098 46.2717L33.9077 43.5825L34.4001 43.2901V43.2876Z" fill="#606369"/>
<path d="M11.7816 40.7155C11.7441 40.6781 11.7041 40.6506 11.6666 40.6306C11.6291 40.6106 11.5891 40.5981 11.5516 40.5931C11.5141 40.5881 11.4767 40.5906 11.4392 40.5981C11.4017 40.6056 11.3667 40.6206 11.3317 40.6406C11.3092 40.6531 11.2867 40.6681 11.2642 40.6881C11.2417 40.708 11.2192 40.728 11.2017 40.748L10.5669 41.4028L10.4395 41.2779L11.0718 40.6256C11.0968 40.6006 11.1218 40.5756 11.1518 40.5531C11.1792 40.5281 11.2092 40.5081 11.2367 40.4906C11.2842 40.4606 11.3342 40.4406 11.3867 40.4256C11.4392 40.4131 11.4917 40.4081 11.5491 40.4156C11.6066 40.4231 11.6616 40.4406 11.7191 40.4706C11.7766 40.5006 11.8366 40.5456 11.8965 40.6031C11.954 40.6581 11.999 40.7155 12.0315 40.7705C12.064 40.8255 12.084 40.8805 12.094 40.933C12.104 40.9855 12.104 41.0379 12.094 41.0879C12.084 41.1379 12.0665 41.1854 12.044 41.2329C12.0265 41.2679 12.004 41.3004 11.979 41.3329C11.954 41.3654 11.9265 41.3978 11.899 41.4253L11.2667 42.0777L11.1393 41.9527L11.7741 41.2979C11.7966 41.2754 11.8191 41.2479 11.8391 41.2204C11.8591 41.1929 11.8766 41.1654 11.889 41.1379C11.919 41.0679 11.929 40.998 11.914 40.928C11.899 40.858 11.8565 40.788 11.7866 40.718L11.7816 40.7155Z" fill="#606369"/>
<path d="M9.82471 40.0258C9.8572 39.9983 9.8797 39.9683 9.8897 39.9358C9.89969 39.9033 9.90219 39.8708 9.89719 39.8358C9.89219 39.8008 9.88219 39.7659 9.8647 39.7284C9.8497 39.6909 9.82972 39.6534 9.81222 39.6134C9.78723 39.5609 9.76223 39.5084 9.73973 39.4559C9.71724 39.4035 9.70475 39.351 9.69975 39.2985C9.69475 39.246 9.69974 39.1935 9.72223 39.1435C9.74223 39.0935 9.77972 39.0436 9.83721 38.9961C9.89469 38.9461 9.95467 38.9161 10.0171 38.9036C10.0796 38.8911 10.1396 38.8911 10.1996 38.9086C10.2596 38.9261 10.3196 38.9536 10.377 38.9961C10.4345 39.0386 10.4895 39.091 10.5445 39.1535C10.5695 39.1835 10.592 39.2135 10.6145 39.2485C10.637 39.2835 10.657 39.316 10.672 39.3485C10.687 39.381 10.702 39.4135 10.7145 39.4409C10.7245 39.4709 10.7319 39.4934 10.7344 39.5134L10.6095 39.6184C10.602 39.5884 10.592 39.5584 10.5795 39.5259C10.567 39.4934 10.552 39.4609 10.5345 39.4284C10.517 39.396 10.4995 39.366 10.4795 39.336C10.4595 39.306 10.4395 39.2785 10.4195 39.2535C10.3871 39.2135 10.3521 39.1785 10.3146 39.1485C10.2771 39.1185 10.2396 39.096 10.2021 39.0836C10.1646 39.0686 10.1246 39.0661 10.0846 39.0736C10.0446 39.081 10.0047 39.101 9.96217 39.136C9.92968 39.1635 9.90718 39.1935 9.89719 39.226C9.88719 39.2585 9.8847 39.291 9.8897 39.326C9.8947 39.361 9.90468 39.3985 9.92217 39.4359C9.93717 39.4734 9.95717 39.5109 9.97717 39.5509C10.0047 39.6034 10.0271 39.6559 10.0496 39.7084C10.0721 39.7609 10.0846 39.8133 10.0896 39.8633C10.0946 39.9158 10.0896 39.9658 10.0696 40.0158C10.0496 40.0658 10.0147 40.1133 9.95967 40.1582C9.90219 40.2057 9.8447 40.2382 9.78472 40.2507C9.72723 40.2632 9.66725 40.2657 9.61227 40.2507C9.55478 40.2382 9.50231 40.2132 9.44982 40.1782C9.39734 40.1432 9.34985 40.0983 9.30486 40.0458C9.25487 39.9858 9.21239 39.9258 9.1824 39.8633C9.14991 39.8008 9.12492 39.7409 9.10742 39.6834L9.23487 39.5759C9.25487 39.6384 9.27737 39.7009 9.30736 39.7609C9.33735 39.8208 9.37483 39.8783 9.42232 39.9358C9.45731 39.9783 9.49481 40.0108 9.5298 40.0358C9.56479 40.0583 9.59978 40.0758 9.63477 40.0808C9.66976 40.0883 9.70224 40.0858 9.73473 40.0758C9.76722 40.0658 9.79971 40.0483 9.8297 40.0233L9.82471 40.0258Z" fill="#606369"/>
<path d="M7.55524 37.5791L8.67491 36.9043L8.30502 36.2895L8.44248 36.207L8.90485 36.9743L7.64521 37.7316L7.55273 37.5791H7.55524Z" fill="#606369"/>
<path d="M8.05235 35.4947L6.46782 35.5796L6.40283 35.4397L7.47502 34.27L7.5575 34.445L7.23259 34.7924L7.49502 35.3472L7.96987 35.3172L8.05235 35.4922V35.4947ZM6.64275 35.4147C6.8352 35.3947 7.01265 35.3822 7.1726 35.3722L7.32006 35.3622L7.11262 34.9223L7.01016 35.0323C6.89769 35.1523 6.77523 35.2772 6.63776 35.4122V35.4172L6.64275 35.4147Z" fill="#606369"/>
<path d="M6.50827 33.4602L7.0831 33.2602L7.14308 33.4302L5.75599 33.915L5.63102 33.5551C5.61103 33.4951 5.59353 33.4427 5.58354 33.3977C5.57354 33.3527 5.56605 33.3127 5.56355 33.2727C5.55605 33.1677 5.57604 33.0778 5.62103 33.0053C5.66602 32.9328 5.73599 32.8778 5.83096 32.8453C5.88595 32.8253 5.94093 32.8178 5.99092 32.8203C6.0409 32.8203 6.08839 32.8353 6.13338 32.8553C6.17837 32.8753 6.21835 32.9053 6.25334 32.9453C6.29083 32.9828 6.32332 33.0278 6.35082 33.0803H6.35582L6.80569 32.4604L6.86567 32.6304L6.44079 33.2577L6.51328 33.4627L6.50827 33.4602ZM5.84846 33.6901L6.35582 33.5126L6.29833 33.3452C6.28083 33.2927 6.26335 33.2502 6.24585 33.2152C6.23085 33.1802 6.21086 33.1502 6.19336 33.1228C6.15587 33.0703 6.11089 33.0353 6.06091 33.0178C6.01092 33.0003 5.95344 33.0028 5.88846 33.0228C5.82847 33.0453 5.78598 33.0753 5.76099 33.1178C5.736 33.1602 5.7235 33.2102 5.726 33.2677C5.726 33.2952 5.73099 33.3277 5.74099 33.3627C5.74849 33.3977 5.76349 33.4427 5.78099 33.4952L5.84846 33.6876V33.6901Z" fill="#606369"/>
<path d="M5.73098 30.7034L5.80596 31.0308L5.6485 31.0683L5.53353 30.5684L6.22583 30.4084C6.23833 30.4209 6.25083 30.4409 6.26583 30.4684C6.28083 30.4959 6.29582 30.5259 6.31082 30.5634C6.32581 30.5984 6.34081 30.6384 6.3558 30.6784C6.3708 30.7209 6.3808 30.7608 6.39079 30.8033C6.41829 30.9258 6.42828 31.0383 6.41578 31.1407C6.40328 31.2432 6.3758 31.3307 6.32831 31.4107C6.28083 31.4881 6.21834 31.5531 6.13836 31.6081C6.05839 31.6606 5.96341 31.7006 5.85594 31.7256C5.73848 31.7531 5.62851 31.7581 5.52354 31.7456C5.41857 31.7331 5.32609 31.6981 5.24362 31.6456C5.16114 31.5931 5.08867 31.5231 5.02868 31.4357C4.9687 31.3482 4.92621 31.2457 4.89872 31.1282C4.89122 31.0982 4.88622 31.0658 4.88122 31.0333C4.87622 31.0008 4.87373 30.9708 4.87123 30.9408C4.87123 30.9108 4.86873 30.8833 4.87123 30.8583C4.87123 30.8333 4.87373 30.8108 4.87623 30.7933L5.03119 30.7583C5.02619 30.8033 5.02619 30.8558 5.03119 30.9133C5.03368 30.9708 5.04368 31.0283 5.05617 31.0833C5.07617 31.1657 5.10615 31.2382 5.14614 31.3082C5.18863 31.3757 5.24112 31.4332 5.3036 31.4781C5.36608 31.5231 5.43856 31.5531 5.52354 31.5706C5.60851 31.5881 5.69848 31.5831 5.80095 31.5606C5.90092 31.5381 5.9834 31.5031 6.04838 31.4581C6.11336 31.4132 6.16336 31.3607 6.19835 31.2982C6.23334 31.2357 6.25333 31.1657 6.26083 31.0883C6.26583 31.0108 6.26082 30.9258 6.23833 30.8383C6.22833 30.7958 6.21834 30.7558 6.20335 30.7184C6.19085 30.6784 6.17585 30.6459 6.16085 30.6159L5.73597 30.7134L5.73098 30.7034Z" fill="#606369"/>
<path d="M5.91346 29.2067L5.82099 28.4594L5.98095 28.4395L6.09591 29.3642L4.63634 29.5441L4.52637 28.6594L4.68632 28.6394L4.77379 29.3467L5.24366 29.2892L5.16618 28.6594L5.32614 28.6394L5.40362 29.2692L5.91096 29.2067H5.91346Z" fill="#606369"/>
<path d="M4.57099 25.6299C4.57099 25.7124 4.57848 25.7899 4.60348 25.8624C4.62847 25.9348 4.66346 25.9973 4.71345 26.0523C4.76343 26.1073 4.82591 26.1498 4.90089 26.1823C4.97587 26.2148 5.06584 26.2322 5.16582 26.2347C5.26579 26.2372 5.35576 26.2272 5.43074 26.1998C5.50572 26.1748 5.5682 26.1348 5.61818 26.0848C5.66817 26.0348 5.70567 25.9723 5.73316 25.8998C5.75815 25.8274 5.77314 25.7474 5.77564 25.6574C5.77564 25.6324 5.77564 25.6074 5.77564 25.5799C5.77564 25.5524 5.77063 25.525 5.76814 25.4975C5.76314 25.47 5.76064 25.4425 5.75314 25.415C5.74814 25.3875 5.74064 25.365 5.73564 25.345L5.8931 25.35C5.9081 25.3925 5.9206 25.445 5.92809 25.5025C5.93559 25.5599 5.9381 25.6174 5.9356 25.6774C5.9331 25.7999 5.91061 25.9073 5.87562 25.9998C5.83813 26.0923 5.78813 26.1723 5.72315 26.2322C5.65817 26.2947 5.57819 26.3397 5.48572 26.3697C5.39324 26.3997 5.28829 26.4122 5.17082 26.4097C5.05585 26.4072 4.95088 26.3872 4.85841 26.3472C4.76344 26.3097 4.68345 26.2572 4.61597 26.1898C4.54849 26.1223 4.49851 26.0423 4.46102 25.9473C4.42353 25.8524 4.40853 25.7474 4.41353 25.6324C4.41353 25.6024 4.41604 25.5724 4.42104 25.5424C4.42603 25.5125 4.42853 25.485 4.43353 25.4575C4.43853 25.43 4.44603 25.405 4.45353 25.3825C4.46102 25.36 4.46851 25.34 4.47601 25.3225L4.63347 25.3275C4.61847 25.3725 4.60348 25.42 4.59349 25.4725C4.58349 25.525 4.57599 25.5774 4.57349 25.6299H4.57099Z" fill="#606369"/>
<path d="M5.97818 24.5178L4.60107 23.7281L4.62107 23.5756L6.15812 23.1782L6.13313 23.3707L5.67077 23.4856L5.58829 24.0955L6.00317 24.3279L5.97818 24.5178ZM4.83851 23.6856C5.01096 23.7756 5.16841 23.8605 5.30837 23.938L5.43834 24.0105L5.50331 23.5281L5.35836 23.5656C5.19841 23.6056 5.02595 23.6431 4.83851 23.6806V23.6856Z" fill="#606369"/>
<path d="M6.38315 22.111L6.34067 22.2859L4.91357 21.9385L5.00855 21.5436C5.02354 21.4837 5.03854 21.4312 5.05854 21.3837C5.07853 21.3362 5.10103 21.2912 5.12602 21.2537C5.17851 21.1763 5.23849 21.1213 5.31097 21.0938C5.38345 21.0638 5.46341 21.0613 5.55089 21.0813C5.62337 21.0988 5.68336 21.1288 5.73084 21.1713C5.77833 21.2137 5.81582 21.2662 5.83831 21.3312C5.8608 21.3937 5.8733 21.4687 5.8733 21.5511C5.8733 21.6336 5.8608 21.7261 5.83581 21.8261C5.82331 21.8736 5.81082 21.9235 5.79333 21.9735L6.38065 22.116L6.38315 22.111ZM5.63587 21.9285C5.64337 21.906 5.65336 21.881 5.66086 21.8561C5.66835 21.8311 5.67586 21.8061 5.68085 21.7836C5.70085 21.7011 5.71085 21.6311 5.71335 21.5686C5.71335 21.5087 5.70834 21.4562 5.69085 21.4137C5.67585 21.3712 5.65087 21.3387 5.62087 21.3137C5.59088 21.2887 5.55089 21.2712 5.5059 21.2612C5.45092 21.2487 5.40094 21.2512 5.35845 21.2687C5.31597 21.2862 5.28098 21.3187 5.24848 21.3637C5.22849 21.3912 5.21349 21.4237 5.1985 21.4637C5.1835 21.5037 5.171 21.5486 5.1585 21.6011L5.10853 21.8036L5.63337 21.931L5.63587 21.9285Z" fill="#606369"/>
<path d="M13.4763 43.2499L14.0162 43.6747L13.3314 43.6447L13.0939 44.2896L12.909 43.6273L12.2217 43.5998L12.7965 43.2199L12.6091 42.5601L13.1464 42.9874L13.7187 42.605L13.4763 43.2499Z" fill="#3B7DED"/>
<path d="M6.44805 17.8871L7.41027 17.8396L6.65799 18.4394L6.9979 19.3392L6.19562 18.8093L5.44334 19.4117L5.70077 18.4844L4.896 17.9571L5.85823 17.9146L6.11064 16.9849L6.44805 17.8871Z" fill="#3B7DED"/>
<path d="M38.9988 43.2499L38.459 43.6747L39.1463 43.6447L39.3837 44.2896L39.5687 43.6273L40.2535 43.5998L39.6811 43.2199L39.8686 42.5601L39.3312 42.9874L38.7589 42.605L38.9988 43.2499Z" fill="#3B7DED"/>
<path d="M46.0291 17.8871L45.0669 17.8396L45.8192 18.4394L45.4768 19.3392L46.2815 18.8093L47.0313 19.4117L46.7764 18.4844L47.5812 17.9571L46.619 17.9146L46.3665 16.9849L46.0291 17.8871Z" fill="#3B7DED"/>
<path d="M45.9567 22.216C45.9692 22.2685 45.9842 22.3135 46.0067 22.351C46.0267 22.3885 46.0517 22.421 46.0817 22.446C46.1117 22.471 46.1416 22.491 46.1791 22.5035C46.2166 22.516 46.2516 22.5234 46.2941 22.5259C46.3191 22.5259 46.3466 22.5259 46.3766 22.5259C46.4066 22.5234 46.4341 22.5184 46.4616 22.511L47.3513 22.3135L47.3888 22.4885L46.504 22.6834C46.4715 22.6909 46.4341 22.6959 46.3966 22.7009C46.3591 22.7059 46.3241 22.7084 46.2916 22.7059C46.2366 22.7059 46.1816 22.6934 46.1316 22.6759C46.0817 22.6584 46.0342 22.6309 45.9917 22.5959C45.9492 22.5609 45.9117 22.5135 45.8792 22.456C45.8467 22.3985 45.8217 22.3285 45.8042 22.2485C45.7868 22.1686 45.7792 22.0986 45.7842 22.0361C45.7892 21.9736 45.8017 21.9161 45.8217 21.8686C45.8417 21.8187 45.8717 21.7762 45.9067 21.7412C45.9417 21.7037 45.9842 21.6737 46.0292 21.6487C46.0616 21.6312 46.0992 21.6137 46.1391 21.6012C46.1791 21.5887 46.2191 21.5762 46.2566 21.5687L47.1414 21.3738L47.1789 21.5487L46.2891 21.7462C46.2566 21.7537 46.2241 21.7637 46.1916 21.7762C46.1591 21.7887 46.1291 21.8037 46.1041 21.8187C46.0392 21.8586 45.9942 21.9136 45.9667 21.9786C45.9392 22.0461 45.9367 22.1261 45.9567 22.2235V22.216Z" fill="#606369"/>
<path d="M47.2092 23.8709C47.1667 23.8759 47.1317 23.8884 47.1067 23.9084C47.0817 23.9284 47.0592 23.9559 47.0442 23.9859C47.0292 24.0159 47.0192 24.0534 47.0117 24.0933C47.0042 24.1333 46.9992 24.1758 46.9917 24.2183C46.9842 24.2758 46.9742 24.3333 46.9642 24.3908C46.9542 24.4482 46.9367 24.4982 46.9117 24.5457C46.8867 24.5932 46.8518 24.6307 46.8093 24.6632C46.7643 24.6957 46.7068 24.7157 46.6318 24.7232C46.5568 24.7332 46.4894 24.7232 46.4319 24.7032C46.3744 24.6807 46.3244 24.6457 46.2819 24.6007C46.2419 24.5532 46.207 24.4957 46.182 24.4307C46.157 24.3633 46.1395 24.2883 46.132 24.2058C46.127 24.1683 46.127 24.1283 46.127 24.0883C46.127 24.0484 46.127 24.0084 46.1345 23.9734C46.1395 23.9359 46.1445 23.9034 46.152 23.8734C46.1595 23.8434 46.167 23.8184 46.1745 23.8009L46.3369 23.7834C46.3269 23.8109 46.3169 23.8409 46.3119 23.8759C46.3044 23.9109 46.2994 23.9459 46.2944 23.9809C46.2894 24.0159 46.2894 24.0534 46.2894 24.0883C46.2894 24.1233 46.2894 24.1583 46.2944 24.1883C46.2994 24.2383 46.3094 24.2883 46.3244 24.3333C46.3394 24.3783 46.3569 24.4182 46.3819 24.4507C46.4069 24.4832 46.4369 24.5082 46.4744 24.5232C46.5118 24.5382 46.5568 24.5457 46.6093 24.5382C46.6518 24.5332 46.6868 24.5207 46.7143 24.4982C46.7418 24.4757 46.7618 24.4507 46.7768 24.4182C46.7918 24.3858 46.8043 24.3508 46.8093 24.3108C46.8168 24.2708 46.8218 24.2283 46.8293 24.1833C46.8368 24.1258 46.8443 24.0683 46.8543 24.0109C46.8642 23.9559 46.8817 23.9034 46.9067 23.8584C46.9317 23.8134 46.9642 23.7734 47.0067 23.7434C47.0492 23.7135 47.1067 23.6935 47.1792 23.686C47.2541 23.6785 47.3191 23.686 47.3741 23.706C47.4316 23.7259 47.4791 23.7584 47.5191 23.8009C47.5591 23.8434 47.5915 23.8934 47.614 23.9534C47.6365 24.0109 47.654 24.0758 47.6615 24.1433C47.6715 24.2208 47.6715 24.2958 47.6615 24.3633C47.6515 24.4307 47.6415 24.4957 47.624 24.5557L47.4591 24.5732C47.4791 24.5107 47.4916 24.4457 47.5016 24.3783C47.5116 24.3133 47.5116 24.2433 47.5016 24.1683C47.4966 24.1133 47.4841 24.0658 47.4666 24.0259C47.4491 23.9859 47.4291 23.9534 47.4041 23.9309C47.3791 23.9059 47.3491 23.8884 47.3166 23.8809C47.2841 23.8709 47.2466 23.8684 47.2092 23.8734V23.8709Z" fill="#606369"/>
<path d="M47.751 27.1647L46.4439 27.1122L46.4139 27.8295L46.2515 27.822L46.289 26.9272L47.7585 26.9872L47.751 27.1647Z" fill="#606369"/>
<path d="M46.189 28.627L47.5586 29.4268L47.5361 29.5792L45.9966 29.9641L46.0241 29.7717L46.4864 29.6592L46.5739 29.0519L46.1615 28.8145L46.189 28.6245V28.627ZM47.3212 29.4693C47.1487 29.3793 46.9938 29.2943 46.8538 29.2118L46.7239 29.1369L46.6564 29.6192L46.8013 29.5842C46.9613 29.5467 47.1337 29.5093 47.3212 29.4718V29.4668V29.4693Z" fill="#606369"/>
<path d="M46.3563 31.1837L45.7665 31.0338L45.8115 30.8613L47.2361 31.2212L47.1436 31.5911C47.1286 31.6536 47.1111 31.7061 47.0961 31.7486C47.0811 31.7911 47.0636 31.8285 47.0436 31.8635C46.9911 31.956 46.9261 32.021 46.8487 32.056C46.7712 32.091 46.6837 32.0985 46.5863 32.0735C46.5288 32.0585 46.4788 32.036 46.4388 32.006C46.3988 31.976 46.3663 31.941 46.3413 31.8985C46.3163 31.856 46.2988 31.8111 46.2888 31.7586C46.2788 31.7061 46.2763 31.6511 46.2813 31.5911H46.2763L45.5615 31.8585L45.6065 31.6861L46.3063 31.3962L46.3588 31.1862L46.3563 31.1837ZM47.0361 31.3537L46.5138 31.2212L46.4713 31.3937C46.4588 31.4462 46.4488 31.4936 46.4413 31.5311C46.4363 31.5686 46.4338 31.6061 46.4338 31.6361C46.4363 31.7011 46.4538 31.7561 46.4863 31.7986C46.5188 31.841 46.5662 31.871 46.6337 31.8885C46.6962 31.9035 46.7487 31.901 46.7937 31.8785C46.8387 31.8585 46.8761 31.8211 46.9061 31.7711C46.9211 31.7486 46.9336 31.7186 46.9461 31.6836C46.9586 31.6486 46.9711 31.6036 46.9861 31.5486L47.0361 31.3512V31.3537Z" fill="#606369"/>
<path d="M45.4894 33.9103L45.6069 33.5954L45.7593 33.6503L45.5819 34.1327L44.9146 33.8853C44.9146 33.8678 44.9146 33.8428 44.9146 33.8128C44.9146 33.7828 44.9221 33.7478 44.9271 33.7103C44.9321 33.6728 44.942 33.6328 44.952 33.5904C44.962 33.5479 44.977 33.5079 44.9895 33.4679C45.0345 33.3504 45.087 33.2505 45.1545 33.173C45.2195 33.0955 45.2944 33.0355 45.3744 32.9955C45.4569 32.9555 45.5444 32.9355 45.6418 32.9355C45.7368 32.9355 45.8368 32.953 45.9418 32.993C46.0542 33.0355 46.1492 33.0905 46.2292 33.158C46.3092 33.228 46.3691 33.3054 46.4091 33.3954C46.4491 33.4854 46.4716 33.5829 46.4716 33.6903C46.4716 33.7978 46.4516 33.9053 46.4116 34.0177C46.4016 34.0477 46.3891 34.0777 46.3741 34.1077C46.3616 34.1377 46.3466 34.1652 46.3317 34.1902C46.3167 34.2152 46.3016 34.2402 46.2867 34.2602C46.2717 34.2802 46.2592 34.2977 46.2442 34.3126L46.0967 34.2577C46.1267 34.2227 46.1542 34.1777 46.1842 34.1277C46.2142 34.0777 46.2367 34.0252 46.2567 33.9727C46.2867 33.8953 46.3017 33.8153 46.3042 33.7353C46.3067 33.6553 46.2942 33.5804 46.2667 33.5079C46.2392 33.4354 46.1942 33.3704 46.1342 33.3104C46.0742 33.2505 45.9943 33.203 45.8968 33.168C45.8018 33.133 45.7143 33.1155 45.6343 33.1155C45.5544 33.1155 45.4844 33.133 45.4194 33.1655C45.3569 33.198 45.2994 33.2455 45.2519 33.3054C45.2045 33.3679 45.1645 33.4404 45.132 33.5279C45.117 33.5679 45.1045 33.6079 45.0945 33.6478C45.0845 33.6878 45.077 33.7253 45.0745 33.7578L45.4844 33.9103H45.4894Z" fill="#606369"/>
<path d="M44.5145 35.0625L44.1796 35.7373L44.0347 35.6648L44.4496 34.8301L45.7667 35.4824L45.3718 36.2822L45.2268 36.2097L45.5442 35.5724L45.1194 35.3624L44.837 35.9298L44.692 35.8573L44.9744 35.2899L44.517 35.0625H44.5145Z" fill="#606369"/>
<path d="M43.6625 38.7866C43.71 38.7191 43.7425 38.6491 43.7625 38.5742C43.7825 38.5017 43.7875 38.4267 43.775 38.3542C43.7625 38.2817 43.735 38.2118 43.69 38.1418C43.645 38.0718 43.5801 38.0093 43.4976 37.9493C43.4151 37.8919 43.3351 37.8519 43.2576 37.8319C43.1801 37.8119 43.1077 37.8094 43.0377 37.8244C42.9677 37.8394 42.9027 37.8694 42.8403 37.9143C42.7778 37.9593 42.7228 38.0193 42.6703 38.0943C42.6553 38.1143 42.6428 38.1368 42.6278 38.1593C42.6128 38.1843 42.6003 38.2093 42.5878 38.2343C42.5753 38.2592 42.5653 38.2842 42.5553 38.3092C42.5453 38.3342 42.5378 38.3567 42.5303 38.3792L42.4004 38.2892C42.4104 38.2442 42.4304 38.1968 42.4554 38.1443C42.4804 38.0918 42.5103 38.0418 42.5453 37.9918C42.6153 37.8919 42.6928 37.8144 42.7753 37.7544C42.8578 37.6969 42.9427 37.6594 43.0327 37.6444C43.1227 37.6294 43.2127 37.6344 43.3076 37.6594C43.4026 37.6844 43.495 37.7319 43.5925 37.7994C43.685 37.8644 43.7625 37.9393 43.82 38.0243C43.8774 38.1093 43.9175 38.1968 43.935 38.2892C43.9524 38.3817 43.9524 38.4792 43.9299 38.5767C43.9075 38.6741 43.8625 38.7716 43.795 38.8666C43.7775 38.8916 43.7575 38.9166 43.74 38.9391C43.7225 38.9615 43.7 38.984 43.6825 39.004C43.6625 39.024 43.6425 39.0415 43.625 39.0565C43.605 39.0715 43.5875 39.084 43.5725 39.094L43.4426 39.004C43.4801 38.9765 43.5176 38.944 43.5576 38.9066C43.595 38.8691 43.63 38.8291 43.6625 38.7866Z" fill="#606369"/>
<path d="M41.878 38.9314L42.5903 40.3485L42.4878 40.466L40.9883 39.9486L41.1157 39.8011L41.5656 39.9611L41.9705 39.4987L41.753 39.0764L41.8805 38.9314H41.878ZM42.3679 40.256C42.2729 40.0861 42.1904 39.9286 42.1155 39.7861L42.048 39.6537L41.7281 40.0211L41.868 40.0711C42.023 40.1261 42.1879 40.1885 42.3654 40.261H42.3679V40.256Z" fill="#606369"/>
<path d="M40.2134 40.7184L40.3433 40.5959L41.343 41.6731L41.0456 41.9506C41.0006 41.9905 40.9581 42.028 40.9157 42.058C40.8732 42.088 40.8307 42.1105 40.7882 42.1305C40.7032 42.168 40.6208 42.178 40.5458 42.163C40.4708 42.148 40.4008 42.108 40.3383 42.0405C40.2884 41.9856 40.2534 41.9281 40.2359 41.8656C40.2184 41.8031 40.2184 41.7406 40.2359 41.6731C40.2509 41.6057 40.2808 41.5382 40.3283 41.4707C40.3733 41.4007 40.4358 41.3307 40.5108 41.2633C40.5458 41.2308 40.5857 41.1958 40.6257 41.1633L40.2134 40.7209V40.7184ZM40.7357 41.2808C40.7157 41.2957 40.6957 41.3107 40.6757 41.3282C40.6557 41.3457 40.6358 41.3607 40.6208 41.3782C40.5583 41.4357 40.5108 41.4907 40.4758 41.5382C40.4408 41.5882 40.4183 41.6356 40.4083 41.6781C40.3983 41.7231 40.3983 41.7631 40.4108 41.8006C40.4233 41.8381 40.4458 41.8731 40.4758 41.9081C40.5158 41.9506 40.5558 41.9756 40.6007 41.983C40.6457 41.9905 40.6932 41.9831 40.7432 41.9656C40.7732 41.9531 40.8057 41.9331 40.8407 41.9106C40.8732 41.8856 40.9107 41.8556 40.9507 41.8181L41.1031 41.6756L40.7357 41.2808Z" fill="#606369"/>
<path d="M20.779 23.6377C20.8989 23.3753 22.2486 20.5436 25.3777 20.1012C27.3021 19.8288 28.8242 20.6136 29.569 21.1109C29.8439 21.2934 30.2113 21.2559 30.4437 21.021C30.991 20.4661 31.5359 19.9138 32.0832 19.3589C32.4406 18.9965 32.3931 18.4017 31.9808 18.0993C30.8861 17.292 28.9616 16.1898 26.4399 16.1149C22.7934 16.0099 19.1145 18.0943 17.355 21.5033L20.5915 24.1101C20.669 23.8926 20.739 23.7302 20.784 23.6352L20.779 23.6377Z" fill="#E13D29"/>
<path d="M20.589 24.1126L17.3524 21.5059C17.1375 21.9232 16.95 22.3581 16.7951 22.813C15.7254 25.9621 16.6151 28.7763 17.4749 30.4933L20.5265 28.0965C19.9492 26.4144 20.3091 24.8999 20.589 24.1126Z" fill="#E8B001"/>
<path d="M25.0225 31.9848C24.7801 31.9348 21.8084 31.2775 20.6363 28.4009C20.5938 28.2984 20.5588 28.1984 20.5238 28.0959L17.4722 30.4928C17.9895 31.5275 18.4969 32.1648 18.5594 32.2423C18.8468 32.5921 21.8259 36.0986 26.6695 35.8737C27.4493 35.8387 30.116 35.6188 32.4304 33.7068L29.4187 31.2175C27.6442 32.4347 25.5823 32.0998 25.02 31.9848H25.0225Z" fill="#23A35C"/>
<path d="M33.7476 32.3625C36.0794 29.4034 35.7695 26.0244 35.5321 24.7147C35.4796 24.4198 35.2222 24.2024 34.9223 24.2024H26.9421C26.6122 24.2024 26.3447 24.4698 26.3447 24.7997V27.4015C26.3447 27.7314 26.6122 27.9988 26.9421 27.9988H31.5307C31.4108 28.5436 31.0509 29.8133 29.9137 30.8305C29.7538 30.9729 29.5888 31.1004 29.4213 31.2154L32.433 33.7047C32.8903 33.3273 33.3352 32.8824 33.7476 32.36V32.3625Z" fill="#3B7DED"/>
</svg>
