<svg width="52" height="52" viewBox="0 0 52 52" fill="none" xmlns="http://www.w3.org/2000/svg">
<path d="M26 52C40.3594 52 52 40.3594 52 26C52 11.6406 40.3594 0 26 0C11.6406 0 0 11.6406 0 26C0 40.3594 11.6406 52 26 52Z" fill="#231F1E"/>
<path d="M26.0004 44.1517C15.9908 44.1517 7.84814 36.009 7.84814 25.9994C7.84814 15.9898 15.9908 7.84717 26.0004 7.84717C36.01 7.84717 44.1527 15.9898 44.1527 25.9994C44.1527 36.009 36.01 44.1517 26.0004 44.1517ZM26.0004 8.35202C16.2707 8.35202 8.35299 16.2672 8.35299 25.9994C8.35299 35.7316 16.2707 43.6468 26.0004 43.6468C35.7301 43.6468 43.6478 35.7291 43.6478 25.9994C43.6478 16.2697 35.7301 8.35202 26.0004 8.35202Z" fill="#F7A51E"/>
<path d="M26.0007 50.6201C22.6792 50.6201 19.4551 49.9678 16.416 48.6831C13.4843 47.4435 10.8501 45.669 8.59323 43.4097C6.33388 41.1503 4.5594 38.5186 3.31975 35.5869C2.03512 32.5478 1.38281 29.3212 1.38281 26.0022C1.38281 22.6831 2.03512 19.4566 3.31975 16.4174C4.5594 13.4858 6.33388 10.8515 8.59323 8.5947C10.8526 6.33535 13.4843 4.56086 16.416 3.32122C19.4551 2.03659 22.6817 1.38428 26.0007 1.38428C29.3198 1.38428 32.5463 2.03659 35.5854 3.32122C38.5171 4.56086 41.1513 6.33535 43.4082 8.5947C45.6675 10.854 47.442 13.4858 48.6817 16.4174C49.9663 19.4566 50.6186 22.6831 50.6186 26.0022C50.6186 29.3212 49.9663 32.5478 48.6817 35.5869C47.442 38.5186 45.6675 41.1528 43.4082 43.4097C41.1488 45.669 38.5171 47.4435 35.5854 48.6831C32.5463 49.9678 29.3198 50.6201 26.0007 50.6201ZM26.0007 1.74667C22.7292 1.74667 19.5526 2.38899 16.5584 3.65612C13.6693 4.87827 11.0775 6.62527 8.85066 8.84962C6.6263 11.074 4.8768 13.6682 3.65715 16.5574C2.39002 19.5515 1.7477 22.7281 1.7477 25.9997C1.7477 29.2712 2.39002 32.4478 3.65715 35.442C4.8793 38.3311 6.6263 40.9229 8.85066 43.1497C11.075 45.3741 13.6693 47.1236 16.5584 48.3432C19.5526 49.6104 22.7292 50.2527 26.0007 50.2527C29.2723 50.2527 32.4488 49.6104 35.443 48.3432C38.3321 47.1211 40.9239 45.3741 43.1508 43.1497C45.3751 40.9254 47.1246 38.3311 48.3443 35.442C49.6114 32.4478 50.2537 29.2712 50.2537 25.9997C50.2537 22.7281 49.6114 19.5515 48.3443 16.5574C47.1221 13.6682 45.3751 11.0765 43.1508 8.84962C40.9264 6.62277 38.3321 4.87577 35.443 3.65612C32.4488 2.38899 29.2723 1.74667 26.0007 1.74667Z" fill="#F7A51E"/>
<path d="M8.78705 13.7959C8.92451 13.8808 9.04198 13.9808 9.14195 14.0908C9.24192 14.2008 9.31689 14.3207 9.37188 14.4482C9.42436 14.5781 9.45435 14.7156 9.46185 14.8631C9.46685 15.0105 9.44685 15.163 9.39937 15.3254C9.37187 15.4179 9.33439 15.5129 9.28441 15.6103C9.23442 15.7078 9.17694 15.8078 9.11196 15.9153L8.77705 16.4476L6.42773 14.968L6.76513 14.4307C6.83261 14.3232 6.90009 14.2282 6.96507 14.1433C7.03005 14.0583 7.10004 13.9833 7.17251 13.9183C7.29748 13.8059 7.42744 13.7209 7.5599 13.6609C7.69236 13.6009 7.82732 13.5684 7.96478 13.5609C8.10224 13.5534 8.23971 13.5684 8.37717 13.6109C8.51463 13.6534 8.65208 13.7159 8.78954 13.8009L8.78705 13.7959ZM8.6071 14.0808C8.38216 13.9383 8.16722 13.8733 7.96228 13.8833C7.75984 13.8933 7.5699 13.9758 7.39495 14.1233C7.32747 14.1808 7.26248 14.2507 7.2 14.3332C7.13752 14.4157 7.07004 14.5132 7.00006 14.6231L6.86261 14.8431L8.69457 15.9977L8.83204 15.7778C8.90202 15.6678 8.95949 15.5654 9.00698 15.4729C9.05446 15.3804 9.08946 15.2904 9.11196 15.2055C9.17194 14.983 9.15944 14.7756 9.07446 14.5831C8.99199 14.3907 8.83453 14.2232 8.6071 14.0808Z" fill="white"/>
<path d="M11.1487 13.1061L9.06934 11.2666L9.29428 11.0142L11.3737 12.8536L11.1487 13.1061Z" fill="white"/>
<path d="M13.4281 9.42708L12.9383 9.82697L12.7458 9.58953L13.4981 8.97471L14.3479 10.0144C14.3354 10.0444 14.3129 10.0844 14.2779 10.1319C14.2454 10.1794 14.2054 10.2318 14.1579 10.2868C14.1105 10.3418 14.058 10.3993 14.0005 10.4593C13.943 10.5168 13.8805 10.5718 13.8205 10.6242C13.6356 10.7742 13.4532 10.8817 13.2707 10.9466C13.0883 11.0116 12.9133 11.0366 12.7408 11.0216C12.5684 11.0066 12.4059 10.9541 12.2485 10.8642C12.091 10.7742 11.9461 10.6467 11.8136 10.4843C11.6712 10.3093 11.5662 10.1269 11.5037 9.93943C11.4412 9.75199 11.4187 9.56454 11.4387 9.37959C11.4587 9.19465 11.5187 9.0147 11.6162 8.83975C11.7161 8.6648 11.8536 8.50735 12.0286 8.36489C12.076 8.3274 12.1235 8.28991 12.1735 8.25492C12.2235 8.21993 12.2735 8.18994 12.321 8.15995C12.3685 8.13245 12.4159 8.10746 12.4609 8.08747C12.5059 8.06747 12.5434 8.05248 12.5784 8.04248L12.7683 8.27241C12.6859 8.30241 12.5984 8.34489 12.5034 8.39988C12.4085 8.45236 12.3185 8.51484 12.236 8.58232C12.1135 8.6823 12.0136 8.79476 11.9311 8.92473C11.8511 9.05219 11.7986 9.18715 11.7761 9.33211C11.7536 9.47707 11.7611 9.62452 11.8036 9.77948C11.8461 9.93444 11.9286 10.0869 12.0535 10.2393C12.176 10.3893 12.301 10.4993 12.4309 10.5743C12.5609 10.6492 12.6934 10.6892 12.8283 10.6967C12.9633 10.7042 13.0983 10.6817 13.2357 10.6267C13.3732 10.5718 13.5081 10.4893 13.6406 10.3793C13.7031 10.3293 13.7606 10.2743 13.8155 10.2194C13.8705 10.1644 13.9155 10.1119 13.953 10.0619L13.4306 9.42208L13.4281 9.42708Z" fill="white"/>
<path d="M16.038 9.03959L14.6509 6.63528L14.9433 6.46533L16.3304 8.86964L16.038 9.03959Z" fill="white"/>
<path d="M19.0016 7.61507L18.6867 7.73754L17.787 5.4357L16.9222 5.77311L16.8123 5.48819L18.8542 4.69092L18.9641 4.97584L18.0994 5.31324L18.9991 7.61507H19.0016Z" fill="white"/>
<path d="M20.9864 6.93554L21.5687 3.99639L21.8561 3.94141L23.4932 6.45068L23.1333 6.52066L22.6484 5.76338L21.5087 5.98332L21.3413 6.86806L20.9839 6.93804L20.9864 6.93554ZM21.7911 4.39378C21.7362 4.75617 21.6787 5.08608 21.6212 5.38599L21.5687 5.66341L22.471 5.48846L22.3185 5.25103C22.151 4.9911 21.9786 4.70369 21.7987 4.39128H21.7911V4.39378Z" fill="white"/>
<path d="M25.4446 3.56641L25.4846 6.03819L26.8392 6.0157L26.8442 6.32061L25.1522 6.3481L25.1072 3.5739L25.4446 3.56891V3.56641Z" fill="white"/>
<path d="M30.2512 6.7527L32.1082 4.40088L32.3881 4.48336L32.703 7.465L32.3506 7.36252L32.2657 6.46778L31.151 6.14538L30.6011 6.85517L30.2537 6.7552L30.2512 6.7527ZM32.1257 4.85575C31.9107 5.15316 31.7108 5.42058 31.5234 5.66301L31.3509 5.88545L32.2356 6.14038L32.2082 5.86046C32.1782 5.55305 32.1557 5.21814 32.1357 4.85825H32.1282L32.1257 4.85575Z" fill="white"/>
<path d="M35.4074 6.42571C35.3699 6.49818 35.3549 6.56567 35.3599 6.62815C35.3649 6.69063 35.3849 6.75061 35.4174 6.8056C35.4524 6.86308 35.4949 6.91556 35.5524 6.97055C35.6074 7.02303 35.6673 7.07802 35.7298 7.1305C35.8123 7.20298 35.8948 7.27796 35.9723 7.35294C36.0497 7.42792 36.1122 7.51039 36.1597 7.59787C36.2072 7.68534 36.2322 7.78032 36.2347 7.88279C36.2372 7.98526 36.2072 8.10022 36.1447 8.22519C36.0797 8.35265 35.9973 8.45012 35.9023 8.5201C35.8048 8.58758 35.6998 8.63007 35.5824 8.64507C35.4674 8.66006 35.3424 8.65256 35.21 8.62257C35.0775 8.59258 34.9426 8.5401 34.8051 8.47012C34.7401 8.43763 34.6776 8.40014 34.6151 8.35765C34.5527 8.31516 34.4927 8.27267 34.4402 8.22769C34.3852 8.1827 34.3402 8.14021 34.2977 8.09772C34.2577 8.05524 34.2278 8.01775 34.2078 7.98526L34.3477 7.71034C34.3802 7.75532 34.4202 7.80031 34.4652 7.8478C34.5102 7.89528 34.5602 7.94027 34.6126 7.98276C34.6651 8.02524 34.7201 8.06773 34.7751 8.10522C34.8326 8.14271 34.8876 8.1752 34.9401 8.20269C35.025 8.24768 35.1125 8.28267 35.1975 8.30766C35.2825 8.33266 35.3649 8.34265 35.4399 8.34015C35.5174 8.33516 35.5874 8.31266 35.6524 8.27017C35.7173 8.22769 35.7723 8.1627 35.8198 8.07273C35.8573 7.99775 35.8748 7.93027 35.8673 7.86779C35.8598 7.80531 35.8423 7.74283 35.8073 7.68784C35.7723 7.63036 35.7273 7.57537 35.6723 7.52289C35.6174 7.4704 35.5574 7.41542 35.4924 7.36044C35.4074 7.28796 35.3274 7.21548 35.25 7.1405C35.1725 7.06552 35.11 6.98554 35.0625 6.89807C35.015 6.81309 34.99 6.71812 34.9875 6.61815C34.9825 6.51818 35.0125 6.40821 35.075 6.28825C35.14 6.16328 35.2175 6.06581 35.31 6.00083C35.4024 5.93585 35.5024 5.89086 35.6124 5.87337C35.7223 5.85337 35.8348 5.85837 35.9498 5.88086C36.0672 5.90586 36.1822 5.94584 36.2972 6.00583C36.4296 6.07331 36.5446 6.14829 36.6471 6.23326C36.747 6.31574 36.8345 6.40321 36.9095 6.49319L36.767 6.77311C36.687 6.67813 36.5996 6.58816 36.5046 6.50568C36.4096 6.42321 36.2997 6.34823 36.1772 6.28325C36.0847 6.23576 35.9973 6.20327 35.9173 6.18827C35.8373 6.17328 35.7648 6.17328 35.6998 6.18827C35.6349 6.20327 35.5774 6.23076 35.5274 6.27325C35.4774 6.31574 35.4349 6.36822 35.4024 6.4332L35.4074 6.42571Z" fill="white"/>
<path d="M38.7908 8.45235C38.7408 8.51733 38.7133 8.57982 38.7058 8.6423C38.6983 8.70478 38.7058 8.76726 38.7308 8.82724C38.7533 8.88973 38.7883 8.94971 38.8333 9.01469C38.8783 9.07717 38.9258 9.13965 38.9783 9.20464C39.0482 9.29211 39.1132 9.37958 39.1757 9.46706C39.2382 9.55703 39.2857 9.64701 39.3156 9.74198C39.3456 9.83695 39.3531 9.93442 39.3381 10.0369C39.3232 10.1394 39.2732 10.2468 39.1857 10.3568C39.0982 10.4718 39.0007 10.5517 38.8933 10.6017C38.7858 10.6517 38.6733 10.6742 38.5584 10.6667C38.4409 10.6617 38.3209 10.6317 38.196 10.5767C38.071 10.5218 37.9486 10.4468 37.8236 10.3518C37.7661 10.3068 37.7111 10.2593 37.6561 10.2068C37.6011 10.1544 37.5512 10.0994 37.5062 10.0469C37.4612 9.99441 37.4237 9.94192 37.3912 9.89194C37.3587 9.84195 37.3362 9.80196 37.3237 9.76697L37.5112 9.52204C37.5362 9.57203 37.5662 9.62451 37.6036 9.6795C37.6411 9.73448 37.6811 9.78697 37.7236 9.83945C37.7686 9.89194 37.8136 9.94192 37.8611 9.98941C37.9086 10.0369 37.9585 10.0794 38.006 10.1144C38.0835 10.1744 38.161 10.2243 38.241 10.2643C38.3209 10.3043 38.3984 10.3293 38.4759 10.3393C38.5509 10.3493 38.6259 10.3393 38.6983 10.3093C38.7708 10.2793 38.8358 10.2243 38.8983 10.1444C38.9483 10.0794 38.9782 10.0144 38.9832 9.94942C38.9882 9.88444 38.9807 9.82196 38.9583 9.75947C38.9358 9.69699 38.9008 9.63451 38.8558 9.57203C38.8108 9.50955 38.7608 9.44457 38.7083 9.37958C38.6383 9.29461 38.5709 9.20713 38.5084 9.11966C38.4459 9.03218 38.3984 8.94221 38.3684 8.84974C38.3384 8.75726 38.3309 8.65979 38.3434 8.56232C38.3559 8.46485 38.4059 8.35988 38.4884 8.25241C38.5734 8.13994 38.6683 8.05996 38.7708 8.00998C38.8733 7.95999 38.9808 7.9375 39.0907 7.9375C39.2007 7.9375 39.3106 7.96249 39.4206 8.00748C39.5306 8.05247 39.6381 8.11495 39.7405 8.19493C39.858 8.2849 39.958 8.37987 40.0429 8.47984C40.1279 8.57981 40.1979 8.68229 40.2529 8.78226L40.0629 9.02969C40.0004 8.92222 39.9305 8.81725 39.853 8.71977C39.7755 8.6223 39.6805 8.52983 39.5706 8.44235C39.4881 8.37737 39.4081 8.33239 39.3331 8.3024C39.2582 8.2724 39.1882 8.25991 39.1207 8.26241C39.0532 8.26241 38.9932 8.2824 38.9358 8.31489C38.8783 8.34738 38.8283 8.39237 38.7833 8.44985L38.7908 8.45235Z" fill="white"/>
<path d="M40.5076 12.2716L41.4598 13.3288L41.2324 13.5338L40.0527 12.2267L42.1146 10.3672L43.2418 11.6168L43.0144 11.8218L42.1121 10.8221L41.4473 11.4219L42.2496 12.3116L42.0222 12.5166L41.2199 11.6268L40.5026 12.2741L40.5076 12.2716Z" fill="white"/>
<path d="M42.8427 15.8452L42.6653 15.5578L44.7697 14.2632L44.2823 13.4734L44.5422 13.3135L45.6919 15.1804L45.432 15.3404L44.9446 14.5506L42.8402 15.8452H42.8427Z" fill="white"/>
<path d="M18.9694 46.8338L17.8672 46.414L17.2974 47.0513L16.7275 46.8338L19.0044 44.3521L19.4942 44.5395L19.5392 47.9085L18.9719 47.6936V46.8388L18.9694 46.8338ZM18.9769 45.1468C18.757 45.4142 18.5695 45.6342 18.4096 45.8091L18.2096 46.0316L18.9644 46.319V46.0216C18.9644 45.7841 18.9694 45.4942 18.9819 45.1493H18.9719L18.9769 45.1468Z" fill="white"/>
<path d="M23.6925 47.8082C23.785 47.5683 23.8925 47.3133 24.0199 47.0434L24.6972 45.6038L25.4995 45.6788L25.2071 48.7954L24.6373 48.7429L24.7847 47.1634C24.8072 46.931 24.8422 46.6635 24.8897 46.3611H24.8697C24.8347 46.4461 24.7947 46.5411 24.7497 46.6485C24.7047 46.756 24.6573 46.861 24.6073 46.9634L23.7975 48.663L23.4301 48.628L22.9502 46.806C22.9203 46.696 22.8953 46.5836 22.8703 46.4686C22.8453 46.3561 22.8228 46.2537 22.8053 46.1612H22.7853C22.7778 46.4486 22.7603 46.716 22.7378 46.9659L22.5904 48.548L22.0205 48.4955L22.3129 45.3789L23.1102 45.4539L23.5101 46.9884C23.5776 47.2434 23.6375 47.5183 23.69 47.8082H23.705H23.6925Z" fill="white"/>
<path d="M29.754 45.1616L29.8064 45.469L28.5393 48.0533L30.2113 47.7734L30.2913 48.2457L27.8645 48.6506L27.8145 48.3457L29.0816 45.7589L27.4696 46.0289L27.3896 45.5565L29.754 45.1616Z" fill="white"/>
<path d="M33.6324 45.3142C33.9673 45.5166 34.2497 45.7015 34.4771 45.8715L34.4896 45.8665C34.3072 45.5016 34.1797 45.2342 34.1047 45.0642L33.5299 43.7671L34.0548 43.5347L35.3219 46.3963L34.7721 46.6388L33.255 45.734C32.9901 45.5791 32.7026 45.3891 32.3952 45.1667L32.3827 45.1717C32.5552 45.5141 32.6852 45.784 32.7701 45.9765L33.345 47.2736L32.8201 47.506L31.553 44.6443L32.1028 44.4019L33.6349 45.3167L33.6324 45.3142Z" fill="white"/>
<path d="M11.7816 40.7155C11.7441 40.6781 11.7041 40.6506 11.6666 40.6306C11.6291 40.6106 11.5891 40.5981 11.5516 40.5931C11.5141 40.5881 11.4767 40.5906 11.4392 40.5981C11.4017 40.6056 11.3667 40.6206 11.3317 40.6406C11.3092 40.6531 11.2867 40.6681 11.2642 40.6881C11.2417 40.708 11.2192 40.728 11.2017 40.748L10.5669 41.4028L10.4395 41.2779L11.0718 40.6256C11.0968 40.6006 11.1218 40.5756 11.1517 40.5531C11.1792 40.5281 11.2092 40.5081 11.2367 40.4906C11.2842 40.4606 11.3342 40.4406 11.3867 40.4256C11.4392 40.4131 11.4917 40.4081 11.5491 40.4156C11.6066 40.4231 11.6616 40.4406 11.7191 40.4706C11.7766 40.5006 11.8366 40.5456 11.8965 40.6031C11.954 40.6581 11.999 40.7155 12.0315 40.7705C12.064 40.8255 12.084 40.8805 12.094 40.933C12.104 40.9855 12.104 41.0379 12.094 41.0879C12.084 41.1379 12.0665 41.1854 12.044 41.2329C12.0265 41.2679 12.004 41.3004 11.979 41.3329C11.954 41.3654 11.9265 41.3978 11.899 41.4253L11.2667 42.0777L11.1392 41.9527L11.7741 41.2979C11.7966 41.2754 11.819 41.2479 11.839 41.2204C11.859 41.1929 11.8765 41.1654 11.889 41.1379C11.919 41.0679 11.929 40.998 11.914 40.928C11.899 40.858 11.8565 40.788 11.7866 40.718L11.7816 40.7155Z" fill="white"/>
<path d="M9.82691 40.0255C9.8594 39.998 9.8819 39.968 9.89189 39.9356C9.90189 39.9031 9.90438 39.8706 9.89938 39.8356C9.89439 39.8006 9.88439 39.7656 9.86689 39.7281C9.8519 39.6906 9.83191 39.6531 9.81442 39.6132C9.78942 39.5607 9.76442 39.5082 9.74193 39.4557C9.71944 39.4032 9.70695 39.3507 9.70195 39.2982C9.69695 39.2458 9.70195 39.1933 9.72445 39.1433C9.74444 39.0933 9.78192 39.0433 9.8394 38.9958C9.89689 38.9458 9.95688 38.9159 10.0194 38.9034C10.0818 38.8909 10.1418 38.8909 10.2018 38.9084C10.2618 38.9258 10.3218 38.9533 10.3793 38.9958C10.4367 39.0383 10.4917 39.0908 10.5467 39.1533C10.5717 39.1833 10.5942 39.2133 10.6167 39.2483C10.6392 39.2832 10.6592 39.3157 10.6742 39.3482C10.6892 39.3807 10.7042 39.4132 10.7167 39.4407C10.7267 39.4707 10.7342 39.4932 10.7367 39.5132L10.6117 39.6182C10.6042 39.5882 10.5942 39.5582 10.5817 39.5257C10.5692 39.4932 10.5542 39.4607 10.5367 39.4282C10.5192 39.3957 10.5017 39.3657 10.4817 39.3357C10.4617 39.3057 10.4417 39.2782 10.4217 39.2533C10.3893 39.2133 10.3543 39.1783 10.3168 39.1483C10.2793 39.1183 10.2418 39.0958 10.2043 39.0833C10.1668 39.0683 10.1268 39.0658 10.0868 39.0733C10.0468 39.0808 10.0069 39.1008 9.96437 39.1358C9.93188 39.1633 9.90938 39.1933 9.89938 39.2258C9.88939 39.2583 9.8869 39.2907 9.89189 39.3257C9.89689 39.3607 9.90689 39.3982 9.92439 39.4357C9.93938 39.4732 9.95937 39.5107 9.97936 39.5507C10.0069 39.6032 10.0294 39.6556 10.0519 39.7081C10.0743 39.7606 10.0868 39.8131 10.0918 39.8631C10.0968 39.9156 10.0918 39.9656 10.0718 40.0155C10.0518 40.0655 10.0169 40.113 9.96187 40.158C9.90438 40.2055 9.84691 40.238 9.78693 40.2505C9.72945 40.263 9.66946 40.2655 9.61448 40.2505C9.557 40.238 9.5045 40.213 9.45202 40.178C9.39953 40.143 9.35204 40.098 9.30706 40.0455C9.25707 39.9855 9.21459 39.9256 9.18459 39.8631C9.1521 39.8006 9.12711 39.7406 9.10962 39.6831L9.23708 39.5757C9.25708 39.6381 9.27957 39.7006 9.30956 39.7606C9.33955 39.8206 9.37704 39.8781 9.42453 39.9356C9.45952 39.978 9.49701 40.0105 9.532 40.0355C9.56699 40.058 9.60197 40.0755 9.63696 40.0805C9.67195 40.088 9.70445 40.0855 9.73694 40.0755C9.76943 40.0655 9.80192 40.048 9.83191 40.023L9.82691 40.0255Z" fill="white"/>
<path d="M7.55522 37.5791L8.67491 36.9043L8.305 36.2895L8.44248 36.207L8.90484 36.9743L7.64521 37.7316L7.55273 37.5791H7.55522Z" fill="white"/>
<path d="M8.05261 35.4947L6.46806 35.5796L6.40308 35.4397L7.47528 34.27L7.55774 34.445L7.23284 34.7924L7.49526 35.3472L7.97013 35.3172L8.05261 35.4922V35.4947ZM6.64301 35.4147C6.83546 35.3947 7.0129 35.3822 7.17286 35.3722L7.32031 35.3622L7.11288 34.9223L7.0104 35.0323C6.89793 35.1523 6.77547 35.2772 6.63801 35.4122V35.4172L6.64301 35.4147Z" fill="white"/>
<path d="M6.50803 33.4602L7.08287 33.2602L7.14285 33.4302L5.75576 33.915L5.63079 33.5551C5.6108 33.4951 5.5933 33.4427 5.58331 33.3977C5.57331 33.3527 5.56581 33.3127 5.56331 33.2727C5.55581 33.1677 5.5758 33.0778 5.62079 33.0053C5.66577 32.9328 5.73576 32.8778 5.83073 32.8453C5.88572 32.8253 5.9407 32.8178 5.99069 32.8203C6.04068 32.8203 6.08815 32.8353 6.13314 32.8553C6.17812 32.8753 6.21812 32.9053 6.25311 32.9453C6.2906 32.9828 6.32309 33.0278 6.35059 33.0803H6.35558L6.80544 32.4604L6.86544 32.6304L6.44056 33.2577L6.51303 33.4627L6.50803 33.4602ZM5.84823 33.6901L6.35558 33.5126L6.2981 33.3452C6.2806 33.2927 6.2631 33.2502 6.24561 33.2152C6.23061 33.1802 6.21063 33.1502 6.19313 33.1228C6.15564 33.0703 6.11065 33.0353 6.06066 33.0178C6.01068 33.0003 5.95319 33.0028 5.88821 33.0228C5.82823 33.0453 5.78574 33.0753 5.76075 33.1178C5.73575 33.1602 5.72327 33.2102 5.72577 33.2677C5.72577 33.2952 5.73077 33.3277 5.74076 33.3627C5.74826 33.3977 5.76325 33.4427 5.78074 33.4952L5.84823 33.6876V33.6901Z" fill="white"/>
<path d="M5.73049 30.7036L5.80547 31.031L5.64803 31.0685L5.53305 30.5686L6.22536 30.4087C6.23786 30.4212 6.25035 30.4412 6.26534 30.4687C6.28034 30.4962 6.29533 30.5262 6.31033 30.5636C6.32532 30.5986 6.34032 30.6386 6.35531 30.6786C6.37031 30.7211 6.38031 30.7611 6.39031 30.8036C6.4178 30.926 6.42779 31.0385 6.41529 31.141C6.4028 31.2435 6.37531 31.3309 6.32782 31.4109C6.28034 31.4884 6.21785 31.5534 6.13788 31.6083C6.0579 31.6608 5.96293 31.7008 5.85546 31.7258C5.73799 31.7533 5.62803 31.7583 5.52306 31.7458C5.41809 31.7333 5.32561 31.6983 5.24313 31.6458C5.16065 31.5934 5.08818 31.5234 5.0282 31.4359C4.96821 31.3484 4.92574 31.246 4.89824 31.1285C4.89075 31.0985 4.88575 31.066 4.88075 31.0335C4.87575 31.001 4.87324 30.971 4.87074 30.941C4.87074 30.911 4.86824 30.8836 4.87074 30.8586C4.87074 30.8336 4.87324 30.8111 4.87574 30.7936L5.0307 30.7586C5.0257 30.8036 5.0257 30.8561 5.0307 30.9135C5.0332 30.971 5.04319 31.0285 5.05568 31.0835C5.07568 31.166 5.10568 31.2385 5.14567 31.3084C5.18816 31.3759 5.24064 31.4334 5.30313 31.4784C5.36561 31.5234 5.43809 31.5534 5.52306 31.5709C5.60804 31.5884 5.69801 31.5834 5.80048 31.5609C5.90045 31.5384 5.98292 31.5034 6.04791 31.4584C6.11289 31.4134 6.16287 31.3609 6.19786 31.2984C6.23285 31.236 6.25284 31.166 6.26034 31.0885C6.26534 31.011 6.26035 30.926 6.23785 30.8386C6.22786 30.7961 6.21786 30.7561 6.20286 30.7186C6.19036 30.6786 6.17537 30.6461 6.16038 30.6161L5.7355 30.7136L5.73049 30.7036Z" fill="white"/>
<path d="M5.91324 29.2067L5.82075 28.4594L5.98071 28.4395L6.09568 29.3642L4.63609 29.5441L4.52612 28.6594L4.68608 28.6394L4.77356 29.3467L5.24341 29.2892L5.16594 28.6594L5.3259 28.6394L5.40337 29.2692L5.91073 29.2067H5.91324Z" fill="white"/>
<path d="M4.57097 25.6299C4.57097 25.7124 4.57847 25.7899 4.60346 25.8624C4.62846 25.9348 4.66345 25.9973 4.71343 26.0523C4.76342 26.1073 4.8259 26.1498 4.90088 26.1823C4.97586 26.2148 5.06583 26.2322 5.1658 26.2347C5.26577 26.2372 5.35574 26.2272 5.43072 26.1998C5.5057 26.1748 5.56818 26.1348 5.61817 26.0848C5.66815 26.0348 5.70565 25.9723 5.73314 25.8998C5.75813 25.8274 5.77313 25.7474 5.77562 25.6574C5.77562 25.6324 5.77562 25.6074 5.77562 25.5799C5.77562 25.5524 5.77063 25.525 5.76813 25.4975C5.76314 25.47 5.76064 25.4425 5.75314 25.415C5.74814 25.3875 5.74064 25.365 5.73564 25.345L5.8931 25.35C5.90809 25.3925 5.92059 25.445 5.92809 25.5025C5.93559 25.5599 5.93808 25.6174 5.93558 25.6774C5.93308 25.7999 5.91059 25.9073 5.8756 25.9998C5.83811 26.0923 5.78813 26.1723 5.72315 26.2322C5.65817 26.2947 5.57819 26.3397 5.48572 26.3697C5.39324 26.3997 5.28827 26.4122 5.1708 26.4097C5.05584 26.4072 4.95087 26.3872 4.85839 26.3472C4.76342 26.3097 4.68345 26.2572 4.61597 26.1898C4.54849 26.1223 4.49851 26.0423 4.46102 25.9473C4.42353 25.8524 4.40853 25.7474 4.41353 25.6324C4.41353 25.6024 4.41602 25.5724 4.42102 25.5424C4.42602 25.5125 4.42851 25.485 4.43351 25.4575C4.43851 25.43 4.44601 25.405 4.45351 25.3825C4.46101 25.36 4.46851 25.34 4.47601 25.3225L4.63345 25.3275C4.61846 25.3725 4.60347 25.42 4.59347 25.4725C4.58347 25.525 4.57597 25.5774 4.57347 25.6299H4.57097Z" fill="white"/>
<path d="M5.98062 24.5178L4.60352 23.7281L4.62351 23.5756L6.16058 23.1782L6.13557 23.3707L5.67321 23.4856L5.59073 24.0955L6.00562 24.3279L5.98062 24.5178ZM4.83845 23.6856C5.0109 23.7756 5.16835 23.8605 5.30831 23.938L5.43828 24.0105L5.50327 23.5281L5.3583 23.5656C5.19835 23.6056 5.02589 23.6431 4.83845 23.6806V23.6856Z" fill="white"/>
<path d="M6.38338 22.111L6.3409 22.2859L4.91382 21.9385L5.00878 21.5436C5.02377 21.4837 5.03877 21.4312 5.05877 21.3837C5.07876 21.3362 5.10126 21.2912 5.12625 21.2537C5.17874 21.1763 5.23872 21.1213 5.3112 21.0938C5.38367 21.0638 5.46366 21.0613 5.55113 21.0813C5.62361 21.0988 5.68359 21.1288 5.73107 21.1713C5.77856 21.2137 5.81605 21.2662 5.83854 21.3312C5.86103 21.3937 5.87353 21.4687 5.87353 21.5511C5.87353 21.6336 5.86105 21.7261 5.83605 21.8261C5.82356 21.8736 5.81105 21.9235 5.79355 21.9735L6.38089 22.116L6.38338 22.111ZM5.6361 21.9285C5.6436 21.906 5.6536 21.881 5.6611 21.8561C5.6686 21.8311 5.67608 21.8061 5.68108 21.7836C5.70108 21.7011 5.71108 21.6311 5.71358 21.5686C5.71358 21.5087 5.70859 21.4562 5.69109 21.4137C5.67609 21.3712 5.65109 21.3387 5.6211 21.3137C5.59111 21.2887 5.55113 21.2712 5.50615 21.2612C5.45116 21.2487 5.40117 21.2512 5.35868 21.2687C5.31619 21.2862 5.2812 21.3187 5.24871 21.3637C5.22872 21.3912 5.21372 21.4237 5.19872 21.4637C5.18373 21.5037 5.17124 21.5486 5.15874 21.6011L5.10875 21.8036L5.6336 21.931L5.6361 21.9285Z" fill="white"/>
<path d="M13.4785 43.2499L14.0184 43.6747L13.3311 43.6447L13.0936 44.2896L12.9087 43.6273L12.2239 43.5998L12.7962 43.2199L12.6088 42.5601L13.1461 42.9874L13.7184 42.605L13.4785 43.2499Z" fill="#F7A51E"/>
<path d="M6.44828 17.8871L7.41051 17.8396L6.65823 18.4394L7.00063 19.3392L6.19585 18.8093L5.44607 19.4117L5.701 18.4844L4.89624 17.9571L5.85846 17.9146L6.11089 16.9849L6.44828 17.8871Z" fill="#F7A51E"/>
<path d="M39.001 43.2499L38.4612 43.6747L39.146 43.6447L39.3834 44.2896L39.5684 43.6273L40.2557 43.5998L39.6808 43.2199L39.8683 42.5601L39.3309 42.9874L38.7586 42.605L39.001 43.2499Z" fill="#F7A51E"/>
<path d="M46.0291 17.8871L45.0669 17.8396L45.8217 18.4394L45.4793 19.3392L46.2815 18.8093L47.0338 19.4117L46.7764 18.4844L47.5837 17.9571L46.619 17.9146L46.3665 16.9849L46.0291 17.8871Z" fill="#F7A51E"/>
<path d="M45.9569 22.2158C45.9694 22.2683 45.9844 22.3133 46.0069 22.3508C46.0294 22.3882 46.0519 22.4207 46.0819 22.4457C46.1119 22.4707 46.1419 22.4907 46.1794 22.5032C46.2144 22.5157 46.2518 22.5232 46.2943 22.5257C46.3193 22.5257 46.3468 22.5257 46.3768 22.5257C46.4068 22.5232 46.4343 22.5182 46.4618 22.5107L47.3515 22.3133L47.389 22.4882L46.5043 22.6832C46.4718 22.6907 46.4343 22.6957 46.3968 22.7007C46.3593 22.7057 46.3243 22.7082 46.2918 22.7057C46.2369 22.7057 46.1819 22.6932 46.1319 22.6757C46.0819 22.6582 46.0344 22.6307 45.9919 22.5957C45.9494 22.5607 45.9119 22.5132 45.8795 22.4557C45.847 22.3982 45.822 22.3283 45.8045 22.2483C45.787 22.1683 45.7795 22.0983 45.7845 22.0358C45.7895 21.9734 45.802 21.9159 45.822 21.8684C45.842 21.8184 45.872 21.7759 45.9069 21.7409C45.9419 21.7034 45.9844 21.6735 46.0294 21.6485C46.0619 21.631 46.0994 21.6135 46.1394 21.601C46.1794 21.5885 46.2194 21.576 46.2568 21.5685L47.1416 21.3735L47.1791 21.5485L46.2893 21.7459C46.2568 21.7534 46.2244 21.7634 46.1919 21.7759C46.1594 21.7884 46.1294 21.8034 46.1044 21.8184C46.0394 21.8584 45.9944 21.9134 45.9669 21.9784C45.9394 22.0458 45.9369 22.1258 45.9569 22.2233V22.2158Z" fill="white"/>
<path d="M47.2088 23.8709C47.1664 23.8759 47.1314 23.8884 47.1064 23.9084C47.0814 23.9284 47.0589 23.9559 47.0439 23.9859C47.0289 24.0159 47.0189 24.0534 47.0114 24.0933C47.0039 24.1333 46.9989 24.1758 46.9914 24.2183C46.9839 24.2758 46.9739 24.3333 46.9639 24.3908C46.9539 24.4482 46.9364 24.4982 46.9114 24.5457C46.8864 24.5932 46.8514 24.6307 46.8089 24.6632C46.7665 24.6957 46.7065 24.7157 46.6315 24.7232C46.5565 24.7332 46.4891 24.7232 46.4316 24.7032C46.3741 24.6807 46.3241 24.6457 46.2841 24.6007C46.2441 24.5532 46.2091 24.4957 46.1841 24.4307C46.1591 24.3633 46.1417 24.2883 46.1342 24.2058C46.1292 24.1683 46.1267 24.1283 46.1292 24.0883C46.1292 24.0484 46.1292 24.0084 46.1367 23.9734C46.1417 23.9359 46.1466 23.9034 46.1541 23.8734C46.1616 23.8434 46.1691 23.8184 46.1766 23.8009L46.3391 23.7834C46.3291 23.8109 46.3191 23.8409 46.3141 23.8759C46.3091 23.9109 46.3016 23.9459 46.2966 23.9809C46.2916 24.0159 46.2916 24.0534 46.2916 24.0883C46.2916 24.1233 46.2916 24.1583 46.2966 24.1883C46.3016 24.2383 46.3116 24.2883 46.3266 24.3333C46.3416 24.3783 46.3591 24.4182 46.3841 24.4507C46.4091 24.4832 46.4391 24.5082 46.4766 24.5232C46.514 24.5382 46.559 24.5457 46.6115 24.5382C46.654 24.5332 46.6915 24.5207 46.7165 24.4982C46.7415 24.4757 46.764 24.4507 46.779 24.4182C46.794 24.3858 46.8065 24.3508 46.8115 24.3108C46.8189 24.2708 46.824 24.2283 46.8315 24.1833C46.8389 24.1258 46.8464 24.0683 46.8564 24.0109C46.8664 23.9559 46.8839 23.9034 46.9089 23.8584C46.9339 23.8134 46.9664 23.7734 47.0089 23.7434C47.0514 23.7135 47.1089 23.6935 47.1814 23.686C47.2563 23.6785 47.3213 23.686 47.3763 23.706C47.4338 23.7259 47.4813 23.7584 47.5213 23.8009C47.5612 23.8434 47.5937 23.8934 47.6162 23.9534C47.6387 24.0109 47.6562 24.0758 47.6637 24.1433C47.6737 24.2208 47.6737 24.2958 47.6637 24.3633C47.6537 24.4307 47.6437 24.4957 47.6262 24.5557L47.4613 24.5732C47.4813 24.5107 47.4938 24.4457 47.5038 24.3783C47.5138 24.3133 47.5138 24.2433 47.5038 24.1683C47.4963 24.1133 47.4863 24.0658 47.4688 24.0259C47.4513 23.9859 47.4313 23.9534 47.4063 23.9309C47.3813 23.9084 47.3513 23.8884 47.3188 23.8809C47.2863 23.8709 47.2488 23.8684 47.2113 23.8734L47.2088 23.8709Z" fill="white"/>
<path d="M47.751 27.1647L46.4439 27.1122L46.4139 27.8295L46.2515 27.822L46.289 26.9272L47.7585 26.9872L47.751 27.1647Z" fill="white"/>
<path d="M46.1888 28.627L47.5584 29.4268L47.5359 29.5792L45.9963 29.9641L46.0238 29.7717L46.4862 29.6592L46.5737 29.0519L46.1613 28.8145L46.1888 28.6245V28.627ZM47.321 29.4693C47.1485 29.3793 46.9936 29.2943 46.8536 29.2118L46.7236 29.1369L46.6536 29.6192L46.7986 29.5842C46.9586 29.5467 47.131 29.5093 47.3185 29.4718V29.4668L47.321 29.4693Z" fill="white"/>
<path d="M46.3559 31.1837L45.766 31.0338L45.8085 30.8613L47.2331 31.2212L47.1406 31.5911C47.1256 31.6536 47.1082 31.7061 47.0932 31.7486C47.0782 31.7911 47.0607 31.8285 47.0407 31.8635C46.9882 31.956 46.9232 32.021 46.8457 32.056C46.7683 32.091 46.6808 32.0985 46.5833 32.0735C46.5258 32.0585 46.4758 32.036 46.4358 32.006C46.3959 31.976 46.3634 31.941 46.3384 31.8985C46.3134 31.856 46.2959 31.8111 46.2859 31.7586C46.2759 31.7061 46.2734 31.6511 46.2784 31.5911H46.2734L45.5586 31.8585L45.6011 31.6861L46.3009 31.3962L46.3534 31.1862L46.3559 31.1837ZM47.0357 31.3537L46.5133 31.2212L46.4708 31.3937C46.4583 31.4462 46.4483 31.4936 46.4408 31.5311C46.4358 31.5686 46.4333 31.6061 46.4333 31.6361C46.4358 31.7011 46.4533 31.7561 46.4858 31.7986C46.5183 31.841 46.5658 31.871 46.6308 31.8885C46.6933 31.9035 46.7458 31.901 46.7908 31.8785C46.8357 31.856 46.8732 31.8211 46.9032 31.7711C46.9182 31.7486 46.9307 31.7186 46.9432 31.6836C46.9557 31.6486 46.9682 31.6036 46.9832 31.5486L47.0332 31.3512L47.0357 31.3537Z" fill="white"/>
<path d="M45.4889 33.9103L45.6064 33.5954L45.7588 33.6503L45.5814 34.1327L44.9141 33.8853C44.9141 33.8678 44.9141 33.8428 44.9141 33.8128C44.9141 33.7828 44.9216 33.7478 44.9266 33.7103C44.9316 33.6728 44.9415 33.6328 44.9515 33.5904C44.9615 33.5479 44.974 33.5079 44.989 33.4679C45.0315 33.3504 45.0865 33.2505 45.154 33.173C45.219 33.0955 45.2939 33.0355 45.3739 32.9955C45.4564 32.9555 45.5439 32.9355 45.6413 32.9355C45.7363 32.9355 45.8363 32.953 45.9413 32.993C46.0537 33.0355 46.1487 33.0905 46.2287 33.158C46.3087 33.228 46.3686 33.3054 46.4086 33.3954C46.4486 33.4854 46.4711 33.5829 46.4711 33.6903C46.4711 33.7953 46.4511 33.9053 46.4111 34.0177C46.4011 34.0477 46.3886 34.0777 46.3736 34.1077C46.3611 34.1377 46.3461 34.1652 46.3311 34.1902C46.3162 34.2152 46.3012 34.2402 46.2862 34.2602C46.2712 34.2802 46.2587 34.2977 46.2437 34.3126L46.0962 34.2577C46.1262 34.2227 46.1537 34.1777 46.1837 34.1277C46.2137 34.0777 46.2362 34.0252 46.2562 33.9727C46.2862 33.8953 46.3012 33.8153 46.3037 33.7353C46.3037 33.6553 46.2937 33.5804 46.2662 33.5079C46.2387 33.4354 46.1937 33.3704 46.1337 33.3104C46.0737 33.2505 45.9937 33.203 45.8963 33.168C45.8013 33.133 45.7138 33.1155 45.6339 33.1155C45.5539 33.1155 45.4839 33.133 45.4189 33.1655C45.3564 33.198 45.2989 33.2455 45.2515 33.3054C45.204 33.3679 45.164 33.4404 45.1315 33.5279C45.1165 33.5679 45.104 33.6079 45.094 33.6478C45.084 33.6878 45.0765 33.7253 45.074 33.7578L45.4839 33.9103H45.4889Z" fill="white"/>
<path d="M44.5143 35.0625L44.1794 35.7373L44.0344 35.6648L44.4493 34.8301L45.7664 35.4824L45.3715 36.2822L45.2266 36.2097L45.544 35.5724L45.1191 35.3624L44.8367 35.9298L44.6917 35.8573L44.9742 35.2899L44.5168 35.0625H44.5143Z" fill="white"/>
<path d="M43.6622 38.7863C43.7097 38.7189 43.7447 38.6489 43.7647 38.5739C43.7847 38.5014 43.7897 38.4265 43.7772 38.354C43.7647 38.2815 43.7372 38.2115 43.6922 38.1415C43.6472 38.0716 43.5822 38.0091 43.4998 37.9491C43.4173 37.8916 43.3373 37.8516 43.2598 37.8316C43.1824 37.8116 43.1099 37.8091 43.0399 37.8241C42.9699 37.8391 42.9049 37.8691 42.8424 37.9141C42.78 37.9591 42.725 38.0191 42.6725 38.094C42.6575 38.114 42.645 38.1365 42.63 38.159C42.615 38.184 42.6025 38.209 42.59 38.234C42.5775 38.259 42.5675 38.284 42.5575 38.309C42.5475 38.334 42.54 38.3565 42.5325 38.379L42.4026 38.289C42.4126 38.244 42.4326 38.1965 42.4576 38.144C42.4826 38.0915 42.5125 38.0416 42.5475 37.9916C42.6175 37.8916 42.695 37.8141 42.7775 37.7541C42.86 37.6967 42.9449 37.6592 43.0349 37.6442C43.1249 37.6292 43.2148 37.6342 43.3098 37.6592C43.4048 37.6842 43.4973 37.7317 43.5922 37.7991C43.6847 37.8641 43.7622 37.9391 43.8197 38.0241C43.8772 38.109 43.9171 38.1965 43.9346 38.289C43.9521 38.3815 43.9521 38.4789 43.9296 38.5764C43.9072 38.6739 43.8622 38.7714 43.7947 38.8663C43.7772 38.8913 43.7572 38.9163 43.7397 38.9388C43.7197 38.9613 43.6997 38.9838 43.6797 39.0038C43.6597 39.0238 43.6397 39.0413 43.6222 39.0563C43.6047 39.0713 43.5872 39.0838 43.5697 39.0938L43.4398 39.0038C43.4773 38.9763 43.5148 38.9438 43.5548 38.9063C43.5922 38.8688 43.6272 38.8288 43.6597 38.7863H43.6622Z" fill="white"/>
<path d="M41.878 38.9312L42.5903 40.3482L42.4878 40.4657L40.9883 39.9484L41.1157 39.8009L41.5656 39.9609L41.9705 39.4985L41.7531 39.0761L41.8805 38.9312H41.878ZM42.3679 40.2558C42.2729 40.0858 42.1904 39.9284 42.1155 39.7859L42.048 39.6534L41.7281 40.0208L41.868 40.0708C42.023 40.1258 42.1879 40.1883 42.3654 40.2608H42.3679V40.2558Z" fill="white"/>
<path d="M40.2129 40.7182L40.3428 40.5957L41.3426 41.6729L41.0451 41.9503C41.0002 41.9903 40.9577 42.0278 40.9152 42.0578C40.8727 42.0878 40.8302 42.1103 40.7877 42.1303C40.7027 42.1678 40.6203 42.1777 40.5453 42.1628C40.4703 42.1478 40.4003 42.1078 40.3379 42.0403C40.2879 41.9853 40.2529 41.9278 40.2354 41.8653C40.2179 41.8029 40.2179 41.7404 40.2354 41.6729C40.2504 41.6054 40.2804 41.5379 40.3278 41.4705C40.3728 41.4005 40.4353 41.3305 40.5103 41.263C40.5453 41.2305 40.5853 41.1955 40.6253 41.163L40.2129 40.7207V40.7182ZM40.7352 41.2805C40.7152 41.2955 40.6952 41.3105 40.6753 41.328C40.6553 41.3455 40.6353 41.3605 40.6203 41.378C40.5578 41.4355 40.5103 41.4904 40.4753 41.5379C40.4403 41.5879 40.4178 41.6354 40.4078 41.6779C40.3978 41.7204 40.3978 41.7629 40.4103 41.8004C40.4228 41.8378 40.4453 41.8728 40.4753 41.9078C40.5153 41.9503 40.5553 41.9753 40.6003 41.9828C40.6453 41.9903 40.6928 41.9828 40.7427 41.9653C40.7727 41.9528 40.8052 41.9328 40.8402 41.9103C40.8752 41.8878 40.9102 41.8553 40.9502 41.8179L41.1026 41.6754L40.7352 41.2805Z" fill="white"/>
<path d="M14.1888 32.0078C14.4638 32.1328 14.7887 32.3052 15.0761 32.4327C21.2268 35.1169 28.5922 35.3968 34.9129 32.9525C35.4677 32.7351 36.045 32.5102 36.5974 32.2627C36.9023 32.1253 36.9948 31.9878 37.3796 32.0153C37.6496 32.0353 37.7271 32.3652 37.6046 32.5751C37.4821 32.7851 36.6374 33.3549 36.3849 33.5174C34.7554 34.5571 32.8085 35.3643 30.959 35.8467C25.2282 37.3388 19.1449 36.2891 14.3313 32.8151C14.2288 32.7401 13.6215 32.2852 13.5915 32.2352C13.4316 31.9503 13.549 31.8354 13.8539 31.8703C13.9414 31.8803 14.1014 31.9728 14.1888 32.0128V32.0078Z" fill="#F7A51E"/>
<path d="M39.9042 31.5231C39.8667 31.6181 39.8842 31.6081 39.8667 31.7131C39.7267 32.5678 39.3843 33.5201 38.857 34.2124C38.762 34.3373 38.4646 34.6872 38.3521 34.7597C38.1547 34.8872 37.9722 34.8747 38.0072 34.5923C38.0147 34.5373 38.0672 34.4398 38.0872 34.3773C38.3096 33.6475 38.722 32.6253 38.7345 31.8306C38.7395 31.5306 38.7145 31.3207 38.4221 31.2007C37.8447 30.9608 36.6451 31.1757 36.0203 31.2632C35.7603 31.2982 35.4054 31.3882 35.153 31.3857C34.9006 31.3832 34.9831 31.1183 35.123 31.0033C35.4254 30.7534 35.9553 30.5109 36.3277 30.3785C36.9075 30.176 37.7073 30.0411 38.3521 30.0386C38.6895 30.0386 39.2918 30.0811 39.5992 30.206C39.7942 30.286 39.8842 30.401 39.9166 30.6159C39.9366 30.7484 39.9466 31.4182 39.9066 31.5231H39.9042Z" fill="#F7A51E"/>
<path d="M20.1021 28.4617C19.9822 28.3942 20.0346 28.3243 20.0146 28.2168C20.0996 28.2918 20.0846 28.3718 20.1021 28.4617Z" fill="#9B9B9B"/>
<path d="M20.1615 28.6567C20.104 28.6242 20.1115 28.5668 20.104 28.5093C20.1665 28.5393 20.149 28.6092 20.1615 28.6567Z" fill="#9B9B9B"/>
<path d="M34.0656 28.1616C33.5257 27.3693 32.6885 26.6295 32.6835 25.5823C32.1586 21.6335 33.6182 15.1578 27.9798 14.7829C24.8382 14.3631 20.8419 15.5027 20.0521 18.8693C19.9171 19.4191 19.7772 19.9539 20.472 20.0739C21.4942 20.0639 22.4814 20.2414 23.4886 20.1639C23.8135 19.9339 23.7935 19.4666 23.9185 19.1217C24.8032 17.1298 28.3172 17.4072 28.2122 19.8515C28.2447 20.1789 28.2347 20.5138 28.2622 20.8437C28.1898 20.9636 28.0548 20.9087 27.9323 20.9312C23.7185 21.2786 18.76 23.0331 20.0196 28.2166C20.9868 32.3754 26.9076 32.0829 29.132 29.1213C29.4094 28.6514 30.639 31.2657 31.5963 30.8158C32.366 30.1985 33.0634 29.4712 33.7931 28.7939C33.9981 28.6689 34.143 28.419 34.0731 28.1616H34.0656ZM28.4522 24.4351C29.0195 27.8817 24.5558 30.3584 24.1209 26.1122C24.1134 24.0403 26.1403 23.3305 27.9023 23.253C28.0548 23.2405 28.2247 23.1655 28.3822 23.2305C28.3997 23.6304 28.4422 24.0353 28.4497 24.4351H28.4522Z" fill="white"/>
</svg>
