<svg width="52" height="52" viewBox="0 0 52 52" fill="none" xmlns="http://www.w3.org/2000/svg">
<path d="M25.9996 52C40.359 52 51.9995 40.3594 51.9995 26C51.9995 11.6406 40.359 0 25.9996 0C11.6402 0 -0.000488281 11.6406 -0.000488281 26C-0.000488281 40.3594 11.6402 52 25.9996 52Z" fill="#F96302"/>
<path d="M25.9996 44.1522C15.99 44.1522 7.84741 36.0095 7.84741 25.9999C7.84741 15.9903 15.99 7.84766 25.9996 7.84766C36.0092 7.84766 44.1519 15.9903 44.1519 25.9999C44.1519 36.0095 36.0092 44.1522 25.9996 44.1522ZM25.9996 8.35251C16.2699 8.35251 8.35227 16.2677 8.35227 25.9999C8.35227 35.7321 16.2699 43.6473 25.9996 43.6473C35.7293 43.6473 43.647 35.7296 43.647 25.9999C43.647 16.2702 35.7293 8.35251 25.9996 8.35251Z" fill="white"/>
<path d="M25.9995 50.6206C22.6779 50.6206 19.4538 49.9683 16.4147 48.6836C13.4831 47.444 10.8489 45.6695 8.59203 43.4101C6.33269 41.1508 4.55817 38.5191 3.31853 35.5874C2.0339 32.5483 1.38159 29.3217 1.38159 26.0027C1.38159 22.6836 2.0339 19.4571 3.31853 16.4179C4.55817 13.4863 6.33269 10.852 8.59203 8.59519C10.8514 6.33584 13.4831 4.56135 16.4147 3.32171C19.4538 2.03708 22.6804 1.38477 25.9995 1.38477C29.3185 1.38477 32.5451 2.03708 35.5842 3.32171C38.5159 4.56135 41.1501 6.33584 43.4069 8.59519C45.6663 10.8545 47.4408 13.4863 48.6804 16.4179C49.9651 19.4571 50.6174 22.6836 50.6174 26.0027C50.6174 29.3217 49.9651 32.5483 48.6804 35.5874C47.4408 38.5191 45.6663 41.1533 43.4069 43.4101C41.1476 45.6695 38.5159 47.444 35.5842 48.6836C32.5451 49.9683 29.3185 50.6206 25.9995 50.6206ZM25.9995 1.74716C22.7279 1.74716 19.5513 2.38948 16.5571 3.65661C13.668 4.87876 11.0763 6.62575 8.84941 8.85011C6.62505 11.0745 4.87561 13.6687 3.65596 16.5579C2.38883 19.552 1.74648 22.7286 1.74648 26.0002C1.74648 29.2717 2.38883 32.4483 3.65596 35.4424C4.87811 38.3316 6.62505 40.9234 8.84941 43.1502C11.0738 45.3746 13.668 47.1241 16.5571 48.3437C19.5513 49.6109 22.7279 50.2532 25.9995 50.2532C29.271 50.2532 32.4476 49.6109 35.4417 48.3437C38.3309 47.1216 40.9227 45.3746 43.1496 43.1502C45.3739 40.9259 47.1234 38.3316 48.343 35.4424C49.6101 32.4483 50.2525 29.2717 50.2525 26.0002C50.2525 22.7286 49.6101 19.552 48.343 16.5579C47.1209 13.6687 45.3739 11.077 43.1496 8.85011C40.9252 6.62325 38.3309 4.87626 35.4417 3.65661C32.4476 2.38948 29.271 1.74716 25.9995 1.74716Z" fill="white"/>
<path d="M8.79009 13.7959C8.92755 13.8808 9.045 13.9808 9.14497 14.0908C9.24494 14.2008 9.3199 14.3207 9.37488 14.4482C9.42737 14.5781 9.45732 14.7156 9.46482 14.8631C9.46982 15.0105 9.44983 15.163 9.40234 15.3254C9.37485 15.4179 9.33737 15.5129 9.28738 15.6103C9.2374 15.7078 9.17999 15.8078 9.11251 15.9153L8.77752 16.4476L6.42822 14.968L6.76565 14.4307C6.83313 14.3232 6.90056 14.2282 6.96554 14.1433C7.03302 14.0583 7.10052 13.9833 7.173 13.9183C7.29797 13.8059 7.42788 13.7209 7.56034 13.6609C7.6928 13.6009 7.82779 13.5684 7.96525 13.5609C8.10271 13.5534 8.24015 13.5684 8.37761 13.6109C8.51507 13.6534 8.65263 13.7159 8.79009 13.8009V13.7959ZM8.61009 14.0808C8.38515 13.9383 8.1702 13.8733 7.96525 13.8833C7.76281 13.8933 7.57286 13.9758 7.39791 14.1233C7.33043 14.1808 7.26551 14.2507 7.20302 14.3332C7.14054 14.4157 7.07299 14.5132 7.00301 14.6231L6.8656 14.8431L8.69759 15.9977L8.835 15.7778C8.90498 15.6678 8.96251 15.5654 9.01 15.4729C9.05748 15.3804 9.09245 15.2904 9.11495 15.2055C9.17493 14.983 9.15996 14.7756 9.07748 14.5831C8.99501 14.3907 8.83752 14.2232 8.61009 14.0808Z" fill="white"/>
<path d="M11.1516 13.1063L9.07227 11.2668L9.29718 11.0144L11.3765 12.8539L11.1516 13.1063Z" fill="white"/>
<path d="M13.4313 9.42757L12.9415 9.82745L12.749 9.59002L13.5012 8.9752L14.3511 10.0149C14.3386 10.0449 14.316 10.0849 14.281 10.1324C14.2486 10.1799 14.2086 10.2323 14.1611 10.2873C14.1136 10.3423 14.0611 10.3998 14.0037 10.4598C13.9462 10.5173 13.8836 10.5722 13.8237 10.6247C13.6387 10.7747 13.4563 10.8821 13.2739 10.9471C13.0914 11.0121 12.9165 11.0371 12.744 11.0221C12.5716 11.0071 12.4091 10.9546 12.2516 10.8647C12.0941 10.7747 11.9492 10.6472 11.8168 10.4848C11.6743 10.3098 11.5693 10.1274 11.5068 9.93992C11.4443 9.75248 11.4218 9.56503 11.4393 9.38008C11.4593 9.19514 11.5194 9.01519 11.6193 8.84024C11.7193 8.66529 11.8567 8.50783 12.0317 8.36538C12.0792 8.32789 12.1267 8.2904 12.1767 8.25541C12.2267 8.22042 12.2766 8.19043 12.3241 8.16044C12.3716 8.13294 12.4191 8.10795 12.4641 8.08796C12.509 8.06796 12.5466 8.05297 12.5816 8.04297L12.7715 8.2729C12.689 8.30289 12.6015 8.34538 12.5065 8.40037C12.4116 8.45285 12.3216 8.51533 12.2392 8.58281C12.1167 8.68278 12.0167 8.79525 11.9342 8.92521C11.8542 9.05268 11.8018 9.18764 11.7793 9.3326C11.7568 9.47756 11.7643 9.62501 11.8068 9.77997C11.8493 9.93492 11.9317 10.0874 12.0567 10.2398C12.1792 10.3898 12.3041 10.4998 12.434 10.5747C12.564 10.6497 12.6965 10.6897 12.8315 10.6972C12.9665 10.7047 13.1014 10.6822 13.2389 10.6272C13.3763 10.5722 13.5113 10.4898 13.6438 10.3798C13.7063 10.3298 13.7637 10.2748 13.8187 10.2198C13.8736 10.1649 13.9187 10.1124 13.9562 10.0624L13.4338 9.42257L13.4313 9.42757Z" fill="white"/>
<path d="M16.0404 9.03983L14.6533 6.63553L14.9457 6.46558L16.3328 8.86988L16.0404 9.03983Z" fill="white"/>
<path d="M19.0043 7.61507L18.6894 7.73754L17.7896 5.4357L16.9249 5.77311L16.8149 5.48819L18.8568 4.69092L18.9668 4.97584L18.102 5.31324L19.0018 7.61507H19.0043Z" fill="white"/>
<path d="M20.9863 6.93579L21.5687 3.99663L21.8561 3.94165L23.493 6.45093L23.1332 6.52091L22.6483 5.76362L21.5086 5.98356L21.3412 6.86831L20.9839 6.93829L20.9863 6.93579ZM21.7911 4.39402C21.7362 4.75642 21.6786 5.08632 21.6212 5.38623L21.5687 5.66365L22.4709 5.4887L22.3185 5.25127C22.151 4.99135 21.9785 4.70393 21.7986 4.39152H21.7911V4.39402Z" fill="white"/>
<path d="M25.4452 3.56641L25.4852 6.03819L26.8398 6.0157L26.8448 6.32061L25.1528 6.3481L25.1079 3.5739L25.4452 3.56891V3.56641Z" fill="white"/>
<path d="M30.2515 6.75319L32.1085 4.40137L32.3884 4.48384L32.7033 7.46548L32.351 7.36301L32.2659 6.46827L31.1512 6.14586L30.6015 6.85566L30.2515 6.75569V6.75319ZM32.1285 4.85624C31.9135 5.15365 31.7136 5.42107 31.5261 5.6635L31.3537 5.88594L32.2384 6.14087L32.211 5.86095C32.181 5.55353 32.1585 5.21863 32.1385 4.85874H32.1309L32.1285 4.85624Z" fill="white"/>
<path d="M35.4096 6.42564C35.3721 6.49812 35.3571 6.5656 35.3621 6.62808C35.3671 6.69056 35.3871 6.75054 35.4196 6.80553C35.4546 6.86301 35.4971 6.9155 35.5545 6.97048C35.612 7.02547 35.6695 7.07795 35.732 7.13044C35.817 7.20291 35.897 7.27789 35.9745 7.35287C36.0519 7.42785 36.1144 7.51033 36.1619 7.5978C36.2094 7.68527 36.2343 7.78025 36.2368 7.88272C36.2393 7.98519 36.2094 8.10016 36.1469 8.22512C36.0819 8.35258 35.9994 8.45005 35.9044 8.52003C35.8094 8.58751 35.702 8.63 35.587 8.645C35.4695 8.65999 35.3471 8.6525 35.2147 8.6225C35.0822 8.59251 34.9472 8.54003 34.8072 8.47005C34.7422 8.43756 34.6798 8.40007 34.6173 8.35758C34.5548 8.31509 34.4948 8.27261 34.4423 8.22762C34.3873 8.18263 34.3424 8.14014 34.2999 8.09766C34.2574 8.05517 34.23 8.01768 34.21 7.98519L34.3499 7.71027C34.3824 7.75525 34.4223 7.80024 34.4673 7.84773C34.5123 7.89521 34.5623 7.9402 34.6148 7.98269C34.6672 8.02518 34.7223 8.06766 34.7773 8.10515C34.8323 8.14264 34.8872 8.17513 34.9422 8.20263C35.0271 8.24761 35.1147 8.2826 35.1997 8.3076C35.2846 8.33259 35.367 8.34259 35.442 8.34009C35.517 8.33759 35.5895 8.31259 35.6545 8.27011C35.7195 8.22762 35.7744 8.16264 35.8219 8.07266C35.8594 7.99768 35.8769 7.9302 35.8694 7.86772C35.8644 7.80524 35.8445 7.74276 35.8095 7.68777C35.7745 7.63029 35.7295 7.57531 35.6745 7.52282C35.6195 7.47034 35.5595 7.41535 35.4945 7.36037C35.4095 7.28789 35.3296 7.21541 35.2521 7.14043C35.1747 7.06545 35.1121 6.98548 35.0671 6.898C35.0196 6.81303 34.9947 6.71805 34.9922 6.61808C34.9872 6.51811 35.0172 6.40814 35.0797 6.28818C35.1447 6.16321 35.2221 6.06574 35.3146 6.00076C35.4071 5.93578 35.5071 5.89079 35.617 5.8733C35.727 5.8558 35.8395 5.8583 35.9545 5.8808C36.0719 5.90579 36.1868 5.94578 36.3018 6.00576C36.4342 6.07324 36.5493 6.14822 36.6518 6.23319C36.7517 6.31567 36.8392 6.40314 36.9141 6.49312L36.7717 6.77304C36.6917 6.67807 36.6042 6.58809 36.5092 6.50562C36.4143 6.42314 36.3043 6.34816 36.1818 6.28318C36.0868 6.23569 36.0018 6.2032 35.9219 6.18821C35.8419 6.17321 35.7695 6.17321 35.7045 6.18821C35.6395 6.2032 35.5821 6.23069 35.5321 6.27318C35.4821 6.31567 35.4421 6.36815 35.4071 6.43314L35.4096 6.42564Z" fill="white"/>
<path d="M38.7938 8.4526C38.7438 8.51758 38.7163 8.58006 38.7088 8.64254C38.7013 8.70502 38.7087 8.7675 38.7337 8.82749C38.7562 8.88997 38.7912 8.94995 38.8362 9.01493C38.8812 9.07742 38.9287 9.1399 38.9812 9.20488C39.0512 9.29235 39.1162 9.37983 39.1787 9.4673C39.2411 9.55728 39.2886 9.64725 39.3186 9.74222C39.3486 9.8372 39.3561 9.93467 39.3411 10.0371C39.3261 10.1396 39.2761 10.2471 39.1887 10.357C39.1012 10.472 39.0037 10.552 38.8963 10.602C38.7888 10.652 38.6763 10.6745 38.5588 10.667C38.4414 10.662 38.3214 10.632 38.1964 10.577C38.0714 10.522 37.949 10.447 37.8241 10.352C37.7666 10.3071 37.7116 10.2596 37.6566 10.2071C37.6017 10.1546 37.5516 10.0996 37.5067 10.0471C37.4617 9.99465 37.4242 9.94217 37.3917 9.89218C37.3592 9.8422 37.3367 9.80221 37.3242 9.76722L37.5117 9.52229C37.5367 9.57227 37.5667 9.62476 37.6042 9.67974C37.6417 9.73473 37.6816 9.78721 37.7241 9.8397C37.7666 9.89218 37.8141 9.94217 37.8615 9.98965C37.909 10.0371 37.959 10.0796 38.0065 10.1146C38.084 10.1746 38.1615 10.2246 38.2414 10.2646C38.3214 10.3046 38.3989 10.3296 38.4764 10.3396C38.5513 10.3495 38.6263 10.3396 38.6988 10.3096C38.7713 10.2796 38.8362 10.2246 38.8987 10.1446C38.9487 10.0796 38.9787 10.0146 38.9837 9.94966C38.9911 9.88718 38.9837 9.8222 38.9588 9.75972C38.9338 9.69724 38.9012 9.63475 38.8562 9.57227C38.8113 9.50979 38.7613 9.44481 38.7088 9.37983C38.6388 9.29485 38.5713 9.20738 38.5088 9.1199C38.4463 9.03243 38.3988 8.94245 38.3688 8.84998C38.3388 8.75751 38.3314 8.66004 38.3439 8.56256C38.3564 8.46509 38.4063 8.36012 38.4888 8.25265C38.5738 8.14019 38.6688 8.06021 38.7713 8.01022C38.8738 7.96024 38.9812 7.93774 39.0912 7.93774C39.2011 7.93774 39.3111 7.96274 39.4236 8.00772C39.5336 8.05271 39.641 8.11519 39.7434 8.19517C39.8609 8.28514 39.9609 8.38012 40.0458 8.48009C40.1308 8.58006 40.2009 8.68253 40.2559 8.7825L40.0659 9.02993C40.0034 8.92246 39.9334 8.81749 39.856 8.72002C39.7785 8.62255 39.6835 8.53007 39.5736 8.4426C39.4911 8.37762 39.4111 8.33263 39.3361 8.30264C39.2611 8.27265 39.1911 8.26015 39.1236 8.26265C39.0561 8.26265 38.9962 8.28264 38.9387 8.31514C38.8813 8.34763 38.8313 8.39261 38.7863 8.4501L38.7938 8.4526Z" fill="white"/>
<path d="M40.5111 12.2714L41.4633 13.3286L41.2359 13.5335L40.0562 12.2264L42.1181 10.3669L43.2453 11.6166L43.0178 11.8215L42.1156 10.8218L41.4508 11.4216L42.253 12.3114L42.0257 12.5163L41.2234 11.6266L40.5061 12.2739L40.5111 12.2714Z" fill="white"/>
<path d="M42.8449 15.8455L42.6675 15.5581L44.7719 14.2634L44.2846 13.4737L44.5444 13.3137L45.6941 15.1807L45.4341 15.3406L44.9469 14.5509L42.8425 15.8455H42.8449Z" fill="white"/>
<path d="M22.6885 46.9413L24.1306 47.1062L24.2756 45.8266L24.8453 45.8916L24.4905 49.0032L23.9207 48.9382L24.0755 47.5861L22.6335 47.4212L22.4786 48.7733L21.9087 48.7083L22.2636 45.5967L22.8335 45.6617L22.6885 46.9438V46.9413Z" fill="white"/>
<path d="M26.6599 49.0005L26.3149 45.8889L27.1372 45.7964C27.2097 45.7889 27.2847 45.7814 27.3597 45.7789C27.4347 45.7764 27.5097 45.7739 27.5822 45.7764C27.6546 45.7764 27.7246 45.7814 27.7921 45.7864C27.8595 45.7914 27.9246 45.8014 27.9821 45.8139C28.1545 45.8489 28.3094 45.9039 28.4443 45.9789C28.5818 46.0538 28.6992 46.1488 28.7992 46.2613C28.8992 46.3738 28.9793 46.5037 29.0393 46.6512C29.0992 46.7961 29.1392 46.9586 29.1592 47.136C29.1767 47.3035 29.1766 47.4634 29.1567 47.6134C29.1367 47.7634 29.0942 47.9033 29.0317 48.0333C28.9692 48.1632 28.8843 48.2807 28.7793 48.3857C28.6743 48.4906 28.5469 48.5806 28.3944 48.6581C28.267 48.7231 28.122 48.7756 27.957 48.8205C27.7921 48.863 27.6046 48.898 27.3947 48.9205L26.6549 49.003L26.6599 49.0005ZM27.4122 48.4332C27.7446 48.3957 28.0019 48.3207 28.1794 48.2082C28.3368 48.1083 28.4493 47.9733 28.5168 47.8083C28.5843 47.6434 28.6043 47.4384 28.5793 47.1935C28.5643 47.0661 28.5394 46.9536 28.4994 46.8536C28.4594 46.7536 28.4094 46.6687 28.3469 46.5937C28.2845 46.5187 28.2144 46.4587 28.1319 46.4087C28.0494 46.3588 27.9595 46.3213 27.862 46.2963C27.7695 46.2713 27.6695 46.2588 27.5596 46.2538C27.4496 46.2513 27.3272 46.2538 27.1923 46.2713L26.9423 46.2988L27.1822 48.4582L27.4172 48.4332H27.4122Z" fill="white"/>
<path d="M11.784 40.7158C11.7465 40.6783 11.7066 40.6508 11.6691 40.6308C11.6316 40.6108 11.5915 40.5983 11.554 40.5933C11.5165 40.5883 11.4791 40.5908 11.4416 40.5983C11.4041 40.6058 11.3691 40.6208 11.3341 40.6408C11.3116 40.6533 11.2891 40.6683 11.2666 40.6883C11.2441 40.7083 11.2216 40.7283 11.2041 40.7483L10.5693 41.4031L10.4419 41.2781L11.0742 40.6258C11.0992 40.6008 11.1242 40.5758 11.1542 40.5533C11.1817 40.5283 11.2117 40.5083 11.2391 40.4909C11.2866 40.4609 11.3366 40.4409 11.3891 40.4259C11.4416 40.4134 11.4941 40.4084 11.5491 40.4159C11.6041 40.4234 11.6615 40.4409 11.719 40.4709C11.7765 40.5008 11.8364 40.5458 11.8964 40.6033C11.9539 40.6583 11.9989 40.7158 12.0314 40.7708C12.0614 40.8258 12.0839 40.8807 12.0939 40.9332C12.1039 40.9857 12.1039 41.0382 12.0939 41.0882C12.0839 41.1382 12.0665 41.1857 12.044 41.2331C12.0265 41.2681 12.0039 41.3006 11.9789 41.3331C11.9539 41.3656 11.9265 41.3981 11.899 41.4256L11.2666 42.0779L11.1392 41.9529L11.774 41.2981C11.7965 41.2756 11.819 41.2481 11.839 41.2206C11.8589 41.1931 11.8765 41.1657 11.889 41.1382C11.919 41.0682 11.929 40.9982 11.914 40.9282C11.899 40.8582 11.8565 40.7883 11.7865 40.7183L11.784 40.7158Z" fill="white"/>
<path d="M9.82731 40.0263C9.8598 39.9988 9.88223 39.9688 9.89223 39.9363C9.90223 39.9038 9.90479 39.8713 9.89979 39.8363C9.8948 39.8013 9.88471 39.7663 9.86721 39.7289C9.85222 39.6914 9.83223 39.6539 9.81474 39.6139C9.78974 39.5614 9.76474 39.5089 9.74225 39.4564C9.71975 39.4039 9.70734 39.3515 9.70234 39.299C9.69734 39.2465 9.7023 39.194 9.7248 39.144C9.74479 39.094 9.78227 39.044 9.83975 38.9966C9.89724 38.9466 9.95727 38.9166 10.0198 38.9041C10.0822 38.8916 10.1422 38.8916 10.1996 38.9091C10.2596 38.9266 10.3196 38.9541 10.3771 38.9966C10.4346 39.0391 10.4896 39.0915 10.5446 39.154C10.5696 39.184 10.5921 39.214 10.6146 39.249C10.637 39.284 10.657 39.3165 10.672 39.349C10.687 39.3815 10.702 39.4139 10.7145 39.4414C10.727 39.4689 10.732 39.4939 10.7345 39.5139L10.6096 39.6189C10.6021 39.5889 10.592 39.5589 10.5795 39.5264C10.567 39.4939 10.5521 39.4614 10.5346 39.4289C10.5171 39.3964 10.4996 39.3665 10.4796 39.3365C10.4596 39.3065 10.4397 39.279 10.4197 39.254C10.3872 39.214 10.3521 39.179 10.3146 39.149C10.2771 39.119 10.2422 39.0965 10.2022 39.084C10.1647 39.069 10.1247 39.0665 10.0847 39.074C10.0447 39.0815 10.0048 39.1015 9.96228 39.1365C9.92979 39.164 9.90723 39.194 9.89723 39.2265C9.88724 39.259 9.88479 39.2915 9.88979 39.3265C9.89479 39.3615 9.90475 39.3989 9.92225 39.4364C9.93974 39.4739 9.95729 39.5114 9.97729 39.5514C10.0048 39.6039 10.0273 39.6564 10.0498 39.7089C10.0723 39.7613 10.0847 39.8138 10.0897 39.8638C10.0947 39.9163 10.0897 39.9663 10.0697 40.0163C10.0522 40.0663 10.0147 40.1137 9.95971 40.1587C9.90223 40.2062 9.84482 40.2387 9.78484 40.2512C9.72486 40.2637 9.66732 40.2662 9.60984 40.2512C9.55236 40.2387 9.4999 40.2137 9.44741 40.1787C9.39493 40.1437 9.34742 40.0987 9.30243 40.0463C9.25245 39.9863 9.2099 39.9263 9.17991 39.8638C9.14742 39.8013 9.12248 39.7413 9.10498 39.6839L9.23251 39.5764C9.2525 39.6389 9.27738 39.7014 9.30487 39.7613C9.33487 39.8213 9.37247 39.8788 9.41995 39.9363C9.45494 39.9788 9.49235 40.0113 9.52734 40.0363C9.56233 40.0588 9.5973 40.0763 9.63229 40.0812C9.66728 40.0887 9.69987 40.0863 9.73236 40.0763C9.76485 40.0663 9.79731 40.0488 9.82731 40.0238V40.0263Z" fill="white"/>
<path d="M7.55774 37.5794L8.67741 36.9046L8.30752 36.2898L8.44493 36.2073L8.90732 36.9746L7.64768 37.7318L7.55518 37.5794H7.55774Z" fill="white"/>
<path d="M8.05482 35.4949L6.47032 35.5799L6.40283 35.4399L7.47503 34.2703L7.55753 34.4452L7.23267 34.7926L7.49505 35.3475L7.96988 35.3175L8.05238 35.4924L8.05482 35.4949ZM6.64532 35.4149C6.83776 35.3949 7.01524 35.3824 7.17519 35.3724L7.32261 35.3625L7.11515 34.9226L7.0152 35.0325C6.90274 35.1525 6.77771 35.2775 6.64275 35.4124V35.4174L6.64532 35.4149Z" fill="white"/>
<path d="M6.51079 33.4606L7.08557 33.2607L7.14562 33.4307L5.75844 33.9155L5.63348 33.5556C5.61099 33.4956 5.596 33.4432 5.58601 33.3982C5.57601 33.3532 5.56849 33.3132 5.56599 33.2732C5.5585 33.1682 5.57848 33.0783 5.62347 33.0058C5.66846 32.9333 5.73852 32.8783 5.83349 32.8458C5.88848 32.8258 5.94337 32.8183 5.99336 32.8208C6.04335 32.8208 6.09091 32.8358 6.1359 32.8558C6.17838 32.8758 6.22087 32.9058 6.25586 32.9458C6.29335 32.9833 6.32587 33.0283 6.35336 33.0808H6.35837L6.80819 32.4609L6.86811 32.6309L6.4433 33.2582L6.51579 33.4631L6.51079 33.4606ZM5.85095 33.6906L6.35837 33.5131L6.30089 33.3457C6.28339 33.2932 6.26579 33.2507 6.24829 33.2157C6.2333 33.1807 6.21581 33.1507 6.19582 33.1232C6.15833 33.0708 6.11339 33.0358 6.06341 33.0183C6.01342 33.0008 5.9559 33.0033 5.89341 33.0233C5.83343 33.0458 5.791 33.0758 5.76601 33.1182C5.74102 33.1607 5.72849 33.2107 5.73098 33.2682C5.73098 33.2957 5.736 33.3282 5.746 33.3632C5.75349 33.3982 5.76853 33.4432 5.78602 33.4956L5.85351 33.6881L5.85095 33.6906Z" fill="white"/>
<path d="M5.73339 30.7041L5.80832 31.0315L5.6509 31.069L5.53594 30.5691L6.22825 30.4092C6.23824 30.4217 6.25316 30.4417 6.26815 30.4692C6.28315 30.4967 6.29819 30.5266 6.31318 30.5641C6.32818 30.5991 6.34322 30.6391 6.35821 30.6791C6.37321 30.7216 6.38312 30.7616 6.39312 30.8041C6.42061 30.9265 6.43063 31.039 6.41813 31.1415C6.40564 31.2439 6.37812 31.3314 6.33063 31.4114C6.28315 31.4889 6.22072 31.5539 6.14075 31.6088C6.06077 31.6613 5.96583 31.7013 5.85836 31.7263C5.74089 31.7538 5.6309 31.7588 5.52593 31.7463C5.42096 31.7338 5.32846 31.6988 5.24599 31.6463C5.16351 31.5938 5.09107 31.5239 5.03108 31.4364C4.9711 31.3489 4.92861 31.2464 4.90112 31.129C4.89362 31.099 4.88854 31.0665 4.88354 31.034C4.87854 31.0015 4.87603 30.9715 4.87354 30.9415C4.87354 30.9115 4.87354 30.884 4.87354 30.8591C4.87354 30.8341 4.87604 30.8116 4.87854 30.7941L5.03352 30.7591C5.02852 30.8041 5.02852 30.8566 5.03352 30.914C5.03852 30.9715 5.04604 31.029 5.05854 31.084C5.07853 31.1665 5.10849 31.2389 5.14848 31.3089C5.19097 31.3764 5.24342 31.4339 5.30591 31.4789C5.36839 31.5239 5.44096 31.5538 5.52593 31.5713C5.61091 31.5888 5.70085 31.5838 5.80332 31.5613C5.90329 31.5389 5.98583 31.5039 6.05081 31.4589C6.11579 31.4139 6.16574 31.3614 6.20323 31.2989C6.23822 31.2364 6.25821 31.1665 6.26571 31.089C6.27071 31.0115 6.26563 30.9265 6.24313 30.8391C6.23314 30.7966 6.22323 30.7566 6.20823 30.7191C6.19324 30.6816 6.18076 30.6466 6.16576 30.6166L5.74084 30.7141L5.73339 30.7041Z" fill="white"/>
<path d="M5.91586 29.207L5.82336 28.4597L5.98335 28.4397L6.0983 29.3644L4.6412 29.5444L4.53125 28.6596L4.69112 28.6396L4.77862 29.3469L5.24845 29.2895L5.17108 28.6596L5.33095 28.6396L5.40844 29.2695L5.91586 29.207Z" fill="white"/>
<path d="M4.57352 25.6304C4.57352 25.7129 4.58099 25.7904 4.60598 25.8628C4.63097 25.9353 4.66595 25.9978 4.71593 26.0528C4.76592 26.1078 4.8284 26.1503 4.90338 26.1828C4.97836 26.2152 5.06835 26.2327 5.16832 26.2352C5.26829 26.2377 5.35828 26.2277 5.43326 26.2002C5.50823 26.1728 5.57072 26.1353 5.6207 26.0853C5.67069 26.0353 5.70817 25.9728 5.73566 25.9003C5.76065 25.8279 5.77563 25.7479 5.77813 25.6579C5.77813 25.6329 5.77813 25.6079 5.77813 25.5804C5.77813 25.5529 5.77312 25.5254 5.76812 25.4979C5.76312 25.4705 5.76061 25.443 5.75311 25.4155C5.74811 25.388 5.74066 25.3655 5.73566 25.3455L5.89308 25.3505C5.90808 25.393 5.92061 25.4455 5.92811 25.5029C5.93561 25.5604 5.93805 25.6179 5.93555 25.6779C5.93305 25.8004 5.91062 25.9078 5.87563 26.0003C5.83814 26.0928 5.78813 26.1728 5.72065 26.2327C5.65567 26.2952 5.57576 26.3402 5.48329 26.3702C5.39082 26.4002 5.28585 26.4127 5.17088 26.4102C5.05591 26.4077 4.95094 26.3877 4.85847 26.3477C4.7635 26.3102 4.68347 26.2577 4.61599 26.1902C4.54851 26.1228 4.49849 26.0428 4.461 25.9478C4.42351 25.8528 4.40853 25.7479 4.41353 25.6329C4.41353 25.6029 4.4161 25.5729 4.4211 25.5429C4.4261 25.5129 4.42855 25.4855 4.43354 25.458C4.43854 25.4305 4.44606 25.4055 4.45356 25.383C4.46106 25.3605 4.46851 25.3405 4.47601 25.323L4.63344 25.328C4.61844 25.373 4.60353 25.4205 4.59353 25.473C4.58354 25.5254 4.57602 25.5779 4.57352 25.6304Z" fill="white"/>
<path d="M5.98056 24.5181L4.60352 23.7283L4.62341 23.5759L6.16056 23.1785L6.13554 23.3709L5.67315 23.4859L5.59066 24.0957L6.00558 24.3281L5.98056 24.5181ZM4.84087 23.6858C5.01332 23.7758 5.17075 23.8608 5.31071 23.9382L5.44068 24.0107L5.50572 23.5284L5.36074 23.5659C5.20079 23.6058 5.02832 23.6433 4.84087 23.6808V23.6858Z" fill="white"/>
<path d="M6.38288 22.1115L6.34041 22.2864L4.91333 21.939L5.00827 21.5441C5.02327 21.4842 5.03831 21.4317 5.05831 21.3842C5.0783 21.3367 5.1008 21.2917 5.12579 21.2542C5.17828 21.1767 5.2382 21.1218 5.31068 21.0943C5.38316 21.0643 5.46324 21.0618 5.55072 21.0818C5.6232 21.0993 5.68311 21.1293 5.7306 21.1717C5.77809 21.2142 5.81562 21.2667 5.83811 21.3317C5.86061 21.3942 5.87301 21.4692 5.87301 21.5516C5.87301 21.6341 5.86054 21.7266 5.83555 21.8266C5.82305 21.874 5.81058 21.924 5.79308 21.974L6.38044 22.1165L6.38288 22.1115ZM5.6381 21.929C5.64559 21.9065 5.65562 21.8815 5.66311 21.8565C5.67061 21.8316 5.67813 21.8066 5.68313 21.7841C5.70312 21.7016 5.71315 21.6316 5.71315 21.5691C5.71315 21.5091 5.70807 21.4567 5.69057 21.4142C5.67558 21.3717 5.65064 21.3392 5.62065 21.3142C5.59065 21.2892 5.55068 21.2717 5.50569 21.2617C5.4507 21.2492 5.4007 21.2517 5.36071 21.2692C5.31822 21.2867 5.28325 21.3192 5.25076 21.3642C5.23076 21.3917 5.21572 21.4242 5.20072 21.4642C5.18573 21.5041 5.17331 21.5491 5.16082 21.6016L5.11078 21.8041L5.63566 21.9315L5.6381 21.929Z" fill="white"/>
<path d="M13.4788 43.2501L14.0186 43.675L13.3338 43.645L13.0964 44.2898L12.9114 43.6275L12.2241 43.6L12.7965 43.2201L12.6116 42.5603L13.1489 42.9877L13.7187 42.6053L13.4788 43.2501Z" fill="white"/>
<path d="M6.45048 17.8873L7.41273 17.8399L6.65794 18.4397L7.00037 19.3394L6.19811 18.8096L5.44576 19.4119L5.70326 18.4847L4.896 17.9573L5.85824 17.9148L6.11061 16.9851L6.45048 17.8873Z" fill="white"/>
<path d="M39.0013 43.2501L38.4614 43.675L39.1487 43.645L39.3862 44.2898L39.5711 43.6275L40.256 43.6L39.6836 43.2201L39.8711 42.5603L39.3337 42.9877L38.7614 42.6053L39.0013 43.2501Z" fill="white"/>
<path d="M46.0316 17.8873L45.0693 17.8399L45.8217 18.4397L45.4793 19.3394L46.2841 18.8096L47.0339 19.4119L46.7789 18.4847L47.5836 17.9573L46.6214 17.9148L46.369 16.9851L46.0316 17.8873Z" fill="white"/>
<path d="M45.9591 22.2163C45.9716 22.2688 45.9867 22.3138 46.0092 22.3512C46.0292 22.3887 46.0541 22.4212 46.0841 22.4462C46.1141 22.4712 46.144 22.4912 46.179 22.5037C46.214 22.5162 46.2515 22.5237 46.294 22.5262C46.319 22.5262 46.3465 22.5262 46.3765 22.5262C46.4065 22.5237 46.434 22.5187 46.4615 22.5112L47.3513 22.3138L47.3888 22.4887L46.504 22.6836C46.4715 22.6911 46.434 22.6961 46.3965 22.7011C46.359 22.7061 46.324 22.7086 46.2915 22.7061C46.2366 22.7061 46.1815 22.6936 46.1316 22.6761C46.0791 22.6587 46.0341 22.6312 45.9916 22.5962C45.9491 22.5612 45.9117 22.5137 45.8792 22.4562C45.8467 22.3987 45.8216 22.3287 45.8041 22.2488C45.7866 22.1688 45.7792 22.0988 45.7842 22.0363C45.7892 21.9739 45.8017 21.9164 45.8217 21.8689C45.8417 21.8189 45.8717 21.7764 45.9066 21.7414C45.9416 21.7039 45.9842 21.6739 46.0292 21.6489C46.0617 21.6315 46.0991 21.614 46.1391 21.6015C46.1791 21.589 46.219 21.5765 46.2565 21.569L47.1413 21.374L47.1787 21.549L46.2891 21.7464C46.2566 21.7539 46.2241 21.7639 46.1916 21.7764C46.1591 21.7889 46.1291 21.8039 46.1041 21.8189C46.0391 21.8589 45.9942 21.9139 45.9667 21.9789C45.9392 22.0463 45.9367 22.1263 45.9567 22.2238L45.9591 22.2163Z" fill="white"/>
<path d="M47.2086 23.8707C47.1661 23.8757 47.131 23.8882 47.106 23.9082C47.0786 23.9281 47.0586 23.9556 47.0436 23.9856C47.0286 24.0156 47.0186 24.0531 47.0111 24.0931C47.0036 24.1331 46.9986 24.1756 46.9911 24.2181C46.9836 24.2755 46.9736 24.333 46.9636 24.3905C46.9536 24.448 46.9361 24.498 46.9112 24.5455C46.8862 24.593 46.8511 24.6304 46.8086 24.6629C46.7662 24.6954 46.7062 24.7154 46.6312 24.7229C46.5562 24.7329 46.4888 24.7229 46.4313 24.7029C46.3738 24.6804 46.3239 24.6454 46.2839 24.6005C46.2439 24.553 46.2088 24.4955 46.1838 24.4305C46.1588 24.363 46.1414 24.288 46.1339 24.2056C46.1289 24.1681 46.1264 24.1281 46.1289 24.0881C46.1289 24.0481 46.1289 24.0081 46.1364 23.9731C46.1414 23.9356 46.1464 23.9032 46.1539 23.8732C46.1614 23.8432 46.1689 23.8182 46.1764 23.8007L46.3388 23.7832C46.3288 23.8107 46.3188 23.8407 46.3138 23.8757C46.3063 23.9106 46.3013 23.9456 46.2963 23.9806C46.2913 24.0156 46.2914 24.0531 46.2889 24.0881C46.2889 24.1231 46.2888 24.1581 46.2938 24.1881C46.2988 24.2381 46.3088 24.288 46.3238 24.333C46.3388 24.378 46.3563 24.418 46.3813 24.4505C46.4063 24.483 46.4363 24.508 46.4738 24.523C46.5113 24.538 46.5563 24.5455 46.6088 24.538C46.6512 24.533 46.6887 24.5205 46.7137 24.498C46.7387 24.4755 46.7612 24.4505 46.7762 24.418C46.7912 24.3855 46.8036 24.3505 46.8086 24.3105C46.8161 24.2705 46.8212 24.2281 46.8287 24.1831C46.8362 24.1256 46.8437 24.0681 46.8537 24.0106C46.8637 23.9556 46.8812 23.9032 46.9062 23.8582C46.9311 23.8132 46.9636 23.7732 47.0061 23.7432C47.0486 23.7132 47.1061 23.6932 47.1785 23.6857C47.2535 23.6782 47.3186 23.6857 47.3735 23.7057C47.431 23.7257 47.4785 23.7582 47.5185 23.8007C47.5585 23.8432 47.591 23.8932 47.6135 23.9531C47.636 24.0106 47.6534 24.0756 47.6609 24.1431C47.6709 24.2206 47.6709 24.2955 47.6609 24.363C47.6509 24.4305 47.641 24.4955 47.6235 24.5555L47.4585 24.573C47.4785 24.5105 47.491 24.4455 47.5009 24.378C47.5109 24.313 47.5109 24.2431 47.5009 24.1681C47.4935 24.1131 47.4835 24.0656 47.466 24.0256C47.4486 23.9856 47.4286 23.9531 47.4036 23.9306C47.3786 23.9057 47.3486 23.8882 47.3161 23.8807C47.2836 23.8707 47.246 23.8682 47.2086 23.8732V23.8707Z" fill="white"/>
<path d="M47.751 27.1647L46.4439 27.1122L46.414 27.8295L46.2515 27.822L46.2891 26.9272L47.7586 26.9872L47.751 27.1647Z" fill="white"/>
<path d="M46.189 28.6268L47.5586 29.4265L47.5362 29.579L45.9966 29.9639L46.0242 29.7714L46.4864 29.659L46.5739 29.0516L46.1616 28.8142L46.189 28.6243V28.6268ZM47.3237 29.469C47.1513 29.3791 46.9963 29.2941 46.8563 29.2116L46.7265 29.1366L46.6564 29.619L46.8014 29.584C46.9614 29.5465 47.1338 29.509 47.3213 29.4715V29.4665L47.3237 29.469Z" fill="white"/>
<path d="M46.3593 31.1835L45.7695 31.0335L45.8144 30.8611L47.239 31.221L47.1465 31.5909C47.1315 31.6534 47.1165 31.7058 47.099 31.7483C47.0815 31.7908 47.0666 31.8283 47.0466 31.8633C46.9941 31.9558 46.9292 32.0207 46.8517 32.0557C46.7742 32.0907 46.6867 32.0982 46.5892 32.0732C46.5317 32.0582 46.4818 32.0357 46.4418 32.0058C46.4018 31.9758 46.3692 31.9408 46.3443 31.8983C46.3193 31.8558 46.3018 31.8108 46.2918 31.7583C46.2818 31.7058 46.2793 31.6509 46.2843 31.5909H46.2793L45.5645 31.8583L45.6095 31.6858L46.3092 31.3959L46.3617 31.186L46.3593 31.1835ZM47.0366 31.3534L46.5143 31.221L46.4718 31.3934C46.4593 31.4459 46.4493 31.4934 46.4418 31.5309C46.4368 31.5684 46.4342 31.6059 46.4342 31.6359C46.4367 31.7008 46.4542 31.7558 46.4867 31.7983C46.5192 31.8408 46.5667 31.8708 46.6342 31.8883C46.6967 31.9033 46.7491 31.9008 46.7941 31.8783C46.8391 31.8583 46.8766 31.8208 46.9066 31.7708C46.9216 31.7483 46.9341 31.7183 46.9466 31.6833C46.9591 31.6484 46.9715 31.6034 46.9865 31.5484L47.0366 31.3509V31.3534Z" fill="white"/>
<path d="M45.4918 33.9103L45.6093 33.5954L45.7617 33.6503L45.5843 34.1327L44.917 33.8853C44.917 33.8678 44.917 33.8428 44.917 33.8128C44.917 33.7828 44.9244 33.7478 44.9294 33.7103C44.9344 33.6728 44.9445 33.6328 44.9545 33.5904C44.9645 33.5479 44.9794 33.5079 44.9919 33.4679C45.0369 33.3504 45.0894 33.2505 45.1569 33.173C45.2219 33.0955 45.2968 33.0355 45.3768 32.9955C45.4593 32.9555 45.5468 32.9355 45.6443 32.9355C45.7393 32.9355 45.8417 32.953 45.9442 32.993C46.0566 33.0355 46.1516 33.0905 46.2316 33.158C46.3115 33.228 46.3716 33.3054 46.4116 33.3954C46.4515 33.4854 46.474 33.5829 46.474 33.6903C46.474 33.7978 46.4541 33.9053 46.4141 34.0177C46.4041 34.0477 46.3915 34.0777 46.3765 34.1077C46.364 34.1377 46.3491 34.1652 46.3341 34.1902C46.3191 34.2152 46.3042 34.2402 46.2892 34.2602C46.2742 34.2802 46.2591 34.2977 46.2466 34.3126L46.0991 34.2577C46.1291 34.2227 46.1567 34.1777 46.1866 34.1277C46.2166 34.0777 46.2391 34.0252 46.2591 33.9727C46.2891 33.8953 46.3041 33.8153 46.3066 33.7353C46.3066 33.6553 46.2966 33.5804 46.2691 33.5079C46.2416 33.4354 46.1966 33.3704 46.1366 33.3104C46.0766 33.2505 45.9967 33.203 45.8993 33.168C45.8043 33.133 45.7167 33.1155 45.6368 33.1155C45.5568 33.1155 45.4868 33.133 45.4219 33.1655C45.3569 33.198 45.3019 33.2455 45.2544 33.3054C45.2069 33.3679 45.1669 33.4404 45.1345 33.5279C45.1195 33.5679 45.107 33.6079 45.097 33.6478C45.087 33.6878 45.0795 33.7253 45.077 33.7578L45.4868 33.9103H45.4918Z" fill="white"/>
<path d="M44.5145 35.0628L44.1795 35.7376L44.0347 35.6651L44.4495 34.8303L45.7666 35.4826L45.3717 36.2824L45.2268 36.2099L45.5441 35.5726L45.1193 35.3627L44.8369 35.93L44.6919 35.8575L44.9719 35.2902L44.5145 35.0628Z" fill="white"/>
<path d="M43.6649 38.7863C43.7124 38.7189 43.7449 38.6489 43.7649 38.5739C43.7849 38.5014 43.7898 38.4265 43.7773 38.354C43.7648 38.2815 43.7374 38.2115 43.6924 38.1415C43.6474 38.0716 43.5824 38.0091 43.4999 37.9491C43.4175 37.8916 43.3375 37.8516 43.26 37.8316C43.1825 37.8116 43.1101 37.8091 43.0401 37.8241C42.9701 37.8391 42.9051 37.8691 42.8426 37.9141C42.7802 37.9591 42.7251 38.0191 42.6727 38.094C42.6577 38.114 42.6452 38.1365 42.6302 38.159C42.6152 38.1815 42.6027 38.209 42.5927 38.234C42.5827 38.259 42.5701 38.284 42.5601 38.309C42.5501 38.334 42.5427 38.3565 42.5352 38.379L42.4053 38.289C42.4153 38.244 42.4352 38.1965 42.4602 38.144C42.4852 38.0915 42.5151 38.0416 42.5501 37.9916C42.6201 37.8916 42.6977 37.8141 42.7802 37.7541C42.8626 37.6967 42.9476 37.6592 43.0375 37.6442C43.1275 37.6292 43.2175 37.6342 43.3125 37.6592C43.4075 37.6842 43.4999 37.7317 43.5949 37.7991C43.6873 37.8641 43.7649 37.9391 43.8223 38.0241C43.8798 38.109 43.9198 38.1965 43.9373 38.289C43.9548 38.3815 43.9548 38.4789 43.9323 38.5764C43.9098 38.6739 43.8648 38.7714 43.7973 38.8663C43.7798 38.8913 43.7598 38.9163 43.7423 38.9388C43.7223 38.9613 43.7024 38.9838 43.6824 39.0038C43.6624 39.0238 43.6424 39.0413 43.6249 39.0563C43.6049 39.0713 43.5899 39.0838 43.5724 39.0938L43.4424 39.0038C43.4799 38.9763 43.5174 38.9438 43.5574 38.9063C43.5949 38.8688 43.6299 38.8288 43.6624 38.7863H43.6649Z" fill="white"/>
<path d="M41.8776 38.9314L42.5899 40.3485L42.4874 40.466L40.9878 39.9486L41.1153 39.8011L41.5627 39.9611L41.9676 39.4987L41.7501 39.0764L41.8776 38.9314ZM42.37 40.256C42.275 40.0861 42.1925 39.9286 42.1175 39.7861L42.05 39.6537L41.7301 40.0211L41.8701 40.0711C42.0251 40.1261 42.19 40.1885 42.3674 40.261H42.37V40.256Z" fill="white"/>
<path d="M40.2134 40.7184L40.3458 40.5959L41.3455 41.6731L41.0481 41.9506C41.0031 41.9905 40.9606 42.028 40.9181 42.058C40.8756 42.088 40.8332 42.1105 40.7907 42.1305C40.7058 42.168 40.6232 42.178 40.5482 42.163C40.4733 42.148 40.4033 42.108 40.3408 42.0405C40.2908 41.9856 40.2558 41.9281 40.2383 41.8656C40.2208 41.8031 40.2208 41.7406 40.2383 41.6731C40.2533 41.6057 40.2833 41.5382 40.3308 41.4707C40.3758 41.4007 40.4382 41.3307 40.5132 41.2633C40.5482 41.2308 40.5882 41.1958 40.6282 41.1633L40.2158 40.7209L40.2134 40.7184ZM40.7381 41.2808C40.7181 41.2957 40.6982 41.3107 40.6782 41.3282C40.6582 41.3457 40.6382 41.3607 40.6232 41.3782C40.5607 41.4357 40.5133 41.4907 40.4783 41.5382C40.4433 41.5882 40.4208 41.6356 40.4108 41.6781C40.4008 41.7231 40.4008 41.7631 40.4133 41.8006C40.4258 41.8381 40.4483 41.8731 40.4783 41.9081C40.5183 41.9506 40.5583 41.9756 40.6033 41.983C40.6483 41.9905 40.6957 41.9831 40.7457 41.9656C40.7757 41.9531 40.8082 41.9331 40.8432 41.9106C40.8782 41.8881 40.9132 41.8556 40.9532 41.8181L41.1056 41.6756L40.7381 41.2808Z" fill="white"/>
<path d="M22.341 20.5265C22.271 20.5315 22.2161 20.569 22.1986 20.639C22.1661 20.7864 22.331 20.8314 22.3535 20.8364L23.7881 21.1463C23.8081 21.1513 23.978 21.1763 24.0105 21.0289C24.0255 20.9589 23.9905 20.9014 23.928 20.8689C23.7631 20.7739 23.7755 20.7464 23.8155 20.5565L24.5128 17.3324L23.2708 17.0625L22.5734 20.2866C22.5335 20.474 22.5309 20.5065 22.341 20.524V20.5265Z" fill="white"/>
<path d="M22.1914 18.2223C22.3338 18.2523 22.3863 18.1273 22.4263 18.0173C22.5312 17.7599 22.6738 17.44 22.9787 17.31L23.0436 17.0151L22.3139 16.8577L22.0589 18.0398C22.0539 18.0598 22.0415 18.1898 22.1939 18.2223H22.1914Z" fill="white"/>
<path d="M24.8858 18.5519C24.8758 18.6669 24.8733 18.8044 25.0158 18.8343C25.1682 18.8668 25.2107 18.7444 25.2157 18.7244L25.4706 17.5422L24.7408 17.3848L24.6758 17.6797C24.8982 17.9246 24.8983 18.2745 24.8858 18.5519Z" fill="white"/>
<path d="M27.6893 19.8216L27.2419 19.7241L27.1795 20.019L27.6244 20.1165L27.3619 21.3287C27.3219 21.5161 27.3195 21.5486 27.1296 21.5661C27.0596 21.5711 27.0046 21.6086 26.9896 21.6786C26.9571 21.826 27.122 21.871 27.142 21.876L28.5766 22.1859C28.5966 22.1909 28.7665 22.2159 28.799 22.0684C28.814 21.9985 28.7791 21.941 28.7166 21.9085C28.5517 21.8135 28.5616 21.786 28.6041 21.5961L29.1789 18.9393C29.2189 18.7519 29.2214 18.7194 29.4114 18.7019C29.4813 18.6944 29.5363 18.6594 29.5513 18.5894C29.5838 18.442 29.4189 18.397 29.3989 18.392L27.9643 18.0821C27.9443 18.0771 27.7743 18.0521 27.7418 18.1996C27.7268 18.2695 27.7618 18.327 27.8243 18.362C27.9892 18.457 27.9793 18.4845 27.9368 18.6719L27.6869 19.8241L27.6893 19.8216Z" fill="white"/>
<path d="M25.9104 17.9448C26.0753 18.0398 26.0652 18.0672 26.0227 18.2547L25.448 20.9114C25.408 21.0989 25.4054 21.1314 25.2155 21.1489C25.1455 21.1539 25.0905 21.1913 25.0755 21.2613C25.043 21.4088 25.2081 21.4538 25.2281 21.4588L26.6626 21.7687C26.6826 21.7737 26.8526 21.7987 26.885 21.6512C26.9 21.5812 26.865 21.5237 26.8026 21.4913C26.6376 21.3963 26.65 21.3688 26.69 21.1788L27.2649 18.5221C27.3049 18.3347 27.3074 18.3022 27.4973 18.2847C27.5673 18.2772 27.6223 18.2422 27.6398 18.1722C27.6723 18.0248 27.5073 17.9798 27.4873 17.9748L26.0528 17.6649C26.0328 17.6599 25.8628 17.6349 25.8303 17.7823C25.8153 17.8523 25.8503 17.9098 25.9128 17.9448H25.9104Z" fill="white"/>
<path d="M31.3813 20.9239C31.5813 21.0263 31.6363 21.2438 31.6388 21.4462C31.6463 21.5387 31.6588 21.6262 31.7638 21.6486C31.9213 21.6836 31.9337 21.4937 31.9437 21.4537L32.1812 20.359C32.1887 20.319 32.2536 20.1416 32.0987 20.1066C31.9912 20.0841 31.9437 20.1591 31.9012 20.2391C31.8137 20.4215 31.6738 20.5989 31.4488 20.6089L31.3813 20.9239Z" fill="white"/>
<path d="M29.2742 22.171C29.2418 22.3184 29.4067 22.3634 29.4267 22.3684L30.7662 22.6584L31.5885 18.8644L30.2489 18.5745C30.2289 18.5695 30.059 18.5445 30.0265 18.692C30.0115 18.762 30.0465 18.8195 30.109 18.8544C30.2739 18.9494 30.264 18.9769 30.2215 19.1644L29.6466 21.8211C29.6066 22.0085 29.6042 22.041 29.4142 22.0585C29.3442 22.0635 29.2892 22.101 29.2742 22.171Z" fill="white"/>
<path d="M32.0783 21.866C31.8534 22.2409 31.4785 22.4533 31.0561 22.4158L30.9937 22.7107L32.1608 22.9632L32.3807 21.9485C32.3857 21.9285 32.4332 21.7785 32.2707 21.7435C32.1783 21.7235 32.1308 21.7985 32.0809 21.866H32.0783Z" fill="white"/>
<path d="M32.4312 20.1215C32.4412 20.2039 32.4537 20.2589 32.5412 20.2764C32.6936 20.3089 32.7186 20.2139 32.7236 20.1889L32.9461 19.1592L31.8164 18.9143L31.7539 19.2092C32.1838 19.3767 32.3887 19.6816 32.4336 20.1215H32.4312Z" fill="white"/>
<path d="M16.5228 26.3448C16.5453 26.2348 16.4902 26.1499 16.3952 26.0974C16.1403 25.9524 16.1579 25.9074 16.2204 25.6175L17.1075 21.5237C17.17 21.2338 17.1726 21.1863 17.465 21.1588C17.5725 21.1488 17.6598 21.0938 17.6823 20.9838C17.7323 20.7564 17.4775 20.6864 17.445 20.6789L15.2357 20.1991C15.2032 20.1916 14.9432 20.1516 14.8932 20.379C14.8707 20.489 14.9257 20.574 15.0182 20.6264C15.2731 20.7714 15.2555 20.8164 15.1931 21.1063L14.3059 25.2001C14.2434 25.49 14.2408 25.5375 13.9484 25.565C13.841 25.575 13.7561 25.63 13.7311 25.7375C13.6811 25.9649 13.936 26.0349 13.9684 26.0424L16.1778 26.5222C16.2078 26.5297 16.4702 26.5697 16.5202 26.3423L16.5228 26.3448Z" fill="white"/>
<path d="M17.7648 23.5232L17.0775 23.3732L16.9801 23.8256L17.6674 23.9756L17.2625 25.8425C17.2 26.1324 17.1975 26.1799 16.9051 26.2074C16.7976 26.2174 16.7101 26.2724 16.6876 26.3799C16.6376 26.6073 16.8926 26.6773 16.9251 26.6848L19.1344 27.1646C19.1669 27.1721 19.4269 27.2121 19.4769 26.9847C19.4994 26.8747 19.4444 26.7898 19.3519 26.7373C19.097 26.5923 19.1144 26.5473 19.1769 26.2574L20.0642 22.1636C20.1267 21.8737 20.1292 21.8262 20.4217 21.7987C20.5291 21.7887 20.6165 21.7337 20.639 21.6237C20.689 21.3963 20.4341 21.3263 20.4016 21.3188L18.1922 20.839C18.1597 20.8315 17.8999 20.7915 17.8499 21.0189C17.8274 21.1289 17.8824 21.2139 17.9748 21.2663C18.2298 21.4113 18.2122 21.4563 18.1497 21.7462L17.7648 23.5207V23.5232Z" fill="white"/>
<path d="M22.451 28.004L22.5485 27.5517C22.2436 27.3467 22.2661 27.1068 22.3086 26.9119L23.1858 22.8655C23.2283 22.6706 23.3059 22.4432 23.6708 22.3807L23.7682 21.9283C22.2261 21.7509 21.234 22.933 20.8965 24.4876C20.5591 26.0421 20.9765 27.5292 22.4536 28.0065L22.451 28.004Z" fill="white"/>
<path d="M23.3538 27.1369C23.3113 27.3318 23.2313 27.5617 22.8689 27.6217L22.7715 28.0741C24.3135 28.2515 25.3057 27.0694 25.6431 25.5148C25.9805 23.9603 25.5631 22.4732 24.086 21.9958L23.9885 22.4482C24.2935 22.6532 24.2735 22.8931 24.231 23.088L23.3538 27.1344V27.1369Z" fill="white"/>
<path d="M32.9611 24.5151C33.0686 24.5051 33.1559 24.4501 33.1784 24.3402C33.2284 24.1127 32.9736 24.0428 32.9411 24.0353L30.8792 23.5879L29.8044 28.5565C29.7419 28.8464 29.7395 28.8939 29.4471 28.9214C29.3396 28.9314 29.2521 28.9863 29.2296 29.0938C29.1796 29.3212 29.4346 29.3912 29.4671 29.3987L31.6789 29.8786C31.7089 29.8861 31.9714 29.9261 32.0188 29.6986C32.0438 29.5887 31.9889 29.5037 31.8939 29.4512C31.639 29.3062 31.6564 29.2613 31.7189 28.9713L32.6062 24.8775C32.6687 24.5876 32.6711 24.5401 32.9635 24.5126L32.9611 24.5151Z" fill="white"/>
<path d="M28.2696 29.1415L29.9816 26.0374L30.289 24.6153H30.274L29.6416 25.8325H29.6266L29.3117 23.2507L27.3273 22.8208C27.2324 22.8008 26.9999 22.7508 26.9474 22.9908C26.9075 23.1782 27.1149 23.2407 27.2074 23.2682C27.3373 23.3057 27.3498 23.4057 27.3948 23.5381C27.4348 23.6531 27.4498 23.778 27.4623 23.903L28.0471 29.0915L28.272 29.1415H28.2696Z" fill="white"/>
<path d="M27.3999 26.2547L27.2424 24.8701H27.2275L26.6576 27.4994C26.3202 28.4491 25.8878 28.0367 25.8153 28.3716C25.7628 28.614 26.0853 28.6665 26.1728 28.6865L27.0625 28.879C27.1475 28.8965 27.4648 28.9814 27.5173 28.739C27.5898 28.4041 27.025 28.599 27.11 27.5968L27.3999 26.2522V26.2547Z" fill="white"/>
<path d="M36.5326 24.8152L36.4351 25.2676C37.0999 25.525 37.4148 25.9948 37.4798 26.6722C37.4923 26.7971 37.5148 26.8846 37.6472 26.9121C37.8822 26.9621 37.9221 26.8171 37.9296 26.7771L38.2721 25.1926L36.53 24.8152H36.5326Z" fill="white"/>
<path d="M35.8623 27.9068C36.1722 28.0642 36.2547 28.4016 36.2597 28.714C36.2696 28.8565 36.2897 28.9914 36.4547 29.0264C36.6971 29.0789 36.7196 28.789 36.732 28.7265L37.0969 27.0395C37.1094 26.977 37.212 26.7046 36.9695 26.6521C36.8046 26.6171 36.732 26.7321 36.6646 26.8546C36.5296 27.137 36.3147 27.4094 35.9698 27.4244L35.8647 27.9093L35.8623 27.9068Z" fill="white"/>
<path d="M34.118 24.2901C34.088 24.2826 33.8256 24.2427 33.7781 24.4701C33.7556 24.5801 33.8081 24.665 33.9031 24.7175C34.158 24.8625 34.1404 24.9075 34.0779 25.1974L33.1908 29.2912C33.1283 29.5811 33.1257 29.6286 32.8333 29.6561C32.7258 29.6661 32.6383 29.7211 32.6158 29.8285C32.5659 30.056 32.8208 30.126 32.8533 30.1335L34.9152 30.5808L36.1799 24.7375L34.118 24.2901Z" fill="white"/>
<path d="M37.232 29.1691C37.092 29.1392 37.017 29.2541 36.937 29.3591C36.5921 29.9389 36.0123 30.2638 35.365 30.2038L35.2676 30.6562L37.0645 31.0461L37.402 29.4841C37.4095 29.4516 37.4819 29.2241 37.232 29.1691Z" fill="white"/>
<path d="M18.3622 28.3564L18.2997 28.6414C18.5921 28.7463 18.5446 29.0288 18.5046 29.2162L18.0522 31.3106C18.0122 31.498 17.9373 31.7755 17.6274 31.748L17.5649 32.0329C18.3797 32.2103 19.3594 31.7055 19.5544 30.5408C19.7693 29.2587 19.197 28.5289 18.3598 28.3564H18.3622Z" fill="white"/>
<path d="M16.8829 28.0367C16.7855 28.0142 16.6579 28.0042 16.6304 28.1316C16.6029 28.2541 16.693 28.2891 16.7854 28.3441C16.8729 28.394 16.8329 28.524 16.8179 28.599L16.2606 31.1757C16.2206 31.3582 16.2206 31.3882 16.0356 31.4057C15.9682 31.4107 15.9132 31.4457 15.8982 31.5156C15.8682 31.6581 15.9882 31.6956 16.0957 31.7181L17.3453 31.988L18.1426 28.3116L16.8829 28.0392V28.0367Z" fill="white"/>
<path d="M22.8711 30.3787L23.086 29.3815L21.9888 29.144L21.9263 29.429C22.3436 29.5914 22.5437 29.8863 22.5837 30.3112C22.5937 30.3912 22.6061 30.4437 22.6911 30.4637C22.8385 30.4962 22.8635 30.4037 22.8685 30.3787H22.8711Z" fill="white"/>
<path d="M22.4314 31.883C22.3439 31.863 22.2965 31.9355 22.2465 32.003C22.0291 32.3679 21.6642 32.5728 21.2568 32.5353L21.1943 32.8202L22.324 33.0652L22.5365 32.083C22.5415 32.063 22.5864 31.918 22.4314 31.8855V31.883Z" fill="white"/>
<path d="M20.4718 28.8139C20.4519 28.8089 20.2869 28.7839 20.2569 28.9264C20.2419 28.9964 20.2769 29.0489 20.3369 29.0838C20.4968 29.1763 20.4868 29.2038 20.4468 29.3863L19.8895 31.963C19.8495 32.1455 19.8495 32.1754 19.6646 32.1929C19.5971 32.1979 19.5422 32.2329 19.5272 32.3029C19.4972 32.4454 19.657 32.4904 19.677 32.4954L20.9743 32.7753L21.7715 29.0988L20.4744 28.8189L20.4718 28.8139Z" fill="white"/>
<path d="M21.5688 31.0911C21.7638 31.1885 21.8163 31.401 21.8188 31.5984C21.8263 31.6884 21.8387 31.7734 21.9412 31.7958C22.0936 31.8283 22.1087 31.6459 22.1162 31.6084L22.3461 30.5462C22.3536 30.5062 22.4161 30.3363 22.2662 30.3013C22.1637 30.2788 22.1162 30.3513 22.0737 30.4287C21.9887 30.6062 21.8538 30.7761 21.6363 30.7861L21.5713 31.0911H21.5688Z" fill="white"/>
<path d="M25.2033 29.8386L25.1409 30.1235C25.3933 30.2185 25.3933 30.431 25.3458 30.6509L25.1858 31.3932C25.1333 31.6331 25.0758 31.833 24.7734 31.8231L24.7109 32.108C25.1783 32.2079 25.4633 32.2204 25.7232 32.138C26.1331 32.0005 26.3454 31.7056 26.4354 31.2932C26.5254 30.8808 26.453 30.5259 26.1356 30.231C25.9331 30.0486 25.6682 29.9386 25.2008 29.8386H25.2033Z" fill="white"/>
<path d="M24.4132 33.2177C24.2532 33.1252 24.2632 33.0977 24.3032 32.9153L24.9805 29.7887L23.6834 29.5087C23.6634 29.5037 23.4985 29.4788 23.4685 29.6212C23.4535 29.6912 23.4884 29.7437 23.5484 29.7762C23.7084 29.8686 23.6984 29.8961 23.6584 30.0786L23.101 32.6553C23.0611 32.8378 23.0611 32.8678 22.8761 32.8853C22.8086 32.8903 22.7536 32.9253 22.7386 32.9952C22.7086 33.1377 22.8686 33.1827 22.8861 33.1877L24.2758 33.4901C24.2957 33.4951 24.4607 33.5201 24.4907 33.3776C24.5056 33.3076 24.4707 33.2552 24.4107 33.2202L24.4132 33.2177Z" fill="white"/>
<path d="M28.717 30.5234L28.6546 30.8084C28.8395 30.9358 28.8244 31.0883 28.7994 31.2107L28.2471 33.7575C28.2196 33.88 28.1721 34.0249 27.9497 34.0649L27.8872 34.3498C28.8244 34.4548 29.4343 33.7075 29.6467 32.7303C29.8591 31.7531 29.6118 30.8184 28.717 30.5259V30.5234Z" fill="white"/>
<path d="M27.6096 33.6176L28.162 31.0709C28.1894 30.9484 28.2369 30.8034 28.4594 30.766L28.5218 30.481C27.5846 30.3761 26.9748 31.1234 26.7623 32.1031C26.5499 33.0803 26.7973 34.015 27.6946 34.3049L27.757 34.02C27.5721 33.8926 27.5871 33.7401 27.6121 33.6176H27.6096Z" fill="white"/>
<path d="M32.5933 31.4381L31.3887 31.1782L30.7114 34.3048C30.6714 34.4873 30.6713 34.5173 30.4864 34.5348C30.4189 34.5398 30.3639 34.5747 30.3489 34.6447C30.319 34.7872 30.4789 34.8322 30.4989 34.8372L31.891 35.1396C31.911 35.1446 32.076 35.1696 32.106 35.0271C32.121 34.9571 32.0859 34.9046 32.026 34.8697C31.866 34.7772 31.876 34.7497 31.916 34.5672L32.5933 31.4406V31.4381Z" fill="white"/>
<path d="M32.751 31.7734C32.9684 32.0108 32.9659 32.3507 32.9534 32.6206C32.9459 32.7331 32.9409 32.8656 33.0784 32.8956C33.2259 32.9281 33.2683 32.8081 33.2708 32.7881L33.5183 31.6434L32.811 31.491L32.7485 31.7759L32.751 31.7734Z" fill="white"/>
<path d="M30.5717 32.1032C30.6716 31.8533 30.8116 31.5434 31.1065 31.4159L31.169 31.131L30.4617 30.9785L30.2142 32.1232C30.2092 32.1432 30.1993 32.2681 30.3467 32.3006C30.4842 32.3306 30.5366 32.2082 30.5741 32.1032H30.5717Z" fill="white"/>
</svg>
