<svg width="52" height="52" viewBox="0 0 52 52" fill="none" xmlns="http://www.w3.org/2000/svg">
<path d="M26 52C40.3594 52 52 40.3594 52 26C52 11.6406 40.3594 0 26 0C11.6406 0 0 11.6406 0 26C0 40.3594 11.6406 52 26 52Z" fill="white"/>
<path d="M25.9999 44.1522C15.9903 44.1522 7.84766 36.0095 7.84766 25.9999C7.84766 15.9903 15.9903 7.84766 25.9999 7.84766C36.0095 7.84766 44.1522 15.9903 44.1522 25.9999C44.1522 36.0095 36.0095 44.1522 25.9999 44.1522ZM25.9999 8.35251C16.2702 8.35251 8.35251 16.2677 8.35251 25.9999C8.35251 35.7321 16.2702 43.6473 25.9999 43.6473C35.7296 43.6473 43.6473 35.7296 43.6473 25.9999C43.6473 16.2702 35.7296 8.35251 25.9999 8.35251Z" fill="#0996C7"/>
<path d="M25.9997 50.6203C22.6782 50.6203 19.4541 49.968 16.415 48.6834C13.4833 47.4437 10.8491 45.6693 8.59226 43.4099C6.33291 41.1506 4.55842 38.5188 3.31878 35.5872C2.03415 32.548 1.38184 29.3215 1.38184 26.0024C1.38184 22.6834 2.03415 19.4568 3.31878 16.4177C4.55842 13.486 6.33291 10.8518 8.59226 8.59494C10.8516 6.33559 13.4833 4.56111 16.415 3.32146C19.4541 2.03683 22.6807 1.38452 25.9997 1.38452C29.3188 1.38452 32.5453 2.03683 35.5845 3.32146C38.5161 4.56111 41.1504 6.33559 43.4072 8.59494C45.6666 10.8543 47.4411 13.486 48.6807 16.4177C49.9653 19.4568 50.6176 22.6834 50.6176 26.0024C50.6176 29.3215 49.9653 32.548 48.6807 35.5872C47.4411 38.5188 45.6666 41.1531 43.4072 43.4099C41.1479 45.6693 38.5161 47.4437 35.5845 48.6834C32.5453 49.968 29.3188 50.6203 25.9997 50.6203ZM25.9997 1.74692C22.7282 1.74692 19.5516 2.38923 16.5575 3.65637C13.6683 4.87851 11.0765 6.62551 8.84968 8.84987C6.62532 11.0742 4.87583 13.6685 3.65618 16.5576C2.38905 19.5518 1.74673 22.7284 1.74673 25.9999C1.74673 29.2715 2.38905 32.4481 3.65618 35.4422C4.87833 38.3314 6.62532 40.9231 8.84968 43.15C11.074 45.3743 13.6683 47.1238 16.5575 48.3435C19.5516 49.6106 22.7282 50.2529 25.9997 50.2529C29.2713 50.2529 32.4479 49.6106 35.442 48.3435C38.3312 47.1213 40.9229 45.3743 43.1498 43.15C45.3741 40.9256 47.1236 38.3314 48.3433 35.4422C49.6104 32.4481 50.2527 29.2715 50.2527 25.9999C50.2527 22.7284 49.6104 19.5518 48.3433 16.5576C47.1211 13.6685 45.3741 11.0767 43.1498 8.84987C40.9254 6.62551 38.3312 4.87601 35.442 3.65637C32.4479 2.38923 29.2713 1.74692 25.9997 1.74692Z" fill="#0996C7"/>
<path d="M8.7876 13.7961C8.92506 13.881 9.04253 13.981 9.1425 14.091C9.24247 14.2009 9.31745 14.3209 9.37243 14.4509C9.42492 14.5808 9.45491 14.7183 9.46241 14.8657C9.4674 15.0132 9.44741 15.1657 9.39992 15.3281C9.37243 15.4206 9.33494 15.5156 9.28496 15.613C9.23497 15.7105 9.17749 15.8105 9.11001 15.9179L8.7751 16.4503L6.42578 14.9707L6.76318 14.4334C6.83066 14.3259 6.89815 14.2309 6.96313 14.146C7.03061 14.061 7.09809 13.986 7.17057 13.921C7.29553 13.8085 7.42549 13.7236 7.55795 13.6636C7.69042 13.6036 7.82538 13.5711 7.96284 13.5636C8.1003 13.5561 8.23776 13.5711 8.37522 13.6136C8.51268 13.6536 8.65014 13.7186 8.7876 13.8036V13.7961ZM8.60765 14.081C8.38272 13.9385 8.16778 13.8735 7.96284 13.8835C7.7604 13.8935 7.57045 13.976 7.3955 14.1235C7.32802 14.1809 7.26304 14.2509 7.20056 14.3334C7.13808 14.4159 7.0706 14.5133 7.00062 14.6233L6.86316 14.8433L8.69513 15.9979L8.83259 15.778C8.90257 15.668 8.96005 15.5655 9.00754 15.4731C9.05502 15.3806 9.09001 15.2906 9.11251 15.2056C9.17249 14.9832 9.15749 14.7758 9.07502 14.5833C8.99254 14.3909 8.83509 14.2234 8.60765 14.081Z" fill="#0996C7"/>
<path d="M11.1492 13.1063L9.06982 11.2668L9.29476 11.0144L11.3742 12.8539L11.1492 13.1063Z" fill="#0996C7"/>
<path d="M13.4283 9.42727L12.9385 9.82715L12.746 9.59222L13.4983 8.9774L14.3481 10.0171C14.3356 10.0471 14.3131 10.0871 14.2781 10.1346C14.2431 10.182 14.2056 10.2345 14.1581 10.2895C14.1106 10.3445 14.0581 10.4045 14.0007 10.462C13.9432 10.5195 13.8807 10.5744 13.8207 10.6269C13.6358 10.7769 13.4533 10.8843 13.2709 10.9493C13.0884 11.0143 12.9135 11.0393 12.741 11.0243C12.5686 11.0093 12.4061 10.9568 12.2487 10.8669C12.0912 10.7744 11.9463 10.6494 11.8138 10.487C11.6713 10.312 11.5664 10.1296 11.5039 9.94212C11.4414 9.75467 11.4189 9.56723 11.4364 9.38228C11.4564 9.19733 11.5164 9.01739 11.6164 8.84244C11.7163 8.66749 11.8538 8.51003 12.0287 8.36757C12.0762 8.33008 12.1237 8.2926 12.1737 8.25761C12.2237 8.22262 12.2737 8.19012 12.3211 8.16263C12.3686 8.13514 12.4161 8.11015 12.4611 8.09015C12.5061 8.07016 12.5436 8.05516 12.5786 8.04517L12.7685 8.2776C12.686 8.30759 12.5986 8.35008 12.5036 8.40506C12.4086 8.46005 12.3187 8.52003 12.2362 8.58751C12.1137 8.68748 12.0137 8.79995 11.9313 8.92741C11.8488 9.05488 11.7988 9.18984 11.7763 9.33479C11.7538 9.47975 11.7613 9.62721 11.8038 9.78217C11.8463 9.93712 11.9288 10.0896 12.0537 10.242C12.1762 10.392 12.3012 10.502 12.4311 10.5769C12.5611 10.6519 12.6935 10.6919 12.8285 10.6994C12.9635 10.7069 13.0984 10.6844 13.2359 10.6294C13.3733 10.5744 13.5083 10.492 13.6408 10.382C13.7033 10.332 13.7607 10.277 13.8157 10.222C13.8707 10.1671 13.9157 10.1146 13.9532 10.0646L13.4308 9.42477L13.4283 9.42727Z" fill="#0996C7"/>
<path d="M16.038 9.03983L14.6509 6.63553L14.9433 6.46558L16.3304 8.86988L16.038 9.03983Z" fill="#0996C7"/>
<path d="M19.0019 7.61532L18.687 7.73778L17.7872 5.43595L16.9225 5.77335L16.8125 5.48843L18.8544 4.69116L18.9644 4.97608L18.0996 5.31348L18.9994 7.61532H19.0019Z" fill="#0996C7"/>
<path d="M20.9864 6.93554L21.5687 3.99639L21.8561 3.94141L23.4932 6.45068L23.1333 6.52066L22.6484 5.76338L21.5087 5.98332L21.3413 6.86806L20.9839 6.93804L20.9864 6.93554ZM21.7912 4.39378C21.7362 4.75617 21.6787 5.08608 21.6212 5.38599L21.5687 5.66341L22.471 5.48846L22.3185 5.25103C22.1511 4.9911 21.9786 4.70369 21.7987 4.39128H21.7912V4.39378Z" fill="#0996C7"/>
<path d="M25.4452 3.56646L25.4852 6.03575L26.8398 6.01326L26.8448 6.31817L25.1528 6.34566L25.1078 3.56896L25.4452 3.56396V3.56646Z" fill="#0996C7"/>
<path d="M30.2515 6.75319L32.1084 4.40137L32.3883 4.48384L32.7033 7.46548L32.3509 7.36301L32.2659 6.46827L31.1512 6.14586L30.6014 6.85566L30.2515 6.75569V6.75319ZM32.1259 4.85624C31.911 5.15365 31.711 5.42357 31.5236 5.6635L31.3511 5.88594L32.2359 6.14087L32.2084 5.86095C32.1784 5.55353 32.1559 5.21863 32.1359 4.85874H32.1284L32.1259 4.85624Z" fill="#0996C7"/>
<path d="M35.4072 6.42564C35.3697 6.49811 35.3547 6.5656 35.3597 6.62808C35.3647 6.69056 35.3847 6.75054 35.4172 6.80553C35.4522 6.86051 35.4946 6.91549 35.5521 6.97048C35.6071 7.02296 35.6671 7.07795 35.7296 7.13043C35.8146 7.20291 35.8945 7.27789 35.972 7.35287C36.0495 7.42785 36.112 7.51032 36.1595 7.5978C36.2069 7.68527 36.2319 7.78025 36.2344 7.88272C36.2369 7.98519 36.2069 8.10015 36.1445 8.22512C36.0795 8.35258 35.997 8.45005 35.902 8.52003C35.8071 8.58751 35.6996 8.63 35.5846 8.645C35.4672 8.65999 35.3447 8.65249 35.2122 8.6225C35.0798 8.59251 34.9448 8.54003 34.8048 8.46755C34.7399 8.43506 34.6774 8.39757 34.6149 8.35508C34.5524 8.31259 34.4924 8.2701 34.44 8.22512C34.385 8.18013 34.34 8.13764 34.2975 8.09515C34.2575 8.05267 34.2275 8.01518 34.2075 7.98269L34.3475 7.70777C34.38 7.75275 34.42 7.79774 34.4649 7.84523C34.5099 7.89271 34.5599 7.9377 34.6124 7.98019C34.6649 8.02268 34.7199 8.06516 34.7749 8.10265C34.8298 8.14014 34.8848 8.17263 34.9398 8.20012C35.0248 8.24511 35.1123 8.2801 35.1972 8.30509C35.2822 8.33009 35.3647 8.34008 35.4397 8.33758C35.5146 8.33508 35.5871 8.31009 35.6521 8.2676C35.7171 8.22512 35.7721 8.16014 35.8196 8.07016C35.857 7.99768 35.8745 7.9277 35.867 7.86522C35.862 7.80274 35.8421 7.74026 35.8071 7.68527C35.7721 7.62779 35.7271 7.5728 35.6721 7.51782C35.6171 7.46284 35.5571 7.41035 35.4921 7.35537C35.4072 7.28289 35.3272 7.21041 35.2497 7.13543C35.1722 7.06045 35.1098 6.98048 35.0648 6.893C35.0173 6.80803 34.9923 6.71305 34.9898 6.61308C34.9848 6.51311 35.0148 6.40314 35.0773 6.28318C35.1423 6.15821 35.2197 6.06074 35.3122 5.99326C35.4047 5.92578 35.5046 5.88329 35.6146 5.8658C35.7221 5.8458 35.8371 5.8508 35.952 5.8733C36.067 5.89579 36.1845 5.93828 36.2994 5.99826C36.4319 6.06574 36.5468 6.14072 36.6493 6.22569C36.7518 6.31067 36.8368 6.39564 36.9117 6.48562L36.7693 6.76554C36.6893 6.67056 36.6018 6.58059 36.5069 6.49811C36.4119 6.41564 36.3019 6.34066 36.1795 6.27568C36.0845 6.22819 35.9995 6.1957 35.9195 6.18071C35.8396 6.16571 35.7671 6.16571 35.7021 6.18071C35.6371 6.1957 35.5796 6.22319 35.5296 6.26568C35.4797 6.30817 35.4397 6.36065 35.4047 6.42564H35.4072Z" fill="#0996C7"/>
<path d="M38.7914 8.45265C38.7414 8.51763 38.7139 8.58012 38.7064 8.6426C38.6989 8.70508 38.7064 8.76756 38.7314 8.82755C38.7564 8.88753 38.7889 8.95001 38.8338 9.01249C38.8788 9.07497 38.9263 9.13746 38.9788 9.20244C39.0488 9.28991 39.1138 9.37739 39.1762 9.46486C39.2387 9.55484 39.2862 9.64481 39.3162 9.73978C39.3462 9.83476 39.3537 9.93223 39.3387 10.0347C39.3237 10.1372 39.2737 10.2446 39.1862 10.3546C39.0988 10.4696 39.0013 10.5495 38.8938 10.5995C38.7864 10.6495 38.6739 10.672 38.5564 10.6645C38.439 10.657 38.319 10.6295 38.194 10.5745C38.0691 10.5196 37.9466 10.4446 37.8216 10.3496C37.7641 10.3046 37.7092 10.2571 37.6542 10.2046C37.5992 10.1522 37.5492 10.0972 37.5042 10.0447C37.4592 9.98971 37.4217 9.93972 37.3893 9.88974C37.3568 9.83975 37.3343 9.79976 37.3218 9.76477L37.5092 9.51985C37.5342 9.56983 37.5642 9.62232 37.6017 9.6773C37.6392 9.73228 37.6792 9.78477 37.7217 9.83725C37.7641 9.88974 37.8116 9.93972 37.8591 9.98721C37.9066 10.0347 37.9566 10.0772 38.0041 10.1122C38.0816 10.1722 38.159 10.2221 38.239 10.2621C38.319 10.3021 38.3965 10.3271 38.4739 10.3371C38.5489 10.3471 38.6239 10.3371 38.6964 10.3071C38.7689 10.2771 38.8338 10.2221 38.8963 10.1422C38.9463 10.0772 38.9763 10.0122 38.9813 9.94722C38.9888 9.88474 38.9813 9.82226 38.9563 9.75728C38.9338 9.6948 38.8988 9.63231 38.8538 9.56983C38.8088 9.50735 38.7589 9.44237 38.7064 9.37739C38.6364 9.29241 38.5689 9.20494 38.5064 9.11746C38.444 9.02999 38.3965 8.94001 38.3665 8.84754C38.3365 8.75507 38.329 8.65759 38.3415 8.56012C38.3565 8.46015 38.404 8.35768 38.4864 8.25021C38.5714 8.13774 38.6664 8.05777 38.7689 8.00778C38.8713 7.9578 38.9788 7.9353 39.0888 7.9353C39.1987 7.9353 39.3087 7.9603 39.4212 8.00528C39.5311 8.05027 39.6386 8.11275 39.7411 8.19023C39.8585 8.2802 39.9585 8.37518 40.0435 8.47765C40.1285 8.58012 40.1984 8.68009 40.2534 8.78006L40.0635 9.02749C40.001 8.92002 39.931 8.81505 39.8535 8.71758C39.7761 8.61761 39.6811 8.52513 39.5711 8.44016C39.4887 8.37518 39.4087 8.33019 39.3337 8.3002C39.2587 8.27021 39.1887 8.25771 39.1213 8.26021C39.0538 8.26271 38.9938 8.2802 38.9363 8.31269C38.8788 8.34518 38.8288 8.39017 38.7839 8.44765L38.7914 8.45265Z" fill="#0996C7"/>
<path d="M40.511 12.2714L41.4632 13.3286L41.2358 13.5335L40.0562 12.2264L42.1181 10.3669L43.2452 11.6166L43.0178 11.8215L42.1156 10.8218L41.4508 11.4216L42.253 12.3114L42.0256 12.5163L41.2233 11.6266L40.506 12.2714H40.511Z" fill="#0996C7"/>
<path d="M42.8425 15.8455L42.665 15.5581L44.7694 14.2634L44.2821 13.4737L44.542 13.3137L45.6917 15.1807L45.4317 15.3406L44.9444 14.5509L42.84 15.8455H42.8425Z" fill="#0996C7"/>
<path d="M19.0223 45.9143C19.1198 46.2942 19.1897 46.6241 19.2322 46.904L19.2447 46.909C19.3722 46.5216 19.4671 46.2417 19.5321 46.0668L20.0345 44.7396L20.5693 44.9421L19.4622 47.8712L18.8998 47.6588L18.4549 45.9493C18.375 45.6519 18.305 45.317 18.2425 44.9396L18.23 44.9346C18.1125 45.2995 18.0151 45.5819 17.9401 45.7793L17.4377 47.1064L16.9004 46.904L18.0076 43.9749L18.5699 44.1873L19.0173 45.9118L19.0223 45.9143Z" fill="#0996C7"/>
<path d="M23.8208 47.7688C23.8308 47.6888 23.8183 47.6238 23.7858 47.5714C23.7534 47.5189 23.7034 47.4714 23.6409 47.4339C23.5784 47.3939 23.5059 47.3614 23.4259 47.3314C23.346 47.3014 23.261 47.2739 23.171 47.244C23.0536 47.204 22.9411 47.159 22.8361 47.109C22.7311 47.059 22.6387 46.999 22.5637 46.924C22.4887 46.8491 22.4287 46.7616 22.3912 46.6566C22.3538 46.5516 22.3413 46.4242 22.3588 46.2767C22.3763 46.1118 22.4212 45.9718 22.4937 45.8568C22.5662 45.7419 22.6537 45.6494 22.7611 45.5819C22.8686 45.5145 22.9911 45.467 23.1285 45.442C23.266 45.417 23.416 45.4145 23.5834 45.4345C23.7509 45.4545 23.9133 45.4895 24.0783 45.5394C24.2432 45.5894 24.3807 45.6494 24.4956 45.7144L24.4407 46.2018C24.2857 46.1193 24.1382 46.0568 23.9933 46.0093C23.8483 45.9643 23.7109 45.9343 23.5809 45.9193C23.3935 45.8968 23.246 45.9143 23.136 45.9718C23.0261 46.0293 22.9636 46.1243 22.9486 46.2617C22.9386 46.3417 22.9486 46.4067 22.9761 46.4617C23.0036 46.5167 23.0436 46.5641 23.0985 46.6041C23.151 46.6441 23.2135 46.6791 23.286 46.7066C23.3585 46.7341 23.4359 46.7641 23.5159 46.7891C23.6434 46.8316 23.7658 46.8791 23.8833 46.929C23.9983 46.979 24.1008 47.0415 24.1857 47.1165C24.2707 47.1915 24.3357 47.2864 24.3782 47.3964C24.4207 47.5064 24.4332 47.6438 24.4132 47.8063C24.3932 47.9737 24.3457 48.1162 24.2707 48.2312C24.1957 48.3461 24.0958 48.4386 23.9733 48.5036C23.8508 48.5711 23.7059 48.6136 23.5384 48.6335C23.371 48.6535 23.191 48.6535 22.9961 48.6311C22.8261 48.6111 22.6637 48.5761 22.5037 48.5236C22.3438 48.4711 22.2138 48.4086 22.1113 48.3361L22.1663 47.8538C22.3113 47.9388 22.4562 48.0037 22.5987 48.0512C22.7411 48.0987 22.8886 48.1312 23.0436 48.1487C23.1335 48.1587 23.2235 48.1612 23.311 48.1562C23.3985 48.1512 23.4809 48.1362 23.5534 48.1062C23.6259 48.0787 23.6884 48.0362 23.7359 47.9787C23.7858 47.9213 23.8133 47.8488 23.8258 47.7588L23.8208 47.7688Z" fill="#0996C7"/>
<path d="M26.9724 48.731L26.5825 45.6243L27.4048 45.5219C27.4773 45.5119 27.5522 45.5069 27.6272 45.5019C27.7022 45.4969 27.7772 45.4944 27.8497 45.4944C27.9221 45.4944 27.9921 45.4969 28.0596 45.5019C28.1271 45.5069 28.1921 45.5144 28.2495 45.5269C28.422 45.5594 28.5769 45.6118 28.7144 45.6843C28.8519 45.7568 28.9718 45.8518 29.0743 45.9617C29.1768 46.0742 29.2567 46.2017 29.3217 46.3466C29.3842 46.4916 29.4267 46.654 29.4492 46.829C29.4692 46.9965 29.4717 47.1539 29.4517 47.3064C29.4317 47.4563 29.3942 47.5988 29.3317 47.7287C29.2717 47.8587 29.1893 47.9762 29.0843 48.0836C28.9793 48.1911 28.8544 48.2836 28.7019 48.3611C28.5769 48.426 28.432 48.4835 28.267 48.5285C28.1021 48.5735 27.9171 48.611 27.7072 48.636L26.9674 48.7285L26.9724 48.731ZM27.7172 48.1561C28.0496 48.1136 28.3045 48.0362 28.4795 47.9212C28.6344 47.8187 28.7444 47.6838 28.8094 47.5163C28.8744 47.3488 28.8919 47.1439 28.8619 46.9015C28.8469 46.774 28.8169 46.6615 28.7769 46.5641C28.7369 46.4666 28.6844 46.3791 28.6219 46.3067C28.5594 46.2342 28.487 46.1742 28.4045 46.1242C28.322 46.0767 28.232 46.0392 28.1321 46.0142C28.0396 45.9917 27.9371 45.9792 27.8272 45.9767C27.7172 45.9742 27.5947 45.9817 27.4598 45.9992L27.2098 46.0317L27.4823 48.1861L27.7172 48.1561Z" fill="#0996C7"/>
<path d="M34.3001 46.4315C34.3326 46.4065 34.3701 46.379 34.4126 46.3515C34.4551 46.324 34.5001 46.2965 34.5475 46.2715C34.595 46.2465 34.6425 46.2191 34.6925 46.1966C34.7425 46.1741 34.79 46.1516 34.8375 46.1316L34.8775 46.1141L35.0674 46.574C34.9874 46.5989 34.8924 46.6314 34.7825 46.6714C34.6725 46.7114 34.5575 46.7564 34.4351 46.8064C34.3451 46.8439 34.2626 46.8789 34.1926 46.9139C34.1227 46.9488 34.0527 46.9813 33.9802 47.0188C33.9102 47.0538 33.8353 47.0913 33.7578 47.1263C33.6803 47.1638 33.6053 47.1963 33.5303 47.2288C33.3029 47.3237 33.0905 47.3687 32.8855 47.3687C32.6831 47.3687 32.4956 47.3262 32.3232 47.2438C32.1507 47.1613 31.9958 47.0413 31.8608 46.8839C31.7259 46.7264 31.6109 46.5365 31.5209 46.3165C31.4309 46.0966 31.3785 45.8817 31.3635 45.6717C31.351 45.4618 31.376 45.2668 31.4409 45.0844C31.5059 44.9019 31.6109 44.737 31.7559 44.592C31.9008 44.4471 32.0858 44.3271 32.3082 44.2346C32.5306 44.1422 32.7456 44.0972 32.9505 44.0972C33.1554 44.0972 33.3454 44.1397 33.5203 44.2221C33.6953 44.3046 33.8502 44.4221 33.9877 44.577C34.1252 44.732 34.2376 44.9169 34.3276 45.1319C34.3751 45.2443 34.4076 45.3593 34.4301 45.4743C34.4526 45.5892 34.4626 45.7017 34.4601 45.8117C34.4576 45.9216 34.4401 46.0291 34.4126 46.1341C34.3826 46.239 34.3401 46.3365 34.2851 46.429L34.2926 46.434L34.3001 46.4315ZM33.7953 45.3793C33.7228 45.2043 33.6378 45.0594 33.5403 44.9444C33.4429 44.8295 33.3379 44.7445 33.2254 44.6895C33.113 44.6345 32.9955 44.6045 32.8705 44.6045C32.7481 44.6045 32.6231 44.6295 32.4981 44.682C32.3732 44.7345 32.2657 44.8045 32.1782 44.8894C32.0908 44.9769 32.0258 45.0794 31.9858 45.1994C31.9458 45.3193 31.9308 45.4543 31.9433 45.6042C31.9558 45.7542 31.9958 45.9166 32.0683 46.0941C32.1407 46.2715 32.2257 46.414 32.3232 46.529C32.4207 46.6439 32.5256 46.7289 32.6381 46.7839C32.7506 46.8389 32.868 46.8664 32.993 46.8689C33.1155 46.8689 33.2404 46.8439 33.3654 46.7914C33.4904 46.7389 33.5978 46.6689 33.6853 46.5815C33.7728 46.494 33.8353 46.3915 33.8777 46.2715C33.9177 46.1541 33.9327 46.0191 33.9202 45.8692C33.9077 45.7192 33.8677 45.5567 33.7953 45.3793Z" fill="#0996C7"/>
<path d="M13.5933 42.3003L13.031 41.8629L13.126 41.7429L13.8208 42.2828L12.9685 43.3774L12.3037 42.8601L12.3987 42.7401L12.931 43.1525L13.206 42.7976L12.7336 42.4302L12.8286 42.3103L13.3009 42.6776L13.5958 42.2978L13.5933 42.3003Z" fill="#0996C7"/>
<path d="M11.3565 41.1206C11.4015 41.0707 11.449 41.0307 11.499 40.9957C11.549 40.9607 11.6015 40.9332 11.654 40.9132C11.7064 40.8932 11.7589 40.8807 11.8114 40.8757C11.8639 40.8707 11.9164 40.8732 11.9664 40.8807H11.9689C11.9214 40.8457 11.8764 40.8132 11.8339 40.7832C11.7939 40.7532 11.7539 40.7183 11.7164 40.6833L11.8189 40.5708C11.8414 40.5933 11.8664 40.6208 11.8914 40.6458C11.9189 40.6733 11.9489 40.7033 11.9864 40.7383C12.0138 40.7632 12.0413 40.7882 12.0713 40.8132C12.1013 40.8382 12.1313 40.8607 12.1588 40.8832C12.1888 40.9057 12.2163 40.9282 12.2438 40.9532C12.2713 40.9757 12.2988 40.9982 12.3213 41.0207C12.3962 41.0907 12.4537 41.1656 12.4912 41.2456C12.5287 41.3256 12.5462 41.4081 12.5462 41.493C12.5462 41.578 12.5262 41.6605 12.4887 41.7455C12.4512 41.8304 12.3962 41.9129 12.3263 41.9904C12.2538 42.0679 12.1788 42.1304 12.0963 42.1753C12.0138 42.2203 11.9314 42.2453 11.8464 42.2553C11.7614 42.2653 11.6789 42.2553 11.594 42.2278C11.5115 42.2003 11.4315 42.1528 11.359 42.0854C11.2841 42.0179 11.2291 41.9429 11.1941 41.8604C11.1591 41.778 11.1416 41.698 11.1416 41.613C11.1416 41.528 11.1616 41.4455 11.1966 41.3606C11.2341 41.2756 11.2841 41.1981 11.354 41.1231L11.3565 41.1206ZM11.499 41.2306C11.4365 41.3006 11.389 41.3681 11.359 41.4381C11.329 41.508 11.3141 41.573 11.3116 41.638C11.3116 41.703 11.324 41.763 11.349 41.8204C11.3765 41.8779 11.4115 41.9279 11.4615 41.9729C11.5115 42.0179 11.564 42.0504 11.624 42.0704C11.6839 42.0904 11.7439 42.0979 11.8089 42.0904C11.8739 42.0829 11.9364 42.0629 12.0039 42.0254C12.0688 41.9879 12.1338 41.9354 12.1963 41.8679C12.2588 41.7979 12.3063 41.7305 12.3338 41.6605C12.3637 41.5905 12.3787 41.5255 12.3787 41.4605C12.3787 41.3956 12.3662 41.3356 12.3413 41.2806C12.3163 41.2256 12.2763 41.1731 12.2263 41.1281C12.1763 41.0832 12.1238 41.0507 12.0638 41.0307C12.0064 41.0107 11.9439 41.0032 11.8814 41.0107C11.8189 41.0182 11.7539 41.0382 11.6864 41.0757C11.619 41.1131 11.5565 41.1631 11.494 41.2331L11.499 41.2306Z" fill="#0996C7"/>
<path d="M11.0241 39.9309C10.9891 39.8934 10.9541 39.8659 10.9191 39.8434C10.8842 39.8209 10.8492 39.8084 10.8142 39.8009C10.7792 39.7934 10.7442 39.7934 10.7092 39.8009C10.6742 39.8084 10.6392 39.8184 10.6042 39.8359C10.5817 39.8459 10.5618 39.8609 10.5393 39.8759C10.5168 39.8909 10.4968 39.9109 10.4768 39.9284L9.84446 40.5132L9.72949 40.3883L10.3593 39.8059C10.3818 39.7834 10.4093 39.7634 10.4368 39.7409C10.4643 39.7184 10.4918 39.701 10.5193 39.686C10.5668 39.661 10.6142 39.6435 10.6642 39.6335C10.7142 39.6235 10.7642 39.6235 10.8167 39.6335C10.8692 39.6435 10.9216 39.6635 10.9741 39.6935C11.0266 39.7234 11.0816 39.7684 11.1341 39.8284C11.1866 39.8834 11.2241 39.9384 11.2516 39.9934C11.279 40.0459 11.294 40.0983 11.3015 40.1483C11.309 40.1983 11.304 40.2458 11.294 40.2933C11.2815 40.3408 11.264 40.3858 11.2391 40.4282C11.2216 40.4582 11.1991 40.4907 11.1741 40.5207C11.1491 40.5507 11.1216 40.5782 11.0941 40.6032L10.4643 41.1855L10.3493 41.0606L10.9816 40.4757C11.0041 40.4557 11.0266 40.4307 11.0466 40.4058C11.0666 40.3808 11.0841 40.3558 11.0991 40.3283C11.1316 40.2658 11.1441 40.1983 11.1341 40.1308C11.1241 40.0634 11.0866 39.9959 11.0241 39.9284V39.9309Z" fill="#0996C7"/>
<path d="M10.4043 39.0338L9.33208 39.9135L9.22461 39.7836L10.2968 38.9038L10.4043 39.0338Z" fill="#0996C7"/>
<path d="M9.66212 38.0792L9.76209 38.2141L8.76738 38.9464L9.0423 39.3188L8.91983 39.4088L8.27002 38.5265L8.39248 38.4366L8.6674 38.8089L9.66212 38.0767V38.0792Z" fill="#0996C7"/>
<path d="M8.39745 37.2068L8.86982 36.9094L8.95979 37.0519L8.48743 37.3493L8.05505 38.219L7.95758 38.0641L8.31248 37.3643V37.3593L7.52521 37.3793L7.42773 37.2243L8.39995 37.2093L8.39745 37.2068Z" fill="#0996C7"/>
<path d="M8.10753 35.5723L6.87289 36.2071L6.79541 36.0572L8.03005 35.4224L8.10753 35.5723Z" fill="#0996C7"/>
<path d="M6.9328 34.5325C7.01027 34.4051 7.09275 34.2776 7.17772 34.1501V34.1451C7.05526 34.2076 6.9303 34.2676 6.80283 34.3251L6.12803 34.6225L6.06055 34.4676L7.33018 33.9077L7.39766 34.0627L6.9103 34.8724C6.82533 35.0124 6.74285 35.1399 6.66537 35.2548V35.2598C6.78034 35.1998 6.9128 35.1374 7.06776 35.0699L7.71507 34.785L7.78255 34.9399L6.51292 35.4998L6.44544 35.3448L6.9328 34.535V34.5325Z" fill="#0996C7"/>
<path d="M6.10318 32.5707C6.18066 32.5432 6.25564 32.5282 6.32812 32.5257C6.4031 32.5207 6.47308 32.5282 6.54056 32.5482C6.60804 32.5682 6.67052 32.6006 6.7305 32.6431C6.79048 32.6856 6.84297 32.7431 6.89045 32.8131C6.91795 32.8531 6.94294 32.8981 6.96543 32.9456C6.98793 32.993 7.00792 33.0505 7.03041 33.108L7.13289 33.4054L5.82076 33.8578L5.71829 33.5579C5.6983 33.4979 5.6808 33.4429 5.66831 33.3904C5.65581 33.3379 5.64831 33.2879 5.64581 33.2405C5.64082 33.1555 5.64581 33.078 5.66831 33.008C5.6858 32.9381 5.71579 32.8731 5.75578 32.8181C5.79577 32.7631 5.84576 32.7131 5.90324 32.6731C5.96072 32.6331 6.0307 32.5981 6.10568 32.5732L6.10318 32.5707ZM6.15817 32.7306C6.0332 32.7731 5.93823 32.8381 5.88075 32.9206C5.82076 33.003 5.79327 33.103 5.79577 33.218C5.79577 33.263 5.80327 33.3104 5.81577 33.3604C5.82826 33.4104 5.84576 33.4679 5.86575 33.5279L5.90824 33.6503L6.93294 33.2979L6.89045 33.1755C6.86796 33.113 6.84797 33.0605 6.82547 33.0105C6.80298 32.963 6.78049 32.9206 6.75299 32.8856C6.68551 32.7931 6.60054 32.7331 6.49807 32.7056C6.3981 32.6781 6.28313 32.6856 6.15567 32.7306H6.15817Z" fill="#0996C7"/>
<path d="M6.44322 31.7509L6.26327 31.0636L6.41073 31.0261L6.63317 31.8784L5.29105 32.2283L5.07861 31.4135L5.22607 31.376L5.39602 32.0283L5.8284 31.9159L5.67844 31.336L5.8259 31.2985L5.97585 31.8784L6.44322 31.7559V31.7509Z" fill="#0996C7"/>
<path d="M5.41317 30.2614L4.79085 29.9865L4.75586 29.8015L5.51314 30.1389L6.11547 29.5266L6.15046 29.7141L5.6456 30.2214V30.2264L6.29791 30.5188L6.3329 30.7063L5.54563 30.3464L4.9633 30.9287L4.92831 30.7463L5.41067 30.2639V30.2589L5.41317 30.2614Z" fill="#0996C7"/>
<path d="M4.96877 28.5269C5.00876 28.5244 5.04125 28.5119 5.06624 28.4944C5.09124 28.4769 5.11123 28.4519 5.12623 28.4219C5.14122 28.3919 5.15372 28.3594 5.16122 28.3219C5.16871 28.2844 5.17621 28.2444 5.18371 28.2045C5.19121 28.1495 5.2012 28.097 5.2137 28.042C5.2262 27.987 5.24369 27.9395 5.26868 27.897C5.29368 27.8546 5.32617 27.8171 5.36866 27.7896C5.41114 27.7621 5.46863 27.7446 5.53861 27.7371C5.61109 27.7321 5.67357 27.7371 5.72855 27.7621C5.78354 27.7846 5.82852 27.8196 5.86601 27.8646C5.9035 27.9095 5.93349 27.9645 5.95349 28.0295C5.97598 28.0945 5.98848 28.1645 5.99597 28.2419C5.99847 28.2769 6.00097 28.3144 5.99847 28.3519C5.99847 28.3894 5.99348 28.4269 5.98848 28.4619C5.98348 28.4969 5.97848 28.5294 5.97098 28.5569C5.96348 28.5843 5.95599 28.6068 5.94849 28.6243L5.79353 28.6368C5.80353 28.6118 5.81353 28.5818 5.82103 28.5494C5.82852 28.5169 5.83352 28.4844 5.83852 28.4519C5.84352 28.4194 5.84602 28.3844 5.84852 28.3494C5.84852 28.3144 5.84852 28.2844 5.84852 28.2544C5.84352 28.207 5.83602 28.1595 5.82352 28.117C5.81103 28.0745 5.79353 28.037 5.77354 28.0045C5.75105 27.9745 5.72355 27.9495 5.68856 27.932C5.65357 27.9145 5.61109 27.9095 5.5611 27.9145C5.51861 27.917 5.48612 27.9295 5.46113 27.9495C5.43614 27.9695 5.41614 27.992 5.40115 28.022C5.38615 28.052 5.37365 28.0845 5.36616 28.1245C5.35866 28.1645 5.35116 28.202 5.34616 28.2444C5.33866 28.2994 5.32867 28.3519 5.31867 28.4044C5.30867 28.4569 5.28868 28.5044 5.26619 28.5469C5.24119 28.5893 5.2087 28.6243 5.16871 28.6518C5.12623 28.6793 5.07374 28.6968 5.00626 28.7018C4.93878 28.7068 4.8738 28.7018 4.82131 28.6793C4.76883 28.6568 4.72384 28.6268 4.68635 28.5843C4.64886 28.5444 4.62137 28.4944 4.60138 28.4394C4.58138 28.3844 4.56889 28.3244 4.56139 28.2594C4.55639 28.187 4.55639 28.117 4.56639 28.052C4.57638 27.987 4.58888 27.927 4.60638 27.8721L4.76133 27.8596C4.74134 27.9195 4.72884 27.9795 4.71634 28.042C4.70635 28.1045 4.70385 28.1695 4.70885 28.2394C4.71384 28.2919 4.72384 28.3369 4.73634 28.3744C4.75133 28.4119 4.76883 28.4419 4.79382 28.4669C4.81632 28.4919 4.84381 28.5069 4.8738 28.5169C4.90379 28.5269 4.93878 28.5294 4.97627 28.5269H4.96877Z" fill="#0996C7"/>
<path d="M5.74562 27.0521L5.73312 26.3398H5.88558L5.90057 27.2171L4.51347 27.2396L4.50098 26.3973H4.65343L4.66343 27.0671L5.1108 27.0596L5.1008 26.4623H5.25326L5.26326 27.0571L5.74562 27.0496V27.0521Z" fill="#0996C7"/>
<path d="M5.33344 25.6602L5.90827 25.6926L5.89827 25.8601L4.51367 25.7851L4.53367 25.4252C4.53617 25.3652 4.54116 25.3128 4.54866 25.2703C4.55616 25.2278 4.56366 25.1903 4.57615 25.1553C4.60864 25.0603 4.65613 24.9878 4.72111 24.9404C4.78609 24.8929 4.86857 24.8704 4.96104 24.8779C5.01603 24.8804 5.06601 24.8929 5.1085 24.9129C5.15099 24.9329 5.18848 24.9604 5.21847 24.9953C5.24846 25.0303 5.27345 25.0703 5.29095 25.1153C5.30844 25.1603 5.32094 25.2128 5.32844 25.2678H5.33344L5.94826 24.8904L5.93826 25.0578L5.34093 25.4527L5.33094 25.6577L5.33344 25.6602ZM4.67363 25.6252L5.18098 25.6527L5.19098 25.4852C5.19348 25.4327 5.19348 25.3902 5.19098 25.3527C5.19098 25.3153 5.18598 25.2828 5.17848 25.2528C5.16348 25.1928 5.13849 25.1453 5.101 25.1128C5.06351 25.0803 5.01353 25.0603 4.94855 25.0578C4.88856 25.0578 4.84108 25.0678 4.80359 25.0953C4.7661 25.1228 4.73861 25.1628 4.71861 25.2153C4.70862 25.2403 4.70362 25.2703 4.69612 25.3028C4.69112 25.3377 4.68612 25.3802 4.68362 25.4352L4.67363 25.6277V25.6252Z" fill="#0996C7"/>
<path d="M6.00314 24.4105L4.62354 24.258L4.64103 24.0906L6.02063 24.243L6.00314 24.4105Z" fill="#0996C7"/>
<path d="M5.96296 23.5107L6.07793 22.8084L6.22788 22.8334L6.08543 23.7032L4.71582 23.4783L4.85078 22.646L5.00074 22.671L4.89077 23.3358L5.33314 23.4083L5.43061 22.8184L5.58057 22.8434L5.4831 23.4333L5.95796 23.5107H5.96296Z" fill="#0996C7"/>
<path d="M5.36085 22.0038C5.40084 22.0138 5.43583 22.0138 5.46582 22.0038C5.49581 21.9938 5.52081 21.9763 5.5458 21.9538C5.56829 21.9313 5.59079 21.9013 5.61078 21.8688C5.63078 21.8363 5.64827 21.8013 5.66826 21.7638C5.69326 21.7138 5.72075 21.6664 5.74824 21.6189C5.77573 21.5714 5.80822 21.5314 5.84321 21.4989C5.8807 21.4664 5.92319 21.4414 5.97318 21.4264C6.02316 21.4114 6.08065 21.4139 6.15063 21.4289C6.22061 21.4464 6.27809 21.4739 6.32308 21.5114C6.36806 21.5489 6.40055 21.5964 6.42305 21.6514C6.44554 21.7063 6.45554 21.7663 6.45554 21.8338C6.45554 21.9013 6.44804 21.9738 6.43054 22.0487C6.42305 22.0837 6.41055 22.1187 6.39805 22.1537C6.38556 22.1887 6.37056 22.2237 6.35557 22.2537C6.34057 22.2862 6.32557 22.3137 6.30808 22.3387C6.29058 22.3637 6.27809 22.3812 6.26559 22.3961L6.11564 22.3612C6.13313 22.3412 6.15063 22.3162 6.16812 22.2862C6.18562 22.2587 6.20061 22.2287 6.21561 22.1987C6.2306 22.1687 6.2431 22.1362 6.2556 22.1037C6.26809 22.0712 6.27559 22.0412 6.28309 22.0113C6.29308 21.9638 6.30058 21.9188 6.30308 21.8738C6.30308 21.8288 6.30058 21.7888 6.28809 21.7513C6.27809 21.7138 6.25809 21.6839 6.2281 21.6564C6.20061 21.6289 6.16062 21.6114 6.11314 21.5989C6.07315 21.5889 6.03816 21.5889 6.00817 21.5989C5.97818 21.6089 5.95068 21.6264 5.92819 21.6489C5.9057 21.6714 5.8832 21.7013 5.86321 21.7338C5.84321 21.7663 5.82572 21.8038 5.80572 21.8413C5.78073 21.8913 5.75574 21.9388 5.72825 21.9863C5.70075 22.0338 5.67076 22.0737 5.63327 22.1062C5.59828 22.1387 5.5558 22.1637 5.50581 22.1762C5.45833 22.1912 5.40084 22.1887 5.33586 22.1762C5.26838 22.1612 5.2109 22.1337 5.16841 22.0962C5.12592 22.0587 5.09343 22.0163 5.07094 21.9663C5.04844 21.9163 5.03595 21.8613 5.03345 21.8013C5.03345 21.7413 5.03845 21.6814 5.05344 21.6164C5.07094 21.5439 5.09343 21.4789 5.12092 21.4189C5.15091 21.3589 5.18091 21.3065 5.21589 21.2615L5.36835 21.2965C5.33086 21.3464 5.29837 21.3989 5.27088 21.4564C5.24089 21.5114 5.21839 21.5739 5.2034 21.6414C5.1909 21.6938 5.1859 21.7388 5.1884 21.7788C5.1884 21.8188 5.1984 21.8538 5.2134 21.8838C5.22839 21.9138 5.24839 21.9388 5.27588 21.9563C5.30337 21.9763 5.33336 21.9888 5.36835 21.9988L5.36085 22.0038Z" fill="#0996C7"/>
<path d="M15.2732 44.4947L15.813 44.9196L15.1257 44.8896L14.8883 45.5344L14.7034 44.8721L14.0186 44.8446L14.5909 44.4647L14.4034 43.8049L14.9408 44.2323L15.5131 43.8499L15.2732 44.4947Z" fill="#0996C7"/>
<path d="M6.44805 17.8873L7.41027 17.8399L6.65799 18.4397L7.00039 19.3394L6.19562 18.8096L5.44584 19.4119L5.70076 18.4847L4.896 17.9573L5.85822 17.9148L6.11065 16.9851L6.44805 17.8873Z" fill="#0996C7"/>
<path d="M36.6268 44.4947L36.0869 44.9196L36.7742 44.8896L37.0116 45.5344L37.1941 44.8721L37.8814 44.8446L37.3091 44.4647L37.4965 43.8049L36.9592 44.2323L36.3868 43.8499L36.6268 44.4947Z" fill="#0996C7"/>
<path d="M46.0291 17.8873L45.0669 17.8399L45.8217 18.4397L45.4793 19.3394L46.2815 18.8096L47.0338 19.4119L46.7764 18.4847L47.5837 17.9573L46.6214 17.9148L46.369 16.9851L46.0291 17.8873Z" fill="#0996C7"/>
<path d="M45.8892 21.8212L46.0492 22.5135L45.8992 22.5485L45.7018 21.6913L47.0539 21.3813L47.2413 22.2011L47.0939 22.2361L46.9439 21.5788L46.5066 21.6788L46.639 22.2611L46.4916 22.2961L46.3566 21.7138L45.8867 21.8212H45.8892Z" fill="#0996C7"/>
<path d="M46.8742 24.1431C46.8092 24.153 46.7442 24.1555 46.6843 24.1505C46.6243 24.1456 46.5668 24.1331 46.5118 24.1156C46.4593 24.0981 46.4093 24.0731 46.3669 24.0431C46.3244 24.0131 46.2844 23.9806 46.2519 23.9406H46.2469C46.2644 23.9956 46.2794 24.0481 46.2919 24.0981C46.3044 24.1481 46.3144 24.198 46.3194 24.2505L46.1694 24.273C46.1669 24.2405 46.1644 24.2055 46.1619 24.168C46.1594 24.1306 46.1544 24.0856 46.1469 24.0381C46.1419 24.0006 46.1344 23.9631 46.1269 23.9256C46.1194 23.8881 46.1119 23.8506 46.1019 23.8156C46.0944 23.7782 46.0869 23.7432 46.0794 23.7082C46.0719 23.6732 46.0669 23.6382 46.0619 23.6082C46.0469 23.5057 46.0519 23.4133 46.0719 23.3283C46.0919 23.2433 46.1319 23.1683 46.1869 23.1034C46.2394 23.0384 46.3094 22.9859 46.3918 22.9434C46.4743 22.9009 46.5668 22.8734 46.6718 22.8559C46.7767 22.8409 46.8742 22.8409 46.9667 22.8584C47.0592 22.8759 47.1391 22.9084 47.2116 22.9534C47.2816 23.0009 47.3416 23.0609 47.3891 23.1333C47.4365 23.2083 47.4665 23.2933 47.4815 23.3933C47.4965 23.4932 47.4915 23.5857 47.469 23.6707C47.4465 23.7557 47.4066 23.8306 47.3516 23.8956C47.2966 23.9606 47.2291 24.0131 47.1491 24.0556C47.0691 24.0981 46.9767 24.1256 46.8767 24.1406L46.8742 24.1431ZM46.8342 23.9706C46.9267 23.9581 47.0067 23.9331 47.0742 23.8981C47.1416 23.8631 47.1941 23.8231 47.2366 23.7732C47.2791 23.7232 47.3066 23.6682 47.3216 23.6082C47.3366 23.5482 47.3416 23.4832 47.3316 23.4183C47.3216 23.3533 47.3016 23.2933 47.2691 23.2383C47.2366 23.1858 47.1941 23.1408 47.1391 23.1059C47.0841 23.0709 47.0217 23.0459 46.9492 23.0334C46.8742 23.0209 46.7917 23.0209 46.6993 23.0334C46.6068 23.0459 46.5268 23.0709 46.4618 23.1059C46.3943 23.1408 46.3419 23.1833 46.2994 23.2308C46.2594 23.2808 46.2294 23.3358 46.2144 23.3958C46.1994 23.4558 46.1969 23.5207 46.2069 23.5857C46.2169 23.6507 46.2369 23.7107 46.2694 23.7632C46.3019 23.8156 46.3444 23.8606 46.3968 23.8956C46.4493 23.9306 46.5143 23.9556 46.5868 23.9681C46.6593 23.9806 46.7442 23.9806 46.8367 23.9681L46.8342 23.9706Z" fill="#0996C7"/>
<path d="M46.379 25.2753C46.3815 25.3253 46.3915 25.3703 46.404 25.4077C46.419 25.4452 46.4365 25.4802 46.459 25.5077C46.4814 25.5352 46.5089 25.5577 46.5414 25.5752C46.5714 25.5927 46.6064 25.6052 46.6439 25.6127C46.6664 25.6177 46.6939 25.6227 46.7214 25.6227C46.7489 25.6227 46.7764 25.6227 46.8039 25.6227L47.6636 25.5702L47.6736 25.7401L46.8189 25.7926C46.7864 25.7926 46.7514 25.7926 46.7164 25.7926C46.6814 25.7926 46.6489 25.7876 46.6164 25.7826C46.5639 25.7726 46.5164 25.7551 46.4715 25.7326C46.4265 25.7102 46.3865 25.6777 46.3515 25.6377C46.3165 25.5977 46.289 25.5477 46.2665 25.4902C46.244 25.4327 46.2315 25.3628 46.2265 25.2853C46.2215 25.2103 46.2265 25.1428 46.239 25.0828C46.2515 25.0254 46.2715 24.9729 46.299 24.9304C46.3265 24.8879 46.359 24.8529 46.3965 24.8229C46.4365 24.7954 46.4789 24.7704 46.5239 24.7529C46.5589 24.7404 46.5939 24.7304 46.6339 24.7229C46.6739 24.7154 46.7114 24.7104 46.7489 24.7104L47.6036 24.658L47.6136 24.8254L46.7539 24.8779C46.7239 24.8779 46.6914 24.8829 46.6589 24.8904C46.6264 24.8979 46.5964 24.9054 46.5714 24.9179C46.5064 24.9454 46.4565 24.9904 46.4215 25.0478C46.3865 25.1053 46.3715 25.1828 46.3765 25.2753H46.379Z" fill="#0996C7"/>
<path d="M46.2891 26.3599L47.6762 26.3374V26.5074L46.2916 26.5298V26.3599H46.2891Z" fill="#0996C7"/>
<path d="M46.2618 27.5796L46.2693 27.4096L47.5039 27.4721L47.5264 27.0098L47.6789 27.0173L47.6239 28.1119L47.4714 28.1044L47.4939 27.6421L46.2593 27.5796H46.2618Z" fill="#0996C7"/>
<path d="M46.6891 29.0466L46.1343 28.9792L46.1543 28.8117L46.7091 28.8792L47.5939 28.4768L47.5714 28.6593L46.8541 28.9767V28.9817L47.4739 29.4615L47.4514 29.644L46.6891 29.0416V29.0466Z" fill="#0996C7"/>
<path d="M45.8841 30.4988L47.2412 30.7862L47.2062 30.9511L45.8491 30.6637L45.8841 30.4988Z" fill="#0996C7"/>
<path d="M46.1344 32.0509C45.9944 32.1009 45.8495 32.1483 45.7045 32.1933V32.1983C45.8345 32.2258 45.9694 32.2583 46.1044 32.2958L46.8167 32.4932L46.7717 32.6582L45.4346 32.2883L45.4796 32.1258L46.3693 31.8059C46.5243 31.751 46.6692 31.7035 46.8017 31.6635V31.6585C46.6792 31.6335 46.5343 31.5985 46.3718 31.5535L45.6895 31.3661L45.7345 31.2036L47.0716 31.5735L47.0266 31.736L46.1369 32.0559L46.1344 32.0509Z" fill="#0996C7"/>
<path d="M45.5369 34.0901C45.4619 34.0626 45.3919 34.0276 45.332 33.9826C45.272 33.9401 45.222 33.8877 45.182 33.8302C45.142 33.7727 45.1145 33.7077 45.0945 33.6377C45.077 33.5677 45.072 33.4903 45.077 33.4053C45.082 33.3578 45.0895 33.3078 45.1045 33.2553C45.1195 33.2028 45.137 33.1479 45.157 33.0879L45.267 32.793L46.5691 33.2728L46.4591 33.5702C46.4366 33.6302 46.4141 33.6827 46.3917 33.7327C46.3692 33.7827 46.3417 33.8252 46.3142 33.8652C46.2642 33.9326 46.2092 33.9876 46.1517 34.0301C46.0917 34.0726 46.0293 34.1026 45.9643 34.1226C45.8993 34.1426 45.8293 34.1476 45.7568 34.1426C45.6844 34.1376 45.6119 34.1201 45.5369 34.0926V34.0901ZM45.5969 33.9326C45.7218 33.9776 45.8343 33.9876 45.9318 33.9626C46.0293 33.9351 46.1142 33.8777 46.1842 33.7852C46.2117 33.7502 46.2367 33.7102 46.2592 33.6627C46.2817 33.6152 46.3042 33.5627 46.3267 33.5003L46.3717 33.3778L45.3545 33.0029L45.3095 33.1254C45.287 33.1854 45.2695 33.2428 45.2545 33.2928C45.242 33.3428 45.2345 33.3903 45.232 33.4353C45.227 33.5502 45.2545 33.6502 45.3145 33.7352C45.3744 33.8202 45.4694 33.8852 45.5944 33.9326H45.5969Z" fill="#0996C7"/>
<path d="M44.7571 34.5126L44.4622 35.1599L44.3247 35.0974L44.6896 34.2952L45.9517 34.8725L45.6018 35.6373L45.4619 35.5748L45.7418 34.9625L45.3344 34.775L45.0845 35.3199L44.947 35.2574L45.197 34.7125L44.7571 34.5126Z" fill="#0996C7"/>
<path d="M44.6147 36.3196L44.9246 36.9269L44.8346 37.0918L44.4597 36.3496L43.605 36.4445L43.695 36.2771L44.4047 36.2021L44.0848 35.5598L44.1773 35.3923L44.5597 36.1671L45.3795 36.0846L45.2895 36.2471L44.6122 36.3171L44.6147 36.3196Z" fill="#0996C7"/>
<path d="M43.8621 37.9414C43.8296 37.9189 43.7971 37.9064 43.7647 37.904C43.7347 37.904 43.7022 37.9089 43.6722 37.9214C43.6422 37.9339 43.6122 37.9539 43.5822 37.9764C43.5522 38.0014 43.5222 38.0264 43.4922 38.0539C43.4497 38.0914 43.4098 38.1264 43.3673 38.1614C43.3248 38.1964 43.2798 38.2214 43.2348 38.2389C43.1898 38.2563 43.1398 38.2638 43.0898 38.2588C43.0399 38.2538 42.9849 38.2314 42.9249 38.1914C42.8649 38.1514 42.8224 38.1039 42.7949 38.0514C42.7674 37.9989 42.7524 37.9439 42.7524 37.8865C42.7524 37.8265 42.7624 37.7665 42.7874 37.704C42.8099 37.6415 42.8449 37.5765 42.8899 37.5116C42.9099 37.4816 42.9324 37.4516 42.9574 37.4241C42.9824 37.3966 43.0074 37.3691 43.0324 37.3441C43.0574 37.3191 43.0823 37.2991 43.1073 37.2816C43.1298 37.2641 43.1523 37.2516 43.1673 37.2441L43.2948 37.3316C43.2698 37.3441 43.2448 37.3616 43.2198 37.3816C43.1923 37.4016 43.1673 37.4241 43.1423 37.4466C43.1173 37.4691 43.0948 37.4941 43.0723 37.5191C43.0499 37.5441 43.0299 37.569 43.0124 37.594C42.9849 37.634 42.9624 37.674 42.9449 37.7165C42.9274 37.759 42.9174 37.7965 42.9149 37.8365C42.9149 37.874 42.9199 37.9114 42.9349 37.9464C42.9524 37.9814 42.9799 38.0139 43.0224 38.0414C43.0574 38.0639 43.0898 38.0764 43.1223 38.0789C43.1548 38.0789 43.1848 38.0739 43.2148 38.0614C43.2448 38.0489 43.2748 38.0289 43.3048 38.0039C43.3348 37.9789 43.3648 37.9539 43.3973 37.9239C43.4372 37.8865 43.4797 37.8515 43.5222 37.8165C43.5647 37.784 43.6072 37.7565 43.6547 37.739C43.7022 37.7215 43.7472 37.714 43.7971 37.719C43.8471 37.724 43.8996 37.744 43.9546 37.784C44.0121 37.824 44.0546 37.869 44.0821 37.9189C44.1096 37.9689 44.1245 38.0214 44.127 38.0764C44.127 38.1314 44.122 38.1864 44.1021 38.2439C44.0821 38.2988 44.0546 38.3563 44.0171 38.4088C43.9746 38.4688 43.9296 38.5238 43.8821 38.5663C43.8346 38.6112 43.7871 38.6487 43.7372 38.6812L43.6072 38.5937C43.6597 38.5613 43.7097 38.5213 43.7572 38.4813C43.8046 38.4413 43.8471 38.3888 43.8871 38.3338C43.9171 38.2913 43.9371 38.2488 43.9496 38.2114C43.9621 38.1739 43.9671 38.1364 43.9646 38.1039C43.9621 38.0714 43.9521 38.0414 43.9346 38.0139C43.9171 37.9864 43.8921 37.9614 43.8621 37.9414Z" fill="#0996C7"/>
<path d="M42.328 38.5939L41.8856 39.1512L41.7656 39.0563L42.313 38.3665L43.4027 39.2262L42.8803 39.886L42.7603 39.791L43.1777 39.2637L42.8253 38.9863L42.4529 39.4561L42.333 39.3612L42.7054 38.8913L42.328 38.5914V38.5939Z" fill="#0996C7"/>
<path d="M41.768 39.9335L41.3431 39.5461L41.4581 39.4211L42.4828 40.3559L42.2404 40.6208C42.2004 40.6658 42.1629 40.7033 42.1304 40.7308C42.0979 40.7583 42.0679 40.7832 42.0354 40.8032C41.9505 40.8557 41.868 40.8807 41.7855 40.8757C41.703 40.8707 41.628 40.8357 41.5581 40.7733C41.5156 40.7358 41.4856 40.6958 41.4656 40.6508C41.4456 40.6083 41.4331 40.5633 41.4306 40.5183C41.4306 40.4733 41.4356 40.4259 41.4506 40.3784C41.4656 40.3309 41.4881 40.2834 41.5181 40.2359H41.5156L40.8008 40.1359L40.9157 40.011L41.628 40.0835L41.7655 39.9335H41.768ZM42.2554 40.3784L41.8805 40.036L41.768 40.1584C41.733 40.1959 41.7055 40.2309 41.683 40.2609C41.6605 40.2909 41.643 40.3184 41.6305 40.3459C41.6031 40.4009 41.5956 40.4533 41.6031 40.5033C41.6105 40.5533 41.638 40.6008 41.6855 40.6433C41.7305 40.6833 41.7755 40.7033 41.823 40.7058C41.8705 40.7083 41.918 40.6958 41.9629 40.6683C41.9854 40.6558 42.0104 40.6358 42.0354 40.6133C42.0604 40.5908 42.0929 40.5583 42.1279 40.5183L42.2579 40.3759L42.2554 40.3784Z" fill="#0996C7"/>
<path d="M40.4608 40.4758L41.433 41.4655L41.313 41.583L40.3408 40.5933L40.4608 40.4758Z" fill="#0996C7"/>
<path d="M39.9209 41.1981L39.3885 41.668L39.2886 41.553L39.9484 40.9707L40.8681 42.0104L40.2358 42.5677L40.1358 42.4528L40.6407 42.0079L40.3433 41.673L39.8959 42.0704L39.7959 41.9554L40.2433 41.558L39.9234 41.1956L39.9209 41.1981Z" fill="#0996C7"/>
<path d="M39.4261 42.7527C39.4011 42.7202 39.3736 42.6978 39.3461 42.6878C39.3161 42.6778 39.2861 42.6728 39.2536 42.6753C39.2212 42.6778 39.1862 42.6878 39.1512 42.7003C39.1162 42.7152 39.0787 42.7302 39.0412 42.7452C38.9912 42.7677 38.9387 42.7877 38.8887 42.8077C38.8388 42.8277 38.7888 42.8377 38.7388 42.8402C38.6888 42.8427 38.6413 42.8327 38.5938 42.8127C38.5463 42.7927 38.5014 42.7552 38.4589 42.6977C38.4139 42.6403 38.3889 42.5828 38.3789 42.5253C38.3689 42.4678 38.3714 42.4103 38.3889 42.3553C38.4064 42.3004 38.4364 42.2454 38.4789 42.1929C38.5214 42.1404 38.5738 42.0904 38.6363 42.0429C38.6638 42.0204 38.6963 42.0005 38.7288 41.9805C38.7613 41.9605 38.7938 41.943 38.8263 41.928C38.8588 41.913 38.8887 41.9005 38.9162 41.893C38.9437 41.883 38.9662 41.878 38.9862 41.8755L39.0812 41.998C39.0537 42.0029 39.0237 42.0104 38.9937 42.0229C38.9637 42.0354 38.9312 42.0454 38.9012 42.0604C38.8713 42.0754 38.8413 42.0904 38.8113 42.1079C38.7813 42.1254 38.7563 42.1429 38.7313 42.1604C38.6938 42.1904 38.6588 42.2204 38.6288 42.2554C38.5988 42.2879 38.5763 42.3229 38.5613 42.3578C38.5463 42.3928 38.5413 42.4303 38.5463 42.4678C38.5513 42.5053 38.5688 42.5453 38.5988 42.5853C38.6238 42.6178 38.6513 42.6403 38.6813 42.6503C38.7113 42.6603 38.7438 42.6653 38.7763 42.6628C38.8088 42.6603 38.8438 42.6503 38.8813 42.6378C38.9162 42.6253 38.9537 42.6078 38.9937 42.5928C39.0437 42.5703 39.0937 42.5478 39.1462 42.5303C39.1962 42.5103 39.2461 42.5003 39.2961 42.4978C39.3461 42.4953 39.3911 42.5028 39.4386 42.5228C39.4836 42.5428 39.5286 42.5803 39.5686 42.6328C39.611 42.6878 39.6385 42.7452 39.6485 42.8002C39.6585 42.8552 39.656 42.9102 39.641 42.9652C39.626 43.0177 39.601 43.0676 39.5661 43.1151C39.5311 43.1626 39.4861 43.2076 39.4361 43.2451C39.3761 43.2901 39.3186 43.3276 39.2586 43.3551C39.1987 43.3826 39.1412 43.4025 39.0862 43.4175L38.9912 43.2926C39.0512 43.2776 39.1112 43.2576 39.1687 43.2301C39.2261 43.2051 39.2836 43.1726 39.3386 43.1301C39.3811 43.0976 39.4136 43.0651 39.4361 43.0327C39.4586 43.0002 39.4761 42.9677 39.4836 42.9352C39.4911 42.9027 39.4911 42.8702 39.4836 42.8402C39.4761 42.8102 39.4611 42.7777 39.4386 42.7502L39.4261 42.7527Z" fill="#0996C7"/>
<path d="M31.5483 15.8728H37.1817L31.5483 30.806H26.0399L31.5483 15.8728Z" fill="#0996C7"/>
<path d="M19.442 20.7566H25.0754L19.442 35.6898H13.9336L19.442 20.7566Z" fill="#0996C7"/>
<path d="M27.1447 21.7912L27.947 24.5404L26.085 29.8589C25.8626 30.4937 24.9753 30.5212 24.7129 29.9013L23.3408 26.6298L25.2353 21.7112C25.5827 20.8115 26.8748 20.864 27.1447 21.7912Z" fill="#0996C7"/>
</svg>
