<svg width="52" height="52" viewBox="0 0 52 52" fill="none" xmlns="http://www.w3.org/2000/svg">
<path d="M25.9998 52C40.3592 52 51.9998 40.3594 51.9998 26C51.9998 11.6406 40.3592 0 25.9998 0C11.6404 0 -0.000244141 11.6406 -0.000244141 26C-0.000244141 40.3594 11.6404 52 25.9998 52Z" fill="#EB1700"/>
<path d="M26 44.1524C15.9904 44.1524 7.84766 36.0098 7.84766 26.0002C7.84766 15.9906 15.9904 7.8479 26 7.8479C36.0096 7.8479 44.1522 15.9906 44.1522 26.0002C44.1522 36.0098 36.0096 44.1524 26 44.1524ZM26 8.35275C16.2703 8.35275 8.35252 16.268 8.35252 26.0002C8.35252 35.7324 16.2703 43.6476 26 43.6476C35.7297 43.6476 43.6474 35.7299 43.6474 26.0002C43.6474 16.2705 35.7297 8.35275 26 8.35275Z" fill="white"/>
<path d="M26 50.6203C22.6784 50.6203 19.4543 49.968 16.4152 48.6834C13.4836 47.4437 10.8492 45.6693 8.5924 43.4099C6.33305 41.1506 4.55866 38.5188 3.31902 35.5872C2.03439 32.548 1.38208 29.3215 1.38208 26.0024C1.38208 22.6834 2.03439 19.4568 3.31902 16.4177C4.55866 13.486 6.33305 10.8518 8.5924 8.59494C10.8517 6.33559 13.4836 4.56111 16.4152 3.32146C19.4543 2.03683 22.6809 1.38452 26 1.38452C29.319 1.38452 32.5455 2.03683 35.5846 3.32146C38.5163 4.56111 41.1506 6.33559 43.4074 8.59494C45.6668 10.8543 47.4413 13.486 48.6809 16.4177C49.9655 19.4568 50.6179 22.6834 50.6179 26.0024C50.6179 29.3215 49.9655 32.548 48.6809 35.5872C47.4413 38.5188 45.6668 41.1531 43.4074 43.4099C41.1481 45.6693 38.5163 47.4437 35.5846 48.6834C32.5455 49.968 29.319 50.6203 26 50.6203ZM26 1.74692C22.7284 1.74692 19.5518 2.38923 16.5576 3.65637C13.6685 4.87851 11.0767 6.62551 8.84989 8.84987C6.62554 11.0742 4.87597 13.6685 3.65633 16.5576C2.38919 19.5518 1.74696 22.7284 1.74696 25.9999C1.74696 29.2715 2.38919 32.4481 3.65633 35.4422C4.87847 38.3314 6.62554 40.9231 8.84989 43.15C11.0743 45.3743 13.6685 47.1238 16.5576 48.3435C19.5518 49.6106 22.7284 50.2529 26 50.2529C29.2715 50.2529 32.4481 49.6106 35.4422 48.3435C38.3314 47.1213 40.9231 45.3743 43.1499 43.15C45.3743 40.9256 47.1238 38.3314 48.3435 35.4422C49.6106 32.4481 50.2528 29.2715 50.2528 25.9999C50.2528 22.7284 49.6106 19.5518 48.3435 16.5576C47.1213 13.6685 45.3743 11.0767 43.1499 8.84987C40.9256 6.62551 38.3314 4.87601 35.4422 3.65637C32.4481 2.38923 29.2715 1.74692 26 1.74692Z" fill="white"/>
<path d="M8.78765 13.7959C8.92511 13.8808 9.04255 13.9808 9.14253 14.0908C9.2425 14.2008 9.31746 14.3207 9.37244 14.4482C9.42492 14.5781 9.45488 14.7156 9.46238 14.8631C9.46738 15.0105 9.44738 15.163 9.3999 15.3254C9.37241 15.4179 9.33493 15.5129 9.28494 15.6103C9.23496 15.7078 9.17755 15.8078 9.11006 15.9153L8.77508 16.4476L6.42578 14.968L6.76321 14.4307C6.83069 14.3232 6.89812 14.2282 6.9631 14.1433C7.03058 14.0583 7.09808 13.9833 7.17056 13.9183C7.29553 13.8059 7.42556 13.7209 7.55802 13.6609C7.69048 13.6009 7.82535 13.5684 7.96281 13.5609C8.10027 13.5534 8.23783 13.5684 8.37529 13.6109C8.51275 13.6534 8.65019 13.7159 8.78765 13.8009V13.7959ZM8.61021 14.0808C8.38527 13.9383 8.17032 13.8733 7.96538 13.8833C7.76293 13.8933 7.57298 13.9758 7.39803 14.1233C7.33055 14.1808 7.2655 14.2507 7.20302 14.3332C7.14054 14.4157 7.07311 14.5132 7.00313 14.6231L6.86572 14.8431L8.69759 15.9977L8.83512 15.7778C8.9051 15.6678 8.96251 15.5654 9.01 15.4729C9.05748 15.3804 9.09257 15.2904 9.11507 15.2055C9.17505 14.983 9.15996 14.7756 9.07748 14.5831C8.99501 14.3907 8.83764 14.2232 8.61021 14.0808Z" fill="white"/>
<path d="M11.1492 13.1063L9.06982 11.2668L9.29473 11.0144L11.3742 12.8539L11.1492 13.1063Z" fill="white"/>
<path d="M13.4287 9.42757L12.9389 9.82745L12.7465 9.59002L13.4988 8.9752L14.3485 10.0149C14.336 10.0449 14.3135 10.0849 14.2785 10.1324C14.246 10.1799 14.206 10.2323 14.1585 10.2873C14.111 10.3423 14.0586 10.3998 14.0011 10.4598C13.9436 10.5173 13.8811 10.5722 13.8211 10.6247C13.6361 10.7747 13.4538 10.8821 13.2713 10.9471C13.0889 11.0121 12.9139 11.0371 12.7414 11.0221C12.569 11.0071 12.4066 10.9546 12.2492 10.8647C12.0917 10.7747 11.9467 10.6472 11.8142 10.4848C11.6718 10.3098 11.5669 10.1274 11.5044 9.93992C11.4419 9.75248 11.4194 9.56503 11.4369 9.38008C11.4569 9.19514 11.5168 9.01519 11.6168 8.84024C11.7167 8.66529 11.8542 8.50783 12.0291 8.36538C12.0766 8.32789 12.1241 8.2904 12.1741 8.25541C12.2241 8.22042 12.274 8.19043 12.3215 8.16044C12.369 8.13294 12.4165 8.10795 12.4615 8.08796C12.5065 8.06796 12.544 8.05297 12.579 8.04297L12.7689 8.2729C12.6864 8.30289 12.5991 8.34538 12.5041 8.40037C12.4091 8.45285 12.3191 8.51533 12.2366 8.58281C12.1141 8.68278 12.0142 8.79525 11.9317 8.92521C11.8518 9.05268 11.7993 9.18764 11.7768 9.3326C11.7543 9.47756 11.7617 9.62501 11.8042 9.77997C11.8467 9.93492 11.9292 10.0874 12.0541 10.2398C12.1766 10.3898 12.3016 10.4998 12.4316 10.5747C12.5616 10.6497 12.694 10.6897 12.8289 10.6972C12.9639 10.7047 13.0988 10.6822 13.2363 10.6272C13.3738 10.5722 13.5087 10.4898 13.6412 10.3798C13.7037 10.3298 13.7612 10.2748 13.8162 10.2198C13.8712 10.1649 13.9161 10.1124 13.9536 10.0624L13.4313 9.42257L13.4287 9.42757Z" fill="white"/>
<path d="M16.0405 9.04008L14.6533 6.63577L14.9457 6.46582L16.3329 8.87013L16.0405 9.04008Z" fill="white"/>
<path d="M19.0019 7.61532L18.687 7.73778L17.7872 5.43595L16.9225 5.77335L16.8125 5.48843L18.8544 4.69116L18.9643 4.97608L18.0996 5.31348L18.9994 7.61532H19.0019Z" fill="white"/>
<path d="M20.9864 6.93554L21.5687 3.99639L21.8562 3.94141L23.4932 6.45068L23.1333 6.52066L22.6484 5.76338L21.5088 5.98332L21.3413 6.86806L20.9839 6.93804L20.9864 6.93554ZM21.7911 4.39378C21.7362 4.75617 21.6788 5.08608 21.6213 5.38599L21.5687 5.66341L22.471 5.48846L22.3185 5.25103C22.151 4.9911 21.9787 4.70369 21.7987 4.39128H21.7911V4.39378Z" fill="white"/>
<path d="M25.4453 3.56616L25.4854 6.03795L26.84 6.01546L26.845 6.32037L25.1529 6.34786L25.1079 3.57366L25.4453 3.56866V3.56616Z" fill="white"/>
<path d="M30.251 6.75319L32.108 4.40137L32.3878 4.48384L32.7028 7.46548L32.3503 7.36301L32.2654 6.46827L31.1507 6.14586L30.6009 6.85566L30.251 6.75569V6.75319ZM32.1279 4.85624C31.9129 5.15365 31.7131 5.42107 31.5256 5.6635L31.3532 5.88594L32.238 6.14087L32.2104 5.86095C32.1804 5.55353 32.1579 5.21863 32.1379 4.85874H32.1304L32.1279 4.85624Z" fill="white"/>
<path d="M35.4097 6.42564C35.3722 6.49812 35.3572 6.5656 35.3622 6.62808C35.3672 6.69056 35.3872 6.75054 35.4197 6.80553C35.4547 6.86301 35.4972 6.9155 35.5547 6.97048C35.6121 7.02547 35.6696 7.07795 35.7321 7.13044C35.8171 7.20291 35.897 7.27789 35.9745 7.35287C36.0519 7.42785 36.1144 7.51033 36.1619 7.5978C36.2094 7.68527 36.2345 7.78025 36.237 7.88272C36.2395 7.98519 36.2094 8.10016 36.1469 8.22512C36.0819 8.35258 35.9995 8.45005 35.9045 8.52003C35.8096 8.58751 35.7021 8.63 35.5871 8.645C35.4697 8.65999 35.3471 8.6525 35.2147 8.6225C35.0822 8.59251 34.9473 8.54003 34.8073 8.47005C34.7423 8.43756 34.6799 8.40007 34.6174 8.35758C34.555 8.31509 34.4949 8.27261 34.4424 8.22762C34.3875 8.18263 34.3425 8.14014 34.3 8.09766C34.2575 8.05517 34.23 8.01768 34.21 7.98519L34.3499 7.71027C34.3824 7.75525 34.4225 7.80024 34.4675 7.84773C34.5124 7.89521 34.5624 7.9402 34.6149 7.98269C34.6674 8.02518 34.7223 8.06766 34.7773 8.10515C34.8323 8.14264 34.8873 8.17513 34.9423 8.20263C35.0273 8.24761 35.1147 8.2826 35.1997 8.3076C35.2846 8.33259 35.3672 8.34259 35.4421 8.34009C35.5171 8.33759 35.5896 8.31259 35.6546 8.27011C35.7196 8.22762 35.7746 8.16264 35.822 8.07266C35.8595 7.99768 35.877 7.9302 35.8695 7.86772C35.8645 7.80524 35.8446 7.74276 35.8096 7.68777C35.7746 7.63029 35.7296 7.57531 35.6746 7.52282C35.6196 7.47034 35.5596 7.41535 35.4946 7.36037C35.4096 7.28789 35.3296 7.21541 35.2521 7.14043C35.1747 7.06545 35.1122 6.98548 35.0673 6.898C35.0198 6.81303 34.9948 6.71805 34.9923 6.61808C34.9873 6.51811 35.0172 6.40814 35.0797 6.28818C35.1447 6.16321 35.2221 6.06574 35.3146 6.00076C35.4071 5.93578 35.5072 5.89079 35.6171 5.8733C35.7271 5.8558 35.8395 5.8583 35.9545 5.8808C36.0719 5.90579 36.1869 5.94578 36.3019 6.00576C36.4343 6.07324 36.5493 6.14822 36.6518 6.23319C36.7517 6.31567 36.8393 6.40314 36.9143 6.49312L36.7717 6.77304C36.6917 6.67807 36.6043 6.58809 36.5093 6.50562C36.4144 6.42314 36.3044 6.34816 36.1819 6.28318C36.087 6.23569 36.002 6.2032 35.922 6.18821C35.842 6.17321 35.7695 6.17321 35.7045 6.18821C35.6395 6.2032 35.5821 6.23069 35.5321 6.27318C35.4821 6.31567 35.4421 6.36815 35.4071 6.43314L35.4097 6.42564Z" fill="white"/>
<path d="M38.7939 8.4526C38.7439 8.51758 38.7163 8.58006 38.7088 8.64254C38.7013 8.70502 38.7089 8.7675 38.7338 8.82749C38.7563 8.88997 38.7914 8.94995 38.8364 9.01493C38.8813 9.07742 38.9288 9.1399 38.9813 9.20488C39.0513 9.29235 39.1163 9.37983 39.1788 9.4673C39.2413 9.55728 39.2886 9.64725 39.3186 9.74222C39.3486 9.8372 39.3562 9.93467 39.3412 10.0371C39.3262 10.1396 39.2761 10.2471 39.1887 10.357C39.1012 10.472 39.0037 10.552 38.8963 10.602C38.7888 10.652 38.6764 10.6745 38.559 10.667C38.4415 10.662 38.3215 10.632 38.1965 10.577C38.0716 10.522 37.949 10.447 37.8241 10.352C37.7666 10.3071 37.7116 10.2596 37.6566 10.2071C37.6017 10.1546 37.5516 10.0996 37.5067 10.0471C37.4617 9.99465 37.4242 9.94217 37.3917 9.89218C37.3592 9.8422 37.3367 9.80221 37.3242 9.76722L37.5117 9.52229C37.5367 9.57227 37.5667 9.62476 37.6042 9.67974C37.6417 9.73473 37.6816 9.78721 37.7241 9.8397C37.7666 9.89218 37.8142 9.94217 37.8617 9.98965C37.9091 10.0371 37.959 10.0796 38.0065 10.1146C38.084 10.1746 38.1616 10.2246 38.2416 10.2646C38.3215 10.3046 38.399 10.3296 38.4765 10.3396C38.5515 10.3495 38.6263 10.3396 38.6988 10.3096C38.7713 10.2796 38.8364 10.2246 38.8988 10.1446C38.9488 10.0796 38.9788 10.0146 38.9838 9.94966C38.9913 9.88718 38.9837 9.8222 38.9588 9.75972C38.9338 9.69724 38.9014 9.63475 38.8564 9.57227C38.8114 9.50979 38.7613 9.44481 38.7088 9.37983C38.6388 9.29485 38.5714 9.20738 38.5089 9.1199C38.4465 9.03243 38.399 8.94245 38.369 8.84998C38.339 8.75751 38.3314 8.66004 38.3439 8.56256C38.3564 8.46509 38.4064 8.36012 38.4889 8.25265C38.5739 8.14019 38.6688 8.06021 38.7713 8.01022C38.8738 7.96024 38.9813 7.93774 39.0913 7.93774C39.2013 7.93774 39.3112 7.96274 39.4237 8.00772C39.5337 8.05271 39.6411 8.11519 39.7436 8.19517C39.861 8.28514 39.961 8.38012 40.046 8.48009C40.1309 8.58006 40.2009 8.68253 40.2559 8.7825L40.066 9.02993C40.0035 8.92246 39.9336 8.81749 39.8561 8.72002C39.7786 8.62255 39.6835 8.53007 39.5736 8.4426C39.4911 8.37762 39.4112 8.33263 39.3362 8.30264C39.2612 8.27265 39.1912 8.26015 39.1237 8.26265C39.0563 8.26265 38.9962 8.28264 38.9387 8.31514C38.8813 8.34763 38.8313 8.39261 38.7863 8.4501L38.7939 8.4526Z" fill="white"/>
<path d="M40.511 12.2714L41.4632 13.3286L41.2359 13.5335L40.0562 12.2264L42.1181 10.3669L43.2453 11.6166L43.0178 11.8215L42.1156 10.8218L41.4508 11.4216L42.253 12.3114L42.0256 12.5163L41.2233 11.6266L40.506 12.2739L40.511 12.2714Z" fill="white"/>
<path d="M42.8449 15.8455L42.6675 15.5581L44.7719 14.2634L44.2844 13.4737L44.5444 13.3137L45.6941 15.1807L45.4341 15.3406L44.9467 14.5509L42.8424 15.8455H42.8449Z" fill="white"/>
<path d="M21.936 45.4817L22.4959 45.5992L22.0185 47.8636C21.9985 47.9635 21.971 48.0485 21.941 48.1185C21.911 48.1885 21.876 48.2485 21.836 48.2959C21.7835 48.3609 21.7211 48.4134 21.6536 48.4509C21.5861 48.4884 21.5111 48.5184 21.4311 48.5359C21.3511 48.5534 21.2662 48.5609 21.1812 48.5584C21.0937 48.5559 21.0062 48.5434 20.9162 48.5259C20.8238 48.5059 20.7338 48.4784 20.6489 48.4459C20.5639 48.4134 20.4939 48.3759 20.4414 48.3409L20.5414 47.8611C20.6038 47.9035 20.6688 47.9385 20.7438 47.971C20.8163 48.001 20.8913 48.026 20.9663 48.041C21.1112 48.071 21.2237 48.061 21.3037 48.006C21.3837 47.9535 21.4361 47.8611 21.4636 47.7286L21.936 45.4792V45.4817Z" fill="white"/>
<path d="M25.8602 47.3163C26.0802 47.6387 26.2575 47.9261 26.395 48.1761H26.41C26.3975 47.7687 26.3926 47.4713 26.3976 47.2863L26.42 45.8692L26.9924 45.8792L26.9423 49.0108L26.3401 49.0008L25.3428 47.5437C25.1679 47.2913 24.9854 46.9989 24.8005 46.6665H24.7855C24.798 47.0514 24.803 47.3488 24.798 47.5587L24.7755 48.9758L24.2031 48.9658L24.2532 45.8342L24.8555 45.8442L25.8602 47.3163Z" fill="white"/>
<path d="M29.2464 45.4841L29.8087 45.3691L30.2761 47.636C30.2961 47.736 30.3086 47.8259 30.3086 47.9009C30.3086 47.9759 30.301 48.0459 30.2835 48.1059C30.261 48.1883 30.2261 48.2583 30.1786 48.3233C30.1311 48.3858 30.0736 48.4408 30.0062 48.4907C29.9387 48.5382 29.8662 48.5782 29.7837 48.6107C29.7012 48.6432 29.6163 48.6682 29.5263 48.6857C29.4338 48.7057 29.3414 48.7157 29.2489 48.7182C29.159 48.7207 29.0814 48.7182 29.0165 48.7057L28.9189 48.2258C28.9914 48.2383 29.0689 48.2458 29.1489 48.2458C29.2288 48.2458 29.3064 48.2383 29.3813 48.2208C29.5263 48.1908 29.6238 48.1358 29.6763 48.0559C29.7288 47.9759 29.7413 47.8684 29.7138 47.7385L29.2489 45.4891L29.2464 45.4841Z" fill="white"/>
<path d="M11.7816 40.716C11.7441 40.6785 11.7041 40.6511 11.6666 40.6311C11.6291 40.6111 11.5892 40.5986 11.5517 40.5936C11.5142 40.5886 11.4767 40.5911 11.4392 40.5986C11.4017 40.6061 11.3666 40.6211 11.3317 40.6411C11.3092 40.6536 11.2867 40.6685 11.2642 40.6885C11.2417 40.7085 11.2192 40.7285 11.2017 40.7485L10.567 41.4033L10.4395 41.2784L11.0717 40.6261C11.0967 40.6011 11.1218 40.5761 11.1518 40.5536C11.1793 40.5286 11.2092 40.5086 11.2367 40.4911C11.2842 40.4611 11.3342 40.4411 11.3867 40.4261C11.4392 40.4136 11.4917 40.4086 11.5467 40.4161C11.6017 40.4236 11.6591 40.4411 11.7165 40.4711C11.774 40.5011 11.834 40.5461 11.894 40.6036C11.9515 40.6586 11.9965 40.716 12.029 40.771C12.059 40.826 12.0814 40.881 12.0914 40.9335C12.1014 40.986 12.1014 41.0384 12.0914 41.0884C12.0814 41.1384 12.064 41.1859 12.0415 41.2334C12.024 41.2684 12.0015 41.3009 11.9765 41.3334C11.9515 41.3658 11.924 41.3983 11.8966 41.4258L11.2642 42.0781L11.1368 41.9532L11.7716 41.2984C11.7941 41.2759 11.8165 41.2484 11.8365 41.2209C11.8565 41.1934 11.874 41.1659 11.8865 41.1384C11.9165 41.0684 11.9266 40.9984 11.9116 40.9285C11.8966 40.8585 11.854 40.7885 11.784 40.7185L11.7816 40.716Z" fill="white"/>
<path d="M9.82718 40.0263C9.85967 39.9988 9.88223 39.9688 9.89223 39.9363C9.90223 39.9038 9.90467 39.8713 9.89967 39.8363C9.89467 39.8013 9.88471 39.7663 9.86721 39.7289C9.85222 39.6914 9.83223 39.6539 9.81474 39.6139C9.78974 39.5614 9.76474 39.5089 9.74225 39.4564C9.71975 39.4039 9.70722 39.3515 9.70222 39.299C9.69722 39.2465 9.7023 39.194 9.7248 39.144C9.74479 39.094 9.78227 39.044 9.83975 38.9966C9.89724 38.9466 9.95715 38.9166 10.0196 38.9041C10.0821 38.8916 10.1422 38.8916 10.1996 38.9091C10.2596 38.9266 10.3196 38.9541 10.3771 38.9966C10.4346 39.0391 10.4895 39.0915 10.5445 39.154C10.5695 39.184 10.5921 39.214 10.6146 39.249C10.637 39.284 10.657 39.3165 10.672 39.349C10.687 39.3815 10.702 39.4139 10.7145 39.4414C10.727 39.4689 10.732 39.4939 10.7345 39.5139L10.6096 39.6189C10.6021 39.5889 10.592 39.5589 10.5795 39.5264C10.567 39.4939 10.552 39.4614 10.5345 39.4289C10.517 39.3964 10.4996 39.3665 10.4796 39.3365C10.4596 39.3065 10.4395 39.279 10.4195 39.254C10.3871 39.214 10.3521 39.179 10.3146 39.149C10.2771 39.119 10.2421 39.0965 10.2021 39.084C10.1646 39.069 10.1247 39.0665 10.0847 39.074C10.0447 39.0815 10.0046 39.1015 9.96215 39.1365C9.92966 39.164 9.90723 39.194 9.89723 39.2265C9.88724 39.259 9.88467 39.2915 9.88967 39.3265C9.89466 39.3615 9.90475 39.3989 9.92225 39.4364C9.93974 39.4739 9.95717 39.5114 9.97717 39.5514C10.0047 39.6039 10.0272 39.6564 10.0497 39.7089C10.0721 39.7613 10.0847 39.8138 10.0897 39.8638C10.0947 39.9163 10.0897 39.9663 10.0697 40.0163C10.0522 40.0663 10.0147 40.1137 9.95971 40.1587C9.90223 40.2062 9.8447 40.2387 9.78472 40.2512C9.72473 40.2637 9.66732 40.2662 9.60984 40.2512C9.55236 40.2387 9.49977 40.2137 9.44729 40.1787C9.3948 40.1437 9.34742 40.0987 9.30243 40.0463C9.25245 39.9863 9.2099 39.9263 9.17991 39.8638C9.14742 39.8013 9.12248 39.7413 9.10498 39.6839L9.23239 39.5764C9.25238 39.6389 9.27738 39.7014 9.30487 39.7613C9.33487 39.8213 9.37234 39.8788 9.41983 39.9363C9.45482 39.9788 9.49235 40.0113 9.52734 40.0363C9.56233 40.0588 9.5973 40.0763 9.63229 40.0812C9.66728 40.0887 9.69975 40.0863 9.73224 40.0763C9.76473 40.0663 9.79719 40.0488 9.82718 40.0238V40.0263Z" fill="white"/>
<path d="M7.55774 37.5794L8.67741 36.9046L8.30752 36.2898L8.44493 36.2073L8.90732 36.9746L7.64768 37.7318L7.55518 37.5794H7.55774Z" fill="white"/>
<path d="M8.05482 35.4949L6.47032 35.5799L6.40283 35.4399L7.47503 34.2703L7.55753 34.4452L7.23255 34.7926L7.49505 35.3475L7.96988 35.3175L8.05238 35.4924L8.05482 35.4949ZM6.64275 35.4149C6.8352 35.3949 7.01268 35.3824 7.17263 35.3724L7.32005 35.3625L7.11259 34.9226L7.01264 35.0325C6.90017 35.1525 6.77515 35.2775 6.64019 35.4124V35.4174L6.64275 35.4149Z" fill="white"/>
<path d="M6.51067 33.4606L7.08557 33.2607L7.14549 33.4307L5.75844 33.9155L5.63348 33.5556C5.61099 33.4956 5.596 33.4432 5.58601 33.3982C5.57601 33.3532 5.56849 33.3132 5.56599 33.2732C5.5585 33.1682 5.57848 33.0783 5.62347 33.0058C5.66846 32.9333 5.7384 32.8783 5.83337 32.8458C5.88836 32.8258 5.94337 32.8183 5.99336 32.8208C6.04335 32.8208 6.09079 32.8358 6.13578 32.8558C6.17826 32.8758 6.22087 32.9058 6.25586 32.9458C6.29335 32.9833 6.32575 33.0283 6.35324 33.0808H6.35825L6.80819 32.4609L6.86811 32.6309L6.4433 33.2582L6.51567 33.4631L6.51067 33.4606ZM5.84838 33.6906L6.3558 33.5131L6.29833 33.3457C6.28083 33.2932 6.26335 33.2507 6.24585 33.2157C6.23086 33.1807 6.21337 33.1507 6.19338 33.1232C6.15589 33.0708 6.11083 33.0358 6.06085 33.0183C6.01086 33.0008 5.95333 33.0033 5.89085 33.0233C5.83087 33.0458 5.78844 33.0758 5.76345 33.1182C5.73845 33.1607 5.72592 33.2107 5.72842 33.2682C5.72842 33.2957 5.73344 33.3282 5.74343 33.3632C5.75093 33.3982 5.76596 33.4432 5.78346 33.4956L5.85095 33.6881L5.84838 33.6906Z" fill="white"/>
<path d="M5.73327 30.7041L5.80832 31.0315L5.65078 31.069L5.53582 30.5691L6.22812 30.4092C6.23812 30.4217 6.25316 30.4417 6.26815 30.4692C6.28315 30.4967 6.29819 30.5266 6.31318 30.5641C6.32818 30.5991 6.3431 30.6391 6.35809 30.6791C6.37309 30.7216 6.38312 30.7616 6.39312 30.8041C6.42061 30.9265 6.43063 31.039 6.41813 31.1415C6.40564 31.2439 6.37812 31.3314 6.33063 31.4114C6.28315 31.4889 6.2206 31.5539 6.14063 31.6088C6.06065 31.6613 5.96571 31.7013 5.85824 31.7263C5.74077 31.7538 5.63078 31.7588 5.52581 31.7463C5.42084 31.7338 5.32846 31.6988 5.24599 31.6463C5.16351 31.5938 5.09094 31.5239 5.03096 31.4364C4.97098 31.3489 4.92849 31.2464 4.90099 31.129C4.8935 31.099 4.88854 31.0665 4.88354 31.034C4.87854 31.0015 4.87603 30.9715 4.87354 30.9415C4.87354 30.9115 4.87354 30.884 4.87354 30.8591C4.87354 30.8341 4.87604 30.8116 4.87854 30.7941L5.03352 30.7591C5.02852 30.8041 5.02852 30.8566 5.03352 30.914C5.03852 30.9715 5.04604 31.029 5.05854 31.084C5.07853 31.1665 5.10849 31.2389 5.14848 31.3089C5.19097 31.3764 5.24342 31.4339 5.30591 31.4789C5.36839 31.5239 5.44084 31.5538 5.52581 31.5713C5.61079 31.5888 5.70085 31.5838 5.80332 31.5613C5.90329 31.5389 5.9857 31.5039 6.05069 31.4589C6.11567 31.4139 6.16562 31.3614 6.20311 31.2989C6.2381 31.2364 6.25809 31.1665 6.26559 31.089C6.27059 31.0115 6.26563 30.9265 6.24313 30.8391C6.23314 30.7966 6.22311 30.7566 6.20811 30.7191C6.19311 30.6816 6.18064 30.6466 6.16564 30.6166L5.74084 30.7141L5.73327 30.7041Z" fill="white"/>
<path d="M5.91342 29.207L5.82092 28.4597L5.9809 28.4397L6.09586 29.3644L4.63876 29.5444L4.52881 28.6596L4.6888 28.6396L4.77617 29.3469L5.24613 29.2895L5.16864 28.6596L5.3285 28.6396L5.406 29.2695L5.91342 29.207Z" fill="white"/>
<path d="M4.5734 25.6304C4.5734 25.7129 4.58099 25.7904 4.60598 25.8628C4.63097 25.9353 4.66595 25.9978 4.71593 26.0528C4.76592 26.1078 4.8284 26.1503 4.90338 26.1828C4.97836 26.2152 5.06835 26.2327 5.16832 26.2352C5.26829 26.2377 5.35828 26.2277 5.43326 26.2002C5.50823 26.1728 5.57072 26.1353 5.6207 26.0853C5.67069 26.0353 5.70817 25.9728 5.73566 25.9003C5.76065 25.8279 5.77563 25.7479 5.77813 25.6579C5.77813 25.6329 5.77813 25.6079 5.77813 25.5804C5.77813 25.5529 5.77312 25.5254 5.76812 25.4979C5.76312 25.4705 5.76061 25.443 5.75311 25.4155C5.74811 25.388 5.74066 25.3655 5.73566 25.3455L5.89308 25.3505C5.90808 25.393 5.92061 25.4455 5.92811 25.5029C5.93561 25.5604 5.93805 25.6179 5.93555 25.6779C5.93305 25.8004 5.91062 25.9078 5.87563 26.0003C5.83814 26.0928 5.78813 26.1728 5.72065 26.2327C5.65567 26.2952 5.57564 26.3402 5.48317 26.3702C5.39069 26.4002 5.28573 26.4127 5.17076 26.4102C5.05579 26.4077 4.95082 26.3877 4.85835 26.3477C4.76338 26.3102 4.68347 26.2577 4.61599 26.1902C4.54851 26.1228 4.49849 26.0428 4.461 25.9478C4.42351 25.8528 4.40853 25.7479 4.41353 25.6329C4.41353 25.6029 4.41598 25.5729 4.42097 25.5429C4.42597 25.5129 4.42855 25.4855 4.43354 25.458C4.43854 25.4305 4.44594 25.4055 4.45344 25.383C4.46093 25.3605 4.46851 25.3405 4.47601 25.323L4.63344 25.328C4.61844 25.373 4.60341 25.4205 4.59341 25.473C4.58341 25.5254 4.5759 25.5779 4.5734 25.6304Z" fill="white"/>
<path d="M5.98068 24.5181L4.60352 23.7283L4.62353 23.5759L6.16056 23.1785L6.13554 23.3709L5.67327 23.4859L5.59078 24.0957L6.0057 24.3281L5.98068 24.5181ZM4.841 23.6858C5.01345 23.7758 5.17087 23.8608 5.31083 23.9382L5.4408 24.0107L5.50584 23.5284L5.36087 23.5659C5.20091 23.6058 5.02844 23.6433 4.841 23.6808V23.6858Z" fill="white"/>
<path d="M6.38312 22.1112L6.34065 22.2862L4.91357 21.9388L5.00852 21.5439C5.02351 21.4839 5.03856 21.4314 5.05855 21.3839C5.07855 21.3364 5.10104 21.2915 5.12604 21.254C5.17852 21.1765 5.23844 21.1215 5.31092 21.094C5.3834 21.064 5.46337 21.0615 5.55084 21.0815C5.62332 21.099 5.68336 21.129 5.73084 21.1715C5.77833 21.214 5.81574 21.2665 5.83823 21.3315C5.86073 21.3939 5.87326 21.4689 5.87326 21.5514C5.87326 21.6339 5.86079 21.7263 5.83579 21.8263C5.8233 21.8738 5.81082 21.9238 5.79333 21.9738L6.38068 22.1162L6.38312 22.1112ZM5.63834 21.9288C5.64584 21.9063 5.65586 21.8813 5.66336 21.8563C5.67086 21.8313 5.67837 21.8063 5.68337 21.7838C5.70337 21.7013 5.71327 21.6314 5.71327 21.5689C5.71327 21.5089 5.70831 21.4564 5.69082 21.4139C5.67582 21.3714 5.65088 21.3389 5.62089 21.314C5.5909 21.289 5.55092 21.2715 5.50593 21.2615C5.45095 21.249 5.40094 21.2515 5.36095 21.269C5.31847 21.2865 5.28349 21.319 5.251 21.3639C5.23101 21.3914 5.21596 21.4239 5.20097 21.4639C5.18597 21.5039 5.17344 21.5489 5.16094 21.6014L5.11103 21.8038L5.63578 21.9313L5.63834 21.9288Z" fill="white"/>
<path d="M13.4783 43.2499L14.018 43.6747L13.3307 43.6447L13.0934 44.2896L12.9109 43.6273L12.2236 43.5998L12.796 43.2199L12.6085 42.5601L13.1483 42.9874L13.7182 42.605L13.4783 43.2499Z" fill="white"/>
<path d="M6.44804 17.8873L7.41028 17.8399L6.65806 18.4397L7.00049 19.3394L6.19567 18.8096L5.44589 19.4119L5.70326 18.4847L4.896 17.9573L5.85824 17.9148L6.11073 16.9851L6.44804 17.8873Z" fill="white"/>
<path d="M39.0012 43.2499L38.4614 43.6747L39.1487 43.6447L39.3861 44.2896L39.5685 43.6273L40.2558 43.5998L39.6836 43.2199L39.8711 42.5601L39.3312 42.9874L38.7613 42.605L39.0012 43.2499Z" fill="white"/>
<path d="M46.0316 17.8873L45.0693 17.8399L45.8216 18.4397L45.4793 19.3394L46.284 18.8096L47.0337 19.4119L46.7764 18.4847L47.5836 17.9573L46.6214 17.9148L46.369 16.9851L46.0316 17.8873Z" fill="white"/>
<path d="M45.9592 22.216C45.9717 22.2685 45.9867 22.3135 46.0091 22.351C46.0291 22.3885 46.0542 22.421 46.0842 22.446C46.1142 22.471 46.1441 22.491 46.1791 22.5035C46.2141 22.516 46.2516 22.5234 46.2941 22.5259C46.3191 22.5259 46.3466 22.5259 46.3766 22.5259C46.4066 22.5234 46.434 22.5184 46.4615 22.511L47.3513 22.3135L47.3888 22.4885L46.504 22.6834C46.4715 22.6909 46.4341 22.6959 46.3966 22.7009C46.3591 22.7059 46.3241 22.7084 46.2917 22.7059C46.2367 22.7059 46.1817 22.6934 46.1317 22.6759C46.0792 22.6584 46.0342 22.6309 45.9917 22.5959C45.9492 22.5609 45.9117 22.5135 45.8792 22.456C45.8467 22.3985 45.8217 22.3285 45.8042 22.2485C45.7868 22.1686 45.7792 22.0986 45.7842 22.0361C45.7892 21.9736 45.8017 21.9161 45.8217 21.8686C45.8417 21.8187 45.8718 21.7762 45.9068 21.7412C45.9417 21.7037 45.9842 21.6737 46.0292 21.6487C46.0616 21.6312 46.0991 21.6137 46.1391 21.6012C46.1791 21.5887 46.2191 21.5762 46.2566 21.5687L47.1414 21.3738L47.1788 21.5487L46.2891 21.7462C46.2566 21.7537 46.2241 21.7637 46.1916 21.7762C46.1591 21.7887 46.1292 21.8037 46.1042 21.8187C46.0392 21.8586 45.9942 21.9136 45.9667 21.9786C45.9392 22.0461 45.9367 22.1261 45.9567 22.2235L45.9592 22.216Z" fill="white"/>
<path d="M47.2087 23.8707C47.1662 23.8757 47.1312 23.8882 47.1062 23.9082C47.0787 23.9281 47.0587 23.9556 47.0437 23.9856C47.0287 24.0156 47.0187 24.0531 47.0112 24.0931C47.0037 24.1331 46.9987 24.1756 46.9912 24.2181C46.9837 24.2755 46.9737 24.333 46.9638 24.3905C46.9538 24.448 46.9363 24.498 46.9113 24.5455C46.8863 24.593 46.8513 24.6304 46.8088 24.6629C46.7663 24.6954 46.7063 24.7154 46.6313 24.7229C46.5563 24.7329 46.4889 24.7229 46.4314 24.7029C46.374 24.6804 46.3239 24.6454 46.2839 24.6005C46.2439 24.553 46.2089 24.4955 46.1839 24.4305C46.159 24.363 46.1414 24.288 46.1339 24.2056C46.1289 24.1681 46.1264 24.1281 46.1289 24.0881C46.1289 24.0481 46.129 24.0081 46.1365 23.9731C46.1415 23.9356 46.1464 23.9032 46.1539 23.8732C46.1614 23.8432 46.169 23.8182 46.1765 23.8007L46.3389 23.7832C46.3289 23.8107 46.3189 23.8407 46.3139 23.8757C46.3064 23.9106 46.3015 23.9456 46.2965 23.9806C46.2915 24.0156 46.2914 24.0531 46.2889 24.0881C46.2889 24.1231 46.2889 24.1581 46.2939 24.1881C46.2989 24.2381 46.3089 24.288 46.3239 24.333C46.3389 24.378 46.3564 24.418 46.3814 24.4505C46.4064 24.483 46.4364 24.508 46.4739 24.523C46.5114 24.538 46.5564 24.5455 46.6089 24.538C46.6514 24.533 46.6888 24.5205 46.7138 24.498C46.7388 24.4755 46.7613 24.4505 46.7763 24.418C46.7913 24.3855 46.8038 24.3505 46.8088 24.3105C46.8163 24.2705 46.8213 24.2281 46.8288 24.1831C46.8363 24.1256 46.8438 24.0681 46.8538 24.0106C46.8638 23.9556 46.8813 23.9032 46.9063 23.8582C46.9313 23.8132 46.9637 23.7732 47.0062 23.7432C47.0487 23.7132 47.1062 23.6932 47.1787 23.6857C47.2536 23.6782 47.3186 23.6857 47.3735 23.7057C47.431 23.7257 47.4785 23.7582 47.5185 23.8007C47.5585 23.8432 47.5911 23.8932 47.6136 23.9531C47.6361 24.0106 47.6536 24.0756 47.6611 24.1431C47.6711 24.2206 47.6711 24.2955 47.6611 24.363C47.6511 24.4305 47.641 24.4955 47.6235 24.5555L47.4586 24.573C47.4786 24.5105 47.4911 24.4455 47.5011 24.378C47.5111 24.313 47.5111 24.2431 47.5011 24.1681C47.4936 24.1131 47.4835 24.0656 47.466 24.0256C47.4486 23.9856 47.4286 23.9531 47.4036 23.9306C47.3786 23.9057 47.3486 23.8882 47.3161 23.8807C47.2836 23.8707 47.2462 23.8682 47.2087 23.8732V23.8707Z" fill="white"/>
<path d="M47.751 27.1647L46.4439 27.1122L46.4139 27.8295L46.2515 27.822L46.2889 26.9272L47.7585 26.9872L47.751 27.1647Z" fill="white"/>
<path d="M46.189 28.6268L47.5586 29.4265L47.5362 29.579L45.9966 29.9639L46.024 29.7714L46.4864 29.659L46.5739 29.0516L46.1616 28.8142L46.189 28.6243V28.6268ZM47.3237 29.469C47.1513 29.3791 46.9963 29.2941 46.8563 29.2116L46.7264 29.1366L46.6564 29.619L46.8014 29.584C46.9614 29.5465 47.1337 29.509 47.3212 29.4715V29.4665L47.3237 29.469Z" fill="white"/>
<path d="M46.3593 31.1835L45.7694 31.0335L45.8144 30.8611L47.239 31.221L47.1465 31.5909C47.1315 31.6534 47.1165 31.7058 47.099 31.7483C47.0815 31.7908 47.0666 31.8283 47.0466 31.8633C46.9941 31.9558 46.929 32.0207 46.8516 32.0557C46.7741 32.0907 46.6867 32.0982 46.5892 32.0732C46.5317 32.0582 46.4816 32.0357 46.4416 32.0058C46.4017 31.9758 46.3692 31.9408 46.3443 31.8983C46.3193 31.8558 46.3018 31.8108 46.2918 31.7583C46.2818 31.7058 46.2792 31.6509 46.2842 31.5909H46.2792L45.5645 31.8583L45.6095 31.6858L46.3092 31.3959L46.3617 31.186L46.3593 31.1835ZM47.0366 31.3534L46.5141 31.221L46.4717 31.3934C46.4592 31.4459 46.4491 31.4934 46.4416 31.5309C46.4366 31.5684 46.4342 31.6059 46.4342 31.6359C46.4367 31.7008 46.4542 31.7558 46.4867 31.7983C46.5192 31.8408 46.5666 31.8708 46.6341 31.8883C46.6966 31.9033 46.7491 31.9008 46.7941 31.8783C46.8391 31.8583 46.8766 31.8208 46.9066 31.7708C46.9216 31.7483 46.934 31.7183 46.9465 31.6833C46.959 31.6484 46.9715 31.6034 46.9865 31.5484L47.0366 31.3509V31.3534Z" fill="white"/>
<path d="M45.4918 33.9103L45.6093 33.5954L45.7617 33.6503L45.5843 34.1327L44.917 33.8853C44.917 33.8678 44.917 33.8428 44.917 33.8128C44.917 33.7828 44.9244 33.7478 44.9294 33.7103C44.9344 33.6728 44.9445 33.6328 44.9545 33.5904C44.9645 33.5479 44.9794 33.5079 44.9919 33.4679C45.0369 33.3504 45.0894 33.2505 45.1569 33.173C45.2219 33.0955 45.2968 33.0355 45.3768 32.9955C45.4593 32.9555 45.5467 32.9355 45.6442 32.9355C45.7392 32.9355 45.8417 32.953 45.9442 32.993C46.0566 33.0355 46.1516 33.0905 46.2316 33.158C46.3115 33.228 46.3716 33.3054 46.4116 33.3954C46.4515 33.4854 46.474 33.5829 46.474 33.6903C46.474 33.7978 46.454 33.9053 46.414 34.0177C46.404 34.0477 46.3915 34.0777 46.3765 34.1077C46.364 34.1377 46.3491 34.1652 46.3341 34.1902C46.3191 34.2152 46.304 34.2402 46.289 34.2602C46.274 34.2802 46.2591 34.2977 46.2466 34.3126L46.0991 34.2577C46.1291 34.2227 46.1565 34.1777 46.1865 34.1277C46.2165 34.0777 46.239 34.0252 46.259 33.9727C46.289 33.8953 46.3041 33.8153 46.3066 33.7353C46.3066 33.6553 46.2965 33.5804 46.269 33.5079C46.2415 33.4354 46.1966 33.3704 46.1366 33.3104C46.0766 33.2505 45.9966 33.203 45.8991 33.168C45.8042 33.133 45.7167 33.1155 45.6368 33.1155C45.5568 33.1155 45.4868 33.133 45.4219 33.1655C45.3569 33.198 45.3018 33.2455 45.2543 33.3054C45.2068 33.3679 45.1668 33.4404 45.1343 33.5279C45.1193 33.5679 45.1069 33.6079 45.0969 33.6478C45.0869 33.6878 45.0794 33.7253 45.0769 33.7578L45.4868 33.9103H45.4918Z" fill="white"/>
<path d="M44.5145 35.0623L44.1796 35.7371L44.0347 35.6646L44.4496 34.8298L45.7667 35.4821L45.3718 36.2819L45.2268 36.2094L45.5442 35.5721L45.1194 35.3622L44.8369 35.9295L44.6919 35.857L44.9719 35.2897L44.5145 35.0623Z" fill="white"/>
<path d="M43.6649 38.7863C43.7124 38.7189 43.7449 38.6489 43.7649 38.5739C43.7849 38.5014 43.7899 38.4265 43.7774 38.354C43.7649 38.2815 43.7374 38.2115 43.6924 38.1415C43.6474 38.0716 43.5824 38.0091 43.4999 37.9491C43.4175 37.8916 43.3375 37.8516 43.26 37.8316C43.1825 37.8116 43.1101 37.8091 43.0401 37.8241C42.9701 37.8391 42.9051 37.8691 42.8426 37.9141C42.7802 37.9591 42.7253 38.0191 42.6728 38.094C42.6578 38.114 42.6452 38.1365 42.6302 38.159C42.6152 38.1815 42.6027 38.209 42.5927 38.234C42.5827 38.259 42.5703 38.284 42.5603 38.309C42.5503 38.334 42.5427 38.3565 42.5352 38.379L42.4053 38.289C42.4153 38.244 42.4353 38.1965 42.4603 38.144C42.4853 38.0915 42.5153 38.0416 42.5503 37.9916C42.6202 37.8916 42.6977 37.8141 42.7802 37.7541C42.8626 37.6967 42.9477 37.6592 43.0377 37.6442C43.1276 37.6292 43.2175 37.6342 43.3125 37.6592C43.4075 37.6842 43.5 37.7317 43.595 37.7991C43.6875 37.8641 43.7649 37.9391 43.8223 38.0241C43.8798 38.109 43.9198 38.1965 43.9373 38.289C43.9548 38.3815 43.9549 38.4789 43.9324 38.5764C43.9099 38.6739 43.8649 38.7714 43.7974 38.8663C43.78 38.8913 43.7599 38.9163 43.7424 38.9388C43.7224 38.9613 43.7025 38.9838 43.6825 39.0038C43.6625 39.0238 43.6424 39.0413 43.6249 39.0563C43.6049 39.0713 43.5899 39.0838 43.5724 39.0938L43.4424 39.0038C43.4799 38.9763 43.5175 38.9438 43.5575 38.9063C43.595 38.8688 43.63 38.8288 43.6625 38.7863H43.6649Z" fill="white"/>
<path d="M41.878 38.9314L42.5904 40.3485L42.4878 40.466L40.9883 39.9486L41.1158 39.8011L41.5631 39.9611L41.968 39.4987L41.7505 39.0764L41.878 38.9314ZM42.3679 40.256C42.2729 40.0861 42.1905 39.9286 42.1155 39.7861L42.048 39.6537L41.7281 40.0211L41.868 40.0711C42.023 40.1261 42.188 40.1885 42.3654 40.261H42.3679V40.256Z" fill="white"/>
<path d="M40.2134 40.7182L40.3459 40.5957L41.3456 41.6729L41.0482 41.9503C41.0032 41.9903 40.9607 42.0278 40.9183 42.0578C40.8758 42.0878 40.8332 42.1103 40.7907 42.1303C40.7058 42.1678 40.6233 42.1777 40.5484 42.1628C40.4734 42.1478 40.4034 42.1078 40.3409 42.0403C40.2909 41.9853 40.2559 41.9278 40.2384 41.8653C40.2209 41.8029 40.2209 41.7404 40.2384 41.6729C40.2534 41.6054 40.2834 41.5379 40.3309 41.4705C40.3759 41.4005 40.4384 41.3305 40.5133 41.263C40.5483 41.2305 40.5883 41.1955 40.6283 41.163L40.2159 40.7207L40.2134 40.7182ZM40.7358 41.2805C40.7158 41.2955 40.6958 41.3105 40.6758 41.328C40.6558 41.3455 40.6358 41.3605 40.6209 41.378C40.5584 41.4355 40.5109 41.4904 40.4759 41.5379C40.4409 41.5879 40.4184 41.6354 40.4084 41.6779C40.3984 41.7229 40.3983 41.7629 40.4108 41.8004C40.4233 41.8378 40.4459 41.8728 40.4759 41.9078C40.5159 41.9503 40.5559 41.9753 40.6008 41.9828C40.6458 41.9903 40.6933 41.9828 40.7433 41.9653C40.7732 41.9528 40.8058 41.9328 40.8408 41.9103C40.8758 41.8878 40.9107 41.8553 40.9507 41.8179L41.1031 41.6754L40.7358 41.2805Z" fill="white"/>
<path d="M20.6064 19.3167H18.292V28.9689C18.292 30.5384 17.6947 31.4706 16.2751 31.4706C14.8555 31.4706 14.2581 30.4809 14.2581 28.7814V28.4065C14.2581 27.6867 13.5809 27.1569 12.8811 27.3318L12.7211 27.3718C12.2637 27.4868 11.9438 27.8967 11.9438 28.369C11.9438 30.8133 13.1585 32.6828 16.2751 32.6828C19.3917 32.6828 20.6064 30.8158 20.6064 28.369V19.3167ZM39.5584 19.3167H37.244V28.9689C37.244 30.5384 36.6468 31.4706 35.2272 31.4706C33.8076 31.4706 33.2102 30.4809 33.2102 28.7814V28.4065C33.2102 27.6867 32.5329 27.1569 31.8331 27.3318L31.6731 27.3718C31.2158 27.4868 30.8959 27.8967 30.8959 28.369C30.8959 30.8133 32.1106 32.6828 35.2272 32.6828C38.3438 32.6828 39.5584 30.8158 39.5584 28.369V19.3167ZM25.37 31.6956C24.0729 31.6956 23.2781 30.6409 23.2781 29.5212C23.2781 28.8189 23.5905 28.1716 24.1028 27.8067L27.1544 31.1432C26.5871 31.4806 25.9524 31.6956 25.37 31.6956ZM28.3416 30.0336L25.6949 27.1144C26.1672 26.9245 26.6271 26.8595 27.0044 26.8595C28.0991 26.8595 28.774 27.4943 28.774 28.589C28.774 29.0763 28.639 29.5737 28.3416 30.0336ZM25.33 26.7245L24.7502 26.0747C24.2354 25.5074 24.0878 25.155 24.0878 24.7376C24.0878 23.9553 24.5878 23.5079 25.37 23.5079C26.1523 23.5079 26.6396 23.9678 26.6396 24.8051C26.6396 25.5748 26.2622 26.3046 25.33 26.722V26.7245ZM25.4125 22.7931C23.548 22.7931 22.6307 23.8353 22.6307 25.13C22.6307 25.8323 22.9281 26.5346 23.7129 27.3843L23.7255 27.4118C22.4034 28.0466 21.7935 29.0738 21.7935 30.1285C21.7935 31.5206 22.8606 32.6828 24.5102 32.6828C25.4549 32.6828 26.5622 32.2904 27.5619 31.5881L28.3716 32.4679H30.4935V32.4004L28.7665 30.4959C29.4963 29.6312 29.9136 28.6864 29.9136 27.8617C29.9136 26.8345 29.2238 26.1472 28.1441 26.1472C27.5768 26.1472 26.942 26.3096 26.5222 26.4721L26.4947 26.4196C27.5219 25.8648 27.9542 25.3524 27.9542 24.6351C27.9517 23.6079 27.032 22.7981 25.4125 22.7981V22.7931Z" fill="white"/>
</svg>
