<svg width="52" height="52" viewBox="0 0 52 52" fill="none" xmlns="http://www.w3.org/2000/svg">
<path d="M26 52C40.3594 52 52 40.3594 52 26C52 11.6406 40.3594 0 26 0C11.6406 0 0 11.6406 0 26C0 40.3594 11.6406 52 26 52Z" fill="#141413"/>
<path d="M25.9999 44.1524C15.9903 44.1524 7.84766 36.0098 7.84766 26.0002C7.84766 15.9906 15.9903 7.8479 25.9999 7.8479C36.0095 7.8479 44.1522 15.9906 44.1522 26.0002C44.1522 36.0098 36.0095 44.1524 25.9999 44.1524ZM25.9999 8.35275C16.2702 8.35275 8.35252 16.268 8.35252 26.0002C8.35252 35.7324 16.2702 43.6476 25.9999 43.6476C35.7296 43.6476 43.6473 35.7299 43.6473 26.0002C43.6473 16.2705 35.7296 8.35275 25.9999 8.35275Z" fill="#FF5F00"/>
<path d="M26 50.6203C22.6784 50.6203 19.4544 49.968 16.4153 48.6834C13.4836 47.4437 10.8494 45.6693 8.59252 43.4099C6.33317 41.1506 4.55866 38.5188 3.31902 35.5872C2.03439 32.548 1.38208 29.3215 1.38208 26.0024C1.38208 22.6834 2.03439 19.4568 3.31902 16.4177C4.55866 13.486 6.33317 10.8518 8.59252 8.59494C10.8519 6.33559 13.4836 4.56111 16.4153 3.32146C19.4544 2.03683 22.6809 1.38452 26 1.38452C29.319 1.38452 32.5456 2.03683 35.5847 3.32146C38.5164 4.56111 41.1506 6.33559 43.4075 8.59494C45.6668 10.8543 47.4413 13.486 48.6809 16.4177C49.9655 19.4568 50.6179 22.6834 50.6179 26.0024C50.6179 29.3215 49.9655 32.548 48.6809 35.5872C47.4413 38.5188 45.6668 41.1531 43.4075 43.4099C41.1481 45.6693 38.5164 47.4437 35.5847 48.6834C32.5456 49.968 29.319 50.6203 26 50.6203ZM26 1.74692C22.7284 1.74692 19.5518 2.38923 16.5577 3.65637C13.6685 4.87851 11.0768 6.62551 8.84995 8.84987C6.6256 11.0742 4.8761 13.6685 3.65645 16.5576C2.38931 19.5518 1.74696 22.7284 1.74696 25.9999C1.74696 29.2715 2.38931 32.4481 3.65645 35.4422C4.87859 38.3314 6.6256 40.9231 8.84995 43.15C11.0743 45.3743 13.6685 47.1238 16.5577 48.3435C19.5518 49.6106 22.7284 50.2529 26 50.2529C29.2715 50.2529 32.4481 49.6106 35.4422 48.3435C38.3314 47.1213 40.9232 45.3743 43.15 43.15C45.3744 40.9256 47.1239 38.3314 48.3436 35.4422C49.6107 32.4481 50.253 29.2715 50.253 25.9999C50.253 22.7284 49.6107 19.5518 48.3436 16.5576C47.1214 13.6685 45.3744 11.0767 43.15 8.84987C40.9257 6.62301 38.3314 4.87601 35.4422 3.65637C32.4481 2.38923 29.2715 1.74692 26 1.74692Z" fill="#FF5F00"/>
<path d="M8.78759 13.7959C8.92505 13.8808 9.04249 13.9808 9.14247 14.0908C9.24244 14.2008 9.3174 14.3207 9.37238 14.4482C9.42486 14.5781 9.45488 14.7156 9.46238 14.8631C9.46738 15.0105 9.44738 15.163 9.3999 15.3254C9.37241 15.4179 9.33493 15.5129 9.28494 15.6103C9.23496 15.7078 9.17743 15.8078 9.11244 15.9153L8.77758 16.4476L6.42822 14.968L6.76565 14.4307C6.83313 14.3232 6.90062 14.2282 6.9656 14.1433C7.03059 14.0583 7.10058 13.9833 7.17306 13.9183C7.29803 13.8059 7.42794 13.7209 7.5604 13.6609C7.69286 13.6009 7.82785 13.5684 7.96532 13.5609C8.10278 13.5534 8.24021 13.5684 8.37767 13.6109C8.51513 13.6534 8.65263 13.7159 8.79009 13.8009L8.78759 13.7959ZM8.61015 14.0808C8.38521 13.9383 8.17026 13.8733 7.96532 13.8833C7.76287 13.8933 7.57292 13.9758 7.39797 14.1233C7.33049 14.1808 7.26551 14.2507 7.20302 14.3332C7.14054 14.4157 7.07305 14.5132 7.00307 14.6231L6.8656 14.8431L8.69759 15.9977L8.83506 15.7778C8.90504 15.6678 8.96251 15.5654 9.01 15.4729C9.05748 15.3804 9.09245 15.2904 9.11495 15.2055C9.17493 14.983 9.16246 14.7756 9.07748 14.5831C8.99501 14.3907 8.83758 14.2232 8.61015 14.0808Z" fill="white"/>
<path d="M11.1492 13.1061L9.06982 11.2666L9.2948 11.0142L11.3742 12.8536L11.1492 13.1061Z" fill="white"/>
<path d="M13.4286 9.42733L12.9388 9.82721L12.7463 9.58978L13.4986 8.97496L14.3484 10.0147C14.3359 10.0446 14.3134 10.0846 14.2784 10.1321C14.2459 10.1796 14.206 10.2321 14.1585 10.2871C14.111 10.3421 14.0585 10.3995 14.001 10.4595C13.9435 10.517 13.881 10.572 13.821 10.6245C13.6361 10.7744 13.4537 10.8819 13.2712 10.9469C13.0888 11.0119 12.9138 11.0369 12.7413 11.0219C12.5689 11.0069 12.4064 10.9544 12.249 10.8644C12.0915 10.7744 11.9466 10.647 11.8141 10.4845C11.6717 10.3096 11.5667 10.1271 11.5042 9.93968C11.4417 9.75223 11.4192 9.56479 11.4392 9.37984C11.4592 9.19489 11.5192 9.01494 11.6167 8.83999C11.7166 8.66504 11.8541 8.50759 12.0291 8.36513C12.0766 8.32764 12.124 8.29015 12.174 8.25516C12.224 8.22017 12.274 8.19018 12.3215 8.16019C12.369 8.1327 12.4165 8.10771 12.4614 8.08771C12.5064 8.06772 12.5439 8.05272 12.5789 8.04272L12.7689 8.27266C12.6864 8.30265 12.5989 8.34514 12.5039 8.40012C12.4089 8.45261 12.3189 8.51509 12.2365 8.58257C12.114 8.68254 12.014 8.79501 11.9316 8.92497C11.8516 9.05243 11.7991 9.18739 11.7766 9.33235C11.7542 9.47731 11.7616 9.62477 11.8041 9.77972C11.8466 9.93468 11.9291 10.0871 12.054 10.2396C12.1765 10.3895 12.3015 10.4995 12.4314 10.5745C12.5614 10.6495 12.6939 10.6895 12.8288 10.697C12.9638 10.7045 13.0987 10.682 13.2362 10.627C13.3736 10.572 13.5086 10.4895 13.6411 10.3796C13.7036 10.3296 13.7611 10.2746 13.816 10.2196C13.871 10.1646 13.916 10.1121 13.9535 10.0621L13.4311 9.42233L13.4286 9.42733Z" fill="white"/>
<path d="M16.0404 9.03983L14.6533 6.63553L14.9457 6.46558L16.3328 8.86988L16.0404 9.03983Z" fill="white"/>
<path d="M19.0019 7.61507L18.687 7.73754L17.7873 5.4357L16.9225 5.77311L16.8125 5.48819L18.8545 4.69092L18.9644 4.97584L18.0997 5.31324L18.9994 7.61507H19.0019Z" fill="white"/>
<path d="M20.9864 6.9353L21.5687 3.99615L21.8562 3.94116L23.4932 6.45044L23.1333 6.52042L22.6484 5.76314L21.5088 5.98307L21.3413 6.86782L20.9839 6.9378L20.9864 6.9353ZM21.7912 4.39353C21.7362 4.75593 21.6787 5.08583 21.6212 5.38575L21.5687 5.66317L22.471 5.48822L22.3185 5.25078C22.1511 4.99086 21.9786 4.70344 21.7987 4.39103H21.7912V4.39353Z" fill="white"/>
<path d="M25.4451 3.56641L25.4851 6.03819L26.8397 6.0157L26.8447 6.32061L25.1527 6.3481L25.1077 3.5739L25.4451 3.56891V3.56641Z" fill="white"/>
<path d="M30.251 6.75294L32.1079 4.40112L32.3879 4.4836L32.7028 7.46524L32.3504 7.36277L32.2654 6.46803L31.1507 6.14562L30.6009 6.85542L30.2535 6.75544L30.251 6.75294ZM32.1279 4.85599C31.913 5.15341 31.7131 5.42083 31.5256 5.66326L31.3532 5.88569L32.2379 6.14062L32.2104 5.8607C32.1804 5.55329 32.1579 5.21839 32.1379 4.85849H32.1304L32.1279 4.85599Z" fill="white"/>
<path d="M35.4096 6.42571C35.3721 6.49818 35.3571 6.56567 35.3621 6.62815C35.3671 6.69063 35.3871 6.75061 35.4196 6.8056C35.4546 6.86308 35.4971 6.91556 35.5545 6.97055C35.6095 7.02303 35.6695 7.07802 35.732 7.1305C35.8145 7.20298 35.897 7.27796 35.9745 7.35294C36.0519 7.42792 36.1144 7.51039 36.1619 7.59787C36.2094 7.68534 36.2343 7.78032 36.2368 7.88279C36.2393 7.98526 36.2094 8.10022 36.1469 8.22519C36.0819 8.35265 35.9995 8.45012 35.9045 8.5201C35.807 8.58758 35.702 8.63007 35.5846 8.64507C35.4696 8.66006 35.3446 8.65256 35.2122 8.62257C35.0797 8.59258 34.9447 8.5401 34.8073 8.47012C34.7423 8.43763 34.6798 8.40014 34.6173 8.35765C34.5548 8.31516 34.4949 8.27267 34.4424 8.22769C34.3874 8.1827 34.3424 8.14021 34.2999 8.09772C34.2599 8.05524 34.23 8.01775 34.21 7.98526L34.3499 7.71034C34.3824 7.75532 34.4224 7.80031 34.4674 7.8478C34.5124 7.89528 34.5623 7.94027 34.6148 7.98276C34.6673 8.02524 34.7223 8.06773 34.7773 8.10522C34.8348 8.14271 34.8897 8.1752 34.9422 8.20269C35.0272 8.24768 35.1147 8.28267 35.1997 8.30766C35.2846 8.33266 35.3671 8.34265 35.4421 8.34015C35.5196 8.33516 35.5896 8.31266 35.6546 8.27017C35.7195 8.22769 35.7745 8.1627 35.822 8.07273C35.8595 7.99775 35.877 7.93027 35.8695 7.86779C35.862 7.80531 35.8445 7.74283 35.8095 7.68784C35.7745 7.63036 35.7295 7.57537 35.6745 7.52289C35.6195 7.4704 35.5595 7.41542 35.4946 7.36044C35.4096 7.28796 35.3296 7.21548 35.2521 7.1405C35.1747 7.06552 35.1122 6.98554 35.0647 6.89807C35.0172 6.81309 34.9922 6.71812 34.9897 6.61815C34.9847 6.51818 35.0147 6.40821 35.0772 6.28825C35.1422 6.16328 35.2196 6.06581 35.3121 6.00083C35.4046 5.93585 35.5046 5.89086 35.6145 5.87337C35.7245 5.85337 35.837 5.85837 35.952 5.88086C36.0694 5.90586 36.1844 5.94584 36.2993 6.00583C36.4318 6.07331 36.5468 6.14829 36.6493 6.23326C36.7492 6.31574 36.8367 6.40321 36.9117 6.49319L36.7692 6.77311C36.6892 6.67813 36.6018 6.58816 36.5068 6.50568C36.4118 6.42321 36.3018 6.34823 36.1794 6.28325C36.0869 6.23576 35.9994 6.20327 35.9194 6.18827C35.8395 6.17328 35.767 6.17328 35.702 6.18827C35.637 6.20327 35.5796 6.23076 35.5296 6.27325C35.4796 6.31574 35.4371 6.36822 35.4046 6.4332L35.4096 6.42571Z" fill="white"/>
<path d="M38.7937 8.4526C38.7437 8.51758 38.7163 8.58006 38.7088 8.64254C38.7013 8.70502 38.7087 8.7675 38.7337 8.82749C38.7562 8.88997 38.7912 8.94995 38.8362 9.01493C38.8812 9.07742 38.9287 9.1399 38.9812 9.20488C39.0511 9.29235 39.1161 9.37983 39.1786 9.4673C39.2411 9.55728 39.2886 9.64725 39.3186 9.74222C39.3486 9.8372 39.3561 9.93467 39.3411 10.0371C39.3261 10.1396 39.2761 10.2471 39.1886 10.357C39.1011 10.472 39.0037 10.552 38.8962 10.602C38.7887 10.652 38.6763 10.6745 38.5613 10.667C38.4438 10.662 38.3239 10.632 38.1989 10.577C38.0739 10.522 37.9515 10.447 37.8265 10.352C37.769 10.3071 37.7141 10.2596 37.6591 10.2071C37.6041 10.1546 37.5541 10.0996 37.5091 10.0471C37.4641 9.99465 37.4266 9.94217 37.3941 9.89218C37.3617 9.8422 37.3392 9.80221 37.3267 9.76722L37.5141 9.52229C37.5391 9.57227 37.5691 9.62476 37.6065 9.67974C37.644 9.73473 37.6841 9.78721 37.7266 9.8397C37.7716 9.89218 37.8165 9.94217 37.864 9.98965C37.9115 10.0371 37.9615 10.0796 38.009 10.1146C38.0864 10.1746 38.1639 10.2246 38.2439 10.2646C38.3239 10.3046 38.4013 10.3296 38.4788 10.3396C38.5538 10.3495 38.6288 10.3396 38.7013 10.3096C38.7737 10.2796 38.8387 10.2246 38.9012 10.1446C38.9512 10.0796 38.9812 10.0146 38.9862 9.94966C38.9912 9.88468 38.9837 9.8222 38.9612 9.75972C38.9387 9.69724 38.9037 9.63475 38.8587 9.57227C38.8137 9.50979 38.7638 9.44481 38.7113 9.37983C38.6413 9.29485 38.5738 9.20738 38.5113 9.1199C38.4488 9.03243 38.4013 8.94245 38.3713 8.84998C38.3413 8.75751 38.3339 8.66004 38.3464 8.56256C38.3589 8.46509 38.4088 8.36012 38.4913 8.25265C38.5763 8.14019 38.6713 8.06021 38.7738 8.01022C38.8762 7.96024 38.9837 7.93774 39.0937 7.93774C39.2036 7.93774 39.3136 7.96274 39.4235 8.00772C39.5335 8.05271 39.641 8.11519 39.7434 8.19517C39.8609 8.28514 39.9609 8.38012 40.0458 8.48009C40.1308 8.58006 40.2008 8.68253 40.2558 8.7825L40.0659 9.02993C40.0034 8.92246 39.9334 8.81749 39.8559 8.72002C39.7784 8.62255 39.6835 8.53007 39.5735 8.4426C39.491 8.37762 39.4111 8.33263 39.3361 8.30264C39.2611 8.27265 39.1911 8.26015 39.1236 8.26265C39.0561 8.26265 38.9962 8.28264 38.9387 8.31514C38.8812 8.34763 38.8312 8.39261 38.7863 8.4501L38.7937 8.4526Z" fill="white"/>
<path d="M40.511 12.2714L41.4633 13.3286L41.2358 13.5335L40.0562 12.2264L42.1181 10.3669L43.2452 11.6166L43.0178 11.8215L42.1156 10.8218L41.4508 11.4216L42.253 12.3114L42.0256 12.5163L41.2234 11.6266L40.506 12.2739L40.511 12.2714Z" fill="white"/>
<path d="M42.845 15.8452L42.6675 15.5578L44.7719 14.2632L44.2846 13.4734L44.5444 13.3135L45.6941 15.1804L45.4342 15.3404L44.9469 14.5506L42.8425 15.8452H42.845Z" fill="white"/>
<path d="M23.0784 47.9911C23.1759 47.7562 23.2933 47.5038 23.4308 47.2364L24.1531 45.8168L24.9529 45.9167L24.563 49.0233L23.9931 48.9509L24.1906 47.3763C24.2206 47.1464 24.2631 46.879 24.3181 46.5765H24.298C24.2606 46.659 24.2181 46.754 24.1681 46.859C24.1182 46.9639 24.0681 47.0689 24.0157 47.1714L23.1534 48.8459L22.786 48.8009L22.3636 46.9639C22.3386 46.8515 22.3137 46.739 22.2937 46.624C22.2712 46.5091 22.2536 46.4066 22.2386 46.3141H22.2187C22.2012 46.599 22.1762 46.869 22.1462 47.1164L21.9487 48.6934L21.3789 48.6235L21.7688 45.5168L22.5636 45.6168L22.916 47.1639C22.976 47.4213 23.0259 47.6962 23.0709 47.9886H23.0859L23.0784 47.9911Z" fill="white"/>
<path d="M29.0566 47.9032L27.8895 48.0707L27.6995 48.9029L27.0947 48.9904L27.882 45.7163L28.4018 45.6414L30.0738 48.5655L29.474 48.6505L29.0566 47.9032ZM28.2469 46.4236C28.1844 46.7635 28.1269 47.0485 28.0719 47.2784L28.0044 47.5683L28.8067 47.4533L28.6618 47.1934C28.5468 46.986 28.4118 46.7285 28.2569 46.4211H28.2469V46.4236Z" fill="white"/>
<path d="M11.7816 40.7153C11.7441 40.6778 11.7041 40.6503 11.6666 40.6303C11.6291 40.6103 11.5891 40.5978 11.5516 40.5928C11.5141 40.5878 11.4767 40.5903 11.4392 40.5978C11.4017 40.6053 11.3667 40.6203 11.3317 40.6403C11.3092 40.6528 11.2867 40.6678 11.2642 40.6878C11.2417 40.7078 11.2192 40.7278 11.2017 40.7478L10.5669 41.4026L10.4395 41.2776L11.0718 40.6253C11.0968 40.6003 11.1218 40.5753 11.1493 40.5528C11.1793 40.5279 11.2068 40.5079 11.2343 40.4904C11.2818 40.4604 11.3317 40.4404 11.3842 40.4254C11.4367 40.4129 11.4892 40.4079 11.5467 40.4154C11.6042 40.4229 11.6591 40.4404 11.7166 40.4704C11.7741 40.5004 11.8341 40.5454 11.8941 40.6028C11.9515 40.6578 11.9965 40.7153 12.029 40.7703C12.0615 40.8253 12.0815 40.8803 12.0915 40.9327C12.1015 40.9852 12.1015 41.0377 12.0915 41.0877C12.0815 41.1377 12.064 41.1852 12.0415 41.2327C12.024 41.2676 12.0015 41.3001 11.9765 41.3326C11.9516 41.3651 11.924 41.3976 11.8966 41.4251L11.2642 42.0774L11.1368 41.9524L11.7716 41.2976C11.7941 41.2751 11.8166 41.2476 11.8366 41.2202C11.8566 41.1927 11.874 41.1652 11.8865 41.1377C11.9165 41.0677 11.9266 40.9977 11.9116 40.9277C11.8966 40.8578 11.8541 40.7878 11.7841 40.7178L11.7816 40.7153Z" fill="white"/>
<path d="M9.82718 40.0255C9.85968 39.998 9.88217 39.968 9.89217 39.9356C9.90217 39.9031 9.90467 39.8706 9.89967 39.8356C9.89468 39.8006 9.88465 39.7656 9.86715 39.7281C9.85216 39.6906 9.83467 39.6531 9.81468 39.6132C9.78968 39.5607 9.76468 39.5082 9.74219 39.4557C9.71969 39.4032 9.70722 39.3507 9.70222 39.2982C9.69722 39.2458 9.70224 39.1933 9.72474 39.1433C9.74473 39.0933 9.78221 39.0433 9.83969 38.9958C9.89718 38.9458 9.95715 38.9159 10.0196 38.9034C10.0796 38.8909 10.1396 38.8909 10.1996 38.9084C10.2596 38.9258 10.3195 38.9533 10.377 38.9958C10.4345 39.0383 10.4895 39.0908 10.5445 39.1533C10.5695 39.1833 10.5919 39.2133 10.6144 39.2483C10.6369 39.2832 10.657 39.3157 10.672 39.3482C10.687 39.3807 10.7019 39.4132 10.7144 39.4407C10.7244 39.4707 10.732 39.4932 10.7345 39.5132L10.6095 39.6182C10.602 39.5882 10.592 39.5582 10.5795 39.5257C10.567 39.4932 10.552 39.4607 10.5345 39.4282C10.517 39.3957 10.4995 39.3657 10.4795 39.3357C10.4595 39.3057 10.4395 39.2782 10.4195 39.2533C10.3871 39.2133 10.352 39.1783 10.3145 39.1483C10.277 39.1183 10.2396 39.0958 10.2021 39.0833C10.1646 39.0683 10.1246 39.0658 10.0846 39.0733C10.0446 39.0808 10.0046 39.1008 9.96216 39.1358C9.92966 39.1633 9.90717 39.1933 9.89717 39.2258C9.88717 39.2583 9.88467 39.2907 9.88967 39.3257C9.89467 39.3607 9.90469 39.3982 9.92219 39.4357C9.93968 39.4732 9.95717 39.5107 9.97717 39.5507C10.0047 39.6032 10.0271 39.6556 10.0496 39.7081C10.0721 39.7606 10.0846 39.8131 10.0896 39.8631C10.0946 39.9156 10.0896 39.9656 10.0696 40.0155C10.0496 40.0655 10.0146 40.113 9.95965 40.158C9.90217 40.2055 9.8447 40.238 9.78472 40.2505C9.72473 40.263 9.6672 40.2655 9.61222 40.2505C9.55474 40.238 9.49978 40.213 9.44979 40.178C9.39731 40.143 9.3498 40.098 9.30481 40.0455C9.25483 39.9855 9.21234 39.9256 9.18235 39.8631C9.14986 39.8006 9.12492 39.7406 9.10742 39.6831L9.23489 39.5757C9.25488 39.6381 9.27732 39.7006 9.30732 39.7606C9.33731 39.8206 9.37485 39.8781 9.42233 39.9356C9.45732 39.978 9.4948 40.0105 9.52979 40.0355C9.56478 40.058 9.59975 40.0755 9.63474 40.0805C9.66973 40.088 9.70225 40.0855 9.73474 40.0755C9.76723 40.0655 9.7997 40.048 9.82969 40.023L9.82718 40.0255Z" fill="white"/>
<path d="M7.55768 37.5789L8.67735 36.9041L8.30746 36.2893L8.44493 36.2068L8.90732 36.9741L7.64768 37.7313L7.55518 37.5789H7.55768Z" fill="white"/>
<path d="M8.05525 35.4944L6.47075 35.5794L6.40576 35.4394L7.47796 34.2698L7.5604 34.4447L7.23554 34.7921L7.49791 35.347L7.97281 35.317L8.05525 35.4919V35.4944ZM6.64318 35.4144C6.83563 35.3945 7.0131 35.382 7.17306 35.372L7.32048 35.362L7.11302 34.9221L7.01057 35.0321C6.8981 35.152 6.77564 35.277 6.63818 35.4119V35.4169L6.64318 35.4144Z" fill="white"/>
<path d="M6.51073 33.4602L7.08557 33.2602L7.14555 33.4302L5.75844 33.915L5.63348 33.5551C5.61348 33.4951 5.596 33.4427 5.58601 33.3977C5.57601 33.3527 5.56849 33.3127 5.56599 33.2727C5.5585 33.1677 5.57848 33.0778 5.62347 33.0053C5.66846 32.9328 5.73846 32.8778 5.83343 32.8453C5.88842 32.8253 5.94337 32.8178 5.99336 32.8203C6.04335 32.8203 6.09085 32.8353 6.13584 32.8553C6.17832 32.8753 6.22081 32.9053 6.2558 32.9453C6.29329 32.9828 6.32581 33.0278 6.3533 33.0803H6.35831L6.80813 32.4604L6.86811 32.6304L6.44324 33.2577L6.51573 33.4627L6.51073 33.4602ZM5.85095 33.6901L6.35831 33.5126L6.30077 33.3452C6.28327 33.2927 6.26579 33.2502 6.24829 33.2152C6.2333 33.1802 6.21331 33.1502 6.19582 33.1228C6.15833 33.0703 6.11333 33.0353 6.06335 33.0178C6.01336 33.0003 5.95589 33.0028 5.89091 33.0228C5.83093 33.0453 5.78844 33.0753 5.76345 33.1178C5.73845 33.1602 5.72598 33.2102 5.72848 33.2677C5.72848 33.2952 5.73344 33.3277 5.74343 33.3627C5.75343 33.3977 5.76596 33.4427 5.78346 33.4952L5.85095 33.6876V33.6901Z" fill="white"/>
<path d="M5.73347 30.7036L5.8084 31.031L5.65097 31.0685L5.53601 30.5686L6.22832 30.4087C6.24082 30.4212 6.25329 30.4412 6.26829 30.4687C6.28328 30.4962 6.29826 30.5262 6.31326 30.5636C6.32825 30.6011 6.34329 30.6386 6.35829 30.6786C6.37328 30.7211 6.38325 30.7611 6.39325 30.8036C6.42074 30.926 6.43076 31.0385 6.41827 31.141C6.40577 31.2435 6.37825 31.3309 6.33077 31.4109C6.28328 31.4884 6.2208 31.5534 6.14082 31.6083C6.06084 31.6608 5.9659 31.7008 5.85843 31.7258C5.74097 31.7533 5.63098 31.7583 5.52601 31.7458C5.42104 31.7333 5.32854 31.6983 5.24606 31.6458C5.16358 31.5934 5.09114 31.5234 5.03116 31.4359C4.97117 31.3484 4.92868 31.246 4.90119 31.1285C4.89369 31.0985 4.88867 31.066 4.88368 31.0335C4.87868 31.001 4.87617 30.971 4.87367 30.941C4.87367 30.911 4.87117 30.8836 4.87367 30.8586C4.87367 30.8336 4.87618 30.8111 4.88117 30.7936L5.03616 30.7586C5.03116 30.8036 5.03116 30.8561 5.03616 30.9135C5.03866 30.971 5.04862 31.0285 5.06112 31.0835C5.08111 31.166 5.11113 31.2385 5.15112 31.3084C5.1936 31.3759 5.24606 31.4334 5.30854 31.4784C5.37102 31.5234 5.44353 31.5534 5.52851 31.5709C5.61349 31.5884 5.70342 31.5834 5.8059 31.5609C5.90587 31.5384 5.98834 31.5034 6.05332 31.4584C6.1183 31.4134 6.16832 31.3609 6.2058 31.2984C6.24079 31.236 6.26079 31.166 6.26829 31.0885C6.27578 31.011 6.26826 30.926 6.24577 30.8386C6.23577 30.7961 6.2258 30.7561 6.21081 30.7186C6.19831 30.6786 6.18334 30.6461 6.16834 30.6161L5.74091 30.7136L5.73347 30.7036Z" fill="white"/>
<path d="M5.91342 29.206L5.82092 28.4587L5.9809 28.4387L6.09586 29.3635L4.63876 29.5434L4.52881 28.6587L4.68874 28.6387L4.77623 29.346L5.24607 29.2885L5.16864 28.6587L5.32857 28.6387L5.40606 29.2685L5.91342 29.206Z" fill="white"/>
<path d="M4.57389 25.6299C4.57389 25.7124 4.58142 25.7899 4.60641 25.8624C4.6314 25.9348 4.66638 25.9973 4.71636 26.0523C4.76635 26.1073 4.82883 26.1498 4.90381 26.1823C4.97879 26.2148 5.06877 26.2322 5.16875 26.2347C5.26872 26.2372 5.35864 26.2272 5.43362 26.1998C5.5086 26.1748 5.57108 26.1348 5.62107 26.0848C5.67105 26.0348 5.70859 25.9723 5.73609 25.8998C5.76108 25.8274 5.77606 25.7474 5.77855 25.6574C5.77855 25.6324 5.77855 25.6074 5.77855 25.5799C5.77855 25.5524 5.77355 25.525 5.77105 25.4975C5.76605 25.47 5.76104 25.4425 5.75604 25.415C5.75104 25.3875 5.74353 25.365 5.73853 25.345L5.89601 25.35C5.91101 25.3925 5.92348 25.445 5.93098 25.5025C5.93847 25.5599 5.94098 25.6174 5.93848 25.6774C5.93598 25.7999 5.91349 25.9073 5.8785 25.9998C5.84101 26.0923 5.79106 26.1723 5.72608 26.2322C5.6611 26.2947 5.58107 26.3397 5.4886 26.3697C5.39613 26.3997 5.29122 26.4122 5.17375 26.4097C5.05878 26.4072 4.95381 26.3872 4.86134 26.3472C4.76637 26.3097 4.68634 26.2572 4.61886 26.1898C4.55138 26.1223 4.50142 26.0423 4.46393 25.9473C4.42644 25.8524 4.41146 25.7474 4.41646 25.6324C4.41646 25.6024 4.41897 25.5724 4.42397 25.5424C4.42896 25.5125 4.43141 25.485 4.43641 25.4575C4.44141 25.43 4.44893 25.405 4.45643 25.3825C4.46392 25.36 4.47144 25.34 4.47894 25.3225L4.63637 25.3275C4.62137 25.3725 4.6064 25.42 4.5964 25.4725C4.5839 25.525 4.57889 25.5774 4.57639 25.6299H4.57389Z" fill="white"/>
<path d="M5.98062 24.5176L4.60352 23.7278L4.62347 23.5754L6.16056 23.178L6.13554 23.3704L5.67321 23.4854L5.59072 24.0952L6.00558 24.3276L5.98062 24.5176ZM4.84093 23.6853C5.01339 23.7753 5.17081 23.8603 5.31077 23.9378L5.44074 24.0102L5.50572 23.5279L5.3608 23.5654C5.20085 23.6054 5.02838 23.6428 4.84093 23.6803V23.6853Z" fill="white"/>
<path d="M6.38312 22.111L6.34065 22.2859L4.91357 21.9385L5.00852 21.5436C5.02351 21.4836 5.0385 21.4312 5.05849 21.3837C5.07849 21.3362 5.10098 21.2912 5.12598 21.2537C5.17846 21.1762 5.23844 21.1212 5.31092 21.0938C5.3834 21.0663 5.46337 21.0613 5.55084 21.0813C5.62332 21.0987 5.68336 21.1287 5.73084 21.1712C5.77833 21.2137 5.8158 21.2662 5.8383 21.3312C5.86079 21.3962 5.87326 21.4686 5.87326 21.5511C5.87326 21.6336 5.86079 21.7261 5.83579 21.826C5.8233 21.8735 5.81082 21.9235 5.79333 21.9735L6.38062 22.116L6.38312 22.111ZM5.63834 21.9285C5.64834 21.906 5.65586 21.881 5.66336 21.856C5.67086 21.831 5.67831 21.806 5.68331 21.7836C5.7033 21.7011 5.71333 21.6311 5.71583 21.5686C5.71583 21.5086 5.71081 21.4561 5.69332 21.4137C5.67832 21.3712 5.65332 21.3387 5.62333 21.3137C5.59334 21.2887 5.55336 21.2712 5.50837 21.2612C5.45339 21.2487 5.40338 21.2512 5.3634 21.2687C5.32341 21.2862 5.28593 21.3187 5.25594 21.3637C5.23595 21.3912 5.22097 21.4237 5.20597 21.4636C5.19097 21.5036 5.1785 21.5486 5.166 21.6011L5.11597 21.8035L5.64084 21.931L5.63834 21.9285Z" fill="white"/>
<path d="M13.4788 43.2501L14.0186 43.675L13.3313 43.645L13.0939 44.2898L12.9114 43.6275L12.2241 43.6L12.7965 43.2201L12.609 42.5603L13.1488 42.9877L13.7187 42.6053L13.4788 43.2501Z" fill="#FF5F00"/>
<path d="M6.44804 17.8873L7.41028 17.8399L6.658 18.4397L7.00037 19.3394L6.19561 18.8096L5.44583 19.4119L5.70326 18.4847L4.896 17.9573L5.85824 17.9148L6.11067 16.9851L6.44804 17.8873Z" fill="#FF5F00"/>
<path d="M39.0012 43.2501L38.4614 43.675L39.1487 43.645L39.3861 44.2898L39.5686 43.6275L40.2559 43.6L39.6835 43.2201L39.871 42.5603L39.3312 42.9877L38.7613 42.6053L39.0012 43.2501Z" fill="#FF5F00"/>
<path d="M46.0316 17.8873L45.0693 17.8399L45.8216 18.4397L45.4792 19.3394L46.284 18.8096L47.0338 19.4119L46.7764 18.4847L47.5836 17.9573L46.6214 17.9148L46.3689 16.9851L46.0316 17.8873Z" fill="#FF5F00"/>
<path d="M45.9594 22.216C45.9719 22.2685 45.9868 22.3135 46.0093 22.351C46.0318 22.3885 46.0543 22.421 46.0843 22.446C46.1143 22.471 46.1443 22.491 46.1818 22.5035C46.2168 22.516 46.2542 22.5234 46.2967 22.5259C46.3217 22.5259 46.3492 22.5259 46.3792 22.5259C46.4092 22.5234 46.4367 22.5184 46.4642 22.511L47.3539 22.3135L47.3914 22.4885L46.5067 22.6834C46.4742 22.6909 46.4367 22.6959 46.3992 22.7009C46.3617 22.7059 46.3267 22.7084 46.2942 22.7059C46.2392 22.7059 46.1843 22.6934 46.1343 22.6759C46.0843 22.6584 46.0368 22.6309 45.9943 22.5959C45.9518 22.5609 45.9144 22.5135 45.8819 22.456C45.8494 22.3985 45.8244 22.3285 45.8069 22.2485C45.7894 22.1686 45.7819 22.0986 45.7869 22.0361C45.7919 21.9736 45.8044 21.9161 45.8244 21.8686C45.8444 21.8187 45.8744 21.7762 45.9094 21.7412C45.9444 21.7037 45.9869 21.6737 46.0318 21.6487C46.0643 21.6312 46.1018 21.6137 46.1418 21.6012C46.1818 21.5887 46.2218 21.5762 46.2593 21.5687L47.144 21.3738L47.1815 21.5487L46.2917 21.7462C46.2592 21.7537 46.2268 21.7637 46.1943 21.7762C46.1618 21.7887 46.1318 21.8037 46.1068 21.8187C46.0418 21.8586 45.9969 21.9136 45.9694 21.9786C45.9419 22.0461 45.9394 22.1261 45.9594 22.2235V22.216Z" fill="white"/>
<path d="M47.2086 23.8709C47.1661 23.8759 47.1311 23.8884 47.1061 23.9084C47.0811 23.9284 47.0586 23.9559 47.0436 23.9859C47.0286 24.0159 47.0187 24.0534 47.0112 24.0933C47.0037 24.1333 46.9986 24.1758 46.9911 24.2183C46.9837 24.2758 46.9737 24.3333 46.9637 24.3908C46.9537 24.4482 46.9362 24.4982 46.9112 24.5457C46.8862 24.5932 46.8512 24.6307 46.8087 24.6632C46.7662 24.6957 46.7062 24.7157 46.6313 24.7232C46.5563 24.7332 46.4888 24.7232 46.4313 24.7032C46.3738 24.6807 46.3239 24.6457 46.2839 24.6007C46.2439 24.5532 46.2089 24.4957 46.1839 24.4307C46.1589 24.3633 46.1414 24.2883 46.1339 24.2058C46.1289 24.1683 46.1264 24.1283 46.1289 24.0883C46.1289 24.0484 46.1289 24.0084 46.1364 23.9734C46.1414 23.9359 46.1464 23.9034 46.1539 23.8734C46.1614 23.8434 46.1689 23.8184 46.1764 23.8009L46.3389 23.7834C46.3289 23.8109 46.3189 23.8409 46.3139 23.8759C46.3089 23.9109 46.3013 23.9459 46.2963 23.9809C46.2913 24.0159 46.2913 24.0534 46.2913 24.0883C46.2913 24.1233 46.2913 24.1583 46.2963 24.1883C46.3013 24.2383 46.3114 24.2883 46.3264 24.3333C46.3414 24.3783 46.3588 24.4182 46.3838 24.4507C46.4088 24.4832 46.4388 24.5082 46.4763 24.5232C46.5138 24.5382 46.5588 24.5457 46.6113 24.5382C46.6537 24.5332 46.6913 24.5207 46.7163 24.4982C46.7413 24.4757 46.7638 24.4507 46.7787 24.4182C46.7937 24.3858 46.8062 24.3508 46.8112 24.3108C46.8187 24.2708 46.8237 24.2283 46.8312 24.1833C46.8387 24.1258 46.8462 24.0683 46.8562 24.0109C46.8662 23.9559 46.8837 23.9034 46.9087 23.8584C46.9337 23.8134 46.9662 23.7734 47.0087 23.7434C47.0511 23.7135 47.1086 23.6935 47.1811 23.686C47.2561 23.6785 47.3211 23.686 47.376 23.706C47.4335 23.7259 47.481 23.7584 47.521 23.8009C47.561 23.8434 47.5935 23.8934 47.616 23.9534C47.6385 24.0109 47.6559 24.0758 47.6634 24.1433C47.6734 24.2208 47.6734 24.2958 47.6634 24.3633C47.6534 24.4307 47.6435 24.4957 47.626 24.5557L47.461 24.5732C47.481 24.5107 47.4935 24.4457 47.5035 24.3783C47.5135 24.3133 47.5135 24.2433 47.5035 24.1683C47.496 24.1133 47.486 24.0658 47.4685 24.0259C47.4511 23.9859 47.4311 23.9534 47.4061 23.9309C47.3811 23.9084 47.3511 23.8884 47.3186 23.8809C47.2861 23.8709 47.2486 23.8684 47.2111 23.8734L47.2086 23.8709Z" fill="white"/>
<path d="M47.751 27.1649L46.4439 27.1124L46.4139 27.8297L46.2515 27.8222L46.2889 26.9275L47.7585 26.9875L47.751 27.1649Z" fill="white"/>
<path d="M46.1895 28.627L47.5591 29.4268L47.5367 29.5792L45.9971 29.9641L46.0246 29.7717L46.4869 29.6592L46.5744 29.0519L46.1621 28.8145L46.1895 28.6245V28.627ZM47.3242 29.4693C47.1518 29.3793 46.9968 29.2943 46.8568 29.2118L46.7268 29.1369L46.6569 29.6192L46.8018 29.5842C46.9618 29.5467 47.1343 29.5093 47.3217 29.4718V29.4668L47.3242 29.4693Z" fill="white"/>
<path d="M46.3593 31.1835L45.7695 31.0335L45.8119 30.8611L47.2365 31.221L47.1441 31.5909C47.1291 31.6534 47.1116 31.7058 47.0966 31.7483C47.0816 31.7908 47.0641 31.8283 47.0441 31.8633C46.9916 31.9558 46.9267 32.0207 46.8492 32.0557C46.7717 32.0907 46.6842 32.0982 46.5867 32.0732C46.5293 32.0582 46.4792 32.0357 46.4393 32.0058C46.3993 31.9758 46.3668 31.9408 46.3418 31.8983C46.3168 31.8558 46.2993 31.8108 46.2893 31.7583C46.2793 31.7058 46.2768 31.6509 46.2818 31.5909H46.2768L45.562 31.8583L45.6045 31.6858L46.3043 31.3959L46.3568 31.186L46.3593 31.1835ZM47.0366 31.3534L46.5143 31.221L46.4718 31.3934C46.4593 31.4459 46.4493 31.4934 46.4418 31.5309C46.4368 31.5684 46.4343 31.6059 46.4343 31.6359C46.4368 31.7008 46.4542 31.7558 46.4867 31.7983C46.5192 31.8408 46.5667 31.8708 46.6317 31.8883C46.6942 31.9033 46.7466 31.9008 46.7916 31.8783C46.8366 31.8558 46.8742 31.8208 46.9042 31.7708C46.9191 31.7483 46.9316 31.7183 46.9441 31.6833C46.9566 31.6484 46.9691 31.6034 46.9841 31.5484L47.0341 31.3509L47.0366 31.3534Z" fill="white"/>
<path d="M45.4923 33.9103L45.6098 33.5954L45.7623 33.6503L45.5848 34.1327L44.9175 33.8853C44.9175 33.8678 44.9175 33.8428 44.9175 33.8128C44.9175 33.7828 44.925 33.7478 44.93 33.7103C44.935 33.6728 44.945 33.6328 44.955 33.5904C44.965 33.5479 44.9775 33.5079 44.9925 33.4679C45.035 33.3504 45.09 33.2505 45.1575 33.173C45.2224 33.0955 45.2974 33.0355 45.3774 32.9955C45.4598 32.9555 45.5473 32.9355 45.6448 32.9355C45.7398 32.9355 45.8397 32.953 45.9447 32.993C46.0572 33.0355 46.1521 33.0905 46.2321 33.158C46.3121 33.228 46.3721 33.3054 46.4121 33.3954C46.4521 33.4854 46.4746 33.5829 46.4746 33.6903C46.4746 33.7953 46.4545 33.9053 46.4145 34.0177C46.4045 34.0477 46.3921 34.0777 46.3771 34.1077C46.3646 34.1377 46.3496 34.1652 46.3346 34.1902C46.3196 34.2152 46.3046 34.2402 46.2896 34.2602C46.2746 34.2802 46.2621 34.2977 46.2471 34.3126L46.0997 34.2577C46.1297 34.2227 46.1571 34.1777 46.1871 34.1277C46.2171 34.0777 46.2396 34.0252 46.2596 33.9727C46.2896 33.8953 46.3046 33.8153 46.3071 33.7353C46.3071 33.6553 46.2971 33.5804 46.2696 33.5079C46.2421 33.4354 46.1971 33.3704 46.1372 33.3104C46.0772 33.2505 45.9972 33.203 45.8997 33.168C45.8048 33.133 45.7173 33.1155 45.6373 33.1155C45.5573 33.1155 45.4873 33.133 45.4223 33.1655C45.3599 33.198 45.3024 33.2455 45.2549 33.3054C45.2074 33.3679 45.1674 33.4404 45.1349 33.5279C45.12 33.5679 45.1075 33.6079 45.0975 33.6478C45.0875 33.6878 45.08 33.7253 45.0775 33.7578L45.4873 33.9103H45.4923Z" fill="white"/>
<path d="M44.5145 35.0625L44.1796 35.7373L44.0347 35.6648L44.4495 34.8301L45.7667 35.4824L45.3717 36.2822L45.2268 36.2097L45.5442 35.5724L45.1193 35.3624L44.8369 35.9298L44.6919 35.8573L44.9744 35.2899L44.517 35.0625H44.5145Z" fill="white"/>
<path d="M43.6649 38.7863C43.7123 38.7189 43.7474 38.6489 43.7674 38.5739C43.7874 38.5014 43.7924 38.4265 43.7799 38.354C43.7674 38.2815 43.7399 38.2115 43.6949 38.1415C43.6499 38.0716 43.5849 38.0091 43.5024 37.9491C43.42 37.8916 43.34 37.8516 43.2625 37.8316C43.185 37.8116 43.1125 37.8091 43.0425 37.8241C42.9726 37.8391 42.9076 37.8691 42.8451 37.9141C42.7827 37.9591 42.7276 38.0191 42.6752 38.094C42.6602 38.114 42.6477 38.1365 42.6327 38.159C42.6177 38.184 42.6052 38.209 42.5927 38.234C42.5802 38.259 42.5702 38.284 42.5602 38.309C42.5502 38.334 42.5427 38.3565 42.5352 38.379L42.4053 38.289C42.4153 38.244 42.4353 38.1965 42.4603 38.144C42.4852 38.0915 42.5152 38.0416 42.5502 37.9916C42.6202 37.8916 42.6977 37.8141 42.7802 37.7541C42.8626 37.6967 42.9476 37.6592 43.0376 37.6442C43.1276 37.6292 43.2175 37.6342 43.3125 37.6592C43.4075 37.6842 43.5 37.7317 43.5949 37.7991C43.6874 37.8641 43.7649 37.9391 43.8223 38.0241C43.8798 38.109 43.9198 38.1965 43.9373 38.289C43.9548 38.3815 43.9548 38.4789 43.9323 38.5764C43.9098 38.6739 43.8648 38.7714 43.7973 38.8663C43.7798 38.8913 43.7598 38.9163 43.7424 38.9388C43.7224 38.9613 43.7024 38.9838 43.6824 39.0038C43.6624 39.0238 43.6424 39.0413 43.6249 39.0563C43.6074 39.0713 43.5899 39.0838 43.5724 39.0938L43.4424 39.0038C43.4799 38.9763 43.5174 38.9438 43.5574 38.9063C43.5949 38.8688 43.6299 38.8288 43.6624 38.7863H43.6649Z" fill="white"/>
<path d="M41.878 38.9314L42.5904 40.3485L42.4878 40.466L40.9883 39.9486L41.1157 39.8011L41.5656 39.9611L41.9705 39.4987L41.7531 39.0764L41.8805 38.9314H41.878ZM42.3679 40.256C42.2729 40.0861 42.1904 39.9286 42.1155 39.7861L42.048 39.6537L41.7281 40.0211L41.868 40.0711C42.023 40.1261 42.1879 40.1885 42.3654 40.261H42.3679V40.256Z" fill="white"/>
<path d="M40.2134 40.7184L40.3433 40.5959L41.3431 41.6731L41.0456 41.9506C41.0006 41.9905 40.9581 42.028 40.9156 42.058C40.8731 42.088 40.8307 42.1105 40.7882 42.1305C40.7032 42.168 40.6207 42.178 40.5457 42.163C40.4708 42.148 40.4008 42.108 40.3383 42.0405C40.2884 41.9856 40.2533 41.9281 40.2358 41.8656C40.2183 41.8031 40.2183 41.7406 40.2358 41.6731C40.2508 41.6057 40.2808 41.5382 40.3283 41.4707C40.3733 41.4007 40.4358 41.3307 40.5108 41.2633C40.5458 41.2308 40.5857 41.1958 40.6257 41.1633L40.2134 40.7209V40.7184ZM40.7357 41.2808C40.7157 41.2957 40.6957 41.3107 40.6757 41.3282C40.6557 41.3457 40.6357 41.3607 40.6207 41.3782C40.5583 41.4357 40.5108 41.4907 40.4758 41.5382C40.4408 41.5882 40.4183 41.6356 40.4083 41.6781C40.3983 41.7206 40.3983 41.7631 40.4108 41.8006C40.4233 41.8381 40.4458 41.8731 40.4758 41.9081C40.5158 41.9506 40.5558 41.9756 40.6008 41.983C40.6458 41.9905 40.6932 41.9831 40.7432 41.9656C40.7732 41.9531 40.8057 41.9331 40.8407 41.9106C40.8757 41.8881 40.9107 41.8556 40.9507 41.8181L41.1031 41.6756L40.7357 41.2808Z" fill="white"/>
<path fill-rule="evenodd" clip-rule="evenodd" d="M23.4584 32.9258L30.3963 31.5937L27.9895 19.0723L21.0515 20.4069L23.4584 32.9258Z" fill="#FF5F00"/>
<path fill-rule="evenodd" clip-rule="evenodd" d="M22.6964 26.5831C22.2091 24.0438 22.9564 21.552 24.5209 19.74C22.9664 18.9328 21.1444 18.6229 19.295 18.9803C14.9162 19.8225 12.0545 24.0688 12.8993 28.4675C13.744 32.8663 17.9803 35.7479 22.3566 34.9057C24.206 34.5508 25.7855 33.586 26.9277 32.2614C24.8033 31.1567 23.1838 29.1223 22.6964 26.5831Z" fill="#EB001B"/>
<path fill-rule="evenodd" clip-rule="evenodd" d="M38.5494 23.5338C39.3942 27.9325 36.5325 32.1788 32.1538 33.021C30.3043 33.3759 28.4798 33.0685 26.9278 32.2612C28.4923 30.4493 29.2396 27.96 28.7523 25.4182C28.2649 22.8789 26.6454 20.8445 24.521 19.7398C25.6632 18.4152 27.2427 17.4505 29.0922 17.0956C33.4709 16.2534 37.7047 19.1375 38.5494 23.5338Z" fill="#F79E1B"/>
</svg>
