<svg width="52" height="52" viewBox="0 0 52 52" fill="none" xmlns="http://www.w3.org/2000/svg">
<path d="M26 52C40.3594 52 52 40.3594 52 26C52 11.6406 40.3594 0 26 0C11.6406 0 0 11.6406 0 26C0 40.3594 11.6406 52 26 52Z" fill="#FA660F"/>
<path d="M26.0002 44.1522C15.9906 44.1522 7.8479 36.0095 7.8479 25.9999C7.8479 15.9903 15.9906 7.84766 26.0002 7.84766C36.0098 7.84766 44.1524 15.9903 44.1524 25.9999C44.1524 36.0095 36.0098 44.1522 26.0002 44.1522ZM26.0002 8.35251C16.2705 8.35251 8.35276 16.2677 8.35276 25.9999C8.35276 35.7321 16.2705 43.6473 26.0002 43.6473C35.7299 43.6473 43.6476 35.7296 43.6476 25.9999C43.6476 16.2702 35.7299 8.35251 26.0002 8.35251Z" fill="black"/>
<path d="M26 50.6203C22.6784 50.6203 19.4544 49.968 16.4152 48.6834C13.4836 47.4437 10.8494 45.6693 8.5925 43.4099C6.33315 41.1506 4.55866 38.5188 3.31902 35.5872C2.03439 32.548 1.38208 29.3215 1.38208 26.0024C1.38208 22.6834 2.03439 19.4568 3.31902 16.4177C4.55866 13.486 6.33315 10.8518 8.5925 8.59494C10.8519 6.33559 13.4836 4.56111 16.4152 3.32146C19.4544 2.03683 22.6809 1.38452 26 1.38452C29.319 1.38452 32.5456 2.03683 35.5847 3.32146C38.5164 4.56111 41.1506 6.33559 43.4075 8.59494C45.6668 10.8543 47.4413 13.486 48.6809 16.4177C49.9656 19.4568 50.6179 22.6834 50.6179 26.0024C50.6179 29.3215 49.9656 32.548 48.6809 35.5872C47.4413 38.5188 45.6668 41.1531 43.4075 43.4099C41.1481 45.6693 38.5164 47.4437 35.5847 48.6834C32.5456 49.968 29.319 50.6203 26 50.6203ZM26 1.74692C22.7284 1.74692 19.5518 2.38923 16.5577 3.65637C13.6685 4.87851 11.0768 6.62551 8.84993 8.84987C6.62557 11.0742 4.87607 13.6685 3.65643 16.5576C2.38929 19.5518 1.74697 22.7284 1.74697 25.9999C1.74697 29.2715 2.38929 32.4481 3.65643 35.4422C4.87857 38.3314 6.62557 40.9231 8.84993 43.15C11.0743 45.3743 13.6685 47.1238 16.5577 48.3435C19.5518 49.6106 22.7284 50.2529 26 50.2529C29.2715 50.2529 32.4481 49.6106 35.4423 48.3435C38.3314 47.1213 40.9232 45.3743 43.15 43.15C45.3744 40.9256 47.1239 38.3314 48.3435 35.4422C49.6107 32.4481 50.253 29.2715 50.253 25.9999C50.253 22.7284 49.6107 19.5518 48.3435 16.5576C47.1214 13.6685 45.3744 11.0767 43.15 8.84987C40.9257 6.62551 38.3314 4.87601 35.4423 3.65637C32.4481 2.38923 29.2715 1.74692 26 1.74692Z" fill="black"/>
<path d="M8.78754 13.7961C8.925 13.881 9.04247 13.981 9.14244 14.091C9.24241 14.2009 9.31739 14.3209 9.37237 14.4509C9.42486 14.5808 9.45485 14.7183 9.46235 14.8657C9.46735 15.0132 9.44736 15.1657 9.39987 15.3281C9.37238 15.4206 9.33488 15.5156 9.2849 15.613C9.23741 15.7105 9.17743 15.8105 9.11245 15.9179L8.77754 16.4503L6.42822 14.9707L6.76563 14.4334C6.83311 14.3259 6.90058 14.2309 6.96557 14.146C7.03055 14.061 7.10053 13.986 7.17301 13.921C7.29797 13.8085 7.42793 13.7236 7.5604 13.6636C7.69286 13.6036 7.82782 13.5711 7.96528 13.5636C8.10274 13.5561 8.2402 13.5711 8.37766 13.6136C8.51512 13.6536 8.65258 13.7186 8.79004 13.8036L8.78754 13.7961ZM8.60759 14.081C8.38266 13.9385 8.16772 13.8735 7.96278 13.8835C7.76034 13.8935 7.57039 13.976 7.39544 14.1235C7.32796 14.1809 7.26298 14.2509 7.2005 14.3334C7.13802 14.4159 7.07054 14.5133 7.00056 14.6233L6.86309 14.8433L8.69507 15.9979L8.83253 15.778C8.90251 15.668 8.95999 15.5655 9.00748 15.4731C9.05497 15.3806 9.08995 15.2906 9.11245 15.2056C9.16993 14.9832 9.15993 14.7758 9.07496 14.5833C8.99248 14.3909 8.83503 14.2234 8.60759 14.081Z" fill="black"/>
<path d="M11.1492 13.1063L9.06982 11.2668L9.29476 11.0144L11.3742 12.8539L11.1492 13.1063Z" fill="black"/>
<path d="M13.4286 9.42727L12.9387 9.82715L12.7463 9.59222L13.4986 8.9774L14.3483 10.0171C14.3358 10.0471 14.3133 10.0871 14.2783 10.1346C14.2458 10.182 14.2058 10.2345 14.1584 10.2895C14.1109 10.3445 14.0584 10.402 14.0009 10.462C13.9434 10.5195 13.8809 10.5744 13.821 10.6269C13.636 10.7769 13.4536 10.8843 13.2711 10.9493C13.0887 11.0143 12.9137 11.0393 12.7413 11.0243C12.5688 11.0093 12.4064 10.9568 12.2489 10.8669C12.0915 10.7744 11.9465 10.6494 11.814 10.487C11.6716 10.312 11.5666 10.1296 11.5041 9.94212C11.4416 9.75467 11.4192 9.56723 11.4366 9.38228C11.4566 9.19733 11.5166 9.01739 11.6166 8.84244C11.7166 8.66749 11.854 8.51003 12.029 8.36757C12.0765 8.33008 12.1239 8.2926 12.1739 8.25761C12.2239 8.22262 12.2739 8.19012 12.3214 8.16263C12.3689 8.13514 12.4164 8.11015 12.4614 8.09015C12.5063 8.07016 12.5438 8.05516 12.5788 8.04517L12.7688 8.2776C12.6863 8.30759 12.5988 8.35008 12.5038 8.40506C12.4089 8.46005 12.3189 8.52003 12.2364 8.58751C12.1139 8.68748 12.014 8.79995 11.9315 8.92741C11.8515 9.05488 11.799 9.18984 11.7765 9.33479C11.7541 9.47975 11.7616 9.62721 11.804 9.78217C11.8465 9.93712 11.929 10.0896 12.054 10.242C12.1764 10.392 12.3014 10.502 12.4314 10.5769C12.5613 10.6519 12.6938 10.6919 12.8287 10.6994C12.9637 10.7069 13.0987 10.6844 13.2361 10.6294C13.3736 10.5744 13.5086 10.492 13.641 10.382C13.7035 10.332 13.761 10.277 13.816 10.222C13.8709 10.1671 13.9159 10.1146 13.9534 10.0646L13.4311 9.42477L13.4286 9.42727Z" fill="black"/>
<path d="M16.038 9.03983L14.6509 6.63553L14.9433 6.46558L16.3304 8.86988L16.038 9.03983Z" fill="black"/>
<path d="M19.0021 7.61532L18.6872 7.73778L17.7875 5.43595L16.9227 5.77335L16.8127 5.48843L18.8547 4.69116L18.9646 4.97608L18.0999 5.31348L18.9996 7.61532H19.0021Z" fill="black"/>
<path d="M20.9864 6.93554L21.5687 3.99639L21.8561 3.94141L23.4932 6.45068L23.1333 6.52066L22.6484 5.76338L21.5087 5.98332L21.3413 6.86806L20.9839 6.93804L20.9864 6.93554ZM21.7912 4.39378C21.7362 4.75617 21.6787 5.08608 21.6212 5.38599L21.5687 5.66341L22.471 5.48846L22.3185 5.25103C22.1511 4.9911 21.9786 4.70369 21.7987 4.39128H21.7912V4.39378Z" fill="black"/>
<path d="M25.4451 3.56641L25.4851 6.03819L26.8397 6.0157L26.8447 6.32061L25.1527 6.3481L25.1077 3.5739L25.4451 3.56891V3.56641Z" fill="black"/>
<path d="M30.2512 6.75319L32.1082 4.40137L32.3881 4.48384L32.703 7.46548L32.3506 7.36301L32.2656 6.46827L31.151 6.14586L30.6011 6.85566L30.2512 6.75569V6.75319ZM32.1257 4.85624C31.9107 5.15365 31.7108 5.42357 31.5234 5.6635L31.3509 5.88594L32.2356 6.14087L32.2082 5.86095C32.1782 5.55353 32.1557 5.21863 32.1357 4.85874H32.1282L32.1257 4.85624Z" fill="black"/>
<path d="M35.4074 6.42571C35.3699 6.49818 35.3549 6.56567 35.3599 6.62815C35.3649 6.69063 35.3849 6.75061 35.4174 6.8056C35.4499 6.86058 35.4949 6.91556 35.5524 6.97055C35.6074 7.02303 35.6673 7.07802 35.7298 7.1305C35.8123 7.20298 35.8948 7.27796 35.9723 7.35294C36.0497 7.42792 36.1122 7.51039 36.1597 7.59787C36.2072 7.68534 36.2322 7.78032 36.2347 7.88279C36.2372 7.98526 36.2072 8.10022 36.1447 8.22519C36.0797 8.35265 35.9972 8.45012 35.9023 8.5201C35.8048 8.58758 35.6998 8.63007 35.5849 8.64507C35.4674 8.66006 35.3449 8.65256 35.2125 8.62257C35.08 8.59258 34.9451 8.5401 34.8051 8.47012C34.7401 8.43763 34.6776 8.40014 34.6151 8.35765C34.5527 8.31516 34.4927 8.27267 34.4402 8.22769C34.3877 8.1827 34.3402 8.14021 34.2977 8.09772C34.2578 8.05524 34.2278 8.01775 34.2078 7.98526L34.3477 7.71034C34.3802 7.75532 34.4202 7.80031 34.4652 7.8478C34.5102 7.89528 34.5602 7.94027 34.6126 7.98276C34.6651 8.02524 34.7201 8.06773 34.7751 8.10522C34.8301 8.14271 34.8851 8.1752 34.9401 8.20269C35.025 8.24768 35.1125 8.28267 35.1975 8.30766C35.2825 8.33266 35.3649 8.34265 35.4424 8.34015C35.5199 8.33765 35.5899 8.31266 35.6548 8.27017C35.7198 8.22769 35.7748 8.1627 35.8223 8.07273C35.8598 7.99775 35.8773 7.93027 35.8698 7.86779C35.8648 7.80531 35.8448 7.74283 35.8098 7.68784C35.7748 7.63036 35.7298 7.57537 35.6748 7.52289C35.6199 7.4704 35.5599 7.41542 35.4949 7.36044C35.4099 7.28796 35.3299 7.21548 35.2525 7.1405C35.175 7.06552 35.1125 6.98554 35.065 6.89807C35.0175 6.8106 34.9925 6.71812 34.99 6.61815C34.9875 6.51818 35.015 6.40821 35.0775 6.28825C35.1425 6.16328 35.22 6.06581 35.3124 6.00083C35.4049 5.93335 35.5049 5.89086 35.6149 5.87337C35.7248 5.85337 35.8373 5.85837 35.9523 5.88086C36.0697 5.90586 36.1847 5.94584 36.2997 6.00583C36.4321 6.07331 36.5471 6.14829 36.6496 6.23326C36.7495 6.31574 36.837 6.40321 36.912 6.49319L36.7695 6.77311C36.6895 6.67813 36.6021 6.58816 36.5071 6.50568C36.4121 6.42321 36.3022 6.34823 36.1797 6.28325C36.0872 6.23576 35.9997 6.20327 35.9198 6.18827C35.8398 6.17328 35.7673 6.17328 35.7023 6.18827C35.6374 6.20327 35.5799 6.23076 35.5299 6.27325C35.4799 6.31574 35.4399 6.36822 35.4049 6.4332L35.4074 6.42571Z" fill="black"/>
<path d="M38.7913 8.45265C38.7413 8.51763 38.7138 8.58012 38.7063 8.6426C38.6988 8.70508 38.7063 8.76756 38.7313 8.82755C38.7538 8.89003 38.7888 8.95001 38.8338 9.01249C38.8788 9.07497 38.9263 9.13746 38.9787 9.20244C39.0487 9.28991 39.1137 9.37739 39.1762 9.46486C39.2387 9.55484 39.2862 9.64481 39.3161 9.73978C39.3461 9.83476 39.3536 9.93223 39.3386 10.0347C39.3236 10.1372 39.2737 10.2446 39.1862 10.3546C39.0987 10.4696 39.0012 10.5495 38.8938 10.5995C38.7863 10.6495 38.6738 10.672 38.5589 10.6645C38.4414 10.6595 38.3214 10.6295 38.1965 10.5745C38.0715 10.5196 37.949 10.4446 37.8241 10.3496C37.7666 10.3046 37.7116 10.2571 37.6566 10.2046C37.6016 10.1522 37.5517 10.0972 37.5067 10.0447C37.4617 9.98971 37.4242 9.93972 37.3917 9.88974C37.3592 9.83975 37.3367 9.79976 37.3242 9.76477L37.5117 9.51985C37.5367 9.56983 37.5666 9.62232 37.6041 9.6773C37.6416 9.73228 37.6816 9.78477 37.7241 9.83725C37.7691 9.88974 37.8141 9.93972 37.8616 9.98721C37.909 10.0347 37.959 10.0772 38.004 10.1122C38.0815 10.1722 38.159 10.2221 38.239 10.2621C38.3189 10.3021 38.3964 10.3271 38.4739 10.3371C38.5489 10.3471 38.6238 10.3371 38.6963 10.3071C38.7688 10.2771 38.8338 10.2221 38.8963 10.1422C38.9463 10.0772 38.9762 10.0122 38.9812 9.94722C38.9862 9.88474 38.9787 9.81976 38.9562 9.75728C38.9338 9.6948 38.8988 9.63231 38.8538 9.56983C38.8088 9.50735 38.7588 9.44237 38.7063 9.37739C38.6363 9.29241 38.5689 9.20494 38.5064 9.11746C38.4439 9.02999 38.3964 8.94001 38.3664 8.84754C38.3364 8.75507 38.3289 8.65759 38.3414 8.56012C38.3564 8.46015 38.4039 8.35768 38.4864 8.25021C38.5714 8.13774 38.6663 8.05777 38.7688 8.00778C38.8713 7.9578 38.9787 7.9353 39.0887 7.9353C39.1987 7.9353 39.3086 7.9603 39.4186 8.00528C39.5286 8.05027 39.6361 8.11275 39.7385 8.19023C39.856 8.2802 39.956 8.37518 40.0409 8.47765C40.1259 8.57762 40.1959 8.68009 40.2509 8.78006L40.0609 9.02749C39.9985 8.92002 39.9285 8.81505 39.851 8.71758C39.7735 8.61761 39.6785 8.52513 39.5686 8.44016C39.4861 8.37518 39.4061 8.33019 39.3311 8.3002C39.2562 8.27021 39.1862 8.25771 39.1187 8.26021C39.0512 8.26021 38.9912 8.2802 38.9338 8.31269C38.8763 8.34518 38.8263 8.39017 38.7813 8.44765L38.7913 8.45265Z" fill="black"/>
<path d="M40.5108 12.2714L41.463 13.3286L41.2356 13.5335L40.0559 12.2264L42.1178 10.3669L43.245 11.6166L43.0176 11.8215L42.1153 10.8218L41.4505 11.4216L42.2528 12.3114L42.0253 12.5163L41.2231 11.6266L40.5058 12.2739L40.5108 12.2714Z" fill="black"/>
<path d="M42.8427 15.8455L42.6653 15.5581L44.7697 14.2634L44.2823 13.4737L44.5422 13.3137L45.6919 15.1807L45.432 15.3406L44.9446 14.5509L42.8402 15.8455H42.8427Z" fill="black"/>
<path d="M19.0921 46.8239C19.2371 46.6139 19.4021 46.389 19.5895 46.1566L20.5842 44.9144L21.3465 45.1743L20.3343 48.136L19.7919 47.951L20.3043 46.449C20.3793 46.229 20.4767 45.9766 20.5917 45.6917L20.5717 45.6842C20.5167 45.7592 20.4568 45.8441 20.3868 45.9366C20.3168 46.0291 20.2468 46.1216 20.1743 46.209L18.9897 47.6736L18.6398 47.5537L18.5998 45.6692C18.5998 45.5542 18.5998 45.4393 18.5998 45.3218C18.5998 45.2043 18.6048 45.1019 18.6073 45.0069L18.5873 44.9994C18.5123 45.2793 18.4323 45.5367 18.3524 45.7717L17.8375 47.2762L17.2952 47.0913L18.3074 44.1296L19.0647 44.3896L19.0946 45.9741C19.0996 46.239 19.0946 46.5189 19.0772 46.8139L19.0896 46.8189L19.0921 46.8239Z" fill="black"/>
<path d="M24.7132 47.8261C24.7182 47.7461 24.7032 47.6812 24.6682 47.6287C24.6332 47.5762 24.5832 47.5337 24.5183 47.4987C24.4533 47.4637 24.3808 47.4312 24.2983 47.4062C24.2158 47.3812 24.1309 47.3563 24.0409 47.3313C23.9209 47.2963 23.8085 47.2563 23.6985 47.2113C23.591 47.1663 23.496 47.1088 23.4161 47.0388C23.3361 46.9689 23.2761 46.8814 23.2336 46.7789C23.1911 46.6764 23.1736 46.549 23.1836 46.399C23.1961 46.2341 23.2336 46.0916 23.3011 45.9741C23.3661 45.8567 23.4536 45.7592 23.556 45.6867C23.661 45.6143 23.781 45.5618 23.9159 45.5318C24.0509 45.5018 24.2033 45.4918 24.3683 45.5043C24.5357 45.5168 24.7007 45.5443 24.8656 45.5893C25.0306 45.6342 25.1731 45.6867 25.2905 45.7442L25.2555 46.2341C25.0981 46.1591 24.9456 46.1016 24.8007 46.0616C24.6532 46.0216 24.5158 45.9991 24.3858 45.9891C24.1983 45.9766 24.0509 45.9991 23.9434 46.0616C23.836 46.1241 23.7785 46.2216 23.7685 46.359C23.7635 46.439 23.776 46.504 23.806 46.559C23.8359 46.614 23.8784 46.659 23.9334 46.6964C23.9884 46.7339 24.0534 46.7664 24.1259 46.7914C24.1983 46.8164 24.2783 46.8414 24.3608 46.8639C24.4908 46.9014 24.6157 46.9414 24.7332 46.9864C24.8507 47.0313 24.9556 47.0888 25.0431 47.1613C25.1331 47.2338 25.2006 47.3238 25.248 47.4312C25.2955 47.5412 25.313 47.6762 25.3005 47.8386C25.288 48.0061 25.248 48.151 25.1781 48.2685C25.1081 48.386 25.0106 48.4834 24.8906 48.5559C24.7707 48.6284 24.6282 48.6784 24.4608 48.7059C24.2958 48.7334 24.1134 48.7409 23.9209 48.7259C23.751 48.7134 23.586 48.6859 23.4236 48.6409C23.2611 48.5959 23.1287 48.5384 23.0237 48.4709L23.0562 47.9886C23.2061 48.066 23.3536 48.126 23.496 48.166C23.641 48.206 23.791 48.2335 23.9459 48.2435C24.0359 48.251 24.1259 48.2485 24.2133 48.241C24.3008 48.2335 24.3808 48.2135 24.4533 48.181C24.5257 48.151 24.5832 48.106 24.6307 48.0461C24.6782 47.9886 24.7032 47.9136 24.7107 47.8236L24.7132 47.8261Z" fill="black"/>
<path d="M29.1369 48.441L28.5695 48.5285L28.1597 45.9092L27.1599 46.0642L27.085 45.5893L29.6467 45.1895L29.7217 45.6643L28.7245 45.8193L29.1319 48.4385L29.1369 48.441Z" fill="black"/>
<path d="M33.8106 44.6995C33.8931 44.902 33.9081 45.0969 33.8531 45.2819C33.7981 45.4668 33.6682 45.6442 33.4632 45.8067V45.8142L34.8178 46.6515L34.1805 46.9114L32.9334 46.1141L32.5685 46.2641L33.0283 47.3862L32.4985 47.6037L31.3088 44.707L32.1911 44.3446C32.336 44.2846 32.476 44.2372 32.6085 44.2022C32.7409 44.1672 32.8584 44.1472 32.9609 44.1447C33.1583 44.1397 33.3283 44.1822 33.4732 44.2721C33.6182 44.3621 33.7306 44.5046 33.8106 44.697V44.6995ZM32.6485 45.7167C32.7684 45.6667 32.8709 45.6193 32.9509 45.5743C33.0308 45.5293 33.0958 45.4843 33.1433 45.4393C33.2333 45.3543 33.2858 45.2694 33.2983 45.1819C33.3108 45.0944 33.2983 45.0069 33.2608 44.9145C33.2283 44.837 33.1833 44.7745 33.1283 44.727C33.0708 44.6795 32.9959 44.657 32.9034 44.652C32.8434 44.652 32.7734 44.6595 32.6909 44.6795C32.611 44.6995 32.5135 44.7345 32.401 44.7795L32.0211 44.9345L32.386 45.8217L32.6485 45.7142V45.7167Z" fill="black"/>
<path d="M11.7818 40.7159C11.7443 40.6784 11.7043 40.6509 11.6668 40.6309C11.6294 40.6109 11.5894 40.5984 11.5519 40.5934C11.5144 40.5884 11.4769 40.5909 11.4394 40.5984C11.4019 40.6059 11.3669 40.6209 11.3319 40.6409C11.3094 40.6534 11.287 40.6684 11.2645 40.6884C11.242 40.7084 11.2195 40.7284 11.202 40.7484L10.5672 41.4032L10.4397 41.2782L11.072 40.6259C11.097 40.6009 11.122 40.5759 11.152 40.5534C11.1795 40.5284 11.2095 40.5084 11.237 40.4909C11.2845 40.4609 11.3344 40.441 11.3869 40.426C11.4394 40.411 11.4919 40.4085 11.5494 40.416C11.6044 40.4235 11.6619 40.4409 11.7193 40.4709C11.7768 40.5009 11.8368 40.5459 11.8968 40.6034C11.9543 40.6584 11.9993 40.7159 12.0317 40.7709C12.0642 40.8258 12.0842 40.8808 12.0942 40.9333C12.1042 40.9858 12.1042 41.0383 12.0942 41.0883C12.0842 41.1382 12.0667 41.1857 12.0442 41.2332C12.0267 41.2682 12.0042 41.3007 11.9793 41.3332C11.9543 41.3657 11.9268 41.3982 11.8993 41.4257L11.267 42.078L11.1395 41.953L11.7743 41.2982C11.7968 41.2757 11.8193 41.2482 11.8393 41.2207C11.8593 41.1932 11.8768 41.1632 11.8893 41.1357C11.9193 41.0658 11.9293 40.9958 11.9143 40.9258C11.8993 40.8558 11.8568 40.7859 11.7868 40.7159H11.7818Z" fill="black"/>
<path d="M9.8274 40.026C9.85989 39.9985 9.88239 39.9685 9.89238 39.936C9.90238 39.9036 9.90488 39.8711 9.89988 39.8361C9.89488 39.8011 9.88488 39.7661 9.86739 39.7286C9.85239 39.6911 9.83239 39.6536 9.8149 39.6136C9.78991 39.5612 9.76492 39.5087 9.74242 39.4562C9.71993 39.4037 9.70743 39.3512 9.70244 39.2987C9.69744 39.2462 9.70243 39.1963 9.72493 39.1438C9.74492 39.0938 9.78241 39.0438 9.83989 38.9963C9.89738 38.9463 9.95736 38.9163 10.0198 38.9038C10.0798 38.8914 10.1423 38.8913 10.2023 38.9088C10.2623 38.9263 10.3223 38.9538 10.3797 38.9963C10.4372 39.0388 10.4922 39.0913 10.5472 39.1538C10.5722 39.1838 10.5947 39.2138 10.6172 39.2487C10.6397 39.2837 10.6597 39.3162 10.6747 39.3487C10.6896 39.3812 10.7046 39.4137 10.7171 39.4412C10.7271 39.4712 10.7346 39.4937 10.7371 39.5137L10.6122 39.6186C10.6047 39.5911 10.5947 39.5587 10.5822 39.5262C10.5697 39.4937 10.5547 39.4612 10.5372 39.4287C10.5197 39.3962 10.5022 39.3662 10.4822 39.3362C10.4622 39.3062 10.4422 39.2787 10.4222 39.2537C10.3897 39.2138 10.3547 39.1788 10.3173 39.1488C10.2798 39.1188 10.2423 39.0963 10.2048 39.0838C10.1673 39.0688 10.1273 39.0663 10.0873 39.0738C10.0473 39.0813 10.0073 39.1013 9.96486 39.1363C9.93237 39.1638 9.90988 39.1938 9.89988 39.2263C9.88988 39.2587 9.88738 39.2912 9.89238 39.3262C9.89738 39.3612 9.90737 39.3987 9.92487 39.4362C9.93986 39.4737 9.95986 39.5112 9.97985 39.5512C10.0073 39.6036 10.0298 39.6561 10.0523 39.7086C10.0748 39.7611 10.0873 39.8136 10.0923 39.8636C10.0973 39.9136 10.0923 39.966 10.0723 40.016C10.0523 40.066 10.0173 40.1135 9.96236 40.1585C9.90488 40.206 9.84739 40.236 9.78741 40.251C9.72993 40.2635 9.66994 40.266 9.61496 40.251C9.55748 40.2385 9.50499 40.2135 9.45251 40.1785C9.40002 40.1435 9.35253 40.0985 9.30754 40.046C9.25756 39.986 9.21507 39.9261 9.18508 39.8636C9.15259 39.8011 9.1276 39.7411 9.11011 39.6836L9.23757 39.5762C9.25756 39.6386 9.28006 39.7011 9.31005 39.7611C9.34004 39.8211 9.37753 39.8811 9.42501 39.936C9.46 39.9785 9.4975 40.011 9.53249 40.036C9.56748 40.0585 9.60246 40.076 9.63745 40.081C9.67244 40.0885 9.70493 40.086 9.73742 40.076C9.76991 40.066 9.8024 40.0485 9.8324 40.0235L9.8274 40.026Z" fill="black"/>
<path d="M7.55548 37.5791L8.67515 36.9043L8.30526 36.2895L8.44272 36.207L8.90509 36.9743L7.64545 37.7316L7.55298 37.5791H7.55548Z" fill="black"/>
<path d="M8.05285 35.4949L6.4683 35.5799L6.40332 35.4399L7.47551 34.2703L7.55799 34.4452L7.23308 34.7926L7.4955 35.3475L7.97037 35.3175L8.05285 35.4924V35.4949ZM6.64326 35.4149C6.8357 35.3949 7.01315 35.3824 7.1731 35.3724L7.32056 35.3625L7.11311 34.9226L7.01065 35.0325C6.89818 35.1525 6.77571 35.2775 6.63825 35.4124V35.4174L6.64326 35.4149Z" fill="black"/>
<path d="M6.50828 33.4604L7.08311 33.2605L7.1431 33.4304L5.75599 33.9153L5.63103 33.5554C5.61104 33.4954 5.59354 33.4429 5.58354 33.3979C5.57355 33.3529 5.56605 33.3129 5.56355 33.273C5.55605 33.168 5.57604 33.078 5.62103 33.0055C5.66602 32.9331 5.736 32.8781 5.83098 32.8456C5.88596 32.8256 5.94094 32.8181 5.99093 32.8206C6.04091 32.8231 6.0884 32.8356 6.13339 32.8556C6.17837 32.8756 6.21836 32.9056 6.25335 32.9456C6.29084 32.983 6.32333 33.028 6.35082 33.0805H6.35582L6.80569 32.4607L6.86567 32.6306L6.44079 33.258L6.51327 33.4629L6.50828 33.4604ZM5.84847 33.6903L6.35582 33.5129L6.29834 33.3454C6.28085 33.293 6.26335 33.2505 6.24585 33.2155C6.23085 33.1805 6.21086 33.1505 6.19337 33.123C6.15588 33.0705 6.11089 33.0355 6.06091 33.018C6.01092 33.0005 5.95344 33.003 5.88846 33.023C5.82847 33.0455 5.78599 33.0755 5.761 33.118C5.736 33.1605 5.7235 33.2105 5.726 33.268C5.726 33.2955 5.731 33.3279 5.741 33.3629C5.7485 33.3979 5.76349 33.4429 5.78099 33.4954L5.84847 33.6878V33.6903Z" fill="black"/>
<path d="M5.73098 30.7036L5.80596 31.031L5.64851 31.0685L5.53354 30.5686L6.22584 30.4087C6.23834 30.4212 6.25083 30.4412 6.26583 30.4687C6.28083 30.4962 6.29582 30.5262 6.31082 30.5636C6.32581 30.5986 6.3408 30.6386 6.3558 30.6786C6.3708 30.7211 6.3808 30.7611 6.39079 30.8036C6.41829 30.926 6.42828 31.0385 6.41579 31.141C6.40329 31.2435 6.3758 31.3334 6.32831 31.4109C6.28083 31.4884 6.21834 31.5534 6.13836 31.6083C6.05839 31.6608 5.96341 31.7008 5.85594 31.7258C5.73848 31.7533 5.62851 31.7583 5.52354 31.7458C5.41857 31.7308 5.3261 31.6983 5.24363 31.6458C5.16115 31.5934 5.08867 31.5234 5.02868 31.4359C4.9687 31.3484 4.92622 31.246 4.89872 31.1285C4.89123 31.096 4.88623 31.066 4.88123 31.0335C4.87623 31.001 4.87373 30.971 4.87123 30.941C4.87123 30.911 4.86873 30.8836 4.87123 30.8586C4.87123 30.8336 4.87373 30.8111 4.87623 30.7936L5.03119 30.7586C5.02619 30.8036 5.02619 30.8561 5.03119 30.9135C5.03368 30.971 5.04368 31.0285 5.05618 31.0835C5.07617 31.166 5.10616 31.2385 5.14615 31.3084C5.18864 31.3759 5.24112 31.4334 5.30361 31.4784C5.36609 31.5234 5.43857 31.5534 5.52354 31.5709C5.60602 31.5859 5.69849 31.5834 5.80096 31.5609C5.90093 31.5384 5.98341 31.5034 6.04839 31.4584C6.11338 31.4134 6.16336 31.3609 6.19835 31.2984C6.23334 31.236 6.25334 31.166 6.26083 31.0885C6.26583 31.011 6.26083 30.926 6.23833 30.8386C6.22834 30.7961 6.21834 30.7561 6.20335 30.7186C6.19085 30.6786 6.17585 30.6461 6.16086 30.6161L5.73598 30.7136L5.73098 30.7036Z" fill="black"/>
<path d="M5.91346 29.2065L5.82099 28.4592L5.98094 28.4392L6.09591 29.3639L4.63634 29.5439L4.52637 28.6591L4.68632 28.6392L4.77379 29.3464L5.24366 29.289L5.16618 28.6591L5.32613 28.6392L5.40361 29.269L5.91096 29.2065H5.91346Z" fill="black"/>
<path d="M4.57147 25.6302C4.57147 25.7127 4.57897 25.7902 4.60397 25.8627C4.62896 25.9351 4.66395 25.9976 4.71393 26.0526C4.76392 26.1076 4.8264 26.1501 4.90138 26.1826C4.97636 26.2151 5.06633 26.2326 5.1663 26.235C5.26627 26.2375 5.35625 26.2276 5.43123 26.2001C5.50621 26.1751 5.56869 26.1351 5.61867 26.0851C5.66866 26.0351 5.70615 25.9726 5.73364 25.9001C5.75863 25.8277 5.77363 25.7477 5.77613 25.6577C5.77613 25.6327 5.77613 25.6077 5.77613 25.5802C5.77613 25.5527 5.77113 25.5253 5.76863 25.4978C5.76613 25.4703 5.76113 25.4428 5.75363 25.4153C5.74863 25.3878 5.74114 25.3653 5.73614 25.3453L5.89359 25.3503C5.90859 25.3928 5.92108 25.4453 5.92858 25.5028C5.93608 25.5602 5.93858 25.6177 5.93608 25.6777C5.93358 25.8002 5.91109 25.9076 5.8761 26.0001C5.83861 26.0926 5.78862 26.1726 5.72364 26.2325C5.65866 26.295 5.57868 26.34 5.48621 26.37C5.39374 26.4 5.28877 26.4125 5.1713 26.41C5.05633 26.4075 4.95136 26.385 4.85889 26.3475C4.76392 26.31 4.68394 26.2575 4.61646 26.1901C4.54898 26.1226 4.49899 26.0426 4.46151 25.9476C4.42402 25.8527 4.40902 25.7477 4.41402 25.6302C4.41402 25.6002 4.41652 25.5702 4.42152 25.5403C4.42402 25.5103 4.42901 25.4828 4.43401 25.4553C4.43901 25.4278 4.44651 25.4028 4.45401 25.3803C4.46151 25.3578 4.469 25.3378 4.4765 25.3203L4.63396 25.3253C4.61896 25.3703 4.60396 25.4178 4.59397 25.4703C4.58147 25.5228 4.57648 25.5752 4.57398 25.6277L4.57147 25.6302Z" fill="black"/>
<path d="M5.9811 24.5181L4.604 23.7283L4.62399 23.5759L6.16105 23.1785L6.13606 23.3709L5.67369 23.4859L5.59121 24.0957L6.0061 24.3281L5.9811 24.5181ZM4.83894 23.6858C5.01139 23.7758 5.16884 23.8583 5.30879 23.9382L5.43876 24.0107L5.50374 23.5284L5.35878 23.5659C5.19883 23.6058 5.02638 23.6433 4.83894 23.6808V23.6858Z" fill="black"/>
<path d="M6.3834 22.1112L6.3409 22.2862L4.91382 21.9388L5.00879 21.5439C5.02379 21.4839 5.03878 21.4314 5.05877 21.3839C5.07877 21.3364 5.10127 21.2915 5.12626 21.254C5.17874 21.1765 5.23872 21.1215 5.3112 21.094C5.38368 21.064 5.46366 21.0615 5.55113 21.0815C5.62361 21.099 5.68359 21.129 5.73108 21.1715C5.77857 21.214 5.81606 21.2665 5.83855 21.3315C5.86105 21.3939 5.87354 21.4689 5.87354 21.5514C5.87354 21.6339 5.86105 21.7263 5.83605 21.8263C5.82356 21.8738 5.81106 21.9238 5.79356 21.9738L6.38089 22.1162L6.3834 22.1112ZM5.63611 21.9288C5.64361 21.9063 5.6536 21.8813 5.6611 21.8563C5.6686 21.8313 5.6761 21.8063 5.6811 21.7838C5.70109 21.7013 5.71109 21.6314 5.71359 21.5689C5.71359 21.5089 5.70859 21.4564 5.69109 21.4139C5.67609 21.3714 5.6511 21.3389 5.62111 21.314C5.59112 21.289 5.55113 21.2715 5.50615 21.2615C5.45116 21.249 5.40118 21.2515 5.35869 21.269C5.3162 21.2865 5.28121 21.319 5.24872 21.3639C5.22873 21.3914 5.21374 21.4239 5.19874 21.4639C5.18374 21.5039 5.17125 21.5489 5.15875 21.6014L5.10876 21.8038L5.63361 21.9313L5.63611 21.9288Z" fill="black"/>
<path d="M13.4788 43.2501L14.0186 43.675L13.3313 43.645L13.0939 44.2898L12.9089 43.6275L12.2241 43.6L12.7965 43.2201L12.609 42.5603L13.1464 42.9877L13.7187 42.6053L13.4788 43.2501Z" fill="black"/>
<path d="M6.44805 17.8873L7.41027 17.8399L6.65799 18.4397L7.00039 19.3394L6.19562 18.8096L5.44584 19.4119L5.70076 18.4847L4.896 17.9573L5.85822 17.9148L6.11065 16.9851L6.44805 17.8873Z" fill="black"/>
<path d="M39.0013 43.2501L38.4614 43.675L39.1462 43.645L39.3837 44.2898L39.5686 43.6275L40.2559 43.6L39.6811 43.2201L39.8685 42.5603L39.3312 42.9877L38.7613 42.6053L39.0013 43.2501Z" fill="black"/>
<path d="M46.0291 17.8873L45.0669 17.8399L45.8217 18.4397L45.4793 19.3394L46.2815 18.8096L47.0338 19.4119L46.7764 18.4847L47.5837 17.9573L46.6214 17.9148L46.369 16.9851L46.0291 17.8873Z" fill="black"/>
<path d="M45.9567 22.2161C45.9692 22.2686 45.9842 22.3136 46.0067 22.3511C46.0267 22.3885 46.0517 22.421 46.0817 22.446C46.1116 22.471 46.1416 22.491 46.1791 22.5035C46.2166 22.516 46.2516 22.5235 46.2941 22.526C46.3191 22.526 46.3466 22.526 46.3766 22.526C46.4066 22.5235 46.434 22.5185 46.4615 22.511L47.3513 22.3136L47.3888 22.4885L46.504 22.6835C46.4715 22.691 46.4341 22.696 46.3966 22.701C46.3591 22.706 46.3241 22.706 46.2916 22.706C46.2366 22.706 46.1816 22.6935 46.1316 22.676C46.0817 22.6585 46.0342 22.631 45.9917 22.596C45.9492 22.561 45.9117 22.5135 45.8792 22.456C45.8467 22.3985 45.8217 22.3286 45.8042 22.2461C45.7867 22.1686 45.7792 22.0961 45.7842 22.0336C45.7892 21.9712 45.8017 21.9137 45.8217 21.8662C45.8417 21.8162 45.8717 21.7737 45.9067 21.7387C45.9417 21.7012 45.9842 21.6713 46.0292 21.6463C46.0617 21.6288 46.0991 21.6113 46.1391 21.5988C46.1791 21.5863 46.2191 21.5738 46.2566 21.5663L47.1413 21.3713L47.1788 21.5463L46.2891 21.7437C46.2566 21.7512 46.2241 21.7612 46.1916 21.7737C46.1591 21.7862 46.1291 21.8012 46.1041 21.8162C46.0392 21.8562 45.9942 21.9112 45.9667 21.9787C45.9392 22.0461 45.9367 22.1261 45.9567 22.2236V22.2161Z" fill="black"/>
<path d="M47.2089 23.8707C47.1664 23.8757 47.1314 23.8882 47.1064 23.9082C47.0814 23.9282 47.0589 23.9557 47.0439 23.9857C47.029 24.0182 47.019 24.0532 47.0115 24.0932C47.004 24.1331 46.999 24.1756 46.9915 24.2181C46.984 24.2756 46.974 24.3331 46.964 24.3906C46.954 24.4481 46.9365 24.498 46.9115 24.5455C46.8865 24.593 46.8515 24.6305 46.809 24.663C46.764 24.6955 46.7065 24.7155 46.6316 24.723C46.5566 24.7305 46.4891 24.723 46.4316 24.703C46.3741 24.6805 46.3242 24.6455 46.2817 24.598C46.2417 24.5505 46.2067 24.4955 46.1817 24.4281C46.1567 24.3606 46.1392 24.2856 46.1317 24.2031C46.1267 24.1656 46.1267 24.1256 46.1267 24.0857C46.1267 24.0457 46.1267 24.0082 46.1342 23.9707C46.1392 23.9332 46.1442 23.9007 46.1517 23.8707C46.1592 23.8407 46.1667 23.8157 46.1742 23.7982L46.3366 23.7807C46.3267 23.8082 46.3167 23.8382 46.3117 23.8732C46.3042 23.9082 46.2992 23.9432 46.2942 23.9782C46.2892 24.0132 46.2892 24.0507 46.2892 24.0857C46.2892 24.1206 46.2892 24.1556 46.2942 24.1856C46.2992 24.2356 46.3092 24.2856 46.3242 24.3306C46.3391 24.3756 46.3566 24.4156 46.3816 24.4481C46.4066 24.4805 46.4366 24.5055 46.4741 24.5205C46.5116 24.538 46.5566 24.543 46.6091 24.5355C46.6516 24.5305 46.6865 24.518 46.714 24.4955C46.7415 24.4755 46.7615 24.4481 46.7765 24.4156C46.7915 24.3831 46.804 24.3481 46.809 24.3081C46.8165 24.2681 46.8215 24.2256 46.829 24.1806C46.8365 24.1231 46.844 24.0657 46.854 24.0082C46.864 23.9532 46.8815 23.9007 46.9065 23.8557C46.9315 23.8107 46.964 23.7707 47.0065 23.7408C47.0489 23.7108 47.1064 23.6908 47.1789 23.6833C47.2539 23.6758 47.3189 23.6833 47.3739 23.7033C47.4313 23.7233 47.4788 23.7558 47.5188 23.7982C47.5588 23.8407 47.5913 23.8907 47.6138 23.9507C47.6363 24.0082 47.6538 24.0732 47.6613 24.1406C47.6713 24.2181 47.6713 24.2931 47.6613 24.3606C47.6513 24.4281 47.6413 24.493 47.6238 24.553L47.4588 24.5705C47.4788 24.508 47.4913 24.4431 47.5013 24.3756C47.5113 24.3081 47.5113 24.2406 47.5013 24.1656C47.4963 24.1106 47.4838 24.0632 47.4663 24.0232C47.4488 23.9832 47.4288 23.9507 47.4038 23.9282C47.3789 23.9032 47.3489 23.8857 47.3164 23.8782C47.2839 23.8682 47.2464 23.8657 47.2089 23.8707Z" fill="black"/>
<path d="M47.7513 27.1647L46.4442 27.1098L46.4142 27.827L46.2517 27.8195L46.2892 26.9248L47.7588 26.9848L47.7513 27.1647Z" fill="black"/>
<path d="M46.1893 28.6267L47.5589 29.4265L47.5364 29.5789L45.9968 29.9638L46.0243 29.7714L46.4867 29.6589L46.5742 29.0516L46.1618 28.8167L46.1893 28.6267ZM47.3214 29.469C47.149 29.379 46.994 29.294 46.8541 29.2115L46.7241 29.1366L46.6566 29.6189L46.8016 29.5839C46.9615 29.5464 47.134 29.509 47.3214 29.4715V29.4665V29.469Z" fill="black"/>
<path d="M46.3565 31.1837L45.7667 31.0338L45.8117 30.8613L47.2363 31.2212L47.1438 31.5911C47.1288 31.6536 47.1113 31.7061 47.0963 31.7486C47.0813 31.7911 47.0638 31.8285 47.0438 31.8635C46.9914 31.956 46.9264 32.021 46.8489 32.056C46.7714 32.091 46.6839 32.0985 46.5865 32.0735C46.529 32.0585 46.479 32.036 46.439 32.006C46.399 31.976 46.3665 31.941 46.3415 31.8985C46.3165 31.856 46.299 31.8111 46.2891 31.7586C46.2791 31.7061 46.2766 31.6511 46.2816 31.5911H46.2766L45.5618 31.8585L45.6068 31.6861L46.3065 31.3962L46.359 31.1862L46.3565 31.1837ZM47.0363 31.3537L46.514 31.2212L46.4715 31.3937C46.459 31.4462 46.449 31.4936 46.4415 31.5311C46.4365 31.5686 46.434 31.6061 46.434 31.6361C46.4365 31.7011 46.454 31.7561 46.4865 31.7986C46.519 31.841 46.5665 31.871 46.634 31.8885C46.6964 31.9035 46.7489 31.901 46.7939 31.8785C46.8389 31.8585 46.8764 31.8211 46.9064 31.7711C46.9214 31.7486 46.9339 31.7186 46.9464 31.6836C46.9589 31.6486 46.9714 31.6036 46.9864 31.5486L47.0363 31.3512V31.3537Z" fill="black"/>
<path d="M45.4894 33.9103L45.6069 33.5954L45.7593 33.6503L45.5819 34.1327L44.9146 33.8853C44.9146 33.8678 44.9146 33.8428 44.9146 33.8128C44.9146 33.7828 44.9221 33.7478 44.9271 33.7103C44.9345 33.6728 44.942 33.6328 44.952 33.5904C44.962 33.5479 44.977 33.5079 44.9895 33.4679C45.0345 33.3504 45.087 33.2505 45.1545 33.173C45.2195 33.0955 45.2944 33.0355 45.3744 32.9955C45.4569 32.9555 45.5444 32.9355 45.6418 32.9355C45.7393 32.9355 45.8368 32.9555 45.9418 32.993C46.0542 33.0355 46.1492 33.0905 46.2292 33.158C46.3092 33.2255 46.3691 33.3054 46.4091 33.3954C46.4491 33.4854 46.4716 33.5829 46.4716 33.6903C46.4716 33.7953 46.4516 33.9053 46.4116 34.0177C46.4016 34.0477 46.3891 34.0777 46.3741 34.1077C46.3616 34.1377 46.3466 34.1652 46.3316 34.1902C46.3166 34.2152 46.3017 34.2402 46.2867 34.2602C46.2717 34.2802 46.2592 34.2977 46.2442 34.3126L46.0967 34.2577C46.1267 34.2227 46.1542 34.1777 46.1842 34.1277C46.2142 34.0777 46.2367 34.0252 46.2567 33.9727C46.2867 33.8953 46.3016 33.8153 46.3041 33.7353C46.3066 33.6553 46.2942 33.5804 46.2667 33.5079C46.2392 33.4354 46.1942 33.3704 46.1342 33.3104C46.0742 33.2505 45.9942 33.203 45.8968 33.168C45.8018 33.133 45.7143 33.1155 45.6343 33.1155C45.5544 33.1155 45.4844 33.133 45.4194 33.1655C45.3569 33.198 45.2994 33.2455 45.252 33.3054C45.2045 33.3679 45.1645 33.4404 45.132 33.5279C45.117 33.5679 45.1045 33.6079 45.0945 33.6478C45.0845 33.6878 45.077 33.7253 45.0745 33.7578L45.4844 33.9103H45.4894Z" fill="black"/>
<path d="M44.5145 35.0625L44.1796 35.7373L44.0347 35.6648L44.4495 34.8301L45.7667 35.4824L45.3718 36.2822L45.2268 36.2097L45.5442 35.5699L45.1194 35.3599L44.8369 35.9273L44.692 35.8548L44.9744 35.2874L44.517 35.06L44.5145 35.0625Z" fill="black"/>
<path d="M43.6623 38.784C43.7098 38.7166 43.7423 38.6466 43.7623 38.5741C43.7823 38.5016 43.7872 38.4266 43.7747 38.3542C43.7623 38.2817 43.7348 38.2117 43.6898 38.1417C43.6448 38.0717 43.5798 38.0093 43.4973 37.9493C43.4149 37.8918 43.3349 37.8518 43.2574 37.8318C43.1799 37.8118 43.1074 37.8093 43.0375 37.8243C42.9675 37.8393 42.9025 37.8693 42.84 37.9143C42.7775 37.9593 42.7226 38.0193 42.6701 38.0942C42.6551 38.1142 42.6426 38.1367 42.6276 38.1592C42.6126 38.1817 42.6001 38.2067 42.5876 38.2342C42.5751 38.2592 42.5651 38.2842 42.5551 38.3092C42.5451 38.3342 42.5376 38.3567 42.5301 38.3791L42.4001 38.2892C42.4101 38.2442 42.4301 38.1967 42.4551 38.1442C42.4801 38.0917 42.5101 38.0417 42.5451 37.9918C42.6151 37.8918 42.6926 37.8143 42.775 37.7568C42.8575 37.6993 42.9425 37.6619 43.0325 37.6469C43.1224 37.6319 43.2124 37.6369 43.3074 37.6619C43.4024 37.6869 43.4948 37.7343 43.5923 37.8018C43.6848 37.8668 43.7623 37.9418 43.8197 38.0268C43.8772 38.1092 43.9172 38.1992 43.9347 38.2917C43.9522 38.3842 43.9522 38.4816 43.9297 38.5791C43.9072 38.6766 43.8622 38.774 43.7947 38.869C43.7773 38.894 43.7573 38.919 43.7398 38.9415C43.7223 38.964 43.6998 38.9865 43.6823 39.0065C43.6623 39.0265 43.6423 39.044 43.6248 39.059C43.6048 39.0739 43.5873 39.0864 43.5723 39.0964L43.4423 39.0065C43.4798 38.979 43.5173 38.9465 43.5573 38.909C43.5973 38.8715 43.6298 38.8315 43.6623 38.7865V38.784Z" fill="black"/>
<path d="M41.878 38.9312L42.5903 40.3482L42.4878 40.4657L40.9883 39.9484L41.1157 39.8009L41.5656 39.9609L41.9705 39.4985L41.7531 39.0761L41.8805 38.9312H41.878ZM42.3679 40.2558C42.2729 40.0858 42.1904 39.9284 42.1155 39.7859L42.048 39.6534L41.7281 40.0208L41.868 40.0708C42.023 40.1258 42.1879 40.1883 42.3654 40.2608H42.3679V40.2558Z" fill="black"/>
<path d="M40.2134 40.7184L40.3433 40.5959L41.3431 41.6731L41.0456 41.9506C41.0007 41.993 40.9582 42.028 40.9157 42.058C40.8732 42.088 40.8307 42.1105 40.7882 42.1305C40.7032 42.168 40.6208 42.178 40.5458 42.163C40.4708 42.148 40.4008 42.108 40.3383 42.0405C40.2884 41.9855 40.2534 41.9281 40.2359 41.8656C40.2184 41.8031 40.2184 41.7406 40.2359 41.6731C40.2509 41.6082 40.2809 41.5382 40.3284 41.4707C40.3733 41.4007 40.4358 41.3307 40.5108 41.2633C40.5458 41.2308 40.5858 41.1958 40.6258 41.1633L40.2134 40.7209V40.7184ZM40.7357 41.2808C40.7157 41.2957 40.6957 41.3107 40.6757 41.3282C40.6558 41.3457 40.6358 41.3607 40.6208 41.3782C40.5583 41.4357 40.5108 41.4882 40.4758 41.5382C40.4408 41.5882 40.4183 41.6356 40.4083 41.6781C40.3983 41.7231 40.3983 41.7631 40.4108 41.8006C40.4233 41.8381 40.4458 41.8756 40.4758 41.9081C40.5158 41.9506 40.5558 41.9756 40.6008 41.983C40.6458 41.9905 40.6932 41.983 40.7432 41.9656C40.7732 41.9531 40.8057 41.9331 40.8407 41.9106C40.8757 41.8881 40.9107 41.8556 40.9507 41.8181L41.1031 41.6756L40.7357 41.2808Z" fill="black"/>
<path d="M12.5613 24.6553C12.2564 24.5378 11.8715 24.4829 11.6516 24.2354C11.4991 24.0605 11.5516 23.7506 11.7391 23.6131C11.9765 23.4232 12.3539 23.4457 12.6513 23.5706C12.7688 23.6181 12.8837 23.6856 13.0012 23.7731C13.0637 23.8206 13.1536 23.8006 13.1886 23.7281L13.641 22.7859C13.6685 22.7259 13.646 22.6534 13.5885 22.6234C13.3461 22.4959 13.0937 22.396 12.8337 22.326C12.0515 22.1085 11.1492 22.151 10.5744 22.7384C10.062 23.2382 9.91709 24.2104 10.1845 24.8553C10.3495 25.2276 10.6344 25.4701 10.9993 25.625C11.2917 25.75 11.6716 25.8675 11.9465 25.9874C12.2089 26.0949 12.4139 26.2524 12.4064 26.5473C12.3939 26.9047 12.1015 27.1171 11.7091 27.1071C11.5041 27.1071 11.2942 27.0596 11.0842 26.9596C10.9118 26.8797 10.7393 26.7647 10.5644 26.6147C10.5019 26.5623 10.4094 26.5798 10.372 26.6522L9.8746 27.6395C9.84711 27.6944 9.8621 27.7619 9.91459 27.7969C10.4869 28.1968 11.1067 28.3967 11.7741 28.3967C12.3764 28.3967 12.9412 28.2368 13.3561 27.8469C14.0059 27.2596 14.1134 25.9874 13.591 25.3176C13.3736 25.0402 13.0287 24.8178 12.5588 24.6528L12.5613 24.6553ZM36.3495 26.3998C36.0096 25.705 35.6722 25.0102 35.3298 24.3154C35.3098 24.2729 35.2648 24.2454 35.2173 24.2454C34.4175 24.2454 33.6178 24.2454 32.8205 24.2479C32.753 24.2479 32.6955 24.3029 32.6955 24.3729V24.4779C32.6955 24.5828 32.5731 24.6403 32.4931 24.5728C32.2307 24.3554 31.9232 24.2429 31.5733 24.2429C31.2984 24.2429 31.046 24.2979 30.8136 24.4104C30.5811 24.5229 30.3812 24.6753 30.2112 24.8678C30.0413 25.0627 29.9088 25.2901 29.8113 25.5526C29.7889 25.615 29.7664 25.68 29.7489 25.745C29.7314 25.6725 29.7114 25.6025 29.6889 25.5351C29.5964 25.2576 29.4615 25.0227 29.284 24.8303C28.8991 24.4129 28.3643 24.2404 27.7794 24.2404C27.1921 24.2404 26.6448 24.4154 26.2524 24.8228C26.2424 24.8328 26.2349 24.8428 26.2249 24.8503C26.1474 24.9327 26.0099 24.8777 26.0099 24.7653V24.3629C26.0099 24.2954 25.955 24.2379 25.885 24.2379H25.3776C25.3101 24.2379 25.2527 24.183 25.2527 24.113V23.1632C25.2527 23.0958 25.1977 23.0383 25.1277 23.0383H24.048C23.9805 23.0383 23.923 23.0933 23.923 23.1632V24.113C23.923 24.1805 23.8681 24.2379 23.7981 24.2379H22.0686C22.0011 24.2379 21.9436 24.2929 21.9436 24.3629V24.4704C21.9436 24.5753 21.8237 24.6328 21.7437 24.5678C21.4713 24.3479 21.1513 24.2379 20.7765 24.2379C20.499 24.2379 20.2441 24.2929 20.0142 24.4054C19.7842 24.5179 19.5868 24.6678 19.4193 24.8603C19.4019 24.8802 19.3869 24.9002 19.3694 24.9202C19.2969 25.0102 19.1494 24.9577 19.1494 24.8403V24.2754C19.1494 24.2079 19.0969 24.153 19.0295 24.1505C19.022 24.1505 19.0145 24.1505 19.007 24.1505H18.892C18.6171 24.1505 18.3796 24.2129 18.1722 24.3404C18.0597 24.4104 17.9573 24.4954 17.8648 24.5978C17.7898 24.6803 17.6499 24.6253 17.6499 24.5129V24.3604C17.6499 24.2929 17.5949 24.2354 17.5249 24.2354H15.8029C15.7354 24.2354 15.6779 24.1805 15.6779 24.1105V23.1607C15.6779 23.0933 15.6229 23.0358 15.553 23.0358H14.4733C14.4058 23.0358 14.3483 23.0908 14.3483 23.1607V24.1105C14.3483 24.178 14.2933 24.2354 14.2233 24.2354H14.0309C13.9634 24.2354 13.9059 24.2904 13.9059 24.3604V25.2851C13.9059 25.3526 13.9609 25.4101 14.0309 25.4101H14.2233C14.2908 25.4101 14.3483 25.4651 14.3483 25.5351V28.2268C14.3483 28.2943 14.4033 28.3517 14.4733 28.3517H15.553C15.6204 28.3517 15.6779 28.2968 15.6779 28.2268V25.5351C15.6779 25.4676 15.7329 25.4101 15.8029 25.4101H16.1978C16.2653 25.4101 16.3227 25.4651 16.3227 25.5351V28.2268C16.3227 28.2943 16.3777 28.3517 16.4477 28.3517H17.5274C17.5949 28.3517 17.6524 28.2968 17.6524 28.2268V26.5173C17.6524 26.1449 17.7298 25.86 17.8823 25.665C18.0347 25.4701 18.2672 25.3726 18.5746 25.3726C18.7445 25.3726 18.902 25.4051 19.052 25.4676C19.042 25.4876 19.0345 25.5101 19.027 25.5326C18.9345 25.7875 18.887 26.0599 18.887 26.3448C18.887 26.6497 18.9345 26.9322 19.0295 27.1921C19.2119 27.6894 19.5568 28.0968 20.0317 28.3143C20.2616 28.4217 20.514 28.4742 20.7889 28.4742C21.1638 28.4742 21.4787 28.3617 21.7337 28.1343C21.8137 28.0618 21.9411 28.1193 21.9411 28.2268C21.9411 28.2943 21.9961 28.3517 22.0661 28.3517H23.1533C23.2208 28.3517 23.2782 28.2968 23.2782 28.2268V25.5351C23.2782 25.4676 23.3332 25.4101 23.4032 25.4101H23.7981C23.8656 25.4101 23.923 25.4651 23.923 25.5351V28.2268C23.923 28.2943 23.978 28.3517 24.048 28.3517H25.1277C25.1952 28.3517 25.2527 28.2968 25.2527 28.2268V25.5351C25.2527 25.4676 25.3076 25.4101 25.3776 25.4101H25.8675C25.855 25.4401 25.8425 25.4701 25.8325 25.5001C25.735 25.7675 25.685 26.0649 25.685 26.3973C25.685 26.7297 25.735 27.0096 25.8375 27.2671C25.94 27.527 26.0849 27.7494 26.2749 27.9344C26.4648 28.1218 26.6897 28.2643 26.9547 28.3667C27.2196 28.4667 27.5095 28.5167 27.8269 28.5167C28.8641 28.5167 29.5139 28.0618 29.7739 27.1471C29.7814 27.1696 29.7889 27.1921 29.7964 27.2121C29.8863 27.457 30.0138 27.6694 30.1787 27.8444C30.5211 28.2093 30.991 28.4067 31.5059 28.4042C31.8458 28.4092 32.1407 28.3268 32.4131 28.1293C32.4406 28.1093 32.4656 28.0893 32.4931 28.0693C32.5756 28.0043 32.6955 28.0618 32.6955 28.1668V28.2668C32.6955 28.5617 32.6205 28.7941 32.4731 28.9591C32.3231 29.124 32.1082 29.2065 31.8308 29.2065C31.5334 29.2065 31.3334 29.0965 31.2284 28.8816C31.2084 28.8391 31.1635 28.8116 31.116 28.8116H29.8563C29.7764 28.8116 29.7139 28.8891 29.7364 28.9666C29.7814 29.1265 29.8463 29.274 29.9363 29.4139C30.866 30.8935 33.8377 30.5686 33.9901 28.6567C34.0151 28.4817 34.0276 28.2818 34.0276 28.0568V25.2651C34.0276 25.1352 34.2001 25.0927 34.2626 25.2077L35.5947 27.7269C35.6147 27.7619 35.6147 27.8044 35.5947 27.8419L34.43 30.1387C34.3875 30.2212 34.4475 30.3187 34.54 30.3187H35.7521C35.7996 30.3187 35.8421 30.2912 35.8621 30.2512C36.8468 28.3043 37.829 26.3573 38.8138 24.4104C38.8562 24.3279 38.7963 24.2304 38.7038 24.2304H37.4491C37.4017 24.2304 37.3567 24.2579 37.3367 24.3004C37.0068 24.9952 36.6769 25.69 36.3495 26.3848H36.347L36.3495 26.3998ZM21.9261 26.7172C21.7962 27.0371 21.4887 27.2746 21.1364 27.2696C20.644 27.2821 20.2641 26.8322 20.2766 26.3523C20.2691 25.88 20.654 25.4476 21.1364 25.4601C21.7562 25.4451 22.1686 26.1749 21.9261 26.7172ZM27.3171 25.3251C27.447 25.2102 27.6145 25.1552 27.8194 25.1552C28.0244 25.1552 28.1818 25.2152 28.3193 25.3326C28.4142 25.4151 28.4867 25.5176 28.5367 25.635C28.5717 25.715 28.5092 25.805 28.4217 25.805H27.2296C27.1446 25.805 27.0846 25.72 27.1121 25.64C27.1571 25.5101 27.2246 25.4051 27.3171 25.3226V25.3251ZM28.4942 27.1596C28.3468 27.407 28.1293 27.532 27.8394 27.532C27.3421 27.532 27.0746 27.2721 27.0371 26.7547C27.0321 26.6822 27.0896 26.6222 27.1621 26.6222H29.5614C29.6239 26.6222 29.6764 26.6672 29.6839 26.7297C29.6964 26.8247 29.7114 26.9147 29.7339 27.0021C29.7539 27.0821 29.6964 27.1571 29.6139 27.1571H28.4942V27.1596ZM32.6955 26.6897C32.5681 27.0146 32.2606 27.2496 31.9057 27.2446C31.4134 27.2571 31.0335 26.8072 31.046 26.3273C31.0385 25.8575 31.4334 25.4276 31.9057 25.4276C32.3856 25.4251 32.773 25.865 32.7655 26.3373C32.7655 26.4648 32.743 26.5798 32.6955 26.6897ZM41.9379 24.4904C41.8279 24.3504 41.6854 24.2579 41.5155 24.1979C41.428 24.1655 41.4055 24.0555 41.473 23.9905C41.5405 23.9255 41.5879 23.8605 41.6279 23.7881C41.8329 23.4207 41.7629 22.7359 41.448 22.4809C41.358 22.3985 41.2506 22.3335 41.1231 22.2885C41.0731 22.271 41.0431 22.2235 41.0431 22.1735V21.7736C41.0431 21.7062 40.9881 21.6487 40.9181 21.6487H40.5657C40.4983 21.6487 40.4408 21.7037 40.4408 21.7736V22.0836C40.4408 22.151 40.3858 22.2085 40.3158 22.2085H40.1809C40.1134 22.2085 40.0559 22.1535 40.0559 22.0836V21.7736C40.0559 21.7062 40.0009 21.6487 39.9309 21.6487H39.5785C39.5111 21.6487 39.4536 21.7037 39.4536 21.7736V22.0836C39.4536 22.151 39.3986 22.2085 39.3286 22.2085H39.1062C39.0387 22.2085 38.9812 22.2635 38.9812 22.3335V26.2124C38.9812 26.2798 39.0362 26.3373 39.1062 26.3373H39.3286C39.3961 26.3373 39.4536 26.3923 39.4536 26.4623V26.7997C39.4536 26.8672 39.5086 26.9247 39.5785 26.9247H39.9309C39.9984 26.9247 40.0559 26.8697 40.0559 26.7997V26.4623C40.0559 26.3948 40.1109 26.3373 40.1809 26.3373H40.3158C40.3833 26.3373 40.4408 26.3923 40.4408 26.4623V26.7997C40.4408 26.8672 40.4958 26.9247 40.5657 26.9247H40.9181C40.9856 26.9247 41.0431 26.8697 41.0431 26.7997V26.4198C41.0431 26.3598 41.0856 26.3098 41.1431 26.2973C41.1981 26.2873 41.2505 26.2748 41.3005 26.2599C42.0603 26.0824 42.3702 25.1202 41.9403 24.4929L41.9379 24.4904ZM40.8532 23.3882C40.8532 23.6906 40.6632 23.843 40.2808 23.843H40.1809C40.1134 23.843 40.0559 23.7881 40.0559 23.7181V23.0558C40.0559 22.9883 40.1109 22.9308 40.1809 22.9308H40.2808C40.6632 22.9308 40.8532 23.0808 40.8532 23.3857V23.3882ZM40.8707 25.3976C40.7582 25.4826 40.4308 25.5026 40.1784 25.5026C40.1109 25.5026 40.0534 25.4476 40.0534 25.3776V24.7453C40.0534 24.6778 40.1084 24.6203 40.1784 24.6203C40.4283 24.6203 40.7582 24.6403 40.8707 24.7253C41.1056 24.8478 41.1056 25.2726 40.8707 25.3926V25.3976Z" fill="black"/>
</svg>
