<svg width="52" height="52" viewBox="0 0 52 52" fill="none" xmlns="http://www.w3.org/2000/svg">
<path d="M25.9997 52C40.3591 52 51.9998 40.3594 51.9998 26C51.9998 11.6406 40.3591 0 25.9997 0C11.6403 0 -0.000244141 11.6406 -0.000244141 26C-0.000244141 40.3594 11.6403 52 25.9997 52Z" fill="white"/>
<path d="M25.9997 44.1522C15.99 44.1522 7.84741 36.0095 7.84741 25.9999C7.84741 15.9903 15.99 7.84766 25.9997 7.84766C36.0093 7.84766 44.152 15.9903 44.152 25.9999C44.152 36.0095 36.0093 44.1522 25.9997 44.1522ZM25.9997 8.35251C16.27 8.35251 8.35227 16.2677 8.35227 25.9999C8.35227 35.7321 16.27 43.6473 25.9997 43.6473C35.7294 43.6473 43.6471 35.7296 43.6471 25.9999C43.6471 16.2702 35.7294 8.35251 25.9997 8.35251Z" fill="#FBC015"/>
<path d="M25.9993 50.6203C22.6777 50.6203 19.4537 49.968 16.4146 48.6834C13.4829 47.4437 10.8486 45.6693 8.5918 43.4099C6.33245 41.1506 4.55793 38.5188 3.31829 35.5872C2.03366 32.548 1.38135 29.3215 1.38135 26.0024C1.38135 22.6834 2.03366 19.4568 3.31829 16.4177C4.55793 13.486 6.33245 10.8518 8.5918 8.59494C10.8511 6.33559 13.4829 4.56111 16.4146 3.32146C19.4537 2.03683 22.6802 1.38452 25.9993 1.38452C29.3183 1.38452 32.5449 2.03683 35.584 3.32146C38.5157 4.56111 41.1499 6.33559 43.4068 8.59494C45.6661 10.8543 47.4406 13.486 48.6802 16.4177C49.9649 19.4568 50.6172 22.6834 50.6172 26.0024C50.6172 29.3215 49.9649 32.548 48.6802 35.5872C47.4406 38.5188 45.6661 41.1531 43.4068 43.4099C41.1474 45.6693 38.5157 47.4437 35.584 48.6834C32.5449 49.968 29.3183 50.6203 25.9993 50.6203ZM25.9993 1.74692C22.7277 1.74692 19.5512 2.38923 16.557 3.65637C13.6679 4.87851 11.0761 6.62551 8.84923 8.84987C6.62487 11.0742 4.87537 13.6685 3.65572 16.5576C2.38858 19.5518 1.74629 22.7284 1.74629 25.9999C1.74629 29.2715 2.38858 32.4481 3.65572 35.4422C4.87787 38.3314 6.62487 40.9231 8.84923 43.15C11.0736 45.3743 13.6679 47.1238 16.557 48.3435C19.5512 49.6106 22.7277 50.2529 25.9993 50.2529C29.2708 50.2529 32.4474 49.6106 35.4416 48.3435C38.3307 47.1213 40.9225 45.3743 43.1494 43.15C45.3737 40.9256 47.1232 38.3314 48.3429 35.4422C49.61 32.4481 50.2523 29.2715 50.2523 25.9999C50.2523 22.7284 49.61 19.5518 48.3429 16.5576C47.1207 13.6685 45.3737 11.0767 43.1494 8.84987C40.925 6.62301 38.3307 4.87601 35.4416 3.65637C32.4474 2.38923 29.2708 1.74692 25.9993 1.74692Z" fill="#FBC015"/>
<path d="M8.78753 13.7959C8.92499 13.8808 9.04244 13.9808 9.14241 14.0908C9.24238 14.2008 9.3174 14.3207 9.37238 14.4482C9.42487 14.5781 9.45483 14.7156 9.46232 14.8631C9.46732 15.0105 9.44733 15.163 9.39984 15.3254C9.37235 15.4179 9.33487 15.5129 9.28488 15.6103C9.2349 15.7078 9.17743 15.8078 9.11245 15.9153L8.77752 16.4476L6.42822 14.968L6.76559 14.4307C6.83307 14.3232 6.90056 14.2282 6.96554 14.1433C7.03053 14.0583 7.10052 13.9833 7.173 13.9183C7.29797 13.8059 7.42794 13.7209 7.5604 13.6609C7.69287 13.6009 7.8278 13.5684 7.96526 13.5609C8.10272 13.5534 8.24021 13.5684 8.37767 13.6109C8.51513 13.6534 8.65257 13.7159 8.79003 13.8009L8.78753 13.7959ZM8.60759 14.0808C8.38265 13.9383 8.1677 13.8733 7.96275 13.8833C7.76031 13.8933 7.57036 13.9758 7.39541 14.1233C7.32793 14.1808 7.26294 14.2507 7.20046 14.3332C7.13798 14.4157 7.07055 14.5132 7.00057 14.6231L6.8631 14.8431L8.69503 15.9977L8.8325 15.7778C8.90248 15.6678 8.95995 15.5654 9.00744 15.4729C9.05492 15.3804 9.08995 15.2904 9.11245 15.2055C9.17243 14.983 9.1599 14.7756 9.07492 14.5831C8.99245 14.3907 8.83502 14.2232 8.60759 14.0808Z" fill="#1434CB"/>
<path d="M11.1492 13.1061L9.06982 11.2666L9.2948 11.0142L11.3742 12.8536L11.1492 13.1061Z" fill="#1434CB"/>
<path d="M13.4286 9.42708L12.9388 9.82697L12.7463 9.58953L13.4986 8.97471L14.3484 10.0144C14.3359 10.0444 14.3134 10.0844 14.2784 10.1319C14.2459 10.1794 14.2059 10.2318 14.1584 10.2868C14.1109 10.3418 14.0585 10.3993 14.001 10.4593C13.9435 10.5168 13.881 10.5718 13.821 10.6242C13.636 10.7742 13.4536 10.8817 13.2712 10.9466C13.0887 11.0116 12.9138 11.0366 12.7413 11.0216C12.5689 11.0066 12.4064 10.9541 12.249 10.8642C12.0915 10.7742 11.9466 10.6467 11.8141 10.4843C11.6717 10.3093 11.5666 10.1269 11.5041 9.93943C11.4417 9.75199 11.4192 9.56454 11.4392 9.37959C11.4592 9.19465 11.5192 9.0147 11.6167 8.83975C11.7166 8.6648 11.8541 8.50735 12.029 8.36489C12.0765 8.3274 12.124 8.28991 12.174 8.25492C12.224 8.21993 12.2739 8.18994 12.3214 8.15995C12.3689 8.13245 12.4164 8.10746 12.4614 8.08747C12.5064 8.06747 12.5439 8.05248 12.5789 8.04248L12.7688 8.27241C12.6863 8.30241 12.5988 8.34489 12.5039 8.39988C12.4089 8.45236 12.319 8.51484 12.2365 8.58232C12.114 8.6823 12.0141 8.79476 11.9316 8.92473C11.8516 9.05219 11.7991 9.18715 11.7766 9.33211C11.7541 9.47707 11.7616 9.62452 11.8041 9.77948C11.8466 9.93444 11.9291 10.0869 12.054 10.2393C12.1765 10.3893 12.3015 10.4993 12.4314 10.5743C12.5614 10.6492 12.6938 10.6892 12.8288 10.6967C12.9637 10.7042 13.0987 10.6817 13.2362 10.6267C13.3737 10.5718 13.5086 10.4893 13.641 10.3793C13.7035 10.3293 13.761 10.2743 13.816 10.2194C13.871 10.1644 13.916 10.1119 13.9535 10.0619L13.4311 9.42208L13.4286 9.42708Z" fill="#1434CB"/>
<path d="M16.0404 9.03983L14.6533 6.63553L14.9457 6.46558L16.3328 8.86988L16.0404 9.03983Z" fill="#1434CB"/>
<path d="M19.0018 7.61507L18.687 7.73754L17.7872 5.4357L16.9225 5.77311L16.8125 5.48819L18.8544 4.69092L18.9643 4.97584L18.0996 5.31324L18.9994 7.61507H19.0018Z" fill="#1434CB"/>
<path d="M20.9864 6.9353L21.5687 3.99615L21.8561 3.94116L23.4932 6.45044L23.1332 6.52042L22.6484 5.76314L21.5087 5.98307L21.3413 6.86782L20.9839 6.9378L20.9864 6.9353ZM21.7911 4.39353C21.7362 4.75593 21.6787 5.08583 21.6212 5.38575L21.5687 5.66317L22.4709 5.48822L22.3185 5.25078C22.151 4.99086 21.9786 4.70344 21.7987 4.39103H21.7911V4.39353Z" fill="#1434CB"/>
<path d="M25.4453 3.56616L25.4853 6.03795L26.8399 6.01546L26.8449 6.32037L25.1529 6.34786L25.1079 3.57366L25.4453 3.56866V3.56616Z" fill="#1434CB"/>
<path d="M30.251 6.75294L32.108 4.40112L32.3879 4.4836L32.7028 7.46524L32.3504 7.36277L32.2654 6.46803L31.1507 6.14562L30.6009 6.85542L30.2535 6.75544L30.251 6.75294ZM32.1254 4.85599C31.9105 5.15341 31.7106 5.42083 31.5231 5.66326L31.3507 5.88569L32.2355 6.14062L32.2079 5.8607C32.1779 5.55329 32.1554 5.21839 32.1354 4.85849H32.1279L32.1254 4.85599Z" fill="#1434CB"/>
<path d="M35.4072 6.42546C35.3697 6.49794 35.3547 6.56542 35.3597 6.6279C35.3647 6.69039 35.3847 6.75037 35.4172 6.80535C35.4522 6.86284 35.4947 6.91532 35.5522 6.9703C35.6071 7.02279 35.6671 7.07777 35.7296 7.13026C35.8121 7.20274 35.8945 7.27772 35.972 7.35269C36.0495 7.42767 36.112 7.51015 36.1595 7.59762C36.207 7.6851 36.232 7.78007 36.2345 7.88254C36.237 7.98501 36.2069 8.09998 36.1445 8.22494C36.0795 8.35241 35.997 8.44988 35.902 8.51986C35.8046 8.58734 35.6996 8.62983 35.5821 8.64482C35.4672 8.65982 35.3422 8.65232 35.2097 8.62233C35.0773 8.59234 34.9423 8.53985 34.8049 8.46987C34.7399 8.43738 34.6774 8.39989 34.6149 8.3574C34.5525 8.31492 34.4924 8.27243 34.4399 8.22744C34.385 8.18245 34.34 8.13997 34.2975 8.09748C34.2575 8.05499 34.2275 8.0175 34.2075 7.98501L34.3475 7.71009C34.38 7.75508 34.42 7.80007 34.465 7.84755C34.5099 7.89504 34.5599 7.94003 34.6124 7.98251C34.6649 8.025 34.7199 8.06749 34.7749 8.10498C34.8323 8.14247 34.8873 8.17496 34.9398 8.20245C35.0248 8.24744 35.1122 8.28243 35.1972 8.30742C35.2822 8.33241 35.3647 8.34241 35.4396 8.33991C35.5171 8.33491 35.5871 8.31242 35.6521 8.26993C35.7171 8.22744 35.7721 8.16246 35.8195 8.07249C35.857 7.99751 35.8746 7.93003 35.8671 7.86755C35.8596 7.80506 35.8421 7.74258 35.8071 7.6876C35.7721 7.63011 35.7271 7.57513 35.6721 7.52265C35.6171 7.47016 35.5572 7.41518 35.4922 7.36019C35.4072 7.28771 35.3272 7.21523 35.2497 7.14026C35.1722 7.06528 35.1097 6.9853 35.0623 6.89783C35.0148 6.81285 34.9898 6.71788 34.9873 6.61791C34.9823 6.51794 35.0123 6.40797 35.0748 6.288C35.1397 6.16304 35.2172 6.06557 35.3097 6.00058C35.4022 5.9356 35.5022 5.89062 35.6121 5.87312C35.7221 5.85313 35.8345 5.85813 35.9495 5.88062C36.067 5.90561 36.182 5.9456 36.2969 6.00558C36.4294 6.07306 36.5443 6.14804 36.6468 6.23302C36.7468 6.31549 36.8343 6.40297 36.9093 6.49294L36.7668 6.77286C36.6868 6.67789 36.5993 6.58792 36.5043 6.50544C36.4094 6.42296 36.2994 6.34798 36.177 6.283C36.0845 6.23552 35.997 6.20303 35.917 6.18803C35.8371 6.17303 35.7646 6.17303 35.6996 6.18803C35.6346 6.20303 35.5771 6.23052 35.5271 6.27301C35.4772 6.31549 35.4347 6.36798 35.4022 6.43296L35.4072 6.42546Z" fill="#1434CB"/>
<path d="M38.7938 8.45235C38.7438 8.51733 38.7163 8.57982 38.7088 8.6423C38.7013 8.70478 38.7088 8.76726 38.7338 8.82724C38.7563 8.88973 38.7912 8.94971 38.8362 9.01469C38.8812 9.07717 38.9287 9.13965 38.9812 9.20464C39.0512 9.29211 39.1162 9.37958 39.1787 9.46706C39.2411 9.55703 39.2886 9.64701 39.3186 9.74198C39.3486 9.83695 39.3561 9.93442 39.3411 10.0369C39.3261 10.1394 39.2761 10.2468 39.1886 10.3568C39.1011 10.4718 39.0037 10.5517 38.8962 10.6017C38.7887 10.6517 38.6763 10.6742 38.5613 10.6667C38.4438 10.6617 38.3239 10.6317 38.1989 10.5767C38.0739 10.5218 37.9515 10.4468 37.8265 10.3518C37.769 10.3068 37.7141 10.2593 37.6591 10.2068C37.6041 10.1544 37.5541 10.0994 37.5091 10.0469C37.4641 9.99441 37.4266 9.94192 37.3941 9.89194C37.3617 9.84195 37.3392 9.80196 37.3267 9.76697L37.5141 9.52204C37.5391 9.57203 37.5691 9.62451 37.6066 9.6795C37.6441 9.73448 37.6841 9.78697 37.7266 9.83945C37.7716 9.89194 37.8166 9.94192 37.864 9.98941C37.9115 10.0369 37.9615 10.0794 38.009 10.1144C38.0864 10.1744 38.164 10.2243 38.2439 10.2643C38.3239 10.3043 38.4014 10.3293 38.4789 10.3393C38.5538 10.3493 38.6288 10.3393 38.7013 10.3093C38.7737 10.2793 38.8387 10.2243 38.9012 10.1444C38.9512 10.0794 38.9812 10.0144 38.9862 9.94942C38.9912 9.88444 38.9837 9.82196 38.9612 9.75947C38.9387 9.69699 38.9037 9.63451 38.8588 9.57203C38.8138 9.50955 38.7638 9.44457 38.7113 9.37958C38.6413 9.29461 38.5738 9.20713 38.5113 9.11966C38.4488 9.03218 38.4013 8.94221 38.3713 8.84974C38.3414 8.75726 38.3339 8.65979 38.3464 8.56232C38.3589 8.46485 38.4089 8.35988 38.4914 8.25241C38.5763 8.13994 38.6713 8.05996 38.7738 8.00998C38.8762 7.95999 38.9837 7.9375 39.0937 7.9375C39.2036 7.9375 39.3136 7.96249 39.4236 8.00748C39.5336 8.05247 39.641 8.11495 39.7435 8.19493C39.861 8.2849 39.9609 8.37987 40.0459 8.47984C40.1309 8.57981 40.2008 8.68229 40.2558 8.78226L40.0659 9.02969C40.0034 8.92222 39.9334 8.81725 39.856 8.71977C39.7785 8.6223 39.6835 8.52983 39.5735 8.44235C39.491 8.37737 39.4111 8.33239 39.3361 8.3024C39.2611 8.2724 39.1911 8.25991 39.1236 8.26241C39.0561 8.26241 38.9962 8.2824 38.9387 8.31489C38.8812 8.34738 38.8312 8.39237 38.7863 8.44985L38.7938 8.45235Z" fill="#1434CB"/>
<path d="M40.511 12.2714L41.4632 13.3286L41.2358 13.5335L40.0562 12.2264L42.1181 10.3669L43.2452 11.6166L43.0178 11.8215L42.1156 10.8218L41.4507 11.4216L42.253 12.3114L42.0256 12.5163L41.2233 11.6266L40.506 12.2739L40.511 12.2714Z" fill="#1434CB"/>
<path d="M42.8449 15.8452L42.6675 15.5578L44.7719 14.2632L44.2845 13.4734L44.5444 13.3135L45.6941 15.1804L45.4341 15.3404L44.9468 14.5506L42.8424 15.8452H42.8449Z" fill="#1434CB"/>
<path d="M25.5898 48.2235C25.6498 48.0535 25.6948 47.9336 25.7198 47.8611C25.7473 47.7886 25.8022 47.6412 25.8897 47.4187L26.4946 45.8717L27.0994 45.8817L25.8247 48.9933L25.3099 48.9858L24.1377 45.8367L24.7476 45.8467L25.3024 47.4112C25.3824 47.6362 25.4323 47.7861 25.4573 47.8586C25.4823 47.9311 25.5223 48.0535 25.5773 48.2235H25.5873H25.5898Z" fill="#1434CB"/>
<path d="M11.7815 40.7155C11.744 40.6781 11.7041 40.6506 11.6666 40.6306C11.6291 40.6106 11.5891 40.5981 11.5516 40.5931C11.5141 40.5881 11.4767 40.5906 11.4392 40.5981C11.4017 40.6056 11.3666 40.6206 11.3317 40.6406C11.3092 40.6531 11.2867 40.6681 11.2642 40.6881C11.2417 40.708 11.2217 40.728 11.2017 40.748L10.5669 41.4028L10.4395 41.2779L11.0717 40.6256C11.0967 40.6006 11.1217 40.5756 11.1517 40.5531C11.1792 40.5281 11.2092 40.5081 11.2367 40.4906C11.2842 40.4606 11.3341 40.4406 11.3866 40.4256C11.4391 40.4131 11.4916 40.4081 11.5491 40.4156C11.6041 40.4231 11.6616 40.4406 11.7191 40.4706C11.7765 40.5006 11.8365 40.5456 11.8965 40.6031C11.954 40.6581 11.999 40.7155 12.0315 40.7705C12.0615 40.8255 12.0839 40.8805 12.0939 40.933C12.1039 40.9855 12.1039 41.0379 12.0939 41.0879C12.0839 41.1379 12.0665 41.1854 12.044 41.2329C12.0265 41.2679 12.004 41.3004 11.979 41.3329C11.954 41.3654 11.9265 41.3978 11.899 41.4253L11.2667 42.0777L11.1392 41.9527L11.774 41.2979C11.7965 41.2754 11.819 41.2479 11.839 41.2204C11.859 41.1929 11.8765 41.1654 11.889 41.1379C11.919 41.0679 11.929 40.998 11.914 40.928C11.899 40.858 11.8565 40.788 11.7865 40.718L11.7815 40.7155Z" fill="#1434CB"/>
<path d="M9.82706 40.0258C9.85956 39.9983 9.88205 39.9683 9.89205 39.9358C9.90205 39.9033 9.90455 39.8708 9.89955 39.8358C9.89456 39.8008 9.88459 39.7659 9.86709 39.7284C9.8521 39.6909 9.83461 39.6534 9.81462 39.6134C9.78962 39.5609 9.76462 39.5084 9.74213 39.4559C9.71963 39.4035 9.7071 39.351 9.7021 39.2985C9.6971 39.246 9.70212 39.1935 9.72462 39.1435C9.74461 39.0935 9.78209 39.0436 9.83957 38.9961C9.89706 38.9461 9.95703 38.9161 10.0195 38.9036C10.0795 38.8911 10.142 38.8911 10.202 38.9086C10.2619 38.9261 10.3219 38.9536 10.3794 38.9961C10.4369 39.0386 10.4919 39.091 10.5469 39.1535C10.5719 39.1835 10.5944 39.2135 10.6169 39.2485C10.6394 39.2835 10.6594 39.316 10.6744 39.3485C10.6894 39.381 10.7043 39.4135 10.7168 39.4409C10.7268 39.4709 10.7343 39.4934 10.7368 39.5134L10.6119 39.6184C10.6044 39.5884 10.5943 39.5584 10.5819 39.5259C10.5694 39.4934 10.5544 39.4609 10.5369 39.4284C10.5194 39.396 10.5019 39.366 10.4819 39.336C10.4619 39.306 10.4419 39.2785 10.4219 39.2535C10.3894 39.2135 10.3544 39.1785 10.3169 39.1485C10.2794 39.1185 10.2419 39.096 10.2045 39.0836C10.167 39.0686 10.127 39.0661 10.087 39.0736C10.047 39.081 10.007 39.101 9.96454 39.136C9.93205 39.1635 9.90955 39.1935 9.89955 39.226C9.88956 39.2585 9.88705 39.291 9.89205 39.326C9.89705 39.361 9.90708 39.3985 9.92457 39.4359C9.94207 39.4734 9.95955 39.5109 9.97955 39.5509C10.007 39.6034 10.0295 39.6559 10.052 39.7084C10.0745 39.7609 10.087 39.8133 10.0945 39.8633C10.0995 39.9158 10.0945 39.9658 10.0745 40.0158C10.0545 40.0658 10.0195 40.1133 9.96454 40.1582C9.90705 40.2057 9.84958 40.2382 9.7896 40.2507C9.72962 40.2632 9.67215 40.2657 9.61716 40.2507C9.55968 40.2382 9.50466 40.2132 9.45467 40.1782C9.40219 40.1432 9.35474 40.0983 9.30976 40.0458C9.25977 39.9858 9.21729 39.9258 9.1873 39.8633C9.1548 39.8008 9.1298 39.7409 9.1123 39.6834L9.23977 39.5759C9.25976 39.6384 9.28227 39.7009 9.31226 39.7609C9.34225 39.8208 9.37973 39.8783 9.42722 39.9358C9.46221 39.9783 9.49968 40.0108 9.53467 40.0358C9.56966 40.0583 9.60463 40.0758 9.63962 40.0808C9.67461 40.0883 9.70714 40.0858 9.73963 40.0758C9.77212 40.0658 9.80458 40.0483 9.83457 40.0233L9.82706 40.0258Z" fill="#1434CB"/>
<path d="M7.55768 37.5789L8.67735 36.9041L8.30746 36.2893L8.44487 36.2068L8.90727 36.9741L7.64762 37.7313L7.55518 37.5789H7.55768Z" fill="#1434CB"/>
<path d="M8.05238 35.4944L6.46782 35.5794L6.40283 35.4394L7.47503 34.2698L7.55753 34.4447L7.23261 34.7921L7.49505 35.347L7.96989 35.317L8.05238 35.4919V35.4944ZM6.64275 35.4144C6.8352 35.3945 7.01268 35.382 7.17263 35.372L7.32005 35.362L7.11265 34.9221L7.01014 35.0321C6.89767 35.152 6.77521 35.277 6.63775 35.4119V35.4169L6.64275 35.4144Z" fill="#1434CB"/>
<path d="M6.51018 33.4602L7.08503 33.2602L7.14501 33.4302L5.75789 33.915L5.63293 33.5551C5.61294 33.4951 5.59546 33.4427 5.58546 33.3977C5.57546 33.3527 5.568 33.3127 5.56551 33.2727C5.55801 33.1677 5.578 33.0778 5.62298 33.0053C5.66797 32.9328 5.73791 32.8778 5.83288 32.8453C5.88787 32.8253 5.94289 32.8178 5.99287 32.8203C6.04286 32.8203 6.0903 32.8353 6.13529 32.8553C6.17778 32.8753 6.22026 32.9053 6.25525 32.9453C6.29274 32.9828 6.32526 33.0278 6.35275 33.0803H6.35776L6.80764 32.4604L6.86762 32.6304L6.44269 33.2577L6.51518 33.4627L6.51018 33.4602ZM5.84789 33.6901L6.35526 33.5126L6.29778 33.3452C6.28028 33.2927 6.2628 33.2502 6.2453 33.2152C6.22781 33.1802 6.21026 33.1502 6.19277 33.1228C6.15528 33.0703 6.11034 33.0353 6.06036 33.0178C6.01037 33.0003 5.95284 33.0028 5.88786 33.0228C5.82788 33.0453 5.78539 33.0753 5.7604 33.1178C5.7354 33.1602 5.72293 33.2102 5.72543 33.2677C5.72543 33.2952 5.73045 33.3277 5.74044 33.3627C5.74794 33.3977 5.76291 33.4427 5.78041 33.4952L5.84789 33.6876V33.6901Z" fill="#1434CB"/>
<path d="M5.73034 30.7034L5.80533 31.0308L5.64785 31.0683L5.53289 30.5684L6.2252 30.4084C6.23519 30.4209 6.25017 30.4409 6.26516 30.4684C6.28016 30.4959 6.2952 30.5259 6.31019 30.5634C6.32519 30.6009 6.34017 30.6384 6.35516 30.6784C6.37016 30.7209 6.38013 30.7608 6.39013 30.8033C6.41762 30.9258 6.42764 31.0383 6.41514 31.1407C6.40265 31.2432 6.37513 31.3307 6.32764 31.4107C6.28016 31.4881 6.21767 31.5531 6.1377 31.6081C6.05772 31.6606 5.96278 31.7006 5.85531 31.7256C5.73784 31.7531 5.62785 31.7581 5.52288 31.7456C5.41791 31.7331 5.32547 31.6981 5.243 31.6456C5.16052 31.5931 5.08801 31.5231 5.02803 31.4357C4.96805 31.3482 4.92556 31.2457 4.89806 31.1282C4.89057 31.0982 4.88555 31.0658 4.88055 31.0333C4.87555 31.0008 4.8731 30.9708 4.87061 30.9408C4.87061 30.9108 4.87061 30.8833 4.87061 30.8583C4.87061 30.8333 4.87311 30.8108 4.87811 30.7933L5.03303 30.7583C5.02804 30.8033 5.02804 30.8558 5.03303 30.9133C5.03803 30.9708 5.04556 31.0283 5.05805 31.0833C5.07805 31.1657 5.108 31.2382 5.14799 31.3082C5.19048 31.3757 5.243 31.4332 5.30548 31.4781C5.36796 31.5231 5.44041 31.5531 5.52539 31.5706C5.61036 31.5881 5.70036 31.5831 5.80283 31.5606C5.9028 31.5381 5.98528 31.5031 6.05026 31.4581C6.11524 31.4132 6.16519 31.3607 6.20018 31.2982C6.23517 31.2357 6.25516 31.1657 6.26266 31.0883C6.27016 31.0108 6.2627 30.9258 6.24021 30.8383C6.23021 30.7958 6.22018 30.7558 6.20518 30.7184C6.19019 30.6809 6.17771 30.6459 6.16271 30.6159L5.73785 30.7134L5.73034 30.7034Z" fill="#1434CB"/>
<path d="M5.91293 29.2062L5.82043 28.459L5.98042 28.439L6.09537 29.3637L4.63827 29.5436L4.52832 28.6589L4.68831 28.6389L4.77575 29.3462L5.24564 29.2887L5.16815 28.6589L5.32808 28.6389L5.40557 29.2687L5.91293 29.2062Z" fill="#1434CB"/>
<path d="M4.57102 25.6299C4.57102 25.7124 4.57855 25.7899 4.60354 25.8624C4.62853 25.9348 4.66351 25.9973 4.71349 26.0523C4.76348 26.1073 4.82596 26.1498 4.90094 26.1823C4.97592 26.2148 5.06591 26.2322 5.16588 26.2347C5.26585 26.2372 5.35584 26.2272 5.43082 26.1998C5.50579 26.1723 5.56828 26.1348 5.61826 26.0848C5.66825 26.0348 5.70573 25.9723 5.73322 25.8998C5.75821 25.8274 5.77319 25.7474 5.77569 25.6574C5.77569 25.6324 5.77569 25.6074 5.77569 25.5799C5.77569 25.5524 5.77068 25.525 5.76818 25.4975C5.76318 25.47 5.75823 25.4425 5.75323 25.415C5.74823 25.3875 5.74072 25.365 5.73572 25.345L5.89315 25.35C5.90814 25.3925 5.92067 25.445 5.92817 25.5025C5.93567 25.5599 5.93817 25.6174 5.93568 25.6774C5.93318 25.7999 5.91318 25.9073 5.87569 25.9998C5.83821 26.0923 5.78819 26.1723 5.72071 26.2322C5.65573 26.2947 5.57576 26.3397 5.48329 26.3697C5.39082 26.3997 5.28584 26.4122 5.16838 26.4097C5.05341 26.4072 4.94844 26.3872 4.85597 26.3472C4.761 26.3097 4.68103 26.2572 4.61355 26.1898C4.54607 26.1223 4.49605 26.0423 4.45856 25.9473C4.42107 25.8524 4.40609 25.7474 4.41109 25.6324C4.41109 25.6024 4.4136 25.5724 4.41859 25.5424C4.42359 25.5125 4.4261 25.485 4.4311 25.4575C4.4361 25.43 4.44356 25.405 4.45106 25.3825C4.45855 25.36 4.46607 25.34 4.47357 25.3225L4.631 25.3275C4.616 25.3725 4.60102 25.42 4.58853 25.4725C4.57603 25.525 4.57101 25.5774 4.56851 25.6299H4.57102Z" fill="#1434CB"/>
<path d="M5.98062 24.5176L4.60352 23.7278L4.62353 23.5754L6.16056 23.178L6.13555 23.3704L5.67322 23.4854L5.59072 24.0952L6.00558 24.3276L5.98062 24.5176ZM4.84094 23.6853C5.01339 23.7753 5.17087 23.8603 5.31083 23.9378L5.4408 24.0102L5.50572 23.5279L5.36081 23.5654C5.20085 23.6054 5.02838 23.6428 4.84094 23.6803V23.6853Z" fill="#1434CB"/>
<path d="M6.38288 22.1107L6.34041 22.2857L4.91333 21.9383L5.00827 21.5434C5.02327 21.4834 5.03831 21.4309 5.05831 21.3834C5.0783 21.336 5.1008 21.291 5.12579 21.2535C5.17828 21.176 5.23826 21.121 5.31074 21.0935C5.38322 21.0635 5.46318 21.061 5.55066 21.081C5.62314 21.0985 5.68311 21.1285 5.7306 21.171C5.77809 21.2135 5.81556 21.266 5.83805 21.331C5.86055 21.3934 5.87308 21.4684 5.87308 21.5509C5.87308 21.6334 5.86054 21.7259 5.83555 21.8258C5.82305 21.8733 5.81058 21.9233 5.79308 21.9733L6.38038 22.1157L6.38288 22.1107ZM5.6356 21.9283C5.64309 21.9058 5.65311 21.8808 5.66061 21.8558C5.66811 21.8308 5.67563 21.8058 5.68063 21.7833C5.70062 21.7009 5.71059 21.6309 5.71309 21.5684C5.71309 21.5084 5.70813 21.4559 5.69063 21.4134C5.67564 21.371 5.65064 21.3385 5.62065 21.3135C5.59065 21.2885 5.55062 21.271 5.50563 21.261C5.45064 21.2485 5.4007 21.251 5.36071 21.2685C5.31822 21.286 5.28325 21.3185 5.25076 21.3635C5.23076 21.3909 5.21572 21.4234 5.20072 21.4634C5.18573 21.5034 5.17325 21.5484 5.16076 21.6009L5.11078 21.8033L5.6356 21.9308V21.9283Z" fill="#1434CB"/>
<path d="M13.4783 43.2499L14.0181 43.6747L13.3308 43.6447L13.0934 44.2896L12.9109 43.6273L12.2236 43.5998L12.796 43.2199L12.6085 42.5601L13.1459 42.9874L13.7182 42.605L13.4783 43.2499Z" fill="#FBC015"/>
<path d="M6.44804 17.8871L7.41029 17.8396L6.658 18.4394L7.00043 19.3392L6.19561 18.8093L5.44583 19.4117L5.70076 18.4844L4.896 17.9571L5.85824 17.9146L6.11067 16.9849L6.44804 17.8871Z" fill="#FBC015"/>
<path d="M39.0012 43.2499L38.4614 43.6747L39.1462 43.6447L39.3836 44.2896L39.5686 43.6273L40.2559 43.5998L39.6835 43.2199L39.8686 42.5601L39.3312 42.9874L38.7613 42.605L39.0012 43.2499Z" fill="#FBC015"/>
<path d="M46.0291 17.8871L45.0669 17.8396L45.8217 18.4394L45.4793 19.3392L46.2816 18.8093L47.0339 19.4117L46.7764 18.4844L47.5837 17.9571L46.6214 17.9146L46.369 16.9849L46.0291 17.8871Z" fill="#FBC015"/>
<path d="M45.9591 22.2158C45.9716 22.2683 45.9866 22.3133 46.0091 22.3508C46.0316 22.3882 46.0541 22.4207 46.0841 22.4457C46.1141 22.4707 46.144 22.4907 46.1815 22.5032C46.2165 22.5157 46.2541 22.5232 46.2965 22.5257C46.3215 22.5257 46.349 22.5257 46.379 22.5257C46.409 22.5232 46.4365 22.5182 46.464 22.5107L47.3537 22.3133L47.3912 22.4882L46.5064 22.6832C46.474 22.6907 46.4365 22.6957 46.399 22.7007C46.3615 22.7057 46.3265 22.7082 46.294 22.7057C46.2391 22.7057 46.184 22.6932 46.1341 22.6757C46.0841 22.6582 46.0366 22.6307 45.9941 22.5957C45.9516 22.5607 45.9141 22.5132 45.8816 22.4557C45.8491 22.3982 45.8241 22.3283 45.8066 22.2483C45.7891 22.1683 45.7817 22.0983 45.7867 22.0358C45.7917 21.9734 45.8042 21.9159 45.8241 21.8684C45.8441 21.8184 45.8742 21.7759 45.9091 21.7409C45.9441 21.7034 45.9866 21.6735 46.0316 21.6485C46.0641 21.631 46.1016 21.6135 46.1416 21.601C46.1815 21.5885 46.2215 21.576 46.259 21.5685L47.1438 21.3735L47.1812 21.5485L46.2915 21.7459C46.259 21.7534 46.2265 21.7634 46.194 21.7759C46.1615 21.7884 46.1316 21.8034 46.1066 21.8184C46.0416 21.8584 45.9966 21.9134 45.9691 21.9784C45.9416 22.0458 45.9391 22.1258 45.9591 22.2233V22.2158Z" fill="#1434CB"/>
<path d="M47.2086 23.8702C47.1661 23.8752 47.1312 23.8877 47.1062 23.9077C47.0812 23.9277 47.0587 23.9551 47.0437 23.9851C47.0287 24.0151 47.0187 24.0526 47.0112 24.0926C47.0037 24.1326 46.9987 24.1751 46.9912 24.2176C46.9837 24.2751 46.9737 24.3325 46.9637 24.39C46.9537 24.4475 46.9362 24.4975 46.9112 24.545C46.8862 24.5925 46.8512 24.63 46.8087 24.6624C46.7662 24.6949 46.7062 24.7149 46.6313 24.7224C46.5563 24.7324 46.4888 24.7224 46.4313 24.7024C46.3738 24.6799 46.3239 24.6449 46.2839 24.6C46.2439 24.5525 46.2089 24.495 46.1839 24.43C46.1589 24.3625 46.1414 24.2876 46.1339 24.2051C46.1289 24.1676 46.1264 24.1276 46.1289 24.0876C46.1289 24.0476 46.1289 24.0076 46.1364 23.9726C46.1414 23.9352 46.1464 23.9027 46.1539 23.8727C46.1614 23.8427 46.1689 23.8177 46.1764 23.8002L46.3389 23.7827C46.3289 23.8102 46.3189 23.8402 46.3139 23.8752C46.3089 23.9102 46.3014 23.9452 46.2964 23.9801C46.2914 24.0151 46.2914 24.0526 46.2914 24.0876C46.2914 24.1226 46.2914 24.1576 46.2964 24.1876C46.3014 24.2376 46.3114 24.2876 46.3264 24.3325C46.3414 24.3775 46.3588 24.4175 46.3838 24.45C46.4088 24.4825 46.4389 24.5075 46.4763 24.5225C46.5138 24.5375 46.5588 24.545 46.6113 24.5375C46.6538 24.5325 46.6913 24.52 46.7163 24.4975C46.7413 24.475 46.7638 24.45 46.7787 24.4175C46.7937 24.385 46.8062 24.35 46.8112 24.31C46.8187 24.2701 46.8237 24.2276 46.8312 24.1826C46.8387 24.1251 46.8462 24.0676 46.8562 24.0101C46.8662 23.9551 46.8837 23.9027 46.9087 23.8577C46.9337 23.8127 46.9662 23.7727 47.0087 23.7427C47.0511 23.7127 47.1086 23.6927 47.1811 23.6852C47.2561 23.6777 47.3211 23.6852 47.376 23.7052C47.4335 23.7252 47.481 23.7577 47.521 23.8002C47.561 23.8427 47.5935 23.8927 47.616 23.9526C47.6385 24.0101 47.656 24.0751 47.6635 24.1426C47.6735 24.2201 47.6735 24.2951 47.6635 24.3625C47.6535 24.43 47.6435 24.495 47.626 24.555L47.461 24.5725C47.481 24.51 47.4935 24.445 47.5035 24.3775C47.5135 24.3125 47.5135 24.2426 47.5035 24.1676C47.496 24.1126 47.486 24.0651 47.4686 24.0251C47.4511 23.9851 47.4311 23.9526 47.4061 23.9302C47.3811 23.9077 47.3511 23.8877 47.3186 23.8802C47.2861 23.8702 47.2486 23.8677 47.2111 23.8727L47.2086 23.8702Z" fill="#1434CB"/>
<path d="M47.7515 27.1644L46.4444 27.1119L46.4144 27.8292L46.252 27.8217L46.2895 26.927L47.759 26.987L47.7515 27.1644Z" fill="#1434CB"/>
<path d="M46.189 28.6265L47.5586 29.4263L47.5362 29.5787L45.9966 29.9636L46.0241 29.7712L46.4865 29.6587L46.5739 29.0514L46.1616 28.814L46.189 28.624V28.6265ZM47.3237 29.4688C47.1513 29.3788 46.9963 29.2938 46.8564 29.2114L46.7264 29.1364L46.6564 29.6187L46.8014 29.5837C46.9614 29.5463 47.1338 29.5088 47.3212 29.4713V29.4663L47.3237 29.4688Z" fill="#1434CB"/>
<path d="M46.3564 31.1832L45.7665 31.0333L45.809 30.8608L47.2336 31.2207L47.1411 31.5906C47.1262 31.6531 47.1087 31.7056 47.0937 31.7481C47.0787 31.7906 47.0612 31.8281 47.0412 31.863C46.9887 31.9555 46.9237 32.0205 46.8462 32.0555C46.7688 32.0905 46.6813 32.098 46.5838 32.073C46.5263 32.058 46.4763 32.0355 46.4363 32.0055C46.3963 31.9755 46.3639 31.9405 46.3389 31.898C46.3139 31.8556 46.2964 31.8106 46.2864 31.7581C46.2764 31.7056 46.2739 31.6506 46.2789 31.5906H46.2739L45.5591 31.8581L45.6016 31.6856L46.3014 31.3957L46.3539 31.1857L46.3564 31.1832ZM47.0362 31.3532L46.5138 31.2207L46.4714 31.3932C46.4589 31.4457 46.4488 31.4932 46.4413 31.5306C46.4363 31.5681 46.4338 31.6056 46.4338 31.6356C46.4363 31.7006 46.4539 31.7556 46.4864 31.7981C46.5189 31.8406 46.5663 31.8705 46.6313 31.888C46.6938 31.903 46.7463 31.9005 46.7913 31.878C46.8363 31.8556 46.8737 31.8206 46.9037 31.7706C46.9187 31.7481 46.9312 31.7181 46.9437 31.6831C46.9562 31.6481 46.9687 31.6031 46.9837 31.5481L47.0337 31.3507L47.0362 31.3532Z" fill="#1434CB"/>
<path d="M45.4918 33.91L45.6093 33.5951L45.7617 33.6501L45.5843 34.1325L44.917 33.885C44.917 33.8675 44.917 33.8425 44.917 33.8125C44.917 33.7826 44.9245 33.7476 44.9295 33.7101C44.9345 33.6726 44.9445 33.6326 44.9545 33.5901C44.9645 33.5476 44.977 33.5076 44.992 33.4677C45.0345 33.3502 45.0894 33.2502 45.1569 33.1727C45.2219 33.0953 45.2968 33.0353 45.3768 32.9953C45.4593 32.9553 45.5468 32.9353 45.6443 32.9353C45.7392 32.9353 45.8392 32.9528 45.9442 32.9928C46.0566 33.0353 46.1516 33.0903 46.2316 33.1577C46.3116 33.2277 46.3716 33.3052 46.4116 33.3952C46.4515 33.4851 46.474 33.5826 46.474 33.6901C46.474 33.7951 46.454 33.905 46.4141 34.0175C46.4041 34.0475 46.3915 34.0775 46.3765 34.1075C46.364 34.1375 46.3491 34.1649 46.3341 34.1899C46.3191 34.2149 46.3041 34.2399 46.2891 34.2599C46.2741 34.2799 46.2616 34.2974 46.2466 34.3124L46.0991 34.2574C46.1291 34.2224 46.1566 34.1774 46.1866 34.1275C46.2166 34.0775 46.2391 34.025 46.2591 33.9725C46.2891 33.895 46.304 33.815 46.3065 33.7351C46.3065 33.6551 46.2966 33.5801 46.2691 33.5076C46.2416 33.4352 46.1966 33.3702 46.1366 33.3102C46.0766 33.2502 45.9967 33.2027 45.8992 33.1677C45.8042 33.1327 45.7167 33.1153 45.6368 33.1153C45.5568 33.1153 45.4868 33.1327 45.4219 33.1652C45.3594 33.1977 45.3018 33.2452 45.2544 33.3052C45.2069 33.3677 45.1669 33.4402 45.1344 33.5276C45.1194 33.5676 45.1069 33.6076 45.0969 33.6476C45.0869 33.6876 45.0794 33.7251 45.0769 33.7576L45.4868 33.91H45.4918Z" fill="#1434CB"/>
<path d="M44.5145 35.062L44.1796 35.7368L44.0347 35.6643L44.4495 34.8296L45.7667 35.4819L45.3717 36.2817L45.2268 36.2092L45.5442 35.5719L45.1193 35.3619L44.8369 35.9293L44.6919 35.8568L44.9744 35.2895L44.517 35.062H44.5145Z" fill="#1434CB"/>
<path d="M43.6649 38.7859C43.7124 38.7184 43.7474 38.6484 43.7674 38.5734C43.7874 38.5009 43.7924 38.426 43.7799 38.3535C43.7674 38.281 43.7399 38.211 43.6949 38.141C43.6499 38.0711 43.5849 38.0086 43.5024 37.9486C43.42 37.8911 43.34 37.8511 43.2625 37.8311C43.185 37.8111 43.1126 37.8086 43.0426 37.8236C42.9726 37.8386 42.9076 37.8686 42.8451 37.9136C42.7827 37.9586 42.7277 38.0186 42.6752 38.0936C42.6602 38.1136 42.6477 38.136 42.6327 38.1585C42.6177 38.1835 42.6052 38.2085 42.5927 38.2335C42.5802 38.2585 42.5702 38.2835 42.5602 38.3085C42.5502 38.3335 42.5427 38.356 42.5352 38.3785L42.4053 38.2885C42.4153 38.2435 42.4353 38.196 42.4603 38.1435C42.4852 38.0911 42.5153 38.0411 42.5503 37.9911C42.6202 37.8911 42.6977 37.8136 42.7802 37.7537C42.8626 37.6962 42.9476 37.6587 43.0376 37.6437C43.1276 37.6287 43.2175 37.6337 43.3125 37.6587C43.4075 37.6837 43.5 37.7312 43.5949 37.7986C43.6874 37.8636 43.7649 37.9386 43.8223 38.0236C43.8798 38.1086 43.9198 38.196 43.9373 38.2885C43.9548 38.381 43.9548 38.4785 43.9323 38.5759C43.9098 38.6734 43.8649 38.7709 43.7974 38.8658C43.7799 38.8908 43.7599 38.9158 43.7424 38.9383C43.7224 38.9608 43.7024 38.9833 43.6824 39.0033C43.6624 39.0233 43.6424 39.0408 43.6249 39.0558C43.6074 39.0708 43.5899 39.0833 43.5724 39.0933L43.4425 39.0033C43.4799 38.9758 43.5174 38.9433 43.5574 38.9058C43.5949 38.8683 43.6299 38.8283 43.6624 38.7859H43.6649Z" fill="#1434CB"/>
<path d="M41.878 38.9312L42.5903 40.3482L42.4878 40.4657L40.9883 39.9484L41.1157 39.8009L41.5656 39.9609L41.9705 39.4985L41.753 39.0761L41.8805 38.9312H41.878ZM42.3679 40.2558C42.2729 40.0858 42.1904 39.9284 42.1155 39.7859L42.048 39.6534L41.7281 40.0208L41.868 40.0708C42.023 40.1258 42.1879 40.1883 42.3654 40.2608H42.3679V40.2558Z" fill="#1434CB"/>
<path d="M40.2134 40.7179L40.3433 40.5955L41.3431 41.6727L41.0457 41.9501C41.0007 41.9901 40.9582 42.0275 40.9157 42.0575C40.8732 42.0875 40.8307 42.11 40.7882 42.13C40.7033 42.1675 40.6208 42.1775 40.5458 42.1625C40.4708 42.1475 40.4008 42.1075 40.3383 42.04C40.2884 41.9851 40.2534 41.9276 40.2359 41.8651C40.2184 41.8026 40.2184 41.7401 40.2359 41.6727C40.2509 41.6052 40.2808 41.5377 40.3283 41.4702C40.3733 41.4002 40.4358 41.3303 40.5108 41.2628C40.5458 41.2303 40.5857 41.1953 40.6257 41.1628L40.2134 40.7204V40.7179ZM40.7358 41.2803C40.7158 41.2953 40.6958 41.3103 40.6758 41.3277C40.6558 41.3452 40.6357 41.3602 40.6207 41.3777C40.5583 41.4352 40.5108 41.4902 40.4758 41.5377C40.4408 41.5877 40.4183 41.6352 40.4083 41.6776C40.3983 41.7201 40.3983 41.7626 40.4108 41.8001C40.4233 41.8376 40.4458 41.8726 40.4758 41.9076C40.5158 41.9501 40.5558 41.9751 40.6008 41.9826C40.6458 41.9901 40.6933 41.9826 40.7433 41.9651C40.7732 41.9526 40.8057 41.9326 40.8407 41.9101C40.8757 41.8876 40.9107 41.8551 40.9507 41.8176L41.1031 41.6751L40.7358 41.2803Z" fill="#1434CB"/>
<path d="M25.5401 21.8909H24.0181C23.8956 21.8909 23.7881 21.9783 23.7606 22.0983L22.1211 29.7711C22.0862 29.9335 22.2111 30.0885 22.3785 30.0885H23.9806C24.1056 30.0885 24.213 30.001 24.238 29.8786L25.7976 22.2058C25.8301 22.0433 25.7076 21.8909 25.5401 21.8909Z" fill="#1434CB"/>
<path d="M20.6366 21.8909L18.4697 27.4393L17.6525 22.7356C17.5675 22.2458 17.1426 21.8909 16.6478 21.8909H12.9963V22.0283C14.2985 22.0283 15.4356 22.9106 15.758 24.1727L17.2676 30.0885H19.4544L22.8809 21.8909H20.6391H20.6366Z" fill="#1434CB"/>
<path d="M31.3159 26.507C30.7036 25.2574 28.7117 25.1949 28.6817 24.2577C28.6817 24.2152 28.6792 24.0377 28.7892 23.8728C29.1116 23.3904 30.1438 23.3879 31.4209 23.8328C31.5459 23.3129 31.6683 22.7956 31.7933 22.2757C29.6464 21.481 27.6095 21.9858 26.8872 23.208C26.8372 23.2954 26.3124 24.2102 26.6473 25.1099C27.1821 26.547 29.4515 26.7495 29.394 27.7317C29.394 27.7742 29.379 27.9166 29.284 28.0541C28.7117 28.8738 26.2474 27.9341 26.0749 27.8666C25.9725 28.4665 25.87 29.0638 25.77 29.6636C28.1318 30.5733 30.3687 30.0135 31.1335 28.6914C31.4134 28.2065 31.6933 27.2743 31.3209 26.5095L31.3159 26.507Z" fill="#1434CB"/>
<path d="M37.3915 22.3732C37.3315 22.0908 37.0841 21.8909 36.7967 21.8909H35.6745C35.1897 21.8909 34.7497 22.1833 34.5648 22.6332L31.4807 30.0885H33.7126L34.0924 28.8589H36.8166L36.9566 30.0885H39.0035L37.3915 22.3757V22.3732ZM34.6923 27.1768L35.8045 24.1327L36.4568 27.1768H34.6923Z" fill="#1434CB"/>
</svg>
