<svg width="137" height="43" viewBox="0 0 137 43" fill="none" xmlns="http://www.w3.org/2000/svg">
<path d="M37.9405 12.5317L33.626 4.99805H25.711L21.4258 12.4926L29.644 26.8661L37.9405 12.5317Z" fill="white"/>
<path d="M31.6406 30.3637L35.9454 37.8974H43.8604L48.1554 30.4028L39.9371 16.0293L31.6406 30.3637Z" fill="white"/>
<path d="M11.1719 30.3637L15.4865 37.8974H23.4014L27.6866 30.4028L19.4684 16.0293L11.1719 30.3637Z" fill="white"/>
<path d="M62.3678 10.5965C62.7298 10.9189 62.9157 11.3977 62.9157 12.0524C62.9157 12.9513 62.5929 13.5962 61.9667 13.9675C61.3308 14.3486 60.4405 14.5343 59.3056 14.544H56.7031V5.90625H58.9631C61.3503 5.90625 62.5439 6.63909 62.5439 8.10478C62.5635 8.56403 62.3972 9.01351 62.0841 9.34574C61.7808 9.66819 61.3797 9.88315 60.9394 9.9711C61.458 10.0493 61.9569 10.2642 62.3678 10.5965ZM58.337 9.45322H59.3545C59.7458 9.47276 60.1274 9.36528 60.4405 9.15031C60.7144 8.93534 60.8612 8.59335 60.8416 8.24158C60.8709 7.89959 60.7144 7.55759 60.4209 7.37194C60.01 7.17651 59.5599 7.08857 59.1099 7.12766H58.337V9.45322ZM60.7046 13.0295C61.0275 12.8438 61.184 12.5019 61.184 11.9937C61.2232 11.5834 61.047 11.1827 60.7242 10.9287C60.3524 10.6942 59.9219 10.5769 59.4817 10.6062H58.337V13.3031H59.2958C59.785 13.3324 60.2644 13.2347 60.7046 13.0295Z" fill="white"/>
<path d="M65.9406 13.3231C66.0091 13.411 66.1167 13.4501 66.2341 13.4404C66.3613 13.4404 66.4885 13.4208 66.6059 13.3817L66.9483 14.5054C66.5863 14.652 66.195 14.7302 65.8134 14.7302C65.3829 14.7595 64.972 14.6031 64.6589 14.3002C64.3654 13.9485 64.2284 13.499 64.2578 13.0397V5.28135L65.8623 5.10547V12.9225C65.8427 13.0593 65.8721 13.1961 65.9406 13.3231Z" fill="white"/>
<path d="M72.864 8.67287C73.4119 9.28846 73.6858 10.1386 73.6858 11.2232C73.6956 11.8583 73.5684 12.4837 73.314 13.0504C73.0792 13.5585 72.7075 13.9884 72.2378 14.2816C71.7389 14.5845 71.1616 14.7311 70.5746 14.7213C69.5963 14.7213 68.8331 14.4086 68.2853 13.793C67.7374 13.1677 67.4536 12.3176 67.4536 11.2232C67.4439 10.5978 67.5711 9.97245 67.8254 9.39595C68.0602 8.88784 68.432 8.46768 68.9016 8.17454C69.4104 7.87163 69.9876 7.72506 70.5746 7.73483C71.553 7.73483 72.3161 8.04751 72.864 8.67287ZM69.1267 11.2232C69.1267 12.0049 69.2441 12.5814 69.4789 12.9625C69.7137 13.324 70.1148 13.539 70.5551 13.5194C70.9855 13.539 71.3965 13.324 71.6215 12.9527C71.8563 12.5814 71.9835 12.0049 71.9835 11.2329C71.9835 10.461 71.8661 9.88451 71.6215 9.5132C71.3965 9.15167 70.9953 8.9367 70.5648 8.95624C69.6061 8.95624 69.1364 9.70863 69.1364 11.2232H69.1267Z" fill="white"/>
<path d="M79.0196 7.92047C79.3815 8.05726 79.7142 8.25269 79.9979 8.50674L79.2739 9.48387C79.0783 9.32753 78.863 9.21027 78.638 9.11256C78.413 9.03439 78.1879 8.99531 77.9531 8.99531C76.9552 8.99531 76.4562 9.74769 76.4562 11.2622C76.4562 12.0244 76.5834 12.5814 76.8476 12.9136C77.1117 13.2458 77.5227 13.4315 77.9531 13.4119C78.1782 13.4119 78.4032 13.3728 78.6086 13.2947C78.8434 13.1872 79.0587 13.0602 79.2641 12.9038L80.0077 13.9493C79.4109 14.4477 78.6478 14.7213 77.8651 14.7115C77.2879 14.7213 76.7106 14.5845 76.2117 14.2913C75.742 14.008 75.3703 13.5976 75.1355 13.0992C74.8713 12.5227 74.7441 11.8974 74.7637 11.272C74.7539 10.6369 74.8811 10.0017 75.1355 9.41547C75.3605 8.90736 75.742 8.47743 76.2117 8.17452C76.7008 7.87161 77.2781 7.71527 77.8553 7.72504C78.2466 7.73481 78.6478 7.79344 79.0196 7.92047Z" fill="white"/>
<path d="M81.1719 14.5347V5.27159L82.7764 5.0957V14.5347H81.1719ZM86.954 14.5347H85.1147L82.8351 10.9194L85.0462 7.9196H86.7388L84.5374 10.8314L86.954 14.5347Z" fill="white"/>
<path d="M92.2948 8.51508L91.6686 9.47266C91.199 9.12089 90.6316 8.92547 90.0445 8.9157C89.7804 8.89616 89.5064 8.96455 89.2716 9.10135C89.1053 9.19907 88.9977 9.38472 89.0075 9.58014C89.0075 9.71694 89.0466 9.84397 89.1151 9.95145C89.2227 10.0785 89.3695 10.1762 89.526 10.2348C89.8097 10.3521 90.1032 10.4498 90.3967 10.528C90.9838 10.655 91.5316 10.9188 91.9915 11.2901C92.3535 11.6321 92.5394 12.1207 92.51 12.619C92.5296 13.2346 92.2263 13.8209 91.7077 14.1629C91.1207 14.5537 90.4261 14.7491 89.7217 14.7198C89.2129 14.7296 88.7042 14.6417 88.2248 14.4755C87.8041 14.3192 87.403 14.0847 87.0703 13.7916L87.8824 12.8828C88.3813 13.303 89.0075 13.5375 89.663 13.5473C89.9663 13.557 90.2696 13.4886 90.5239 13.3323C90.7294 13.2151 90.8468 13.0001 90.8468 12.7656C90.8566 12.5995 90.8174 12.4431 90.7294 12.2966C90.6218 12.1598 90.475 12.0523 90.3087 11.9839C89.9956 11.8568 89.6728 11.7494 89.3499 11.6614C88.7922 11.5442 88.2737 11.2803 87.853 10.8895C87.5301 10.5573 87.3638 10.1078 87.3736 9.64854C87.3638 9.28701 87.4812 8.94501 87.6965 8.65187C87.9313 8.34896 88.2444 8.10468 88.5966 7.96789C89.0173 7.792 89.4673 7.71383 89.9271 7.7236C90.7783 7.70406 91.6197 7.98743 92.2948 8.51508Z" fill="white"/>
<path d="M96.808 14.5927C96.5243 14.6709 96.221 14.7197 95.9275 14.7197C95.3698 14.7588 94.8317 14.5536 94.4306 14.1628C94.0881 13.8012 93.9316 13.2638 93.9316 12.5603V9.0817H92.8945V7.91892H93.9316V6.45323L95.5361 6.26758V7.91892H97.0721L96.9156 9.07193H95.5361V12.5212C95.5165 12.7655 95.5752 13.0097 95.7024 13.2149C95.8394 13.3713 96.0351 13.4495 96.2307 13.4299C96.5145 13.4201 96.7884 13.3322 97.0232 13.1856L97.5907 14.2214C97.3559 14.3875 97.0917 14.5145 96.808 14.5927Z" fill="white"/>
<path d="M102.431 7.83209L102.157 9.37595C101.961 9.32709 101.766 9.29778 101.57 9.29778C101.218 9.27823 100.866 9.43457 100.65 9.71794C100.376 10.099 100.191 10.5485 100.112 11.0077V14.5254H98.5078V7.91026H99.8971L100.044 9.20984C100.171 8.78967 100.406 8.40859 100.729 8.11545C101.022 7.87117 101.384 7.73438 101.766 7.73438C101.991 7.73438 102.216 7.76369 102.431 7.83209Z" fill="white"/>
<path d="M108.703 11.7117H104.545C104.603 12.3566 104.77 12.8061 105.044 13.0895C105.347 13.3728 105.748 13.5194 106.159 13.4999C106.443 13.4999 106.717 13.451 106.981 13.3533C107.274 13.236 107.548 13.0895 107.803 12.9038L108.468 13.8125C107.783 14.389 106.912 14.7017 106.012 14.7017C105.005 14.7017 104.222 14.3988 103.674 13.7832C103.126 13.1676 102.852 12.3273 102.852 11.2622C102.842 10.6369 102.96 10.0213 103.204 9.44478C103.41 8.93668 103.762 8.49697 104.222 8.18429C104.691 7.87161 105.239 7.71527 105.797 7.72504C106.726 7.72504 107.441 8.01818 107.949 8.60445C108.458 9.19073 108.713 10.0115 108.713 11.0668C108.742 11.145 108.732 11.36 108.703 11.7117ZM107.147 10.5978C107.147 9.43501 106.717 8.85851 105.856 8.85851C105.494 8.83897 105.151 9.00508 104.936 9.28844C104.711 9.58158 104.584 10.0311 104.545 10.6662H107.147V10.5978Z" fill="white"/>
<path d="M115.219 13.3431C115.307 13.4799 115.444 13.5776 115.6 13.6264L115.258 14.6915C114.935 14.672 114.622 14.584 114.338 14.4277C114.084 14.2616 113.888 14.0173 113.79 13.7339C113.585 14.0564 113.291 14.3104 112.949 14.4765C112.597 14.6427 112.205 14.7306 111.814 14.7208C111.237 14.7501 110.669 14.5449 110.249 14.1541C109.857 13.7632 109.652 13.2258 109.671 12.6786C109.632 12.0337 109.926 11.4181 110.454 11.0371C110.973 10.656 111.716 10.4703 112.695 10.4606H113.516V10.0892C113.556 9.7668 113.448 9.43457 113.223 9.19029C112.949 8.99487 112.616 8.90693 112.274 8.94601C111.677 8.96555 111.08 9.08281 110.523 9.29778L110.151 8.21317C110.914 7.91026 111.726 7.74415 112.548 7.73438C114.24 7.73438 115.092 8.49653 115.092 10.0111V12.7861C115.092 12.9815 115.131 13.1672 115.219 13.3431ZM113.526 12.7373V11.3888H112.861C111.834 11.3888 111.315 11.7699 111.315 12.5418C111.296 12.8154 111.384 13.0793 111.55 13.2845C111.736 13.4701 111.99 13.5678 112.254 13.5483C112.802 13.5483 113.301 13.2356 113.526 12.7373Z" fill="white"/>
<path d="M125.343 8.26076C125.676 8.67116 125.852 9.19881 125.823 9.72645V14.5144H124.218V9.98051C124.218 9.26721 123.974 8.91544 123.494 8.91544C123.25 8.91544 123.005 9.00338 122.829 9.15972C122.594 9.37469 122.399 9.62874 122.252 9.90234V14.5046H120.647V9.97074C120.647 9.25743 120.403 8.90567 119.913 8.90567C119.659 8.90567 119.424 8.99361 119.229 9.14995C118.994 9.36492 118.798 9.61897 118.651 9.89257V14.4948H117.047V7.87969H118.436L118.563 8.73956C118.984 8.08488 119.698 7.68426 120.481 7.68426C120.833 7.67449 121.185 7.7722 121.479 7.9774C121.772 8.1826 121.988 8.46596 122.095 8.79818C122.32 8.46596 122.614 8.18259 122.966 7.96763C123.308 7.7722 123.69 7.67449 124.081 7.68426C124.551 7.69403 125.021 7.89923 125.343 8.26076Z" fill="white"/>
<path d="M66.0974 34.8986L67.1051 37.9081H70.3728L64.2287 21.1113H61.7534L55.6289 37.9081H58.8966L59.9239 34.8986H66.0974ZM63.0742 25.7429L63.1623 25.9872L65.2756 32.2799H60.7947L63.0742 25.7429Z" fill="white"/>
<path d="M109.038 26.3096C109.038 23.2415 106.768 21.1016 103.52 21.1016H97.0234V37.8984H100.164V31.508H103.53C106.768 31.508 109.038 29.3681 109.038 26.3096ZM100.154 28.7134V23.8864H103.344C104.87 23.8864 105.897 24.8635 105.897 26.3096C105.897 27.7558 104.899 28.7134 103.344 28.7134H100.154Z" fill="white"/>
<path d="M90.5377 37.8984V21.1016H87.495L82.9261 28.6743L78.3669 21.1016H75.3242V37.8984H78.3376V26.72L82.9457 34.5664L87.5244 26.72V37.8984H90.5377Z" fill="white"/>
</svg>
