<svg width="158" height="41" viewBox="0 0 158 41" fill="none" xmlns="http://www.w3.org/2000/svg">
<path d="M60.4552 25.0782C60.4552 27.9301 57.9673 28.8169 54.5236 28.8169H50.2812V15.8516H53.9868C57.64 15.8516 59.866 16.7862 59.866 19.1588C59.866 20.7765 58.5959 21.6991 57.2472 21.9508C58.8446 22.2383 60.4683 22.9453 60.4683 25.0902L60.4552 25.0782ZM52.9786 21.1839H54.6546C56.1211 21.1839 57.0901 20.5847 57.0901 19.3625C57.0901 18.0444 56.0949 17.6729 54.2618 17.6729H52.9917V21.1839H52.9786ZM57.6269 24.9944C57.6269 23.4366 56.4092 22.8974 54.8379 22.8974H52.9655V26.9595H54.5368C56.3306 26.9595 57.6269 26.636 57.6138 24.9944H57.6269Z" fill="white"/>
<path d="M65.0521 26.9658C65.227 26.9658 65.4018 26.9313 65.5657 26.8738L66.0247 28.4952C65.533 28.7137 64.9975 28.8172 64.4621 28.8172C63.1071 28.8172 62.3203 27.9662 62.3203 26.3793V15.1903L64.5058 14.9258V26.2068C64.5276 26.7243 64.6806 26.9428 65.0412 26.9428L65.0521 26.9658Z" fill="white"/>
<path d="M77.1362 23.7127C77.1362 26.7479 75.2473 28.8179 72.0427 28.8179C68.8381 28.8179 66.9492 26.8875 66.9492 23.7127C66.9492 20.538 68.8381 18.6309 72.0427 18.6309C75.2473 18.6309 77.1362 20.5613 77.1362 23.7127ZM69.7239 23.7127C69.7239 26.0269 70.5186 27.0386 72.0558 27.0386C73.5929 27.0386 74.3876 25.992 74.3876 23.7127C74.3876 21.4335 73.5929 20.3985 72.0688 20.3985C70.5447 20.3985 69.7109 21.4451 69.7109 23.7127H69.737H69.7239Z" fill="white"/>
<path d="M86.3973 19.7866L85.2411 21.2082C84.6567 20.7421 83.907 20.4974 83.132 20.4974C81.6582 20.4974 80.7561 21.4879 80.7561 23.7952C80.7561 26.1025 81.6963 26.9532 83.132 26.9532C83.8943 26.9532 84.6439 26.6618 85.2157 26.1957L86.3973 27.7106C85.4317 28.4331 84.2374 28.8293 82.9922 28.8176C79.9429 28.8176 78.0625 26.8832 78.0625 23.7952C78.0625 20.7072 79.9556 18.6329 82.9795 18.6329C84.2374 18.598 85.4698 19.0058 86.3973 19.7749V19.7866Z" fill="white"/>
<path d="M88.25 28.8054V15.1954L90.5493 14.9258V28.8054H88.25ZM96.5734 28.8054H93.9292L90.6413 23.4951L93.8372 19.0873H96.2629L93.09 23.3778L96.5848 28.8172L96.5734 28.8054Z" fill="white"/>
<path d="M105.528 19.7642L104.572 21.1737C103.836 20.6728 102.978 20.37 102.071 20.3467C101.03 20.3467 100.478 20.731 100.478 21.3135C100.478 21.8959 100.87 22.2453 102.611 22.6996C104.682 23.2238 105.847 24.0275 105.847 25.7398C105.847 27.7433 103.885 28.8149 101.569 28.8149C100.086 28.8615 98.6394 28.3606 97.5117 27.4521L98.7619 26.1242C99.5219 26.7299 100.49 27.0677 101.495 27.091C102.611 27.091 103.322 26.6367 103.322 25.9611C103.322 25.1108 102.929 24.8662 101.017 24.3536C98.9213 23.8062 97.9898 22.8627 97.9898 21.4416C97.9898 19.8341 99.5464 18.6344 101.912 18.6344C103.224 18.5878 104.511 19.0071 105.528 19.7759V19.7642Z" fill="white"/>
<path d="M111.573 28.8165C109.522 28.7938 108.42 27.7479 108.42 25.7357V20.7563H106.773V19.1306H108.42V17.0502L110.953 16.7773V19.1306H113.397L113.144 20.7563H110.953V25.6788C110.953 26.6111 111.282 26.9749 112.067 26.9749C112.51 26.9521 112.941 26.8384 113.296 26.5997L114.182 28.0776C113.422 28.5664 112.51 28.8165 111.573 28.8165Z" fill="white"/>
<path d="M121.588 18.7504L121.127 21.0939C120.811 21.0102 120.481 20.9863 120.152 20.9863C118.834 20.9863 118.149 21.8711 117.741 23.5331V28.8179H115.105V18.9059H117.398L117.648 20.8428C118.162 19.42 119.216 18.6309 120.494 18.6309C120.863 18.6309 121.232 18.6787 121.588 18.7624V18.7504Z" fill="white"/>
<path d="M131.701 24.457H125.153C125.329 26.4223 126.339 27.0619 127.726 27.0619C128.685 27.0619 129.581 26.7479 130.338 26.2013L131.385 27.5271C130.3 28.3643 128.925 28.8179 127.499 28.8179C124.257 28.8179 122.516 26.8293 122.516 23.7825C122.516 20.7357 124.194 18.6309 127.159 18.6309C130.124 18.6309 131.777 20.4566 131.777 23.4918C131.777 23.7941 131.726 24.1895 131.701 24.4337V24.457ZM129.253 22.8638C129.253 21.2823 128.647 20.3287 127.209 20.3287C126.023 20.3287 125.279 21.0497 125.165 22.9801H129.278V22.8755L129.253 22.8638Z" fill="white"/>
<path d="M141.964 27.2358L141.427 28.7803C140.289 28.6874 139.552 28.3042 139.14 27.3752C138.44 28.3158 137.277 28.8616 136.053 28.8151C133.978 28.8151 132.703 27.5958 132.703 25.8539C132.703 23.7636 134.403 22.6256 137.427 22.6256H138.727V22.0914C138.727 20.8256 138.115 20.4076 136.79 20.4076C135.853 20.454 134.928 20.6166 134.053 20.9185L133.466 19.3276C134.665 18.8863 135.94 18.6541 137.227 18.6309C139.989 18.6309 141.202 19.8153 141.202 21.9405V25.9933C141.202 26.7597 141.464 27.0384 141.964 27.2242V27.2358ZM138.702 25.9468V23.9843H137.665C136.04 23.9843 135.215 24.5301 135.215 25.6681C135.215 26.5971 135.728 27.1313 136.677 27.1313C137.54 27.1313 138.327 26.6784 138.702 25.9584V25.9468Z" fill="white"/>
<path d="M157.708 21.6047V28.7939H155.169V21.9762C155.169 20.742 154.652 20.3826 154.02 20.3826C153.149 20.3826 152.619 20.9577 152.038 21.8923V28.8059H149.499V21.9882C149.499 20.754 148.956 20.3946 148.35 20.3946C147.453 20.3946 146.923 20.9697 146.342 21.9043V28.8179H143.816V18.8848H146.014L146.216 20.1909C146.873 19.2084 148.022 18.6212 149.247 18.6332C150.396 18.5853 151.431 19.2683 151.772 20.3107C152.568 19.2803 153.54 18.6332 154.917 18.6332C156.571 18.5973 157.695 19.7475 157.695 21.6167L157.708 21.6047Z" fill="white"/>
<path d="M35.2695 11.2786C36.1524 12.4313 36.8698 13.6864 37.394 15.0183L39.2887 14.4463C38.6909 12.918 37.8631 11.475 36.8514 10.1602L35.2695 11.2701V11.2786Z" fill="white"/>
<path d="M22.3066 2.97179C21.8007 2.95472 21.2857 2.95472 20.7891 2.97179L20.927 4.80749C21.6904 4.78187 22.4537 4.80749 23.2079 4.86725C23.962 4.93556 24.7162 5.04655 25.4704 5.20878L25.9762 3.42431C25.1209 3.23647 24.2655 3.1084 23.3918 3.0401C23.0331 3.00594 22.6653 2.98033 22.3066 2.97179Z" fill="white"/>
<path d="M3.77077 28.4735C2.97982 26.9708 2.40961 25.3827 2.07852 23.752L0 24.0593C0.367882 25.9121 1.01166 27.7136 1.91297 29.3956L3.77077 28.4735Z" fill="white"/>
<path d="M2.70703 9.93814L4.54644 10.8859C5.46615 9.45147 6.5882 8.14514 7.89418 6.99249L6.48703 5.54102C5.00631 6.83881 3.7463 8.3159 2.70703 9.93814Z" fill="white"/>
<path d="M0.09375 16.213L2.16309 16.5546C2.53097 14.9153 3.13799 13.3357 3.96573 11.8501L2.12632 10.9023C1.18822 12.5758 0.507626 14.3603 0.102956 16.213H0.09375Z" fill="white"/>
<path d="M13.5625 1.32341L14.3902 3.11641C16.0641 2.50167 17.8207 2.10891 19.6141 1.94669L19.467 0C17.4436 0.1793 15.4663 0.623282 13.5717 1.32341H13.5625Z" fill="white"/>
<path d="M7.36719 4.78884L8.77434 6.24032C10.1447 5.15598 11.6714 4.25948 13.2993 3.55082L12.4716 1.75781C10.623 2.54332 8.9031 3.56789 7.36719 4.78884Z" fill="white"/>
<path d="M38.5167 33.4885L36.8704 32.2676C35.7024 33.5398 34.3596 34.6668 32.8789 35.606L34.0101 37.2624C35.6932 36.2036 37.2199 34.94 38.5167 33.4885Z" fill="white"/>
<path d="M12.9227 36.9612C11.304 36.2269 9.80485 35.2877 8.46208 34.1777L7.02734 35.6036C8.53566 36.8587 10.2371 37.9089 12.0673 38.7285L12.9319 36.9526L12.9227 36.9612Z" fill="white"/>
<path d="M43.5851 22.2413C43.8518 19.6116 43.5667 16.9562 42.7389 14.4375L40.7432 15.0522C41.8928 18.6297 41.8468 22.4462 40.6328 26.0066L42.6102 26.6641C43.1068 25.2382 43.4379 23.7526 43.5851 22.2499V22.2413Z" fill="white"/>
<path d="M31.314 35.229L30.2564 33.6836C28.9412 34.4093 27.534 34.9728 26.0625 35.3571L26.5315 37.1501C28.2146 36.7146 29.8241 36.0743 31.314 35.2375V35.229Z" fill="white"/>
<path d="M5.27507 22.2918C5.12792 21.1477 5.10951 19.9865 5.22907 18.8338C5.25666 18.5521 5.29346 18.313 5.33025 18.0569L3.37128 17.7324C3.32529 18.0398 3.2885 18.3472 3.25171 18.6631C3.12295 19.9609 3.14135 21.2757 3.3161 22.5735L5.27507 22.2918Z" fill="white"/>
<path d="M27.3164 2.60445C29.0455 3.07404 30.6917 3.76563 32.2185 4.65359L33.3957 3.02281C31.6758 2.01532 29.818 1.23835 27.859 0.708984L27.3164 2.60445Z" fill="white"/>
<path d="M18.769 40.5988L18.9713 38.6521C17.279 38.4386 15.6144 38.0203 14.0417 37.4141L13.168 39.2071C14.9614 39.8901 16.8468 40.3597 18.7782 40.5902L18.769 40.5988Z" fill="white"/>
<path d="M8.48019 32.6857L9.84134 31.3452C8.76529 30.3377 7.83638 29.2107 7.08222 27.9727L5.31641 28.835C6.18093 30.2353 7.24779 31.533 8.48019 32.6857Z" fill="white"/>
<path d="M34.3803 3.6543L33.2031 5.28508C34.6747 6.24988 35.9806 7.40253 37.1211 8.70032L38.8041 7.50499C37.5257 6.02789 36.045 4.73864 34.3803 3.6543Z" fill="white"/>
<path d="M36.3863 30.7117C37.4256 29.4139 38.2809 27.9966 38.9155 26.4768L37.0485 25.8535C36.4967 27.1769 35.7425 28.4235 34.832 29.5591L36.3863 30.7032V30.7117Z" fill="white"/>
<path d="M37.9537 15.9082L36.0775 16.4888C36.6017 18.1623 36.7765 19.904 36.6017 21.6373C36.5097 22.5935 36.3074 23.5498 36.0039 24.4719L37.8709 25.0867C38.2296 24.0194 38.4687 22.918 38.5791 21.808C38.7814 19.8272 38.5607 17.8207 37.9537 15.9167V15.9082Z" fill="white"/>
<path d="M19.2404 35.9381L19.4243 34.1109C18.2655 33.9487 17.1342 33.6669 16.049 33.2656L15.2305 34.9391C16.5181 35.4258 17.8608 35.7588 19.2404 35.9466V35.9381Z" fill="white"/>
<path d="M32.8433 16.4369L34.6183 15.8819C34.1952 14.8403 33.625 13.8499 32.9353 12.9277L31.4453 13.9779C32.0155 14.7464 32.4846 15.566 32.8433 16.4369Z" fill="white"/>
<path d="M22.1272 7.52221H21.1523L21.2811 9.24691C22.2836 9.22129 23.2677 9.30668 24.2517 9.50305L24.73 7.82958C24.1414 7.71005 23.5528 7.61613 22.9458 7.57344C22.679 7.54782 22.3939 7.53075 22.118 7.51367L22.1272 7.52221Z" fill="white"/>
<path d="M7.10547 12.2096L8.84373 13.1061C9.49672 12.1071 10.2784 11.1936 11.1798 10.3824L9.8462 9.00781C8.78854 9.95554 7.86882 11.0313 7.10547 12.2096Z" fill="white"/>
<path d="M26.0625 7.02788C27.2581 7.3694 28.4169 7.84754 29.4838 8.45374L30.5874 6.92542C29.3366 6.20822 27.9847 5.65324 26.5775 5.25195L26.0625 7.02788Z" fill="white"/>
<path d="M33.2016 11.4561L34.7744 10.3461C33.8455 9.27888 32.7602 8.33969 31.5646 7.53711L30.4609 9.06543C31.4818 9.74848 32.4015 10.5511 33.2016 11.4561Z" fill="white"/>
<path d="M31.0781 26.7932L32.5405 27.8776C33.2486 26.9725 33.8373 25.9992 34.2879 24.9575L32.5313 24.377C32.145 25.2308 31.6667 26.0504 31.0781 26.7932Z" fill="white"/>
<path d="M11.8246 30.864L10.4727 32.2045C11.5855 33.1095 12.8087 33.878 14.1423 34.4756L14.9608 32.8022C13.8296 32.2899 12.7811 31.6239 11.8338 30.8555L11.8246 30.864Z" fill="white"/>
<path d="M10.0313 21.5913C9.9485 20.8058 9.93931 20.0203 10.0129 19.2348C10.0313 19.0982 10.0497 18.953 10.0681 18.8249L8.23786 18.5176C8.21027 18.7054 8.18266 18.8847 8.16427 19.0726C8.0723 20.0032 8.0815 20.9253 8.19186 21.856L10.0313 21.5913Z" fill="white"/>
<path d="M6.93945 23.0352L4.98047 23.3169C5.25638 24.6659 5.72544 25.9808 6.36923 27.2103L8.12587 26.3479C7.57405 25.2892 7.18777 24.1793 6.94865 23.0352H6.93945Z" fill="white"/>
<path d="M30.2305 31.7716L31.2973 33.317C32.5113 32.54 33.615 31.6264 34.5715 30.5933L33.0172 29.4492C32.1986 30.3286 31.2605 31.1141 30.2305 31.7716Z" fill="white"/>
<path d="M8.26054 14.0696L6.53149 13.1816C5.85091 14.4026 5.35428 15.7004 5.05078 17.0323L7.00976 17.3568C7.26728 16.2127 7.69033 15.1027 8.26054 14.0696Z" fill="white"/>
<path d="M24.9232 31.0108L25.3555 32.6843C26.5143 32.3769 27.6272 31.9415 28.6664 31.378L27.6548 29.918C26.7902 30.379 25.8706 30.7462 24.9141 31.0108H24.9232Z" fill="white"/>
<path d="M11.3182 25.8965L9.67188 26.6991C10.2697 27.6639 11.0054 28.5518 11.8516 29.3544L13.1392 28.0908C12.4402 27.4333 11.8332 26.6991 11.3273 25.905L11.3182 25.8965Z" fill="white"/>
<path d="M21.1103 34.2466C20.9447 34.2466 20.7792 34.2295 20.6136 34.2124L20.4297 36.0396C21.984 36.1421 23.5475 36.0396 25.065 35.7578L24.6052 33.9648C23.4555 34.1868 22.2783 34.2808 21.1011 34.2381L21.1103 34.2466Z" fill="white"/>
<path d="M10.7344 8.26338L12.068 9.62948C13.0336 8.87812 14.0913 8.2463 15.2317 7.75109L14.45 6.06055C13.1164 6.64114 11.8656 7.38395 10.7436 8.27192L10.7344 8.26338Z" fill="white"/>
<path d="M15.5508 5.61788L16.3325 7.30842C17.5098 6.89005 18.733 6.6083 19.9838 6.48023L19.8366 4.64453C18.3651 4.79822 16.9303 5.12267 15.5508 5.61788Z" fill="white"/>
<path d="M20.5548 40.7343C22.4218 40.794 24.2888 40.6489 26.1282 40.3159L25.696 38.4375C24.1049 38.7449 22.4862 38.8644 20.8491 38.8046C20.5916 38.8046 20.3985 38.7705 20.141 38.7534L19.957 40.7172C20.1594 40.7172 20.3525 40.7172 20.5548 40.7172V40.7343Z" fill="white"/>
</svg>
