<svg width="3639" height="584" viewBox="0 0 3639 584" fill="none" xmlns="http://www.w3.org/2000/svg">
<g clip-path="url(#clip0_440_344)">
<path d="M686.529 5.94207C664.528 -5.53481 637.482 -0.418612 621.367 18.3177L371.015 309.595C324.07 362.002 252.951 393.805 189.4 357.646L166.208 344.441C108.122 311.393 33.92 331.028 0.427734 388.274L343.479 583.727L686.529 5.94207Z" fill="white"/>
<path d="M343.051 583.8L438.623 420.497C348.096 450.503 262.333 403.558 172.576 346.588C113.019 308.839 35.3841 327.921 0 388.417L343.051 583.869V583.8Z" fill="white"/>
<path d="M193.666 312.78C241.032 339.744 301.57 323.773 328.967 277.036C356.293 230.298 340.107 170.563 292.742 143.531C245.376 116.567 184.838 132.538 157.441 179.275C130.115 226.012 146.3 285.747 193.666 312.78Z" fill="white"/>
<path d="M1098.74 492.26H1000.22L835.494 246.129V492.26H736.979V93.2656H835.494L1000.22 340.503V93.2656H1098.74V492.26Z" fill="white"/>
<path d="M1268.64 171.115V251.799H1400.58V326.813H1268.64V414.342H1417.82V492.191H1170.13V93.2656H1417.82V171.115H1268.64Z" fill="white"/>
<path d="M1729.5 492.26L1647.1 370.094L1574.51 492.26H1462.75L1592.37 289.341L1459.88 93.2656H1574.51L1655.71 213.773L1727.11 93.2656H1838.87L1710.44 294.457L1844.06 492.26H1729.42H1729.5Z" fill="white"/>
<path d="M2185.7 285.054C2174.98 304.205 2158.44 319.623 2136.16 331.376C2113.88 343.13 2086.2 349.006 2053.2 349.006H1992.17V492.26H1893.65V93.2656H2053.2C2085.43 93.2656 2112.69 98.7967 2134.97 109.72C2157.25 120.713 2173.92 135.855 2185.07 155.213C2196.21 174.572 2201.74 196.696 2201.74 221.724C2201.74 244.816 2196.35 265.972 2185.63 285.123L2185.7 285.054ZM2087.74 258.643C2096.99 249.932 2101.54 237.625 2101.54 221.724C2101.54 205.822 2096.92 193.515 2087.74 184.804C2078.49 176.093 2064.48 171.737 2045.7 171.737H1992.1V271.78H2045.7C2064.48 271.78 2078.56 267.424 2087.74 258.712V258.643Z" fill="white"/>
<path d="M2351.62 417.246H2480.61V492.26H2253.1V93.2656H2351.62V417.246Z" fill="white"/>
<path d="M2807.2 421.809H2656.27L2632.1 492.26H2528.96L2675.26 93.2656H2789.33L2935.63 492.26H2831.37L2807.2 421.809ZM2781.9 346.725L2731.8 200.637L2682.26 346.725H2781.9Z" fill="white"/>
<path d="M2961.62 186.741C2978.93 155.836 3002.96 131.776 3033.93 114.561C3064.83 97.3454 3099.86 88.7031 3139.03 88.7031C3187.03 88.7031 3228.09 101.217 3262.28 126.245C3296.47 151.273 3319.31 185.358 3330.81 228.569H3222.48C3214.42 211.907 3203 199.185 3188.22 190.474C3173.43 181.763 3156.62 177.407 3137.84 177.407C3107.5 177.407 3082.91 187.847 3064.13 208.657C3045.28 229.468 3035.89 257.33 3035.89 292.176C3035.89 327.021 3045.28 354.884 3064.13 375.763C3082.91 396.574 3107.5 407.014 3137.84 407.014C3156.62 407.014 3173.43 402.658 3188.22 393.947C3203 385.235 3214.42 372.514 3222.48 355.852H3330.81C3319.31 399.063 3296.4 433.079 3262.28 457.899C3228.09 482.72 3187.03 495.165 3139.03 495.165C3099.86 495.165 3064.83 486.522 3033.93 469.307C3003.03 452.092 2978.93 428.101 2961.62 397.404C2944.31 366.706 2935.69 331.654 2935.69 292.245C2935.69 252.836 2944.31 217.714 2961.62 186.81V186.741Z" fill="white"/>
<path d="M3489.8 171.115V251.799H3621.74V326.813H3489.8V414.342H3638.97V492.191H3391.29V93.2656H3638.97V171.115H3489.8Z" fill="white"/>
</g>
<defs>
<clipPath id="clip0_440_344">
<rect width="3638.96" height="583.8" fill="white"/>
</clipPath>
</defs>
</svg>
