<svg width="156" height="32" viewBox="0 0 156 32" fill="none" xmlns="http://www.w3.org/2000/svg">
<path d="M12.4531 18.9795L9.42069 15.8072C8.39485 14.9341 8.05449 13.4616 8.58492 12.201L11.8526 4.46667L0.41333 16.4531L3.94612 20.1006L12.283 19.4497C12.5132 19.4342 12.6182 19.1448 12.4531 18.9743V18.9795Z" fill="white"/>
<path d="M14.6268 11.889C14.3966 11.9045 14.2915 12.1938 14.4566 12.3643L18.585 16.7972C19.6109 17.6704 19.9312 18.5332 19.761 19.7525L16.5635 27.9156L26.9969 16.2754L22.4483 11.7598L14.6218 11.889H14.6268Z" fill="white"/>
<path d="M53.4463 19.9263H52.4754L48.8675 24.6175L46.1754 19.9263H44.1537L48.0268 25.8317L43.8484 31.3909H45.0994L48.5323 26.3535L51.5297 31.3909H53.7465L49.3729 25.3099L53.4463 19.9263Z" fill="white"/>
<path d="M34.5361 31.3909H41.2466V30.2336L36.0824 30.8691V25.8317H39.9506V24.9637H36.0824V20.6186C36.8331 20.5721 37.6836 20.5618 38.6044 20.6186C39.6052 20.6806 40.506 20.9855 41.2967 21.1405V19.9263H34.5361V31.3909Z" fill="white"/>
<path d="M66.7023 31.3909H73.3827V30.2336L68.2384 30.8691V25.8317H72.0917V24.9637H68.2384V20.6186C68.9891 20.5721 69.8298 20.5618 70.7505 20.6186C71.7463 20.6806 72.6421 20.9855 73.4277 21.1405V19.9263H66.6973V31.3909H66.7023Z" fill="white"/>
<path d="M68.7191 12.2846H75.3995V11.1273L70.2553 11.7628V6.72543H74.1085V5.85745H70.2553V1.51239C71.0059 1.46589 71.8466 1.45555 72.7673 1.51239C73.7632 1.57438 74.6589 1.87921 75.4446 2.03421V0.820068H68.7141V12.2846H68.7191Z" fill="white"/>
<path d="M130.135 0.820068H128.617V12.2846H130.135V0.820068Z" fill="white"/>
<path d="M92.9523 0.820068H91.4343V12.2846H92.9523V0.820068Z" fill="white"/>
<path d="M87.3459 21.0991C87.8263 20.9803 88.3467 20.877 88.9122 20.7943C89.5777 20.6961 90.1982 20.6445 90.7637 20.6186V31.3909H92.4451V20.567C93.0005 20.6031 93.626 20.6703 94.2966 20.7943C94.9121 20.908 95.4726 21.0526 95.968 21.2025V19.9263H87.3459V21.1043V21.0991Z" fill="white"/>
<path d="M33.335 1.99287C33.8154 1.87404 34.3358 1.77071 34.9013 1.68805C35.5668 1.58988 36.1873 1.53822 36.7528 1.51239V12.2846H38.4342V1.46072C38.9897 1.49689 39.6152 1.56405 40.2857 1.68805C40.9012 1.80171 41.4617 1.94638 41.9571 2.09621V0.820068H33.335V1.99804V1.99287Z" fill="white"/>
<path d="M117.457 1.99287C117.938 1.87404 118.458 1.77071 119.024 1.68805C119.689 1.58988 120.31 1.53822 120.875 1.51239V12.2846H122.556V1.46072C123.112 1.49689 123.737 1.56405 124.408 1.68805C125.023 1.80171 125.584 1.94638 126.079 2.09621V0.820068H117.457V1.99804V1.99287Z" fill="white"/>
<path d="M65.5177 0.820068H64.4519L59.2977 6.37927H59.1325V0.820068H57.4512V12.2846H59.1475V6.6996H59.2977L63.9264 12.2846H66.2284L60.3085 6.20878L65.5177 0.820068Z" fill="white"/>
<path d="M87.3932 0.820068H86.7177V9.15887L80.1373 0.820068H78.9814V12.2846H79.672V2.88152L87.0179 12.2846H87.3932V0.820068Z" fill="white"/>
<path d="M154.86 0.820068V9.15887L148.28 0.820068H147.124V12.2846H147.815V2.88152L155.161 12.2846H155.536V0.820068H154.86Z" fill="white"/>
<path d="M96.516 0.817607H96.4811V2.03174C97.4569 1.72175 98.783 1.44276 100.349 1.50992C100.9 1.53576 101.405 1.59775 101.865 1.68559L95.4202 12.2822H103.887V11.2385L97.662 11.5847L104.418 0.812439H96.516V0.817607Z" fill="white"/>
<path d="M105.871 12.2784H106.917L108.093 9.15267H113.142L114.288 12.2784H116.235L110.96 0.467712L105.881 12.2784H105.871ZM108.428 8.46036L110.615 2.90116L112.732 8.46036H108.428Z" fill="white"/>
<path d="M51.7265 0.993329C49.3746 -0.231142 46.7676 0.817666 45.3314 2.20747C43.8352 3.6541 43.5548 5.51922 43.4898 6.23737C43.4347 6.87802 43.2996 8.69148 44.4906 10.3706C44.5757 10.4946 46.1169 12.5871 48.624 12.6697C51.5314 12.7627 54.2236 10.1071 54.5789 7.04335C54.8191 4.98707 54.0684 2.21263 51.7265 0.993329ZM52.7373 6.82119C52.5722 9.20813 50.8359 12.0291 48.7141 11.9309C46.6124 11.8327 45.0261 8.90331 45.1712 6.45437C45.3313 3.7781 47.5982 1.00883 49.71 1.33949C51.6716 1.64431 52.8925 4.53758 52.7373 6.82119Z" fill="white"/>
<path d="M141.403 0.993329C139.051 -0.231142 136.444 0.817666 135.008 2.20747C133.512 3.6541 133.231 5.51922 133.166 6.23737C133.111 6.87802 132.976 8.69148 134.167 10.3706C134.252 10.4946 135.793 12.5871 138.3 12.6697C141.208 12.7627 143.9 10.1071 144.255 7.04335C144.496 4.98707 143.745 2.21263 141.403 0.993329ZM142.409 6.82119C142.244 9.20813 140.507 12.0291 138.386 11.9309C136.284 11.8327 134.698 8.90331 134.843 6.45437C135.003 3.7781 137.27 1.00883 139.381 1.33949C141.343 1.64431 142.564 4.53758 142.409 6.82119Z" fill="white"/>
<path d="M84.5367 23.3982C84.7919 21.7811 83.3858 19.9418 81.3391 19.9263H76.9756V31.3909H78.6469V25.9505H79.9931L83.7311 31.3909H85.8027L81.3391 25.8317C82.9755 25.8834 84.3215 24.7416 84.5367 23.3982ZM78.6469 25.3099V20.7943C79.2173 20.6961 79.8929 20.6186 80.6635 20.6186H80.7586C81.8295 20.629 82.6852 21.5331 82.6852 22.6336V23.2949C82.6852 24.4109 81.8145 25.3099 80.7337 25.3099H78.6419H78.6469Z" fill="white"/>
<path d="M60.9846 19.9263H56.6211V31.3909H58.2925V26.3535H60.2741C61.2549 26.3535 62.2258 26.028 62.9814 25.3822C63.6269 24.8345 64.0622 24.1267 64.1773 23.3982C64.4325 21.7811 63.0264 19.9418 60.9798 19.9263H60.9846ZM62.3308 23.5946C62.3308 24.8294 61.4601 25.8317 60.3792 25.8317H58.2875V20.815C58.858 20.7065 59.5335 20.6238 60.3042 20.6238H60.3992C61.4701 20.6341 62.3258 21.6365 62.3258 22.8609V23.5946H62.3308Z" fill="white"/>
<path d="M10.1273 13.9348C10.5877 14.3119 11.0531 14.6839 11.5135 15.0611C11.6286 14.4308 11.9588 13.1133 13.0297 11.9353C13.5752 11.336 14.1456 10.9537 14.5809 10.7212H21.3514C21.5166 10.7212 21.5967 10.5197 21.4866 10.3957L14.0405 2.20673L9.677 11.9973C9.37676 12.6741 9.56186 13.475 10.1273 13.9348Z" fill="white"/>
<path d="M18.5646 19.3899L15.5921 16.321C15.457 16.1815 15.2318 16.2848 15.2368 16.4812L15.3569 20.1959C15.3719 20.7177 14.9666 21.1517 14.4611 21.1517H4.78833L13.6955 30.684C13.7806 30.777 13.9307 30.7512 13.9808 30.6323L18.6446 19.8394C18.7097 19.6844 18.6797 19.5088 18.5646 19.3899Z" fill="white"/>
</svg>
