<svg width="141" height="29" viewBox="0 0 141 29" fill="none" xmlns="http://www.w3.org/2000/svg">
<path d="M0 26.0097H1.41749C1.46637 26.9445 2.1409 27.6796 3.69525 27.6796C5.09319 27.6796 5.81659 27.1078 5.81659 26.2094C5.81659 25.3109 5.16162 24.9933 4.12538 24.8027L2.86431 24.5667C1.27085 24.2672 0.263946 23.5684 0.263946 22.2253C0.263946 20.7188 1.51525 19.8203 3.62682 19.8203C5.73839 19.8203 6.99946 20.7279 6.99946 22.2616H5.58197C5.5722 21.4448 4.88789 20.9184 3.59749 20.9184C2.24843 20.9184 1.71076 21.4993 1.71076 22.2253C1.71076 22.8333 2.11157 23.3053 3.22601 23.5231L4.42843 23.75C6.30538 24.0948 7.27319 24.8118 7.27319 26.2003C7.27319 27.8883 5.83615 28.7777 3.68547 28.7777C1.30996 28.7777 0 27.6977 0 26.0188L0 26.0097Z" fill="white"/>
<path d="M8.34766 25.4288C8.34766 23.051 9.87268 22.0527 11.6714 22.0527C13.4702 22.0527 14.8486 23.0601 14.8486 25.3289C14.8486 25.5558 14.8388 25.6738 14.8095 25.8099H9.64784C9.75537 27.1622 10.4886 27.7884 11.7399 27.7884C12.6001 27.7884 13.2551 27.498 13.5484 26.7447H14.7508C14.3402 28.1877 13.1476 28.7685 11.7203 28.7685C9.84335 28.7685 8.34766 27.7521 8.34766 25.4197V25.4288ZM13.5582 24.8661C13.5288 23.7317 12.8445 23.0329 11.6519 23.0329C10.5374 23.0329 9.77492 23.6319 9.65761 24.8661H13.5582Z" fill="white"/>
<path d="M15.8477 25.4288C15.8477 23.0873 17.4998 22.0527 19.2496 22.0527C20.5009 22.0527 22.0357 22.5519 22.2899 24.4759H21.0582C20.8724 23.4776 20.1099 23.1236 19.2399 23.1236C17.969 23.1236 17.1185 23.9676 17.1185 25.4288C17.1185 26.8899 17.9592 27.7067 19.2399 27.7067C20.1197 27.7067 20.8724 27.3346 21.0582 26.3272H22.2899C22.0651 28.2784 20.4912 28.7776 19.2496 28.7776C17.49 28.7776 15.8477 27.7702 15.8477 25.4288Z" fill="white"/>
<path d="M26.5441 27.7157C27.639 27.7157 28.4113 27.0804 28.4113 25.9278V22.1797H29.7603V28.6504H28.4113V27.3527H28.3722C28.2549 27.8336 27.5803 28.7684 26.026 28.7684C24.6574 28.7684 23.5625 28.0333 23.5625 26.2092V22.1797H24.9116V25.9278C24.9116 27.0895 25.4492 27.7157 26.5441 27.7157Z" fill="white"/>
<path d="M31.3711 22.18H32.7202V23.6775H32.7593C32.9645 22.9151 33.6195 22.1074 34.8904 22.1074C35.0663 22.1074 35.2521 22.1165 35.4085 22.1709V23.2328C35.2325 23.2055 35.0761 23.1965 34.9002 23.1965C33.6 23.1965 32.7202 23.977 32.7202 25.4199V28.6508H31.3711V22.18Z" fill="white"/>
<path d="M36.4141 20.3106C36.4141 19.9022 36.7855 19.5664 37.2157 19.5664C37.6458 19.5664 38.0173 19.9022 38.0173 20.3106C38.0173 20.719 37.6458 21.0548 37.2157 21.0548C36.7855 21.0548 36.4141 20.7281 36.4141 20.3106ZM36.5509 22.1801H37.9V28.6509H36.5509V22.1801Z" fill="white"/>
<path d="M40.5227 27.0085V23.1787H39.3789V22.1804H40.5227V20.5469H41.8717V22.1804H43.2501V23.1787H41.8717V26.7998C41.8717 27.4351 42.0966 27.7164 42.8493 27.7164C43.0057 27.7164 43.1328 27.7164 43.3479 27.6892V28.633C43.0937 28.6966 42.8004 28.7329 42.4778 28.7329C41.3145 28.7329 40.5227 28.27 40.5227 26.9995V27.0085Z" fill="white"/>
<path d="M44.4219 20.3106C44.4219 19.9022 44.7934 19.5664 45.2235 19.5664C45.6536 19.5664 46.0251 19.9022 46.0251 20.3106C46.0251 20.719 45.6536 21.0548 45.2235 21.0548C44.7934 21.0548 44.4219 20.7281 44.4219 20.3106ZM44.549 22.1801H45.898V28.6509H44.549V22.1801Z" fill="white"/>
<path d="M47.8516 25.4288C47.8516 23.051 49.3766 22.0527 51.1753 22.0527C52.9741 22.0527 54.3525 23.0601 54.3525 25.3289C54.3525 25.5558 54.3427 25.6738 54.3134 25.8099H49.1517C49.2593 27.1622 49.9925 27.7884 51.2438 27.7884C52.104 27.7884 52.759 27.498 53.0523 26.7447H54.2547C53.8441 28.1877 52.6515 28.7685 51.2242 28.7685C49.3473 28.7685 47.8516 27.7521 47.8516 25.4197V25.4288ZM53.0621 24.8661C53.0327 23.7317 52.3484 23.0329 51.1558 23.0329C50.0413 23.0329 49.2788 23.6319 49.1615 24.8661H53.0621Z" fill="white"/>
<path d="M55.2227 26.7175H56.4446C56.5522 27.5161 57.2853 27.7975 58.1456 27.7975C59.0059 27.7975 59.6706 27.507 59.6706 26.8173C59.6706 26.2909 59.2796 26.0822 58.6246 25.9461L57.3244 25.6738C56.0145 25.3834 55.4182 24.7663 55.4182 23.895C55.4182 22.7152 56.5033 22.0527 58.1261 22.0527C59.7488 22.0527 60.7949 22.7515 60.8633 24.0765H59.7195C59.6022 23.2779 59.0059 23.0147 58.1358 23.0147C57.2658 23.0147 56.7281 23.3051 56.7281 23.8587C56.7281 24.3034 57.041 24.5848 57.7644 24.73L59.0743 25.0022C60.1985 25.2473 61.049 25.6738 61.049 26.781C61.049 28.2149 59.6511 28.7594 58.1261 28.7594C56.4544 28.7594 55.2618 28.1151 55.2227 26.7084V26.7175Z" fill="white"/>
<path d="M124.398 13.1148C125.16 13.8681 129.374 17.4801 135.982 13.2873C140.763 9.82955 140.645 2.34236 140.186 0.0825887C140.029 0.409302 134.477 11.6991 124.398 13.1148ZM140.176 0.0825887C140.117 0.0644379 133.968 -0.716045 127.888 2.91411C124.114 5.17388 123.616 8.47732 123.792 10.6736C132.629 9.75695 139.981 0.336699 140.176 0.0825887Z" fill="white"/>
<path d="M140.176 0.0825886C140.117 0.0644379 133.968 -0.716045 127.888 2.91411C124.114 5.17388 123.616 8.47732 123.792 10.6736C132.629 9.75694 139.981 0.336699 140.176 0.0825886Z" fill="white"/>
<path d="M10.688 12.671H3.80583V9.26771H10.688C12.4085 9.26771 13.2883 10.03 13.2883 11.0193C13.2883 12.0085 12.4281 12.671 10.688 12.671ZM10.4631 7.44356H3.80583V4.57574H10.4631C12.2814 4.57574 12.9853 5.16564 12.9853 5.98242C12.9853 6.7266 12.1641 7.44356 10.4631 7.44356ZM12.213 8.31479C15.1164 8.22404 16.1624 6.88996 16.1624 5.42882C16.1624 3.83156 14.7938 2.51562 11.4701 2.51562H0.824219V14.7039H11.7829C14.5103 14.7039 16.5535 13.642 16.5535 11.3732C16.5535 9.75778 15.4097 8.3874 12.213 8.31479ZM19.1538 2.51562V14.7039H22.1257V2.51562H19.1538ZM34.1792 4.82985H40.729V2.5247H24.6674V4.82985H31.2171V14.7129H34.189V4.82985H34.1792ZM43.2707 2.51562V14.7039H46.2425V9.94836H53.2224V7.95178H46.2425V4.62111H57.5727V2.5247H43.2707V2.51562ZM59.9873 2.51562V14.7039H62.9591V2.51562H59.9873ZM69.0103 5.48328L78.8643 14.7039H82.2272V2.51562H79.2945V11.3006L69.8315 2.51562H66.0581V14.7039H69.0103V5.48328ZM84.417 2.51562V14.7039H98.9634V12.6528H87.3888V9.30401H94.3296V7.40726H87.3888V4.61204H98.9634V2.51562H84.417ZM120.714 2.51562H116.785L111.77 6.80828L106.794 2.51562H102.815L109.805 8.52353L102.551 14.7039H106.481L111.74 10.2115L116.98 14.7039H120.978L113.705 8.50538L120.714 2.51562Z" fill="white"/>
</svg>
