<svg width="114" height="39" viewBox="0 0 114 39" fill="none" xmlns="http://www.w3.org/2000/svg">
<g clip-path="url(#clip0_1280_14509)">
<path d="M4.23126 13.3058H9.42299V34.7253H4.23126V13.3058ZM3.02159 35.9144H10.6275V12.1116H3.02159V35.9093V35.9144ZM33.0194 13.3058H38.5071V34.7253H33.0194V13.3058ZM31.8149 35.9144H39.7167V12.1116H31.8149V35.9093V35.9144ZM4.23126 4.17729H19.1108V34.7253H13.6594V9.12853H4.22607V4.17729H4.23126ZM3.02159 2.98817V10.3228H12.4498V35.9144H20.3152V2.98817H3.02159ZM23.3368 4.17729H38.5071V9.12853H28.7881V34.7202H23.3368V4.17729ZM22.1323 2.98817V35.9144H29.9926V10.3176H39.7115V2.98305H22.1323V2.98817ZM1.20448 1.19424H41.5286V37.7084H1.20448V1.19424ZM0 38.8975H42.7383V0H0V38.8975Z" fill="white"/>
<path d="M63.9187 14.6536H65.2946V20.0097C65.3153 20.5633 65.2582 21.1117 65.1336 21.6499C65.0454 21.9728 64.9104 22.2854 64.7339 22.5725C64.5729 22.8185 64.3808 23.0389 64.1576 23.2285C63.3217 23.9 62.2626 24.2434 61.1879 24.1973C60.1028 24.2485 59.0385 23.9102 58.1923 23.2388C57.969 23.044 57.7717 22.8236 57.616 22.5725C57.4447 22.2906 57.3097 21.9882 57.2266 21.6704C57.102 21.122 57.0501 20.5581 57.0709 19.9943V14.6484H58.4467V20.0046C58.3999 20.635 58.5038 21.2706 58.753 21.8549C58.9762 22.2188 59.3033 22.5058 59.6927 22.6904C60.1547 22.9108 60.6635 23.0184 61.1775 23.0081C61.894 23.0389 62.6001 22.8134 63.1608 22.3777C63.4203 22.1676 63.6228 21.8908 63.7422 21.5781C63.8876 21.0656 63.9499 20.5325 63.9187 19.9995V14.6484V14.6536Z" fill="white"/>
<path d="M75.4876 14.6523H76.7907V24.0884H75.6122L69.2211 16.8204V24.0884H67.9336V14.6523H69.0394L75.4876 21.9818V14.6523Z" fill="white"/>
<path d="M80.9175 14.6523H79.5469V24.0884H80.9175V14.6523Z" fill="white"/>
<path d="M88.4333 14.5198C89.8039 14.4788 91.1278 14.9759 92.1246 15.9037C93.0955 16.8006 93.6354 18.0615 93.5991 19.3736C93.6354 20.6858 93.0903 21.9466 92.1091 22.8282C91.0863 23.7508 89.7416 24.2429 88.3554 24.1967C87.016 24.2377 85.718 23.7406 84.7524 22.8282C83.8023 21.9364 83.2779 20.6909 83.3143 19.3992C83.2779 18.082 83.8023 16.8109 84.7628 15.8985C85.7492 14.9708 87.0679 14.4685 88.4333 14.5146M88.4904 15.8011C87.4884 15.7653 86.5176 16.1292 85.7907 16.816C85.0847 17.4926 84.7005 18.4305 84.7316 19.4044C84.7057 20.3628 85.0898 21.2854 85.7907 21.9466C87.3015 23.3049 89.617 23.2998 91.1174 21.9261C91.8235 21.2547 92.2129 20.3218 92.1869 19.3531C92.2077 18.3998 91.8183 17.4823 91.1174 16.8314C90.4166 16.1548 89.4665 15.7858 88.4852 15.8063" fill="white"/>
<path d="M103.573 14.6523H104.877V24.0884H103.698L97.3071 16.8204V24.0884H96.0195V14.6523H97.1254L103.573 21.9818V14.6523Z" fill="white"/>
<path d="M60.3087 38.9939H57.0742V29.5579H59.5818C60.2152 29.5271 60.8434 29.6348 61.4301 29.8756C62.2815 30.2498 62.8215 31.0955 62.7903 32.013C62.8059 32.9202 62.2088 33.7352 61.3314 34.0068C61.9648 34.1042 62.5515 34.4015 62.998 34.8576C63.4029 35.2779 63.6262 35.8417 63.6158 36.426C63.621 36.8822 63.4912 37.3333 63.242 37.7177C62.9668 38.1175 62.5826 38.4404 62.1362 38.6454C61.5651 38.9017 60.9421 39.0247 60.3139 39.0042M59.613 30.7624H58.4345V33.6019H59.343C59.8933 33.6531 60.4488 33.5045 60.9005 33.1919C61.2068 32.9202 61.3782 32.5307 61.3626 32.1257C61.3626 31.2185 60.7811 30.7675 59.613 30.7675M59.7168 34.8013H58.4396V37.7997H59.7895C60.3035 37.8304 60.8175 37.7741 61.3107 37.6254C61.5754 37.5127 61.7987 37.3281 61.9544 37.0872C62.1102 36.8566 62.1933 36.5798 62.1933 36.303C62.1933 36.0211 62.105 35.7444 61.9389 35.5137C61.7572 35.2677 61.5028 35.078 61.212 34.9807C60.7292 34.8423 60.2256 34.7808 59.722 34.8064" fill="white"/>
<path d="M68.9934 29.502H69.9538L74.2422 38.9944H72.8456L71.5737 36.1959H67.493L66.2937 38.9944H64.8867L68.9986 29.502H68.9934ZM71.0078 34.9965L69.4658 31.5778L68.0381 34.9965H71.013H71.0078Z" fill="white"/>
<path d="M83.5891 29.5586H84.8922V38.9947H83.7137L77.3227 31.7267V38.9947H76.0352V29.5586H77.1462L83.5943 36.8881V29.5586H83.5891Z" fill="white"/>
<path d="M93.0426 29.5586H94.7507L90.6025 34.0383L95.7683 38.9998H93.8993L89.0139 34.3356V38.9998H87.6484V29.5586H89.0191V33.8743L93.0426 29.5586Z" fill="white"/>
<path d="M65.6791 7.37031V8.85671C64.6096 9.41539 63.4103 9.69217 62.2006 9.66654C61.2557 9.69729 60.316 9.47689 59.4854 9.03098C58.7481 8.61581 58.1407 8.011 57.7202 7.28318C57.2893 6.55023 57.066 5.7199 57.0712 4.86906C57.0452 3.55693 57.5852 2.29606 58.5612 1.40422C59.5425 0.471375 60.8664 -0.0360504 62.2318 -0.000171854C63.3895 0.0357067 64.5265 0.297108 65.5805 0.778906V2.22942C64.594 1.63487 63.4622 1.30683 62.3045 1.28121C61.2921 1.25045 60.3108 1.61949 59.5788 2.30631C58.8624 2.9675 58.4678 3.90034 58.4937 4.86906C58.4626 5.83266 58.8468 6.76037 59.558 7.42156C60.2953 8.09813 61.2817 8.45692 62.2889 8.42104C63.4986 8.40566 64.6823 8.03663 65.6843 7.36518" fill="white"/>
<path d="M71.4621 0.0722656H72.4226L76.711 9.56471H75.3144L74.0372 6.76618H69.9617L68.7624 9.56471H67.3555L71.4621 0.0722656ZM73.4765 5.56169L71.9346 2.14297L70.5068 5.56169H73.4817H73.4765Z" fill="white"/>
<path d="M78.3828 9.56427V0.107703H81.42C82.2143 0.0666992 82.9983 0.3281 83.6057 0.835526C84.156 1.33783 84.4519 2.0554 84.4208 2.79347C84.4312 3.31115 84.2858 3.81857 84.0055 4.25424C83.7303 4.67453 83.3305 4.99744 82.8633 5.17683C82.1935 5.39723 81.4927 5.49461 80.7866 5.46386H79.769V9.55914H78.3932L78.3828 9.56427ZM81.1812 1.3122H79.7586V4.26449H81.259C81.7211 4.29524 82.178 4.15686 82.5466 3.87495C82.8581 3.59305 83.0242 3.18301 82.9983 2.76272C82.9983 1.794 82.3908 1.3122 81.176 1.3122" fill="white"/>
<path d="M87.6909 0.123047H86.3203V9.55911H87.6909V0.123047Z" fill="white"/>
<path d="M89.6953 0.107422H97.6854V1.31192H94.3523V9.55886H92.9765V1.31192H89.7005V0.107422H89.6953Z" fill="white"/>
<path d="M101.327 0.0722656H102.287L106.576 9.56471H105.174L103.902 6.76618H99.8211L98.6218 9.56471H97.2148L101.327 0.0722656ZM103.341 5.56169L101.799 2.14297L100.366 5.56169H103.341Z" fill="white"/>
<path d="M108.324 0.123047H109.695V8.33411H113.999V9.56424H108.324V0.123047Z" fill="white"/>
</g>
<defs>
<clipPath id="clip0_1280_14509">
<rect width="114" height="39" fill="white"/>
</clipPath>
</defs>
</svg>
