<svg width="113" height="45" viewBox="0 0 113 45" fill="none" xmlns="http://www.w3.org/2000/svg">
<path d="M65.3983 12.2271H56.6561V14.6243H64.3124L65.3983 12.2271Z" fill="white"/>
<path d="M59.1882 18.8381H62.3258L63.4367 16.4253H56.6561V25.6579L59.1882 25.6889V18.8381Z" fill="white"/>
<path d="M68.8521 25.5023H72.7853V15.5877H70.2232V23.1205H69.4526C69.2674 23.1773 69.0672 23.1773 68.8821 23.1257C68.6969 23.074 68.5218 22.9758 68.3867 22.8312C68.2516 22.6917 68.1515 22.5109 68.1015 22.3197C68.0514 22.1285 68.0564 21.9219 68.1065 21.7307V15.5825H65.5444V21.7307C65.4593 22.7175 65.6995 23.7043 66.2249 24.531C66.5652 24.8875 66.9755 25.1561 67.4309 25.3215C67.8863 25.4868 68.3717 25.5488 68.8521 25.492V25.5023Z" fill="white"/>
<path d="M79.6146 23.1229H76.5971V15.5901H74.05V25.5047H79.6146V23.1229Z" fill="white"/>
<path d="M85.3001 25.5798H88.1174V19.3541H85.5703V23.1205C85.2401 23.1205 84.9098 23.0533 84.6046 22.9242C84.2993 22.795 84.0241 22.5987 83.7889 22.3559C83.5487 22.1285 83.3535 21.8495 83.2234 21.5447C83.0933 21.2347 83.0233 20.9041 83.0183 20.5682C83.0183 20.2272 83.0833 19.8914 83.2134 19.5763C83.3435 19.2611 83.5337 18.9821 83.7739 18.7444C84.0091 18.4965 84.2843 18.3001 84.5946 18.1658C84.9048 18.0315 85.2351 17.9643 85.5703 17.9643H88.0724V15.5825H85.2401C83.969 15.6135 82.7631 16.1508 81.8623 17.0757C80.9666 18.0005 80.4462 19.2508 80.4161 20.5631C80.4161 21.2141 80.5563 21.8599 80.8165 22.454C81.0767 23.0482 81.452 23.5803 81.9274 24.0143C82.3577 24.5 82.8781 24.8875 83.4586 25.1561C84.0391 25.4248 84.6696 25.5643 85.3051 25.5694L85.3001 25.5798Z" fill="white"/>
<path d="M92.6562 25.5023H96.5293V15.5877H93.9672V23.1205H93.2566C93.0715 23.1773 92.8713 23.1773 92.6862 23.1257C92.501 23.074 92.3259 22.9758 92.1908 22.8312C92.0557 22.6917 91.9556 22.5109 91.9055 22.3197C91.8555 22.1285 91.8605 21.9219 91.9105 21.7307V15.5825H89.3485V21.7307C89.2634 22.7175 89.5036 23.7043 90.024 24.531C90.3643 24.8875 90.7746 25.1561 91.23 25.3215C91.6854 25.4868 92.1708 25.5488 92.6511 25.492L92.6562 25.5023Z" fill="white"/>
<path d="M100.291 21.73C101.027 21.668 101.692 22.35 101.597 23.1094V23.1198V25.4551H104.144V22.3396C104.154 21.9418 104.099 21.5491 103.979 21.172C103.864 20.8568 103.659 20.5882 103.389 20.3918C103.644 20.1955 103.839 19.932 103.964 19.6272C104.084 19.312 104.144 18.9814 104.144 18.6455C104.154 17.9274 103.939 17.2299 103.529 16.6513C103.294 16.3051 102.978 16.0261 102.613 15.8401C102.248 15.6541 101.842 15.5611 101.432 15.5766H97.6189V17.9584H100.937C101.027 17.9584 101.112 17.9687 101.197 17.9997C101.277 18.0307 101.357 18.0824 101.422 18.1444C101.532 18.2891 101.592 18.4647 101.592 18.6507C101.592 18.8367 101.532 19.0124 101.422 19.157C101.362 19.219 101.287 19.2707 101.207 19.3017C101.127 19.3327 101.042 19.3482 100.957 19.343H97.6239V21.7248H100.261C100.261 21.7248 100.286 21.7248 100.296 21.7248L100.291 21.73Z" fill="white"/>
<path d="M56.6569 31.0881L52.3434 39.4941L48.0449 31.0881H45.4227L52.3434 44.3662L59.279 31.0881H56.6569Z" fill="white"/>
<path d="M65.5685 34.4053H58.9631V36.8335H65.5685V34.4053Z" fill="white"/>
<path d="M58.9631 44.3686H65.5635V42.0179H61.5252V40.6332H65.5635V38.2205H58.9631V44.3686Z" fill="white"/>
<path d="M72.3194 34.5833C71.864 34.418 71.3836 34.356 70.9032 34.4076H67.03V44.3687H69.5921V36.8359H70.3027C70.4879 36.7791 70.688 36.7791 70.8732 36.8307C71.0583 36.8824 71.2335 36.9806 71.3686 37.1252C71.5037 37.2699 71.6038 37.4456 71.6538 37.6367C71.7038 37.8279 71.6988 38.0345 71.6488 38.2257V44.3739H74.2109V38.1792C74.291 37.1924 74.0558 36.2056 73.5303 35.3789C73.1901 35.0276 72.7797 34.759 72.3244 34.5885L72.3194 34.5833Z" fill="white"/>
<path d="M78.3331 41.7524C78.1079 41.4269 78.0078 41.0291 78.0629 40.6312V39.9441L75.5008 39.9751V40.6312C75.4457 41.6181 75.7109 42.5894 76.2564 43.4005C76.5867 43.7467 76.982 44.0153 77.4223 44.1807C77.8627 44.346 78.3331 44.4132 78.8035 44.3667H81.1254V42.0159H79.409C79.0337 42.0624 78.6533 41.9642 78.3381 41.7524H78.3331Z" fill="white"/>
<path d="M81.0755 36.3316H78.063V34.4819H75.5009V36.3316H75.0455V38.7133H81.0755V36.3316Z" fill="white"/>
<path d="M87.0634 42.0208H86.3528C85.9775 42.0673 85.5972 41.9691 85.282 41.7573C85.0568 41.4318 84.9567 41.0339 85.0117 40.6361V34.4104H82.4496V40.6051C82.3646 41.5919 82.6048 42.5787 83.1302 43.4054C83.4705 43.7619 83.8808 44.0305 84.3362 44.1959C84.7916 44.3612 85.2769 44.4232 85.7573 44.3664H89.6305V34.4053H87.0684V42.0156L87.0634 42.0208Z" fill="white"/>
<path d="M97.2396 37.5148C97.2596 36.7811 97.0444 36.063 96.6241 35.474C96.3889 35.1279 96.0736 34.8489 95.7083 34.6629C95.343 34.4769 94.9377 34.3839 94.5273 34.3994H90.7142V36.8276H94.047C94.137 36.8225 94.2271 36.838 94.3072 36.869C94.3872 36.9 94.4673 36.9516 94.5273 37.0136C94.6374 37.1531 94.6975 37.3288 94.6925 37.5096C94.7025 37.7008 94.6324 37.8816 94.5123 38.0211C94.4523 38.0831 94.3772 38.1348 94.2972 38.1658C94.2171 38.1968 94.132 38.2123 94.0419 38.2071H90.7092V40.5889H93.3464C93.3464 40.5889 93.3664 40.5889 93.3764 40.5889C94.112 40.5166 94.7826 41.2089 94.6925 41.9632V41.9735V44.3708H97.2396V41.2554C97.2496 40.8576 97.1945 40.4649 97.0744 40.0877C96.9593 39.7726 96.7542 39.5039 96.4839 39.3076C96.7492 39.0906 96.9493 38.8064 97.0744 38.4809C97.1845 38.1658 97.2396 37.8351 97.2396 37.4993V37.5148Z" fill="white"/>
<path d="M98.5227 44.3686H105.128V42.0179H101.085V40.6332H105.128V38.2205H98.5227V44.3686Z" fill="white"/>
<path d="M105.128 34.4053H98.5227V36.8335H105.128V34.4053Z" fill="white"/>
<path d="M111.921 39.1688L111.231 38.4042L110.19 37.221C109.865 36.88 109.659 36.4357 109.619 35.9604V34.4053H107.057V36.0534C107.087 36.7405 107.292 37.407 107.658 37.9857C107.948 38.5075 108.298 38.9932 108.699 39.4323L109.799 40.5845C109.955 40.755 110.055 40.9719 110.085 41.2096C110.095 41.4163 110.035 41.6178 109.92 41.7831C109.875 41.8451 109.814 41.8968 109.749 41.9329C109.684 41.9691 109.604 41.9846 109.529 41.9846H106.197V44.3044H110.01C110.345 44.3199 110.68 44.263 110.99 44.1339C111.301 44.0099 111.586 43.8135 111.821 43.5707C112.106 43.2401 112.322 42.8577 112.462 42.4392C112.597 42.0208 112.652 41.5816 112.622 41.1424C112.622 40.4191 112.377 39.7216 111.926 39.1637L111.921 39.1688Z" fill="white"/>
<path d="M36.9202 11.9949H45.242L26.0062 44.3685L13.1307 22.7155H21.4525L25.9762 30.3723L36.9202 11.9898V11.9949ZM32.1262 11.9949H6.75552L10.6587 18.5616H28.2231L32.1262 11.9949ZM38.4714 0.613037H0L2.53207 4.82894L4.55372 8.22336H33.9227L38.4764 0.613037H38.4714Z" fill="white"/>
</svg>
