<svg width="177" height="32" viewBox="0 0 177 32" fill="none" xmlns="http://www.w3.org/2000/svg">
<g clip-path="url(#clip0_1280_14500)">
<path d="M68.9602 22.9419C67.3348 22.9419 66.735 22.2464 66.735 21.1376C66.735 19.8595 67.4703 19.2017 69.3859 19.2017H71.9206V19.9347C71.9206 21.8893 70.6823 22.9419 68.9602 22.9419ZM64.5485 21.3443C64.5485 22.8667 65.4579 24.5018 68.3023 24.5018C69.947 24.5018 71.0886 23.8816 71.8819 22.9043L72.1528 24.2575H73.9329V16.9651C73.9329 13.8452 72.0174 13.3001 69.7341 13.3001C68.012 13.3001 65.7482 13.7888 65.2064 16.3073H67.3929C67.6638 15.3676 68.3216 14.8225 69.7148 14.8225C70.8564 14.8225 71.94 15.2172 71.94 16.9839V17.7545H69.5406C66.6189 17.7545 64.5485 18.6942 64.5485 21.3443ZM58.7437 24.2575H60.7947V17.5665C60.7947 16.0066 61.7816 15.3112 63.0393 15.3112C63.465 15.3112 63.91 15.33 64.355 15.4051V13.4693C63.968 13.3377 63.6197 13.3189 63.2715 13.3189C62.1298 13.3189 61.2398 13.9767 60.7947 14.8977L60.5432 13.6008H58.7437V24.2575ZM131.497 24.2575H133.548V17.5665C133.548 16.0066 134.535 15.3112 135.793 15.3112C136.218 15.3112 136.663 15.33 137.109 15.4051V13.4693C136.722 13.3377 136.373 13.3189 136.025 13.3189C134.883 13.3189 133.993 13.9767 133.548 14.8977L133.297 13.6008H131.497V24.2575ZM92.934 15.3112V13.5633H90.6895V10.5185L88.5804 10.838V13.5633H86.9938V15.3112H88.5804V22.0961C88.5804 23.6185 89.1609 24.5394 91.4634 24.5394C91.9665 24.5394 92.7212 24.4454 93.1855 24.3139V22.7915C92.7018 22.9231 92.2568 22.9419 91.9278 22.9419C90.9604 22.9419 90.6895 22.4908 90.6895 21.5134V15.3112H92.934ZM154.833 15.3112V13.5633H152.569V10.5185L150.46 10.838V13.5633H148.873V15.3112H150.46V22.0961C150.46 23.6185 151.04 24.5394 153.343 24.5394C153.846 24.5394 154.6 24.4454 155.065 24.3139V22.7915C154.581 22.9231 154.136 22.9419 153.807 22.9419C152.84 22.9419 152.569 22.4908 152.569 21.5134V15.3112H154.833ZM124.261 22.8667C122.287 22.8667 121.01 21.5322 121.01 18.8822C121.01 16.2321 122.326 14.9165 124.28 14.9165C126.234 14.9165 127.415 16.3261 127.415 18.9949C127.415 21.5886 126.215 22.8667 124.261 22.8667ZM160.947 22.8667C158.973 22.8667 157.696 21.5322 157.696 18.8822C157.696 16.2321 159.012 14.9165 160.966 14.9165C162.921 14.9165 164.101 16.3261 164.101 18.9949C164.12 21.5886 162.901 22.8667 160.947 22.8667ZM138.54 24.2575H140.553V18.0928C140.553 16.3261 141.346 15.0856 143.242 15.0856C145.022 15.0856 145.564 15.8186 145.564 17.6229V24.2387H147.615V17.0591C147.615 14.597 146.551 13.3189 144.152 13.3189C142.507 13.3189 141.288 13.9016 140.553 14.9165L140.301 13.5633H138.56V24.2575H138.54ZM76.5838 24.2575H78.5768V18.0928C78.5768 16.3261 79.3701 15.0856 81.2663 15.0856C83.0465 15.0856 83.5883 15.8186 83.5883 17.6229V24.2387H85.6393V17.0591C85.6393 14.597 84.5751 13.3189 82.1758 13.3189C80.5311 13.3189 79.3121 13.9016 78.5768 14.9165L78.3252 13.5633H76.5838V24.2575ZM168.222 24.2575H170.215V18.0928C170.215 16.3261 171.009 15.0856 172.905 15.0856C174.685 15.0856 175.227 15.8186 175.227 17.6229V24.2387H177.278V17.0591C177.278 14.597 176.214 13.3189 173.814 13.3189C172.17 13.3189 170.951 13.9016 170.215 14.9165L169.964 13.5633H168.222V24.2575ZM106.962 9.89827V8.16915H95.2559V9.89827H100.035V24.2387H102.241V9.89827H106.962ZM108.026 24.2575H110.019V18.0928C110.019 16.3261 110.793 15.0856 112.709 15.0856C114.489 15.0856 115.031 15.8186 115.031 17.6229V24.2387H117.082V17.0591C117.082 14.597 116.018 13.3189 113.618 13.3189C111.974 13.3189 110.755 13.9016 110.019 14.9165V8.16915H108.026V24.2575ZM50.5202 17.8861H54.4288V21.4571C53.2292 22.472 51.4103 22.8667 49.9398 22.8667C46.2634 22.8667 44.1737 20.5549 44.1737 16.4952C44.1737 12.1912 46.4182 9.8043 49.9011 9.8043C51.9714 9.8043 53.5194 10.5185 54.9899 11.8717L56.2863 10.4433C54.9706 9.03371 52.7067 8 50.1333 8C44.9476 8 41.8711 11.5146 41.8711 16.4389C41.8711 21.3631 44.4252 24.6146 49.9785 24.6146C53.0357 24.6146 55.4156 23.3177 56.5959 22.0773V16.2509H50.5396V17.8861H50.5202ZM124.415 13.3001C120.778 13.3001 118.862 15.7435 118.862 18.9574C118.862 22.1713 120.758 24.483 124.164 24.483C127.569 24.483 129.659 22.3216 129.659 18.901C129.659 15.4803 127.705 13.3001 124.415 13.3001ZM161.102 13.3001C157.445 13.3001 155.548 15.7435 155.548 18.9574C155.548 22.1713 157.445 24.483 160.85 24.483C164.256 24.483 166.345 22.3216 166.345 18.901C166.345 15.3864 164.391 13.3001 161.102 13.3001Z" fill="white"/>
<path d="M16.6077 9.35813L16.6064 9.35774C11.1492 7.67245 6.58067 9.82346 3.80574 13.1347C2.2168 15.0307 1.18497 17.3506 0.928772 19.5796C-0.635863 13.1744 2.14518 6.25106 8.27257 2.71298L8.28362 2.7066L8.29433 2.69967C8.38085 2.64364 8.46998 2.59973 8.58928 2.54179L8.58933 2.54189L8.59885 2.53702C11.3528 1.12592 15.5819 1.96419 18.7682 4.48353C21.6166 6.73573 23.5237 10.253 22.6885 14.4822C21.2516 11.9583 19.1939 10.1643 16.6077 9.35813Z" stroke="white"/>
<path d="M9.63598 15.8421L9.63564 15.8432C7.893 21.1575 10.1222 25.6071 13.5251 28.3021C15.4581 29.8331 17.8141 30.83 20.0788 31.0899C13.4865 32.5962 6.38545 29.8799 2.73924 23.9322L2.7325 23.9212L2.72521 23.9106C2.6683 23.8277 2.62369 23.7423 2.56403 23.6264L2.56411 23.6263L2.55947 23.6177C1.12578 20.9615 1.98213 16.8704 4.57776 13.776C6.88989 11.0195 10.5074 9.15861 14.864 9.95573C12.2966 11.3474 10.4638 13.3364 9.63598 15.8421Z" stroke="white"/>
<path d="M16.3105 22.6416L16.3115 22.6419C21.7595 24.3274 26.3231 22.1759 29.0977 18.8675C30.6971 16.9604 31.7339 14.6243 31.9848 12.385C33.5877 18.8003 30.8063 25.7421 24.6452 29.3057L24.6343 29.312L24.6238 29.3188C24.5373 29.3749 24.4481 29.4188 24.3288 29.4767L24.3288 29.4766L24.3204 29.4809C21.5663 30.8834 17.3366 30.0404 14.1501 27.5187C11.3015 25.2643 9.3944 21.7467 10.2296 17.5175C11.6665 20.0414 13.7242 21.8355 16.3105 22.6416Z" stroke="white"/>
<path d="M23.2805 16.1564L23.2808 16.1554C25.0235 10.8411 22.7942 6.39137 19.3888 3.69633C17.4523 2.16376 15.0915 1.1666 12.8215 0.907927C19.4129 -0.596741 26.5123 2.1197 30.1579 8.06639L30.1646 8.07738L30.1719 8.088C30.2288 8.17091 30.2734 8.25631 30.3331 8.37221L30.333 8.37227L30.3382 8.38199C31.7807 11.0381 30.9292 15.1285 28.3361 18.2228C26.0263 20.979 22.4091 22.84 18.0524 22.0428C20.6199 20.6512 22.4527 18.6621 23.2805 16.1564Z" stroke="white"/>
</g>
<defs>
<clipPath id="clip0_1280_14500">
<rect width="177" height="32" fill="white"/>
</clipPath>
</defs>
</svg>
